<svg xmlns="http://www.w3.org/2000/svg" viewBox="0 0 170.08 65.76"><defs><style>.cls-1{fill:#fff;}</style></defs><g id="Layer_2" data-name="Layer 2"><g id="Ebene_2" data-name="Ebene 2"><path class="cls-1" d="M143.82,32.37a.79.79,0,0,0,0,1l26.07,31.08a.78.78,0,0,1-.6,1.29H137a.78.78,0,0,1-.6-.28L119.77,45.65a.8.8,0,0,0-1.12-.1.78.78,0,0,0-.28.61V65a.79.79,0,0,1-.79.79H92.86a.79.79,0,0,1-.79-.79V43.09a.8.8,0,0,0-.79-.79.82.82,0,0,0-.61.28L79.52,55.88a.43.43,0,0,1-.1.09.79.79,0,0,1-1.11-.09L67.16,42.58A.8.8,0,0,0,66,42.49a.81.81,0,0,0-.28.6A22.67,22.67,0,0,1,43.09,65.76H.79A.79.79,0,0,1,0,65V40.25a.79.79,0,0,1,.79-.79h36a2.63,2.63,0,0,0,2.63-2.63V.79A.79.79,0,0,1,40.25,0H65.39A.78.78,0,0,1,66,.28L78.31,15a.78.78,0,0,0,1.11.1l.1-.1L91.83.28A.78.78,0,0,1,92.44,0h25.14a.79.79,0,0,1,.79.79V19.61a.8.8,0,0,0,.79.79.81.81,0,0,0,.61-.29L136.41.28A.78.78,0,0,1,137,0h32.28a.83.83,0,0,1,.51.19.79.79,0,0,1,.09,1.11Z"/><circle class="cls-1" cx="13.93" cy="13.93" r="13.93" transform="translate(-0.25 0.25) rotate(-1.02)"/></g></g></svg>