<svg xmlns="http://www.w3.org/2000/svg" viewBox="0 0 170.08 93.62"><defs><style>.cls-1{fill:#009fe3;}.cls-2{fill:#fff;}</style></defs><g id="Layer_2" data-name="Layer 2"><g id="Ebene_3" data-name="Ebene 3"><path class="cls-1" d="M53.31,93.62V72h9V93.62Z"/><path class="cls-1" d="M29.89,85.42H35a16.56,16.56,0,0,0,6.69-1,3.31,3.31,0,0,0,2.08-3.16v-5A3.37,3.37,0,0,0,41.64,73Q39.57,72,35,72H1.86V93.62h8.83V75.8H31a9.16,9.16,0,0,1,3.21.38A1.32,1.32,0,0,1,35,77.47V80a1.34,1.34,0,0,1-.86,1.35,9.55,9.55,0,0,1-3.21.36H13.16v3.68h6.07l15.62,8.2H47.78Z"/><path class="cls-1" d="M114.7,74.78Q109,72,98.33,72H73.4V93.62h9V75.92h16c4.21,0,7.4.57,9.55,1.71a5.41,5.41,0,0,1,3.24,5c0,2.47-1.3,4.25-3.9,5.32s-7,1.61-13.23,1.61H84.84v4H96c3.9,0,7.11-.12,9.61-.38A27.44,27.44,0,0,0,111.9,92a15.12,15.12,0,0,0,6.29-3.82,7.83,7.83,0,0,0,2.24-5.46Q120.43,77.57,114.7,74.78Z"/><polygon class="cls-1" points="137.23 89.58 137.23 75.68 167.81 75.68 167.81 72 128.26 72 128.26 93.62 168.22 93.62 168.22 89.58 137.23 89.58"/><rect class="cls-1" x="139.7" y="80.55" width="26.21" height="3.68"/><path class="cls-2" d="M.79,65.76h42.3A22.67,22.67,0,0,0,65.76,43.09a.78.78,0,0,1,.28-.6.8.8,0,0,1,1.12.09l11.15,13.3a.79.79,0,0,0,1.11.09.43.43,0,0,0,.1-.09l11.15-13.3a.82.82,0,0,1,.61-.28.8.8,0,0,1,.79.79V65a.79.79,0,0,0,.79.79h24.72a.79.79,0,0,0,.79-.79V46.16a.82.82,0,0,1,.28-.61.79.79,0,0,1,1.12.1l16.64,19.83a.78.78,0,0,0,.6.28h32.28a.78.78,0,0,0,.6-1.29L143.82,33.39a.79.79,0,0,1,0-1L169.89,1.3A.8.8,0,0,0,169.8.18a.85.85,0,0,0-.51-.18H137a.78.78,0,0,0-.6.28L119.77,20.11a.81.81,0,0,1-.61.29.8.8,0,0,1-.79-.79V.79a.79.79,0,0,0-.79-.79H92.44a.78.78,0,0,0-.61.28L79.52,15l-.1.1a.78.78,0,0,1-1.11-.1L66,.28A.78.78,0,0,0,65.39,0H40.25a.79.79,0,0,0-.79.79v36a2.63,2.63,0,0,1-2.63,2.63H.79a.79.79,0,0,0-.79.79V65A.79.79,0,0,0,.79,65.76Z"/><path class="cls-1" d="M31.57,15.78A15.79,15.79,0,1,0,15.78,31.57,15.79,15.79,0,0,0,31.57,15.78Z"/></g></g></svg>