<svg xmlns="http://www.w3.org/2000/svg" viewBox="0 0 186.45 85.04"><defs><style>.cls-1{fill:#fff;}</style></defs><g id="Layer_2" data-name="Layer 2"><g id="Ebene_2" data-name="Ebene 2"><path class="cls-1" d="M39.64,85h0L37.38,85l-2.24-.13L34,84.74H34l-1.06-.12h0l-1.05-.13h0l-1-.16h0l-1-.18h-.05l-1-.2h-.06l-1-.22h-.05l-1-.24-.06,0-1-.26h-.06l-1-.28-.06,0-.94-.3-.06,0-.92-.32-.07,0-.9-.34-.06,0-.88-.36-.07,0L19.6,81l-.07,0-.84-.4-.07,0-.81-.41-.08,0-.79-.44-.07,0-.76-.45-.08,0-.74-.47-.07,0-.71-.49-.08-.06-.68-.51a.24.24,0,0,1-.08-.06L13,77a.27.27,0,0,1-.08-.07l-.63-.54a.46.46,0,0,1-.07-.07l-.6-.55a.3.3,0,0,0-.08-.08L11,75.09,10.92,75l-.52-.59-.08-.09-.5-.6a.86.86,0,0,0-.07-.1L9.29,73l-.08-.1-.42-.64-.07-.11-.39-.64a.75.75,0,0,0-.07-.12l-.35-.66-.06-.13-.31-.67-.06-.13-.27-.68a.78.78,0,0,1,0-.14l-.24-.7s0-.09,0-.14l-.2-.7,0-.15-.16-.71,0-.15-.11-.73s0-.1,0-.15l-.07-.73s0-.1,0-.15l0-.74v-.16l0-.75a.76.76,0,0,1,0-.15l.06-.75c0-.05,0-.1,0-.15l.11-.76s0-.09,0-.14l.15-.76a.83.83,0,0,1,0-.15l.19-.76s0-.1,0-.14l.24-.77,0-.14.29-.76a.5.5,0,0,1,0-.13l.33-.77.06-.12.39-.77a.24.24,0,0,1,.06-.11l.43-.77.06-.11.48-.77.07-.1.53-.76a.61.61,0,0,1,.07-.1l.57-.76.07-.08.63-.76.07-.08.68-.75.07-.08.73-.74.07-.07.78-.74.07-.06.83-.73.07-.06.88-.72.07-.06.93-.7a.18.18,0,0,1,.07-.05l1-.7.07-.05,1-.68.07,0,1.08-.67.07,0L21,43.81l.07,0,1.19-.64.06,0,1.24-.63.06,0,1.29-.6.07,0,1.34-.59.06,0,1.4-.57.06,0L29.28,40l.06,0,1.5-.53.06,0L32.45,39l.06,0,1.6-.49.06,0L35.82,38l0,0,1.71-.45,1.82-.43,1.86-.42,1.92-.39,2-.36,2-.34,2.07-.32a2.64,2.64,0,0,1,1.22,5.12l-1.9.63-1.91.72-2,.8-2,.87-1.94.95-1.91,1L37,46.4l-1.79,1.11-1.7,1.14-1.6,1.16L30.42,51,29,52.2l-1.29,1.21-1.16,1.21-1,1.2L24.63,57l-.77,1.15-.65,1.13-.52,1.08-.39,1-.28,1-.17.93-.07.88,0,.82.11.78.2.74.28.71.36.67.44.66.54.62.62.61.71.57.8.54.89.5,1,.45,1,.42,1.11.35,1.18.31,1.23.25,1.28.2,1.32.13,1.37.08,1.39,0,1.42,0,1.44-.1L42,73.31l1.46-.21,1.46-.28,1.45-.33,1.44-.38,1.44-.44,1.41-.49L52,70.64l1.37-.58,1.32-.62,2-1,1.87-1.1,1.77-1.19L62,64.87l1.58-1.32,1.49-1.36,1.38-1.41,1.28-1.43,1.19-1.46L70,56.41l1.32-2,1.17-2,1.27-2.39,2.4-5.33,1.94-4.39.65-1.22,0,0,.14-.24,0-.05.14-.22,0-.07.15-.21,0-.06.15-.19a.35.35,0,0,1,.05-.08l.15-.18.07-.09.14-.17.07-.08.15-.15.09-.1.14-.14.11-.09.14-.13.12-.1.14-.11.14-.11.15-.1.17-.1.15-.09.17-.09.15-.07L82,36l.15-.06.23-.08.15,0,.23-.06.15,0,.25,0h.8l.16,0,.24,0,.15,0,.22,0,.16,0,.21.07.15.05.19.08.16.07.18.09.16.09.15.09.16.1.12.09.16.11.14.11.16.13.09.08.16.14a.47.47,0,0,0,.1.1l.15.16.09.09.15.17.07.09.15.19a.27.27,0,0,1,.07.08l.15.2.06.08.14.21.06.09.15.23a.43.43,0,0,1,0,.07l.14.24.05.08.14.25,0,.06.14.27a.36.36,0,0,0,0,.09l.13.28,0,.06.13.29a.25.25,0,0,1,0,.07l.13.31,0,.06.12.32,0,.07.11.33,0,.07.11.34,0,.06.1.36a.14.14,0,0,1,0,.06l.1.37s0,0,0,.07l.09.38v0l.08.4,0,.06.07.41v.06l.07.42v0l.06.42s0,0,0,.07l0,.44v.05l0,.45v.06l0,.46v.06l0,.47v.06l0,.47V49l0,.5v.07l0,.51v.06l0,.52v.05l-.06.53v.06l-.08.54a.2.2,0,0,1,0,.07l-.08.54v0l-.1.55a.13.13,0,0,0,0,.06l-.12.55v.07l-.13.56,0,.05-.14.57,0,.06-.16.57a.14.14,0,0,1,0,.06l-.17.58,0,0-.19.58a.14.14,0,0,0,0,.06l-.21.58a.14.14,0,0,0,0,.06l-.23.59,0,.06-.25.59,0,.06-.26.59,0,.05-.28.6s0,0,0,.05l-.3.6,0,.06-.32.59,0,0-.34.6,0,.06-.35.6,0,.05-.38.6,0,0-.39.6,0,.05-.41.6,0,0-.42.6a.21.21,0,0,0,0,.06l-.45.59,0,0-.47.59,0,0-.49.59,0,0-.51.59s0,0,0,0l-.53.59,0,0-.55.58a.08.08,0,0,0,0,0l-.57.57,0,0-.59.58,0,0-.6.57,0,0-.63.56,0,0-1.35,1.14,0,0-.69.54,0,0-1.47,1.09,0,0-1.54,1,0,0-1.62,1-1.74,1-.89.47,0,0-1.79.9-1.91.87-2,.81-2,.75-2.07.7-2.11.62-2.16.56-2.18.49L51,84.1l-2.24.35-2.26.26-2.27.19L41.92,85l-2.27,0Z"/><path class="cls-1" d="M134.81,70.6a2.65,2.65,0,0,1-.81-5.16l1.89-.63,1.91-.71,1.95-.8,2-.88,1.94-1,1.91-1,1.86-1.07,1.79-1.1,1.71-1.15L152.51,56,154,54.8l1.4-1.2,1.28-1.21,1.16-1.21,1-1.2.9-1.18.78-1.15.64-1.12.52-1.08.4-1,.28-1,.17-.92.06-.88,0-.83-.12-.78-.19-.73-.28-.71-.36-.68-.45-.65-.53-.63-.63-.6-.71-.57-.8-.54-.88-.5-1-.46-1-.41-1.11-.36-1.17-.31-1.24-.25-1.28-.19-1.32-.14-1.36-.08-1.4,0-1.42,0-1.43.1-1.48.16-1.46.22-1.45.27-1.46.33-1.44.39-1.43.44-1.42.48-1.39.54-1.37.58-1.31.62-2,1L125.9,38.5l-1.77,1.18-1.68,1.26-1.59,1.31-1.48,1.36L118,45l-1.28,1.44-1.19,1.46-1.43,2-1.28,2-1.39,2.44-1.64,3.29-3.93,8.78,0,0-.31.52,0,.06-.14.22a.43.43,0,0,1,0,.07l-.15.21a.18.18,0,0,1,0,.07l-.14.2,0,.06-.14.18-.07.09-.14.17-.08.08-.14.16-.09.09-.15.14a.94.94,0,0,1-.1.1l-.15.13-.12.1-.15.11-.13.1-.14.1-.16.1-.15.09-.19.09-.15.08-.19.08-.15.06-.22.07-.15,0-.24.06-.16,0-.21,0h-.15l-.27,0h-.54l-.26,0-.15,0-.22,0-.16,0-.21-.06-.15-.06L99,69.77l-.16-.07a.76.76,0,0,1-.18-.09l-.15-.08-.16-.09-.15-.1-.14-.1-.15-.11-.13-.1-.16-.13-.1-.09-.16-.15a.38.38,0,0,1-.09-.09l-.15-.15-.09-.1-.16-.17a.27.27,0,0,0-.07-.08l-.15-.19-.06-.08-.15-.2-.07-.09-.15-.22,0-.08L96.06,67a.25.25,0,0,1,0-.07l-.15-.24a.41.41,0,0,0-.05-.09l-.13-.25a.25.25,0,0,1,0-.07L95.51,66l0-.07-.13-.28,0-.06-.13-.3,0-.07L95,64.91s0,0,0-.06l-.12-.32,0-.07-.11-.33s0,0,0-.06l-.11-.34,0-.07-.1-.36,0-.06-.1-.37s0,0,0-.06l-.09-.38a.64.64,0,0,1,0-.07L94.18,62a.13.13,0,0,1,0-.06l-.08-.4v-.06L94,61V61l-.12-.91V60L93.8,59s0,0,0-.07l0-.46V56.8l0-.51v0l0-.51s0,0,0-.06l0-.52a.17.17,0,0,0,0-.07l.06-.53v0L94,54s0,0,0-.06l.09-.54V53.3l.09-.54a.64.64,0,0,1,0-.07l.11-.55a.13.13,0,0,0,0-.06l.13-.56s0,0,0-.06l.14-.57s0,0,0-.06l.16-.57,0,0,.17-.58a.14.14,0,0,0,0-.06l.2-.58a.14.14,0,0,1,0-.06l.21-.58,0-.06.22-.58,0-.06.24-.59L96,47l.26-.59,0-.06.28-.6,0,0,.29-.59,0-.06.32-.6,0-.05.33-.6,0,0,.35-.6,0,0,.37-.6,0-.06.39-.59,0-.06.41-.59,0-.05.43-.6,0,0,.45-.59,0,0,.47-.59,0-.05.48-.59,0-.05.51-.58,0,0,.53-.59,0,0,.55-.58,0,0,.56-.58,0,0,.59-.57,0,0,.61-.57,0,0,.63-.56,0,0,.65-.55s0,0,0,0l.67-.55,0,0,.68-.54,0,0,.7-.53,0,0,.73-.52,0,0,1.55-1.05,0,0,1.62-1,1.74-1,1.8-.95,1.87-.89,1.93-.85,2-.78,2-.72,2.09-.66,2.14-.6,2.17-.52,2.2-.46,2.24-.38,2.25-.3,2.27-.23,2.27-.15,2.28-.07h1.14l2.26.06,2.25.14,1.11.1h.06l1.05.11h.05l2.14.3h.05l1,.18h.06l1,.2h.06l1,.22.06,0,1,.24H158l1,.26.06,0,1,.28.06,0,.94.3.06,0,.92.32.07,0,.9.34.07,0,.88.36.07,0,.86.38.06,0,.84.4.07,0,.81.42.08,0,.79.43.07,0,.76.46.08,0,.74.48.08.05.71.49.07.05.68.51.08.06.66.52a.27.27,0,0,0,.08.07l.62.54.08.07.59.56.08.08.56.57.08.09.53.59.07.08.5.61a.86.86,0,0,1,.07.1l.46.62.08.1.42.63.07.11.39.65.07.11.35.66.06.13.32.67s0,.09.05.13l.28.69a1.21,1.21,0,0,0,0,.14l.23.69,0,.14.19.71s0,.09,0,.14l.15.72,0,.15.11.72a.78.78,0,0,1,0,.16l.07.73a.76.76,0,0,1,0,.15l0,.74V42l0,.75v.15l-.06.75s0,.1,0,.16l-.11.75a.77.77,0,0,1,0,.15l-.15.76,0,.15-.2.76a.74.74,0,0,1,0,.14l-.24.77a1.12,1.12,0,0,1-.05.13l-.28.77-.06.12-.33.77-.06.13-.38.76-.06.12-.44.77-.06.1-.48.77a.36.36,0,0,1-.07.1l-.52.77-.07.09-.58.76-.07.09-.63.76-.07.08-.68.75a.46.46,0,0,1-.07.07l-.72.75-.08.07-.77.73-.08.07-.83.73-.07.06-.87.71-.07.06-.93.71-.08,0-1,.69a.18.18,0,0,1-.07,0l-1,.69-.07,0-1.08.67-.07,0-1.13.65-.07,0-1.19.64-.06,0-1.24.62-.06,0-1.29.61-.07,0-1.34.59-.06,0-1.39.57-.06,0-1.45.55-.06,0-1.5.53-.06,0-1.55.52h-.05l-1.61.49-.05,0-1.66.47h-.05l-1.71.45h-.05l-1.77.43-1.86.41-1.92.39-2,.37-2,.34-2.07.31A1.81,1.81,0,0,1,134.81,70.6Z"/><path class="cls-1" d="M2.11,40.48A2.11,2.11,0,0,1,.49,37l.83-1L1.37,36l.88-1,.06-.06L3.24,34l.06-.06,1-.93.06-.06,1-.91,0,0,1.08-.89.06,0,1.12-.87.06,0,1.17-.84,0,0,1.22-.82.05,0,1.27-.81,0,0,1.32-.78.05,0L14.27,26l1.45-.78,1.5-.75,1.54-.73L20.34,23,22,22.3l1.66-.68L25.31,21l1.74-.65L30.62,19l3.7-1.21,3.83-1.15,3.94-1.11,4-1.07,4.13-1,4.21-1,4.28-.94,6.53-1.34L71.89,9,78.57,7.8l6.69-1.09,6.69-1,8.84-1.2,8.69-1L118,2.56l8.18-.76L134,1.19l9.21-.58,8.48-.38L159.3,0l5.48,0,6,.09,5,.22L179,.56l2,.24,1.64.27h0l.42.09.07,0,.37.1.07,0,.33.09.11,0,.28.1.12.05.24.1.18.08.19.11a1.58,1.58,0,0,1,.24.15l.14.11a2.55,2.55,0,0,1,.3.26l.1.11a2,2,0,0,1,.34.49l.05.11a2,2,0,0,1,.22.76V4a1.91,1.91,0,0,1-.08.79l0,.12a2.22,2.22,0,0,1-.28.58l-.07.11a2,2,0,0,1-.3.35l-.13.12-.22.19-.17.12-.17.11-.22.12-.13.07-.26.12-.1,0L184,7l-.08,0-.35.13-.06,0-.39.13h0l-1.5.42L179,8.27,174.91,9l-6.08.92-14.19,1.82-84.18,10L58.69,23.43,49.23,25,43.3,26l-5.61,1.13-4,.9L29.86,29l-3.65,1-3.47,1-2.23.74-2.15.78-2.09.8-2,.84-2,.88-1.9.92L8.53,37l-1.8,1L5,39l-1.7,1.1A2.1,2.1,0,0,1,2.11,40.48Z"/></g></g></svg>