<svg xmlns="http://www.w3.org/2000/svg" xmlns:xlink="http://www.w3.org/1999/xlink" viewBox="0 0 18.78 24.53"><defs><style>.cls-1{fill:#232323;}.cls-2{fill:#deb27d;}.cls-3{fill:#b19f8a;}.cls-4{fill:#d8ae7d;}.cls-5{fill:#baa796;}.cls-6{opacity:0.6;fill:url(#radial-gradient);}.cls-7{fill:#f6a784;}.cls-8{fill:#f2f3f4;}</style><radialGradient id="radial-gradient" cx="2.74" cy="6.56" r="0.7" gradientUnits="userSpaceOnUse"><stop offset="0" stop-color="#f6a784"/><stop offset="1" stop-color="#d8ae7d"/></radialGradient></defs><g id="Layer_2" data-name="Layer 2"><g id="Layer_2-2" data-name="Layer 2"><path class="cls-1" d="M6.26,23.91s-.21.67,0,.61a.75.75,0,0,0,.33-1.07c-.28-.32-.4-.06-.52,0a.92.92,0,0,0-.25,1C6,24.63,6.26,23.91,6.26,23.91Z"/><polygon class="cls-2" points="6.09 23.45 6.61 23.45 6.61 20.34 6.12 20.34 6.09 23.45"/><path class="cls-1" d="M9,23.91s-.21.67,0,.61a.75.75,0,0,0,.34-1.07c-.29-.32-.41-.06-.52,0-.36.21-.32.87-.26,1S9,23.91,9,23.91Z"/><polygon class="cls-2" points="8.8 23.45 9.32 23.45 9.32 20.34 8.83 20.34 8.8 23.45"/><path class="cls-1" d="M14.4,23.69s-.21.67,0,.61a.75.75,0,0,0,.33-1.07c-.28-.32-.4-.06-.51,0-.36.21-.32.87-.26,1S14.4,23.69,14.4,23.69Z"/><polygon class="cls-2" points="14.24 23.23 14.76 23.23 14.76 20.12 14.26 20.12 14.24 23.23"/><path class="cls-1" d="M16.66,23.69s-.16.68.06.61A.75.75,0,0,0,17,23.21c-.31-.31-.41,0-.52,0a.92.92,0,0,0-.19,1C16.46,24.42,16.66,23.69,16.66,23.69Z"/><polygon class="cls-2" points="16.47 23.24 16.99 23.21 16.79 20.1 16.29 20.13 16.47 23.24"/><path class="cls-3" d="M17,15.21s-.05.43.49.46c.17,0,.15,0,.19.11.12.26.89.2.72-.37,0,0,.8-.29.14-.82,0,0,.48-.62-.27-.74,0,0,.06-.77-.6-.59,0,0-.4-1.27-1.31.17A1.06,1.06,0,0,0,17,15.21Z"/><path class="cls-3" d="M5.5,17.31s-.74.07-.74.51.29.65.47.6c0,0-.67.69.18,1,0,0-.54.69.24.93,0,0,.18.62.95.2,0,0,.8.2.51-.7a.48.48,0,0,0,.4-.72s.65-.4.51-.88S5.5,17.31,5.5,17.31Z"/><path class="cls-3" d="M13.63,18.42l-.28.33s-.42.51-.33.74a.5.5,0,0,0,.61.29s-.41.68.4.6c0,0,.32.61.65-.09,0,0,.62.33.58-.34,0,0,.51,0,.38-.43s.59-.54.17-1.52S13.63,18.42,13.63,18.42Z"/><path class="cls-2" d="M3.83,2.75A10.37,10.37,0,0,1,2,4.76C1.35,5.2-.91,6.49.4,8c.78.87,2.3.2,2.94-.28S5.92,6.29,6,6.14,7.76,2.86,3.83,2.75Z"/><path class="cls-1" d="M4.17,4.31a.2.2,0,1,0-.4,0,.2.2,0,1,0,.4,0Z"/><path class="cls-1" d="M3.3,4a.19.19,0,1,0-.37,0,.18.18,0,0,0,.18.19A.18.18,0,0,0,3.3,4Z"/><path class="cls-4" d="M4.81,3.14S3.28,1.39,4.81,0a4,4,0,0,1,.6,2.85Z"/><path class="cls-5" d="M7.4,5a.71.71,0,0,1,.07,1.2.86.86,0,0,1-.2,1.36.8.8,0,0,1,.09,1.28s.8.31.16,1.22a.69.69,0,0,1,.26,1.09s.44.08.35.46a.76.76,0,0,1,1.16-.15.87.87,0,0,1,1.44,0,.87.87,0,0,1,1.44.15.86.86,0,0,1,1.4.22.8.8,0,0,1,1.31.4.57.57,0,0,1,.95.4s1-.08.69.82a.73.73,0,0,1,.26,1.11.72.72,0,0,1,.15,1.25s.74.42,0,1c0,0,.73.22.11.9a.41.41,0,0,1,.25.67s.43.24,0,.47c0,0,.44.53-.18.71,0,0,.25.44-.33.53a.37.37,0,0,1-.58,0s-.64,0-.21-.49c0,0-.87-.07-.36-.73,0,0-.91-.24-.36-1,0,0-.44,1.07-1.21.55,0,0-.21,1-1,.25a.56.56,0,0,1-1,0s-.49.76-.86.07c0,0-.64.64-.89-.22a.54.54,0,0,1-.09.82s.53.61-.13.87c0,0,.46.66-.42.63,0,0-.25.49-.69,0,0,0-1.06.32-.55-.57,0,0-.83-.34-.11-.91,0,0-.81-.31-.51-.87,0,0-.74.65-.92-.26,0,0-.9.42-.86-.62,0,0-.87.37-.75-.62,0,0-1,0-.47-.82,0,0-1.28-.18-.55-1.38A1,1,0,0,1,4,13.14a1,1,0,0,1,0-1.66s-1-1,.17-1.66c0,0-.82-1.07.25-1.47,0,0-.54-1.12.55-1.22A.75.75,0,0,1,5.5,6s-.63-.75.4-1c0,0-.43-.37,0-.66,0,0-.91.15-.46-.76,0,0-.69.62-.91-.33,0,0-.91.38-1.06-.18s.7-.88,1.17-.48c0,0,.69-.76,1.15.08,0,0,.65-.33.73.45,0,0,.31-.11.38.33,0,0,.62-.09.4.64A.53.53,0,0,1,7.4,5Z"/><path class="cls-6" d="M3.44,6.56a.7.7,0,0,0-.7-.71A.71.71,0,0,0,2,6.56a.7.7,0,0,0,.71.7A.7.7,0,0,0,3.44,6.56Z"/><path class="cls-1" d="M2,6.52A.06.06,0,0,0,2,6.58s-.06,1.28-.84,1.31H1.08l0-1.14A1.23,1.23,0,0,0,1.61,6c0-.17-.08-.2-.2-.17s-.3.63-.41.63S.76,6.09.62,6s-.23.08-.16.27a1,1,0,0,0,.48.47L1,7.88C.35,7.75.25,6.75.25,6.74a.06.06,0,1,0-.11,0S.25,7.89,1,8h.14c.88,0,1-1.36,1-1.42A.06.06,0,0,0,2,6.52Z"/><path class="cls-2" d="M6.37,3.5a2,2,0,0,1,.35-1.93C7.41.64,8.16.42,8.38.53A2.59,2.59,0,0,1,8,2.46c-.65.91-1.21,1.17-1.34,1.17A.44.44,0,0,1,6.37,3.5Z"/><path class="cls-7" d="M7.11,2.07c.31-.5,1-1.16,1.07-1a2.14,2.14,0,0,1-.42,1.23A3.55,3.55,0,0,1,6.59,3.41,2.44,2.44,0,0,1,7.11,2.07Z"/><path class="cls-8" d="M3.24,4a.07.07,0,0,0-.06-.07A.07.07,0,0,0,3.11,4,.07.07,0,0,0,3.18,4,.06.06,0,0,0,3.24,4Z"/><path class="cls-8" d="M4.12,4.24a.07.07,0,0,0-.07-.07.07.07,0,1,0,0,.14A.07.07,0,0,0,4.12,4.24Z"/></g></g></svg>