<svg xmlns="http://www.w3.org/2000/svg" viewBox="0 0 31.99 12.65"><defs><style>.cls-1{fill:#8a5d3f;}.cls-2{fill:#df8d87;}.cls-3{fill:#352419;}.cls-4{fill:#7b553a;}.cls-5{fill:#312e2c;}.cls-6{fill:#f1eaea;}.cls-7{fill:#775238;}.cls-8{fill:#2b2727;}</style></defs><g id="Layer_2" data-name="Layer 2"><g id="Layer_2-2" data-name="Layer 2"><path class="cls-1" d="M6,1.92c-.2.11-.68-.3-.25-.56s.52.35.43.44A.54.54,0,0,1,6,1.92Z"/><path class="cls-2" d="M6,1.87c-.11.06-.38-.17-.14-.31s.29.19.24.24A.22.22,0,0,1,6,1.87Z"/><path class="cls-3" d="M23.56,9.14c-.18-.17-.39,0-.65.34l-.07.09h0l-1,1c-.25.27-.43.51-.32.62s.52-.31.52-.31-.28.37-.07.48.41-.32.41-.32-.18.27,0,.32.26-.2.29-.29c0,.07-.06.22.07.22s.3-.74.47-1.07S23.84,9.39,23.56,9.14Z"/><path class="cls-3" d="M13.07,11.39c-.05-.24-.34-.2-.73-.09l-.11,0h0l-1.41.2c-.37.07-.65.16-.62.32s.6,0,.6,0-.45.15-.34.35.53,0,.53,0-.31.12-.19.27.33,0,.4-.08-.17.15-.07.23.68-.44,1-.61S13.15,11.75,13.07,11.39Z"/><path class="cls-3" d="M20.63,11c-.07-.24-.35-.19-.73-.06l-.11,0h0l-1.41.27c-.36.1-.64.2-.6.35s.6,0,.6,0-.43.16-.32.36.53-.05.53-.05-.3.14-.18.28.33,0,.4-.09-.16.16-.06.23.66-.47,1-.66S20.73,11.3,20.63,11Z"/><path class="cls-3" d="M8.94,11.31c0-.25-.33-.22-.72-.13l-.11,0h0l-1.43.14c-.36.06-.65.13-.63.29s.6.07.6.07-.45.12-.35.33.52,0,.52,0-.31.1-.2.25.33,0,.41,0-.18.14-.08.22.69-.4,1-.56S9,11.67,8.94,11.31Z"/><path class="cls-4" d="M21.67,5.4h0a.75.75,0,0,0-.07.12.1.1,0,0,0,.07,0Z"/><path class="cls-4" d="M21.69,6.14c-.44,0-.43-.28-.43-.28-.31.18.34.5.11.6s-.37-.09-.42,0c-.8,1.07.46,2.39-.31,2.06,0,0-.05,0-.05,0,.76,1,1.57,1.79,2,1.74.09,0,.09,0,0-.27s.25.08.36-.08-.14-.26-.08-.35.3.12.38,0-.15-.24-.07-.36.27.14.3,0c.07-.4-.64-.54-.4-.54.59,0-.56-.74-.35-.75.7,0-.59-.77-.38-.78.89,0-.75-.79-.45-.82.61-.05-.05-.47-.35-.69A.75.75,0,0,0,21.69,6.14Z"/><path class="cls-4" d="M12.26,6c-.42.24-.22,1.23-.67.54-.16-.25-.17,1.8-.62,1-.06-.1-.05.27-.08.61a10,10,0,0,0,.47,3.1c0,.08.25.54.44.21s.17.13.35.13.09-.27.19-.27.16.23.28.21,0-.24.13-.3.14.22.23.14c.24-.21-.23-.77,0-.64.48.31-.07-.9.11-.79.57.35-.08-.94.1-.84.74.43-.19-1,.06-.89.71.37-.12-1,.06-.92.64.44-.11-1.21.11-1.07.45.28.35,0,.32-.31A1.94,1.94,0,0,0,12.26,6Z"/><path class="cls-1" d="M31.44,7.81v0Z"/><path class="cls-1" d="M25.43,6.15A.17.17,0,0,0,25.49,6,.38.38,0,0,0,25.43,6.15Z"/><path class="cls-1" d="M31.65,7.23h0Z"/><path class="cls-1" d="M21.56,5.67a.42.42,0,0,1,0-.15l-.16,0C21.38,5.53,21.45,5.59,21.56,5.67Z"/><path class="cls-1" d="M21.67,5.4v.07A.08.08,0,0,0,21.67,5.4Z"/><path class="cls-1" d="M20.81,1.55C19.09.64,10.65-1.68,5.63,2.06,1.64,5,.33,8.37.06,9.69a.53.53,0,0,1,.46.24C1.67,8.79,4.59,5.11,9,5.43c0,0-2.34,5.19-1.67,6,.07.08.1,0,.26-.17s.06.28.28.29.15-.29.27-.28.06.34.21.35.13-.28.29-.28,0,.34.16.29c.4-.16.12-.9.26-.67.34.54.35-1,.48-.76.41.63.36-1,.49-.81.56.78.29-1.15.49-.89s.37.06.4-.3,0-.71.08-.61c.45.75.46-1.3.62-1,.45.69.25-.3.67-.54A1.94,1.94,0,0,1,13.7,6a2.21,2.21,0,0,1,.41.14c.69.32,2.93,1.18,3.74,2.13s1.08,3.64,1.27,3.14.3,0,.44,0,0-.28.16-.35.18.26.33.18,0-.33.09-.38.23.19.34.17.07-.2.07-.34-.18-.94,0-.84c.61.3,0-1,0-1.27,0,0,0-.07.05,0,.77.33-.49-1,.31-2.06.05-.06.19.13.42,0S21,6,21.26,5.86c0,0,0,.3.43.28a.75.75,0,0,1-.13-.47c-.11-.08-.18-.14-.12-.13l.16,0a.75.75,0,0,1,.07-.12h0a.08.08,0,0,1,0,.07.24.24,0,0,0,.15.25c.18,0,.22,0,.23.26a1.3,1.3,0,0,0,.09-.59c0-.39,0-.52.08-.6s0,.35.13.46.34.18.35.49a1.93,1.93,0,0,1,.07-.35c0-.15.08-.23.11-.36a1.75,1.75,0,0,0,.39.49.37.37,0,0,1,.21.41,1.19,1.19,0,0,0,.14.77s0-.74.36-.81c0,0,.2.08.15.25s-.14.29,0,.46.21.21.25.41V7c0,.22.08-.28.16-.35a.21.21,0,0,0,.06-.26c0-.06-.15-.34,0-.5,0,0-.1.26.35.39s.13.63.12.69a.89.89,0,0,0,.18-.57c0-.18.11-.2.19-.28A.38.38,0,0,1,25.49,6a.17.17,0,0,1-.06.12.24.24,0,0,0,.08.22.47.47,0,0,1,.23.47c0,.24,0,.17,0,.17a1.05,1.05,0,0,1,.1-.41A1.1,1.1,0,0,0,26.13,6a1.59,1.59,0,0,0,.1.53,1.25,1.25,0,0,1,.16.51.83.83,0,0,1,.13-.35c.13-.19.28-.25.3-.39a.88.88,0,0,0,.18.6.65.65,0,0,1,.2.56.91.91,0,0,0,.08-.5.57.57,0,0,1,.19-.48s0,.34.16.41a.5.5,0,0,1,.22.52A.5.5,0,0,0,28,7.1a.37.37,0,0,1,.1-.32s.3.15.33.31a3.39,3.39,0,0,0,.15.44,1.11,1.11,0,0,1,0-.48c.07-.14.4-.33.41-.45s.22.16.22.28a1.19,1.19,0,0,0,.2.51.62.62,0,0,1,.05-.3,1.61,1.61,0,0,1,.26-.39.67.67,0,0,1,.24.43,1.3,1.3,0,0,0,.1.49.77.77,0,0,1,0-.38,4.69,4.69,0,0,1,.35-.54,2.65,2.65,0,0,0,.2.48.68.68,0,0,1,.15.38c0,.08.07-.16.07-.33S31,7,31,7a1.82,1.82,0,0,0,.27.42.7.7,0,0,1,.17.4.94.94,0,0,1,.13-.4c.09-.08.09-.15.08-.18a.35.35,0,0,0,.24.25.17.17,0,0,1,.1.09C29.8-.57,20.81,1.55,20.81,1.55Z"/><path class="cls-5" d="M.06,9.69C0,10,0,10.24,0,10.26s.25-.08.49-.33A.53.53,0,0,0,.06,9.69Z"/><circle class="cls-6" cx="5.57" cy="3.97" r="0.22"/><path class="cls-6" d="M4.48,3.22a.21.21,0,1,0,.42,0,.21.21,0,1,0-.42,0Z"/><path class="cls-7" d="M7.33,3.2c0-.22.73-.32.63.17s-.65.17-.65,0A.53.53,0,0,1,7.33,3.2Z"/><path class="cls-2" d="M7.32,3.23c0-.12.41-.12.36.12s-.37.07-.37,0A.35.35,0,0,1,7.32,3.23Z"/><path class="cls-3" d="M27,7.36s-.07,0-.07-.06A.07.07,0,0,1,27,7.23.17.17,0,0,0,27.15,7c0-.08,0-.12-.13-.18s-.17-.12-.17-.24A.25.25,0,0,1,27,6.41c.07-.06.14-.1.14-.23A.22.22,0,0,0,27,6a.26.26,0,0,1-.11-.22.29.29,0,0,1,.15-.25s.06,0,.06-.06-.12-.2,0-.26.18.13.18.26-.07.13-.12.17-.1.07-.1.14,0,.08.07.12a.36.36,0,0,1,.15.33.41.41,0,0,1-.2.33c-.06,0-.09.06-.09.1s0,.08.11.13a.34.34,0,0,1,.2.29.31.31,0,0,1-.28.32Z"/><path class="cls-3" d="M23.51,6.64a.07.07,0,0,1-.07-.06s0-.07.06-.07a.18.18,0,0,0,.16-.19c0-.08-.06-.12-.14-.18s-.17-.12-.17-.24a.25.25,0,0,1,.14-.21c.08-.06.14-.1.14-.23a.23.23,0,0,0-.09-.22A.26.26,0,0,1,23.42,5a.29.29,0,0,1,.15-.25s.06,0,.06-.06-.11-.2,0-.26.18.13.18.26a.23.23,0,0,1-.11.17c-.07,0-.11.07-.11.14s0,.08.07.12a.33.33,0,0,1,.15.32.41.41,0,0,1-.2.34c-.06,0-.08.06-.08.1s0,.08.11.13a.34.34,0,0,1,.19.29.31.31,0,0,1-.27.32Z"/><path class="cls-3" d="M25,6.9s-.07,0-.07-.06,0-.07.06-.07a.18.18,0,0,0,.15-.19c0-.08-.05-.12-.13-.18s-.17-.12-.17-.24A.29.29,0,0,1,25,5.94a.24.24,0,0,0,.14-.22.22.22,0,0,0-.1-.22.28.28,0,0,1-.11-.22A.29.29,0,0,1,25.09,5s.06,0,.06-.06-.1-.21,0-.26.18.13.18.26a.2.2,0,0,1-.12.16c-.06,0-.1.08-.1.15s0,.07.07.12a.35.35,0,0,1,.15.32.38.38,0,0,1-.2.33c-.06,0-.08.07-.08.11s0,.08.1.12a.36.36,0,0,1,.2.3A.31.31,0,0,1,25,6.9Z"/><path class="cls-3" d="M26.7,6.45a.06.06,0,0,1-.06-.06.06.06,0,0,1,.06-.07.19.19,0,0,0,.15-.19c0-.08-.05-.12-.14-.18s-.16-.12-.16-.24a.27.27,0,0,1,.14-.22.26.26,0,0,0,.14-.22.23.23,0,0,0-.1-.22.28.28,0,0,1-.12-.22.07.07,0,1,1,.14,0s0,.07.07.12a.35.35,0,0,1,.14.32.37.37,0,0,1-.19.33c-.07.05-.09.07-.09.11s0,.08.11.13a.34.34,0,0,1,.19.29.3.3,0,0,1-.27.32Z"/><path class="cls-3" d="M27.38,6.78h0a.07.07,0,0,1-.05-.08.37.37,0,0,1,.13-.2.35.35,0,0,0,.13-.26c0-.09-.07-.14-.18-.22a.35.35,0,0,1-.19-.24.47.47,0,0,1,.17-.29c.08-.09.17-.18.16-.27S27.3,5,27.3,5s-.05,0,0-.09a.07.07,0,0,1,.09,0,.52.52,0,0,1,.32.38c0,.14-.09.26-.19.37s-.13.14-.13.19.06.09.13.14a.42.42,0,0,1,.24.33.52.52,0,0,1-.18.36.24.24,0,0,0-.09.12A.07.07,0,0,1,27.38,6.78Z"/><path class="cls-3" d="M26.3,7.2h0a.07.07,0,0,1-.05-.08.37.37,0,0,1,.13-.2.36.36,0,0,0,.14-.26c0-.09-.07-.14-.18-.22s-.19-.13-.19-.24a.41.41,0,0,1,.16-.29c.09-.09.17-.18.16-.27s-.24-.27-.24-.27a.06.06,0,0,1,0-.09.06.06,0,0,1,.08,0,.53.53,0,0,1,.33.38.55.55,0,0,1-.2.37c-.06.07-.13.14-.13.19s.07.09.13.14a.42.42,0,0,1,.24.33.52.52,0,0,1-.18.36.31.31,0,0,0-.09.12S26.34,7.2,26.3,7.2Z"/><path class="cls-3" d="M29.72,7.21h0s-.06,0-.06-.08a.37.37,0,0,1,.13-.2.35.35,0,0,0,.14-.25c0-.09-.07-.15-.18-.23s-.18-.13-.19-.23.08-.2.17-.3.16-.18.16-.26-.24-.27-.25-.28a.06.06,0,0,1,0-.08s0,0,.09,0,.29.13.32.38a.54.54,0,0,1-.19.37c-.07.07-.14.15-.14.2s.07.08.14.13.23.17.23.34a.47.47,0,0,1-.17.35.33.33,0,0,0-.1.12A.06.06,0,0,1,29.72,7.21Z"/><path class="cls-3" d="M25.29,6.41a.09.09,0,0,1-.07-.06.28.28,0,0,1,.19-.3c.06,0,.1-.07.1-.1s-.06-.12-.12-.18-.18-.18-.17-.3.11-.2.21-.3.2-.18.2-.27a.07.07,0,0,1,.06-.07.07.07,0,0,1,.07.07c0,.15-.13.27-.24.37s-.16.15-.16.21.06.13.13.19a.43.43,0,0,1,.16.28c0,.11-.1.17-.17.21s-.14.1-.13.17a.07.07,0,0,1-.05.08Z"/><path class="cls-3" d="M22.7,5.52s0,0-.05,0a.32.32,0,0,1-.13-.24A.32.32,0,0,1,22.64,5s.07-.07.07-.1a.21.21,0,0,0-.08-.14.32.32,0,0,1-.12-.26c0-.13.1-.16.16-.19s.09,0,.09-.11a.07.07,0,0,1,.06-.07.07.07,0,0,1,.07.07.23.23,0,0,1-.17.24c-.06,0-.07,0-.08.07s0,.1.09.16a.32.32,0,0,1,.12.23.27.27,0,0,1-.12.2s-.08.08-.08.12a.25.25,0,0,0,.09.15.06.06,0,0,1,0,.11Z"/><path class="cls-3" d="M23.92,6.5l-.05,0a.41.41,0,0,1-.13-.24A.32.32,0,0,1,23.86,6s.08-.08.08-.11,0-.09-.09-.14a.38.38,0,0,1-.12-.26.2.2,0,0,1,.16-.18c.06,0,.09,0,.09-.12a.07.07,0,0,1,.14,0,.24.24,0,0,1-.18.24c-.06,0-.07,0-.07.07s0,.1.08.16a.32.32,0,0,1,.12.23.29.29,0,0,1-.11.2s-.08.08-.08.12a.25.25,0,0,0,.09.15.07.07,0,0,1,0,.1Z"/><path class="cls-3" d="M30.8,7.23a.06.06,0,0,1-.06,0c-.07-.16,0-.26.11-.33s.1-.09.09-.13-.09-.1-.16-.14-.21-.14-.22-.26.06-.22.14-.34.16-.21.14-.3-.26-.22-.26-.22a.07.07,0,0,1,0-.08s0-.06.08,0a.47.47,0,0,1,.36.32.55.55,0,0,1-.16.41c-.06.09-.13.18-.12.24s.09.11.17.16a.41.41,0,0,1,.21.24c0,.11-.06.18-.12.25s-.12.11-.09.18a.07.07,0,0,1,0,.09Z"/><path class="cls-3" d="M27.84,7.57h0s-.06,0-.06-.07a.42.42,0,0,1,.12-.24A.23.23,0,0,0,28,7.12S27.9,7,27.85,7s-.18-.14-.17-.26a.29.29,0,0,1,.15-.23c.06-.06.12-.1.13-.18s-.08-.14-.17-.21-.22-.19-.2-.33.38-.32.42-.33a.07.07,0,0,1,.08,0A.06.06,0,0,1,28,5.6c-.08,0-.31.1-.32.22s.08.13.16.2.23.2.21.33a.38.38,0,0,1-.17.27c-.07,0-.11.09-.11.14s.05.08.12.14a.28.28,0,0,1,.16.22.35.35,0,0,1-.1.23.27.27,0,0,0-.08.16A.07.07,0,0,1,27.84,7.57Z"/><path class="cls-3" d="M24.82,6.3a.07.07,0,0,1-.07-.07s-.05-.05-.08-.08-.19-.13-.18-.27a.3.3,0,0,1,.18-.22c.08,0,.12-.07.13-.13s-.05-.13-.14-.21-.17-.14-.17-.25a.39.39,0,0,1,.18-.24c.08-.07.16-.13.17-.22a.07.07,0,0,1,.08-.05.08.08,0,0,1,.06.08.54.54,0,0,1-.22.29c-.07.05-.13.1-.13.15s.06.09.11.14.21.18.19.32a.3.3,0,0,1-.19.24c-.07,0-.11.06-.11.11s0,.1.11.15.15.1.15.19A.07.07,0,0,1,24.82,6.3Z"/><path class="cls-3" d="M25.94,7.15a.07.07,0,0,1-.06-.07s-.05,0-.09-.08a.28.28,0,0,1-.17-.27c0-.12.1-.17.18-.22s.11-.06.12-.13-.05-.13-.14-.2-.17-.15-.16-.26.09-.17.17-.24A.42.42,0,0,0,26,5.46c0-.13-.17-.27-.25-.31s0-.05,0-.09a.08.08,0,0,1,.09,0s.37.2.32.46a.54.54,0,0,1-.22.29c-.06,0-.12.1-.13.15s.06.09.12.14a.42.42,0,0,1,.19.32.31.31,0,0,1-.2.24c-.07,0-.1.06-.11.11s0,.1.12.15.14.1.14.19A.07.07,0,0,1,25.94,7.15Z"/><path class="cls-3" d="M23.25,5.93h0a.08.08,0,0,1-.07-.07c0-.05,0-.07-.09-.11A.19.19,0,0,1,23,5.54a.46.46,0,0,1,.13-.2.29.29,0,0,0,.09-.16A.28.28,0,0,0,23.12,5a.39.39,0,0,1-.1-.33.45.45,0,0,1,.12-.23.1.1,0,0,0,0-.08.07.07,0,1,1,.14,0,.24.24,0,0,1-.09.18.27.27,0,0,0-.08.16.32.32,0,0,0,.08.22.4.4,0,0,1,.09.22.36.36,0,0,1-.13.24.44.44,0,0,0-.1.15s0,0,.07.07a.23.23,0,0,1,.16.23A.07.07,0,0,1,23.25,5.93Z"/><path class="cls-3" d="M28.47,7.32h0a.07.07,0,0,1-.06-.07s0-.06-.09-.1-.16-.09-.13-.21a.5.5,0,0,1,.13-.21.29.29,0,0,0,.09-.16.26.26,0,0,0-.07-.14.46.46,0,0,1-.1-.32.37.37,0,0,1,.12-.23s0,0,0-.09-.11-.19-.14-.23a.06.06,0,0,1,0-.09.06.06,0,0,1,.09,0s.2.17.2.33a.22.22,0,0,1-.09.18.3.3,0,0,0-.08.16c0,.09,0,.15.08.23a.4.4,0,0,1,.09.21.41.41,0,0,1-.13.25.33.33,0,0,0-.1.15s0,0,.07.06a.28.28,0,0,1,.16.23A.07.07,0,0,1,28.47,7.32Z"/><path class="cls-3" d="M29.43,7.13h0s-.06,0-.06-.07,0-.07-.09-.1-.16-.09-.14-.21a.5.5,0,0,1,.13-.21c0-.06.1-.11.1-.16a.26.26,0,0,0-.07-.14.46.46,0,0,1-.1-.32.37.37,0,0,1,.12-.23s.05-.05.05-.09-.11-.19-.15-.23a.06.06,0,0,1,0-.09.06.06,0,0,1,.09,0,.55.55,0,0,1,.19.33.24.24,0,0,1-.08.18.27.27,0,0,0-.09.16.3.3,0,0,0,.08.22.36.36,0,0,1,.09.22.41.41,0,0,1-.13.25.4.4,0,0,0-.09.15s0,0,.06.06.17.09.16.23A.06.06,0,0,1,29.43,7.13Z"/><path class="cls-3" d="M31.67,7.51s-.07,0-.07,0,0-.06-.12-.08-.17,0-.18-.17A.49.49,0,0,1,31.38,7a.3.3,0,0,0,.05-.17s-.05-.08-.1-.12a.42.42,0,0,1-.18-.29.38.38,0,0,1,.06-.25s0-.06,0-.1-.15-.16-.19-.18a.06.06,0,0,1,0-.09s0,0,.09,0,.22.11.26.27a.22.22,0,0,1,0,.19.3.3,0,0,0,0,.18.31.31,0,0,0,.14.2.36.36,0,0,1,.14.18A.46.46,0,0,1,31.5,7a.27.27,0,0,0-.06.16s0,0,.08,0a.25.25,0,0,1,.21.18.07.07,0,0,1-.05.08Z"/><path class="cls-3" d="M30.2,7.27h0a.09.09,0,0,1-.06-.08c0-.09.1-.13.18-.17s.13-.07.13-.11,0,0-.13-.07-.2-.06-.21-.17a.33.33,0,0,1,.13-.26.2.2,0,0,0,.09-.14s-.05-.11-.11-.16A.49.49,0,0,1,30,5.82a.36.36,0,0,1,.22-.31.07.07,0,0,1,.06.12s-.14.07-.14.19a.31.31,0,0,0,.13.19c.08.09.16.17.15.27a.38.38,0,0,1-.13.23s-.1.1-.1.14.07,0,.12.06.22.06.22.2-.12.19-.2.23-.1.05-.1.07A.07.07,0,0,1,30.2,7.27Z"/><path class="cls-3" d="M28.75,6.72h0s-.06,0-.06-.07.1-.14.18-.18.13-.06.13-.11,0,0-.13-.07-.2,0-.21-.17a.31.31,0,0,1,.13-.25s.09-.1.09-.14-.06-.11-.11-.17a.46.46,0,0,1-.17-.29A.36.36,0,0,1,28.81,5s.08,0,.09,0a.06.06,0,0,1,0,.08s-.14.07-.14.19.06.13.13.2.16.16.15.27a.45.45,0,0,1-.13.22c-.05,0-.1.1-.1.15s.07,0,.12,0,.22.06.22.2-.12.19-.21.23-.09,0-.09.07A.09.09,0,0,1,28.75,6.72Z"/><path class="cls-3" d="M24.19,6.72h0a.08.08,0,0,1-.07-.07c0-.1.1-.14.18-.18s.13-.06.13-.11,0,0-.13-.07-.2,0-.21-.17.07-.18.13-.25a.37.37,0,0,0,.1-.14c0-.05-.06-.11-.12-.17A.46.46,0,0,1,24,5.27.38.38,0,0,1,24.25,5s.08,0,.09,0a.06.06,0,0,1,0,.08s-.14.07-.14.19.07.13.13.2.16.16.15.27a.38.38,0,0,1-.13.22c-.05,0-.1.1-.09.15s.06,0,.11,0,.22.06.22.2-.12.19-.2.23-.1,0-.1.07A.07.07,0,0,1,24.19,6.72Z"/><circle class="cls-8" cx="5.48" cy="4.02" r="0.1"/><circle class="cls-8" cx="4.6" cy="3.27" r="0.09"/></g></g></svg>