<svg xmlns="http://www.w3.org/2000/svg" xmlns:xlink="http://www.w3.org/1999/xlink" viewBox="0 0 18.32 19.46"><defs><style>.cls-1{fill:#482822;}.cls-2{fill:#67392f;}.cls-3{fill:#c96;}.cls-4,.cls-7{opacity:0.7;}.cls-4{fill:url(#radial-gradient);}.cls-5{fill:#764138;}.cls-6{fill:#312e2d;}.cls-7{fill:url(#radial-gradient-2);}.cls-8{fill:#010101;}</style><radialGradient id="radial-gradient" cx="16.07" cy="8.13" r="0.61" gradientTransform="matrix(1, 0.05, -0.05, 1, 2.21, -2.34)" gradientUnits="userSpaceOnUse"><stop offset="0" stop-color="#ef4852"/><stop offset="1" stop-color="#c96"/></radialGradient><radialGradient id="radial-gradient-2" cx="12.5" cy="8.12" r="0.61" xlink:href="#radial-gradient"/></defs><g id="Layer_2" data-name="Layer 2"><g id="Layer_2-2" data-name="Layer 2"><path class="cls-1" d="M5.14,14.53a26.55,26.55,0,0,0-.85,3.68c.15.19.27.29.24.51-.08.51-1.18.37-1.18.37s-1.16.2-.73-2a13.82,13.82,0,0,1,.49-2.26Z"/><path class="cls-1" d="M17.57,7.82a42.53,42.53,0,0,1-.05,5.64c-.24,2-1.15,5.3-1.82,5.78s-2.1.18-2.15-.65c-.05-.65.66-.67.83-.68a31.29,31.29,0,0,1-.45-3.84.69.69,0,0,1-.31.31s.15-1,.18-1.41a1.54,1.54,0,0,1-.42.3,10.29,10.29,0,0,0,.35-1.79c0-.5,0-1,0-1Z"/><path class="cls-2" d="M15.37.42a12.68,12.68,0,0,0-3.66,1,31.07,31.07,0,0,1-3.3,1.92A13.8,13.8,0,0,0,4.57,5.05a1.11,1.11,0,0,1-.93.08s.32.31.49.3A3.9,3.9,0,0,1,3,5.78a1.91,1.91,0,0,0,.7.32,19.35,19.35,0,0,1-2,.89.63.63,0,0,0,.51.23,5.89,5.89,0,0,0-1.86,4C0,14,.79,14.74.39,15.75s-.39.81-.39.81a.61.61,0,0,0,.52-.16S.18,17.7.11,17.78a.9.9,0,0,0,.27-.11,3,3,0,0,1,0,.59c-.32,1.29,1,1.07,1.5,1.12,2.38.23,1.85-1,.94-1.22-.3-.06.32-3,.44-3a12.64,12.64,0,0,0,2.41-.46s-.16.41-.25.4a11,11,0,0,0,1-.49s0,.25,0,.31a11.33,11.33,0,0,0,1.23-.69c.24-.21,3.81-1.74,4.38-2A56.17,56.17,0,0,0,17.47,8c.09-.29.51-5.7.19-6.16a1,1,0,0,1,.22-.43,2.65,2.65,0,0,1-.52.11s.13-.5.39-.48a1,1,0,0,0-.93.15.55.55,0,0,1,.3-.56s-.26-.23-.73.19a.67.67,0,0,1,0-.6s-.41.2-.47.43a1.19,1.19,0,0,1-.29-.6A.88.88,0,0,1,15.37.42Z"/><path class="cls-3" d="M17.86,7.14a.62.62,0,0,1-.59-.64.61.61,0,0,1,.64-.58.57.57,0,0,1,.33.11,2.5,2.5,0,0,0-.45-.89.12.12,0,0,1,0-.08c-.24-1.39.29-2.62-1.62-2.77-2.32-.18-1.92,2.53-1.92,2.53A2.35,2.35,0,0,0,15.67,9,2.42,2.42,0,0,0,18.3,7,.59.59,0,0,1,17.86,7.14Z"/><path class="cls-3" d="M17.27,6.5a.62.62,0,0,0,.59.64A.59.59,0,0,0,18.3,7a2.54,2.54,0,0,0-.06-1,.57.57,0,0,0-.33-.11A.61.61,0,0,0,17.27,6.5Z"/><path class="cls-4" d="M17.27,6.5a.62.62,0,0,0,.59.64A.59.59,0,0,0,18.3,7a2.54,2.54,0,0,0-.06-1,.57.57,0,0,0-.33-.11A.61.61,0,0,0,17.27,6.5Z"/><path class="cls-3" d="M13.85,2.33s-.19-.7-.62-.22.29.56.29.56Z"/><path class="cls-5" d="M13.77,2.43s-.09-.33-.3-.11.14.27.14.27Z"/><path class="cls-6" d="M15.69,3.93a.21.21,0,1,0-.42,0,.21.21,0,0,0,.42,0Z"/><path class="cls-6" d="M17.28,4a.19.19,0,0,0-.19-.21.21.21,0,1,0,0,.41A.21.21,0,0,0,17.28,4Z"/><path class="cls-6" d="M16.13,8a3,3,0,0,1-1.88-.75.06.06,0,0,1,0-.06,0,0,0,0,1,.07,0,2.33,2.33,0,0,0,3.24.07h.06a0,0,0,0,1,0,.07A2.19,2.19,0,0,1,16.13,8Z"/><path class="cls-6" d="M16.9,5.58h0a.88.88,0,0,0-.63-.32h0a.87.87,0,0,0-.58.26,0,0,0,0,1-.07,0s0,0,0-.06a.92.92,0,0,1,.65-.29h0a1,1,0,0,1,.7.35s0,0,0,.06Z"/><path class="cls-6" d="M16.09,5.91s-.23-.56-.48-.24S16,5.93,16.09,5.91Z"/><path class="cls-2" d="M15.94,3.26a.14.14,0,0,0-.14-.16l-.59,0a.15.15,0,0,0-.16.15h0a.15.15,0,0,0,.14.16l.59,0a.14.14,0,0,0,.16-.14Z"/><path class="cls-2" d="M17.57,3.29a.16.16,0,0,0-.15-.16l-.59,0a.16.16,0,0,0-.16.15h0a.15.15,0,0,0,.14.16l.6,0a.16.16,0,0,0,.16-.15Z"/><path class="cls-1" d="M10.25,6.05c.43,0,2.43-.26,2,4.2a24,24,0,0,1-2.49,8.69,1.52,1.52,0,0,1-1.69.33c-1.42-.47-.54-1.5-.08-1.45a23.63,23.63,0,0,1-.37-4.53,3,3,0,0,1-.32.09,2,2,0,0,0,.16-.53,1.17,1.17,0,0,1-.35.09s.25-1.1.25-1.27a2.47,2.47,0,0,1-.54.26,14.81,14.81,0,0,0,.6-1.51s-.41.25-.54.22a7.53,7.53,0,0,0,.93-2,2.07,2.07,0,0,1-.86.5A6.16,6.16,0,0,0,7.72,7.8,3.3,3.3,0,0,1,10.25,6.05Z"/><path class="cls-7" d="M14.93,6.38a.61.61,0,1,0-.64.58A.61.61,0,0,0,14.93,6.38Z"/><path class="cls-8" d="M15.52,10.71h0a.07.07,0,0,1,0-.05,1.13,1.13,0,0,1,.1-.46,0,0,0,0,1,.06,0,0,0,0,0,1,0,.06,1.19,1.19,0,0,0-.09.42A0,0,0,0,1,15.52,10.71Z"/><path class="cls-8" d="M16.61,10.76h0a.05.05,0,0,1,0-.06,1.6,1.6,0,0,0,0-.5s0,0,0,0,0,0,.05,0a1.87,1.87,0,0,1,0,.54A0,0,0,0,1,16.61,10.76Z"/><path class="cls-8" d="M14.81,11.7h0a0,0,0,0,1,0-.06,1.44,1.44,0,0,0,.09-.52s0,0,0,0a0,0,0,0,1,0,0,1.71,1.71,0,0,1-.09.57A.05.05,0,0,1,14.81,11.7Z"/><path class="cls-8" d="M15.72,12.17h0a.05.05,0,0,1,0-.06c.06-.22.1-.42.1-.42s0,0,.05,0a.05.05,0,0,1,0,.06s0,.2-.1.42A0,0,0,0,1,15.72,12.17Z"/><path class="cls-8" d="M16.54,12.74h0s0,0,0-.07a2.16,2.16,0,0,0,.15-.51s0,0,.05,0a.05.05,0,0,1,0,.05,2,2,0,0,1-.16.55Z"/><path class="cls-8" d="M16,14.22h0a0,0,0,0,1,0-.06,1.76,1.76,0,0,0,.09-.54.05.05,0,0,1,.05,0h0a0,0,0,0,1,.05,0,1.65,1.65,0,0,1-.11.58S16,14.22,16,14.22Z"/><path class="cls-8" d="M15,14h0a0,0,0,0,1,0-.06,1.19,1.19,0,0,0,0-.55.06.06,0,0,1,0-.06,0,0,0,0,1,.06,0,1.23,1.23,0,0,1,0,.61S15,14,15,14Z"/><path class="cls-8" d="M16.05,16.13h0a0,0,0,0,1,0-.06,2.11,2.11,0,0,0,.13-.59,0,0,0,0,1,.05-.05h0a0,0,0,0,1,0,.05,1.75,1.75,0,0,1-.14.62S16.07,16.13,16.05,16.13Z"/><path class="cls-8" d="M15.21,15.89h0s0,0,0-.05a1.93,1.93,0,0,0,0-.66s0,0,0,0,0,0,0,0a2.11,2.11,0,0,1,0,.69S15.23,15.89,15.21,15.89Z"/><path class="cls-8" d="M15.41,17.35h0a0,0,0,0,1,0-.06,1,1,0,0,0,.08-.49,0,0,0,0,1,0-.05s0,0,0,0a.92.92,0,0,1-.09.54S15.43,17.35,15.41,17.35Z"/><path class="cls-8" d="M8.46,8.42h0a0,0,0,0,1,0-.07,1.87,1.87,0,0,0,.25-.51s0,0,.05,0a0,0,0,0,1,0,.06,2,2,0,0,1-.26.54Z"/><path class="cls-8" d="M9.34,8.79h0a0,0,0,0,1,0-.06A3.37,3.37,0,0,0,9.53,8s0,0,.05,0,.05,0,0,0a3,3,0,0,1-.24.77Z"/><path class="cls-8" d="M8.4,9.61h0a.06.06,0,0,1,0-.07A2,2,0,0,0,8.61,9a.06.06,0,0,1,.06,0s0,0,0,.06a2.31,2.31,0,0,1-.26.54Z"/><path class="cls-8" d="M9.08,10.71s0,0,0,0,0,0,0-.06a.7.7,0,0,0,.09-.41.49.49,0,0,1,0-.15,0,0,0,0,1,.06,0s0,0,0,.07a.46.46,0,0,1,0,.1.73.73,0,0,1-.11.46A.05.05,0,0,1,9.08,10.71Z"/><path class="cls-8" d="M8.14,11.89h0a0,0,0,0,1,0-.06,1.18,1.18,0,0,0,.18-.55.07.07,0,0,1,0,0s0,0,0,0a1.26,1.26,0,0,1-.19.6A.05.05,0,0,1,8.14,11.89Z"/><path class="cls-8" d="M9.16,12.69h0a0,0,0,0,1,0-.06,1.55,1.55,0,0,0,.12-.53,0,0,0,0,1,0-.05h0a0,0,0,0,1,0,.05,1.57,1.57,0,0,1-.13.57S9.18,12.69,9.16,12.69Z"/><path class="cls-8" d="M8.34,13.29h0a0,0,0,0,1,0-.06,1,1,0,0,0,.13-.6.07.07,0,0,1,0-.06,0,0,0,0,1,0,0,1,1,0,0,1-.15.66Z"/><path class="cls-8" d="M8.72,14.52h0a0,0,0,0,1,0,0A1.77,1.77,0,0,0,8.79,14a0,0,0,1,1,.09,0,1.73,1.73,0,0,1-.12.5S8.74,14.52,8.72,14.52Z"/><path class="cls-8" d="M10.36,3s0,0,0,0a0,0,0,0,1,0-.07,3.66,3.66,0,0,1,.72-.45,0,0,0,0,1,0,.09,2.94,2.94,0,0,0-.7.43Z"/><path class="cls-8" d="M11,4h0a.09.09,0,0,1,0-.07,2.67,2.67,0,0,1,.63-.39,0,0,0,0,1,0,.08A2.19,2.19,0,0,0,11,4Z"/><path class="cls-8" d="M11.94,4.31l0,0s0,0,0-.06a4.35,4.35,0,0,1,.43-.29,0,0,0,0,1,.06,0,0,0,0,0,1,0,.06A4.53,4.53,0,0,0,12,4.3Z"/><path class="cls-8" d="M11.33,5.12h0s0-.05,0-.07a2.08,2.08,0,0,1,.52-.29,0,0,0,0,1,.06,0,0,0,0,0,1,0,.06,1.75,1.75,0,0,0-.49.27Z"/><path class="cls-8" d="M12.68,5.14h0a0,0,0,0,1,0-.06,1.56,1.56,0,0,1,.51-.39,0,0,0,0,1,0,.08,1.49,1.49,0,0,0-.48.36S12.69,5.14,12.68,5.14Z"/><path class="cls-8" d="M12.16,6.17l0,0a0,0,0,0,1,0-.06,2.27,2.27,0,0,1,.59-.36.06.06,0,0,1,.06,0,0,0,0,0,1,0,.06,2,2,0,0,0-.56.34Z"/><path class="cls-8" d="M10.17,5.12s0,0,0,0,0,0,0-.06a5.73,5.73,0,0,1,.56-.34,0,0,0,0,1,.06,0s0,0,0,.06a5.49,5.49,0,0,0-.54.33Z"/><path class="cls-8" d="M9.65,4.26h0a0,0,0,0,1,0-.07,3.1,3.1,0,0,1,.51-.35,0,0,0,0,1,.06,0,0,0,0,0,1,0,.06,2.56,2.56,0,0,0-.49.33Z"/><path class="cls-8" d="M8.07,4S8,4,8,4s0-.05,0-.06a3,3,0,0,1,.74-.33,0,0,0,1,1,0,.09A2.89,2.89,0,0,0,8.09,4Z"/><path class="cls-8" d="M8.43,5.1l0,0A0,0,0,0,1,8.4,5,2.21,2.21,0,0,1,9,4.68s.06,0,.06,0a0,0,0,0,1,0,.06,1.92,1.92,0,0,0-.56.32Z"/><path class="cls-8" d="M8.9,5.83l0,0a0,0,0,0,1,0-.06,2.18,2.18,0,0,1,.53-.29l.07,0a0,0,0,0,1,.06,0,0,0,0,0,1,0,.07l-.09,0a2.18,2.18,0,0,0-.51.28Z"/><path class="cls-8" d="M6.49,4.65h0a0,0,0,0,1,0-.07A1.21,1.21,0,0,1,7,4.31s0,0,0,0,0,0,0,.05a1.27,1.27,0,0,0-.5.24Z"/><path class="cls-8" d="M6.69,5.79h0a0,0,0,0,1,0-.07,1.66,1.66,0,0,1,.67-.33.05.05,0,0,1,.06,0s0,0,0,0a1.46,1.46,0,0,0-.63.31Z"/><path class="cls-8" d="M7,6.82h0a.06.06,0,0,1,0-.07,1.7,1.7,0,0,1,.7-.5,0,0,0,0,1,.06,0,0,0,0,0,1,0,.06A1.58,1.58,0,0,0,7,6.8Z"/><path class="cls-8" d="M5.16,6.38h0a.09.09,0,0,1,0-.07,3.32,3.32,0,0,1,.7-.51,0,0,0,0,1,.06,0,0,0,0,0,1,0,.06,3.15,3.15,0,0,0-.67.5Z"/><path class="cls-8" d="M5.59,7.85h0a.07.07,0,0,1,0-.07,2.39,2.39,0,0,1,.51-.54.05.05,0,0,1,.06.08,1.88,1.88,0,0,0-.49.51S5.61,7.85,5.59,7.85Z"/><path class="cls-8" d="M6.23,9h0a0,0,0,0,1,0-.06,2.78,2.78,0,0,1,.43-.68,0,0,0,0,1,.07,0s0,0,0,.06a2.91,2.91,0,0,0-.42.66Z"/><path class="cls-8" d="M3.24,7.07s0,0,0,0A0,0,0,0,1,3.2,7a1.88,1.88,0,0,1,.68-.57,0,0,0,0,1,.06,0,.05.05,0,0,1,0,.07,1.71,1.71,0,0,0-.63.53Z"/><path class="cls-8" d="M4.33,8h0a0,0,0,0,1,0-.06,1.18,1.18,0,0,1,.55-.55,0,0,0,1,1,0,.08A1.07,1.07,0,0,0,4.37,8S4.35,8,4.33,8Z"/><path class="cls-8" d="M5.23,9.34h0a0,0,0,0,1,0-.05,1,1,0,0,1,.49-.59,0,0,0,0,1,0,.08,1,1,0,0,0-.45.53A0,0,0,0,1,5.23,9.34Z"/><path class="cls-8" d="M2.61,8.8h0a0,0,0,0,1,0-.06,1,1,0,0,1,.54-.6,0,0,0,0,1,.06,0,0,0,0,0,1,0,.05,1,1,0,0,0-.49.55S2.63,8.8,2.61,8.8Z"/><path class="cls-8" d="M4,9.61H4a0,0,0,0,1,0-.06,1.39,1.39,0,0,1,.44-.62s0,0,.06,0a0,0,0,0,1,0,.07A1.65,1.65,0,0,0,4,9.58S4,9.61,4,9.61Z"/><path class="cls-8" d="M2.54,10.3h0a0,0,0,0,1,0-.06,1.33,1.33,0,0,1,.38-.62,0,0,0,0,1,.06,0s0,0,0,.06a1.39,1.39,0,0,0-.36.57A0,0,0,0,1,2.54,10.3Z"/><path class="cls-8" d="M4.62,10.67h0s0,0,0-.06A3.06,3.06,0,0,1,5.17,10s0,0,.06,0,0,0,0,.06a3.18,3.18,0,0,0-.57.61Z"/><path class="cls-8" d="M6,10.87H6a0,0,0,0,1,0-.06,1.5,1.5,0,0,1,.34-.52,0,0,0,0,1,.07,0,.06.06,0,0,1,0,.07,1.63,1.63,0,0,0-.32.48S6.05,10.87,6,10.87Z"/><path class="cls-8" d="M5,11.93H5a0,0,0,0,1,0,0,1,1,0,0,1,.4-.59h0a0,0,0,0,1,0,0s0,0,0,0a1.08,1.08,0,0,0-.32.53A.05.05,0,0,1,5,11.93Z"/><path class="cls-8" d="M3.86,12.16h0a0,0,0,0,1,0-.06.93.93,0,0,1,.31-.48s0,0,.06,0a0,0,0,0,1,0,.06,1,1,0,0,0-.28.44S3.88,12.16,3.86,12.16Z"/><path class="cls-8" d="M3,11.36H3a0,0,0,0,1,0-.06,2.1,2.1,0,0,1,.36-.63s0,0,.06,0,0,0,0,.06a2.13,2.13,0,0,0-.35.6S3.06,11.36,3,11.36Z"/><path class="cls-8" d="M1.38,10.2h0a0,0,0,0,1,0,0,1.43,1.43,0,0,1,.28-.57s0,0,.06,0a.06.06,0,0,1,0,.07,1.45,1.45,0,0,0-.26.53A.07.07,0,0,1,1.38,10.2Z"/><path class="cls-8" d="M.68,11.78h0a0,0,0,0,1,0-.06,1.3,1.3,0,0,1,.23-.63,0,0,0,0,1,.07,0s0,0,0,.06a1.32,1.32,0,0,0-.21.59A.07.07,0,0,1,.68,11.78Z"/><path class="cls-8" d="M1.54,12.13h0a0,0,0,0,1,0-.05,1.06,1.06,0,0,1,.26-.66s0,0,.06,0,0,0,0,.06a1,1,0,0,0-.23.61A0,0,0,0,1,1.54,12.13Z"/><path class="cls-8" d="M1.94,13h0s0,0,0-.05a1.48,1.48,0,0,1,.28-.55,0,0,0,0,1,.07,0s0,0,0,.06A1.51,1.51,0,0,0,2,13S2,13,1.94,13Z"/><path class="cls-8" d="M2.72,13.75h0a0,0,0,0,1,0-.06,1.12,1.12,0,0,1,.41-.5,0,0,0,0,1,.06,0s0,.05,0,.06a1.3,1.3,0,0,0-.38.47S2.74,13.75,2.72,13.75Z"/><path class="cls-8" d="M1.54,14.41h0s0,0,0-.05a1.65,1.65,0,0,1,.25-.56,0,0,0,1,1,.07,0,1.62,1.62,0,0,0-.23.52A0,0,0,0,1,1.54,14.41Z"/><path class="cls-8" d="M.68,14h0a0,0,0,0,1-.05-.05,1.62,1.62,0,0,1,.14-.69,0,0,0,1,1,.08,0,2,2,0,0,0-.13.65A0,0,0,0,1,.68,14Z"/><path class="cls-6" d="M16.44,5.93s.22-.5.46-.18S16.42,5.92,16.44,5.93Z"/></g></g></svg>