<svg xmlns="http://www.w3.org/2000/svg" viewBox="0 0 15.82 19.7"><defs><style>.cls-1{fill:#695e5a;}.cls-2{fill:#786b63;}.cls-3{fill:#c69e9d;}.cls-4{fill:#171617;}.cls-5{fill:#5d5350;}.cls-6{fill:#f3eaea;}</style></defs><g id="Layer_2" data-name="Layer 2"><g id="Layer_2-2" data-name="Layer 2"><path class="cls-1" d="M9.2,19.65c.25.3,1.37-.75,2-1,1-.42,2.91-.22,4-1a1.49,1.49,0,0,0,.32-2.12,1.6,1.6,0,0,0-1-.29l-.17.44s.73-.12.94.32.12,1.16-.82,1.58a16,16,0,0,1-2.87.46C10.66,18.19,8.81,19.17,9.2,19.65Z"/><path class="cls-1" d="M14.34,9.73A6.2,6.2,0,0,1,15.18,13c0,1.86-.66,3.42-2.31,3.65s-2.13-1.95-2.43-2c-.11,0-.11,0-.06.18.52,2.22.74,1.91.48,2.33-.14.22-1,.22-1.41.26-.63.06-1.13.64-1.27.58s.25-.22.2-.32-.33.12-.39,0,.3-.17.28-.25-.35.06-.36-.1.35-.09.36-.17-.31,0-.31-.21.54.08,1.57-.09c.26-.05.79,0,.34-.78-.36-.61-1.24-2.64-.28-3.24s2.13,1.6,2.24,1.58-.16-.77-.6-1.19-.68-.7-.68-.7a1.86,1.86,0,0,1,1.17-1.13A16,16,0,0,0,14.34,9.73Z"/><path class="cls-1" d="M6.88,12.64a11.2,11.2,0,0,1-.1,3.14c-.32,1-1.85,1.42-1.68,1.68s1.08-.65,1.13-.53-.88.85-.7,1,.85-.93,1-.84-.66.91-.48,1,.64-1,.75-.92-.44,1-.22,1,.46-.75.56-1.11.27-1,.31-1.21A15,15,0,0,0,8,12.64Z"/><path class="cls-1" d="M5.09,12.07S4.86,15.63,4.5,16s-1.88.47-1.8.76S4,16.36,4,16.47s-1.22.47-1.13.73,1.3-.6,1.36-.52-1.13.82-.9,1,1-.82,1.07-.79-.88,1-.54,1c.14,0,.72-.77.86-1s.49-.45.55-.8a18.41,18.41,0,0,1,.87-3.62Z"/><path class="cls-2" d="M12,11.57c.16,0,.28.23.43.13s.12-.41.2-.47.4.17.57,0,0-.5.2-.57.47.05.61-.08.07-.37.18-.49.44-.13.54-.26-.05-.29.09-.41.37-.25.35-.42S15,8.85,15,8.62s.19-.24.13-.43-.21-.11-.24-.3.14-.17.1-.37-.17-.06-.28-.29.14-.35.07-.51-.29-.1-.36-.21.15-.34.07-.44-.37,0-.41-.1.11-.3,0-.44-.31.11-.42,0,.07-.27-.06-.4-.36.12-.48,0,.12-.4-.07-.49-.35.16-.43.1,0-.31-.09-.38-.24.15-.34.07-.06-.34-.14-.34-.17.22-.28.21-.14-.1-.18-.11-.14.12-.21,0,0-.21,0-.32-.18-.15-.15-.26.22-.2.22-.31-.31-.11-.31-.27.24-.3.19-.43-.22-.14-.31-.28.09-.25.05-.43-.33-.12-.4-.25.12-.35,0-.45-.36,0-.48-.07,0-.32-.11-.39-.33.08-.47,0S9.55.43,9.37.4s-.3.23-.46.17S8.74.16,8.59.18s-.23.26-.35.24S8,0,7.9,0s-.2.28-.35.23S7.42,0,7.27,0,7,.25,6.82.25,6.64,0,6.51,0s-.16.26-.26.26S6.08,0,5.91,0s-.26.28-.4.24S5.39,0,5.25,0s-.16.3-.29.3S4.78.07,4.63.14,4.45.49,4.3.49,4,.28,3.93.33s-.07.3-.21.31S3.41.48,3.28.54s-.1.36-.22.39S2.75.76,2.64.82s0,.31-.16.35-.31-.17-.41-.1-.07.34-.19.4-.28-.13-.39,0,0,.32-.11.36-.29-.1-.37,0,0,.35,0,.42-.36,0-.4.13.12.29.07.36-.28,0-.33.17.17.25.12.39-.33.18-.31.32.23.21.21.35-.25.26-.26.39.26.18.25.38S0,4.94,0,5.17s.2.2.18.36S0,5.7,0,5.84s.23.2.24.35-.17.34-.13.45.33.08.38.22-.13.43,0,.58.34,0,.41.13S.78,8,.9,8.06s.26,0,.41.16,0,.32.19.41.38-.07.49,0,0,.37.14.41.3-.12.45-.06.12.17.24.23S3,9,3.13,9.13s.16.31.31.28.44,0,.44.07-.21.35-.16.48.35.21.36.38-.16.37-.08.48.34.09.36.26-.14.38-.06.55.28.08.33.2-.09.42,0,.53.44-.12.55-.06,0,.36.2.42.31-.07.4,0,.08.25.23.26.28-.28.4-.25.24.4.4.38.25-.26.33-.23.18.28.33.3.26-.31.41-.29.16.36.31.36.27-.24.35-.25.31.28.4.25.16-.29.26-.31c.25,0,.3.19.54.1s.13-.4.3-.45.38.11.55.09,0-.33.18-.44.31.18.46.1.05-.34.17-.44.23.24.37.15S11.91,11.59,12,11.57Z"/><path class="cls-3" d="M5.88,2.31c.67,0,1-.58,1.68-.27s.54,1.6-.48,1.82c-.71.15-.89,2.51-.73,2.76s.61,1.72-1,1.72-1-1.48-.92-1.68.46-2.57,0-2.88-.81-.59-.64-1.21A1,1,0,0,1,5.08,2C5.39,2.06,5.61,2.3,5.88,2.31Z"/><path class="cls-4" d="M5.38,7.87a1.22,1.22,0,0,1-.89-.55,0,0,0,0,1,0,0,0,0,0,0,1,0,0,1.24,1.24,0,0,0,.84.53h0a1,1,0,0,0,.77-.53,0,0,0,0,1,0,0,0,0,0,0,1,0,0A1,1,0,0,1,5.38,7.87Z"/><path class="cls-4" d="M5.35,3.1a.19.19,0,0,0-.2-.19A.19.19,0,0,0,5,3.1a.2.2,0,1,0,.39,0Z"/><path class="cls-4" d="M6.57,3.1a.19.19,0,0,0-.19-.19.19.19,0,0,0-.2.19.2.2,0,1,0,.39,0Z"/><circle class="cls-4" cx="5.06" cy="6.64" r="0.1"/><circle class="cls-4" cx="5.6" cy="6.64" r="0.1"/><path class="cls-5" d="M7.16,10.9s0,0,0,0,0-.07-.08-.07a.11.11,0,0,1-.12-.07c0-.08,0-.14.08-.18s.07-.06.06-.08l-.07,0c-.06,0-.14,0-.15-.09s0-.12.09-.17S7,10.1,7,10.06,6.85,10,6.8,10a0,0,0,0,1,0,0s0,0,0,0,.25,0,.28.15,0,.13-.1.19-.08.07-.08.11,0,0,.1,0,.12,0,.13.09,0,.09-.08.13-.08.07-.07.1,0,0,.06,0,.13,0,.15.13a0,0,0,0,1,0,0Z"/><path class="cls-5" d="M8.24,4.68c-.05,0-.09,0-.12-.1S8.06,4.49,8,4.5a.16.16,0,0,0-.09.09s-.06.09-.11.09-.09,0-.12-.09-.06-.09-.11-.09-.17.12-.2.17a0,0,0,0,1,0,0s0,0,0,0,.14-.19.26-.2a.21.21,0,0,1,.17.12s0,.06.06.06,0,0,0-.05A.23.23,0,0,1,8,4.43c.08,0,.13.06.17.12s.05.07.07.06.09-.11.11-.15,0,0,0,0a0,0,0,0,1,0,.05s-.06.18-.16.2Z"/><path class="cls-5" d="M8.18,6.12l0,0S8.09,6,8.08,6s0-.08,0-.09,0,0-.05,0A.13.13,0,0,1,7.86,6,.08.08,0,0,1,7.8,5.9a.16.16,0,0,0-.06-.1s-.07,0-.1,0a.12.12,0,0,1-.1,0c-.09,0-.08-.19-.08-.27s0,0,0,0a0,0,0,0,1,0,0,.45.45,0,0,0,0,.2l0,0a.13.13,0,0,1,.18,0,.16.16,0,0,1,.08.14s0,0,0,0,0,0,.07,0,.09-.09.14,0A.22.22,0,0,1,8.15,6s0,.07,0,.08h0s0,0,0,0a0,0,0,0,1,0,0Z"/><path class="cls-5" d="M7.91,12.19h0c0-.06,0-.12,0-.17a.09.09,0,0,0,0-.08l0,0a.15.15,0,0,1-.19,0c-.06-.07,0-.14,0-.19s.06-.07,0-.1,0,0-.1,0-.11,0-.14,0,0-.11,0-.17.07-.09.06-.11-.12-.05-.18,0,0,0,0,0,0,0,0,0,.21,0,.25.08,0,.12-.06.18-.06.08,0,.09,0,0,.09,0,.14,0,.17.07a.21.21,0,0,1-.07.16c0,.06,0,.08,0,.1s.06,0,.11,0a.15.15,0,0,1,.11,0l0,0A.19.19,0,0,1,8,12c0,.05,0,.08,0,.1a0,0,0,0,1,0,0Z"/><path class="cls-5" d="M10.53,8.18h0c-.07,0,0-.11,0-.17a.19.19,0,0,0,0-.1l-.08,0s-.12.08-.18,0-.05-.12,0-.18,0-.09,0-.11-.08,0-.12,0-.13.06-.18,0a.11.11,0,0,1,0-.12.23.23,0,0,0,0-.12.09.09,0,0,0,0-.06.05.05,0,0,0-.05,0s0,0,0,0,0,0,0,0,.05,0,.1,0a.13.13,0,0,1,.07.1.39.39,0,0,1,0,.16s0,0,0,.06.06,0,.1,0,.15-.07.2,0a.19.19,0,0,1,0,.18c0,.06,0,.08,0,.09s.07,0,.12,0,.12-.08.16,0a.15.15,0,0,1,0,.16c0,.05,0,.09,0,.1s0,0,0,0S10.55,8.18,10.53,8.18Z"/><path class="cls-5" d="M8.71,1.85a0,0,0,0,1,0,0s0,0,0,0A.46.46,0,0,0,9,1.7s0-.06,0-.11,0-.12,0-.18a.11.11,0,0,1,.14,0s.07,0,.1,0,0-.06,0-.12a.3.3,0,0,1,0-.13c.06-.09.26-.05.3,0a.05.05,0,0,1,0,0s0,0,0,0-.21,0-.23,0a.28.28,0,0,0,0,.1.18.18,0,0,1,0,.18.19.19,0,0,1-.14,0c-.05,0-.07,0-.09,0a.16.16,0,0,0,0,.11c0,.06.05.13,0,.18a.53.53,0,0,1-.28.11Z"/><path class="cls-5" d="M9.7,3.25h0a0,0,0,0,1,0,0A.3.3,0,0,1,9.86,3c.07,0,.11,0,.14.07l.06.05s0-.05.06-.09,0-.09.09-.1.08,0,.12.07a.09.09,0,0,0,.05,0,.12.12,0,0,0,0-.05s.06-.12.13-.14.1,0,.11.09l0,0h0s0,0,0,0,0,0,0,0a0,0,0,0,1-.06,0A.16.16,0,0,1,10.58,3c0-.06,0-.05,0-.05s-.06.06-.08.1,0,.08-.08.09-.08,0-.11-.06,0-.06-.06,0,0,0,0,.06,0,.11-.1.12A.15.15,0,0,1,10,3.14s0-.06-.08-.06a.29.29,0,0,0-.14.15Z"/><path class="cls-5" d="M9.4,5.7h0c-.05,0-.07-.06-.09-.12a.19.19,0,0,0-.05-.11s-.09,0-.13.08A.23.23,0,0,1,9,5.62c-.06,0-.09,0-.12-.11s-.05-.11-.08-.12-.13.05-.19.1a0,0,0,0,1-.05,0,0,0,0,0,1,0,0s.18-.16.27-.12.08.09.11.15l0,.07.05,0c.06,0,.14-.13.21-.09s.07.09.09.15,0,.07,0,.07l0,0a.14.14,0,0,1,.18-.05s0,0,0,0a0,0,0,0,1-.05,0s-.07,0-.1,0A.12.12,0,0,1,9.4,5.7Z"/><path class="cls-5" d="M.39,5h0s0,0,0,0S.44,4.7.55,4.7s.11,0,.16.08l.07,0,0-.07c0-.08.06-.18.13-.18a.21.21,0,0,1,.15.09l.06.06s0,0,0,0a.15.15,0,0,1,.14-.12s0,0,0,0,0,0,0,0a.1.1,0,0,0-.07.08.11.11,0,0,1-.07.08s-.08,0-.13-.07S1,4.65,1,4.65s-.06.08-.08.13a.19.19,0,0,1,0,.1s-.1,0-.16,0a.4.4,0,0,0-.12-.07s-.1.1-.12.18Z"/><path class="cls-5" d="M14.46,8.87s0,0,0,0a.1.1,0,0,0-.1,0s-.08,0-.1,0,0-.09,0-.14,0-.09,0-.12-.1,0-.16,0H14s0-.09,0-.16a.44.44,0,0,0,0-.15.3.3,0,0,0-.21,0,0,0,0,0,1,0,0,0,0,0,0,1,0,0s.24,0,.28.09a.28.28,0,0,1,0,.18.37.37,0,0,0,0,.09h.07c.08,0,.19,0,.22.06a.29.29,0,0,1,0,.18l0,.07h0a.17.17,0,0,1,.17.08,0,0,0,0,1,0,0Z"/><path class="cls-5" d="M3.26,2.91h0s-.07-.06-.08-.12,0-.1-.06-.11S3,2.73,3,2.77l-.09.07c-.06,0-.08,0-.12-.12A.36.36,0,0,0,2.7,2.6s-.13,0-.19.11a0,0,0,0,1,0,0s0,0,0,0,.17-.16.26-.12.08.09.11.15l0,.08.06,0c.06-.06.13-.13.2-.1s.07.09.09.15a.34.34,0,0,0,0,.08l0,0a.15.15,0,0,1,.17,0,0,0,0,0,1,0,0s0,0,0,0-.07,0-.11,0A.12.12,0,0,1,3.26,2.91Z"/><path class="cls-5" d="M3.82,1.9s0,0,0,0a.11.11,0,0,0-.11,0s-.07,0-.1,0,0-.09,0-.15,0-.1,0-.12-.1,0-.15,0l-.11,0s-.06-.07-.06-.15a.26.26,0,0,0,0-.14s-.14,0-.21,0l-.05,0s0,0,0,0,.22-.08.29,0a.32.32,0,0,1,0,.18.17.17,0,0,0,0,.08l.06,0c.08,0,.18-.07.23,0a.22.22,0,0,1,0,.18v.08h0a.14.14,0,0,1,.17,0,0,0,0,0,1,0,0Z"/><path class="cls-5" d="M14,10l0,0a.1.1,0,0,0-.1,0s-.08,0-.1,0,0-.09,0-.14.05-.1,0-.12-.1,0-.15,0h-.11s0-.09,0-.16,0-.12,0-.14-.13-.05-.21-.05,0,0,0,0a0,0,0,0,1,0,0s.23,0,.27.09a.23.23,0,0,1,0,.18.37.37,0,0,0,0,.09h.08c.08,0,.18,0,.21.06s0,.12,0,.17a.2.2,0,0,0,0,.08h0a.17.17,0,0,1,.17.08,0,0,0,0,1,0,0Z"/><path class="cls-5" d="M10.71,6.66h0s0-.08,0-.14,0-.1,0-.12-.1,0-.14.05a.37.37,0,0,1-.11,0h0s-.06-.07-.07-.14a.39.39,0,0,0,0-.14s-.15,0-.22,0,0,0,0,0,0,0,0-.05.21-.1.29,0,.05.11.06.17,0,.07,0,.09l.06,0c.08,0,.17-.09.23,0a.24.24,0,0,1,0,.17.17.17,0,0,0,0,.08h0a.15.15,0,0,1,.18,0,0,0,0,0,1,0,0s0,0,0,0-.07,0-.11,0Z"/><path class="cls-5" d="M9.42,11.08l0,0s0-.08,0-.11a.11.11,0,0,0,0-.09l-.06,0s-.09,0-.12,0,0,0,0,0,0-.1,0-.14a.19.19,0,0,0,.05-.1s-.06,0-.08,0-.13,0-.18,0a.07.07,0,0,1,0-.06s0-.08.08-.11.06-.05.06-.07-.12,0-.17,0H9a.05.05,0,0,1,0,0,.05.05,0,0,1,.05,0H9c.07,0,.19,0,.23.07s0,.11-.07.15-.06.05-.06.07.07,0,.11,0,.09,0,.12,0,0,0,0,0a.18.18,0,0,1-.05.16s-.05.06,0,.08h0l.06,0c.05,0,.09-.05.13,0a.09.09,0,0,1,0,.06.17.17,0,0,1,0,.13s0,0,0,0,0,0,0,.05Z"/><path class="cls-5" d="M6.51,12.22s0,0,0,0,0-.07,0-.1a.09.09,0,0,0,0-.08s0,0-.06,0a.15.15,0,0,1-.13,0,.06.06,0,0,1,0,0,.14.14,0,0,1,.07-.13s.06-.06.06-.09H6.39c-.06,0-.14,0-.18,0a.07.07,0,0,1,0-.06s0-.07.1-.1l.07-.05s-.13,0-.17-.06l-.06,0s0,0,0,0,0,0,0,0h0c.07,0,.18,0,.22.1s0,.1-.09.14l-.08,0s.07,0,.11,0a.19.19,0,0,1,.13,0,0,0,0,0,1,0,.05c0,.07,0,.11-.07.15s-.06,0,0,.07h.07s.09,0,.12,0a.06.06,0,0,1,0,.06.2.2,0,0,1-.07.13s0,0,0,0,0,0,0,0Z"/><path class="cls-5" d="M4.39,9.85h0s0,0,0,0a.11.11,0,0,1,.08-.08.14.14,0,0,0,.08-.05l-.07,0s-.09,0-.11-.05a.07.07,0,0,1,0,0,.15.15,0,0,1,.13-.09.13.13,0,0,0,.09-.05s0,0-.07,0-.14,0-.15-.11a.43.43,0,0,1,0,0s.08,0,.14-.05l.09,0s-.09-.1-.13-.13l0,0A0,0,0,0,1,4.4,9h0s0,0,0,0,.15.11.15.19-.08.07-.14.08l-.09,0s0,0,.09.05a.2.2,0,0,1,.12.06s0,0,0,.06a.15.15,0,0,1-.13.09c-.05,0-.07,0-.08.05l.07,0s.1,0,.11.05a.06.06,0,0,1,0,.06.22.22,0,0,1-.12.09l0,0A0,0,0,0,1,4.39,9.85Z"/><path class="cls-5" d="M12.53,9.66h0c-.08,0,0-.13,0-.2a.43.43,0,0,1,0-.05l0,0c-.06,0-.13.08-.17,0s0-.1,0-.15,0-.1,0-.11,0,0-.09,0-.12.08-.18,0,0-.14,0-.21a.21.21,0,0,0,0-.12s-.16,0-.2.06a0,0,0,0,1,0,0s0,0,0-.05.2-.14.29,0,0,.13,0,.19-.05.11,0,.12.06,0,.11,0,.11-.07.16,0,0,.13,0,.18a.51.51,0,0,0,0,.09s.07,0,.09,0,.08-.05.11,0l0,0s0,.07,0,.12,0,.11,0,.12a0,0,0,0,1,0,.05Z"/><path class="cls-5" d="M12.84,5.93h0c-.08,0-.07-.12-.06-.19v0l0,0c-.05,0-.11.1-.17.06s0-.09,0-.15a.13.13,0,0,0,0-.11s0,0-.08,0-.11.1-.18.06,0-.13,0-.21,0-.1,0-.12-.14,0-.19.09h0s0,0,0,0,.18-.17.28-.09,0,.12,0,.19,0,.11,0,.13.06,0,.11,0,.1-.08.15,0,0,.12,0,.18,0,.08,0,.08.06,0,.08,0,.07-.06.1-.06l0,0s0,.06,0,.11,0,.12,0,.13,0,0,0,0Z"/><path class="cls-5" d="M2.45,4.45h0s0,0,0,0,0-.18.14-.23.12,0,.16.06,0,0,.07,0,0-.06,0-.09A.23.23,0,0,1,2.87,4s.1,0,.15,0,.07,0,.09,0a.13.13,0,0,0,0-.1s0-.09,0-.11.06,0,.1,0,.06,0,.09,0,0,0,.05,0a0,0,0,0,1,0,0,.15.15,0,0,1-.17,0h0s0,0,0,.05a.24.24,0,0,1,0,.15c-.06.06-.13,0-.18,0l-.07,0s0,.06,0,.1,0,.13-.08.15-.09,0-.12-.06-.07-.06-.09,0-.09.14-.1.18A0,0,0,0,1,2.45,4.45Z"/><path class="cls-5" d="M1.75,6.91h0s0,0,0,0,0-.18.14-.23S2,6.66,2,6.7s0,0,.06,0,0-.06,0-.09a.23.23,0,0,1,.06-.15c.05,0,.1,0,.15,0s.07.06.09,0a.13.13,0,0,0,0-.1s0-.09.05-.11.06,0,.1,0,.06,0,.09,0,0,0,0,0a0,0,0,0,1,0,.05.15.15,0,0,1-.17,0h0s0,0,0,0a.24.24,0,0,1,0,.15c-.06.06-.13,0-.18,0s-.06,0-.07,0,0,.06,0,.1,0,.13-.08.15S2,6.78,2,6.75s-.07-.06-.09,0-.09.14-.1.18A0,0,0,0,1,1.75,6.91Z"/><path class="cls-5" d="M8.51,10.66h0a.16.16,0,0,1-.05-.16v-.05h0a.32.32,0,0,1-.16,0c-.07,0,0-.13,0-.19l0-.07s-.07,0-.11,0-.14,0-.16-.05S8,10,8,10s0-.08,0-.1-.16-.06-.2-.06a0,0,0,0,1,0,0s0,0,0,0,.19,0,.25.09,0,.12,0,.17,0,.06,0,.07h.1c.06,0,.12,0,.15,0s0,.1,0,.15,0,.09,0,.1a.14.14,0,0,0,.11,0s.08,0,.11,0,0,.07,0,.1,0,.07,0,.09,0,0,0,.05Z"/><path class="cls-5" d="M9.93,9.71s0,0,0,0a.14.14,0,0,1-.05-.16v0h0a.19.19,0,0,1-.16,0c-.07,0,0-.12,0-.18s0-.07,0-.08h-.1c-.07,0-.14,0-.17,0a.17.17,0,0,1,0-.14s.05-.08,0-.1-.16,0-.2,0,0,0,0,0a0,0,0,0,1,0,0,.37.37,0,0,1,.25.08c.05.06,0,.13,0,.18a.33.33,0,0,0,0,.06s.07,0,.1,0a.27.27,0,0,1,.16,0s0,.1,0,.16,0,.08,0,.09a.09.09,0,0,0,.1,0s.09,0,.12,0a.12.12,0,0,1,0,.1s0,.07,0,.1,0,0,0,0Z"/><path class="cls-5" d="M12,8h0a.16.16,0,0,1-.1-.13s0,0,0,0,0,0-.05,0a.19.19,0,0,1-.15,0c-.08,0-.07-.11-.06-.17V7.57l-.11,0c-.06,0-.13.05-.17,0s0-.09,0-.13,0-.09,0-.11a.37.37,0,0,0-.21,0s0,0,0,0,0,0,0,0a.32.32,0,0,1,.26,0c.07,0,0,.11,0,.17s0,.06,0,.07.07,0,.1,0,.11,0,.15,0,.05.09,0,.15,0,.1,0,.1a.14.14,0,0,0,.11,0s.07,0,.11,0,0,0,.05.09,0,.07.05.08,0,0,0,0A.05.05,0,0,1,12,8Z"/><path class="cls-5" d="M7.76,1.64h0s0,0,0,0a.14.14,0,0,1,.12-.11l0,0a.17.17,0,0,0,0-.05.21.21,0,0,1-.06-.15c0-.08.1-.08.17-.08h.08s0-.06,0-.1S8,1,8,.91s.09,0,.13,0,.09,0,.1,0a.26.26,0,0,0,0-.2,0,0,0,0,1,0-.05,0,0,0,0,1,.05,0,.32.32,0,0,1,0,.26c0,.07-.1.06-.16.06s-.07,0-.07,0,0,.07,0,.1a.23.23,0,0,1,.05.15c0,.06-.09.06-.15.06s-.1,0-.1,0a.18.18,0,0,0,0,.1.09.09,0,0,1,0,.11s0,.05-.08.06-.07,0-.07.06S7.78,1.64,7.76,1.64Z"/><path class="cls-5" d="M11.2,5.41c-.07,0-.1,0-.13-.09s0,0,0,0l0,0a.24.24,0,0,1-.13.08c-.09,0-.11-.08-.12-.14a.34.34,0,0,0,0-.08s-.06,0-.09.06-.1.09-.16.07-.05-.08-.06-.12,0-.09,0-.1-.16.06-.19.08h0s0,0,0,0A.37.37,0,0,1,10.4,5c.07,0,.08.09.09.15a.14.14,0,0,0,0,.07s.06,0,.09-.06a.2.2,0,0,1,.13-.08c.06,0,.08.07.09.13s0,.1,0,.09.06,0,.09-.06a.09.09,0,0,1,.1,0s0,0,.07.06,0,.06.08.06a0,0,0,0,1,0,0s0,0,0,0Z"/><path class="cls-5" d="M13.29,8.31h0a.14.14,0,0,1-.08-.14.07.07,0,0,0,0-.05h0a.19.19,0,0,1-.15,0c-.08,0-.06-.12,0-.19s0-.07,0-.08-.07,0-.11,0-.13,0-.16,0,0-.09,0-.14,0-.08,0-.1-.16,0-.2,0,0,0,0,0a0,0,0,0,1,0,0,.34.34,0,0,1,.27,0c.06,0,0,.12,0,.18s0,.06,0,.07.07,0,.1,0,.11,0,.16,0,0,.09,0,.15,0,.1,0,.1.07,0,.11,0a.11.11,0,0,1,.12,0,.14.14,0,0,1,0,.09c0,.05,0,.07,0,.09a0,0,0,0,1,0,0S13.3,8.31,13.29,8.31Z"/><path class="cls-5" d="M9.44,12.39h0a.14.14,0,0,1-.05-.16v-.05h0a.24.24,0,0,1-.16,0c-.07,0,0-.12,0-.18s0-.07,0-.08h-.1c-.07,0-.14,0-.17,0a.17.17,0,0,1,0-.14c0-.05,0-.08,0-.1s-.16,0-.2,0a0,0,0,0,1,0,0s0,0,0,0a.37.37,0,0,1,.25.08c.05.06,0,.13,0,.18l0,.06s.07,0,.1,0a.27.27,0,0,1,.16,0s0,.1,0,.15,0,.09,0,.1a.14.14,0,0,0,.11,0s.08,0,.11,0a.18.18,0,0,1,0,.1s0,.07,0,.09,0,0,0,.05Z"/><path class="cls-5" d="M9.66,2.45h0a0,0,0,0,1,0,0s0-.18.11-.24a.14.14,0,0,1,.17,0l.07,0a.25.25,0,0,0,0-.1C10,2.08,10,2,10,2s.1,0,.15,0,.09.05.1,0a.16.16,0,0,0,0-.1s0-.09,0-.11.06,0,.1,0,.07,0,.09,0a0,0,0,0,1,.05,0,0,0,0,0,1,0,.05.15.15,0,0,1-.16,0h-.05v.05a.19.19,0,0,1,0,.16c-.05.06-.13,0-.18,0l-.08,0a.56.56,0,0,0,0,.1c0,.07,0,.14-.06.16s-.09,0-.13,0-.07,0-.09,0-.07.15-.08.19A0,0,0,0,1,9.66,2.45Z"/><path class="cls-5" d="M5.58,1.78h0s-.17-.08-.19-.19,0-.12.09-.15.06,0,.06-.05-.06,0-.09,0-.11-.05-.12-.09,0-.1.08-.14.07-.06.06-.08A.16.16,0,0,0,5.37,1,.11.11,0,0,1,5.28.91a.12.12,0,0,1,0-.1s0-.06,0-.09,0,0,0,0a0,0,0,0,1,0,0,.13.13,0,0,1,0,.16l0,0s0,0,0,0,.1,0,.13.09,0,.12-.08.17-.06,0-.06.05.06,0,.09.06.13.05.13.11,0,.08-.09.11-.07.05-.07.08.12.12.16.14,0,0,0,0S5.59,1.78,5.58,1.78Z"/><path class="cls-5" d="M2.35,3.44c-.06,0-.1-.07-.12-.12a.18.18,0,0,0,0-.07.29.29,0,0,0-.07.08S2,3.44,2,3.43s-.07-.06-.08-.11,0-.08-.06-.08h0c-.07,0-.15.09-.17.12a0,0,0,0,1,0,0s0,0,0,0,.12-.14.23-.14h0c.07,0,.1.07.12.13s0,.06,0,.06l.07-.07s.07-.1.11-.11.09.06.12.11,0,.09.06.08.06,0,.08-.08,0-.07.08-.07h0a.11.11,0,0,1,.09,0s0,0,.09,0,0,0,0,0,0,0,0,0a.14.14,0,0,1-.16-.06l0,0h0l0,.05a.29.29,0,0,1-.11.11Z"/><path class="cls-5" d="M6.86,1.64s0,0,0,0-.11-.12-.08-.2.09-.05.15-.05.08,0,.09,0,0-.06-.06-.09-.1-.11-.06-.17A.25.25,0,0,1,7,1.05s.09,0,.11,0,0,0,0,0S7,.9,7,.83s0,0,0,0a0,0,0,0,1,0,0s0,0,0,.06S7.2,1,7.21,1a.07.07,0,0,1,0,.06c0,.05-.1.06-.15.07s-.09,0-.1,0,0,.06,0,.09.1.1.07.16-.1.05-.16.05-.07,0-.08,0,0,.11.07.13,0,0,0,0S6.87,1.64,6.86,1.64Z"/><path class="cls-5" d="M9.81,4.26c-.06,0-.1-.06-.14-.12s-.06-.09-.08-.09-.11.09-.15.15a0,0,0,0,1,0,0s0,0,0,0S9.5,4,9.59,4s.1.06.14.12.06.09.08.09a.38.38,0,0,0,.08-.09S10,4,10,4s.1.05.12.1,0,.07.06.07,0,0,.06-.06a.27.27,0,0,1,.11-.1.12.12,0,0,1,.15.06s0,0,.06,0,0,0,0,0,0,0,0,0-.08,0-.11-.06-.05,0-.07,0-.06,0-.08.08a.19.19,0,0,1-.12.09c-.06,0-.09-.06-.12-.11s0-.06-.05-.06,0,0-.08.09a.28.28,0,0,1-.12.12Z"/><path class="cls-5" d="M9.1,7.53h0C9,7.5,9,7.45,9,7.4s0-.06,0-.07a.14.14,0,0,0-.11,0,.16.16,0,0,1-.15,0s0-.1,0-.16,0-.07,0-.08-.07,0-.12,0a.25.25,0,0,1-.17,0s0-.11,0-.18a.24.24,0,0,0,0-.12s-.14,0-.21,0,0,0,0,0,0,0,0,0,.2-.06.27,0,0,.1,0,.17,0,.11,0,.12a.16.16,0,0,0,.11,0,.22.22,0,0,1,.18,0c.05,0,0,.09,0,.15s0,.07,0,.08,0,0,.08,0a.25.25,0,0,1,.15,0,.13.13,0,0,1,.08.14s0,.06,0,.07,0,0,0,0S9.12,7.53,9.1,7.53Z"/><path class="cls-5" d="M14.14,7.54h0a.14.14,0,0,1,0-.12s0-.07,0-.08a.22.22,0,0,0-.11,0s-.1,0-.14,0,0-.1,0-.16,0-.07,0-.08a.16.16,0,0,0-.11,0,.34.34,0,0,1-.17,0c-.06,0-.05-.11,0-.19a.47.47,0,0,0,0-.12.41.41,0,0,0-.21,0s0,0,0,0a0,0,0,0,1,0,0s.2-.06.27,0a.21.21,0,0,1,0,.18.24.24,0,0,0,0,.12s.08,0,.12,0a.2.2,0,0,1,.17,0s0,.1,0,.15,0,.07,0,.09,0,0,.08,0a.2.2,0,0,1,.15,0c.08,0,.08.09.08.14s0,0,0,.06a0,0,0,0,1,0,0S14.15,7.54,14.14,7.54Z"/><path class="cls-5" d="M11.22,11.29h0a.12.12,0,0,1,0-.13c0-.05,0-.07,0-.09a.17.17,0,0,0-.1,0S11,11,11,11s0-.11,0-.16,0-.06,0-.07-.07,0-.11,0-.13,0-.16-.05,0-.12,0-.19.05-.09,0-.11-.13-.06-.2-.06,0,0,0,0,0,0,0,0,.21,0,.25.1,0,.11,0,.17,0,.1,0,.11a.18.18,0,0,0,.11,0c.07,0,.14,0,.17.06a.14.14,0,0,1,0,.15l0,.08a.1.1,0,0,0,.08,0,.3.3,0,0,1,.15,0,.14.14,0,0,1,0,.16s0,.05,0,.07,0,0,0,0Z"/><path class="cls-5" d="M8.44,9.51l0,0a.12.12,0,0,1,0-.13s0-.06,0-.08-.06,0-.1,0-.1,0-.13-.07,0-.1,0-.15a.27.27,0,0,0,0-.07.28.28,0,0,0-.12,0A.18.18,0,0,1,8,8.86s0-.12,0-.19.05-.09,0-.11S8,8.5,7.88,8.49a0,0,0,0,1,0,0,0,0,0,0,1,0,0s.21,0,.25.11,0,.11-.05.18-.05.09,0,.1.07,0,.11,0a.24.24,0,0,1,.16.06.14.14,0,0,1,0,.15s0,.07,0,.08,0,0,.08,0a.28.28,0,0,1,.14.06.12.12,0,0,1,0,.16s0,0,0,.07,0,0,0,0Z"/><path class="cls-5" d="M3.16,8.22s0,0,0,0-.07-.2,0-.29.1,0,.15,0a.13.13,0,0,0,.12,0s0,0,0-.1,0-.1,0-.14.11,0,.18,0h.11s0,0,0,0a.15.15,0,0,1,0-.18.13.13,0,0,1,.17,0l.05,0a0,0,0,0,1,0,0,0,0,0,0,1,0,0s-.08,0-.12,0a.07.07,0,0,0-.09,0s0,.06,0,.11,0,.08,0,.12-.1,0-.17,0-.11,0-.13,0l0,.06s.07.13,0,.19a.22.22,0,0,1-.17,0s-.07,0-.08,0,0,.18,0,.23,0,0,0,0Z"/><path class="cls-5" d="M6,10.9H6s0,0,0,0,0-.06-.09-.08-.08,0-.1-.07,0-.1.09-.14l.1-.09s-.08,0-.12,0-.15,0-.16-.06,0-.09.09-.15.08-.1.07-.12,0,0-.08,0-.15,0-.18-.05.19-.25.24-.28,0,0,0,0,0,0,0,0-.22.15-.2.2,0,0,.1,0,.13,0,.16,0,0,.13-.09.19l-.07.1h.08c.07,0,.16,0,.19.06s0,.12-.12.17l-.07.06.06,0s.14,0,.13.15S6,10.9,6,10.9Z"/><path class="cls-5" d="M2.68,2.27h0s0,0,0,0,0-.05,0-.1-.06,0-.11,0a.12.12,0,0,1-.12,0c-.06,0-.06-.07-.07-.11s0-.06,0-.08-.08,0-.12,0a.18.18,0,0,1-.12,0,.1.1,0,0,1-.08-.11c0-.06,0-.09-.06-.11a.22.22,0,0,0-.21.07s0,0,0,0,0,0,0,0a.27.27,0,0,1,.28-.1A.2.2,0,0,1,2,1.93C2,2,2,2,2,2a.13.13,0,0,0,.08,0,.18.18,0,0,1,.18,0,.15.15,0,0,1,.1.13s0,0,0,0,0,0,.07,0a.17.17,0,0,1,.17,0c.11.07.1.16.08.19Z"/><path class="cls-5" d="M1.8,5.55s0,0,0,0,0,0,0,0,.07,0,.09-.09,0-.09.06-.11a.16.16,0,0,1,.15,0s.07,0,.09,0,0,0,0-.06a.15.15,0,0,1,.09-.12.15.15,0,0,1,.17,0s0,0,0,0,0-.06,0-.09a.08.08,0,0,1,0-.08,0,0,0,0,1,0,0,0,0,0,0,1,0,0h0v0s0,.11-.06.14a.11.11,0,0,1-.13,0s-.07,0-.1,0a.1.1,0,0,0-.06.08.1.1,0,0,1-.08.1.15.15,0,0,1-.14,0L2,5.34a.15.15,0,0,0,0,.07.15.15,0,0,1-.14.14Z"/><path class="cls-5" d="M3.12,6.14a0,0,0,0,1,0,0s0,0,0,0S3.19,6,3.2,6s0-.09.07-.11.1,0,.15,0,.06,0,.09,0,0,0,0-.05a.16.16,0,0,1,.09-.13.15.15,0,0,1,.17,0s.05,0,.06,0,0,0,0-.09a.11.11,0,0,1,0-.08H4s0,0,0,0l0,0v0a.16.16,0,0,1-.06.14.11.11,0,0,1-.13,0s-.07-.05-.1,0,0,0-.05.08,0,.09-.08.1a.16.16,0,0,1-.15,0s-.06,0-.09,0,0,0,0,.06,0,.13-.15.14Z"/><path class="cls-5" d="M11.18,9.91a.11.11,0,0,1-.1-.06c-.05-.06,0-.14,0-.21a.19.19,0,0,0,0-.09l-.08,0c-.06,0-.12,0-.15,0a.06.06,0,0,1,0-.05.4.4,0,0,1,0-.15c0-.06,0-.13,0-.15s-.09,0-.13,0-.16,0-.19,0a.17.17,0,0,1,.05-.16s0-.08,0-.09,0,0,0-.05a0,0,0,0,1,.05,0c.06.05,0,.12,0,.17s0,.08,0,.1.08,0,.11,0,.16,0,.2,0,0,.14,0,.22,0,.09,0,.12.06,0,.08,0,.15,0,.17,0a.15.15,0,0,1,0,.14c0,.05,0,.11,0,.14s.16,0,.16,0,0,0,.05,0,0,0,0,0A.33.33,0,0,1,11.18,9.91Z"/><path class="cls-5" d="M7.59,7.67h0a0,0,0,0,1,0,0,.18.18,0,0,0,0-.16l0,0,0,0s-.08.07-.15,0a.13.13,0,0,1,0-.17s0,0,0,0,0,0-.08,0-.11.06-.15,0,0-.11,0-.17,0-.07,0-.08S7,7,6.93,7a0,0,0,0,1,0,0,0,0,0,0,1,0,0s.15,0,.19.07a.19.19,0,0,1,0,.13s0,.08,0,.1,0,0,.07,0,.12-.06.17,0a.1.1,0,0,1,0,.12c0,.05,0,.07,0,.1s0,0,.06,0a.12.12,0,0,1,.08,0l.06,0a.26.26,0,0,1,0,.24Z"/><path class="cls-5" d="M12.25,7a.08.08,0,0,1-.07,0s0-.07,0-.12,0-.07,0-.09,0,0-.1,0a.28.28,0,0,1-.12,0s0,0,0,0,0-.07,0-.12,0-.09,0-.1,0,0,0,0-.1.09-.17,0a.12.12,0,0,1,0-.16s0,0,0,0-.17,0-.17,0a0,0,0,0,1,0,0s0,0,0,0a.23.23,0,0,1,.25,0,.11.11,0,0,1,0,.14s0,0,0,.07,0,0,.07,0,.08-.07.13,0,0,.11,0,.18,0,.05,0,.06l.07,0c.05,0,.12-.07.18,0a.18.18,0,0,1,0,.16s0,0,0,.06h0s0,0,0,0A0,0,0,0,1,12.25,7Z"/><path class="cls-6" d="M6.51,3a.06.06,0,1,0-.06.06A.06.06,0,0,0,6.51,3Z"/><path class="cls-6" d="M5.3,3a.06.06,0,1,0-.06.06A.06.06,0,0,0,5.3,3Z"/><path class="cls-5" d="M6.69,9.35l0,0s0-.08,0-.13a.22.22,0,0,0,0-.14s0,0-.11,0a.2.2,0,0,1-.15,0c-.06-.06,0-.15,0-.23a.48.48,0,0,0,0-.11s-.09,0-.17,0a0,0,0,0,1,0,0s0,0,0,0,.23,0,.24.09a.42.42,0,0,1-.06.15c0,.06-.08.13,0,.15s.06,0,.1,0,.16,0,.18.09a.34.34,0,0,1,0,.18s0,.06,0,.07a0,0,0,0,1,0,0Z"/><path class="cls-5" d="M5.2,11.26s0,0,0,0,0-.08,0-.13a.32.32,0,0,0,0-.14s0,0-.1,0a.22.22,0,0,1-.16,0c-.06-.06,0-.15,0-.23a.48.48,0,0,0,0-.11s-.08,0-.17,0a0,0,0,0,1,0,0s0,0,0,0,.23,0,.24.09a.32.32,0,0,1-.06.15c0,.06-.07.13,0,.15a.15.15,0,0,0,.1,0c.07,0,.16,0,.18.09a.34.34,0,0,1,0,.18s0,.06,0,.07,0,0,0,0Z"/><path class="cls-5" d="M1.86,8.5a0,0,0,0,1,0,0s-.08-.22,0-.25a.24.24,0,0,1,.16,0c.06,0,.14,0,.16,0s0-.07,0-.11S2.11,8,2.2,8a.28.28,0,0,1,.18,0h.13a0,0,0,0,1,0,.05.13.13,0,0,1-.13,0,.38.38,0,0,0-.15,0s0,0,0,.11a.2.2,0,0,1,0,.17c0,.07-.15,0-.24,0s-.09,0-.11,0,0,.09,0,.17,0,0,0,0Z"/><path class="cls-5" d="M4.26,1.24h0a.18.18,0,0,1,0-.14.3.3,0,0,0,0-.14s0,0-.1,0A.22.22,0,0,1,4,.88C4,.82,4,.73,4.05.65a.48.48,0,0,0,0-.11s-.08,0-.17,0a0,0,0,0,1,0,0s0,0,0,0,.23,0,.24.09a.32.32,0,0,1-.06.15c0,.06-.07.13-.05.15a.15.15,0,0,0,.1,0c.07,0,.16,0,.18.09a.34.34,0,0,1,0,.18s0,.06,0,.07,0,0,0,.05Z"/><path class="cls-5" d="M1.23,3.51h0c-.05,0-.07-.06-.09-.1a.23.23,0,0,0-.09-.11S1,3.3,1,3.36a.18.18,0,0,1-.13.09c-.09,0-.11-.1-.14-.19a.58.58,0,0,0-.05-.11s-.09,0-.13.11,0,0,0,0,0,0,0,0S.58,3,.67,3.1a.3.3,0,0,1,.07.14c0,.06.05.14.08.14h0s.05,0,.08-.07.1-.12.18-.07a.3.3,0,0,1,.12.14s0,.06,0,.06,0,0,0,0S1.25,3.51,1.23,3.51Z"/><path class="cls-5" d="M6.5,1a0,0,0,0,1,0,0,.1.1,0,0,1,0-.1.19.19,0,0,0,0-.1s0,0-.06,0-.1,0-.12-.07,0-.12.09-.17.06,0,.06-.06,0,0-.11-.06,0,0,0,0,0,0,0,0,.18,0,.17.13a.19.19,0,0,1-.08.1s-.09.08-.08.09,0,0,.07,0,.13,0,.12.11a.23.23,0,0,1-.07.13s0,0,0,.05,0,0,0,0Z"/><path class="cls-5" d="M10.43,11.83h0s0-.07,0-.11a.21.21,0,0,0,0-.11s0,0-.08,0a.19.19,0,0,1-.13,0c-.06,0,0-.12,0-.2l0-.08a.2.2,0,0,0-.13,0l0,0a.08.08,0,0,1,0-.05c.05,0,.18,0,.21,0a.21.21,0,0,1,0,.13s0,.11,0,.12,0,0,.07,0,.13,0,.16,0a.2.2,0,0,1,0,.15v0a0,0,0,0,1,0,.05Z"/><path class="cls-5" d="M12.28,10.76h0s0-.06,0-.1a.15.15,0,0,0,0-.11s0,0-.07,0-.09,0-.13,0-.06-.11-.05-.19,0-.08,0-.09-.07,0-.12,0,0,0,0,0a0,0,0,0,1,0,0s.17-.09.21,0,0,.08,0,.13,0,.11,0,.11a.09.09,0,0,0,.08,0,.12.12,0,0,1,.16,0,.23.23,0,0,1,0,.15.07.07,0,0,0,0,0,0,0,0,0,1,0,.05Z"/><path class="cls-5" d="M8.27,3.1s0,0,0,0,0-.23.11-.23.09,0,.14.06.13.09.15.07,0-.07,0-.11,0-.15.1-.17a.3.3,0,0,1,.18,0l.07,0s0,0,.05,0a0,0,0,0,1,0,0,.13.13,0,0,1-.13,0,.21.21,0,0,0-.14,0s0,0,0,.1A.18.18,0,0,1,8.67,3c-.06,0-.15,0-.22-.06a.3.3,0,0,0-.11-.06s0,.09,0,.17a0,0,0,0,1,0,0Z"/><path class="cls-5" d="M3.45,5s0,0,0,0,0-.23.11-.23.09,0,.14.06.12.09.15.07,0-.07,0-.11,0-.15.1-.17a.32.32,0,0,1,.18,0l.07,0s0,0,.05,0,0,0,0,.05a.15.15,0,0,1-.13,0,.18.18,0,0,0-.14,0s0,0,0,.1a.18.18,0,0,1,0,.16c-.06.05-.15,0-.23-.06a.22.22,0,0,0-.1-.06s0,.09,0,.17a0,0,0,0,1,0,0Z"/><path class="cls-5" d="M.42,6.61a0,0,0,0,1,0,0s0-.23.1-.24a.48.48,0,0,1,.15.07s.12.09.14.07,0-.07,0-.11,0-.15.1-.17a.34.34,0,0,1,.18,0s0,0,.07,0a0,0,0,0,1,0,0,0,0,0,0,1,0,0,.13.13,0,0,1-.13,0,.24.24,0,0,0-.14,0s0,0-.05.1a.22.22,0,0,1,0,.16c-.07,0-.15,0-.23-.06a.24.24,0,0,0-.11-.06s0,.09,0,.17,0,0,0,0Z"/></g></g></svg>