<svg xmlns="http://www.w3.org/2000/svg" viewBox="0 0 28.8 15.61"><defs><style>.cls-1{fill:#8d833f;}.cls-2{fill:#a3a33e;}.cls-3{fill:#c6c652;}.cls-4{fill:#1e1e1d;}.cls-5{fill:#a0654b;}</style></defs><g id="Layer_2" data-name="Layer 2"><g id="Layer_2-2" data-name="Layer 2"><path class="cls-1" d="M10,11.5c-.12.18-1.87,1.56-2,1.75s.07,1.18-.32,1.05c-.22-.08.19-.83,0-.86s-.36.89-.61.75.43-.81.33-.88-.75.75-.91.5.77-.61.71-.7-.89.34-.87,0,1-.08,1.34-.3a14,14,0,0,0,1.75-1.53C9.47,11.05,10.12,11.32,10,11.5Z"/><path class="cls-2" d="M10.72,7.6a15.22,15.22,0,0,1,5.22.9c1.89.72,3.42,2.27,4.73,2.48,6.17,1,7.53-2.26,7.58-4.22.05-1.7-.66-1.95-.39-2.33s1.16,1.51.88,3.33a6.43,6.43,0,0,1-3.89,4.71c-2.17.9-4.16.86-6.51,1.17a14.84,14.84,0,0,1-8.72-1.25c-3.13-1.58-3-3.6-3-3.93a1.81,1.81,0,0,1,1.56-1C8.94,7.39,10,7.65,10.72,7.6Z"/><path class="cls-1" d="M10.61,9.19c.6-.25.92.94,1.17,1.54a4.46,4.46,0,0,1,.47,1.73c-.09.2-1.58,1.85-1.69,2.06s.27,1.16-.15,1.09c-.22,0,.05-.84-.15-.84s-.21.93-.48.84.28-.87.18-.92-.62.86-.82.64.66-.73.59-.81-.83.48-.87.11,1-.25,1.27-.52a13.75,13.75,0,0,0,1.48-1.81C11.66,12.11,9.56,9.61,10.61,9.19Z"/><path class="cls-1" d="M15.46,10.48c-.58.6.16,2,.31,2.31s.67,1.19.61,1.37-1.12.65-.86.91.59-.51.71-.39-.48.62-.29.78.49-.66.62-.63-.15.79.13.78.07-.77.24-.81.2.67.43.56S17,14.3,17,14.16a16,16,0,0,1-.75-2.56c.23.19,1.6,1.68,2.12.88S16,10,15.46,10.48Z"/><path class="cls-3" d="M6.65,1.87c.78-.09,2-1.39,2.88-1.68C10.06,0,11-.12,11.34.17c.72.58,1.59.39,1.84.7s.22,1.23.53,1.68.8.62.82,1.07S14.08,4.68,14,5.41s.21.94,0,1.47-.8.72-1.1,1.26c-.22.39-.2.73-.57,1.08a3.7,3.7,0,0,1-2.21.31c-.8-.13-2.22-.82-2.56-.68s-1,1.56-1.76,1.82-.68,0-1.15.13a1.82,1.82,0,0,1-1.21.06c-.41-.17-1-1.56-1.55-1.91-.27-.17-.6-.3-.74-.55-.27-.49-.06-.8-.12-1.08-.15-.84-1-1.56-1-2.05s.45-1,.53-1.57S.46,2.85.69,2.44A3.2,3.2,0,0,1,2.43.78C4.17.23,5.66,2,6.65,1.87Z"/><path class="cls-1" d="M9,5.57C9,6.1,8,7.84,6.81,7.91A3.13,3.13,0,0,1,4.29,6c-.08-.52.16-2.56.57-2.85s.9,0,1.68-.09S7.85,2.75,8.16,3A4.92,4.92,0,0,1,9,5.57Z"/><path class="cls-4" d="M5.24,4c0-.19,0-.37-.13-.39s-.22.13-.25.33,0,.37.13.39S5.21,4.21,5.24,4Z"/><path class="cls-4" d="M8.37,3.8c0-.2-.15-.34-.26-.32S8,3.68,8,3.87s.15.34.26.32S8.41,4,8.37,3.8Z"/><circle class="cls-4" cx="6.39" cy="5.8" r="0.11"/><path class="cls-4" d="M7.15,5.75A.11.11,0,0,0,7,5.64a.11.11,0,1,0,0,.22A.11.11,0,0,0,7.15,5.75Z"/><path class="cls-5" d="M6.82,7.52C8,7.41,9,4.8,8.58,5.16A3.17,3.17,0,0,1,6.73,6.31c-1.06.07-2.33-1.38-2-.58S6.12,7.57,6.82,7.52Z"/><path class="cls-4" d="M6.77,7C7.63,7,8,5.68,8,5.68a2.33,2.33,0,0,1-1.27.63,2.76,2.76,0,0,1-1.35-.44S5.87,7,6.77,7Z"/><path class="cls-1" d="M8.9,3.66h0a0,0,0,0,1,0-.06c.06-.09,1.45-2.17,3-2.23a0,0,0,1,1,0,.09C10.37,1.51,9,3.62,8.94,3.64Z"/><path class="cls-1" d="M9.31,5l0,0s0,0,0-.06A7.14,7.14,0,0,1,13,3.4s0,0,0,0a0,0,0,0,1,0,0A7,7,0,0,0,9.34,5Z"/><path class="cls-1" d="M12.71,6.29h0c-.95-.5-3.56,0-3.59,0s0,0,0,0,0,0,0,0,2.66-.51,3.64,0a0,0,0,0,1,0,.06A.05.05,0,0,1,12.71,6.29Z"/><path class="cls-1" d="M11.7,8.77h0A4.75,4.75,0,0,0,8.72,7.38a0,0,0,0,1,0-.08,4.79,4.79,0,0,1,3,1.4.06.06,0,0,1,0,.06Z"/><path class="cls-1" d="M3.67,10.33h0a0,0,0,0,1,0-.06A6.61,6.61,0,0,1,5.4,7.87a0,0,0,0,1,.06,0s0,0,0,.06A6.52,6.52,0,0,0,3.71,10.3S3.69,10.33,3.67,10.33Z"/><path class="cls-1" d="M4.39,3.67h0a7,7,0,0,0-3-1.06,0,0,0,0,1,0-.05s0,0,0,0a7.2,7.2,0,0,1,3,1.08,0,0,0,0,1,0,.06S4.4,3.67,4.39,3.67Z"/><path class="cls-1" d="M.56,5.17l-.05,0a.06.06,0,0,1,0-.06A10.12,10.12,0,0,1,4,4.86a0,0,0,0,1,0,0s0,0,0,0a10.42,10.42,0,0,0-3.46.23Z"/><path class="cls-1" d="M1.65,8l0,0a0,0,0,0,1,0-.06A7.29,7.29,0,0,1,4.5,6.68a0,0,0,0,1,0,0,0,0,0,0,1,0,0A7.46,7.46,0,0,0,1.67,8Z"/></g></g></svg>