<svg xmlns="http://www.w3.org/2000/svg" viewBox="0 0 27.14 15.62"><defs><style>.cls-1{fill:#8d6245;}.cls-2{fill:#2b2c2c;}.cls-3{fill:#b06227;}.cls-4{fill:#070707;}.cls-5{fill:#f0f2f4;}</style></defs><g id="Layer_2" data-name="Layer 2"><g id="Layer_2-2" data-name="Layer 2"><path class="cls-1" d="M16.88,2.84c.59-.47,2.44-2.17,2.63-2.2a9.17,9.17,0,0,1,4.85,1.5,12.39,12.39,0,0,1,2.73,2.59,2.23,2.23,0,0,0-1.94,0,2.8,2.8,0,0,0-1,1.7s-1-.48-1.61,0S21.68,8,21.48,8.35a3.19,3.19,0,0,0-2.21-.79c-1.39,0-2.46,1.94-3.34,6.67,0,.24-.88,0-1-.29s-.69-1.87-1-1.82-.14,1.72-.23,1.92-.69.52-.79.36-1.65-3.87-3.84-3.91a2.37,2.37,0,0,0-2.15,1s-2-2-3.77-1.13c0,0-1.28-2.05-3.17-1.31,0,0,1.19-2.54,3.12-3.23s4.21,0,5.56-.27A7.81,7.81,0,0,0,11.9,4.51C12.62,4,15.27,4.1,16.88,2.84Z"/><path class="cls-2" d="M12.6,10.87s.25,1,.35,1.74a11.34,11.34,0,0,1,.17,1.89,3.27,3.27,0,0,0,0,1c.17.11.07-.49.16-.48s0,.61.17.59-.07-.66.05-.6.12.49.23.43-.18-.81-.23-1-.12-1.39-.13-1.81-.05-1.76-.05-1.76Z"/><path class="cls-2" d="M14.11,10.73a11.21,11.21,0,0,1,.82,1.81,17.3,17.3,0,0,1,.61,1.9c0,.11-.08,1.15.1,1.06s0-.63,0-.61.12.68.27.65-.16-.68-.05-.7.2.54.31.52-.25-.83-.35-1-.53-1.65-.59-1.91-.62-2-.62-2Z"/><path class="cls-2" d="M24,1.85A9,9,0,0,0,19.7.62h-.08a.36.36,0,0,0,0-.09c.18-.31.2-.54,0-.54s-.09.3-.24.58c0,.05-.06.14-.12.23-.9,1.14-1.54,2.37-1.73,2.53a10.5,10.5,0,0,1-3.6.9l.07,1s1.69-.54,2-.68a18.11,18.11,0,0,0,1.65-.78c.14-.1.79-1.36,1.73-2.77h0a14.44,14.44,0,0,1,1.65,3.17c.43,1.25.23,4.57.38,4.19A11.93,11.93,0,0,0,21.28,4,12.08,12.08,0,0,0,19.77.9a10.33,10.33,0,0,1,3.08,2.21C24.06,4.42,24,6.57,24.13,6.46A5,5,0,0,0,23.05,3,10.23,10.23,0,0,0,20.28.87,9.62,9.62,0,0,1,23.84,2a18.5,18.5,0,0,1,3.27,2.74C27.39,4.75,25.54,2.67,24,1.85Z"/><path class="cls-2" d="M10.72,5.42s-1.94.81-2.19.85a22.53,22.53,0,0,1-3.07-.64c-.31-.18-.27-.51-.38-.81s-.32.08,0,.69A4.61,4.61,0,0,0,1.66,6.77,6.38,6.38,0,0,0,0,9.1,27.36,27.36,0,0,1,1.82,6.92,4.28,4.28,0,0,1,4.94,5.8,3.54,3.54,0,0,0,3.21,8.13a4.38,4.38,0,0,0,0,2.28c.09-.06.06-1.5.25-2.22A3.27,3.27,0,0,1,5.35,6h0a12.8,12.8,0,0,0,.36,2.7A12.39,12.39,0,0,0,7,11.55c.15,0-.68-1.64-1-3A16.23,16.23,0,0,1,5.68,6a25.55,25.55,0,0,0,2.9.77c.38,0,2-.72,2.39-.48Z"/><path class="cls-3" d="M11.72,2.08A1.87,1.87,0,0,1,14,3.82a43.66,43.66,0,0,1,.49,5,4.35,4.35,0,0,0,.26,1.7l-.14.07a.19.19,0,0,0-.1.13s-.31,0-.39.18c0,0-.12-.3-.31-.31a.44.44,0,0,0-.42.18.35.35,0,0,0-.06.26A.38.38,0,0,0,13,11s-.31-.15-.41,0a3.77,3.77,0,0,1-.06-.58,11.67,11.67,0,0,0-.82-2.25,12.67,12.67,0,0,1-1.33-3.92A1.85,1.85,0,0,1,11.72,2.08Z"/><path class="cls-2" d="M11.88,3.53a1.07,1.07,0,0,1,1-.42.73.73,0,0,1,.61.9,2.65,2.65,0,0,1-.54.84c-.2.29-.31,1.26-1.26,1.2-.73,0-.74-.79-.85-1.24s-.38-1.19,0-1.5A.69.69,0,0,1,11.88,3.53Z"/><path class="cls-4" d="M12.81,4.1a.18.18,0,0,0-.17-.18.18.18,0,0,0-.18.18.18.18,0,0,0,.18.17A.18.18,0,0,0,12.81,4.1Z"/><path class="cls-4" d="M11.4,4.1a.17.17,0,1,0-.34,0,.17.17,0,0,0,.34,0Z"/><path class="cls-4" d="M12.21,5.53a0,0,0,0,0,0,0,.68.68,0,0,1-.46.23l0-.25c.11,0,.35-.22.27-.36a.58.58,0,0,0-.56,0c-.09.11.12.33.23.36l0,.25h0a.68.68,0,0,1-.4-.22s0,0,0,0a0,0,0,0,0,0,0,.63.63,0,0,0,.44.25h0a.75.75,0,0,0,.52-.25A0,0,0,0,0,12.21,5.53Z"/><path class="cls-2" d="M13.85,2.12c.09.08-.08.65-.25.88a1.43,1.43,0,0,0-.19-.26,1,1,0,0,0-.28-.22S13.76,2.05,13.85,2.12Z"/><path class="cls-2" d="M10.72,2.92S10,2.51,10,2.68s.52.78.52.78a2.08,2.08,0,0,1,.08-.27C10.64,3.05,10.72,2.93,10.72,2.92Z"/><path class="cls-5" d="M11.35,4s0,0,0,0a.05.05,0,0,0-.05,0,0,0,0,0,0,.05.05A0,0,0,0,0,11.35,4Z"/><path class="cls-5" d="M12.76,4s0,0,0,0a.05.05,0,0,0-.05,0,0,0,0,0,0,.05.05A0,0,0,0,0,12.76,4Z"/></g></g></svg>