<svg xmlns="http://www.w3.org/2000/svg" xmlns:xlink="http://www.w3.org/1999/xlink" viewBox="0 0 23.55 18.12"><defs><style>.cls-1{fill:#b55c27;}.cls-2{fill:#c26929;}.cls-3{fill:#010101;}.cls-4{fill:#f47c49;}.cls-5{fill:#944020;}.cls-6{fill:#090606;}.cls-7{fill:url(#radial-gradient);}.cls-8{fill:url(#radial-gradient-2);}.cls-9{fill:#eef1f4;}</style><radialGradient id="radial-gradient" cx="8.18" cy="5.93" r="0.95" gradientUnits="userSpaceOnUse"><stop offset="0" stop-color="#a92523"/><stop offset="1" stop-color="#c26929"/></radialGradient><radialGradient id="radial-gradient-2" cx="2.26" cy="8.54" r="0.86" xlink:href="#radial-gradient"/></defs><g id="Layer_2" data-name="Layer 2"><g id="Layer_2-2" data-name="Layer 2"><path class="cls-1" d="M23.49,8.25a13.15,13.15,0,0,0-.57-2.15c.09,0,.37,0,.31-.53s-.64-.53-.77-.52c-3.31-6.48-11.84-4-12.82-2.91C7,4.94,4.34,8.6,3,10.42s-.66,6.5,1.13,7.08c.82.27,1.89-.55,1.3-1a1.75,1.75,0,0,1,1-3.2c2.75.32,1.27,2.73.84,3.33s-.06,1.51,1.56.84,1.42-2.86,1.42-2.86v-.73c1.28.58,4.87-.38,4.87-.38A6.07,6.07,0,0,0,15.87,17c.75.84,2.12-.17,1.54-.84s.49-4.64,2.46-3.91c1.26.46.32,1.95-.33,3.13A3.38,3.38,0,0,0,19,16.71c.1.85,1.28,1,1.85.26C22.33,15.06,23.89,10.49,23.49,8.25Z"/><path class="cls-2" d="M1.59,2.11S4.91-.28,8.27.65c0,0,.08-.84.81-.61s.23,1,.23,1,4.17,5-2.17,8.55c-1.59.88-6.06,1.91-7-2.08C-.45,4.67.75,3.24.75,3.24A.78.78,0,0,1,.62,2.18.65.65,0,0,1,1.59,2.11Z"/><path class="cls-3" d="M5.37,4.42a.31.31,0,0,0-.32-.31.32.32,0,1,0,0,.63A.32.32,0,0,0,5.37,4.42Z"/><path class="cls-3" d="M6.71,7.47c-.18.74-1.17.61-1.3.59l-.14-.38h0c.1-.06.15-.25,0-.49a.4.4,0,0,1,.09-.55c.2-.14.36,0,.67-.25s0-.59-.35-.58a3.76,3.76,0,0,0-2,1c-.43.55.14.74.19.74.26,0,.37-.24.46-.32s.36-.42.56.15c.1.27.25.35.36.3l.13.38a1,1,0,0,1-.61.48,1.59,1.59,0,0,1-1-.17l0,0a1.79,1.79,0,0,0,.78.21.88.88,0,0,0,.27,0,1,1,0,0,0,.65-.49c.16,0,1.18.15,1.37-.63Z"/><path class="cls-3" d="M4,4.91a.27.27,0,0,0-.28-.28.28.28,0,0,0-.28.28.29.29,0,0,0,.28.28A.28.28,0,0,0,4,4.91Z"/><path class="cls-4" d="M1,3l.37-.52S1,2.16.87,2.36A.38.38,0,0,0,1,3Z"/><path class="cls-4" d="M8.59.75s.08-.47.33-.42.22.31.13.55C9,.91,9,1,9,1A2.21,2.21,0,0,1,8.59.75Z"/><path class="cls-5" d="M13.25,2.66a.13.13,0,0,1,0-.13,3.6,3.6,0,0,1,.73.13s0,0,0,.06A2.59,2.59,0,0,1,13.25,2.66Z"/><path class="cls-5" d="M12.13,4.46a.15.15,0,0,1,0-.13,3.64,3.64,0,0,1,.74.07.06.06,0,0,1,0,.06A2.69,2.69,0,0,1,12.13,4.46Z"/><path class="cls-5" d="M10.93,6.89a.13.13,0,0,1,0-.13,3.74,3.74,0,0,1,.74.09s0,0,0,.05A2.36,2.36,0,0,1,10.93,6.89Z"/><path class="cls-5" d="M19.4,5.62a.15.15,0,0,1,0-.13,3.68,3.68,0,0,1,.73.17s0,0,0,0A2.34,2.34,0,0,1,19.4,5.62Z"/><path class="cls-5" d="M17.12,7s0-.11,0-.13a3.66,3.66,0,0,1,.74.1,0,0,0,0,1,0,.06A2.6,2.6,0,0,1,17.12,7Z"/><path class="cls-5" d="M13.64,8.18a.11.11,0,0,1,0-.13,3.66,3.66,0,0,1,.74,0,.06.06,0,0,1,0,.06A2.66,2.66,0,0,1,13.64,8.18Z"/><path class="cls-5" d="M16.45,4a.13.13,0,0,1,0-.13A3.7,3.7,0,0,1,17.2,4s0,0,0,0A2.26,2.26,0,0,1,16.45,4Z"/><path class="cls-5" d="M17,2.21s0-.11.05-.12a3.39,3.39,0,0,1,.68.29s0,.05,0,.05A2.45,2.45,0,0,1,17,2.21Z"/><path class="cls-5" d="M19.64,3.45a.16.16,0,0,1,0-.13,3.71,3.71,0,0,1,.71.24s0,0,0,0A2.58,2.58,0,0,1,19.64,3.45Z"/><path class="cls-5" d="M14.53,5.86s0-.11,0-.13a3.76,3.76,0,0,1,.74.06,0,0,0,0,1,0,0A2.37,2.37,0,0,1,14.53,5.86Z"/><path class="cls-6" d="M17.74,17.17s-.69-.27-.45-.52S17.74,17.17,17.74,17.17Z"/><path class="cls-6" d="M19.14,17.64s.08-.73.38-.57S19.14,17.64,19.14,17.64Z"/><path class="cls-6" d="M18.65,17s.44-.6.62-.31S18.65,17,18.65,17Z"/><path class="cls-6" d="M17.32,17.5s-.69-.27-.45-.52S17.32,17.5,17.32,17.5Z"/><path class="cls-6" d="M16.66,17.71s-.55-.49-.24-.64S16.66,17.71,16.66,17.71Z"/><path class="cls-6" d="M7.92,18.12s-.11-.74.23-.65S7.92,18.12,7.92,18.12Z"/><path class="cls-6" d="M7.24,18s0-.74.32-.61S7.24,18,7.24,18Z"/><path class="cls-6" d="M6.73,17.4s.32-.67.55-.41S6.73,17.4,6.73,17.4Z"/><path class="cls-6" d="M5.49,17.75s-.7-.24-.47-.5S5.49,17.75,5.49,17.75Z"/><path class="cls-6" d="M4.81,18s-.62-.41-.33-.6S4.81,18,4.81,18Z"/><path class="cls-6" d="M6,17s-.73.16-.67-.18S6,17,6,17Z"/><path class="cls-6" d="M19.86,17.82s-.08-.73.25-.64S19.86,17.82,19.86,17.82Z"/><path class="cls-7" d="M9.17,5.93a1,1,0,0,1-2,0,1,1,0,0,1,2,0Z"/><path class="cls-8" d="M3.16,8.54a.86.86,0,0,1-.9.82.83.83,0,1,1,0-1.65A.86.86,0,0,1,3.16,8.54Z"/><path class="cls-9" d="M5.22,4.34a.08.08,0,0,0-.08-.08.08.08,0,1,0,0,.16A.08.08,0,0,0,5.22,4.34Z"/><circle class="cls-9" cx="3.78" cy="4.85" r="0.07"/></g></g></svg>