<svg xmlns="http://www.w3.org/2000/svg" viewBox="0 0 16.66 16.81"><defs><style>.cls-1{fill:#5c4132;}.cls-2{fill:#523727;}.cls-3{fill:#8a5534;}.cls-4{fill:#0e0e0e;}.cls-5{fill:#e5d5ca;}.cls-6{fill:none;stroke:#010101;stroke-linecap:round;stroke-miterlimit:10;stroke-width:0.04px;}.cls-7{fill:#010101;}.cls-8{fill:#c07b4a;}.cls-9{fill:#f8f7f2;}</style></defs><g id="Layer_2" data-name="Layer 2"><g id="Layer_2-2" data-name="Layer 2"><path class="cls-1" d="M8.68,13.43s6.57-4,7.87-1.3c1.07,2.19-6.17,3.34-7.88,1.69Z"/><path class="cls-2" d="M16.36,13.05a2.24,2.24,0,0,1-.8-.38c.29-.53.55-.95.56-1s0,0,0-.05,0,0-.05,0-.27.43-.55,1c-.2-.14-.41-.29-.6-.44.24-.49.43-.81.43-.81a0,0,0,0,0,0-.06,0,0,0,0,0-.05,0s-.19.31-.43.8l-.59-.48.16-.32a0,0,0,0,0-.07,0l-.14.3-.28-.24s0,0-.05,0a0,0,0,0,0,0,.05l.29.26c-.09.19-.22.45-.35.74-.29-.2-.55-.39-.74-.54l.19-.36a.06.06,0,0,0,0-.06,0,0,0,0,0-.06,0s-.07.13-.18.36a2.26,2.26,0,0,1-.27-.22s0,0-.05,0a0,0,0,0,0,0,0l.29.23c-.09.19-.2.43-.32.73-.35-.24-.62-.45-.77-.57,0-.08.06-.13.07-.13a0,0,0,0,0-.07,0l-.06.11L11.76,12s0,0,0,0,0,0,0,0l.09.07c-.09.17-.22.45-.36.77-.25-.21-.42-.38-.5-.46l0-.06a0,0,0,0,0,0-.05s0,0,0,0l0,0a0,0,0,0,0-.05.05v0c-.07.13-.2.38-.33.65-.21-.22-.33-.37-.33-.37a0,0,0,1,0-.06,0,3.78,3.78,0,0,0,.36.41,6.93,6.93,0,0,0-.28.64A7.22,7.22,0,0,1,9.42,13H9.36a0,0,0,0,0,0,.05s.34.37.81.78a1.16,1.16,0,0,0-.11.51s0,0,0,0h0a.05.05,0,0,0,0-.05,1.22,1.22,0,0,1,.1-.45,6.67,6.67,0,0,0,.64.48v0s0,0,0,0h0s0,0,0,0v0l.07.05h0l0,0s0,0,0-.05L11,14.37a4.92,4.92,0,0,1,.18-.59c.26.22.56.45.89.68v0a.05.05,0,0,0,0,0h0a.05.05,0,0,0,0,0h0l0,0h0l0,0s0,0,0,0l-.06,0c.08-.28.16-.53.24-.78a6.3,6.3,0,0,0,.72.45c0,.1-.08.19-.11.28a0,0,0,0,0,0,0h0s0,0,0,0,.07-.17.1-.27l.45.23h0l0,0s0,0,0-.05l-.45-.23c.1-.24.21-.51.33-.78.22.13.46.25.7.37-.06.17-.12.35-.17.53,0,0,0,0,0,.05h0s0,0,0,0l.16-.52.63.27,0,.07s0,0,0,0h0l0,0L15,14l0,0h0l0,0s0-.05,0-.05l0,0a5.1,5.1,0,0,1,.23-.56,3.74,3.74,0,0,0,.59.23h0s0,0,0,0,0,0,0,0a3.66,3.66,0,0,1-.58-.23l.28-.55a2.44,2.44,0,0,0,.83.4h0s0,0,0,0A.07.07,0,0,0,16.36,13.05Zm-2.14-1.32.58.48q-.15.3-.3.66c-.22-.13-.43-.27-.63-.41ZM13,12c.19.15.45.34.74.54-.1.22-.21.45-.31.68-.27-.16-.53-.33-.75-.48C12.84,12.39,13,12.14,13,12Zm-1.18.19c.15.12.42.33.77.57-.1.25-.2.52-.31.83a9.56,9.56,0,0,1-.82-.63C11.64,12.59,11.77,12.31,11.86,12.14Zm-1,.33.51.46c-.11.23-.21.48-.3.72a7,7,0,0,1-.54-.52C10.7,12.86,10.82,12.61,10.9,12.47Zm0,1.85a5.21,5.21,0,0,1-.63-.48c.07-.2.17-.42.27-.64.15.16.33.33.55.53A5.71,5.71,0,0,0,10.89,14.32Zm1.16.06a8.42,8.42,0,0,1-.88-.68c.09-.24.19-.49.29-.72a10.17,10.17,0,0,0,.84.63C12.21,13.85,12.13,14.11,12.05,14.38ZM13.11,14c-.26-.14-.5-.3-.73-.45.11-.3.21-.58.31-.82.22.15.48.32.75.48C13.32,13.51,13.2,13.78,13.11,14Zm.42-.82c.11-.23.21-.46.31-.68.2.14.41.28.63.41-.09.2-.17.42-.25.64C14,13.46,13.75,13.34,13.53,13.21Zm1.38.67c-.21-.08-.42-.17-.62-.27l.24-.63.62.34C15.06,13.51,15,13.7,14.91,13.88Zm.27-.63c-.2-.1-.41-.21-.62-.34.1-.24.21-.46.3-.66.2.16.4.31.6.44Z"/><path class="cls-3" d="M2.22,4.93S2,7.07,1,7.62-.31,9.07.26,9.51c.4.31,1-.32.24-.51,0,0,.16-.47.45-.56s1.11-.39,1.24-1.06A15.76,15.76,0,0,0,2.22,4.93Z"/><path class="cls-3" d="M7.52,4.45a26,26,0,0,0-.94-3.17s.63,0,.37-.35-.51.15-.51.15A4.1,4.1,0,0,0,1.83.4C.32,1,.35,1.69.51,2.13A6,6,0,0,0,1.62,3.65a2.66,2.66,0,0,1,.57,1.88,6.48,6.48,0,0,1,0,.78c.1-.74.49-2.37,2.34-1.53,2.38,1.09.53,2.61.1,2.76s-1.36.82-1.32,1.35c.07.78.52.67.52.67s.6-.19,0-.56A1.33,1.33,0,0,1,5,8.39c.76,0,1.29-.18,1.48-.77A3.26,3.26,0,0,1,7.05,10S5.46,9.8,7,14.65l-.1,0a12.6,12.6,0,0,0-1.65.86.66.66,0,0,0-.3,1,.62.62,0,0,0,.78.23S8.87,15,9.15,14.27C10.7,10.27,7.81,5.9,7.52,4.45Z"/><path class="cls-4" d="M4.67.72A.16.16,0,0,0,4.51.56a.16.16,0,0,0-.16.15.16.16,0,1,0,.32,0Z"/><path class="cls-5" d="M.67,2.45s.08.76.65.63A4.45,4.45,0,0,1,1,1.92.94.94,0,0,1,.67,2.45Z"/><path class="cls-6" d="M1,1.87v0h0Z"/><path class="cls-5" d="M1.67,2.22l-.6-.32a5,5,0,0,0,.29,1.16A.75.75,0,0,0,1.49,3C1.92,2.78,1.67,2.22,1.67,2.22Z"/><path class="cls-7" d="M1,1.89v0Z"/><path class="cls-7" d="M1.07,1.88h0Z"/><path class="cls-3" d="M2.05,11.78a7.43,7.43,0,0,1,0-1.36c-.21.11-.55.42-.41,1.33A5.53,5.53,0,0,0,3,14.67s-2.18.52-1.52,1.41c.43.58,2.13-.74,3-1.16C2.42,14.47,2.15,12.23,2.05,11.78Z"/><path class="cls-8" d="M7.11,10a3.48,3.48,0,0,0-.6-2.47c-.19.59-.68.76-1.44.79-1,.05-1.24.29-1.22.6.55.37,0,.57,0,.57s-.45.11-.52-.67c0-.52.37-.75,1.53-1.27C5.33,7.41,7.22,6,4.6,4.76c-1.85-.85-2.28.71-2.38,1.46,0,.18,0,.19,0,.36a2.82,2.82,0,0,1,0-.36c0-.27-.07,1-.15,1.41s0,1.75-.12,2.92c-.15,1.6.65,4.11,2.58,4.4A3.19,3.19,0,0,0,7,14.64C5.48,9.79,7.11,10,7.11,10Z"/><path class="cls-4" d="M1.67,1.36s0,0,0,0,0,0,0,0a0,0,0,0,0,0,0A0,0,0,0,0,1.67,1.36Z"/><path class="cls-4" d="M2.16,1.14a0,0,0,0,0,0,0s0,0,0,0a0,0,0,0,0,0,0A0,0,0,0,0,2.16,1.14Z"/><path class="cls-4" d="M2.57,1a0,0,0,0,0,0,0s0,0,0,0,0,0,0,0A0,0,0,0,0,2.57,1Z"/><path class="cls-4" d="M2.14,1.71s0,0,0,0,0,0,0,0,0,0,0,0A0,0,0,0,0,2.14,1.71Z"/><path class="cls-4" d="M2.21.74a0,0,0,0,0-.06,0,0,0,0,0,0,.06,0Z"/><path class="cls-4" d="M1.87,1s0,0,0,0,0,0,0,0,0,0,0,0A0,0,0,0,0,1.87,1Z"/><path class="cls-4" d="M2.15,1.43a0,0,0,0,0,0,0s0,0,0,0,0,0,0,0S2.15,1.44,2.15,1.43Z"/><path class="cls-4" d="M.63,2l0,0,0,0a0,0,0,0,0,0,0A0,0,0,0,0,.59,2Z"/><path class="cls-4" d="M.54,1.73a0,0,0,0,0,0,0,0,0,0,0,0,0,0,0,0,0,0,0,0,0A0,0,0,0,0,.5,1.73Z"/><path class="cls-4" d="M2.51,1.36a0,0,0,0,0,0,0s0,0,0,0a0,0,0,0,0,0,0S2.51,1.37,2.51,1.36Z"/><path class="cls-2" d="M2.4,2.26s0,0,0,0,0,0-.07,0-.45,0-1.23-.48L1,1.4H.9L1,1.86s0,0,0,0a1.12,1.12,0,0,1-.34.52,0,0,0,0,0,0,.05H.68A1.12,1.12,0,0,0,1,1.92a2.46,2.46,0,0,0,1.13.48.27.27,0,0,0,.13,0c.09,0,.12-.07.12-.08S2.42,2.27,2.4,2.26Z"/><path class="cls-4" d="M1,1.4A1.15,1.15,0,0,0,1.21.86c0-.16-.08-.32-.46,0s-.32.35-.26.42a.64.64,0,0,0,.4.2A.21.21,0,0,0,1,1.4Z"/><path class="cls-9" d="M4.61.66a.05.05,0,0,0-.1,0,.05.05,0,1,0,.1,0Z"/></g></g></svg>