<svg xmlns="http://www.w3.org/2000/svg" viewBox="0 0 29.31 12.31"><defs><style>.cls-1{fill:#dbdae0;}.cls-2{fill:#312b2b;}.cls-3{fill:#cdcdd1;}</style></defs><g id="Layer_2" data-name="Layer 2"><g id="Layer_2-2" data-name="Layer 2"><path class="cls-1" d="M3.08,8.19S1.36,9.66.06,8.8c0,0-.2-.18.12-.4S.43,7.52.3,7.12A2.78,2.78,0,0,1,1.53,4a4.55,4.55,0,0,1,4.54,0c1.36.66,3.13-.08,3.91-.24A18.53,18.53,0,0,1,20,5C22.49,5.94,25,3.35,25,3.34s0,.18,0,.18l.42.32s-3.08,4.81-6.29,6.7a10,10,0,0,1-6.22,1.77c-3,0-7.11-2.29-8.11-2.46a10.5,10.5,0,0,0-3.51.05c-.68.11-1-.48-.59-.48S1.63,9.34,3.08,8.19Z"/><path class="cls-2" d="M4.08,7.3a.19.19,0,0,0-.19-.18.18.18,0,0,0-.18.18.19.19,0,0,0,.18.19A.2.2,0,0,0,4.08,7.3Z"/><path class="cls-1" d="M25.56,2.84A2,2,0,0,1,27,2.36c.68.16.8.54,1.21.67a2.32,2.32,0,0,0,1.09-.09s-2.11,2.24-4.5,1A3.21,3.21,0,0,1,23.38,0s.24.84.67,1.05.77.13,1.14.52A2.23,2.23,0,0,1,25.56,2.84Z"/><path class="cls-3" d="M9.57,9c-.21.25.3.67.41,1a2.25,2.25,0,0,0,2.57,1.38c.82-.07,1.17-.53,1-.6a2.23,2.23,0,0,1-.75-.58A3,3,0,0,0,11.66,9,2.57,2.57,0,0,0,9.57,9Z"/></g></g></svg>