<svg xmlns="http://www.w3.org/2000/svg" viewBox="0 0 16.08 21.33"><defs><style>.cls-1{fill:#444445;}.cls-2{fill:#505050;}.cls-3{fill:#2a2b30;}.cls-4{fill:#f1e4e1;}.cls-5{fill:#b32c25;}.cls-6{fill:#48484d;}.cls-7{fill:#29292d;}.cls-8{fill:#211a18;}.cls-9{fill:#1a1a1c;}.cls-10{fill:#f0f2f4;}</style></defs><g id="Layer_2" data-name="Layer 2"><g id="Layer_2-2" data-name="Layer 2"><path class="cls-1" d="M1.41,2.83l-.14-.6s-.53.22-.7.32C.08,2.82,0,3,0,3a3.54,3.54,0,0,1,.62-.11Z"/><path class="cls-2" d="M0,3s-.36-.71,1.38-1.66c0,0-.27.15-.14.95C1.27,2.28.16,2.73,0,3Z"/><path class="cls-1" d="M9.52,16.18s-.08.45,0,.42.64,0,.64.24-.79.19-1,.2-.78.16-1,.16-.75-.22.18-.49c.17-.05.65,0,.67-.11a2.34,2.34,0,0,0,0-.38Z"/><path class="cls-2" d="M7.83,16.09s.09.53,0,.67-.42.9-.67.94-1.32-.54-1.49-.2.7.47.7.47S5,18,5.09,18.38s1.44-.09,1.44-.09-.62.58-.47.74.76-.47,1-.61a3.72,3.72,0,0,1,.62-.27c.16,0,.74,0,.75-.17s-.69-.21-.69-.21.62-.68.63-.92.06-.65.06-.65Z"/><path class="cls-3" d="M1.19,2.28C.91.82,2.34.12,3.34.09a3.62,3.62,0,0,1,3.3,2.19C7.31,3.87,7,3.91,7.76,5s2.07.37,3.71,3.34,1.38,6.09,1.67,7.56,1.16,2.77,1.83,2.4-.48-.9-.26-1.21c.39-.56,1.65.48,1.32,1.5a1.51,1.51,0,0,1-2.43.63S13.52,21,12,21.29s-2.1-1.11-1.86-1.39c.46-.56.78.37,1.52.22.44-.09,1.41-1.1.34-2.41s-1.56-1.49-1.92-1.49a9.19,9.19,0,0,1-2.68,0c-1-.26-3-1.32-4.31-4.84C2.19,9,2.53,7.78,2.93,6.81c.24-.57,1.06-1.31.86-2C3.48,3.77,1.6,4.39,1.19,2.28Z"/><path class="cls-4" d="M3.47,1.48a.37.37,0,0,0-.73,0,.37.37,0,1,0,.73,0Z"/><path class="cls-5" d="M3.22,0C3.87,0,4.49.28,4.4.78S4,.63,3.22.66,2.51,1,2.23,1,1.85.1,3.22,0Z"/><path class="cls-6" d="M4.78,6.23a.36.36,0,0,1-.2-.1,0,0,0,0,1,0,0,0,0,0,0,1,0,0s.13.1.18.07.07-.08.07-.19V5.88l.06.06s.14.12.2.1.08-.08.09-.19V5.77l.06.05s.13.09.18.07,0-.08,0-.19V5.63l.06,0s.13.07.18,0,0-.1,0-.21,0,0,0,0,0,0,0,0,0,.24-.07.28a.22.22,0,0,1-.21,0c0,.11,0,.17-.09.2a.26.26,0,0,1-.21,0c0,.1-.06.17-.12.19A.25.25,0,0,1,5,6c0,.1,0,.16-.11.18Z"/><path class="cls-6" d="M3.73,8.29a.43.43,0,0,1-.25-.14,0,0,0,0,1,0-.05h.06s.14.14.22.12.09-.12.11-.19V8l.05,0s.15.11.21.08S4.2,8,4.2,7.91V7.82l.06.06S4.4,8,4.47,8s.08-.12.09-.2,0,0,0,0,0,0,0,0S4.57,8,4.49,8a.24.24,0,0,1-.22,0,.2.2,0,0,1-.1.18.26.26,0,0,1-.24-.06c0,.11-.08.17-.15.19Z"/><path class="cls-6" d="M7.21,6.28a.86.86,0,0,1-.19,0s0,0,0-.05a0,0,0,0,1,0,0s.16.08.25,0A.24.24,0,0,0,7.39,6V5.92l.05,0s.19.07.24,0,0-.11,0-.22l0-.07.07,0s.16,0,.21,0,0-.11,0-.23,0,0,0,0a0,0,0,0,1,0,0c.06.14.06.25,0,.31a.29.29,0,0,1-.24,0,.24.24,0,0,1,0,.24.29.29,0,0,1-.27,0,.25.25,0,0,1-.11.22A.22.22,0,0,1,7.21,6.28Z"/><path class="cls-6" d="M3.86,11.44a.48.48,0,0,1-.26-.12s0,0,0-.05,0,0,.05,0,.18.14.25.1.08-.1.07-.23V11L4,11.1c.06.05.18.11.24.08s0-.09,0-.2v-.1l.07.07s.15.13.22.1.07-.1.07-.23a0,0,0,0,1,0,0s0,0,0,0,0,.26-.11.3a.27.27,0,0,1-.23-.06c0,.1,0,.16-.09.19A.28.28,0,0,1,4,11.2c0,.12,0,.2-.12.23Z"/><path class="cls-6" d="M11,11.44a.41.41,0,0,1-.22-.07,0,0,0,0,1,0-.06s.15.08.22,0,.08-.13.08-.21v-.06l.06,0s.14.08.2,0,.05-.08,0-.17v-.08l.07,0s.16.1.22.06.06-.1.05-.21,0,0,0,0,0,0,0,0,0,.25-.08.29a.28.28,0,0,1-.24,0c0,.09,0,.15-.08.18a.27.27,0,0,1-.23,0,.27.27,0,0,1-.12.21Z"/><path class="cls-6" d="M12,13.42a.44.44,0,0,1-.23-.07,0,0,0,0,1,0,0,0,0,0,0,1,.06,0s.14.08.2.05a.23.23,0,0,0,0-.19v-.09l.07.06s.14.1.2.07.06-.1.06-.22v-.08l.06,0s.14.08.17.06,0,0,0-.2,0,0,0,0h0s0,0,0,0,0,.24-.05.28a.24.24,0,0,1-.2,0q0,.17-.09.21a.24.24,0,0,1-.22,0c0,.09,0,.15-.08.18Z"/><path class="cls-6" d="M10.67,9.08a.37.37,0,0,1-.22-.1,0,0,0,0,1,0-.05h.05s.14.1.19.07.05-.08.05-.19V8.73l.07,0s.17.1.22.07.05,0,0-.22l0-.09.08.05c.05,0,.17.09.21.06s.05-.06,0-.23a0,0,0,0,1,0-.05.05.05,0,0,1,0,0c0,.16,0,.26,0,.31s-.15,0-.22,0,0,.19,0,.22-.18,0-.25,0a.2.2,0,0,1-.08.19Z"/><path class="cls-6" d="M5.38,13.53a.36.36,0,0,1-.21-.1s0,0,0,0a0,0,0,0,1,0,0s.14.1.19.07.06-.08,0-.19v-.08l.07.05s.17.1.22.07,0-.05,0-.22l0-.09.07,0s.17.09.21.06,0-.06,0-.23a0,0,0,0,1,0,0,.05.05,0,0,1,0,0c0,.16,0,.26,0,.31s-.15,0-.22,0a.21.21,0,0,1-.05.22c-.07.05-.18,0-.25,0s0,.17-.08.2Z"/><path class="cls-7" d="M11.34,10.11a.43.43,0,0,1-.2-.07h0a0,0,0,0,1,0,0l0,0s0,0,.08,0,.15.08.19,0,0,0,0-.19V9.76l.07.05s.15.09.19.06,0-.1,0-.22V9.56l.07.06c.06.05.17.11.21.09s0-.05,0-.22c0,0,0,0,0,0a0,0,0,0,1,0,0c0,.16,0,.26,0,.3a.24.24,0,0,1-.23,0c0,.11,0,.18-.07.21s-.15,0-.21,0,0,.15-.07.18A.1.1,0,0,1,11.34,10.11Z"/><path class="cls-6" d="M9.14,7.24a.45.45,0,0,1-.2,0s0,0,0-.05a0,0,0,0,1,.05,0,.34.34,0,0,0,.23,0s0-.14,0-.2,0-.08,0-.1,0,0,0,0,.19,0,.23,0,0-.16,0-.2l0-.07.07,0c.12,0,.2,0,.23,0s0-.17,0-.21a0,0,0,1,1,.07,0s.07.2,0,.29a.26.26,0,0,1-.25,0,.25.25,0,0,1,0,.22c-.06.05-.14.05-.27,0h0c0,.08,0,.21-.06.27Z"/><path class="cls-6" d="M7.58,15.18a.85.85,0,0,1-.18-.1s0,0,0-.05,0,0,.05,0,.17.1.22.08.06-.12.07-.18,0-.08,0-.09h0c.1.07.18.09.22.06s.05-.16.05-.2v-.07l.06,0c.11.06.19.08.23.05s.06-.16.05-.2a.05.05,0,0,1,0,0,0,0,0,0,1,0,0s0,.21-.08.28a.26.26,0,0,1-.25,0,.22.22,0,0,1-.08.2c-.07,0-.15,0-.27,0h0c0,.08,0,.21-.11.25Z"/><path class="cls-8" d="M3.34,1.51a.27.27,0,1,0-.27.27A.27.27,0,0,0,3.34,1.51Z"/><path class="cls-9" d="M12.27,14.67a7.47,7.47,0,0,1-1.1-2.25c0-.13-.16-.58-.36-1.16.17,1-.33.56-.33.56.4,1.12-.4.76-.4.76.39,1.07-.6.49-.6.49.07.84-.8.24-.8.24.27.78-1.16.26-1.47,0,1.69,1.26,3.55,2,3.3,1.48,0,0,.88.48.68,0,0,0,1,.48.8.08C12,15,12.63,15,12.27,14.67Z"/><path class="cls-6" d="M7,13.48H7l-.13-.1Z"/><path class="cls-6" d="M8.68,13.31s.87.6.8-.24c0,0,1,.58.6-.49,0,0,.8.36.4-.76,0,0,.5.47.33-.56A18.7,18.7,0,0,0,9.83,9c.32,1.92-.62.8-.62.8.56,1.95-.65.6-.65.6.67,2-.75.52-.75.52.56,2-.88.45-.88.45.38,1.67-1,.58-1.68,0l.13.22a11.2,11.2,0,0,0,1.68,1.73l.15.11C7.52,13.57,9,14.09,8.68,13.31Z"/><path class="cls-9" d="M8.7,7.37a3,3,0,0,0-3.36-.6c-1.19.66-1.08,2.8-.09,4.52.68.61,2.06,1.7,1.68,0,0,0,1.44,1.53.88-.45,0,0,1.42,1.52.75-.52,0,0,1.21,1.35.65-.6,0,0,.94,1.12.62-.8A5.44,5.44,0,0,0,8.7,7.37Z"/><circle class="cls-10" cx="3.17" cy="1.42" r="0.07"/></g></g></svg>