<svg xmlns="http://www.w3.org/2000/svg" viewBox="0 0 20.91 17.25"><defs><style>.cls-1{fill:#735862;}.cls-2{fill:#ef3d3f;}.cls-3{fill:#f7f2f4;}.cls-4{fill:#574f51;}.cls-5{fill:#ef3936;}.cls-6{fill:#1a1918;}.cls-7{fill:#6e5f64;}.cls-8{fill:#f2f3f4;}</style></defs><g id="Layer_2" data-name="Layer 2"><g id="Layer_2-2" data-name="Layer 2"><path class="cls-1" d="M10.4,16a3.85,3.85,0,0,0-1-.12,3.21,3.21,0,0,1,.84-.13.11.11,0,1,0,0-.22,4,4,0,0,0-1.4.3.13.13,0,0,0,0-.06s-1.44-3.39-1.42-3.56.46-1.93.46-1.93A.2.2,0,0,0,7.72,10a.2.2,0,0,0-.23.14S7,12,7,12.22s1.45,3.64,1.45,3.64a3.08,3.08,0,0,0-.73,0,.12.12,0,1,0,0,.23,2.88,2.88,0,0,1,.85.06,4.29,4.29,0,0,1,1.56.59l.06,0a.14.14,0,0,0,.1-.05.12.12,0,0,0,0-.16,3.58,3.58,0,0,0-.88-.43,3.34,3.34,0,0,1,.91.11h0a.12.12,0,0,0,.11-.08A.12.12,0,0,0,10.4,16Z"/><path class="cls-1" d="M7.45,16.58a9.54,9.54,0,0,0-1-.19,4,4,0,0,1,.93,0,.12.12,0,0,0,.13-.1.13.13,0,0,0-.11-.13,4.53,4.53,0,0,0-1.51.14s-.65-3.54-.6-3.7c.11-.4.77-2.35.77-2.35A.18.18,0,0,0,5.92,10a.2.2,0,0,0-.24.11c-.74,2.3-.77,2.22-.8,2.44s.61,3.77.61,3.77a2.46,2.46,0,0,0-.77.07.11.11,0,0,0-.08.14.11.11,0,0,0,.11.08h0a2.6,2.6,0,0,1,.88,0A4.12,4.12,0,0,1,7,17.23a.08.08,0,0,0,.07,0,.11.11,0,0,0,.09,0,.11.11,0,0,0,0-.16,3.54,3.54,0,0,0-.69-.42,8.34,8.34,0,0,1,.93.17h0a.12.12,0,0,0,.11-.09A.11.11,0,0,0,7.45,16.58Z"/><path class="cls-2" d="M13.16,0A2.06,2.06,0,0,0,11.45,2,5.32,5.32,0,0,0,12,4.49c.48,1,.5,1.24.43,1.47A6.61,6.61,0,0,0,6.87,3.35C3.1,3.47-.73,7.57.12,8.21c.42.32,1-.16,1-.16s-.33.34-.13.53.92-.16.92-.16-.06.23.05.34.6-.09.6-.09A10.81,10.81,0,0,1,5.22,10c.34.31.4.49.65.48s.47-.38.81-.37.4.33.86.38.64-.37,1.11-.45A7.85,7.85,0,0,0,13.3,8a3.36,3.36,0,0,0,.58-.69c.59-1.18,0-2.68-.75-4.06a1.14,1.14,0,0,1-.14-1s1.44.55,2-.52a1.49,1.49,0,0,0,0-1C14.69,0,13.71,0,13.16,0Z"/><path class="cls-3" d="M13.05,1.11a.83.83,0,0,1,1.34-.05A.87.87,0,0,1,13.05,1.11Z"/><path class="cls-4" d="M14.83,1.46c.05.23.61.19.89.23a6.07,6.07,0,0,1,2.45.79,14.11,14.11,0,0,1,2.74,2.36,9.46,9.46,0,0,0-2.77-2.78,8.12,8.12,0,0,0-3.2-.91C14.79,1.15,14.82,1.37,14.83,1.46Z"/><path class="cls-5" d="M6.76,3.94c1.65-.16,4.63,1,4.83,2.1C11.73,6.77,8.44,8,6.88,8.1,5.56,8.21,3.17,8,3.07,7.61c0-.18.26-.26.26-.26s-.75.21-.83-.06.25-.39.25-.39-.78.33-1,0S3,5.3,3.87,4.84A6.75,6.75,0,0,1,6.76,3.94Z"/><path class="cls-6" d="M13.94,1.08a.21.21,0,0,0-.22-.21.21.21,0,0,0,0,.42A.21.21,0,0,0,13.94,1.08Z"/><path class="cls-7" d="M14.86.87c.15-.29,2,.08,3.11.72a7.63,7.63,0,0,1,2.94,3.25,9.68,9.68,0,0,0-3.09-2.9,8.16,8.16,0,0,0-3-.71C14.77,1.17,14.82.93,14.86.87Z"/><circle class="cls-8" cx="13.79" cy="1.01" r="0.07"/></g></g></svg>