<svg xmlns="http://www.w3.org/2000/svg" viewBox="0 0 16.65 15.27"><defs><style>.cls-1{fill:#262525;}.cls-2{fill:#e02426;}.cls-3{fill:#f7f9f8;}.cls-4{fill:#171717;}.cls-5{fill:#2d2e2d;}.cls-6{fill:#4d4d4d;}.cls-7{fill:#030303;}.cls-8{fill:#f8f7f2;}</style></defs><g id="Layer_2" data-name="Layer 2"><g id="Layer_2-2" data-name="Layer 2"><path class="cls-1" d="M12.11,11.54c-2.3-.75-4.66-2.86-7.32-1.66A1.75,1.75,0,0,1,3.43,10C2.88,9.52,4.73,7.2,5,6.81S6.82,4.55,6.43,3A3.7,3.7,0,0,0,4.59.79L4.42.62s.17-.2.17-.2a3.21,3.21,0,0,1-.51,0c.11-.05.14-.33.14-.33s-.53.25-.53.25,0-.38,0-.38-.38.35-.38.35A1.38,1.38,0,0,0,1.83,1.63s-.22,1.14,1.42,1.2a2.09,2.09,0,0,0,1.42-.44,1.51,1.51,0,0,1,.75,1.14c0,.71.06.84-1.89,3.19S1.25,9.34.76,11.55a4.17,4.17,0,0,1,.44-.47,2.88,2.88,0,0,0,.06,1.78,1.22,1.22,0,0,1,.27-.46,4,4,0,0,0,.67,1.1c.34.31,1.41,1.3,4.63,1.68s9.05-.31,9.82-3.71a4.78,4.78,0,0,1-1.57,1.13,1.83,1.83,0,0,0,.73-1.07,4.14,4.14,0,0,1-1.33.82A11.69,11.69,0,0,1,12.11,11.54Z"/><path class="cls-2" d="M1,3.67c.49,0,1.12-.5,1.24-.54s1.27-.6,1.17-.75-.49-.08-.71-.22-.56-.48-.7-.31-.82,1-1.38.93c-.31,0-.36-.11-.52,0S-.06,3.59,1,3.67Z"/><path class="cls-3" d="M3.56,1.6a.23.23,0,0,0-.24-.23.23.23,0,0,0-.22.24.23.23,0,0,0,.23.23A.24.24,0,0,0,3.56,1.6Z"/><path class="cls-4" d="M11.17,13.26a.41.41,0,0,0-.08-.51.69.69,0,0,0,.58-.37.38.38,0,0,0-.2-.51.53.53,0,0,0,.4-.42c0-.35-.38-.53-.38-.53a.42.42,0,0,0,.38-.38c0-.16-.19-.43-.49-.7A7.92,7.92,0,0,0,8,8.13c-1.91-.24-3.73.33-4,2.43-.1.81.64,3.22,4.44,3.4l1,0C10.55,13.88,11.07,13.49,11.17,13.26Z"/><path class="cls-5" d="M12.2,13.32a.52.52,0,0,0-.3-.29s.88.07,1-.29-.25-.39-.25-.39,1,0,.93-.49c0-.22-.67-.25-.7-.25s.95,0,.85-.6c0-.24-.54,0-1-.23a13.56,13.56,0,0,1-1.28-.94c.3.27.52.54.49.7a.42.42,0,0,1-.38.38s.42.18.38.53a.53.53,0,0,1-.4.42.38.38,0,0,1,.2.51.69.69,0,0,1-.58.37.41.41,0,0,1,.08.51c-.1.23-.62.62-1.72.73C11.74,14,12.29,13.61,12.2,13.32Z"/><path class="cls-6" d="M7.66,11.2h0s0,0,0,0a.46.46,0,0,0,.23-.27.58.58,0,0,0,0-.4s0,0,0-.05,0,0,0,0a.65.65,0,0,1,.07.46.54.54,0,0,1-.27.31Z"/><path class="cls-6" d="M6.75,11.7h0a0,0,0,0,1,0,0A.48.48,0,0,0,7,11.37a.62.62,0,0,0-.06-.4,0,0,0,1,1,.06,0,.74.74,0,0,1,.06.46.54.54,0,0,1-.27.31Z"/><path class="cls-6" d="M7.1,10.19l0,0s0,0,0,0a.45.45,0,0,0,.24-.27.66.66,0,0,0-.06-.41s0,0,0,0a0,0,0,0,1,.05,0,.74.74,0,0,1,.06.46.57.57,0,0,1-.27.31Z"/><path class="cls-6" d="M8.3,11.85h0a0,0,0,0,1,0-.05.45.45,0,0,0,.24-.27.61.61,0,0,0-.06-.41s0,0,0,0a0,0,0,0,1,0,0,.67.67,0,0,1,.06.46.56.56,0,0,1-.26.31Z"/><path class="cls-6" d="M8.56,10.53l0,0s0,0,0,0a.48.48,0,0,0,.24-.27.66.66,0,0,0-.06-.41s0,0,0,0,0,0,0,0a.72.72,0,0,1,.06.45.51.51,0,0,1-.27.31Z"/><path class="cls-6" d="M8.14,9.83h0s0,0,0-.05a.45.45,0,0,0,.19-.3.62.62,0,0,0-.12-.39A0,0,0,0,1,8.2,9s0,0,0,0a.65.65,0,0,1,.13.44.53.53,0,0,1-.21.35Z"/><path class="cls-6" d="M9.06,11.31l0,0a0,0,0,0,1,0,0A.46.46,0,0,0,9.28,11a.62.62,0,0,0,0-.41,0,0,0,0,1,0,0s0,0,0,0a.62.62,0,0,1,.06.46.51.51,0,0,1-.26.31Z"/><path class="cls-6" d="M9.35,12.2l0,0a0,0,0,0,1,0,0,.4.4,0,0,0,.24-.27.56.56,0,0,0-.06-.4,0,0,0,0,1,0-.05s0,0,.05,0a.72.72,0,0,1,.06.45.54.54,0,0,1-.27.31Z"/><path class="cls-6" d="M8.56,12.81s0,0,0,0,0,0,0,0a.46.46,0,0,0,.26-.25.59.59,0,0,0,0-.41s0,0,0,0,0,0,0,0a.6.6,0,0,1,0,.46.47.47,0,0,1-.29.28Z"/><path class="cls-6" d="M7.27,12.48h0a0,0,0,0,1,0-.05.45.45,0,0,0,.24-.27.62.62,0,0,0-.06-.4,0,0,0,1,1,.06,0,.74.74,0,0,1,.06.46.54.54,0,0,1-.27.31Z"/><path class="cls-6" d="M6.75,13.45l0,0s0,0,0,0a.48.48,0,0,0,.34-.46s0,0,0,0,0,0,0,0a.55.55,0,0,1-.39.52Z"/><path class="cls-6" d="M7.69,13.25s0,0,0,0a.05.05,0,0,1,0,0A.45.45,0,0,0,8,13a.64.64,0,0,0,0-.41s0,0,0,0l0,0A.67.67,0,0,1,8,13a.51.51,0,0,1-.31.26Z"/><path class="cls-6" d="M8.2,13.82s0,0,0,0,0,0,0,0a.53.53,0,0,0,.3-.56,0,0,0,0,1,0,0s0,0,0,0a.62.62,0,0,1-.34.62Z"/><path class="cls-6" d="M8.9,13.44l0,0s0,0,0,0a.45.45,0,0,0,.27-.23.56.56,0,0,0,0-.41,0,0,0,0,1,0,0s0,0,0,0a.59.59,0,0,1,0,.46.51.51,0,0,1-.31.26Z"/><path class="cls-6" d="M9.71,12.89a0,0,0,0,1,0,0s0,0,0,0a.42.42,0,0,0,.27-.23.6.6,0,0,0,0-.41s0,0,0,0a0,0,0,0,1,0,0,.68.68,0,0,1,0,.46.45.45,0,0,1-.3.27Z"/><path class="cls-6" d="M9.84,13.53a0,0,0,0,1,0,0,.05.05,0,0,1,0,0,.44.44,0,0,0,.31-.18.59.59,0,0,0,.07-.41,0,0,0,0,1,0,0s0,0,0,0a.64.64,0,0,1-.09.45.51.51,0,0,1-.34.22Z"/><path class="cls-6" d="M10.15,11.47s0,0,0,0,0,0,0,0a.45.45,0,0,0,.23-.28.58.58,0,0,0,0-.4s0,0,0,0,0,0,0,0a.63.63,0,0,1,.07.45.51.51,0,0,1-.27.31Z"/><path class="cls-6" d="M10.93,10.85h0a0,0,0,0,1,0-.05.45.45,0,0,0,.24-.27.62.62,0,0,0-.06-.4,0,0,0,1,1,.06,0,.74.74,0,0,1,.06.46.54.54,0,0,1-.27.31Z"/><path class="cls-6" d="M10.4,10.3h0a0,0,0,0,1,0,0,.46.46,0,0,0,.23-.27.56.56,0,0,0-.06-.4,0,0,0,0,1,0-.05s0,0,0,0a.62.62,0,0,1,.06.46.49.49,0,0,1-.26.31Z"/><path class="cls-6" d="M9.72,10.67h0s0,0,0-.05a.46.46,0,0,0,.23-.27.58.58,0,0,0,0-.4s0,0,0,0,0,0,0,0a.62.62,0,0,1,.06.46.49.49,0,0,1-.26.31Z"/><path class="cls-6" d="M9.32,10.07l0,0a0,0,0,0,1,0,0,.48.48,0,0,0,.23-.28.62.62,0,0,0-.06-.4s0,0,0-.05,0,0,0,0a.6.6,0,0,1,.07.45.49.49,0,0,1-.26.31Z"/><path class="cls-6" d="M10.09,9.58h0a0,0,0,0,1,0,0,.4.4,0,0,0,.15-.25.34.34,0,0,0-.08-.23,0,0,0,0,1,0,0s0,0,0,0a.34.34,0,0,1,.09.28.45.45,0,0,1-.16.29Z"/><path class="cls-6" d="M8.86,9.23s0,0,0,0a0,0,0,0,1,0,0,.48.48,0,0,0,.22-.29A.64.64,0,0,0,9,8.48s0,0,0,0,0,0,0,0a.72.72,0,0,1,.08.45.49.49,0,0,1-.25.32Z"/><path class="cls-6" d="M10.57,12.36h0a0,0,0,0,1,0,0,.45.45,0,0,0,.24-.27.62.62,0,0,0-.06-.4,0,0,0,0,1,0-.05,0,0,0,0,1,0,0,.7.7,0,0,1,.06.45.54.54,0,0,1-.27.31Z"/><path class="cls-6" d="M7.56,8.9h0a0,0,0,0,1,0-.05.4.4,0,0,0,.17-.31.63.63,0,0,0-.13-.39s0,0,0,0h0a.62.62,0,0,1,.16.43.51.51,0,0,1-.2.36Z"/><path class="cls-6" d="M6.56,9.5h0a0,0,0,0,1,0-.05.49.49,0,0,0,.14-.33.62.62,0,0,0-.18-.37,0,0,0,0,1,0,0s0,0,0,0a.67.67,0,0,1,.2.42.48.48,0,0,1-.16.37Z"/><path class="cls-6" d="M5.5,10.21s0,0,0,0a0,0,0,0,1,0,0,.52.52,0,0,0,.24-.27.62.62,0,0,0-.06-.4,0,0,0,0,1,.06,0,.74.74,0,0,1,.06.46.54.54,0,0,1-.27.31Z"/><path class="cls-6" d="M6.19,11h0a0,0,0,0,1,0-.05.45.45,0,0,0,.24-.27.56.56,0,0,0-.06-.4,0,0,0,0,1,0,0s0,0,0,0a.67.67,0,0,1,.06.46.52.52,0,0,1-.26.31Z"/><path class="cls-6" d="M5.09,11.61s0,0,0,0,0,0,0,0a.46.46,0,0,0,.29-.21.63.63,0,0,0,0-.41s0,0,0,0l0,0a.71.71,0,0,1,0,.46.52.52,0,0,1-.33.24Z"/><path class="cls-6" d="M5.64,12.2l0,0a0,0,0,0,1,0,0,.54.54,0,0,0,.3-.2.66.66,0,0,0,0-.41.05.05,0,0,1,0,0s0,0,0,0A.67.67,0,0,1,6,12a.5.5,0,0,1-.34.23Z"/><path class="cls-6" d="M6.11,12.87s0,0,0,0l0,0a.45.45,0,0,0,.33-.15.58.58,0,0,0,.12-.39s0,0,0,0a0,0,0,0,1,0,0,.67.67,0,0,1-.13.44.52.52,0,0,1-.37.17Z"/><path class="cls-7" d="M3.41,1.64a.14.14,0,0,0-.13-.13.13.13,0,0,0-.12.13.12.12,0,0,0,.12.12A.13.13,0,0,0,3.41,1.64Z"/><circle class="cls-8" cx="3.31" cy="1.63" r="0.05"/></g></g></svg>