<svg xmlns="http://www.w3.org/2000/svg" viewBox="0 0 21.56 13.73"><defs><style>.cls-1{fill:#4e3c42;}.cls-2{fill:#c3a17a;}.cls-3{fill:#685458;}.cls-4{fill:#191919;}.cls-5{fill:#f8c0ac;}.cls-6{fill:#372f32;}</style></defs><g id="Layer_2" data-name="Layer 2"><g id="Layer_2-2" data-name="Layer 2"><path class="cls-1" d="M20.82,5.44a1,1,0,0,1-.49-.14,1.12,1.12,0,0,1-.26-.22,1.25,1.25,0,0,1-.38,0c-.48-.11-1-.46-1-.91a.08.08,0,0,1,.16,0c0,.35.44.66.87.76a1.19,1.19,0,0,0,.24,0,.52.52,0,0,1,.37-.77.34.34,0,0,1,.33.11c.06.07.1.21,0,.46a.62.62,0,0,1-.4.32.61.61,0,0,0,.16.12.62.62,0,0,0,.79,0c.19-.21.25-.42.16-.58a.19.19,0,0,0-.18-.11c-.06,0-.1.08-.11.19a.08.08,0,0,1-.16,0,.33.33,0,0,1,.24-.32.35.35,0,0,1,.35.19.64.64,0,0,1-.18.76A.68.68,0,0,1,20.82,5.44Zm-.41-1.13h-.05a.4.4,0,0,0-.3.24.43.43,0,0,0,.08.37.49.49,0,0,0,.37-.26.33.33,0,0,0,0-.3A.15.15,0,0,0,20.41,4.31Z"/><path class="cls-1" d="M6.57,1.69c-.26-.07-.4-.59-.26-1a.92.92,0,0,1,.61.86.18.18,0,0,1-.14.19A.51.51,0,0,1,6.57,1.69Z"/><path class="cls-1" d="M15.15,10.23s.42,1,1.33.89L16,12.39l.67.11.78-1.93S17,8.82,15.15,10.23Z"/><path class="cls-1" d="M7.73,10.55s-.76,2-.82,2.1.64.21.64.21.93-2.08,1-2.24S7.73,10.55,7.73,10.55Z"/><path class="cls-2" d="M1.63,6.51a1.88,1.88,0,0,1-.27-1c.1-.38-.65.61-.43,1.07S1.63,6.51,1.63,6.51Z"/><path class="cls-3" d="M.7,8.13s2.84,2.51,8.51,2.69l-.61,2,.61.23A13.2,13.2,0,0,0,10,10.87s4.16.39,6.58-.76a1.47,1.47,0,0,0,1.61.71l-.28,1.52.69,0a13,13,0,0,0,.38-2c-.11-.14-1.19,0-.54-1.56S20,5.2,17.94,2.63A5.93,5.93,0,0,0,14.54,1l.23-.52s-.71.21-.83.46a.62.62,0,0,1,.37-.46.84.84,0,0,0-.92.39L13.33.47l-.48.45A8.76,8.76,0,0,0,9.6,1L9.66.64a.79.79,0,0,0-.39.28s0-.37.11-.45A1.07,1.07,0,0,0,8.82.7.7.7,0,0,1,8.71.29S8.5.6,8.37.6,8.12.08,8.16,0s-.25.14-.34.41c0,0-.21-.24-.18-.33S7.43.4,7.48.58,7.25.52,7.21.46s0,.27,0,.27A3.81,3.81,0,0,0,6,2.75C5.83,3.94,3.93,5.34,3,5.81,2.42,6.06.7,6.57.7,6.57Z"/><path class="cls-4" d="M7.41,3.58a.2.2,0,1,0-.4,0,.2.2,0,0,0,.4,0Z"/><path class="cls-4" d="M6.43,3.29a.18.18,0,1,0-.18.2A.19.19,0,0,0,6.43,3.29Z"/><path class="cls-5" d="M.07,7c-.2.32,0,1.19,1,1.13s1.33-.47,1.33-1-.63-.65-1.17-.56S.4,6.49.07,7Z"/><path class="cls-6" d="M1.43,7.43c-.09-.08.16-.52.31-.35S1.51,7.52,1.43,7.43Z"/><path class="cls-6" d="M.83,7.49C.91,7.41.66,7,.5,7.14S.74,7.58.83,7.49Z"/><path class="cls-2" d="M3,6.5s-.91.92-.37,1.62a.66.66,0,0,0,.7.29c.19,0,.57-.21,0-.69C2.71,7.09,3.16,6.58,3,6.5Z"/><path class="cls-1" d="M9.89,2c-.05-.16.06-.79.95-.79,0,0-.09.25-.13.41a.86.86,0,0,1-.68.47A.26.26,0,0,1,9.89,2Z"/><polygon class="cls-6" points="15.97 12.39 15.71 13.06 16.18 12.82 16.33 13.19 16.64 12.49 15.97 12.39"/><polygon class="cls-6" points="17.87 12.34 17.75 13.05 18.16 12.79 18.39 13.13 18.56 12.36 17.87 12.34"/><polygon class="cls-6" points="6.91 12.65 6.59 13.33 7.07 13.15 7.24 13.55 7.55 12.86 6.91 12.65"/><polygon class="cls-6" points="8.6 12.82 8.34 13.51 8.78 13.34 8.95 13.73 9.21 13.05 8.6 12.82"/></g></g></svg>