<svg xmlns="http://www.w3.org/2000/svg" viewBox="0 0 14.86 18.42"><defs><style>.cls-1{fill:#ca793d;}.cls-2{fill:#eec280;}.cls-3{fill:#a45d28;}.cls-4{fill:#a8662b;}.cls-5{fill:#383534;}.cls-6{fill:#383635;}.cls-7{fill:#fdcd9a;}.cls-8{fill:#fbb03e;}.cls-9{fill:#e5bc85;}.cls-10{fill:#282525;}.cls-11{fill:#f7daaf;}.cls-12{fill:#1f1c1c;}.cls-13{fill:#f0f2f4;}</style></defs><g id="Layer_2" data-name="Layer 2"><g id="Layer_2-2" data-name="Layer 2"><path class="cls-1" d="M11,15.05a.46.46,0,0,1,0-.58.46.46,0,0,1,.46-.19A3.76,3.76,0,0,0,10.66,12l-.23-.25c-.1.09-.31.05-.42,0s-.11-.14,0-.35l0,0c-.8-.7-1.16-.51-1.81-1.15A7.3,7.3,0,0,1,6.46,7.53l-2.19.89s.11,2.15,0,3.68A15.22,15.22,0,0,1,4,13.86c-.08.41-.18.82-.29,1.2-.23.85-.5,1.52-.71,1.59a1,1,0,0,0-.74.64.59.59,0,0,0,0,.57.27.27,0,0,0,.08.1.5.5,0,0,0,.47.07s0,.09.23.1a.58.58,0,0,0,.35-.07s.05.13.43.13a.75.75,0,0,0,.75-.67c0-.36,0-.33,0-.65a7.1,7.1,0,0,1,.16-.71,24.87,24.87,0,0,1,1-3,.68.68,0,0,0,.48.22A2.88,2.88,0,0,0,6,15.62c.44,1,2.22,1.52,2.22,1.52A7.63,7.63,0,0,1,7,17a.65.65,0,0,0-.51-.12.33.33,0,0,0-.15,0c-.33.15-.71.64-.54,1,.08.2.27.28.35.22a.22.22,0,0,0,.18.08.7.7,0,0,0,.16,0s.09.21.67.14,1-.11,1.86-.16,1.48-.18,1.49-.64-.2-.43-.2-.43a3.24,3.24,0,0,0,.89-.89,3.71,3.71,0,0,0,.28-1.06A.55.55,0,0,1,11,15.05Z"/><path class="cls-2" d="M7,17a7.63,7.63,0,0,0,1.26.1S6.43,16.66,6,15.62a2.88,2.88,0,0,1,.19-2.23.68.68,0,0,1-.48-.22,24.87,24.87,0,0,0-1,3,1.35,1.35,0,0,0,.57.46.92.92,0,0,1,0-.26,5,5,0,0,0,1,.61.33.33,0,0,1,.15,0A.65.65,0,0,1,7,17Z"/><path class="cls-3" d="M10,11.43c-.11.21-.09.32,0,.35s.32.09.42,0q-.21-.22-.39-.39Z"/><path class="cls-3" d="M11.47,14.28a.46.46,0,0,0-.46.19.46.46,0,0,0,0,.58.55.55,0,0,0,.4.18A5.79,5.79,0,0,0,11.47,14.28Z"/><path class="cls-4" d="M2.26,17.29A1,1,0,0,1,3,16.65c.21-.07.48-.74.71-1.59a3,3,0,0,1-.63-.72A1,1,0,0,0,3,14.5c-.06-.11-.11-.22-.16-.32A10.86,10.86,0,0,1,2,16.45c-.24.18-.68.28-.71.83s.36.5.47.48.05.08.28.1a.71.71,0,0,0,.21,0A.59.59,0,0,1,2.26,17.29Z"/><path class="cls-2" d="M4.27,8.42A2.3,2.3,0,0,1,3,8a9.69,9.69,0,0,0-1.22,3,2.36,2.36,0,0,1,.68-.55s-.44.55-.2,2.64a1.39,1.39,0,0,1,.38-.48,2.23,2.23,0,0,0,.2,1.5c.05.1.1.21.16.32a1,1,0,0,1,.08-.16,3,3,0,0,0,.63.72c.11-.38.21-.79.29-1.2a15.22,15.22,0,0,0,.27-1.76C4.38,10.57,4.27,8.42,4.27,8.42Z"/><path class="cls-3" d="M4.75,9.14c.3-.1.31-.14.34.14s0,.41-.17.45-.29,0-.33-.22S4.61,9.19,4.75,9.14Z"/><path class="cls-3" d="M7.7,11.48c.11,0,.24,0,.24.1s0,.42-.1.43-.39.11-.39,0S7.28,11.48,7.7,11.48Z"/><path class="cls-3" d="M7.65,10.75c.12,0,.44-.19.44-.34s-.25-.48-.46-.38S7.55,10.77,7.65,10.75Z"/><path class="cls-3" d="M6.52,10.71c0,.08.12.4.21.36s.24-.14.23-.21,0-.41-.16-.45S6.5,10.61,6.52,10.71Z"/><path class="cls-3" d="M6.62,9.52s.24.07.28,0,.25-.19.25-.26,0-.33-.06-.36-.31-.12-.4-.06-.1.06-.12.12S6.54,9.49,6.62,9.52Z"/><path class="cls-3" d="M5.88,9c.07,0,.35-.24.34-.29s-.2-.24-.34-.22-.2.25-.18.36S5.83,9.06,5.88,9Z"/><path class="cls-3" d="M5.84,10.46s.23-.41.18-.47-.28-.12-.36-.05-.17.34-.06.44S5.77,10.5,5.84,10.46Z"/><path class="cls-3" d="M6.09,11.52a.64.64,0,0,0-.39.35c0,.18.13.18.2.26s.09.19.16.2a.67.67,0,0,0,.39-.22c0-.1.07-.46,0-.5A1.58,1.58,0,0,0,6.09,11.52Z"/><path class="cls-3" d="M7.12,13.57c.13,0,.58-.24.61-.3s-.06-.38-.16-.42a.75.75,0,0,0-.51,0c-.11.06-.21.11-.2.22S7,13.54,7.12,13.57Z"/><path class="cls-3" d="M6.5,14.46a.3.3,0,0,0,.2.31c.11,0,.45,0,.46-.11a.88.88,0,0,0-.37-.43A.28.28,0,0,0,6.5,14.46Z"/><path class="cls-3" d="M7.73,14.23c0-.24.34-.28.53-.29s.37.21.31.37-.09.49-.32.52S7.73,14.39,7.73,14.23Z"/><path class="cls-3" d="M8.48,15.67a.27.27,0,0,1,.36-.13c.1.06.23.31.1.38s-.29.19-.36.12A.41.41,0,0,1,8.48,15.67Z"/><path class="cls-3" d="M10.45,13.43c.11,0,.36-.12.4-.23s0-.59-.15-.61-.41,0-.48.09S10.35,13.44,10.45,13.43Z"/><path class="cls-3" d="M9.09,12.23c.13,0,.42-.09.44-.32s-.09-.55-.22-.57-.5.14-.51.3A1.16,1.16,0,0,0,9.09,12.23Z"/><path class="cls-3" d="M5,10.77c.06.06,0,.81-.11.81s-.08-.08-.21-.17-.15-.13-.13-.32a.39.39,0,0,1,.22-.32A.23.23,0,0,1,5,10.77Z"/><path class="cls-3" d="M8.8,13.06a.46.46,0,0,0,0,.33s.28.11.35,0a.39.39,0,0,0,.05-.37C9.18,13,8.85,13,8.8,13.06Z"/><path class="cls-3" d="M9.1,14.63c-.09,0-.13,0-.13.08A.77.77,0,0,0,9,15a.19.19,0,0,0,.27-.13C9.32,14.8,9.15,14.61,9.1,14.63Z"/><path class="cls-3" d="M9.83,14.61c.07.08.39,0,.4-.06S10.12,14,10,14,9.74,14.5,9.83,14.61Z"/><path class="cls-3" d="M8.93,16.76c0,.06,0,.26.24.27s.18-.06.21-.14.07-.16,0-.19S9,16.49,8.93,16.76Z"/><path class="cls-3" d="M9.61,15.69c0,.05,0,.18.18.31s.18.19.28.17.3-.26.27-.34-.08-.3-.24-.31A.7.7,0,0,0,9.61,15.69Z"/><path class="cls-3" d="M6.92,15.87c0,.24.12.19.33.23s.35-.35.34-.41a.32.32,0,0,0-.32-.24A.38.38,0,0,0,6.92,15.87Z"/><path class="cls-3" d="M4.39,15.45c.14.14.27,0,.34-.22s0-.23-.09-.27S4.14,15.19,4.39,15.45Z"/><path class="cls-3" d="M4.94,13c0,.08.12.32.21.33a.34.34,0,0,0,.27-.21.47.47,0,0,0,0-.37A.32.32,0,0,0,4.94,13Z"/><path class="cls-3" d="M4.24,13.7c.13.07.3-.17.34-.27a.76.76,0,0,0,0-.41.17.17,0,0,0-.23-.1c-.13,0-.17.29-.11.38S4,13.58,4.24,13.7Z"/><path class="cls-1" d="M13.93,17.51c0-.05-.19,0-.22,0s.21-.17.18-.25-.23,0-.27-.05.17-.19.13-.24-.31.08-.34,0,.15-.18.12-.24-.23,0-.35,0a1.87,1.87,0,0,1-.9.37c-.24,0-.66-.21-1.16-1l-.27.51s.18,1.13,1,1.37a2.57,2.57,0,0,0,1.93-.23C13.81,17.68,14,17.58,13.93,17.51Z"/><path class="cls-5" d="M14.4,17.32a2,2,0,0,0,.42-.21c0-.05-.21-.14-.21-.14s.31-.29.23-.32a1.26,1.26,0,0,0-.35,0s.27-.37.18-.35-.39.09-.39.09a1.55,1.55,0,0,0,0-.29c0-.09-.34.23-.43.25s0-.22-.07-.18-.33.35-.52.49l-.12.09c.12,0,.31-.1.35,0s-.16.18-.12.24.3-.08.34,0-.16.19-.13.24.24,0,.27.05-.21.18-.18.25.19,0,.22,0-.12.17-.15.25c.21-.08.45-.19.72-.31C14.53,17.43,14.4,17.32,14.4,17.32Z"/><path class="cls-3" d="M12.8,17.44a.29.29,0,0,0,.38,0c.17-.12.15-.25.12-.31s-.16-.13-.37,0S12.73,17.39,12.8,17.44Z"/><path class="cls-3" d="M11.33,17.1a.21.21,0,0,0,.31,0,.24.24,0,0,0,0-.34.21.21,0,0,0-.26,0A.36.36,0,0,0,11.33,17.1Z"/><path class="cls-3" d="M11.83,17.67c.08-.08.35,0,.41.15s0,.24-.11.23L11.85,18S11.72,17.78,11.83,17.67Z"/><path class="cls-6" d="M7.88,1.64s0,.05-.09,0S7.72.62,7.86.53s.06.43.08.52.17-.67.33-.64S8.2.86,8.17,1s.4-.52.52-.31-.57.61-.43.58.48-.32.5-.15S7.88,1.64,7.88,1.64Z"/><path class="cls-6" d="M1.65,1.26s0,.06.1,0,.19-1,.06-1.07-.11.42-.15.5S1.57,0,1.42,0s0,.45,0,.6S1.11,0,1,.22s.49.67.36.63S.89.48.84.64,1.65,1.26,1.65,1.26Z"/><path class="cls-1" d="M1.49,1C1.75.66,3.16,2.2,4,2.43L2.07,3.62s-.11-.37-.36-1A3.24,3.24,0,0,1,1.49,1Z"/><path class="cls-7" d="M1.72,1.43c.17-.16.88.79,1.64,1.23l-1.08.68A6.21,6.21,0,0,1,2,2.59,2.4,2.4,0,0,1,1.72,1.43Z"/><path class="cls-1" d="M8.08,1.36c-.23-.33-1.81,1-2.63,1.16L7.18,3.93s.15-.36.49-1A3.3,3.3,0,0,0,8.08,1.36Z"/><path class="cls-7" d="M7.79,1.79c-.14-.18-1,.68-1.77,1l1,.8a6.17,6.17,0,0,0,.42-.7A2.52,2.52,0,0,0,7.79,1.79Z"/><path class="cls-1" d="M0,6.08H0Z"/><path class="cls-1" d="M1.25,5.46c1.08-.07,2,.93,3.08,1S6.09,5.48,7,5.27a1.88,1.88,0,0,1,1.56.46A10.18,10.18,0,0,0,7.67,5a8.78,8.78,0,0,0-.8-1.51,2.7,2.7,0,0,0-2.2-1.1,3,3,0,0,0-2.34.85c-.62.61-.73,1.5-1.12,1.75C.14,5.64,0,6.09,0,6.09S.2,5.54,1.25,5.46Z"/><path class="cls-2" d="M8.49,6.53A1.77,1.77,0,0,0,7.81,6a.62.62,0,0,1,.71-.24A1.88,1.88,0,0,0,7,5.27c-.87.21-1.58,1.18-2.63,1.15s-2-1-3.08-1S0,6.09,0,6.09H0A3.28,3.28,0,0,1,1,6a1.11,1.11,0,0,0-.6.6,1.5,1.5,0,0,1,.94-.12s-.61.33-.66.72c0,0,.39-.19.63-.05,0,0-.5.41-.5.79a1.59,1.59,0,0,1,1.07-.28c.78.18,1.52.8,2.47.79A3.28,3.28,0,0,0,5.88,8a2.65,2.65,0,0,1,2.33-.26,1.79,1.79,0,0,0-.69-.59.86.86,0,0,1,.84,0,1.07,1.07,0,0,0-.52-.55A1.21,1.21,0,0,1,8.49,6.53Z"/><path class="cls-8" d="M2,4.75a1.42,1.42,0,0,1,1.11,0,1.58,1.58,0,0,1,.58,1,1.92,1.92,0,0,1-1.08-.22A2.08,2.08,0,0,1,2,4.75Z"/><path class="cls-8" d="M6.72,4.68a1.47,1.47,0,0,0-1.12,0,1.55,1.55,0,0,0-.56,1,1.92,1.92,0,0,0,1.07-.23A2.15,2.15,0,0,0,6.72,4.68Z"/><path class="cls-9" d="M3,7.77s.09.74,1.22.76S5.5,7.8,5.53,7.67a5,5,0,0,0-1.26-.53C4,7.15,3,7.59,3,7.77Z"/><path class="cls-10" d="M3,5.14a.2.2,0,1,0-.2.2A.2.2,0,0,0,3,5.14Z"/><path class="cls-10" d="M6,5.2A.21.21,0,0,0,5.86,5,.2.2,0,1,0,6,5.2Z"/><path class="cls-3" d="M3.06,3.71a.26.26,0,0,0,0,.35c0,.05.2.19.29.1a.39.39,0,0,0,0-.35S3.18,3.59,3.06,3.71Z"/><path class="cls-3" d="M5.48,3.85c.07.13.35.1.41,0s.16-.21.09-.29-.2-.12-.24-.09-.26.13-.29.22A.14.14,0,0,0,5.48,3.85Z"/><path class="cls-3" d="M4.78,3.11c0,.07.15.3.27.26a.64.64,0,0,0,.31-.26c0-.07-.05-.27-.17-.27S4.79,3,4.78,3.11Z"/><path class="cls-3" d="M3.49,3.22a.46.46,0,0,0,.36.11c.1,0,.06-.22,0-.3s-.06-.2-.19-.19S3.46,3.08,3.49,3.22Z"/><path class="cls-3" d="M4.45,3.76c.09,0,.2.09.11.31s-.16.17-.23.16-.1-.14-.07-.29S4.35,3.75,4.45,3.76Z"/><path class="cls-3" d="M4.71,4.91c.13.09.2,0,.24-.08s.18-.15.09-.28-.2,0-.26.08S4.6,4.83,4.71,4.91Z"/><path class="cls-3" d="M4,4.67S4,4.92,4,5s.1.13.19.11,0-.21,0-.24S4.12,4.62,4,4.67Z"/><path class="cls-11" d="M2.5,6a2,2,0,0,1,1.67.42.9.9,0,0,1,.13.71A.86.86,0,0,1,4,7.73a1.2,1.2,0,0,1-1.63-.46A1.08,1.08,0,0,1,2.5,6Z"/><path class="cls-11" d="M4.4,6.57a1.47,1.47,0,0,0-.07,1c.14.25.68.51,1.41.08a1.16,1.16,0,0,0,.63-1.29.71.71,0,0,0-.68-.47A2.06,2.06,0,0,0,4.4,6.57Z"/><path class="cls-12" d="M2.83,6.21a.05.05,0,0,0-.05,0,0,0,0,0,0,0,0,0,0,0,0,0,0,0S2.83,6.23,2.83,6.21Z"/><path class="cls-12" d="M3.14,6.47a0,0,0,0,0-.05,0,0,0,0,0,0,0,0,0,0,0,0,0,0,0A0,0,0,0,0,3.14,6.47Z"/><path class="cls-12" d="M3.45,6.75a0,0,0,0,0,0,0,0,0,0,0,0-.05,0,0,0,0,0,0,.05,0A0,0,0,0,0,3.45,6.75Z"/><path class="cls-12" d="M3.26,7a0,0,0,0,0,0,0,0,0,0,0,0-.05,0,0,0,0,0,0,.05,0A0,0,0,0,0,3.26,7Z"/><path class="cls-12" d="M3.5,7.23a0,0,0,0,0,0-.05,0,0,0,0,0,0,.05,0,0,0,0,0,0,0A0,0,0,0,0,3.5,7.23Z"/><path class="cls-12" d="M5.45,6.63a0,0,0,0,0,0,0,0,0,0,0,0,0,0,0,0,0,0,0,0,0A0,0,0,0,0,5.45,6.63Z"/><path class="cls-12" d="M5.8,6.37a0,0,0,0,0,0,0,0,0,0,0,0,0,0,0,0,0,0,0,0,0A0,0,0,0,0,5.8,6.37Z"/><path class="cls-12" d="M6.19,6.3a0,0,0,0,0-.05,0,0,0,0,0,0,0,0s0,0,0,0A.05.05,0,0,0,6.19,6.3Z"/><circle class="cls-12" cx="6.01" cy="6.57" r="0.05"/><path class="cls-12" d="M6.19,6.85a0,0,0,0,0-.05,0,0,0,0,0,0,0,0,0,0,0,0,0,0,0A0,0,0,0,0,6.19,6.85Z"/><path class="cls-12" d="M5.93,7.09a0,0,0,0,0,0,0,0,0,0,0,0,0,0,0,0,0,0,0,0,0A0,0,0,0,0,5.93,7.09Z"/><path class="cls-12" d="M5.71,6.89a0,0,0,0,0,0,0,0,0,0,0,0,0,0,0,0,0,0,0,0,.05A0,0,0,0,0,5.71,6.89Z"/><path class="cls-12" d="M5.36,7.09a0,0,0,0,0,0,0,0,0,0,0,0-.05,0,0,0,0,0,0,.05,0A0,0,0,0,0,5.36,7.09Z"/><path class="cls-12" d="M5.62,7.32a0,0,0,0,0,0-.05,0,0,0,0,0,0,.05,0,0,0,0,0,0,0A0,0,0,0,0,5.62,7.32Z"/><path class="cls-12" d="M3.17,7.42a0,0,0,0,0,0,0,0,0,0,0,0,0,0,0,0,0,0,0,0,0A0,0,0,0,0,3.17,7.42Z"/><path class="cls-12" d="M2.9,7.23a0,0,0,0,0,0-.05,0,0,0,0,0,0,.05,0,0,0,0,0,0,0A0,0,0,0,0,2.9,7.23Z"/><path class="cls-12" d="M2.63,7a0,0,0,0,0,0,0,0,0,0,0,0,0,0,0,0,0,0,0,0,0A0,0,0,0,0,2.63,7Z"/><path class="cls-12" d="M2.94,6.75a0,0,0,0,0,0,0,0,0,0,0,0,0,0,0,0,0,0,0,0,0A0,0,0,0,0,2.94,6.75Z"/><path class="cls-12" d="M2.59,6.58a.05.05,0,0,0,0,0,0,0,0,0,0,0,.1A.05.05,0,0,0,2.59,6.58Z"/><path class="cls-10" d="M4.38,6.34c.17,0,.2-.14.42-.11s.15.4.1.48-.31.18-.33.1.06-.19,0-.19,0,.36-.21.33.06-.36-.14-.34,0,.2-.12.22a.28.28,0,0,1-.29-.12c-.1-.17,0-.54.15-.51S4.17,6.33,4.38,6.34Z"/><path class="cls-13" d="M2.92,5.08A.06.06,0,0,0,2.86,5a.06.06,0,0,0-.06.06.06.06,0,0,0,.06.06A.05.05,0,0,0,2.92,5.08Z"/><path class="cls-13" d="M6,5.11a.07.07,0,0,0-.07-.06.06.06,0,0,0,0,.12A.07.07,0,0,0,6,5.11Z"/></g></g></svg>