<svg xmlns="http://www.w3.org/2000/svg" xmlns:xlink="http://www.w3.org/1999/xlink" viewBox="0 0 10.84 14.66"><defs><style>.cls-1{fill:#a1a19f;}.cls-2{fill:#232321;}.cls-3{fill:url(#radial-gradient);}.cls-4{fill:#f0f2f4;}</style><radialGradient id="radial-gradient" cx="3.99" cy="-5.14" r="0.76" gradientTransform="translate(2.17 11.06) scale(1.13 1.18)" gradientUnits="userSpaceOnUse"><stop offset="0" stop-color="#fdd9c5"/><stop offset="1" stop-color="#a1a19f"/></radialGradient></defs><g id="Layer_2" data-name="Layer 2"><g id="Layer_2-2" data-name="Layer 2"><path class="cls-1" d="M10.72,5.12a1.72,1.72,0,0,0-.28-1.7c-.33-.53-.28-1.23-.83-2.37s-2.46-1.14-3-1S4.73.55,3.63,2.92,3.1,3.71,2.26,5.2C1.07,7.32-.43,12.05.12,14.66c0,0,1.56-.53,2.51-4.71.83-3.69.76-4.71.73-4.89a3.33,3.33,0,0,0,2.3,2.62,8,8,0,0,0-1.53,4.79s-1.5-.35-1.35,1,2,.3,2,.3.28.69,2.28.64,2.68-1,1.87-1.26a2,2,0,0,0-.77,0A1.17,1.17,0,0,0,9,11.37s.56.78,1.07.55.13-1-.73-1.78-.38.18-.92-1.14a6.37,6.37,0,0,0-.66-1.27A3.51,3.51,0,0,0,10.72,5.12Z"/><path class="cls-2" d="M7.61,3.15a.3.3,0,0,0-.28-.32.3.3,0,0,0-.27.32.3.3,0,0,0,.27.32A.3.3,0,0,0,7.61,3.15Z"/><path class="cls-2" d="M10.14,2.87a.24.24,0,1,0-.48,0,.24.24,0,1,0,.48,0Z"/><path class="cls-2" d="M9.94,5.2a.09.09,0,0,0-.12,0c-.11.26-.23.4-.33.4h0c-.13,0-.27-.22-.32-.32V4.69a.09.09,0,0,0,0-.07c.14-.16.5-.58.43-.65-.32-.31-1.19,0-1.19.09s.46.45.63.58l0,0v.64c-.15.31-.34.45-.57.41a.49.49,0,0,1-.35-.32.09.09,0,0,0-.18,0,.61.61,0,0,0,.49.49l.12,0a.67.67,0,0,0,.58-.39.58.58,0,0,0,.42.29c.19,0,.35-.17.49-.5A.09.09,0,0,0,9.94,5.2Z"/><path class="cls-3" d="M7.61,5a.88.88,0,0,0-.94-.8.88.88,0,0,0-.94.8.88.88,0,0,0,.94.81A.88.88,0,0,0,7.61,5Z"/><path class="cls-4" d="M7.49,3.07A.07.07,0,0,0,7.41,3a.08.08,0,0,0-.08.08.09.09,0,0,0,.08.08A.08.08,0,0,0,7.49,3.07Z"/><path class="cls-4" d="M10,2.79a.07.07,0,0,0-.14,0,.07.07,0,1,0,.14,0Z"/></g></g></svg>