<svg xmlns="http://www.w3.org/2000/svg" xmlns:xlink="http://www.w3.org/1999/xlink" viewBox="0 0 26.72 21.53"><defs><style>.cls-1{fill:#c9792f;}.cls-2{fill:#111;}.cls-3{fill:#d3822e;}.cls-4{fill:#9b5726;}.cls-5{fill:#010101;}.cls-6{fill:#cd7c31;}.cls-7{opacity:0.7;fill:url(#radial-gradient);}.cls-8{fill:#f8f7f2;}</style><radialGradient id="radial-gradient" cx="4.14" cy="5.45" r="0.87" gradientUnits="userSpaceOnUse"><stop offset="0" stop-color="#f15844"/><stop offset="1" stop-color="#d3822e"/></radialGradient></defs><g id="Layer_2" data-name="Layer 2"><g id="Layer_2-2" data-name="Layer 2"><path class="cls-1" d="M5.84,1.53C5.13,1.46,4.28.16,4.28.16,6.06-.47,6.55.94,6.22,1.41A.54.54,0,0,1,5.84,1.53Z"/><path class="cls-2" d="M9.09,20.13a1.23,1.23,0,0,1-.36-.23,1.17,1.17,0,0,1-.38.39.79.79,0,0,0,1,.61c.08-.23.07-.42.14-.63A2.35,2.35,0,0,1,9.09,20.13Z"/><path class="cls-2" d="M21.17,20.52a1.07,1.07,0,0,1-.41.21l-.35.07v0c.06.22,0,.42.08.68A.82.82,0,0,0,21.55,21,1.35,1.35,0,0,1,21.17,20.52Z"/><path class="cls-3" d="M23.8,13.31,24,13a10.79,10.79,0,0,1-2.34-2.22,26.09,26.09,0,0,0-.28-3.71c-1.06-7.93-3-.71-3-.71s-1.46,5.84-2.88.12S12.38,3.57,12,8.18,9.61,7.67,8.43,3.57,4.87,1.63,3.73,2.11C.8,3.34-.9,5.34.5,6.84,3.4,10,5.68,5.44,5.82,5.26S6.89,4.08,6.89,4.08s.59,5.72,2.33,9.16a5.58,5.58,0,0,0,.43.71c-.18.67-1.1,3.89-2.23,5.16a5.94,5.94,0,0,0,.52.49c.88-1,2-4.31,2.24-5a5,5,0,0,0,.53.49,27.78,27.78,0,0,1-2,4.81v0l.1.08a1.35,1.35,0,0,0,.26.15,2.24,2.24,0,0,0,.36.14v0c1.34-3.57,1.47-4,1.82-4.77a8.48,8.48,0,0,0,6.58.82c.43-.13.84-.25,1.23-.41.28.86.36,1.24,1.33,4.91l.32-.07a1.17,1.17,0,0,0,.43-.22,27.61,27.61,0,0,1-1.45-4.92,3.78,3.78,0,0,0,.56-.4c.2,1.1.77,4,1.43,5a1.89,1.89,0,0,0,.28-.17,1.87,1.87,0,0,0,.3-.26c-.87-1.33-1.31-4.35-1.43-5.28a6.24,6.24,0,0,0,.78-3.15A10.55,10.55,0,0,0,23.8,13.31Z"/><path class="cls-2" d="M22,20a1.48,1.48,0,0,1-.27.16l0,0a6.93,6.93,0,0,1,.34.68,1.19,1.19,0,0,0,.78-.78,2.92,2.92,0,0,1-.57-.35A2.55,2.55,0,0,1,22,20Z"/><path class="cls-2" d="M7.43,19.1a2.82,2.82,0,0,1-.62.27,1.25,1.25,0,0,0,.67.89,6.59,6.59,0,0,1,.43-.63.08.08,0,0,0,0,0A5.94,5.94,0,0,1,7.43,19.1Z"/><path class="cls-4" d="M26.72,14.72a2.42,2.42,0,0,1-2.49-.51c-.95-.79-.15-1.55.43-1.35s.88.83,1.27,1.33.79.53.79.53Z"/><path class="cls-5" d="M5,2a.2.2,0,1,0-.2.19A.2.2,0,0,0,5,2Z"/><circle class="cls-5" cx="5.73" cy="2.36" r="0.2"/><path class="cls-2" d="M1.83,6.46a.15.15,0,0,1,0-.3.15.15,0,0,1,0,.3Zm0-.27c-.05,0-.09,0-.09.12s0,.12.09.12.09-.06.09-.12S1.88,6.19,1.83,6.19Z"/><path class="cls-2" d="M.74,5.73a.15.15,0,0,1,0-.3.15.15,0,0,1,0,.3Zm0-.27c-.05,0-.09.06-.09.12s0,.12.09.12.09,0,.09-.12S.79,5.46.74,5.46Z"/><path class="cls-6" d="M7.13,2.1c.64.56,2.43.24,2.43.24C8.68.32,7.07,1,6.94,1.68A.59.59,0,0,0,7.13,2.1Z"/><path class="cls-4" d="M14.56,4.36,15,5.57a2.21,2.21,0,0,1-.86-1,7.71,7.71,0,0,0-.24,1.18,1.87,1.87,0,0,1-.38-1.29l-.95,1.36c-.45-1,0-1.56,0-1.43a8.59,8.59,0,0,1-1.3.84A2,2,0,0,1,13,3.44a2.34,2.34,0,0,0-.87-.28,1.15,1.15,0,0,1,1.52,0,1.28,1.28,0,0,1,1.36,0l-.57.4A1.16,1.16,0,0,1,15.8,4.75Z"/><path class="cls-4" d="M20.11,3.26a1.19,1.19,0,0,1,1.14.28,1.05,1.05,0,0,1-.46.31c.76-.09,1,1.21,1,1.21-.34.23-1.11-.62-1.11-.62a2.64,2.64,0,0,1,0,1.29c-.48-.07-.61-1.22-.61-1.22.12.4-.46,1.32-.46,1.32a1.4,1.4,0,0,1-.28-1.28l-1.4.59a1.71,1.71,0,0,1,1.61-1.49l-.68-.23s.76-.52,1.24-.16Z"/><ellipse class="cls-7" cx="4.14" cy="5.45" rx="0.9" ry="0.85"/><path class="cls-4" d="M6.18,1.27A1,1,0,0,0,6,1.73c0,.33.13.34.13.34.24-.11.5-.69.5-.69a2,2,0,0,0,.14.47A1.66,1.66,0,0,0,7,2.17c.23-.22.06-.79.06-.79a2.13,2.13,0,0,0,.45,0,1.59,1.59,0,0,0,.33-.07C7.74,1.09,7.16,1,7.16,1A3.2,3.2,0,0,0,8,.7C7.42.2,6.75.75,6.75.75s-.45-.7-1-.52A2.33,2.33,0,0,0,6.22.8a.84.84,0,0,0-.92.5l.46.05A1.89,1.89,0,0,0,6.18,1.27Z"/><path class="cls-8" d="M5,2a.08.08,0,0,0-.07-.07A.07.07,0,0,0,4.82,2,.07.07,0,0,0,4.89,2S5,2,5,2Z"/><path class="cls-8" d="M5.89,2.39a.07.07,0,1,0-.07.07A.07.07,0,0,0,5.89,2.39Z"/></g></g></svg>