<svg xmlns="http://www.w3.org/2000/svg" viewBox="0 0 26.93 10.42"><defs><style>.cls-1{fill:#79bb4f;}.cls-2{fill:#66a84c;}.cls-3{fill:#23351c;}.cls-4{fill:#619b49;}.cls-5{fill:#e5eba5;}.cls-6{fill:#cfdd40;}.cls-7{fill:#1f211f;}.cls-8{fill:#adcc4c;}.cls-9{fill:#0d713b;}.cls-10{fill:#70bf44;}.cls-11{fill:#34b44a;}.cls-12{fill:#46765d;}.cls-13{fill:#79c261;}.cls-14{fill:#2bb069;}.cls-15{fill:#6bbe45;}.cls-16{fill:#0da365;}.cls-17{fill:#0d784d;}.cls-18{fill:#3e4e24;}.cls-19{fill:#3a7a58;}.cls-20{fill:#c6db5f;}.cls-21{fill:#0b754b;}.cls-22{fill:#41b878;}.cls-23{fill:#238756;}.cls-24{fill:#90bd63;}.cls-25{fill:#63b678;}.cls-26{fill:#7eab40;}.cls-27{fill:#5d7e38;}.cls-28{fill:#0d7740;}.cls-29{fill:#81a147;}.cls-30{fill:#f0f2f4;}</style></defs><g id="Layer_2" data-name="Layer 2"><g id="Layer_2-2" data-name="Layer 2"><path class="cls-1" d="M16.54,6.57s.47,1,.48,1.18S17,9,17,9s-.31,0-.39.23.15.54.64.52.55-.15.56-.35-.15-.32-.15-.38a13.59,13.59,0,0,0,.11-1.37,9.57,9.57,0,0,1-.26-1.89Z"/><path class="cls-1" d="M10.43,7.63a3,3,0,0,1,.11.5c0,.12-.24,1.24-.24,1.24s-.31,0-.42.18,0,.54.47.59S11,10,11,9.89s0-.24,0-.39.33-1.18.32-1.34a1.61,1.61,0,0,1,.06-.56Z"/><path class="cls-2" d="M25.85,1.89A2.22,2.22,0,0,0,23.32,2a2.31,2.31,0,0,0-.88,2.19,1.55,1.55,0,0,0,1,1.13,1.58,1.58,0,0,0,1.48-.18,1.15,1.15,0,0,0,.37-1.48.9.9,0,0,0-1.06-.52.91.91,0,0,0-.63,1.16.23.23,0,0,0,.29.15A.24.24,0,0,0,24,4.12a.46.46,0,0,1,.34-.59c.21-.07.41.1.51.29a.69.69,0,0,1-.22.91,1.16,1.16,0,0,1-1.06.13,1.14,1.14,0,0,1-.71-.81,1.88,1.88,0,0,1,.72-1.73,1.78,1.78,0,0,1,2,0,1.66,1.66,0,0,1,.74,1.79,2.22,2.22,0,0,1-1.72,2.1c-.38.07-1.6.27-3.92-1.48,0,0-1.43-1.17-1.94-1.65a12.19,12.19,0,0,0-6-2C8.54.58,6.54,2.44,6.54,2.44a.52.52,0,0,1-.3.17c-.22,0-.17-.12-.39-.33S5.44,2,5.33,1.77a.68.68,0,0,1,0-.59c0-.2-.41.07-.78.39-.14.13,0,0-1.63.3A4,4,0,0,0,0,4.38a1.37,1.37,0,0,0,.17.76l.05,0a5.07,5.07,0,0,0,2.5.44,2.58,2.58,0,0,0,2-1.19,0,0,0,0,1,.06,0,0,0,0,0,1,0,0A2.68,2.68,0,0,1,2.73,5.69H2.34a5.05,5.05,0,0,1-2.1-.44A2.35,2.35,0,0,0,.85,6C1,6,1,5.79,1,5.79a2.34,2.34,0,0,0,.41.59c.19.11.13-.45.23-.31s.42.65.52.51.1-.48.19-.34S3,7.1,3,6.8s0-.44.15-.27.66.75.66.51,0-.52.15-.36.48.53.57.47,0-.46.16-.3.53.53.57.41,0-.43.1-.33.36.47.45.36-.05-.35.08-.24a2.35,2.35,0,0,0,1.4.21,8.24,8.24,0,0,0,4.38.86c6-.43,6.69-3.63,6.69-3.63l1.53,1.2a6,6,0,0,0,4,1.38,4.72,4.72,0,0,0,1-.15,3.22,3.22,0,0,0,2.1-2.87A2.08,2.08,0,0,0,25.85,1.89Z"/><path class="cls-3" d="M2.73,5.69A2.68,2.68,0,0,0,4.84,4.45a0,0,0,0,0,0,0,0,0,0,0,0-.06,0,2.58,2.58,0,0,1-2,1.19,5.07,5.07,0,0,1-2.5-.44l-.05,0,.06.12a5.05,5.05,0,0,0,2.1.44Z"/><path class="cls-4" d="M12.81,1a12.19,12.19,0,0,1,6,2.05,1.4,1.4,0,0,1-.18-.18c-.1-.19,0-.22-.1-.29s-.27,0-.39-.07S18,2.16,18,2.08s-.39.08-.54,0-.07-.35-.16-.44-.37.15-.51.08,0-.35-.14-.42-.43.16-.54.1S16,1,15.81.89s-.39.21-.49.19S15.18.64,15.05.6s-.41.3-.54.27-.18-.46-.29-.48-.38.33-.49.31S13.54.2,13.4.17s-.4.45-.54.42-.26-.52-.4-.53-.41.47-.5.47S11.65,0,11.53,0s-.32.5-.5.52S10.66,0,10.53,0s-.27.56-.43.59S9.65.08,9.55.1,9.3.7,9.13.72,8.61.28,8.48.31,8.27,1,8.13,1,7.72.76,7.62.8,7,2,6.54,2.44h0S8.54.58,12.81,1Z"/><circle class="cls-5" cx="2.55" cy="2.95" r="1.02"/><circle class="cls-6" cx="2.5" cy="2.89" r="0.76"/><path class="cls-3" d="M5,4.52l-.15,0a.52.52,0,0,1-.22-.35s0,0,0,0,0,0,0,0a.4.4,0,0,0,.18.28.4.4,0,0,0,.37,0,0,0,0,0,1,.06,0,0,0,0,0,1,0,0A.64.64,0,0,1,5,4.52Z"/><path class="cls-7" d="M2.55,2.77a.18.18,0,1,0-.36,0,.18.18,0,1,0,.36,0Z"/><path class="cls-1" d="M7.73,4.07c.55-.38,1.52.44,2.27,1.59a3,3,0,0,1,.68,1.85A4.47,4.47,0,0,1,8.22,9.59s-.8,1.07-1.38.79c-.11-.06,0-.37.63-.82,0,0-.72.39-1.06.22-.18-.09,0-.65,1.25-.7a11.32,11.32,0,0,1,1.8-1.51S6.48,4.93,7.73,4.07Z"/><path class="cls-1" d="M17.1,4.21c.32.38-.92,2.09-3,2.68a2.93,2.93,0,0,0,.54,1.74.25.25,0,0,1,.23.24,2,2,0,0,1-1.57,1.44c-.18,0-.08-.39.45-.82,0,0-.84.54-.93.35s.27-.72,1.09-.95c0,0-1.27-1.46-1.09-2.07a5.93,5.93,0,0,1,1.85-2C15.18,4.35,16.52,3.52,17.1,4.21Z"/><path class="cls-8" d="M12.39,4a.4.4,0,0,0-.79,0,.4.4,0,1,0,.79,0Z"/><path class="cls-9" d="M13.33,3.88A.33.33,0,0,0,13,3.55a.33.33,0,0,0,0,.66A.33.33,0,0,0,13.33,3.88Z"/><path class="cls-10" d="M15.18,1.82a.33.33,0,1,0-.33.33A.33.33,0,0,0,15.18,1.82Z"/><path class="cls-8" d="M16.56,2.4a.33.33,0,0,0-.33-.33.33.33,0,0,0,0,.66A.33.33,0,0,0,16.56,2.4Z"/><path class="cls-11" d="M15.93,3a.26.26,0,0,0-.26-.26.26.26,0,0,0-.26.26.26.26,0,0,0,.26.26A.25.25,0,0,0,15.93,3Z"/><path class="cls-9" d="M14.47,2.46a.33.33,0,1,0-.32.32A.32.32,0,0,0,14.47,2.46Z"/><path class="cls-11" d="M13.86,3a.32.32,0,1,0-.32.32A.32.32,0,0,0,13.86,3Z"/><circle class="cls-12" cx="14.31" cy="3.05" r="0.17"/><path class="cls-13" d="M15,2.75a.15.15,0,0,0-.15-.15.14.14,0,0,0-.15.15.15.15,0,0,0,.15.15A.15.15,0,0,0,15,2.75Z"/><path class="cls-14" d="M17.06,2.41a.15.15,0,0,0-.15-.15.15.15,0,1,0,0,.3A.15.15,0,0,0,17.06,2.41Z"/><path class="cls-15" d="M18,3.11a.19.19,0,0,0-.18-.19.2.2,0,0,0-.19.19.19.19,0,0,0,.19.18A.18.18,0,0,0,18,3.11Z"/><circle class="cls-16" cx="17.93" cy="3.8" r="0.11"/><path class="cls-17" d="M17.33,3.11a.25.25,0,1,0-.25.25A.25.25,0,0,0,17.33,3.11Z"/><path class="cls-11" d="M17.6,2.7a.09.09,0,0,0-.1-.1.1.1,0,0,0-.1.1.11.11,0,0,0,.1.1A.1.1,0,0,0,17.6,2.7Z"/><path class="cls-18" d="M13,2.7a.23.23,0,1,0-.22.22A.22.22,0,0,0,13,2.7Z"/><circle class="cls-19" cx="12.19" cy="3.04" r="0.18"/><path class="cls-11" d="M9.85,2a.19.19,0,1,0-.38,0,.19.19,0,0,0,.38,0Z"/><path class="cls-20" d="M10.8,1.85a.32.32,0,1,0-.32.33A.32.32,0,0,0,10.8,1.85Z"/><circle class="cls-14" cx="11.23" cy="1.76" r="0.13"/><path class="cls-21" d="M10.08,1.36A.12.12,0,0,0,10,1.24a.12.12,0,0,0-.12.12.12.12,0,0,0,.12.13A.13.13,0,0,0,10.08,1.36Z"/><path class="cls-19" d="M9.18,1.46a.1.1,0,1,0-.2,0,.1.1,0,0,0,.2,0Z"/><path class="cls-15" d="M13.43,1.27a.09.09,0,0,0-.1-.09.09.09,0,0,0-.09.09.09.09,0,0,0,.09.1A.09.09,0,0,0,13.43,1.27Z"/><path class="cls-12" d="M16,1.86a.09.09,0,0,0-.1-.09.09.09,0,0,0-.09.09.09.09,0,0,0,.09.1A.09.09,0,0,0,16,1.86Z"/><path class="cls-12" d="M11.67,3.42a.09.09,0,0,0-.1-.1.1.1,0,0,0-.1.1.1.1,0,0,0,.1.09A.09.09,0,0,0,11.67,3.42Z"/><path class="cls-17" d="M11.8,1.27a.16.16,0,0,0-.16-.15.15.15,0,0,0-.15.15.16.16,0,0,0,.15.16A.16.16,0,0,0,11.8,1.27Z"/><path class="cls-22" d="M10.9,4a.24.24,0,0,0,.23.42A.24.24,0,1,0,10.9,4Z"/><path class="cls-20" d="M10.22,3.76A.18.18,0,0,0,10,3.57a.18.18,0,0,0-.19.19.18.18,0,0,0,.19.18A.18.18,0,0,0,10.22,3.76Z"/><path class="cls-23" d="M15.14,3.36a.19.19,0,1,0-.18.19A.19.19,0,0,0,15.14,3.36Z"/><path class="cls-24" d="M15.56,2.28a.09.09,0,0,0-.09-.1.09.09,0,0,0-.1.1.09.09,0,0,0,.1.09A.09.09,0,0,0,15.56,2.28Z"/><path class="cls-10" d="M16.71,3.36a.19.19,0,1,0-.19.19A.19.19,0,0,0,16.71,3.36Z"/><path class="cls-20" d="M18.88,3.44a.22.22,0,0,0-.22-.22.23.23,0,1,0,.22.22Z"/><path class="cls-18" d="M20.49,4.65a.22.22,0,0,0-.22-.22.22.22,0,0,0,0,.44A.22.22,0,0,0,20.49,4.65Z"/><path class="cls-9" d="M21.26,5.35a.22.22,0,0,0-.44,0,.22.22,0,1,0,.44,0Z"/><path class="cls-9" d="M21.46,6.34a.13.13,0,0,0-.18,0,.14.14,0,0,0,0,.18.13.13,0,1,0,.14-.22Z"/><path class="cls-9" d="M23.62,5a.13.13,0,1,0,0,.18A.13.13,0,0,0,23.62,5Z"/><path class="cls-8" d="M23.29,6.45a.13.13,0,1,0-.13.13A.13.13,0,0,0,23.29,6.45Z"/><path class="cls-11" d="M25.32,6.45a.13.13,0,1,0-.13.13A.13.13,0,0,0,25.32,6.45Z"/><path class="cls-18" d="M26.53,5.2a.13.13,0,1,0-.13.13A.13.13,0,0,0,26.53,5.2Z"/><path class="cls-18" d="M24.14,3.44a.13.13,0,0,0-.26,0,.13.13,0,0,0,.26,0Z"/><path class="cls-18" d="M23.09,4.72A.12.12,0,0,0,23,4.59a.13.13,0,0,0,0,.26A.12.12,0,0,0,23.09,4.72Z"/><path class="cls-13" d="M25.32,1.82a.13.13,0,1,0-.13.13A.13.13,0,0,0,25.32,1.82Z"/><path class="cls-25" d="M22.9,3.29a.13.13,0,1,0-.13.13A.13.13,0,0,0,22.9,3.29Z"/><path class="cls-8" d="M24.8,5.07a.13.13,0,1,0-.13.13A.13.13,0,0,0,24.8,5.07Z"/><circle class="cls-10" cx="25.33" cy="4.16" r="0.08"/><path class="cls-20" d="M24.58,3.22a.08.08,0,0,0-.16,0,.08.08,0,1,0,.16,0Z"/><path class="cls-9" d="M25.88,2A.08.08,0,0,0,25.8,2a.07.07,0,0,0-.08.08.08.08,0,0,0,.08.08A.09.09,0,0,0,25.88,2Z"/><path class="cls-8" d="M23.52,2a.08.08,0,0,0-.08-.08.08.08,0,0,0,0,.16A.08.08,0,0,0,23.52,2Z"/><path class="cls-18" d="M26.61,3.84a.07.07,0,0,0-.08-.08.08.08,0,0,0-.08.08.09.09,0,0,0,.08.08A.08.08,0,0,0,26.61,3.84Z"/><circle class="cls-9" cx="25.94" cy="5.96" r="0.08"/><path class="cls-13" d="M24.18,6.87a.08.08,0,0,0-.08-.08.09.09,0,0,0-.08.08A.08.08,0,0,0,24.1,7,.07.07,0,0,0,24.18,6.87Z"/><path class="cls-20" d="M19,4.65a.08.08,0,0,0-.16,0,.08.08,0,0,0,.16,0Z"/><circle class="cls-19" cx="22.01" cy="6.66" r="0.08"/><path class="cls-1" d="M13.09,2.11a.08.08,0,0,0-.16,0,.08.08,0,0,0,.16,0Z"/><path class="cls-10" d="M25.57,2.07A.08.08,0,0,0,25.49,2a.09.09,0,0,0-.08.08.08.08,0,0,0,.08.08A.07.07,0,0,0,25.57,2.07Z"/><path class="cls-13" d="M22.6,3.65a.09.09,0,0,0-.08-.08.08.08,0,0,0-.08.08.08.08,0,0,0,.08.09A.09.09,0,0,0,22.6,3.65Z"/><circle class="cls-8" cx="26.61" cy="2.92" r="0.08"/><path class="cls-13" d="M22.73,6.44a.22.22,0,1,0-.44,0,.22.22,0,1,0,.44,0Z"/><path class="cls-10" d="M25.72,6.17A.16.16,0,0,0,25.56,6a.15.15,0,1,0,0,.3A.16.16,0,0,0,25.72,6.17Z"/><path class="cls-23" d="M26.9,3.44a.15.15,0,0,0-.3,0,.15.15,0,1,0,.3,0Z"/><path class="cls-17" d="M24,4a.15.15,0,0,0-.16-.15A.15.15,0,0,0,23.7,4a.15.15,0,0,0,.15.15A.16.16,0,0,0,24,4Z"/><path class="cls-18" d="M25.19,4.53A.15.15,0,0,0,25,4.38a.16.16,0,0,0-.16.15.15.15,0,0,0,.16.15A.15.15,0,0,0,25.19,4.53Z"/><path class="cls-9" d="M23.25,2.59a.15.15,0,0,0-.16-.15.15.15,0,0,0-.15.15.15.15,0,0,0,.15.15A.16.16,0,0,0,23.25,2.59Z"/><path class="cls-25" d="M23.85,6.44a.15.15,0,0,0-.15-.16.16.16,0,0,0-.15.16.15.15,0,0,0,.15.15A.15.15,0,0,0,23.85,6.44Z"/><path class="cls-17" d="M23.6,6.87a.16.16,0,0,0-.16-.15.15.15,0,1,0,0,.3A.16.16,0,0,0,23.6,6.87Z"/><path class="cls-10" d="M22.08,5.88a.16.16,0,0,0-.15-.16.15.15,0,0,0-.15.16.15.15,0,0,0,.15.15A.15.15,0,0,0,22.08,5.88Z"/><path class="cls-8" d="M20.2,5.35a.15.15,0,0,0-.15-.15.16.16,0,0,0-.16.15.16.16,0,0,0,.16.16A.16.16,0,0,0,20.2,5.35Z"/><path class="cls-13" d="M19.61,4.72a.16.16,0,0,0-.16-.15.15.15,0,0,0-.15.15.15.15,0,0,0,.15.15A.15.15,0,0,0,19.61,4.72Z"/><circle class="cls-25" cx="18.81" cy="3.99" r="0.15"/><circle class="cls-26" cx="19.42" cy="3.99" r="0.27"/><path class="cls-11" d="M21.09,5.88a.23.23,0,1,0-.45,0,.22.22,0,0,0,.22.22A.22.22,0,0,0,21.09,5.88Z"/><path class="cls-27" d="M24.72,6.58a.22.22,0,1,0-.22.22A.22.22,0,0,0,24.72,6.58Z"/><path class="cls-11" d="M24.35,5.1a.17.17,0,0,0-.17-.18A.18.18,0,0,0,24,5.1a.18.18,0,0,0,.17.17A.17.17,0,0,0,24.35,5.1Z"/><path class="cls-11" d="M25.19,3.69A.18.18,0,0,0,25,3.51a.18.18,0,0,0-.17.18.18.18,0,0,0,.17.17A.18.18,0,0,0,25.19,3.69Z"/><path class="cls-15" d="M24.45,1.82a.18.18,0,0,0-.17-.18.18.18,0,0,0-.18.18.18.18,0,0,0,.18.17A.18.18,0,0,0,24.45,1.82Z"/><path class="cls-13" d="M26.75,4.36a.18.18,0,0,0-.17-.18.18.18,0,0,0-.18.18.18.18,0,0,0,.18.17A.18.18,0,0,0,26.75,4.36Z"/><path class="cls-11" d="M26.45,2.59a.18.18,0,0,0-.17-.18.18.18,0,0,0-.18.18.18.18,0,0,0,.18.17A.18.18,0,0,0,26.45,2.59Z"/><path class="cls-8" d="M26.2,5.51A.17.17,0,0,0,26,5.33a.18.18,0,0,0-.17.18.18.18,0,0,0,.17.17A.17.17,0,0,0,26.2,5.51Z"/><circle class="cls-10" cx="22.64" cy="4.13" r="0.17"/><path class="cls-15" d="M11,3.48a.25.25,0,1,0-.24.24A.24.24,0,0,0,11,3.48Z"/><path class="cls-11" d="M11.59,2.73a.24.24,0,1,0-.24.24A.24.24,0,0,0,11.59,2.73Z"/><path class="cls-20" d="M14,1.77a.24.24,0,0,0-.24-.24.24.24,0,0,0-.24.24.24.24,0,0,0,.24.25A.25.25,0,0,0,14,1.77Z"/><path class="cls-24" d="M7.69,2.65a.24.24,0,0,0-.24-.24.25.25,0,0,0,0,.49A.24.24,0,0,0,7.69,2.65Z"/><path class="cls-15" d="M8.31,2a.2.2,0,0,0-.2-.2.2.2,0,0,0,0,.4A.2.2,0,0,0,8.31,2Z"/><path class="cls-23" d="M10.62,2.7a.4.4,0,0,0-.79,0,.4.4,0,1,0,.79,0Z"/><path class="cls-28" d="M9.5,3.05a.39.39,0,0,0-.39-.4.4.4,0,0,0-.4.4.39.39,0,0,0,.4.39A.38.38,0,0,0,9.5,3.05Z"/><path class="cls-29" d="M12.36,2.26a.39.39,0,0,0-.39-.4.4.4,0,0,0-.4.4.39.39,0,0,0,.4.39A.38.38,0,0,0,12.36,2.26Z"/><path class="cls-13" d="M9.27,2.18A.31.31,0,1,0,9,2.49.31.31,0,0,0,9.27,2.18Z"/><path class="cls-19" d="M8.31,2.62a.15.15,0,0,0-.15-.15A.16.16,0,0,0,8,2.62a.15.15,0,0,0,.16.15A.15.15,0,0,0,8.31,2.62Z"/><path class="cls-18" d="M8.26,3.22a.13.13,0,1,0-.13.13A.13.13,0,0,0,8.26,3.22Z"/><path class="cls-25" d="M12.81,1.58a.31.31,0,1,0-.31.31A.31.31,0,0,0,12.81,1.58Z"/><path class="cls-16" d="M14.57,3.72a.31.31,0,1,0-.31.31A.31.31,0,0,0,14.57,3.72Z"/><circle class="cls-30" cx="2.43" cy="2.71" r="0.06"/></g></g></svg>