<svg xmlns="http://www.w3.org/2000/svg" viewBox="0 0 27.52 18.57"><defs><style>.cls-1{fill:#c27b2a;}.cls-2{fill:#faab4c;}.cls-3{fill:#642b13;}.cls-4{fill:#f4d29b;}.cls-5{fill:#f7c771;}.cls-6{fill:#131313;}.cls-7{fill:#f2f3f4;}</style></defs><g id="Layer_2" data-name="Layer 2"><g id="Layer_2-2" data-name="Layer 2"><path class="cls-1" d="M21.32,11.18s.33,6.05.44,6.32.84.41.84.11-.43-.41-.43-.41L22,10.83Z"/><path class="cls-2" d="M.51,18.06a.9.9,0,0,0-.4,0L0,18.14a.43.43,0,0,1,.21-.41,1.85,1.85,0,0,1,.86-.19,2.3,2.3,0,0,0-.12.31c0,.08.26.27.41.27A.12.12,0,0,0,1.48,18s.24-.08.25-.2-.24-.13-.29-.15-.08,0-.12-.08a3.8,3.8,0,0,0,.58-.06,6,6,0,0,0,3.31-1.74.42.42,0,0,0,.13.07.73.73,0,0,0,.44-.06c.07,0,.08-.07,0-.24s-.15-.17-.25-.2a5.64,5.64,0,0,0,.55-.89,24.89,24.89,0,0,1,1.54-2.47.78.78,0,0,1,0,.14c.06.13.39,0,.5,0s0-.22,0-.37-.28-.08-.28-.08a8,8,0,0,1,.75-.92A4.92,4.92,0,0,1,11.1,9.35l0,.37a3.2,3.2,0,0,0-1,.51c0-.08-.05-.14-.15-.15s-.27-.08-.43.05-.2.32,0,.4a.38.38,0,0,0,.22,0,5.38,5.38,0,0,0-.56.59,30.72,30.72,0,0,0-2.31,3.62,7.45,7.45,0,0,1-1.45,1.89.48.48,0,0,0-.16-.16.45.45,0,0,0-.29-.06c-.06,0,0,.1,0,.2s-.11.13,0,.25,0,.11,0,.15a6.83,6.83,0,0,1-4,1.54H.8a.41.41,0,0,0-.12-.22C.61,18.3.64,18.08.51,18.06Z"/><path class="cls-3" d="M9.44,10.53c-.16-.08-.11-.27,0-.4s.21-.08.43-.05.13.07.15.15a3.5,3.5,0,0,0-.4.32A.38.38,0,0,1,9.44,10.53Z"/><path class="cls-3" d="M8.18,11.67c.05.15.12.3,0,.37s-.44.16-.5,0a.78.78,0,0,0,0-.14l.25-.34S8.13,11.52,8.18,11.67Z"/><path class="cls-3" d="M5.81,15.49c.05.17,0,.2,0,.24a.73.73,0,0,1-.44.06.42.42,0,0,1-.13-.07,4.41,4.41,0,0,0,.35-.43C5.66,15.32,5.79,15.39,5.81,15.49Z"/><path class="cls-3" d="M4.86,16.88c-.07-.12,0-.14,0-.25s-.07-.17,0-.2a.45.45,0,0,1,.29.06.48.48,0,0,1,.16.16A5.46,5.46,0,0,1,4.9,17C4.85,17,4.92,17,4.86,16.88Z"/><path class="cls-3" d="M1.73,17.75c0,.12-.26.17-.25.2a.12.12,0,0,1-.12.17c-.15,0-.43-.19-.41-.27a2.3,2.3,0,0,1,.12-.31l.25,0s.09.08.12.08S1.75,17.62,1.73,17.75Z"/><path class="cls-3" d="M0,18.14l.11-.06a.9.9,0,0,1,.4,0c.13,0,.1.24.17.29a.41.41,0,0,1,.12.22,1.57,1.57,0,0,1-.6-.07A.42.42,0,0,1,0,18.14Z"/><path class="cls-1" d="M10,15.83a18.36,18.36,0,0,1-.14-1.94,1.71,1.71,0,0,0,1.45-.9,1.77,1.77,0,0,1,0,.34c0,.59-.84,1-.9,1.11s0,.06,0,.15a28.56,28.56,0,0,1,0,3s.53.18.48.56-.75.09-.91-.24C10,17.8,10.08,16.88,10,15.83Z"/><path class="cls-2" d="M10.46,14.44s0,.05,0,.15C10.46,14.5,10.45,14.45,10.46,14.44Z"/><path class="cls-2" d="M11.36,13.33a1.77,1.77,0,0,0,0-.34,10.7,10.7,0,0,1-.45-3.35c.26-1,1.48-1.49,2.87-1.6s1.9.26,3.23.17S20.85,7.74,22,6.12s.2-1.82.38-1.83,2.11.62,2.11.62-.25,3.51-1.33,4.86a10.07,10.07,0,0,1-2.25,2.08v5.39s.38.12.38.42-.69.18-.82-.13-.31-5.64-.31-5.64a13.48,13.48,0,0,1-3.06-.44,5.88,5.88,0,0,0-2.29-.21,6.46,6.46,0,0,1-3.6,3.39,8.26,8.26,0,0,0,.52,3.16s.56.07.58.45-.64.38-.94,0a19.84,19.84,0,0,1-.92-3.6c0-.1,0-.15,0-.15S11.34,13.92,11.36,13.33Z"/><path class="cls-3" d="M14.6,9.67c.11,0,.32,0,.32.35s-.47.19-.53.14-.3,0-.26-.39S14.49,9.63,14.6,9.67Z"/><path class="cls-3" d="M17.89,8.6c0-.17-.26-.27-.63-.23-.63.07-.49.33-.47.36s.15.28.61.21S17.89,8.75,17.89,8.6Z"/><path class="cls-3" d="M16.52,10c-.07-.12-.26-.4-.43-.38s-.29.24-.31.42.05.48.2.49.69,0,.72-.07S16.59,10.15,16.52,10Z"/><path class="cls-3" d="M19.36,8.84a.43.43,0,0,0-.49-.22c-.35.08-.43.12-.41.27s.27.26.54.26.5.09.5,0A.69.69,0,0,0,19.36,8.84Z"/><path class="cls-3" d="M21.23,8.85a.25.25,0,0,0,.11-.37c-.12-.27-.33-.05-.43,0s-.45.12-.31.36S21.23,8.85,21.23,8.85Z"/><path class="cls-2" d="M21.75.68a.71.71,0,0,0-.27-.44.49.49,0,0,0-.72.13.48.48,0,0,0,0,.67,1.65,1.65,0,0,0,.43.2Z"/><path class="cls-1" d="M21.58.78a.46.46,0,0,0-.17-.27A.27.27,0,0,0,21,.57c-.11.18-.06.31,0,.38a1,1,0,0,0,.27.12Z"/><path class="cls-2" d="M26.41.93a.73.73,0,0,1,.27-.44.49.49,0,0,1,.72.12c.19.3.13.56,0,.67a1.67,1.67,0,0,1-.42.21Z"/><path class="cls-1" d="M26.58,1a.46.46,0,0,1,.17-.27.26.26,0,0,1,.41.06.25.25,0,0,1,0,.37,1.15,1.15,0,0,1-.27.13Z"/><path class="cls-4" d="M22.4,2.68a1.14,1.14,0,0,1,.68-.08,4.46,4.46,0,0,1,1,.26h.05a3.62,3.62,0,0,1,.95,0h0a1.72,1.72,0,0,1,.39.1h0l.11,0h0l.1.06h0l.09.08h0l.08.09v0a.36.36,0,0,1,.07.1.2.2,0,0,0,0,.08v0a.08.08,0,0,0,0,0v0a.43.43,0,0,0,0,.05v0s0,0,0,.05v.5l0,0v0l0,0,0,0,0,0v0l0,0,0,0,0,0,0,0,0,0,0,0-.05,0,0,0,0,0,0,0,0,0,0,0,0,0,0,0h0l0,0,0,0,0,0,0,0,0,0h0l0,0h0l0,0h0l0,0h0l-.05,0h0l0,0h0L25,5h0l-.1,0a3.38,3.38,0,0,1-1.19.17,3,3,0,0,1-1.44-.89L22,4.05A1,1,0,0,1,22.4,2.68Z"/><path class="cls-2" d="M26.36,1.17a1.46,1.46,0,0,0-1.34.6.9.9,0,0,0,0,1.08h0a3.61,3.61,0,0,0-.95,0H24a4.46,4.46,0,0,0-1-.26A.84.84,0,0,0,23,1.44c-.45-.44-1.55-.72-1.88.25C21.28,0,23.47-.07,24.34,0a3.75,3.75,0,0,1,2.78,1.56A1.46,1.46,0,0,0,26.36,1.17Z"/><path class="cls-5" d="M23,1.44a.84.84,0,0,1,.12,1.16,1.14,1.14,0,0,0-.68.08A1,1,0,0,0,22,4.05a3.14,3.14,0,0,1-.87-2.36C21.41.72,22.51,1,23,1.44Z"/><path class="cls-5" d="M25.7,4.56l.05,0,0,0,0,0,0,0,0,0,0,0,0,0v0l0,0,0,0,0,0v0l0,0V3.7s0,0,0-.05v0a.43.43,0,0,1,0-.05v0a.08.08,0,0,1,0,0v0a.2.2,0,0,1,0-.08.36.36,0,0,0-.07-.1v0l-.08-.09h0l-.09-.08h0L25.57,3h0l-.11,0h0A2.37,2.37,0,0,0,25,2.84h0A1.06,1.06,0,0,1,25,1.77a1.32,1.32,0,0,1,2.1-.18,1.91,1.91,0,0,1,.2,1.14C27.19,4,26,4.68,25,5h0L25,5h0l0,0h0l.05,0h0Z"/><path class="cls-5" d="M25.2,4.89l0,0h0l0,0h0l0,0,0,0,0,0,0,0,0,0h0l0,0,0,0,0,0,0,0,0,0Z"/><path class="cls-6" d="M25.45,2.11a.21.21,0,0,1,.2-.22.22.22,0,0,1,.22.2.21.21,0,0,1-.2.22A.2.2,0,0,1,25.45,2.11Z"/><path class="cls-6" d="M22.34,1.86a.21.21,0,0,1,.2-.22.2.2,0,0,1,.22.2.21.21,0,0,1-.2.22A.22.22,0,0,1,22.34,1.86Z"/><path class="cls-6" d="M23,3.6a0,0,0,0,1,.07,0,1.34,1.34,0,0,0,.75.34l.05-.54c-.33-.09-.91-.53-.8-.78s.95-.08.95-.08.88,0,.94.25-.67.64-1,.63L23.93,4a2.29,2.29,0,0,0,.8-.12,0,0,0,0,1,.07,0,.07.07,0,0,1,0,.08,2.16,2.16,0,0,1-.63.13A1.52,1.52,0,0,1,23,3.68.05.05,0,0,1,23,3.6Z"/><path class="cls-3" d="M25.38.6c.11,0,.06.06.17.16s0,.3,0,.32-.39-.1-.41-.21S25.28.61,25.38.6Z"/><path class="cls-3" d="M24.44.45s.17.3-.22.29-.35-.13-.35-.2S23.71.17,24,.19,24.37.24,24.44.45Z"/><path class="cls-3" d="M23,.14s.22-.08.25.21-.18.27-.18.27a.44.44,0,0,0-.27,0,.13.13,0,0,1-.21-.09c0-.12-.08-.2.14-.29A1.24,1.24,0,0,1,23,.14Z"/><path class="cls-3" d="M23.37.88c.1-.05.3,0,.34.1s.07.27-.06.27-.33,0-.36-.12A.23.23,0,0,1,23.37.88Z"/><path class="cls-3" d="M24.56,1.32a.15.15,0,0,0,.07-.21c-.07-.15-.19,0-.25,0s-.25.07-.17.2S24.56,1.32,24.56,1.32Z"/><path class="cls-3" d="M22.72,5.54c.06.11.21.28.08.47s-.41,0-.44-.14.13-.52.21-.52S22.7,5.49,22.72,5.54Z"/><path class="cls-3" d="M22.9,7.11c0,.1.16.29-.2.38s-.29,0-.24-.21,0-.41.19-.43S22.86,7,22.9,7.11Z"/><path class="cls-3" d="M22,6.82c.05.13.09.3-.35.43s-.29.28-.46.24,0-.51.19-.64S21.88,6.57,22,6.82Z"/><path class="cls-3" d="M20.15,7.7c.09.12.31.45-.17.52s-.64-.09-.64-.22,0-.14.44-.28C20,7.66,20.09,7.63,20.15,7.7Z"/><path class="cls-3" d="M20.44,9.52c0-.11,0-.12-.43-.13s-.37,0-.35.13.22.44.45.42S20.45,9.62,20.44,9.52Z"/><path class="cls-3" d="M18.3,10c0-.13-.23-.32-.35-.39a.31.31,0,0,0-.4,0c-.1.13-.22.12-.15.24s.07.17.38.22S18.28,10.14,18.3,10Z"/><path class="cls-3" d="M15.7,8.74a.52.52,0,0,0-.63-.12c-.34.14-.43.25.2.49s.74.16.73,0S15.79,8.82,15.7,8.74Z"/><path class="cls-3" d="M13.25,10.87c0-.12-.13-.22-.45-.17s-.45.13-.38.37a.38.38,0,0,0,.57.19C13.22,11.12,13.28,11,13.25,10.87Z"/><path class="cls-3" d="M13.52,8.57c-.12-.1-.37-.35-.63-.05s0,.47.23.46.36.29.62.13S13.63,8.66,13.52,8.57Z"/><path class="cls-3" d="M11.3,10s-.31,0-.06.49c.14.28.25.42.46.26a.32.32,0,0,0,.1-.46c-.06-.11-.22-.09-.28-.2S11.3,10,11.3,10Z"/><path class="cls-3" d="M12,9.1c0-.11-.23-.18-.42-.12s-.41.06-.35.22a.55.55,0,0,0,.4.31c.15,0,.25.05.28-.16S12,9.17,12,9.1Z"/><path class="cls-3" d="M13.09,9.68c0-.09-.09-.14-.34-.13s-.29-.12-.4,0-.17.3.23.43.46.12.49,0A.78.78,0,0,0,13.09,9.68Z"/><path class="cls-3" d="M7.34,13.68c0-.09,0-.31-.31-.28s-.33.18-.33.23,0,.35.1.37A1,1,0,0,0,7.34,13.68Z"/><path class="cls-3" d="M4,17.29a.37.37,0,0,0-.45-.12c-.25.09-.41.26-.31.42a.28.28,0,0,0,.38.15C3.85,17.68,4.13,17.58,4,17.29Z"/><path class="cls-7" d="M22.71,1.8a.08.08,0,0,0-.08-.08.09.09,0,0,0-.08.08.08.08,0,0,0,.08.08A.07.07,0,0,0,22.71,1.8Z"/><path class="cls-7" d="M25.82,2.06A.08.08,0,0,0,25.74,2a.09.09,0,0,0-.08.08.08.08,0,0,0,.08.08A.07.07,0,0,0,25.82,2.06Z"/></g></g></svg>