<svg xmlns="http://www.w3.org/2000/svg" viewBox="0 0 18.8 17.67"><defs><style>.cls-1{fill:#c6a382;}.cls-2{fill:#f9e8b8;}.cls-3{fill:#34312e;}.cls-4{fill:#d7b18a;}.cls-5{fill:#1c1b1a;}.cls-6{fill:#f2eeeb;}</style></defs><g id="Layer_2" data-name="Layer 2"><g id="Layer_2-2" data-name="Layer 2"><path class="cls-1" d="M14,0c.58,0,1.91.54,1.1,2.81l-1.33-.45S12,.1,14,0Z"/><path class="cls-1" d="M7.13,16.77A4.89,4.89,0,0,1,4,17.61a5.73,5.73,0,0,1-2.73-1.29c-.3-.26.26,0,.26,0A2.38,2.38,0,0,1,.27,15.19a1.36,1.36,0,0,0,.46,0,2,2,0,0,1-.55-.76l.19,0A2.07,2.07,0,0,1,0,13.45a2.18,2.18,0,0,1,.38,0,2.77,2.77,0,0,1,0-1.66.59.59,0,0,0,.21.28,3.86,3.86,0,0,1,.45-1,.54.54,0,0,0,.14.16,3.37,3.37,0,0,1,.21-.63l.13.16a1.7,1.7,0,0,1,.38-.92l0,0,0,.33a1.23,1.23,0,0,1,.18-.33s.11.18.11.18a1.8,1.8,0,0,1,.6-.7,1,1,0,0,1,.1.54.5.5,0,0,1,.23-.16,1.19,1.19,0,0,1,0,.41.81.81,0,0,1,.38-.13,1.93,1.93,0,0,1-.13,1l.2-.05a2.69,2.69,0,0,1-.15.81.49.49,0,0,1,.18-.13.62.62,0,0,1,0,.29l.17-.08a5.13,5.13,0,0,1-.18,1.15.33.33,0,0,1,.22-.11,1.59,1.59,0,0,1-.2.74.49.49,0,0,1,.27-.06.83.83,0,0,0-.23.46c0,.27-.35,1.57.42,2.15a2.87,2.87,0,0,0,2.3.34Z"/><path class="cls-1" d="M14.7,13.06c.2.22,0,2.32-2,3.57a3.85,3.85,0,0,0,.72,0c.32-.05,1-.17,1.08.24s0,.5-.18.53S12,17.52,12,17.17s.2-.49.16-.74.12-.27.12-.27a6,6,0,0,0,1.28-1.53c.17-.55.49-1.43.49-1.43S14.36,12.69,14.7,13.06Z"/><path class="cls-2" d="M13.77,9.25a1.69,1.69,0,0,0-.83-.16,2.8,2.8,0,0,0-2.07,1.12c-.06.15.64.34.86.38a3,3,0,0,0,1.16-.38,1.6,1.6,0,0,1,.65-.16A1.31,1.31,0,0,1,13.77,9.25Z"/><path class="cls-2" d="M13.59,10.92a2.23,2.23,0,0,1-.45,0c-.3,0-.76.5-1.47.64a5.23,5.23,0,0,1-1.35-.42,4.43,4.43,0,0,0-1.48,2.3,4.42,4.42,0,0,0,0,3.14c.17.31.8.42,1.3.46a4,4,0,0,0,3.22-1.79,5.3,5.3,0,0,0,.87-3h0C13.93,12.26,13.69,11.62,13.59,10.92Z"/><path class="cls-3" d="M15.41,9.33a.9.9,0,0,0-.32-.23,1.41,1.41,0,0,0-1.27.11l-.05,0a1.31,1.31,0,0,0-.23.8.46.46,0,0,1,.49.4c.07.34-.17.44-.44.47.1.7.34,1.34.64,1.34h0C14.84,12.26,15.82,9.78,15.41,9.33Z"/><path class="cls-4" d="M13.53,2.25a3.3,3.3,0,0,0-1.84.56S10.36.51,8.38,1.41a1.51,1.51,0,0,0-.44.27,1.89,1.89,0,0,1,2,.21c1.6,1.39.52,2.33.38,2.35a7.4,7.4,0,0,0-.85,1.23,7.79,7.79,0,0,0-4.72,4.76c-1.44,3.84.81,6.68,2.94,6.77.92,0,1.74.09,2.48,0-.5,0-1.13-.15-1.3-.46a4.42,4.42,0,0,1,0-3.14,4.43,4.43,0,0,1,1.48-2.3,5.23,5.23,0,0,0,1.35.42c.71-.14,1.17-.64,1.47-.64a2.23,2.23,0,0,0,.45,0c.27,0,.51-.13.44-.47a.46.46,0,0,0-.49-.4,1.6,1.6,0,0,0-.65.16,3,3,0,0,1-1.16.38c-.22,0-.92-.23-.86-.38a2.8,2.8,0,0,1,2.07-1.12,1.69,1.69,0,0,1,.83.16l.05,0a1.41,1.41,0,0,1,1.27-.11,6.32,6.32,0,0,0,1.16-.59c.85-.55,2.13-.79,2.49-2C19,5.71,16.26,2.38,13.53,2.25Z"/><path class="cls-2" d="M11,3.45A2.93,2.93,0,0,0,9.91,1.89a1.94,1.94,0,0,0-2-.21A1.21,1.21,0,0,0,7.5,2.74c0,.69.9,1.84,2.79,1.5C11.21,4.08,11,3.71,11,3.45Z"/><path class="cls-3" d="M13.81,5s.32-.81,1-.66a.91.91,0,0,1,.7.88.79.79,0,0,1-.89.41A.86.86,0,0,1,13.81,5Z"/><circle class="cls-5" cx="14.66" cy="4.97" r="0.62"/><path class="cls-2" d="M15.65,7.12c-.13.52.18,1.8,1.87,1.07a2.61,2.61,0,0,0,1.12-1.44S16,5.66,15.65,7.12Z"/><path class="cls-3" d="M18.65,6.78c.14-.07.2-.56.1-.59-.27-.07-.79.32-.77.46S18.51,6.86,18.65,6.78Z"/><path class="cls-3" d="M14.52,7.62h0a.06.06,0,0,1,0,0,2.86,2.86,0,0,1,1.83-.51s0,0,0,0a0,0,0,0,1,0,0,2.8,2.8,0,0,0-1.8.5Z"/><path class="cls-3" d="M14.93,8.61h0a0,0,0,0,1,0,0,2.26,2.26,0,0,1,1.5-1.07l0,0,0,0A2.22,2.22,0,0,0,15,8.6Z"/><path class="cls-3" d="M15.62,9.28h0l0,0a2.11,2.11,0,0,1,1.08-1.37s0,0,0,0a0,0,0,0,1,0,0,2.07,2.07,0,0,0-1.06,1.34Z"/><path class="cls-6" d="M15.08,4.79c0,.06-.13.07-.21,0s-.12-.13-.08-.19.12-.08.21,0A.14.14,0,0,1,15.08,4.79Z"/><path class="cls-1" d="M7.91,16.88c.2,0,.72.06.66.56,0,.3-.89.23-.66.23s-.7,0-.7-.29C7.21,16.92,7.75,16.87,7.91,16.88Z"/><path class="cls-4" d="M15.72,10.44c0,.33-.51.61-.61.37a.77.77,0,0,1,.2-.79C15.46,10,15.77,10,15.72,10.44Z"/></g></g></svg>