<svg xmlns="http://www.w3.org/2000/svg" viewBox="0 0 17.84 15.48"><defs><style>.cls-1{fill:#f15d42;}.cls-2{fill:#d1432a;}.cls-3{fill:#ebc7a6;}.cls-4{fill:#353434;}.cls-5{fill:#faab6d;}</style></defs><g id="Layer_2" data-name="Layer 2"><g id="Layer_2-2" data-name="Layer 2"><path class="cls-1" d="M7.05,7l-.49,0a15.82,15.82,0,0,0-.23-3.65l.48-.11A16.3,16.3,0,0,1,7.05,7Z"/><path class="cls-1" d="M8.9,13.7c2.44,0,6.18-3.37,6.1-3.94S12.8,6.3,8.9,6.3s-6,2.92-6.1,3.46,3.66,3.9,6.1,3.94Z"/><path class="cls-2" d="M6,7.87a3.88,3.88,0,0,0,5.37-.12S9.93,9.43,8.76,9.45,6,7.87,6,7.87Z"/><path class="cls-1" d="M7.15,2.89a.65.65,0,1,0-.65.65A.65.65,0,0,0,7.15,2.89Z"/><path class="cls-3" d="M7,2.89a.48.48,0,1,0-.48.48A.48.48,0,0,0,7,2.89Z"/><path class="cls-4" d="M6.7,3a.2.2,0,0,0-.19-.19.2.2,0,0,0-.2.19.19.19,0,0,0,.2.19A.19.19,0,0,0,6.7,3Z"/><path class="cls-1" d="M10.6,2.84a.65.65,0,0,1,.7-.6.64.64,0,0,1,.6.69.67.67,0,0,1-.7.61A.66.66,0,0,1,10.6,2.84Z"/><path class="cls-1" d="M10.41,6.91l.48,0a15.69,15.69,0,0,1,.5-3.63l-.47-.14A15.77,15.77,0,0,0,10.41,6.91Z"/><path class="cls-1" d="M16.36,7.67c-.2-.24-.79-.08-1.32.36s-.79,1-.59,1.23.79.08,1.32-.36S16.56,7.91,16.36,7.67Z"/><path class="cls-1" d="M15.7,6.23c0-.81.27-1.47.6-1.47s.59.66.59,1.47-.27,1.48-.59,1.48S15.7,7.05,15.7,6.23Z"/><path class="cls-1" d="M15.93,3.48S15.06,3,15,.67c0,0-1.69,4.41,1.21,4.23,2.55-.16,1.72-4.16.17-4.9C16.38,0,17.07,2.11,15.93,3.48Z"/><path class="cls-1" d="M1.4,7.63c.18-.25.78-.14,1.34.25s.88.91.7,1.17-.78.15-1.34-.24S1.22,7.89,1.4,7.63Z"/><path class="cls-1" d="M1.92,6.15c-.07-.81-.39-1.45-.72-1.42S.67,5.44.74,6.25s.4,1.45.73,1.42S2,7,1.92,6.15Z"/><path class="cls-1" d="M1.79,3.65s1-.19,1.68-2.44c0,0,.39,4.71-2.34,3.73C-1.27,4.07.64.46,2.33.18,2.33.18,1.08,2,1.79,3.65Z"/><path class="cls-5" d="M8.9,13.22c1,0,4-1.55,3.79-2.15s-2.55-.92-3.79-.92-4,.44-3.88,1S7.7,13.23,8.9,13.22Z"/><path class="cls-1" d="M13.9,14.22c.32-.17.77.45.24,1.26a.35.35,0,0,0-.09-.34C13.9,15,13.43,14.47,13.9,14.22Z"/><path class="cls-1" d="M15.37,13c.35-.17.81.52.21,1.35A.39.39,0,0,0,15.5,14C15.35,13.86,14.86,13.29,15.37,13Z"/><path class="cls-1" d="M16.67,11.77c.38-.17.85.57.2,1.45a.42.42,0,0,0-.08-.4C16.63,12.65,16.13,12,16.67,11.77Z"/><path class="cls-1" d="M13.23,13.36c-.09.16-.47.12-.85-.1s-.61-.52-.52-.68.47-.12.85.1S13.32,13.2,13.23,13.36Z"/><path class="cls-1" d="M13.77,13.63c.22.29.3.62.16.72s-.44,0-.66-.34-.3-.62-.17-.73S13.54,13.33,13.77,13.63Z"/><path class="cls-1" d="M14.75,12.11c-.06.19-.48.23-.94.09s-.79-.4-.73-.59.47-.23.93-.09S14.8,11.93,14.75,12.11Z"/><path class="cls-1" d="M15.3,12.38c.21.3.27.62.13.73s-.44,0-.66-.34-.28-.63-.13-.73S15.08,12.08,15.3,12.38Z"/><path class="cls-1" d="M16,10.79c-.06.2-.48.25-.93.11s-.78-.41-.71-.61.47-.25.93-.11S16,10.59,16,10.79Z"/><path class="cls-1" d="M16.56,11.08c.22.31.27.65.11.76s-.45-.06-.67-.37-.26-.64-.1-.75S16.35,10.77,16.56,11.08Z"/><path class="cls-1" d="M3.91,14.19c-.33-.16-.76.48-.21,1.27a.34.34,0,0,1,.08-.34C3.92,15,4.38,14.43,3.91,14.19Z"/><path class="cls-1" d="M2.4,13.06c-.35-.16-.79.53-.17,1.35A.38.38,0,0,1,2.3,14C2.45,13.88,2.92,13.29,2.4,13.06Z"/><path class="cls-1" d="M1.07,11.82c-.38-.16-.84.59-.16,1.45A.38.38,0,0,1,1,12.88C1.13,12.7,1.62,12.06,1.07,11.82Z"/><path class="cls-1" d="M4.55,13.32c.1.16.48.1.85-.12s.59-.54.5-.7-.48-.1-.85.12S4.46,13.16,4.55,13.32Z"/><path class="cls-1" d="M4,13.6c-.22.3-.28.63-.14.73s.43-.06.65-.36.28-.63.14-.73S4.24,13.3,4,13.6Z"/><path class="cls-1" d="M3,12.11c.06.19.48.22.94.07s.78-.43.72-.62-.49-.21-.94-.06S2.94,11.93,3,12.11Z"/><path class="cls-1" d="M2.46,12.39c-.21.31-.26.63-.11.74s.43-.06.64-.36.26-.63.12-.74S2.67,12.09,2.46,12.39Z"/><path class="cls-1" d="M1.73,10.82c.07.2.49.24.94.09s.76-.43.69-.63-.48-.24-.93-.09S1.67,10.62,1.73,10.82Z"/><path class="cls-1" d="M1.16,11.13c-.21.31-.25.65-.09.76s.45-.07.66-.39.24-.65.08-.75S1.36,10.82,1.16,11.13Z"/><path class="cls-3" d="M11.73,2.89a.48.48,0,1,0-.48.48A.48.48,0,0,0,11.73,2.89Z"/><path class="cls-4" d="M11.44,3a.19.19,0,0,0-.38,0,.19.19,0,0,0,.38,0Z"/></g></g></svg>