<svg xmlns="http://www.w3.org/2000/svg" viewBox="0 0 16.55 25.72"><defs><style>.cls-1{fill:#f07c41;}.cls-2{fill:#d6d7d8;}.cls-3{fill:#2b2424;}.cls-4{fill:#2d2c2c;}.cls-5{fill:#383d40;}.cls-6{fill:#b4c3cb;}.cls-7{fill:#f68a5c;}.cls-8{fill:#f2f3f4;}</style></defs><g id="Layer_2" data-name="Layer 2"><g id="Layer_2-2" data-name="Layer 2"><path class="cls-1" d="M11.93,19.84a.23.23,0,0,0-.09-.2l-.43-4.28a.12.12,0,0,0-.13-.1.11.11,0,0,0-.1.12l.44,4.32a.33.33,0,0,0,0,.14.36.36,0,0,0,0,.11l-1.31,4.46a2,2,0,0,0-1-.06.12.12,0,0,0-.07.15.11.11,0,0,0,.14.07,1,1,0,0,1,.35,0,1.24,1.24,0,0,0-.49.26.11.11,0,0,0,0,.16.18.18,0,0,0,.09,0,.13.13,0,0,0,.08,0,1.16,1.16,0,0,1,.51-.24,1.89,1.89,0,0,0-.51.38.12.12,0,0,0,0,.16.13.13,0,0,0,.08,0,.12.12,0,0,0,.09,0,2.49,2.49,0,0,1,.87-.52l0,0h0a1.34,1.34,0,0,1,.89-.14.11.11,0,0,0,.14-.07.12.12,0,0,0-.07-.15,1.34,1.34,0,0,0-.88.08l1.28-4.34A.24.24,0,0,0,11.93,19.84Z"/><path class="cls-1" d="M10.55,19.9a.28.28,0,0,0-.09-.21l-.6-4.33a.11.11,0,0,0-.13-.1.11.11,0,0,0-.1.13l.61,4.35a.29.29,0,0,0,0,.16.16.16,0,0,0,0,.1L8.51,24.78a3,3,0,0,0-1.33-.25.11.11,0,0,0-.12.11.12.12,0,0,0,.12.12h0a3.13,3.13,0,0,1,.94.11A2.54,2.54,0,0,0,7,25.06a.12.12,0,1,0,.1.21,2.52,2.52,0,0,1,.94-.18,3.26,3.26,0,0,0-.64.43.12.12,0,0,0,0,.17.14.14,0,0,0,.09,0,.11.11,0,0,0,.07,0,3.56,3.56,0,0,1,1-.58l.09,0L9.12,25a.12.12,0,0,0,.09-.14.11.11,0,0,0-.13-.09l-.34,0,1.67-4.7A.24.24,0,0,0,10.55,19.9Z"/><path class="cls-2" d="M8.54,9.55C5.3,9.72,7,6.6,7.36,5.68a9.39,9.39,0,0,0,1-4.25.13.13,0,0,1,0-.06h0A1.39,1.39,0,0,0,7.9.56c.11,0,.22-.25.26-.34a1.51,1.51,0,0,1-.54.2c.12-.08,0-.42,0-.42s-.3.32-.3.32A1.7,1.7,0,0,0,6.18.54a1.16,1.16,0,0,0-.5,1.65,1.26,1.26,0,0,0,1.68.41,5.24,5.24,0,0,1-.26,1A47.11,47.11,0,0,0,5.41,8.45a29.31,29.31,0,0,0-.15,3.47S5,12.6,5,12.66s.33-.07.37-.27.11.79.08,1c0,0,.31-.21.26-.34a4.58,4.58,0,0,0,3.54,2.32.57.57,0,0,0,.56.26c.42,0,.45-.3.45-.3h.53a.42.42,0,0,0,.46.3.47.47,0,0,0,.44-.38s1.62-.23,1.94-.31a9.51,9.51,0,0,0,1.47-1.16S11.78,9.38,8.54,9.55Z"/><path class="cls-2" d="M8.16.22s0,0,0,0A.1.1,0,0,1,8.16.22Z"/><path class="cls-3" d="M6.82,1.33a.24.24,0,1,0-.47,0,.24.24,0,1,0,.47,0Z"/><path class="cls-1" d="M0,5.48,6,2.4A.55.55,0,0,0,5.88,2Z"/><path class="cls-4" d="M11.75,13.91s3.67,2.58,2.7,1.09c0,0,3.62,2.38,1.34-.4,0,0,1.67.86-1.53-2.45S9.1,9,8.37,9.77,11.75,13.91,11.75,13.91Z"/><path class="cls-5" d="M8.57,12.06a17,17,0,0,0,3,1.85c1,.47,1.63.64.87-.19,0,0,1.75,1,1-.28,0,0,1.58.94.83-.33,0,0,1.48.8-1-2.12,0,0-4.37-3.35-6.08-1.51C6.68,10.08,7.87,11.3,8.57,12.06Z"/><path class="cls-6" d="M7,9.32s1.6-1.49,4.43.19,2.07,2.49,1.65,2.3c0,0,.72,1.15-.82.28,0,0,.78,1.65-1.43.17,0,0,.57,1.39-1.29-.19,0,0,.65,1.08-1.2-.14C7.75,11.53,6.5,9.92,7,9.32Z"/><path class="cls-7" d="M0,5.49,5.51,1.71a.87.87,0,0,1,.43.35Z"/><circle class="cls-8" cx="6.65" cy="1.27" r="0.07"/></g></g></svg>