<svg xmlns="http://www.w3.org/2000/svg" viewBox="0 0 29.13 12.44"><defs><style>.cls-1{fill:#88a94f;}.cls-2{fill:#010101;}.cls-3{fill:#98c558;}.cls-4{fill:#49643d;}.cls-5{fill:#eef1f4;}</style></defs><g id="Layer_2" data-name="Layer 2"><g id="Layer_2-2" data-name="Layer 2"><path class="cls-1" d="M21.33,9.09a3.52,3.52,0,0,1-1.42,1.7,1.33,1.33,0,0,1-.29.78c-.29.34-.4,0-.34,0a.89.89,0,0,0,.23-.4c0-.1-.06-.14-.13-.11s-.23.23-.44.36-.39-.11-.33-.19a1.62,1.62,0,0,1,.37-.33c.24-.18.1-.23,0-.2a3.59,3.59,0,0,0-.48.17c-.11.05-.34-.11,0-.32a1.64,1.64,0,0,1,1-.17,2.08,2.08,0,0,0,1-1.27Z"/><path class="cls-1" d="M13.47,8.72l-.81,0A2.25,2.25,0,0,1,11.6,10a1.73,1.73,0,0,0-1,.17c-.35.21-.12.37,0,.32s.43-.16.49-.17.25,0,0,.2a1.43,1.43,0,0,0-.37.33c-.06.08,0,.39.33.19s.34-.31.44-.36a.09.09,0,0,1,.12.11.9.9,0,0,1-.22.4c-.07.08.05.39.34.05a1.28,1.28,0,0,0,.28-.78,3.52,3.52,0,0,0,1.42-1.71Z"/><path class="cls-2" d="M7.13,7.21c-.06,0-.15-.12-.22-.22s-.2-.35-.18-.4.33-.08.47-.08a.5.5,0,0,1,.27,0s0,.15,0,.25-.2.4-.29.4Zm.07-.67a.91.91,0,0,0-.44.07A1.31,1.31,0,0,0,6.94,7c.1.15.16.2.19.2v0c.06,0,.18-.18.26-.38s.07-.21.06-.22S7.36,6.54,7.2,6.54Z"/><path class="cls-2" d="M6.19,7.27c-.06,0-.15-.12-.21-.22s-.2-.34-.18-.4.32-.08.46-.08.24,0,.28,0,0,.15,0,.25-.2.4-.29.4Zm.07-.67a1.09,1.09,0,0,0-.43.06A1,1,0,0,0,6,7c.1.15.16.2.18.2v0s.17-.18.26-.39.06-.2,0-.21S6.42,6.6,6.26,6.6Z"/><path class="cls-2" d="M5.29,7.34c-.06,0-.18-.15-.24-.24s-.19-.31-.17-.37.35-.1.51-.1a.46.46,0,0,1,.23,0s0,.16,0,.26-.19.4-.28.41Zm.1-.68a1,1,0,0,0-.48.08.89.89,0,0,0,.18.35c.11.16.18.22.2.22h0c.06,0,.18-.19.26-.4s0-.2,0-.21S5.55,6.66,5.39,6.66Z"/><path class="cls-2" d="M5.13,8.6s-.34,0-.4-.06,0,0,0-.17S5,8,5.09,8s.14.12.2.22.16.31.13.36S5.23,8.6,5.13,8.6Zm0-.59c-.06,0-.21.2-.29.37s0,.13,0,.14a.83.83,0,0,0,.37.05.65.65,0,0,0,.26,0,1.1,1.1,0,0,0-.16-.38C5.16,8.05,5.11,8,5.09,8Z"/><path class="cls-2" d="M4.29,8.6S4,8.6,3.9,8.54s0,0,0-.17S4.16,8,4.26,8s.14.12.2.22.15.31.12.36S4.39,8.6,4.29,8.6Zm0-.59c-.07,0-.22.2-.3.37a.39.39,0,0,0,0,.14.87.87,0,0,0,.37.05.73.73,0,0,0,.27,0,1,1,0,0,0-.17-.38C4.32,8.05,4.28,8,4.26,8Z"/><path class="cls-2" d="M6,8.6c-.08,0-.27,0-.32,0s0-.09,0-.19S5.93,8,6,8s.16.14.21.22.17.29.14.34S6,8.6,6,8.6ZM6,8c-.06,0-.2.2-.27.37s0,.14,0,.15a.62.62,0,0,0,.29,0,.78.78,0,0,0,.34,0,.92.92,0,0,0-.17-.37C6.09,8.05,6,8,6,8Z"/><path class="cls-2" d="M6.85,8.55a.51.51,0,0,1-.25,0s0-.09,0-.19.2-.4.29-.4h0c.07,0,.19.17.23.25s.16.24.14.3S7,8.55,6.85,8.55ZM6.92,8c-.07,0-.19.21-.26.38s0,.15,0,.15.08,0,.23,0a1.09,1.09,0,0,0,.41-.06.88.88,0,0,0-.17-.34C7,8,6.94,8,6.92,8Z"/><path class="cls-2" d="M4.47,7.45c-.09,0-.28-.25-.32-.3S4,6.93,4,6.88s.42-.15.6-.15l.13,0s0,.16,0,.26-.15.42-.24.44Zm.14-.69A1.22,1.22,0,0,0,4,6.89s0,.11.15.25.23.27.28.27h0c.06,0,.16-.19.22-.41s0-.21,0-.22S4.69,6.76,4.61,6.76Z"/><path class="cls-3" d="M27.31,1.08A7.37,7.37,0,0,0,25.69,0a7.36,7.36,0,0,0,.71,2.07c1,2.39-1.95,2.62-2.37,1.86s-.73-.23-.82-.05-.26.86-.73,0-.95.05-.95.05-.49,1-.87,0-.86,0-.86,0-.47.86-.82,0-.82-.05-.82-.05-.39,1-.77.09c-.26-.63-.64-.5-.87,0,0,.07-.34,1.25-.77,0s-1,.23-1.36.21-1.81.15-2.14-.3C10.8,1.8,9,4,8.76,4.14c-1,.65-5.32,1.31-5.85.76-1.17-1.19-1.66.15-1.66.15s-1-.32-1.22.52C-.25,6.63,1.58,7.24,2.25,7.14a29.74,29.74,0,0,1,5.52-.5,8,8,0,0,0,3-.56A5.87,5.87,0,0,1,9.23,7.87c-.6.58-2.09.65-4.87.65-2.37,0-1.16.78-.86.86a9.56,9.56,0,0,0,3.56.09,7.21,7.21,0,0,1,1.22-.2,4.73,4.73,0,0,0,2.89-.92A5.47,5.47,0,0,0,14.34,9.8a2.17,2.17,0,0,1-1.05,1.25,1.68,1.68,0,0,0-1,.16c-.34.21-.12.38,0,.33s.42-.16.48-.18.25,0,0,.2a1.86,1.86,0,0,0-.37.34c-.06.07,0,.38.33.18s.34-.31.44-.35a.09.09,0,0,1,.13.1,1,1,0,0,1-.23.4c-.07.08.05.39.34,0a1.28,1.28,0,0,0,.28-.78,3.6,3.6,0,0,0,1.39-1.61,26.59,26.59,0,0,0,6.93-.65,2,2,0,0,1-.71,1.42,1.63,1.63,0,0,0-.9.37c-.29.28,0,.39.07.32a4.93,4.93,0,0,1,.43-.28c.1-.05.25,0,.06.19a1.41,1.41,0,0,0-.29.41c0,.09.06.38.36.11s.27-.38.35-.44a.09.09,0,0,1,.15.07.85.85,0,0,1-.14.44c0,.1.14.37.35,0a1.28,1.28,0,0,0,.1-.83,3.53,3.53,0,0,0,1-2h0A25.91,25.91,0,0,0,27.33,6.9C30.87,4.66,28.28,1.88,27.31,1.08Z"/><path class="cls-2" d="M.71,5.94a.29.29,0,0,1-.28-.28.28.28,0,0,1,.28-.27A.27.27,0,0,1,1,5.66.28.28,0,0,1,.71,5.94Zm0-.52a.25.25,0,0,0-.25.24.24.24,0,0,0,.25.24A.24.24,0,0,0,1,5.66.24.24,0,0,0,.71,5.42Z"/><path class="cls-2" d="M2.07,5.53a.28.28,0,0,1-.28-.28.28.28,0,0,1,.55,0A.28.28,0,0,1,2.07,5.53Zm0-.52a.25.25,0,0,0-.25.24.24.24,0,0,0,.25.24.24.24,0,0,0,.24-.24A.24.24,0,0,0,2.07,5Z"/><path class="cls-2" d="M11.17,3.66a.21.21,0,1,0-.41,0,.21.21,0,0,0,.21.21A.2.2,0,0,0,11.17,3.66Z"/><path class="cls-2" d="M10.21,3.66A.2.2,0,0,0,10,3.47a.19.19,0,0,0-.19.19.18.18,0,0,0,.19.19A.19.19,0,0,0,10.21,3.66Z"/><path class="cls-4" d="M14.87,4.54c0-.06.24-.61.37-.61a1.16,1.16,0,0,1,.34.62A1.08,1.08,0,0,1,14.87,4.54Z"/><path class="cls-4" d="M16.56,4.62c0-.07.25-.61.37-.61s.38.55.35.62A1.18,1.18,0,0,1,16.56,4.62Z"/><path class="cls-4" d="M17.41,5.65c-.05-.06.24-.61.36-.6s.38.55.35.62A1.15,1.15,0,0,1,17.41,5.65Z"/><path class="cls-4" d="M15.59,5.65c-.05-.06.24-.61.37-.6s.38.55.34.62A1.16,1.16,0,0,1,15.59,5.65Z"/><path class="cls-4" d="M18.2,4.65c-.06-.07.24-.62.36-.61s.38.55.35.62A1.15,1.15,0,0,1,18.2,4.65Z"/><path class="cls-4" d="M18.88,5.71c-.06-.07.24-.61.36-.61s.38.55.35.62A1.15,1.15,0,0,1,18.88,5.71Z"/><path class="cls-4" d="M19.82,4.63c-.05-.07.25-.61.37-.61s.38.55.35.62A1.18,1.18,0,0,1,19.82,4.63Z"/><path class="cls-4" d="M21.58,4.66c-.06-.07.24-.61.36-.61s.38.55.35.62A1.15,1.15,0,0,1,21.58,4.66Z"/><path class="cls-4" d="M22.3,5.54c-.06-.06.24-.61.36-.6s.38.55.35.62A1.15,1.15,0,0,1,22.3,5.54Z"/><path class="cls-4" d="M23.25,4.73c-.05-.07.24-.62.37-.61s.38.55.34.62A1.15,1.15,0,0,1,23.25,4.73Z"/><path class="cls-4" d="M20.55,5.67c-.06-.07.24-.62.36-.61s.38.55.35.62A1.15,1.15,0,0,1,20.55,5.67Z"/><path class="cls-5" d="M11.1,3.59s0-.07-.06-.07a.08.08,0,0,0-.07.07.07.07,0,0,0,.07.07A.07.07,0,0,0,11.1,3.59Z"/><path class="cls-5" d="M10.11,3.59a.06.06,0,0,0-.12,0,.06.06,0,0,0,.12,0Z"/></g></g></svg>