<svg xmlns="http://www.w3.org/2000/svg" viewBox="0 0 25.98 20.04"><defs><style>.cls-1{fill:#e5ccb2;}.cls-2{fill:#d99450;}.cls-3{fill:#e69f53;}.cls-4{fill:#342f2a;}.cls-5{fill:#ede7e4;}</style></defs><g id="Layer_2" data-name="Layer 2"><g id="Layer_2-2" data-name="Layer 2"><path class="cls-1" d="M17.41,19.53c-.1.09-.26-.05-.26-.05a.27.27,0,0,1-.1.27c-.13.09-.36-.1-.36-.1s.06.22-.19.22-.45-.41-.47-.62-.05-.39,0-.46a.87.87,0,0,1,.4-.09c.43,0,.42,0,.54,0S17.66,19.3,17.41,19.53Z"/><path class="cls-1" d="M14.76,19.54c-.09.09-.26,0-.26,0a.26.26,0,0,1-.09.26c-.13.09-.36-.09-.36-.09a.17.17,0,0,1-.19.21c-.25,0-.45-.41-.48-.61s-.05-.4,0-.46a.82.82,0,0,1,.4-.1c.6-.05.42,0,.53,0S15,19.32,14.76,19.54Z"/><path class="cls-1" d="M3.48,19.71c-.1.09-.26-.05-.26-.05a.27.27,0,0,1-.1.27c-.13.09-.36-.1-.36-.1s.06.22-.19.21-.45-.4-.47-.61-.05-.39,0-.46a.91.91,0,0,1,.4-.09c.61-.06.42-.05.54,0S3.73,19.48,3.48,19.71Z"/><path class="cls-1" d="M5.16,19.67c-.1.08-.26-.05-.26-.05a.26.26,0,0,1-.09.26c-.13.09-.35-.09-.35-.09s0,.21-.19.2-.43-.39-.46-.59-.05-.38,0-.45a.81.81,0,0,1,.41-.14c.58,0,.38,0,.5.07S5.4,19.45,5.16,19.67Z"/><path class="cls-2" d="M15.4,12.08a3.42,3.42,0,0,1,.47,1.08,31.12,31.12,0,0,1-.15,3.9,6.58,6.58,0,0,0,.3,1.8,4,4,0,0,1,.46-.14,2,2,0,0,1,.49,0,3.15,3.15,0,0,1-.36-1.1,30.28,30.28,0,0,1,.44-4.72,14.44,14.44,0,0,1,.6-2.42,2.44,2.44,0,0,0-1.12.71A4.52,4.52,0,0,1,15.4,12.08Z"/><path class="cls-2" d="M6.74,11.16a6.78,6.78,0,0,1-1.46,2.67c-1,1-1.64,1.69-1.59,2s1,3.06,1,3.06a2.36,2.36,0,0,0-.43,0,2.57,2.57,0,0,0-.47.14,34.12,34.12,0,0,1-1.2-3.77l.25-.52L4.67,13a5.86,5.86,0,0,0,1.2-2.05Z"/><path class="cls-2" d="M22.35.86s.36.86-.66,2.13l-1.13-.55s.86-.88,1-1S22.15.62,22.35.86Z"/><path class="cls-2" d="M.2,16.14C0,16.41,0,14.33,0,13.34s.5-4.07,1.26-5.09A4.25,4.25,0,0,1,3.37,6.56c.55-.06.78-.23.65,0s-.12.28-.71.72a3.48,3.48,0,0,0-1.25,2,12,12,0,0,1-.21,2.48A13.45,13.45,0,0,1,.2,16.14Z"/><path class="cls-1" d="M6,9.86a22.7,22.7,0,0,1,3.29.47c1,.34,2.23,1.32,4.05.1a24.3,24.3,0,0,0,4-3.71c.17.09.84-.72,1-.62s1.11-.42,1.14-.42c1.59-.29,1,.48,1,.48s-1.43.91-2.7,3.92a6.9,6.9,0,0,1-1.36,1.79c-.85.64-2.5,1.36-5.55.78C7.71,12,6.59,11,5.58,11.44Z"/><path class="cls-3" d="M2.38,10A3.41,3.41,0,0,1,4.7,6c1-.37,3.67.21,6,.29a9.21,9.21,0,0,0,3-.46,8.4,8.4,0,0,0,3.47-2.29,11.73,11.73,0,0,1,1.74-1.75C19.57,1.31,20.24.16,20.74,0s0,2.27,0,2.27a5.1,5.1,0,0,1,2.49,1.8,11.05,11.05,0,0,0,2.52,1.8c.51.3-1,1.45-1.5,1.64a4.28,4.28,0,0,1-2.57-.71,4,4,0,0,0-2.37-.5c-.15,0-1,.32-2.13,1.87-.51.7-1.66,2.25-2.2,3s-.75,3.77-.77,5a15.18,15.18,0,0,0,.13,2.53,3.53,3.53,0,0,0-.43,0,1.83,1.83,0,0,0-.51.18s0-2-.12-3.58a14.24,14.24,0,0,0-.95-3.61h-.11a21.28,21.28,0,0,1-4.3-1,8.15,8.15,0,0,0-1.62-.35,5.08,5.08,0,0,1-2.52,3.87c-.5.52-1.31.95-1.22,2a19.34,19.34,0,0,0,.54,2.64,1.84,1.84,0,0,0-.49,0,2.6,2.6,0,0,0-.45.09s-.56-2.4-.64-3.06C1.34,14.7,2.79,13.93,2.38,10Z"/><path class="cls-4" d="M25.82,6.42c-.09.07-.45.35-.61.26s.12-.85.22-.91.5.15.54.28S25.87,6.37,25.82,6.42Z"/><path class="cls-4" d="M22,4.21a.5.5,0,0,0-.75-.43A.52.52,0,0,0,22,4.21Z"/><path class="cls-5" d="M21.41,3.87a.1.1,0,0,1,.1-.09.1.1,0,0,1,.1.1.11.11,0,0,1-.1.1A.11.11,0,0,1,21.41,3.87Z"/></g></g></svg>