<svg xmlns="http://www.w3.org/2000/svg" viewBox="0 0 25.14 14.97"><defs><style>.cls-1{fill:#ccd1d3;}.cls-2{fill:#0e5567;}.cls-3{fill:#151616;}.cls-4{fill:#0e535f;}.cls-5{fill:#edf4f4;}</style></defs><g id="Layer_2" data-name="Layer 2"><g id="Layer_2-2" data-name="Layer 2"><path class="cls-1" d="M24.51,8.47A26.67,26.67,0,0,1,19,8.62c-3.2-.4-5.33-1.3-7.1-1.27s-4.1.17-6.47,3.46l-.67.27s4.52-7,9.31-6.43a32.62,32.62,0,0,1,9.75,3.19Z"/><path class="cls-2" d="M16,2c-4.39-.18-8.34,3-11.51,8.46A4.61,4.61,0,0,0,0,10.88a6,6,0,0,1,1.27.42,3.76,3.76,0,0,0,3.12.29,2.88,2.88,0,0,0,1.15,2c.58.4.52,1.4.52,1.4s1.63-2.67-.76-4c0,0,3.17-6.3,10.24-5,5.79,1,5.25,1.9,8.05,2.44,1.15.22,1.38,0,1.49-.27.31-.76-.68-1.11-.7-1.13S24,2.37,16,2Z"/><path class="cls-3" d="M21.57,5.5a.27.27,0,0,1,.31-.22.27.27,0,1,1-.31.22Z"/><path class="cls-4" d="M15.39,2.25s-.64-1.67-1.88-2c-2.38-.64.37,0-.16,2.23Z"/><path class="cls-2" d="M16.61,7.39c-.4-.62-1.46-.23-1.5.66a.86.86,0,0,1-.91.85,2.57,2.57,0,0,0,2-.08A1.25,1.25,0,0,0,16.61,7.39Z"/><path class="cls-5" d="M21.83,5.55a.1.1,0,0,1,.09-.07.08.08,0,1,1,0,.15A.06.06,0,0,1,21.83,5.55Z"/></g></g></svg>