<svg xmlns="http://www.w3.org/2000/svg" xmlns:xlink="http://www.w3.org/1999/xlink" viewBox="0 0 16.26 19.38"><defs><style>.cls-1{mask:url(#mask);filter:url(#luminosity-noclip-2);}.cls-2{mix-blend-mode:multiply;fill:url(#radial-gradient);}.cls-3{fill:#f8b322;}.cls-4{fill:#5f3f3c;}.cls-5{fill:#282726;}.cls-6{fill:#c79458;}.cls-7{fill:#306431;}.cls-8{fill:#ded28e;}.cls-9{mask:url(#mask-2);}.cls-10{fill:url(#radial-gradient-2);}.cls-11{fill:#f2aa29;}.cls-12{fill:#f0f2f4;}.cls-13{filter:url(#luminosity-noclip);}</style><filter id="luminosity-noclip" x="3.75" y="-8205.48" width="1.64" height="32766" filterUnits="userSpaceOnUse" color-interpolation-filters="sRGB"><feFlood flood-color="#fff" result="bg"/><feBlend in="SourceGraphic" in2="bg"/></filter><mask id="mask" x="3.75" y="-8205.48" width="1.64" height="32766" maskUnits="userSpaceOnUse"><g class="cls-13"/></mask><radialGradient id="radial-gradient" cx="4.57" cy="3.51" r="0.82" gradientUnits="userSpaceOnUse"><stop offset="0" stop-color="#666"/><stop offset="1" stop-color="#fff"/></radialGradient><filter id="luminosity-noclip-2" x="3.75" y="2.69" width="1.64" height="1.64" filterUnits="userSpaceOnUse" color-interpolation-filters="sRGB"><feFlood flood-color="#fff" result="bg"/><feBlend in="SourceGraphic" in2="bg"/></filter><mask id="mask-2" x="3.75" y="2.69" width="1.64" height="1.64" maskUnits="userSpaceOnUse"><g class="cls-1"><circle class="cls-2" cx="4.57" cy="3.51" r="0.82"/></g></mask><radialGradient id="radial-gradient-2" cx="4.57" cy="3.51" r="0.82" gradientUnits="userSpaceOnUse"><stop offset="0" stop-color="#f15633"/><stop offset="1" stop-color="#306431"/></radialGradient></defs><g id="Layer_2" data-name="Layer 2"><g id="Layer_2-2" data-name="Layer 2"><path class="cls-3" d="M11.32,16.57l.31.56c.11.17.19.57,0,.69s-1.2.24-1.21.47-.18.21-.17.5c0,.13-.18.15-.17.3s.63.05.8,0a3.2,3.2,0,0,0,.81-.45c.15-.2.55-.56.5-.93a2.23,2.23,0,0,0-.17-.63,4.24,4.24,0,0,1-.13-.61Z"/><path class="cls-4" d="M13.82,14.87a.45.45,0,0,0-.32-.32s.27-.4.16-.68a.56.56,0,0,0-.46-.31.55.55,0,0,0,.19-.6c-.14-.34-.9-.22-.9-.22l.89-2.08c-1.31.09-3.11-.14-4.33-.08s-2.55.32-3-2.3c0-.11,0-.21,0-.31a2.71,2.71,0,0,1-2.24-.24L3.4,8.8c-.55,1.37-1.81,7.37,4.35,8.13a9.83,9.83,0,0,0,4.19-.4h0l.08,0,.11,0A2.16,2.16,0,0,0,13.82,14.87Z"/><path class="cls-5" d="M15.81,12.91c-.16-.18-.38,0-.38,0s1-1,.8-1.78c-.07-.24-.58,0-.58,0s.82-1.05.49-1.5c-.16-.22-1.21.55-1.56.73a3,3,0,0,1-1.2.27l-.89,2.08s.76-.12.9.22a.55.55,0,0,1-.19.6.56.56,0,0,1,.46.31c.11.28-.16.68-.16.68a.45.45,0,0,1,.32.32,2.16,2.16,0,0,1-1.69,1.61l-.11,0C14.21,16.05,16,13.14,15.81,12.91Z"/><path class="cls-6" d="M6.1,11.65c0,.49.46,3.11,4.24,2.45,2.12-.37,2.73-1,2.7-1.17s-.2-.11-.2-.11,1.1-.68.93-1.14c-.09-.25-.52-.11-.52-.11s.9-.4.81-.91c-.07-.34-.66-.18-.66-.18s1-.37.71-.89-2.26.56-3.88.67C9.71,10.3,6.07,9.43,6.1,11.65Z"/><path class="cls-7" d="M6,7.14H6a4.48,4.48,0,0,1,.45-2A2.55,2.55,0,0,0,7.11.91h0c.1,0,.5-.08.4-.09A2.56,2.56,0,0,1,6.88.66c.14,0,.35-.35.26-.3A1.59,1.59,0,0,1,6.5.49c.07,0,.47-.67.18-.44a1.6,1.6,0,0,1-.82.22h0a2.63,2.63,0,0,0-.49,0A2.55,2.55,0,0,0,2.82,2.78a2.19,2.19,0,0,0,2,2.49c-.12.33-.38,1-.65,1.67A2.58,2.58,0,0,0,6,7.14Z"/><path class="cls-8" d="M6.06,8V8a5.86,5.86,0,0,1,0-.81,2.58,2.58,0,0,1-1.88-.2V7l-.3.76h0A2.71,2.71,0,0,0,6.06,8Z"/><path class="cls-8" d="M6,11.61c-.13.61.55,3,3.48,2.52,1.15-.19,1.34-.59,1.25-.77s-.33-.07-.33-.07,1.09-.39,1-.88a.24.24,0,0,0-.33-.19s.73-.31.58-.8c-.07-.23-.68-.13-.68-.13s.7-.31.54-.67-.62-.17-1.09-.16C9.68,10.47,6.49,9.07,6,11.61Z"/><path class="cls-5" d="M5.05,2.07a.32.32,0,0,0-.32-.32.32.32,0,0,0-.32.32.32.32,0,0,0,.32.32A.33.33,0,0,0,5.05,2.07Z"/><g class="cls-9"><circle class="cls-10" cx="4.57" cy="3.51" r="0.82"/></g><path class="cls-11" d="M.46,3.74C.46,4,.83,4,1,4a6.45,6.45,0,0,1,1.63-.17c.49.09.63-.2.63-.41s0-.35-.13-.4-.75.19-1.39.26c-.46.06-.81,0-1.07.07A.42.42,0,0,0,.46,3.74Z"/><path class="cls-5" d="M6.77,15h0a1.68,1.68,0,0,1-.58-.19s0,0,0-.05,0,0,0,0a1.49,1.49,0,0,0,.56.19,0,0,0,0,1,0,.06Z"/><path class="cls-5" d="M8.17,14.75a1.15,1.15,0,0,1-.53-.12s0,0,0,0,0,0,0,0a1.23,1.23,0,0,0,.63.1,0,0,0,0,1,0,0s0,0,0,0Z"/><path class="cls-5" d="M7.77,15.18a1,1,0,0,1-.4-.08,0,0,0,0,1,0,0s0,0,0,0a1,1,0,0,0,.6.06s0,0,0,0,0,0,0,0Z"/><path class="cls-5" d="M8.59,16.68a1,1,0,0,1-.4-.08,0,0,0,0,1,0,0s0,0,0,0a.92.92,0,0,0,.6.05s0,0,0,0,0,0,0,0A1.06,1.06,0,0,1,8.59,16.68Z"/><path class="cls-5" d="M7.54,15.73a.83.83,0,0,1-.47-.1,0,0,0,0,1,0,0s0,0,0,0a1.08,1.08,0,0,0,.65.08s0,0,0,0a.05.05,0,0,1,0,0Z"/><path class="cls-5" d="M7.41,16.36a1,1,0,0,1-.5-.1s0,0,0,0a0,0,0,0,1,.05,0,1.26,1.26,0,0,0,.71.07s0,0,0,0a0,0,0,0,1,0,0Z"/><path class="cls-5" d="M9.07,15.15a1,1,0,0,1-.32-.05s0,0,0,0,0,0,0,0a1,1,0,0,0,.63,0s0,0,0,0,0,0,0,0A1.29,1.29,0,0,1,9.07,15.15Z"/><path class="cls-5" d="M9.83,15a0,0,0,0,1,0-.06,2.14,2.14,0,0,0,.61-.09s0,0,0,0,0,0,0,0A2,2,0,0,1,9.83,15Z"/><path class="cls-5" d="M10.74,14.75a0,0,0,0,1,0,0s0,0,0,0a1,1,0,0,0,.47-.17h0a0,0,0,0,1,0,.05,1.13,1.13,0,0,1-.49.17Z"/><path class="cls-5" d="M11.56,14.38a0,0,0,0,1,0,0s0,0,0,0a1.27,1.27,0,0,0,.56-.21s0,0,.05,0,0,0,0,0a1.55,1.55,0,0,1-.59.23Z"/><path class="cls-5" d="M12.49,14s0,0,0,0,0,0,0,0a1.27,1.27,0,0,0,.49-.25h0a0,0,0,0,1,0,0,1.38,1.38,0,0,1-.52.27Z"/><path class="cls-5" d="M12.64,14.75l0,0s0,0,0,0a1.84,1.84,0,0,0,.55-.29,0,0,0,0,1,0,0,0,0,0,0,1,0,0,1.74,1.74,0,0,1-.57.3Z"/><path class="cls-5" d="M11.68,14.9a0,0,0,0,1,0,0s0,0,0,0a1.33,1.33,0,0,0,.52-.19h0s0,0,0,0a1.48,1.48,0,0,1-.54.22Z"/><path class="cls-5" d="M11.74,15.39h-.07a.05.05,0,0,1,0,0s0,0,0,0a.83.83,0,0,0,.54-.18s0,0,0,0,0,0,0,0A1,1,0,0,1,11.74,15.39Z"/><path class="cls-5" d="M12.8,15.39l0,0s0,0,0,0a.92.92,0,0,0,.46-.25,0,0,0,0,1,0,0s0,0,0,0a1,1,0,0,1-.5.28Z"/><path class="cls-5" d="M11.94,16s0,0,0,0,0,0,0,0a.88.88,0,0,0,.44-.18h0a0,0,0,0,1,0,0,.88.88,0,0,1-.47.2Z"/><path class="cls-5" d="M10.75,15.44h0s0,0,0,0a0,0,0,0,1,0,0,.68.68,0,0,0,.45-.17s0,0,.05,0a0,0,0,0,1,0,0A.68.68,0,0,1,10.75,15.44Z"/><path class="cls-5" d="M10.87,16a.49.49,0,0,1-.14,0s0,0,0,0a0,0,0,0,1,0,0,.77.77,0,0,0,.54-.09s0,0,0,0,0,0,0,.05A1,1,0,0,1,10.87,16Z"/><path class="cls-5" d="M10.82,16.56h0a0,0,0,0,1,0-.06h0a1.28,1.28,0,0,0,.52-.1s0,0,0,0,0,0,0,0A1.26,1.26,0,0,1,10.82,16.56Z"/><path class="cls-5" d="M9.79,16.2H9.7s0,0,0,0,0,0,0,0a1.54,1.54,0,0,0,.59-.09l0,0s0,0,0,0A1.44,1.44,0,0,1,9.79,16.2Z"/><path class="cls-5" d="M9.86,16.64H9.7a0,0,0,0,1,0,0s0,0,0,0a1.15,1.15,0,0,0,.58-.07,0,0,0,0,1,0,.06A1.07,1.07,0,0,1,9.86,16.64Z"/><path class="cls-5" d="M9.81,15.64H9.69s0,0,0,0,0,0,0,0a.86.86,0,0,0,.53-.1s0,0,0,0a0,0,0,0,1,0,0A1,1,0,0,1,9.81,15.64Z"/><path class="cls-5" d="M8.81,15.68a.88.88,0,0,1-.34,0s0,0,0,0,0,0,0,0a1.13,1.13,0,0,0,.66,0s0,0,0,0,0,0,0,0A1.2,1.2,0,0,1,8.81,15.68Z"/><path class="cls-5" d="M8.64,16.14a1.28,1.28,0,0,1-.28,0s0,0,0,0,0,0,0,0A1.21,1.21,0,0,0,9,16s0,0,0,0,0,0,0,0A1.37,1.37,0,0,1,8.64,16.14Z"/><path class="cls-5" d="M3.76,9.42s0,0,0,0a1.29,1.29,0,0,1,.1-.6s0,0,.05,0,0,0,0,0a1.28,1.28,0,0,0-.09.57A0,0,0,0,1,3.76,9.42Z"/><path class="cls-5" d="M4.41,9.42l0,0a1.1,1.1,0,0,1,0-.53s0,0,0,0,0,0,0,0a1.09,1.09,0,0,0,0,.49s0,0,0,0Z"/><path class="cls-5" d="M5,9.37l0,0a1.16,1.16,0,0,1-.12-.46s0,0,0,0a0,0,0,0,1,0,0A1.17,1.17,0,0,0,5,9.32s0,0,0,0Z"/><path class="cls-5" d="M5.64,9.37l0,0a1.9,1.9,0,0,1-.17-.54s0,0,0,0a0,0,0,0,1,0,0,2.06,2.06,0,0,0,.16.52s0,0,0,0Z"/><path class="cls-5" d="M6,10.34l0,0a1.13,1.13,0,0,1-.13-.41,0,0,0,1,1,.06,0,1.18,1.18,0,0,0,.12.38s0,0,0,0Z"/><path class="cls-5" d="M5.56,10.48l0,0A1,1,0,0,1,5.37,10a0,0,0,0,1,0,0l0,0a1,1,0,0,0,.16.43s0,0,0,0Z"/><path class="cls-5" d="M5,10.48l0,0A1.51,1.51,0,0,1,4.79,10a0,0,0,0,1,0,0s0,0,0,0a1.47,1.47,0,0,0,.12.43s0,0,0,0Z"/><path class="cls-5" d="M4.29,10.54s0,0,0,0A1.32,1.32,0,0,1,4.18,10s0,0,0,0a0,0,0,0,1,0,0,1.44,1.44,0,0,0,.08.49s0,0,0,0Z"/><path class="cls-5" d="M3.63,10.54l0,0a1,1,0,0,1,0-.53s0,0,0,0,0,0,0,0a.81.81,0,0,0,0,.49s0,0,0,0Z"/><path class="cls-5" d="M3.29,12a0,0,0,0,1,0,0,1.14,1.14,0,0,1,0-.66s0,0,0,0,0,0,0,0a1.08,1.08,0,0,0,0,.62.05.05,0,0,1,0,0Z"/><path class="cls-5" d="M3.88,12l0,0a1.18,1.18,0,0,1,0-.64s0,0,0,0,0,0,0,0a1,1,0,0,0,0,.59s0,0,0,0Z"/><path class="cls-5" d="M4.54,12s0,0,0,0a1.57,1.57,0,0,1-.07-.63,0,0,0,0,1,0,0s0,0,0,0a1.43,1.43,0,0,0,.07.6s0,0,0,0Z"/><path class="cls-5" d="M5.22,11.82l0,0a1.13,1.13,0,0,1-.12-.58,0,0,0,0,1,0,0s0,0,0,0a1,1,0,0,0,.12.54s0,0,0,0Z"/><path class="cls-5" d="M5.85,11.69l0,0a3.58,3.58,0,0,1-.21-.53s0,0,0,0,0,0,0,0a2.68,2.68,0,0,0,.21.52s0,0,0,0Z"/><path class="cls-5" d="M3.76,13.57h0a1.42,1.42,0,0,1-.24-.68,0,0,0,1,1,.06,0,1.38,1.38,0,0,0,.23.64,0,0,0,0,1,0,0Z"/><path class="cls-5" d="M4.41,13.39h0a1.76,1.76,0,0,1-.21-.65s0,0,0,0,0,0,0,0a1.77,1.77,0,0,0,.2.61,0,0,0,0,1,0,.05Z"/><path class="cls-5" d="M5.16,13.24h0a1.07,1.07,0,0,1-.27-.58,0,0,0,1,1,.06,0,1,1,0,0,0,.26.54,0,0,0,0,1,0,0Z"/><path class="cls-5" d="M5.75,13.08h0a1.22,1.22,0,0,1-.27-.58,0,0,0,0,1,0,0l0,0a1.16,1.16,0,0,0,.26.54,0,0,0,0,1,0,.05Z"/><path class="cls-5" d="M6.31,14h0A.71.71,0,0,1,6,13.66s0,0,0,0,0,0,0,0a.72.72,0,0,0,.26.34s0,0,0,0Z"/><path class="cls-5" d="M5.91,14.46h0A1.48,1.48,0,0,1,5.45,14a0,0,0,0,1,0,0s0,0,0,0a1.24,1.24,0,0,0,.42.47,0,0,0,0,1,0,0Z"/><path class="cls-5" d="M7.08,14.58h0a1.16,1.16,0,0,1-.47-.21,0,0,0,0,1,0,0h0a.92.92,0,0,0,.44.2s0,0,0,0S7.1,14.58,7.08,14.58Z"/><path class="cls-5" d="M6.31,15.58h0a3,3,0,0,1-.57-.28s0,0,0-.05h0a2.22,2.22,0,0,0,.55.27s0,0,0,0S6.32,15.58,6.31,15.58Z"/><path class="cls-5" d="M6,16.09H6a1.72,1.72,0,0,1-.66-.28s0,0,0-.05h0a1.45,1.45,0,0,0,.63.27s0,0,0,0A0,0,0,0,1,6,16.09Z"/><path class="cls-5" d="M5.22,14.75h0a1.85,1.85,0,0,1-.4-.5,0,0,0,0,1,0,0s0,0,0,0a2,2,0,0,0,.39.48,0,0,0,0,1,0,0Z"/><path class="cls-5" d="M4.63,15.3h0a2.71,2.71,0,0,1-.49-.61s0,0,0,0a0,0,0,0,1,0,0,2.37,2.37,0,0,0,.47.6s0,0,0,0S4.64,15.3,4.63,15.3Z"/><path class="cls-3" d="M9.07,16.19c.34-.06.45.16.44.29a3.88,3.88,0,0,0,0,1.14c.06.25.25.32.15.54S6,20,6.44,19.08c.06-.12.3-.11.17-.34s.06-.22.14-.27-.07-.17.11-.33S9,17.91,9,17.8a4,4,0,0,0-.17-1C8.77,16.59,8.62,16.28,9.07,16.19Z"/><path class="cls-3" d="M0,3c0-.27.18-.38.55-.3a3.42,3.42,0,0,0,1.91-.42c.37-.31.55-.62.86-.42s-.12.51-.15.69.08.38,0,.47S.12,3.74,0,3Z"/><path class="cls-12" d="M4.91,2a.09.09,0,1,0-.09.09A.09.09,0,0,0,4.91,2Z"/></g></g></svg>