<svg xmlns="http://www.w3.org/2000/svg" viewBox="0 0 21.3 20.81"><defs><style>.cls-1{fill:#c18f4d;}.cls-2{fill:#1a1615;}.cls-3{fill:#af7f46;}.cls-4{fill:#3e3636;}.cls-5{fill:#1c1817;}.cls-6{fill:#28201f;}</style></defs><g id="Layer_2" data-name="Layer 2"><g id="Layer_2-2" data-name="Layer 2"><circle class="cls-1" cx="12.57" cy="8.73" r="8.73" transform="translate(1.19 18.96) rotate(-76.72)"/><path class="cls-2" d="M4.15,8.89a3,3,0,0,1,.5-1.45c.29-.32.33-.39.16-.35-.51.1-.56.71-.62.55s-.38-.25-.3-.13A.77.77,0,0,1,4,8.28s-.29-.25-.46,0a.45.45,0,0,1,.31.68.4.4,0,0,0-.55,0s.41.11.46.37A3.65,3.65,0,0,0,4,10.41a.21.21,0,0,1,.33-.11A2.29,2.29,0,0,1,4.15,8.89Z"/><path class="cls-2" d="M3,15.21v-.12a1.3,1.3,0,0,0-1,.58.24.24,0,0,0-.26.21A.23.23,0,0,0,2,16.1c.13,0,.21-.07.22-.19a.23.23,0,0,0-.08-.2A1.3,1.3,0,0,1,3,15.21Z"/><path class="cls-2" d="M6.45,18a1.82,1.82,0,0,0-.12-1.31l-.13.08a1.77,1.77,0,0,1,.11,1.18c-.18,0-.25.09-.25.2a.25.25,0,0,0,.25.24.2.2,0,0,0,.21-.22A.21.21,0,0,0,6.45,18Z"/><path class="cls-3" d="M16.93,7.29c.74,5.22-2.47,8-1.2,8.64s6-4.24,4.38-9.67-7-6.08-7.49-4.92S16.21,2.23,16.93,7.29Z"/><path class="cls-4" d="M13,8.62,13,8.69a.25.25,0,0,1,.21,0,.36.36,0,0,1,.16.47l.08-.1A.42.42,0,0,0,13,8.62Z"/><path class="cls-2" d="M13.17,8.71a.25.25,0,0,0-.21,0c-.36.1-.9.65-1.44.49a5.75,5.75,0,0,1-.18,1.35A4.58,4.58,0,0,0,13,9.59a1.15,1.15,0,0,0,.3-.41A.36.36,0,0,0,13.17,8.71Z"/><path class="cls-2" d="M14.39,7.55c-.48,0,.68-.9.59-1.06s-.3.25-.53.19.55-.76.46-.93-.33.2-.46.14.29-.75.27-.8-.19.09-.32.1c-.34,0-.2-.41-.34-.77s-.15.35-.12.56a7,7,0,0,1,0,1.74A4.16,4.16,0,0,1,13,8.62h0a.42.42,0,0,1,.39.46h0A11.9,11.9,0,0,1,14.22,8c.21-.21.72-.46.7-.57S14.55,7.56,14.39,7.55Z"/><path class="cls-4" d="M6,6.31a.57.57,0,0,0,0,.13.41.41,0,0,1,.24-.31.32.32,0,0,1,.37.12s0-.06,0-.09A.37.37,0,0,0,6,6.31Z"/><path class="cls-2" d="M10,2.82c-.23.33-.72.52-.66.28s0-.29,0-.28-.17.49-.44.43-.05-.44-.12-.43-.31.74-.59.77-.22-.52-.3-.52-.16.75-.43.89-.23-.4-.3-.39S7,4,6.82,4.28a4,4,0,0,0-.56.89A5.14,5.14,0,0,0,6,6.32H6a.37.37,0,0,1,.58-.15h0a2,2,0,0,1,.61-1.49A5.59,5.59,0,0,1,9.5,3.42C10,3.26,10.11,2.59,10,2.82Z"/><path class="cls-2" d="M6.59,6.25a.32.32,0,0,0-.37-.12A.41.41,0,0,0,6,6.44a2.69,2.69,0,0,0,.14,1.17l.7-.41A2.1,2.1,0,0,0,6.59,6.25Z"/><path class="cls-4" d="M8.58,16.83a.11.11,0,0,0,0-.07c0,.12,0,.2-.1.22a.43.43,0,0,1-.28-.05l0,.05C8.52,17.12,8.58,16.88,8.58,16.83Z"/><path class="cls-2" d="M7.86,15.17a2.21,2.21,0,0,1-1,.3,5.61,5.61,0,0,0,1.28,1.46.43.43,0,0,0,.28.05c.08,0,.11-.1.1-.22A3.79,3.79,0,0,0,7.86,15.17Z"/><path class="cls-2" d="M9.36,18.67s-.49-.14-.54-.45a4.45,4.45,0,0,0-.24-1.39h0c0,.05-.06.29-.38.15h0a2.68,2.68,0,0,1,.07,1.69,3.56,3.56,0,0,1-.68,1.72c-.38.36-.43.45-.22.41.63-.1.72-.83.79-.64s.45.31.36.17a.93.93,0,0,1,0-.92s.35.3.57,0a.55.55,0,0,1-.35-.83A.49.49,0,0,0,9.36,18.67Z"/><path class="cls-4" d="M1.67,14a.17.17,0,0,1,.06-.16.08.08,0,0,0-.07,0h0a.18.18,0,0,0,.11.29l0,0C1.73,14.1,1.68,14.06,1.67,14Z"/><path class="cls-2" d="M3.37,13.24s-1.34.24-1.64.6a.17.17,0,0,0-.06.16c0,.06.06.1.14.13a4.33,4.33,0,0,0,1.22,0,4.28,4.28,0,0,0,.63-.11A3.28,3.28,0,0,1,3.37,13.24Z"/><path class="cls-2" d="M1.78,14.15a.18.18,0,0,1-.11-.29h0c-.54.21-.82.82-1,1.06s-.66.14-.66.14a.47.47,0,0,0,.59.26c0,.71-.59.57-.59.57.06.32.55.18.55.18,0,.34-.36.73-.52.86s.32,0,.48-.07.14.5-.15.83c-.13.15.5,0,.5-.52s.05-.92.07-1.62a1.64,1.64,0,0,1,.86-1.41Z"/><path class="cls-4" d="M10.44,13.52a.46.46,0,0,0-.14-.07h-.05a.38.38,0,0,1,.24.2.2.2,0,0,1-.09.18l0,0A.17.17,0,0,0,10.44,13.52Z"/><path class="cls-2" d="M10.49,13.65a.38.38,0,0,0-.24-.2,4.83,4.83,0,0,0-1.67,0,1,1,0,0,1,.12.84,3.78,3.78,0,0,0,1.7-.44A.2.2,0,0,0,10.49,13.65Z"/><path class="cls-2" d="M12.65,11.67c-.19,0,.15-.18,0-.78,0-.19-.1-.26-.16.23a3.26,3.26,0,0,1-.89,1.53,3.38,3.38,0,0,1-1.32.8h0a.46.46,0,0,1,.14.07.17.17,0,0,1,0,.29l0,0c.5-.22.88-.47,1.11-.59a1,1,0,0,1,.63,0,.42.42,0,0,0-.34-.29c.3-.61.73-.37.73-.37a.34.34,0,0,0-.27-.24.77.77,0,0,1,.61-.52C13,11.79,12.74,11.66,12.65,11.67Z"/><path class="cls-4" d="M3.81,14.32l0,0s-.06.07-.06.1c.33.12.71.47,1.32.74.89.39,1.32.37,1.59.52a.17.17,0,0,0,0-.15A4.14,4.14,0,0,1,5,15.05,5.5,5.5,0,0,1,3.81,14.32Z"/><path class="cls-5" d="M6.63,15.64h0c-.27-.15-.7-.13-1.59-.52-.61-.27-1-.62-1.32-.74a.54.54,0,0,0-.65.17c-.31.31,0,.79-.4,1.17,0,0,.49-.15.2.47,0,0,.74-.33.7.64,0,0,.95-.64,1,.49,0,0,.78-.94.91.22,0,0,.28-.73.49-.07,0,0,.12-.48.36-.57S7.13,15.92,6.63,15.64Z"/><path class="cls-4" d="M6,12.28A21.85,21.85,0,0,1,9.34,6.77s0,0-.05,0a21.92,21.92,0,0,0-3.36,5.48v0a3.54,3.54,0,0,0-2.47,0v.07a3.62,3.62,0,0,1,2.59,0,6.69,6.69,0,0,1,2.57,2l.06-.06h0A6.54,6.54,0,0,0,6,12.28Z"/><path class="cls-6" d="M5.93,12.25v0A21.92,21.92,0,0,1,9.29,6.75h0S8,5.87,5.68,7.85a6.48,6.48,0,0,0-2.22,4.44h0A3.54,3.54,0,0,1,5.93,12.25Z"/><path class="cls-6" d="M8.64,14.41l0,0a6.69,6.69,0,0,0-2.57-2,3.62,3.62,0,0,0-2.59,0,.42.42,0,0,0-.13.14,2.45,2.45,0,0,0,.45,1.78l0,0A5.5,5.5,0,0,0,5,15.05a4.14,4.14,0,0,0,1.66.44A2.44,2.44,0,0,0,8,15.17C8.63,14.79,8.73,14.53,8.64,14.41Z"/><path class="cls-6" d="M11.62,8.66A2.77,2.77,0,0,0,9.35,6.75v0A21.85,21.85,0,0,0,6,12.28a6.54,6.54,0,0,1,2.68,2.05h0A6.09,6.09,0,0,0,11.62,8.66Z"/></g></g></svg>