<svg xmlns="http://www.w3.org/2000/svg" xmlns:xlink="http://www.w3.org/1999/xlink" viewBox="0 0 31.89 23"><defs><style>.cls-1{mask:url(#mask);filter:url(#luminosity-noclip-2);}.cls-2{mix-blend-mode:multiply;fill:url(#radial-gradient);}.cls-3{fill:#677bab;}.cls-4{fill:#323233;}.cls-5{fill:#7085c2;}.cls-6{fill:#f1f9fb;}.cls-7{fill:#798ebf;}.cls-8{fill:#8599ce;}.cls-9{fill:#030303;}.cls-10{fill:#7c91c1;}.cls-11{mask:url(#mask-2);}.cls-12{fill:url(#radial-gradient-2);}.cls-13{fill:#eef1f4;}.cls-14{filter:url(#luminosity-noclip);}</style><filter id="luminosity-noclip" x="18.84" y="-8206.9" width="2.53" height="32766" filterUnits="userSpaceOnUse" color-interpolation-filters="sRGB"><feFlood flood-color="#fff" result="bg"/><feBlend in="SourceGraphic" in2="bg"/></filter><mask id="mask" x="18.84" y="-8206.9" width="2.53" height="32766" maskUnits="userSpaceOnUse"><g class="cls-14"/></mask><radialGradient id="radial-gradient" cx="-158.12" cy="19.08" r="0.71" gradientTransform="matrix(-1.74, 0.01, 0.01, 1.69, -254.37, -20.82)" gradientUnits="userSpaceOnUse"><stop offset="0" stop-color="#666"/><stop offset="1" stop-color="#fff"/></radialGradient><filter id="luminosity-noclip-2" x="18.84" y="9.36" width="2.53" height="2.32" filterUnits="userSpaceOnUse" color-interpolation-filters="sRGB"><feFlood flood-color="#fff" result="bg"/><feBlend in="SourceGraphic" in2="bg"/></filter><mask id="mask-2" x="18.84" y="9.36" width="2.53" height="2.32" maskUnits="userSpaceOnUse"><g class="cls-1"><path class="cls-2" d="M18.84,10.52a1.27,1.27,0,0,1,2.53,0,1.27,1.27,0,0,1-2.53,0Z"/></g></mask><radialGradient id="radial-gradient-2" cx="-158.12" cy="19.08" r="0.71" gradientTransform="matrix(-1.74, 0.01, 0.01, 1.69, -254.37, -20.82)" gradientUnits="userSpaceOnUse"><stop offset="0" stop-color="#f37e84"/><stop offset="1" stop-color="#8599ce"/></radialGradient></defs><g id="Layer_2" data-name="Layer 2"><g id="Layer_2-2" data-name="Layer 2"><path class="cls-3" d="M20.24,15.48c3.11,1.61,2.14,3.87,2.14,3.87l-.08.06c0-.22,0-.65-.31-.65s-.3.54-.29.72h-.07c0-.17,0-.72-.31-.72s-.3.55-.29.72H21c0-.18,0-.71-.3-.72s-.29.48-.3.68a2.15,2.15,0,0,1-.34-.05c-.07-.14-.05-1.65-1.08-1.65S20.24,15.48,20.24,15.48Z"/><path class="cls-4" d="M21.32,18.76c.32,0,.32.55.31.72H21C21,19.31,21,18.76,21.32,18.76Z"/><path class="cls-4" d="M20.66,18.76c.32,0,.31.54.3.72a4.47,4.47,0,0,1-.6,0C20.37,19.24,20.4,18.76,20.66,18.76Z"/><path class="cls-4" d="M22,18.76c.28,0,.31.43.31.65a2,2,0,0,1-.6.07C21.69,19.3,21.71,18.76,22,18.76Z"/><path class="cls-3" d="M8.3,22.22c-.25,0-.32.41-.34.63a5.73,5.73,0,0,1-1.16-.42l.54-4.32,2.23,1.13s0,3.37-.13,3.51a.38.38,0,0,1-.17.11c0-.22,0-.64-.31-.64s-.3.56-.29.72H8.55C8.58,22.75,8.6,22.25,8.3,22.22Z"/><path class="cls-4" d="M8.3,22.22c.3,0,.28.53.25.72A3.7,3.7,0,0,1,8,22.85C8,22.63,8.05,22.2,8.3,22.22Z"/><path class="cls-4" d="M9,22.22c.28,0,.31.42.31.64a1.61,1.61,0,0,1-.6.08C8.66,22.78,8.67,22.22,9,22.22Z"/><path class="cls-5" d="M.81,14a2,2,0,0,0,1.33.51A1,1,0,0,0,2.83,14c.7-1.08,1.44-1.16,1.88-1.08a6.93,6.93,0,0,1,.65-1.67c.47-.71,6.11-7.18,15.24-.76,0,0,1.09,5.52-1.42,7.44l-.24.18v4.42l-.13.07c0-.23-.1-.58-.36-.56s-.25.58-.23.75h-.08c0-.19-.07-.69-.37-.66s-.25.52-.23.72h-.11c0-.2,0-.7-.29-.71s-.3.4-.31.62a3.33,3.33,0,0,1-.67-.23V19.6a10.26,10.26,0,0,1-8.26-.17l-.2,3.34-.27.1c0-.22-.08-.64-.36-.62s-.26.56-.24.74H6.72c0-.13,0-.74-.3-.74s-.3.54-.3.72L6,23c0-.19.07-.7-.24-.73s-.32.33-.35.56a2.64,2.64,0,0,1-.5-.27l.2-5.21h0a5.4,5.4,0,0,1-.48-4.15c-.36-.07-1,0-1.6,1a1.24,1.24,0,0,1-.88.6H2a2.47,2.47,0,0,1-1.37-.57Z"/><path class="cls-4" d="M17.78,22.12c.3,0,.36.47.37.66a2.77,2.77,0,0,1-.6.06C17.53,22.64,17.51,22.14,17.78,22.12Z"/><path class="cls-4" d="M18.46,22c.26,0,.34.33.36.56a3.41,3.41,0,0,1-.59.19C18.21,22.6,18.18,22.05,18.46,22Z"/><path class="cls-4" d="M17.15,22.13c.31,0,.3.51.29.71a3.36,3.36,0,0,1-.6-.09C16.85,22.53,16.91,22.12,17.15,22.13Z"/><path class="cls-4" d="M7.07,22.25c.28,0,.34.4.36.62a3.54,3.54,0,0,1-.6.12C6.81,22.81,6.79,22.27,7.07,22.25Z"/><path class="cls-4" d="M5.78,22.22c.31,0,.26.54.24.73a3.24,3.24,0,0,1-.59-.17C5.46,22.55,5.55,22.2,5.78,22.22Z"/><path class="cls-4" d="M6.42,22.25c.33,0,.31.61.3.74a3,3,0,0,1-.6,0C6.12,22.79,6.14,22.25,6.42,22.25Z"/><path class="cls-6" d="M26.38,10.44a4.46,4.46,0,0,1-2.16.63c-.12,0,.71.75.77.78a1.74,1.74,0,0,0,1-.46C26.3,11,26.45,10.52,26.38,10.44Z"/><path class="cls-7" d="M22.51,5.34s3-5.46,3.3-5.34a5.66,5.66,0,0,1,2.87,4c.56,2.77.12,1,.52,3.15.13.72,0,1.56.13,2,.08.25-1,.35-1,.35H25Z"/><path class="cls-8" d="M31.13,13s-5.74.8-5.93-4a4.69,4.69,0,0,0-7.8-3.38c-2.71,2.54-.12,7,3,7.61s4.58,1.13,5.8,1.35a24.34,24.34,0,0,0,4.9.15Z"/><path class="cls-9" d="M22.47,8.79a.27.27,0,0,0-.25-.29.28.28,0,0,0-.26.29.29.29,0,0,0,.26.3A.28.28,0,0,0,22.47,8.79Z"/><path class="cls-9" d="M24.09,8.18a.25.25,0,0,0-.22-.26.25.25,0,0,0-.22.26.24.24,0,0,0,.22.26A.23.23,0,0,0,24.09,8.18Z"/><path class="cls-6" d="M23.57,11.53a4.34,4.34,0,0,1-2.15.63c-.12,0,0,.79.77.78a2,2,0,0,0,1-.46C23.5,12.12,23.64,11.61,23.57,11.53Z"/><path class="cls-8" d="M16.6,8a9.25,9.25,0,0,0-5.34-3.46A22.86,22.86,0,0,0,9,4.06,17.38,17.38,0,0,0,9.4,9c.6,2.22.34,5.07,1.6,6.49A4.82,4.82,0,0,0,13.34,15c.67-.29,1.66-.22,2.25-1.84a3.42,3.42,0,0,1,2.21-2Z"/><path class="cls-10" d="M30.41,13.55a.79.79,0,0,1,1-.54.8.8,0,0,1,.4,1.08.86.86,0,0,1-1,.6A.85.85,0,0,1,30.41,13.55Z"/><path class="cls-4" d="M30.55,13.61a.64.64,0,0,1,.81-.43.63.63,0,0,1,.31.86.61.61,0,1,1-1.12-.43Z"/><path class="cls-7" d="M0,13.53s1.51-.15,1.48,1A1.2,1.2,0,0,1,0,13.53Z"/><g class="cls-11"><path class="cls-12" d="M18.84,10.52a1.27,1.27,0,0,1,2.53,0,1.27,1.27,0,0,1-2.53,0Z"/></g><path class="cls-13" d="M22.35,8.73a.07.07,0,0,0-.07-.06.06.06,0,0,0-.06.06.06.06,0,0,0,.06.06S22.35,8.77,22.35,8.73Z"/><path class="cls-13" d="M24,8.13a.06.06,0,1,0-.12,0,.06.06,0,0,0,.12,0Z"/></g></g></svg>