<svg xmlns="http://www.w3.org/2000/svg" viewBox="0 0 18.3 22.87"><defs><style>.cls-1{fill:#78634e;}.cls-2{fill:#846d54;}.cls-3{fill:#2d323c;}.cls-4{fill:#283e82;}.cls-5{fill:#8a3129;}.cls-6{fill:#2f478a;}.cls-7{fill:#b79662;}.cls-8{fill:#1b1c1e;}</style></defs><g id="Layer_2" data-name="Layer 2"><g id="Layer_2-2" data-name="Layer 2"><path class="cls-1" d="M15.75,2.94l.47.09a3.08,3.08,0,0,1,1.1-.35c.4,0,1,.21,1,.1a1.56,1.56,0,0,0-1.75-.58C15.53,2.47,15.75,2.94,15.75,2.94Z"/><path class="cls-2" d="M8.12,15.56s-.14,1.21-.23,1.5a3.18,3.18,0,0,0-.22.94c0,.27.46,3.35.44,3.82,0,.29-.15.43-.07.62s.63.11,1,.11,1.44.09,1.42-.15-1.31-.29-1.53-.54a6.45,6.45,0,0,1-.3-2,7.13,7.13,0,0,1,0-2,5.91,5.91,0,0,0,1-2.36l-1.44.08Z"/><path class="cls-2" d="M6.61,15.89a14.33,14.33,0,0,0-1.67,2.05,17.29,17.29,0,0,0-.09,3.89c.1.15.54.61.7.63s.62,0,.59.24-1,.22-1.12.12-1-.58-1-.88.21-.31.21-.51-.09-3.22,0-3.57S4.69,16,4.94,16,6.58,15.7,6.61,15.89Z"/><path class="cls-3" d="M6.5,22.69s-.12-.21-.3-.21-.28.14-.25.18S6.24,22.54,6.5,22.69Z"/><path class="cls-3" d="M10.79,22.48s-.11-.22-.29-.24-.28.12-.26.17S10.54,22.31,10.79,22.48Z"/><path class="cls-2" d="M14.47,0c-.45,0-1.23.72,0,1.94s2.28-.1,2.14-.44A2,2,0,0,0,14.47,0Z"/><path class="cls-2" d="M16.46,2.47a1.62,1.62,0,0,1,1.84.31s.13-.62-2-1.62Z"/><path class="cls-4" d="M15.27,3a3.34,3.34,0,0,1-.63-1.17c0-.38.51-.86.51-.86a2.81,2.81,0,0,0-1.56,1.82c-.31,1.21,0,1.53.09,2.82a7.56,7.56,0,0,1,.6,2,20.3,20.3,0,0,1,.18,2.09,6.81,6.81,0,0,0,.3-4.79C14.28,2.6,15.27,3,15.27,3Z"/><path class="cls-3" d="M13.68,5.6c0,.15,0,.31,0,.49,0,1.72-.69,2.1-.69,2.1l.72,3.27a16.77,16.77,0,0,0,.74-1.75,20.3,20.3,0,0,0-.18-2.09A7.56,7.56,0,0,0,13.68,5.6Z"/><path class="cls-5" d="M14.6,11.17c.29-.1.6-.65.62-1.76a16.22,16.22,0,0,0-.17-2.55,19,19,0,0,1-.47,2.28A8.75,8.75,0,0,1,14,10.5C13.87,10.82,13.93,11.38,14.6,11.17Z"/><path class="cls-5" d="M13.94,7.74c-.16.49-.5.89-.57.81s-.47-.47-.47-.47a2.31,2.31,0,0,0,.57-1,9,9,0,0,0,.18-1.94A3.34,3.34,0,0,1,13.94,7.74Z"/><path class="cls-6" d="M15.15,1c.46-.13,1.64.1,1.57,1.1a1.06,1.06,0,0,1-1,1.12c-.26,0-1.17-.05-1.36-.81A1.1,1.1,0,0,1,15.15,1Z"/><path class="cls-7" d="M16,1.76a.34.34,0,0,0-.34-.34.35.35,0,0,0-.35.34.35.35,0,0,0,.35.35A.35.35,0,0,0,16,1.76Z"/><path class="cls-8" d="M15.88,1.8a.2.2,0,1,0-.4,0,.2.2,0,0,0,.4,0Z"/><path class="cls-3" d="M9.4,16.31a1.18,1.18,0,0,1-.27-.3,1.63,1.63,0,0,1-.13.31,1,1,0,0,1-.23-.26c0,.09-.19.43-.19.43a.73.73,0,0,1-.17-.43c0,.16-.46.36-.46.36a1.05,1.05,0,0,0,0-.48c-.14.14-.38.35-.38.35a2.27,2.27,0,0,0-.34-.66,3.44,3.44,0,0,0-.19.42c0-.17-.24-.33-.24-.33,0,.55-.21.5-.21.5A.36.36,0,0,0,6.33,16a1.36,1.36,0,0,1-.21.44A.31.31,0,0,1,6,16.22C6,16,5.88,16,5.88,16c0,.21-.34.48-.34.48a.7.7,0,0,1-.31-.27,1.81,1.81,0,0,1-.24.38,1.89,1.89,0,0,0-.19-.34.35.35,0,0,0-.08.18.81.81,0,0,1-.13.27l-.26-.35a.92.92,0,0,1-.22.38A1.42,1.42,0,0,0,4,16.15c.05.1-.33.48-.33.48a1.93,1.93,0,0,0-.3-.67,1,1,0,0,0,0,.31.58.58,0,0,1-.18.39,1.28,1.28,0,0,0-.2-.4,1.26,1.26,0,0,1-.17-.37,2.77,2.77,0,0,0-.33.76,1.29,1.29,0,0,0-.21-.34A1.24,1.24,0,0,1,2.06,16a1.59,1.59,0,0,0-.34.72,1.34,1.34,0,0,1-.33-.85,5.18,5.18,0,0,0-.29.77h0L.87,15.9a8,8,0,0,1-.8-2.64,5.36,5.36,0,0,1,3.35-6c2.41-1,5.54-.16,6.11-.06s3.28.14,3.9,1.4a4.44,4.44,0,0,1,0,3.68c-.43.67-.34.87-.34.87s-.29-.25-.28-.43c0,0,.06.8-.14,1l-.22-.26a3.22,3.22,0,0,1-.15.57.53.53,0,0,0-.05.34,1.65,1.65,0,0,1-.42-.48,2.31,2.31,0,0,1-.25.81,2.77,2.77,0,0,1-.31-.33,1.47,1.47,0,0,1-.12.6c-.12.19-.18.31-.18.31a2.07,2.07,0,0,1-.36-.39.53.53,0,0,0-.14.36.71.71,0,0,1-.15.41l-.22-.31a.58.58,0,0,1-.07.31.85.85,0,0,0-.09.4l-.26-.44a.67.67,0,0,0-.11.35A1,1,0,0,1,9.4,16.31Z"/></g></g></svg>