<svg xmlns="http://www.w3.org/2000/svg" viewBox="0 0 30.66 13.06"><defs><style>.cls-1{fill:#b6835c;}.cls-2{fill:#eebb89;}.cls-3{fill:#c69160;}.cls-4{fill:#292827;}.cls-5{fill:#fed2a7;}.cls-6{fill:#715353;}.cls-7{fill:#f0f2f4;}</style></defs><g id="Layer_2" data-name="Layer 2"><g id="Layer_2-2" data-name="Layer 2"><path class="cls-1" d="M.83.78S.32.52.1.85a.46.46,0,0,0,.22.71Z"/><path class="cls-1" d="M4.75.84s.51-.57.81,0-.4.72-.4.72Z"/><path class="cls-1" d="M6.86,8.79s0,2.12-.45,2.58-.7.37-.94.66a.47.47,0,0,0,0,.64A1.51,1.51,0,0,0,7,12.41c.71-.5.4-2.64.4-2.64l-.07-1Z"/><path class="cls-2" d="M4,2.83a1.54,1.54,0,0,0-1.53-.27,2,2,0,0,1-1.22,0A2.73,2.73,0,0,0,.19,3.62C.12,4,1.57,4.69,2.08,5c1,.64,2,2.21,3.24,3.31A7.63,7.63,0,0,0,7,9.28a6,6,0,0,0-.19-1.6A15.21,15.21,0,0,0,4,2.83Z"/><path class="cls-1" d="M18.37,11a1.37,1.37,0,0,0-.44-.42c-.5.2-1.43.64-1.56,1.13-.1.32.22.47.59.54,0,0,0,0,0,0C17.2,11.93,18.56,11.4,18.37,11Z"/><path class="cls-3" d="M30.54,8.78c-1.3-1.06-6.32.73-8.86-2.74-2.28-3.12-3.56-4-6.27-3.93s-4.86,3-6.69,3c-.67,0-1.5,0-3.32-3.47A2.53,2.53,0,0,0,2.71,0C1,0-.07.86.12,3c0,.28.38-.35.56-.42a1.31,1.31,0,0,1,.59,0,2,2,0,0,0,1.22,0A1.54,1.54,0,0,1,4,2.83,15.21,15.21,0,0,1,6.83,7.68,6,6,0,0,1,7,9.28a19.2,19.2,0,0,1-.11,2.32c-.08.75-.71.18-.75,1.31,0,.2,1.74.28,1.87-.31.26-1.18.81-3.07.81-3.07a20.69,20.69,0,0,0,7.64-.8,2.94,2.94,0,0,0,1.45,1.81,1.37,1.37,0,0,1,.44.42c.19.44-1.17,1-1.39,1.22,0,0,0,0,0,0-.16.26.39.68.63.69A6.14,6.14,0,0,0,20.37,11c0-.48-.92-.53-.36-.87A2.14,2.14,0,0,0,20.79,9C23.94,11.12,31.73,9.74,30.54,8.78Z"/><circle class="cls-4" cx="3.41" cy="1.84" r="0.28"/><path class="cls-4" d="M.87,2A.28.28,0,0,0,.6,1.72.28.28,0,0,0,.32,2,.28.28,0,1,0,.87,2Z"/><path class="cls-5" d="M2,4.59a3.09,3.09,0,0,0,.77-.25c.35-.12,1.34-.19,1.34-1.09C4.13,2.11,2.83,2,2,2.63c-.14.11-.26,0-.42-.1C.76,2.28.05,2.3,0,3.24S.87,4.32,1.26,4.42A2.13,2.13,0,0,0,2,4.59Z"/><path class="cls-6" d="M1.07,4a.49.49,0,0,1-.43-.33.06.06,0,0,1,0-.08.06.06,0,0,1,.07,0s.12.29.37.26a.73.73,0,0,0,.44-.21.52.52,0,0,1,.35-.16h0a.69.69,0,0,1,.43.2.58.58,0,0,0,.4.16.55.55,0,0,0,.41-.33.07.07,0,0,1,.08,0s0,0,0,.08a.66.66,0,0,1-.5.39.63.63,0,0,1-.47-.18A.65.65,0,0,0,1.9,3.6h0a.43.43,0,0,0-.28.13A.86.86,0,0,1,1.13,4Z"/><path class="cls-4" d="M1.85,3.07c.11,0,.89-.45.69-.73s-.62.12-.69.12-.4-.33-.6-.1S1.7,3.07,1.85,3.07Z"/><path class="cls-5" d="M9.57,6a1.57,1.57,0,0,1-.29,0,.06.06,0,0,1,0-.11,1.22,1.22,0,0,0,.5,0s.07,0,.07,0a0,0,0,0,1,0,.06A.84.84,0,0,1,9.57,6Z"/><path class="cls-5" d="M10.74,5.36l0,0a.06.06,0,0,1,0-.08,1.49,1.49,0,0,1,.71-.33.07.07,0,0,1,.06.05.06.06,0,0,1-.05.06,1.32,1.32,0,0,0-.64.3Z"/><path class="cls-5" d="M12.93,4.34l0,0a0,0,0,0,1,0-.07,1.18,1.18,0,0,1,.64-.36.06.06,0,0,1,.06,0,0,0,0,0,1,0,.06,1.13,1.13,0,0,0-.57.32Z"/><path class="cls-5" d="M14.13,3.37l0,0a.06.06,0,0,1,0-.08A1.63,1.63,0,0,1,15,3a.06.06,0,0,1,.06,0,.06.06,0,0,1-.06.06,1.51,1.51,0,0,0-.87.29Z"/><path class="cls-5" d="M17,3.12h0A2.14,2.14,0,0,0,16.11,3a.05.05,0,0,1-.06-.05.06.06,0,0,1,.05-.06A2.3,2.3,0,0,1,17,3a.05.05,0,0,1,0,.07A.07.07,0,0,1,17,3.12Z"/><path class="cls-5" d="M14.44,4.36s0,0,0,0a0,0,0,0,1,0-.07,1.4,1.4,0,0,1,.8-.26h0a.06.06,0,0,1,.06,0,.06.06,0,0,1-.06.06,1.31,1.31,0,0,0-.74.24Z"/><path class="cls-5" d="M15,3.62a.07.07,0,0,1,0,0,.05.05,0,0,1,0-.07,1.68,1.68,0,0,1,.77-.09.08.08,0,0,1,.05.07.06.06,0,0,1-.07,0,1.76,1.76,0,0,0-.71.08Z"/><path class="cls-5" d="M12,5.25h0a.06.06,0,0,1,0-.08,1.13,1.13,0,0,1,.7-.37.06.06,0,0,1,.06,0,0,0,0,0,1,0,.06,1,1,0,0,0-.64.33Z"/><path class="cls-5" d="M14.4,5.08s0,0-.05,0,0-.06,0-.07a1.73,1.73,0,0,1,.83-.31.06.06,0,1,1,0,.11,1.79,1.79,0,0,0-.78.29Z"/><path class="cls-5" d="M12.51,5.67h0a.06.06,0,0,1,0-.08,1.16,1.16,0,0,1,.69-.33.05.05,0,0,1,.06,0s0,0-.05.06a1,1,0,0,0-.62.29A0,0,0,0,1,12.51,5.67Z"/><path class="cls-5" d="M13,6.21l0,0a.05.05,0,0,1,0-.08,2.46,2.46,0,0,1,.74-.32.05.05,0,1,1,0,.1,2.69,2.69,0,0,0-.7.31Z"/><path class="cls-5" d="M11.16,6.34l0,0a.06.06,0,0,1,0-.08,3.3,3.3,0,0,1,.7-.34.06.06,0,0,1,.07,0,.05.05,0,0,1,0,.07,2.84,2.84,0,0,0-.67.32Z"/><path class="cls-5" d="M14.28,5.71l0,0a.06.06,0,0,1,0-.08A1.68,1.68,0,0,1,15,5.33s.05,0,.06.06a.06.06,0,0,1-.06.05,1.63,1.63,0,0,0-.73.26Z"/><path class="cls-5" d="M15,6.2a.05.05,0,0,1-.05,0,.08.08,0,0,1,0-.08,1.7,1.7,0,0,1,.83-.18.06.06,0,0,1,.05.06s0,.06-.07,0a1.5,1.5,0,0,0-.75.17Z"/><path class="cls-5" d="M13.31,6.69l-.05,0a.05.05,0,0,1,0-.08,1.87,1.87,0,0,1,.8-.25.06.06,0,1,1,0,.11,1.64,1.64,0,0,0-.75.24Z"/><path class="cls-5" d="M15,7.26a1.1,1.1,0,0,1-.25,0,.08.08,0,0,1-.05-.07.06.06,0,0,1,.07,0,1,1,0,0,0,.68-.08.06.06,0,0,1,.08,0,.08.08,0,0,1,0,.08A1,1,0,0,1,15,7.26Z"/><path class="cls-5" d="M16.21,6.75h0a1.67,1.67,0,0,0-.77,0,0,0,0,0,1-.06,0,.06.06,0,0,1,0-.07,1.94,1.94,0,0,1,.83,0,.06.06,0,0,1,0,.07A.05.05,0,0,1,16.21,6.75Z"/><path class="cls-5" d="M14.89,7.76h-.17a.08.08,0,0,1-.05-.07.05.05,0,0,1,.07,0,1.09,1.09,0,0,0,.64-.11.05.05,0,0,1,.08,0,.06.06,0,0,1,0,.07A1.21,1.21,0,0,1,14.89,7.76Z"/><path class="cls-5" d="M13.42,7.43a.71.71,0,0,1-.2,0,.06.06,0,0,1-.05-.06.07.07,0,0,1,.07,0,1,1,0,0,0,.68-.1.07.07,0,0,1,.08,0,.05.05,0,0,1,0,.07A1.17,1.17,0,0,1,13.42,7.43Z"/><path class="cls-5" d="M13.39,7.91a1.48,1.48,0,0,1-.34,0,.07.07,0,0,1,0-.07.06.06,0,0,1,.07,0,1.15,1.15,0,0,0,.77-.06.05.05,0,0,1,.08,0,.06.06,0,0,1,0,.07A1,1,0,0,1,13.39,7.91Z"/><path class="cls-5" d="M12.2,7.23a.05.05,0,0,1,0,0s0-.06,0-.08A2,2,0,0,1,12.91,7S13,7,13,7a.06.06,0,0,1-.06.06h0a1.74,1.74,0,0,0-.69.12Z"/><path class="cls-5" d="M11.79,6.85a.06.06,0,0,1-.06,0,.08.08,0,0,1,0-.08,3.56,3.56,0,0,1,.79-.21.05.05,0,0,1,.06,0,.06.06,0,0,1,0,.06,3.06,3.06,0,0,0-.75.21Z"/><path class="cls-5" d="M18.27,3.7s0,0,0,0a.82.82,0,0,0-.51-.38.06.06,0,1,1,0-.11.9.9,0,0,1,.57.44,0,0,0,0,1,0,.07Z"/><path class="cls-5" d="M19.67,4.59a.05.05,0,0,1-.05,0,1.28,1.28,0,0,0-.72-.49.06.06,0,1,1,0-.11,1.4,1.4,0,0,1,.78.54.06.06,0,0,1,0,.08Z"/><path class="cls-5" d="M17.46,4h0a1,1,0,0,0-.72-.18.07.07,0,0,1-.07,0,.08.08,0,0,1,.05-.07,1.15,1.15,0,0,1,.8.19.08.08,0,0,1,0,.08A.05.05,0,0,1,17.46,4Z"/><path class="cls-5" d="M15.75,4.44l-.05,0a.05.05,0,0,1,0-.08.78.78,0,0,1,.7,0,.07.07,0,0,1,0,.08.05.05,0,0,1-.07,0,.72.72,0,0,0-.6,0Z"/><path class="cls-5" d="M17.66,4.78h0a1,1,0,0,0-.74-.2,0,0,0,0,1-.06,0,.06.06,0,0,1,0-.07,1.06,1.06,0,0,1,.83.23.05.05,0,0,1,0,.08Z"/><path class="cls-5" d="M17.83,5.44h0a.84.84,0,0,0-.7-.28.06.06,0,0,1,0-.12,1,1,0,0,1,.8.32.06.06,0,0,1,0,.08Z"/><path class="cls-5" d="M17,5.61s0,0,0,0a1,1,0,0,0-.66,0,.06.06,0,0,1-.07,0,.06.06,0,0,1,0-.08,1.11,1.11,0,0,1,.74,0,.05.05,0,0,1,0,.07A.05.05,0,0,1,17,5.61Z"/><path class="cls-5" d="M17.38,6.35h0a1,1,0,0,0-.76-.14.05.05,0,0,1-.07,0,.06.06,0,0,1,0-.07,1,1,0,0,1,.85.15.06.06,0,0,1,0,.08Z"/><path class="cls-5" d="M19.19,5.08a.05.05,0,0,1,0,0,.76.76,0,0,0-.54-.32.06.06,0,0,1-.06-.06.06.06,0,0,1,.06,0h0a.84.84,0,0,1,.63.37.06.06,0,0,1,0,.08Z"/><path class="cls-5" d="M18.34,4.54a.05.05,0,0,1-.05,0,.82.82,0,0,0-.47-.34.06.06,0,0,1,0-.07s0,0,.06,0a1,1,0,0,1,.55.39.08.08,0,0,1,0,.08Z"/><path class="cls-5" d="M17.83,7.15s0,0,0,0a.88.88,0,0,0-.65-.28.06.06,0,0,1-.06,0,.06.06,0,0,1,.06-.06,1,1,0,0,1,.73.32.06.06,0,0,1,0,.08Z"/><path class="cls-5" d="M18.62,5.48l-.05,0a.89.89,0,0,0-.46-.32.06.06,0,0,1,0-.07.07.07,0,0,1,.07,0,1,1,0,0,1,.52.36.06.06,0,0,1,0,.08Z"/><path class="cls-5" d="M18.65,6.63a.05.05,0,0,1,0,0,.9.9,0,0,0-.54-.4.06.06,0,1,1,0-.11,1,1,0,0,1,.6.46,0,0,0,0,1,0,.07Z"/><path class="cls-5" d="M19.9,5.85l0,0a.82.82,0,0,0-.5-.33.08.08,0,0,1-.05-.07.06.06,0,0,1,.07,0,.92.92,0,0,1,.57.37.06.06,0,0,1,0,.08Z"/><path class="cls-5" d="M20.76,5.79a.07.07,0,0,1-.05,0,.63.63,0,0,0-.49-.39.05.05,0,0,1,0-.06.06.06,0,0,1,.06,0,.73.73,0,0,1,.58.46.05.05,0,0,1,0,.07Z"/><path class="cls-5" d="M16.79,8.37l-.05,0a1.3,1.3,0,0,1-.11-.54s0,0,.06,0a.06.06,0,0,1,.06.06,1.05,1.05,0,0,0,.09.47s0,.06,0,.07Z"/><path class="cls-5" d="M17.2,8a.07.07,0,0,1-.05,0,1.1,1.1,0,0,1-.07-.53.06.06,0,0,1,.07,0,0,0,0,0,1,0,.06,1.09,1.09,0,0,0,.06.47.05.05,0,0,1,0,.07Z"/><path class="cls-5" d="M17.83,8.2h0a.93.93,0,0,1-.2-.54.06.06,0,0,1,.05-.06s.06,0,.06,0a.84.84,0,0,0,.17.47.06.06,0,0,1,0,.08Z"/><path class="cls-5" d="M17.83,9h0a1.48,1.48,0,0,1-.37-.54.06.06,0,0,1,0-.07.07.07,0,0,1,.08,0,1.35,1.35,0,0,0,.32.49.05.05,0,0,1,0,.08S17.85,9,17.83,9Z"/><path class="cls-5" d="M17.37,9.33h0A.86.86,0,0,1,17,8.84a.06.06,0,0,1,.11,0,.67.67,0,0,0,.27.4,0,0,0,0,1,0,.07A.05.05,0,0,1,17.37,9.33Z"/><path class="cls-5" d="M18.08,10.08h0a1.11,1.11,0,0,1-.45-.44,0,0,0,0,1,0-.07.05.05,0,0,1,.08,0,1.1,1.1,0,0,0,.4.39.05.05,0,0,1,0,.08A.05.05,0,0,1,18.08,10.08Z"/><path class="cls-5" d="M18.46,9.73l0,0a1.48,1.48,0,0,1-.34-.46.06.06,0,1,1,.11-.05,1.25,1.25,0,0,0,.31.43.06.06,0,0,1,0,.08Z"/><path class="cls-5" d="M18.46,8.16a.05.05,0,0,1-.05,0,2,2,0,0,1-.17-.65s0-.05.06-.05.05,0,.05.05a2,2,0,0,0,.16.6.05.05,0,0,1,0,.07Z"/><path class="cls-5" d="M18.38,8.89a.05.05,0,0,1-.05,0,3.62,3.62,0,0,1-.17-.43.05.05,0,1,1,.1,0s.11.31.17.42a.06.06,0,0,1,0,.07Z"/><path class="cls-5" d="M18.88,9.28a.05.05,0,0,1-.05,0,.76.76,0,0,1,0-.59.05.05,0,0,1,.07,0,.05.05,0,0,1,0,.07.65.65,0,0,0,.05.5.05.05,0,0,1,0,.07Z"/><path class="cls-5" d="M19.19,8.58a.07.07,0,0,1-.05,0,1,1,0,0,1-.07-.66.06.06,0,0,1,.11,0,.94.94,0,0,0,.06.59s0,.06,0,.07Z"/><path class="cls-5" d="M19.45,9.45l0,0a.05.05,0,0,1,0-.08.69.69,0,0,0,.15-.42.06.06,0,0,1,.06-.06.06.06,0,0,1,.05.06.77.77,0,0,1-.19.5Z"/><path class="cls-5" d="M19.54,10a.05.05,0,0,1-.05,0,.07.07,0,0,1,0-.08.91.91,0,0,0,.29-.36.05.05,0,0,1,.07,0,.05.05,0,0,1,0,.07.86.86,0,0,1-.35.42Z"/><path class="cls-5" d="M19.92,8.72h0a.05.05,0,0,1,0-.08A.64.64,0,0,0,20,8.16s0-.06,0-.06a.05.05,0,0,1,.07,0,.83.83,0,0,1-.1.57Z"/><path class="cls-5" d="M20.15,7.79l0,0a1.19,1.19,0,0,0-.49-.27.05.05,0,0,1,0-.07s0,0,.07,0a1.57,1.57,0,0,1,.54.31.05.05,0,0,1,0,.08Z"/><path class="cls-5" d="M19,7.37l-.05,0a1.12,1.12,0,0,0-.43-.26.06.06,0,0,1,0-.07.05.05,0,0,1,.07,0,1.21,1.21,0,0,1,.49.29.05.05,0,0,1,0,.08Z"/><path class="cls-5" d="M20.08,6.85l0,0a.86.86,0,0,0-.55-.38.06.06,0,0,1,0-.06.06.06,0,0,1,.06,0,1,1,0,0,1,.63.42.05.05,0,0,1,0,.08Z"/><path class="cls-5" d="M21.05,6.85s-.05,0-.05,0a1.08,1.08,0,0,0-.5-.48s-.05,0,0-.08a.06.06,0,0,1,.07,0,1.2,1.2,0,0,1,.56.54.07.07,0,0,1,0,.08Z"/><path class="cls-5" d="M21.05,7.64a.05.05,0,0,1-.06,0c0-.14-.29-.27-.37-.3a.07.07,0,0,1,0-.08.06.06,0,0,1,.07,0s.36.15.44.38a.07.07,0,0,1,0,.07Z"/><path class="cls-5" d="M19.25,6.2a.05.05,0,0,1-.05,0c-.09-.2-.42-.33-.42-.33a.06.06,0,0,1,0-.08.06.06,0,0,1,.07,0,1,1,0,0,1,.48.39.05.05,0,0,1,0,.07Z"/><path class="cls-5" d="M22.11,7l0,0a1.06,1.06,0,0,0-.49-.36.06.06,0,0,1,0-.07.05.05,0,0,1,.07,0,1.05,1.05,0,0,1,.55.4s0,0,0,.07Z"/><path class="cls-5" d="M22.16,7.57h0a.82.82,0,0,0-.5-.26.06.06,0,0,1-.05-.06,0,0,0,0,1,.05,0,.86.86,0,0,1,.58.29.06.06,0,0,1,0,.08Z"/><path class="cls-5" d="M22.39,8.25h0A1.67,1.67,0,0,0,21.82,8a.07.07,0,0,1,0-.07.06.06,0,0,1,.07,0,1.68,1.68,0,0,1,.57.27,0,0,0,0,1,0,.07A0,0,0,0,1,22.39,8.25Z"/><path class="cls-5" d="M23.94,8.42h0a1.33,1.33,0,0,0-.57-.21.06.06,0,0,1-.06,0,.06.06,0,0,1,.06-.06,1.45,1.45,0,0,1,.63.22.08.08,0,0,1,0,.08A.05.05,0,0,1,23.94,8.42Z"/><path class="cls-5" d="M26.36,8.87h0a1,1,0,0,0-.69-.06.05.05,0,0,1-.07,0,.06.06,0,0,1,0-.07,1.05,1.05,0,0,1,.77.06.05.05,0,0,1,0,.07A.05.05,0,0,1,26.36,8.87Z"/><path class="cls-5" d="M25,8.82h0a.8.8,0,0,0-.49,0,.06.06,0,0,1-.06,0,0,0,0,0,1,0-.06.89.89,0,0,1,.56.05.05.05,0,0,1,0,.1Z"/><path class="cls-5" d="M21.85,8.87h0a1.52,1.52,0,0,0-.55-.29s0,0,0-.06a.06.06,0,0,1,.07,0,1.62,1.62,0,0,1,.59.3.06.06,0,0,1,0,.08A.06.06,0,0,1,21.85,8.87Z"/><path class="cls-5" d="M23.28,8.82h0a.8.8,0,0,0-.62-.09.05.05,0,0,1-.07,0s0,0,0-.07a.86.86,0,0,1,.73.1.07.07,0,0,1,0,.08A.06.06,0,0,1,23.28,8.82Z"/><path class="cls-5" d="M23.68,9.48h0a2.19,2.19,0,0,0-.54-.12H23a.05.05,0,0,1,0-.07,0,0,0,0,1,.06,0h.07a2.1,2.1,0,0,1,.58.13,0,0,0,0,1,0,.07A.05.05,0,0,1,23.68,9.48Z"/><path class="cls-5" d="M29.85,9.09h0a.84.84,0,0,0-.55,0,.05.05,0,0,1,0-.1.92.92,0,0,1,.64,0s0,0,0,.07A.07.07,0,0,1,29.85,9.09Z"/><path class="cls-5" d="M28.17,9h0a1.46,1.46,0,0,0-.55,0,.06.06,0,0,1-.06-.05,0,0,0,0,1,0-.06,1.6,1.6,0,0,1,.6,0,0,0,0,0,1,0,.06A.05.05,0,0,1,28.17,9Z"/><path class="cls-5" d="M28.28,9.48a.05.05,0,0,1-.06,0,.07.07,0,0,1,0-.07,2.11,2.11,0,0,1,.56-.06.06.06,0,0,1,0,.11,1.81,1.81,0,0,0-.52.06Z"/><path class="cls-5" d="M27.76,9.69h0a.88.88,0,0,0-.56,0,.05.05,0,0,1-.07,0,.06.06,0,0,1,0-.07.87.87,0,0,1,.63,0,.05.05,0,0,1,0,.07A.07.07,0,0,1,27.76,9.69Z"/><path class="cls-5" d="M27.07,9.34h0a.69.69,0,0,0-.66,0,.06.06,0,0,1-.06-.1.82.82,0,0,1,.77,0,.05.05,0,0,1,0,.08A.05.05,0,0,1,27.07,9.34Z"/><path class="cls-5" d="M25.78,9.35h0a.78.78,0,0,0-.6,0,.05.05,0,0,1-.07,0,0,0,0,0,1,0-.07.86.86,0,0,1,.69,0,.06.06,0,0,1,0,.07A.06.06,0,0,1,25.78,9.35Z"/><path class="cls-5" d="M27.35,8.69h0a1.39,1.39,0,0,0-.52,0,.06.06,0,0,1,0-.11,1.54,1.54,0,0,1,.59,0,.05.05,0,0,1,0,.07S27.37,8.69,27.35,8.69Z"/><path class="cls-5" d="M24.86,9.86h0a1.2,1.2,0,0,0-.63-.09.08.08,0,0,1-.07,0,.06.06,0,0,1,.05-.06,1.28,1.28,0,0,1,.7.1.06.06,0,0,1,0,.08Z"/><path class="cls-5" d="M24.52,9.28h0A.78.78,0,0,0,24,9.16a.06.06,0,0,1-.07,0,.08.08,0,0,1,.05-.07.88.88,0,0,1,.62.13,0,0,0,0,1,0,.07A.05.05,0,0,1,24.52,9.28Z"/><path class="cls-5" d="M25.78,9.77a.07.07,0,0,1-.05,0,.06.06,0,0,1,0-.07,1.2,1.2,0,0,1,.56,0,.06.06,0,0,1,0,.07.07.07,0,0,1-.07,0,1.1,1.1,0,0,0-.5,0Z"/><path class="cls-5" d="M25.46,8.42l0,0a1.29,1.29,0,0,0-.63-.09h0a0,0,0,0,1-.05-.05.05.05,0,0,1,.05-.06,1.44,1.44,0,0,1,.71.12.06.06,0,0,1,0,.08Z"/><path class="cls-5" d="M28.63,8.66s-.05,0-.05,0a.05.05,0,0,1,0-.07,1.11,1.11,0,0,1,.67,0,.05.05,0,1,1,0,.1,1,1,0,0,0-.59,0Z"/><path class="cls-5" d="M22.51,9.51l0,0a.8.8,0,0,0-.53-.2.06.06,0,1,1,0-.11.93.93,0,0,1,.61.23.06.06,0,0,1,0,.08Z"/><path class="cls-5" d="M23.14,7.85h0a1,1,0,0,0-.5-.3s-.06,0-.05-.07a0,0,0,0,1,.06,0,1,1,0,0,1,.57.33.06.06,0,0,1,0,.08Z"/><path class="cls-5" d="M21.09,8.26h0a.76.76,0,0,0-.39-.2A.08.08,0,0,1,20.62,8a0,0,0,0,1,.06,0,.88.88,0,0,1,.45.23.06.06,0,0,1,0,.08Z"/><path class="cls-5" d="M11.79,4.35h0a0,0,0,0,1,0-.08,1.23,1.23,0,0,1,.58-.34.06.06,0,1,1,0,.11c-.22,0-.51.31-.52.31Z"/><path class="cls-5" d="M13.07,3.37l0,0a.05.05,0,0,1,0-.08,1.64,1.64,0,0,1,.65-.39.06.06,0,0,1,0,.11,1.58,1.58,0,0,0-.6.36Z"/><path class="cls-5" d="M15,2.56s0,0,0,0a.05.05,0,0,1,0-.07,1.86,1.86,0,0,1,.73-.08.06.06,0,0,1,.05.06.06.06,0,0,1-.07,0,1.65,1.65,0,0,0-.67.09Z"/><path class="cls-5" d="M17.73,2.77l-.05,0a.68.68,0,0,0-.59-.19s-.06,0-.07-.05a.06.06,0,0,1,.05-.06s.49-.07.7.23a.05.05,0,0,1,0,.08Z"/><path class="cls-5" d="M19.27,3.69l-.05,0a1.05,1.05,0,0,0-.47-.31.06.06,0,0,1,0-.07.05.05,0,0,1,.07,0,1.1,1.1,0,0,1,.53.34.05.05,0,0,1,0,.08Z"/><path class="cls-5" d="M20.49,4.9a0,0,0,0,1,0,0,.59.59,0,0,0-.31-.37,0,0,0,0,1,0-.07.05.05,0,0,1,.07,0,.69.69,0,0,1,.37.45,0,0,0,0,1,0,.06Z"/><path class="cls-5" d="M21.44,6.2a.05.05,0,0,1-.06,0,1.25,1.25,0,0,0-.32-.42.05.05,0,0,1,0-.08.05.05,0,0,1,.08,0,1.47,1.47,0,0,1,.36.47.05.05,0,0,1,0,.07Z"/><path class="cls-5" d="M19.1,10h0a.05.05,0,0,1,0-.07.55.55,0,0,0,0-.35.05.05,0,0,1,0-.07.06.06,0,0,1,.07,0,.67.67,0,0,1,0,.44A.05.05,0,0,1,19.1,10Z"/><path class="cls-5" d="M16.25,7.34a1.4,1.4,0,0,1-.32,0,.05.05,0,0,1,0-.07.06.06,0,0,1,.07,0,1,1,0,0,0,.55,0s.07,0,.07,0a.05.05,0,0,1,0,.07A1.2,1.2,0,0,1,16.25,7.34Z"/><path class="cls-5" d="M14.08,6.85a.07.07,0,0,1-.05,0,.06.06,0,0,1,0-.07,6.57,6.57,0,0,1,.65-.1.05.05,0,0,1,.06.05.06.06,0,0,1,0,.06,5.67,5.67,0,0,0-.63.1Z"/><path class="cls-5" d="M8.36,8h0a4.77,4.77,0,0,1-.53-.42,0,0,0,0,1,0-.07,0,0,0,0,1,.07,0s.27.23.53.41a.06.06,0,0,1,0,.08Z"/><path class="cls-5" d="M9.56,8.2h0A1.42,1.42,0,0,1,9,7.89.05.05,0,1,1,9,7.81a1.53,1.53,0,0,0,.54.29,0,0,0,0,1,0,.06S9.59,8.2,9.56,8.2Z"/><path class="cls-5" d="M10.8,8.31a1.16,1.16,0,0,1-.55-.16.05.05,0,0,1,0-.08,0,0,0,0,1,.07,0,1.17,1.17,0,0,0,.55.14.06.06,0,0,1,.06.05.05.05,0,0,1-.05.06Z"/><path class="cls-5" d="M11.67,8a1.32,1.32,0,0,1-.4-.06.05.05,0,0,1,0-.07.06.06,0,0,1,.07,0,1.14,1.14,0,0,0,.53,0,.06.06,0,0,1,.07,0,.08.08,0,0,1-.05.07Z"/><path class="cls-5" d="M12.28,8.31h-.07a0,0,0,0,1-.05-.05.06.06,0,0,1,.05-.06,2.74,2.74,0,0,0,.61,0,.07.07,0,0,1,.07,0,.06.06,0,0,1,0,.07A2.44,2.44,0,0,1,12.28,8.31Z"/><path class="cls-5" d="M12.29,7.76h0a.06.06,0,0,1-.06,0,.06.06,0,0,1,.06-.06h0a2.12,2.12,0,0,0,.53-.06.05.05,0,0,1,.07,0,.06.06,0,0,1,0,.07A2,2,0,0,1,12.29,7.76Z"/><path class="cls-5" d="M11.51,7.38a1.51,1.51,0,0,1-.46-.06s0-.05,0-.08a0,0,0,0,1,.07,0,1.45,1.45,0,0,0,.55,0,.06.06,0,0,1,.06.05.06.06,0,0,1-.06.06Z"/><path class="cls-5" d="M10,6.41s-.05,0-.05,0a.06.06,0,0,1,0-.07,1.81,1.81,0,0,0,.65-.23.06.06,0,0,1,.06.1,1.86,1.86,0,0,1-.69.24Z"/><path class="cls-5" d="M10.63,7.21A1.62,1.62,0,0,1,10,7.09a.05.05,0,1,1,0-.1,1.78,1.78,0,0,0,.57.11h0a.06.06,0,0,1,.06.05.06.06,0,0,1-.06.06Z"/><path class="cls-5" d="M10,7.64h0a1.17,1.17,0,0,1-.63-.18.05.05,0,0,1,0-.08,0,0,0,0,1,.07,0,1.14,1.14,0,0,0,.57.16.05.05,0,0,1,.05.06A0,0,0,0,1,10,7.64Z"/><path class="cls-5" d="M9.38,7h0a1.83,1.83,0,0,1-.61-.27.06.06,0,0,1,.08-.09,1.39,1.39,0,0,0,.56.25.06.06,0,0,1,0,.07A.05.05,0,0,1,9.38,7Z"/><path class="cls-5" d="M8.17,5.58a.82.82,0,0,1-.6-.2,0,0,0,0,1,0-.08,0,0,0,0,1,.07,0,.83.83,0,0,0,.53.17s.06,0,.06,0A.06.06,0,0,1,8.17,5.58Z"/><path class="cls-5" d="M9.56,5.31a0,0,0,0,1-.05,0,.05.05,0,0,1,.05-.06.89.89,0,0,0,.51-.15.06.06,0,0,1,.08,0,0,0,0,0,1,0,.07,1,1,0,0,1-.59.19Z"/><path class="cls-5" d="M6.84,5h0a1.31,1.31,0,0,1-.37-.48.06.06,0,0,1,0-.08.05.05,0,0,1,.07,0,1.1,1.1,0,0,0,.33.43.06.06,0,0,1,0,.08Z"/><path class="cls-5" d="M7.06,5.75H7a1,1,0,0,1-.33-.28.05.05,0,0,1,0-.08.06.06,0,0,1,.08,0,1,1,0,0,0,.3.25.05.05,0,0,1,0,.08A.05.05,0,0,1,7.06,5.75Z"/><path class="cls-5" d="M8.36,6.41h0a1.56,1.56,0,0,1-.55-.31.08.08,0,0,1,0-.08s.06,0,.08,0a1.81,1.81,0,0,0,.51.3,0,0,0,0,1,0,.06A.05.05,0,0,1,8.36,6.41Z"/><path class="cls-5" d="M7.72,6.75h0a1.18,1.18,0,0,1-.49-.44.06.06,0,0,1,0-.07.05.05,0,0,1,.08,0,1.08,1.08,0,0,0,.44.38.06.06,0,0,1,0,.08A.05.05,0,0,1,7.72,6.75Z"/><path class="cls-5" d="M8.91,7.38h0a1.12,1.12,0,0,1-.58-.3,0,0,0,0,1,0-.08,0,0,0,0,1,.07,0,1.23,1.23,0,0,0,.53.27A.08.08,0,0,1,9,7.34.07.07,0,0,1,8.91,7.38Z"/><path class="cls-5" d="M7.54,8.89s-.06,0-.06-.05a4.79,4.79,0,0,0-.05-.6.05.05,0,0,1,.05-.06s0,0,.06,0a5.32,5.32,0,0,1,0,.62A0,0,0,0,1,7.54,8.89Z"/><path class="cls-5" d="M8.06,9.53h0a.06.06,0,0,1,0-.07,1.43,1.43,0,0,0,0-.55.07.07,0,0,1,0-.07.06.06,0,0,1,.07,0,1.5,1.5,0,0,1,0,.6A.06.06,0,0,1,8.06,9.53Z"/><path class="cls-5" d="M8.56,9a.06.06,0,0,1-.05-.06,1.36,1.36,0,0,0-.13-.57.05.05,0,0,1,0-.08.06.06,0,0,1,.07,0,1.42,1.42,0,0,1,.15.63A.06.06,0,0,1,8.56,9Z"/><path class="cls-5" d="M7.6,10.11h0a0,0,0,0,1,0-.07,1.39,1.39,0,0,0,0-.38.06.06,0,0,1,.06-.05.06.06,0,0,1,.06.05,1.42,1.42,0,0,1,0,.43A.06.06,0,0,1,7.6,10.11Z"/><path class="cls-5" d="M8.36,10.24h0a.05.05,0,0,1,0-.08,2.12,2.12,0,0,0,.13-.51,0,0,0,0,1,.06,0,.06.06,0,0,1,.05.06,2.14,2.14,0,0,1-.15.56Z"/><path class="cls-5" d="M7.35,7.56a.05.05,0,0,1,0,0A3.32,3.32,0,0,1,7,7,.05.05,0,0,1,7,6.9a0,0,0,0,1,.07,0,4.84,4.84,0,0,0,.28.54.06.06,0,0,1,0,.08Z"/><path class="cls-5" d="M8.54,5.75a.06.06,0,0,1-.06-.06.06.06,0,0,1,.06-.05A2.5,2.5,0,0,0,9,5.6s.06,0,.07.05,0,0,0,.06A2.84,2.84,0,0,1,8.54,5.75Z"/><path class="cls-5" d="M7.35,4.93h0c-.16,0-.3-.28-.32-.31a.06.06,0,1,1,.1-.06c0,.07.15.23.25.26a.06.06,0,0,1,0,.07A.07.07,0,0,1,7.35,4.93Z"/><path class="cls-5" d="M11,6.83a2.84,2.84,0,0,1-.39,0,.07.07,0,0,1-.05-.07.06.06,0,0,1,.07,0,2.08,2.08,0,0,0,.7,0,0,0,0,0,1,.06,0,.06.06,0,0,1,0,.07Z"/><path class="cls-5" d="M13.31,4.9s0,0-.05,0a.06.06,0,0,1,0-.08,1.11,1.11,0,0,1,.61-.26h0a0,0,0,0,1,0,0,.05.05,0,0,1,0,.06,1,1,0,0,0-.54.24Z"/><path class="cls-5" d="M15.56,5.14s-.05,0-.05,0a.05.05,0,0,1,0-.07A1.82,1.82,0,0,1,16.25,5,.06.06,0,0,1,16.3,5a.08.08,0,0,1-.07,0,1.49,1.49,0,0,0-.65.06Z"/><path class="cls-2" d="M8.94,8.54s2.39.43,7.4-.72l.14.91a25.46,25.46,0,0,1-3.74.82,17.56,17.56,0,0,1-3.9,0s.05-.25.07-.49S8.94,8.54,8.94,8.54Z"/><path class="cls-7" d="M.8,1.92a.09.09,0,0,0-.09-.09.09.09,0,0,0-.08.09A.09.09,0,0,0,.71,2,.09.09,0,0,0,.8,1.92Z"/><path class="cls-7" d="M3.61,1.75a.08.08,0,0,0-.09-.08.08.08,0,0,0-.08.08.09.09,0,0,0,.08.08A.09.09,0,0,0,3.61,1.75Z"/></g></g></svg>