<svg xmlns="http://www.w3.org/2000/svg" viewBox="0 0 14.63 10.11"><defs><style>.cls-1{fill:#f7b33c;}.cls-2{fill:#d2c5b2;}.cls-3{fill:#f8ba54;}.cls-4{opacity:0.9;}.cls-5{fill:#c2b3a4;}.cls-6{fill:#f7f6f5;}.cls-7{fill:#393631;}.cls-8{fill:#f0f2f4;}</style></defs><g id="Layer_2" data-name="Layer 2"><g id="Layer_2-2" data-name="Layer 2"><path class="cls-1" d="M10.06,2.08A8.63,8.63,0,0,0,5.44.16C2.27-.3,2.3.31,2.15.81s.22,2.08.23,3.82C2.4,6.65,10.06,2.08,10.06,2.08Z"/><path class="cls-1" d="M7.91,9.15S2.21,10.63,2,9.5c-.07-.38.23-1.86.34-3.76Z"/><path class="cls-1" d="M10,8.58A6.07,6.07,0,0,1,8.45,9.71a6.39,6.39,0,0,1-1.49.4A2.37,2.37,0,0,1,8.43,9.05,8.35,8.35,0,0,1,10,8.58Z"/><path class="cls-2" d="M0,5.31c0,1.12.61,2,.69,1.91A5.89,5.89,0,0,1,2.38,6V4.67a4.93,4.93,0,0,1-2-1.07C.26,3.5,0,4.13,0,5.31Z"/><path class="cls-3" d="M11,2.68a5.39,5.39,0,0,0-.59-.49,17.28,17.28,0,0,1,.29,3.32,14.93,14.93,0,0,1-.19,2.74c.2-.14.39-.29.57-.43a13.3,13.3,0,0,0,.18-2.15A17.43,17.43,0,0,0,11,2.68Z"/><path class="cls-2" d="M10.74,5.51a17.28,17.28,0,0,0-.29-3.32,4.8,4.8,0,0,0-1.4-.68,16.76,16.76,0,0,1,.38,3c0,.3,0,.62,0,.93.25.16.44.34.44.49s-.21.4-.47.64c-.06,1.08-.15,2-.19,2.32a5,5,0,0,0,1.34-.68A14.93,14.93,0,0,0,10.74,5.51Z"/><path class="cls-2" d="M6.52,2.57a4.81,4.81,0,0,0-.36-1.22,6.83,6.83,0,0,0-.81.17,6.76,6.76,0,0,0-.41,1.65c0,1-.1,2.5-.07,3.58a5.5,5.5,0,0,0,.62,2.3l.66.15a16.47,16.47,0,0,0,.54-3.27A18.93,18.93,0,0,0,6.52,2.57Z"/><path class="cls-2" d="M8.68,7.11c-.12,0-.21.07-.23,0A1.75,1.75,0,0,1,8.45,5a.84.84,0,0,1,.32.1,13.27,13.27,0,0,0-.11-2c-.08-.61-.25-1.42-.32-1.78a6.36,6.36,0,0,0-1-.08H7.08A14.74,14.74,0,0,1,7.49,6.1,22.37,22.37,0,0,1,7,9.27a7.29,7.29,0,0,0,1.48-.16c0-.22.09-.61.14-1.28C8.64,7.59,8.66,7.35,8.68,7.11Z"/><path class="cls-2" d="M14.6,5.73a.73.73,0,0,1-.85.11c.63.09.87-.52.72-.43s-.67.46-1.62-.14c-.66-.42-1-1.86-1.69-2.46L11,2.68a17.43,17.43,0,0,1,.26,3,13.3,13.3,0,0,1-.18,2.15c.56-.47,1-.93,1.3-1.12a6.43,6.43,0,0,1,1.72-.56C14.81,5.91,14.6,5.73,14.6,5.73Z"/><path class="cls-2" d="M4.07,6.8c0-.7.06-.91.1-1.77s0-1.38,0-1.93a6.35,6.35,0,0,1,.29-1.24A4.3,4.3,0,0,0,2.38,4.67a1.94,1.94,0,0,0,0,1.44,5.19,5.19,0,0,0,2,2.45A10.46,10.46,0,0,1,4.07,6.8Z"/><path class="cls-3" d="M4.94,3.17a6.76,6.76,0,0,1,.41-1.65,4.47,4.47,0,0,0-.84.34A6.35,6.35,0,0,0,4.22,3.1c0,.55,0,1.07,0,1.93S4.09,6.1,4.07,6.8a10.46,10.46,0,0,0,.32,1.76,4.64,4.64,0,0,0,1.1.49,5.5,5.5,0,0,1-.62-2.3C4.84,5.67,4.92,4.16,4.94,3.17Z"/><path class="cls-3" d="M7.08,1.28a6.74,6.74,0,0,0-.92.07,4.81,4.81,0,0,1,.36,1.22,18.93,18.93,0,0,1,.17,3.36A16.47,16.47,0,0,1,6.15,9.2,8.54,8.54,0,0,0,7,9.27,22.37,22.37,0,0,0,7.49,6.1,14.74,14.74,0,0,0,7.08,1.28Z"/><path class="cls-3" d="M8.43,9.35l-.06,0S8.39,9.44,8.43,9.35Z"/><path class="cls-3" d="M8.77,5.13a3.85,3.85,0,0,1,.66.35c0-.31,0-.63,0-.93a16.76,16.76,0,0,0-.38-3,6.76,6.76,0,0,0-.71-.16c.07.36.24,1.17.32,1.78A13.27,13.27,0,0,1,8.77,5.13Z"/><path class="cls-3" d="M8.68,7.11c0,.24,0,.48,0,.72-.05.67-.1,1.06-.14,1.28a6.11,6.11,0,0,0,.68-.17h0c0-.32.13-1.24.19-2.32A3.64,3.64,0,0,1,8.68,7.11Z"/><g class="cls-4"><path class="cls-5" d="M9.43,5.48a3.85,3.85,0,0,0-.66-.35A.84.84,0,0,0,8.45,5a1.75,1.75,0,0,0,0,2.11s.11,0,.23,0a3.64,3.64,0,0,0,.72-.5c.26-.24.47-.48.47-.64S9.68,5.64,9.43,5.48Z"/></g><path class="cls-6" d="M11.3,4.09a.38.38,0,0,0-.39-.39.39.39,0,0,0-.39.39.4.4,0,0,0,.39.39A.39.39,0,0,0,11.3,4.09Z"/><path class="cls-7" d="M11.19,4.09a.2.2,0,1,0-.39,0,.19.19,0,0,0,.19.19A.19.19,0,0,0,11.19,4.09Z"/><path class="cls-7" d="M4.37,1.33a.53.53,0,1,0-1.05,0,.57.57,0,0,0,.57.57A.57.57,0,0,0,4.37,1.33Z"/><path class="cls-7" d="M2.12,5.31A1,1,0,0,0,2.31,6a1.48,1.48,0,0,0,.22-.62,1.69,1.69,0,0,0-.15-.69A1.23,1.23,0,0,0,2.12,5.31Z"/><path class="cls-8" d="M11.13,4A.07.07,0,0,0,11.06,4a.07.07,0,0,0,0,.14A.07.07,0,0,0,11.13,4Z"/></g></g></svg>