<svg xmlns="http://www.w3.org/2000/svg" viewBox="0 0 15.05 8.02"><defs><style>.cls-1{fill:#e97a24;}.cls-2{fill:#e1f3fc;}.cls-3{fill:#393531;}.cls-4{fill:#f6851f;}.cls-5{fill:#f0f2f4;}</style></defs><g id="Layer_2" data-name="Layer 2"><g id="Layer_2-2" data-name="Layer 2"><path class="cls-1" d="M9,.2c-.55.11-.59.92-.59,1.18l3.29.54C10.83.63,9.9,0,9,.2Z"/><path class="cls-2" d="M9,.14C9.74,0,10.63.31,11.77,2l.09,0C10.93.36,9.84-.16,9,0S8.26,1.4,8.26,1.4h.1C8.36,1.24,8.32.3,9,.14Z"/><path class="cls-3" d="M9,.14c-.68.16-.66,1.08-.65,1.25l.1,0c0-.27,0-1,.56-1.18C9.91,0,10.83.68,11.71,2V1.84C10.56.18,9.74,0,9,.14Z"/><path class="cls-1" d="M4.41,1.81A1.42,1.42,0,0,0,4.49,3L7.07,1.65a4.55,4.55,0,0,0-.91-.28C5.42,1.19,4.61,1.33,4.41,1.81Z"/><path class="cls-2" d="M4.33,1.71c.19-.47,1.06-.64,1.78-.47a5.49,5.49,0,0,1,1.11.39l.12-.07a4.67,4.67,0,0,0-1.46-.44c-.94-.14-1.55.19-1.68.63a2,2,0,0,0,.1,1.36l.1,0A1.77,1.77,0,0,1,4.33,1.71Z"/><path class="cls-3" d="M7.27,1.65h0Z"/><path class="cls-3" d="M6.11,1.24c-.72-.17-1.59,0-1.78.47A1.77,1.77,0,0,0,4.4,3.06l.09,0a1.42,1.42,0,0,1-.08-1.21c.2-.48,1-.62,1.75-.44a4.55,4.55,0,0,1,.91.28l.15,0A5.73,5.73,0,0,0,6.11,1.24Z"/><path class="cls-1" d="M10.28,8a8.29,8.29,0,0,0,1.08-.74H9.67A.9.9,0,0,0,10.28,8Z"/><path class="cls-3" d="M10.1,8c.06,0,.08,0,.18,0a.9.9,0,0,1-.61-.73H9.51A.92.92,0,0,0,10.1,8Z"/><path class="cls-3" d="M3.87,5.68s-.58.7-.28,1a2.46,2.46,0,0,0,2.06.75C6.83,7.41,7,6.88,7,6.88A8.25,8.25,0,0,1,3.87,5.68Z"/><path class="cls-1" d="M4,5.69s-.56.64-.31.93a2.52,2.52,0,0,0,2,.75c1.07,0,1.27-.53,1.27-.53A8.64,8.64,0,0,1,4,5.69Z"/><path class="cls-4" d="M15,4.94a.92.92,0,0,1-1-.1.86.86,0,0,0,1-.14c-.28-.13-.54-.82-.7-1a5,5,0,0,0-1.49-1.29c-.12.21-.32.58-.43.74a2.77,2.77,0,0,0-.54,1.13,1.78,1.78,0,0,0,.19,1c.07.17.47.94.69,1.48a3.67,3.67,0,0,0,2-1.54C15.14,5,15,4.94,15,4.94Z"/><path class="cls-4" d="M11.3,3.13a5.14,5.14,0,0,0,.32-1.32,9.14,9.14,0,0,0-3.17-.43c0,.31-.07,1-.09,1.3,0,.64.59,1.57.56,1.94a7,7,0,0,1-.48,1.66,7.1,7.1,0,0,0-.18,1,9,9,0,0,0,3.2-.12l.22,0A12.88,12.88,0,0,0,11,4.89,3.65,3.65,0,0,1,11.3,3.13Z"/><path class="cls-2" d="M8.83,4.6c0-.32-.58-1.2-.56-1.91,0-.26.07-1.09.08-1.3a7.46,7.46,0,0,0-1.28.16,6.1,6.1,0,0,1,0,.74,13.71,13.71,0,0,1,0,1.54,5.85,5.85,0,0,0,0,1.06C7.17,5.27,6.93,6,6.92,7a9.23,9.23,0,0,0,1.22.27,8.81,8.81,0,0,1,.2-1.09A6.53,6.53,0,0,0,8.83,4.6Z"/><path class="cls-4" d="M2.34,3.29a6.72,6.72,0,0,0-.76-.54,1.27,1.27,0,0,0-1,.9,2.35,2.35,0,0,0,0,1.81,2.73,2.73,0,0,0,.9.92c.26-.11.57-.39.91-.59a5.27,5.27,0,0,0,.19-1.21A4.42,4.42,0,0,0,2.34,3.29Z"/><path class="cls-2" d="M.49,3.62a1.36,1.36,0,0,1,.94-.94l-.06,0C1,2.54.09,3,0,4.47s.79,2,1.26,2h0A2.12,2.12,0,0,1,.49,3.62Z"/><path class="cls-2" d="M3.89,5.33c.06-.27.22-.34.21-.58s-.18-.38-.18-.67.18-.62.14-.87a2.49,2.49,0,0,1-.86.44,1.36,1.36,0,0,1-.73-.27,3.75,3.75,0,0,1,.18,1.2A5.85,5.85,0,0,1,2.5,5.72a1.24,1.24,0,0,1,.65-.17,2.39,2.39,0,0,1,.74.16A.68.68,0,0,1,3.89,5.33Z"/><path class="cls-4" d="M7,4.89A9.08,9.08,0,0,1,7,3.7c0-.32,0-1.05,0-1.6,0-.2,0-.39,0-.53h0A12.16,12.16,0,0,0,4.14,3.15a.59.59,0,0,1,0,.29,1.37,1.37,0,0,0-.1.82,1,1,0,0,1,.11.62c0,.13-.21.37-.21.52v.31c.48.19,1,.52,1.6.81A7.21,7.21,0,0,0,6.81,7a10.07,10.07,0,0,1,.11-1.27A6.12,6.12,0,0,0,7,4.89Z"/><path class="cls-2" d="M12.21,3.32a6.78,6.78,0,0,0,.59-1c-.19-.11-.39-.21-.61-.31a4.34,4.34,0,0,0-.5-.2,6.29,6.29,0,0,1-.35,1.45,2.91,2.91,0,0,0-.23,1.53c.05.25.11.27.4,1.18a5.71,5.71,0,0,1,.26,1.13,6.84,6.84,0,0,0,.94-.32,11.87,11.87,0,0,1-.91-2.14A2.06,2.06,0,0,1,12.21,3.32Z"/><path class="cls-3" d="M11.89,4.26a2.77,2.77,0,0,1,.54-1.13c.11-.16.31-.53.43-.74l-.06,0a6.78,6.78,0,0,1-.59,1,2.06,2.06,0,0,0-.41,1.35,11.87,11.87,0,0,0,.91,2.14l.06,0c-.22-.54-.62-1.31-.69-1.48A1.78,1.78,0,0,1,11.89,4.26Z"/><path class="cls-3" d="M11.11,4.82a2.91,2.91,0,0,1,.23-1.53,6.36,6.36,0,0,0,.36-1.45l-.1,0a5.05,5.05,0,0,1-.3,1.32A3.65,3.65,0,0,0,11,4.89a12.88,12.88,0,0,1,.66,2.26l.09,0A5.71,5.71,0,0,0,11.51,6C11.22,5.09,11.16,5.07,11.11,4.82Z"/><path class="cls-3" d="M8.92,4.62c0-.37-.6-1.3-.56-1.94,0-.3.06-1,.09-1.3h-.1c0,.21-.07,1-.08,1.3,0,.71.56,1.59.56,1.91a6.53,6.53,0,0,1-.49,1.62,8.81,8.81,0,0,0-.2,1.09h.12a7.1,7.1,0,0,1,.18-1A7,7,0,0,0,8.92,4.62Z"/><path class="cls-3" d="M7.13,3.83a13.71,13.71,0,0,0,0-1.54,6.1,6.1,0,0,0,0-.74l-.14,0c0,.14.05.33.05.53,0,.55.09,1.28,0,1.6A9.08,9.08,0,0,0,7,4.89a5.25,5.25,0,0,1-.13.85A12.18,12.18,0,0,0,6.81,7l.11,0c0-1,.25-1.77.24-2.15A5.85,5.85,0,0,1,7.13,3.83Z"/><path class="cls-3" d="M4.15,4.83A1,1,0,0,0,4,4.26a1.37,1.37,0,0,1,.1-.82.59.59,0,0,0,0-.29l-.08.06c0,.25-.18.55-.17.81s.16.49.17.73-.14.33-.2.6a.84.84,0,0,0,0,.35l.09,0a1.51,1.51,0,0,1,0-.31C4,5.26,4.13,5,4.15,4.83Z"/><path class="cls-3" d="M.56,5.46a2.35,2.35,0,0,1,0-1.81,1.27,1.27,0,0,1,1-.9l-.15-.07a1.36,1.36,0,0,0-.94.94,2.12,2.12,0,0,0,.78,2.8.72.72,0,0,0,.19,0A2.73,2.73,0,0,1,.56,5.46Z"/><path class="cls-3" d="M2.47,3.38l-.13-.09a4.42,4.42,0,0,1,.22,1.29,5.27,5.27,0,0,1-.19,1.21l.13-.07a5.85,5.85,0,0,0,.15-1.14A3.75,3.75,0,0,0,2.47,3.38Z"/><path class="cls-2" d="M13.56,3.83a.38.38,0,1,0-.38.38A.38.38,0,0,0,13.56,3.83Z"/><path class="cls-3" d="M13.47,3.87a.22.22,0,1,0-.22.22A.22.22,0,0,0,13.47,3.87Z"/><path class="cls-1" d="M11,5a9.62,9.62,0,0,0-1.1-.87,1.81,1.81,0,0,0-.41,1.12,1.17,1.17,0,0,0,.62,1A5,5,0,0,0,11,5.47.34.34,0,0,0,11,5Z"/><path class="cls-3" d="M9.51,5.3a1.78,1.78,0,0,1,.38-1.13c-.14-.08-.09-.07-.14-.08a1.67,1.67,0,0,0-.42,1.33,1.42,1.42,0,0,0,.52.93c.06,0,.1,0,.25-.06A1.23,1.23,0,0,1,9.51,5.3Z"/><circle class="cls-5" cx="13.33" cy="3.8" r="0.07"/></g></g></svg>