<svg xmlns="http://www.w3.org/2000/svg" viewBox="0 0 14.03 6.61"><defs><style>.cls-1{fill:#5393ce;}.cls-2{fill:#10497c;}.cls-3{fill:#4473b9;}.cls-4{fill:#f0f2f4;}.cls-5{fill:#2f3335;}</style></defs><g id="Layer_2" data-name="Layer 2"><g id="Layer_2-2" data-name="Layer 2"><path class="cls-1" d="M13.89,1.3a2.24,2.24,0,0,0-.93.75,1,1,0,0,1-.06,1.24,1.08,1.08,0,0,1,0,1.16c.44.47.77.94.84.8a2.2,2.2,0,0,0-.2-2C14.15,2.35,14.08,1.26,13.89,1.3Z"/><path class="cls-2" d="M12.9,3.29A1,1,0,0,0,13,2.05a3.49,3.49,0,0,1-.74.65,1.11,1.11,0,0,1,0,1.13,3.44,3.44,0,0,1,.72.62A1.08,1.08,0,0,0,12.9,3.29Z"/><path class="cls-2" d="M7.4.92A12.45,12.45,0,0,1,11,2.79l.37.11c-.06-.34-.65-1-2.36-1.83A9,9,0,0,0,4.41,0a1.35,1.35,0,0,0-.94.44A9,9,0,0,1,7.4.92Z"/><path class="cls-1" d="M3.37.49A4.09,4.09,0,0,0,2.08.87,5.32,5.32,0,0,0,.23,2.92C.17,3,0,3,.05,3c0,.42.73.25.73.25-.44.28-.73-.07-.78,0s.15.23.26.4.14.45.35.82a1.25,1.25,0,0,0,.14.2,3.45,3.45,0,0,0,1.78-.44C3.19,3.8,3.62,1.76,3.37.49Z"/><path class="cls-2" d="M10.93,3.76A10.51,10.51,0,0,1,5.31,6.43H5.18a5,5,0,0,0,1,.17,9.63,9.63,0,0,0,2.75-1c.58-.32,2.29-1.4,2.51-2l-.48.12Z"/><path class="cls-3" d="M12.22,2.7a1.31,1.31,0,0,1-.68.22l-.18,0L11,2.79A12.45,12.45,0,0,0,7.4.92,9,9,0,0,0,3.47.47l-.1,0c.25,1.27-.18,3.31-.84,3.79a3.45,3.45,0,0,1-1.78.44A5.27,5.27,0,0,0,5.18,6.44h.13a10.51,10.51,0,0,0,5.62-2.67h0l.48-.12a1.06,1.06,0,0,1,.39,0,1.12,1.12,0,0,1,.4.16A1.11,1.11,0,0,0,12.22,2.7Z"/><path class="cls-4" d="M2.29,2.26a.3.3,0,1,0-.59,0,.3.3,0,0,0,.59,0Z"/><path class="cls-5" d="M2.1,2.29a.18.18,0,1,0-.18.18A.18.18,0,0,0,2.1,2.29Z"/><path class="cls-2" d="M4.91,2.74c.23.09.3.63.19,1.14s-.4,1-.63,1S3.3,3.92,3.4,3.58,4.77,2.68,4.91,2.74Z"/><path class="cls-4" d="M2,2.25a0,0,0,1,0-.08,0,0,0,0,0,0,.08,0Z"/></g></g></svg>