<svg xmlns="http://www.w3.org/2000/svg" viewBox="0 0 21.19 10.02"><defs><style>.cls-1{fill:#205050;}.cls-2{fill:#0c2546;}.cls-3{fill:#27676c;}.cls-4{fill:#d0e5e4;}</style></defs><g id="Layer_2" data-name="Layer 2"><g id="Layer_2-2" data-name="Layer 2"><path class="cls-1" d="M6.09,1a8.49,8.49,0,0,1,4.37-1,11.94,11.94,0,0,1,5.83,1.39c1.21.59,2,1.38,2,1.57a6.68,6.68,0,0,1-2.1.85A9.39,9.39,0,0,0,14.6,2.43a7.09,7.09,0,0,0-3.49-1.35A17.27,17.27,0,0,0,6.09,1Z"/><path class="cls-2" d="M17.67,3a3.86,3.86,0,0,1-1.78.55c-1.1.08-.12.06-.12.06l.07-.09A5.29,5.29,0,0,1,17.67,3Z"/><path class="cls-2" d="M17.16,2.54A3.76,3.76,0,0,0,15.41,3l.05.08A7.09,7.09,0,0,0,17.16,2.54Z"/><path class="cls-2" d="M14.82,2.45A4.63,4.63,0,0,1,16.51,2a4.67,4.67,0,0,1-1.68.51Z"/><path class="cls-2" d="M14.17,1.94a2.92,2.92,0,0,1,1.56-.47A5.77,5.77,0,0,1,14.22,2Z"/><path class="cls-2" d="M13.24,1.56A2.38,2.38,0,0,1,14.75,1a5.75,5.75,0,0,1-1.39.52Z"/><path class="cls-2" d="M12.46,1.24A2.17,2.17,0,0,1,13.7.64a6.34,6.34,0,0,1-1.13.61Z"/><path class="cls-2" d="M11.64,1A1.5,1.5,0,0,1,12.75.46l-1,.59C11.25,1.34,11.64,1,11.64,1Z"/><path class="cls-2" d="M10.45.86a1.92,1.92,0,0,1,1.2-.58,5.47,5.47,0,0,1-1.13.6C10,1.07,10.45.86,10.45.86Z"/><path class="cls-2" d="M9,.68A3.66,3.66,0,0,0,10.41.15a2.85,2.85,0,0,0-1.52.6C8.55,1,9,.68,9,.68Z"/><path class="cls-1" d="M8.13,9.29a2.23,2.23,0,0,0,2.2.63s-.2-.69-.76-.7S8.13,9.29,8.13,9.29Z"/><path class="cls-2" d="M8.8,9.29s.18.31,1.08.19A.84.84,0,0,1,8.8,9.29Z"/><path class="cls-2" d="M8.55,9.29A1.45,1.45,0,0,0,10,9.76a1.29,1.29,0,0,1-1.51-.5C7.76,8.25,8.55,9.29,8.55,9.29Z"/><path class="cls-1" d="M10.58,9.06A5.86,5.86,0,0,0,14.4,9,11.5,11.5,0,0,0,18,7.19c0-.11-1.28-.28-1.4-.38a13,13,0,0,0-2.5,1A24.77,24.77,0,0,1,10.58,9.06Z"/><path class="cls-2" d="M11.54,8.91s.24.33,1.06.21c0,0-1-.13-1-.27S11.54,8.91,11.54,8.91Z"/><path class="cls-2" d="M16,7.13a3.06,3.06,0,0,0,1.46.2,5.62,5.62,0,0,0-1.35-.22C15.81,7.09,16,7.13,16,7.13Z"/><path class="cls-2" d="M15.43,7.35a1.81,1.81,0,0,0,1.48.26,4.82,4.82,0,0,1-1.36-.28C15.32,7.23,15.43,7.35,15.43,7.35Z"/><path class="cls-2" d="M14.78,7.66a1.35,1.35,0,0,0,1.44.26s-1.12,0-1.36-.33C14.74,7.45,14.78,7.66,14.78,7.66Z"/><path class="cls-2" d="M14.18,7.9a1.83,1.83,0,0,0,1.42.4s-1,.33-1.5-.34S14.18,7.9,14.18,7.9Z"/><path class="cls-2" d="M13.46,8.26a2.81,2.81,0,0,0,1.07.41,1.14,1.14,0,0,1-1.13-.41C13,7.71,13.46,8.26,13.46,8.26Z"/><path class="cls-2" d="M12.52,8.59a1,1,0,0,0,1.06.35s-.85-.14-1-.39Z"/><path class="cls-1" d="M20.61,3.29c.91.54.65,3.5-.11,3.83s-2.37-.79-2.59-.76l0-2.13S19.88,2.86,20.61,3.29Z"/><path class="cls-2" d="M18,4.58A8.53,8.53,0,0,0,19.9,3.44,11.12,11.12,0,0,0,18,4.5C17.63,4.78,18,4.58,18,4.58Z"/><path class="cls-2" d="M18,4.74A17.15,17.15,0,0,0,20.3,3.66,3.44,3.44,0,0,1,18,4.81C15.92,5.19,18,4.74,18,4.74Z"/><path class="cls-2" d="M18,5.26a9.27,9.27,0,0,1,2.8-.13,12.5,12.5,0,0,1-2.8.18C16.42,5.24,18,5.26,18,5.26Z"/><path class="cls-2" d="M20.71,4.22A5.18,5.18,0,0,1,18,5.05c-1.79.14,0,0,0,0l0,0S19.5,4.65,20.71,4.22Z"/><path class="cls-2" d="M18.07,6a8.69,8.69,0,0,1,2.06.85,11.24,11.24,0,0,1-2.05-.77C17.69,5.86,18.07,6,18.07,6Z"/><path class="cls-2" d="M18.08,5.83a18.43,18.43,0,0,1,2.4.75,3.47,3.47,0,0,0-2.41-.82C15.92,5.7,18.08,5.83,18.08,5.83Z"/><path class="cls-2" d="M20.81,5.93A5.25,5.25,0,0,0,18,5.5c-1.79.13,0,0,0,0l0,0S19.55,5.68,20.81,5.93Z"/><path class="cls-3" d="M.34,6.77S.72,8.25,5.87,9.19a14.27,14.27,0,0,0,9.72-1.84c.81-.51,2.45-.92,2.5-1a2.2,2.2,0,0,0-.05-2c-.13-.21-1.31-.12-1.86-.64a6.92,6.92,0,0,0-3.7-2.53C7.89.1,5.11.76,4.06,1.8A12.45,12.45,0,0,1,3.12,3,10.07,10.07,0,0,1,.18,4.86S.2,6,2.4,5.6A2,2,0,0,1,.34,6.77Z"/><path class="cls-2" d="M4.57,3.51A.31.31,0,1,0,4,3.5a.32.32,0,0,0,.31.32A.31.31,0,0,0,4.57,3.51Z"/><path class="cls-1" d="M8,6.61c-.14.12,0,.64.53.93s.89.26,1,.16a3.14,3.14,0,0,0,.6-.81c.31-.61.46-1.35.28-1.21a5.34,5.34,0,0,1-2,.94C8.12,6.58,8.15,6.5,8,6.61Z"/><path class="cls-2" d="M10.71,2.87a3.56,3.56,0,0,0-.16.65,3.19,3.19,0,0,0,.16.7,4.08,4.08,0,0,0,.15-.71A3.83,3.83,0,0,0,10.71,2.87Z"/><path class="cls-2" d="M11.63,3.71a3.38,3.38,0,0,0-.18.66,3.54,3.54,0,0,0,.17.66,4.16,4.16,0,0,0,.14-.66A4.44,4.44,0,0,0,11.63,3.71Z"/><path class="cls-2" d="M12.52,4.91a3.09,3.09,0,0,0-.16.68,3.46,3.46,0,0,0,.19.69,4.28,4.28,0,0,0,.15-.68A3.61,3.61,0,0,0,12.52,4.91Z"/><path class="cls-2" d="M12.58,2.17a3.41,3.41,0,0,0-.2.71,3.77,3.77,0,0,0,.18.7,4,4,0,0,0,.17-.7A4.57,4.57,0,0,0,12.58,2.17Z"/><path class="cls-2" d="M13.35,3.37a4.53,4.53,0,0,0-.19.7,3.56,3.56,0,0,0,.18.7,3.72,3.72,0,0,0,.17-.7A5.93,5.93,0,0,0,13.35,3.37Z"/><path class="cls-2" d="M13.38,6a5,5,0,0,0-.17.68,3.81,3.81,0,0,0,.16.68,3.47,3.47,0,0,0,.18-.68A3.86,3.86,0,0,0,13.38,6Z"/><path class="cls-2" d="M14.16,4.71a3.08,3.08,0,0,1,.11.61,4,4,0,0,1-.17.6,4.75,4.75,0,0,1-.1-.61A3.93,3.93,0,0,1,14.16,4.71Z"/><path class="cls-2" d="M14.53,2.65a4.09,4.09,0,0,1,.14.73,4.53,4.53,0,0,1-.16.75,4.63,4.63,0,0,1-.17-.74A3.78,3.78,0,0,1,14.53,2.65Z"/><path class="cls-2" d="M15.33,3.77a2.86,2.86,0,0,1,.1.58,4.25,4.25,0,0,1-.16.58,3.34,3.34,0,0,1-.1-.58A2.74,2.74,0,0,1,15.33,3.77Z"/><path class="cls-2" d="M15.12,5.53a2.6,2.6,0,0,1,.12.5,3.2,3.2,0,0,1-.13.55A3.36,3.36,0,0,1,15,6,2.49,2.49,0,0,1,15.12,5.53Z"/><path class="cls-2" d="M17,4.16a2.66,2.66,0,0,1,.09.41A2.15,2.15,0,0,1,17,5a2.58,2.58,0,0,1-.09-.42A2.2,2.2,0,0,1,17,4.16Z"/><path class="cls-2" d="M17.67,4.58a2.63,2.63,0,0,1,.1.45,2.5,2.5,0,0,1-.11.44A2.13,2.13,0,0,1,17.53,5,2.08,2.08,0,0,1,17.67,4.58Z"/><path class="cls-2" d="M16.15,4.57a2.48,2.48,0,0,1,.06.53,3.77,3.77,0,0,1-.17.57A2.74,2.74,0,0,1,16,5.09,2.34,2.34,0,0,1,16.15,4.57Z"/><path class="cls-2" d="M16.81,5.68a2.18,2.18,0,0,1,.08.46,3.73,3.73,0,0,1-.13.5,2.69,2.69,0,0,1-.09-.5A2.36,2.36,0,0,1,16.81,5.68Z"/><path class="cls-2" d="M17.58,5.9a1.38,1.38,0,0,1,.09.3,1.38,1.38,0,0,1-.09.3,1.74,1.74,0,0,1-.08-.3A1.51,1.51,0,0,1,17.58,5.9Z"/><path class="cls-2" d="M15.77,6.34a2.76,2.76,0,0,1,.09.43,2.69,2.69,0,0,1-.14.43,2.34,2.34,0,0,1-.11-.43A2.35,2.35,0,0,1,15.77,6.34Z"/><path class="cls-2" d="M11.44,6a2.88,2.88,0,0,0-.17.6,2.94,2.94,0,0,0,.15.57,3.5,3.5,0,0,0,.17-.59A3.09,3.09,0,0,0,11.44,6Z"/><path class="cls-2" d="M9,1a3.22,3.22,0,0,0-.19.7,4,4,0,0,0,.18.7,3.77,3.77,0,0,0,.18-.7A4,4,0,0,0,9,1Z"/><path class="cls-2" d="M9.75,2.09a2.32,2.32,0,0,0-.18.59,3.37,3.37,0,0,0,.21.64,3.18,3.18,0,0,0,.13-.63A3.62,3.62,0,0,0,9.75,2.09Z"/><path class="cls-2" d="M9.06,3.28a3.09,3.09,0,0,0-.15.58,2.45,2.45,0,0,0,.14.57,2.79,2.79,0,0,0,.16-.57A3.09,3.09,0,0,0,9.06,3.28Z"/><path class="cls-2" d="M9.2,5A2.45,2.45,0,0,0,9,5.56a2.5,2.5,0,0,0,.15.51,2.64,2.64,0,0,0,.15-.52A2.78,2.78,0,0,0,9.2,5Z"/><path class="cls-2" d="M9.85,4.08a2.66,2.66,0,0,0-.13.59,3.56,3.56,0,0,0,.2.59,3.31,3.31,0,0,0,.1-.59A2.94,2.94,0,0,0,9.85,4.08Z"/><path class="cls-2" d="M10.77,5.05a2.78,2.78,0,0,1,.15.62,2.32,2.32,0,0,1-.16.52,2.64,2.64,0,0,1-.15-.52A3.31,3.31,0,0,1,10.77,5.05Z"/><path class="cls-2" d="M10.18,6.89a2.13,2.13,0,0,0-.13.45,2.33,2.33,0,0,0,.12.44,2.33,2.33,0,0,0,.12-.44A1.82,1.82,0,0,0,10.18,6.89Z"/><path class="cls-2" d="M11.58,2.72a3,3,0,0,1-.16-.6,3.47,3.47,0,0,1,.17-.61,5,5,0,0,1,.14.58A3.66,3.66,0,0,1,11.58,2.72Z"/><path class="cls-2" d="M10.58,1a2.68,2.68,0,0,0-.14.59,3.22,3.22,0,0,0,.17.59,2.82,2.82,0,0,0,.1-.62A4.39,4.39,0,0,0,10.58,1Z"/><path class="cls-2" d="M13.78,1.71a1.93,1.93,0,0,0-.09.43,2.63,2.63,0,0,0,.14.51A2.09,2.09,0,0,0,14,2.13,1.65,1.65,0,0,0,13.78,1.71Z"/><path class="cls-2" d="M8.16,6.7a1.78,1.78,0,0,0,1.75-.33A1.34,1.34,0,0,1,8.16,6.7Z"/><path class="cls-2" d="M8.2,7a1.51,1.51,0,0,0,1.71-.24S9.42,7.68,8.2,7Z"/><path class="cls-2" d="M8.32,7.23a1.34,1.34,0,0,0,1.32.07S9.21,7.93,8.32,7.23Z"/><path class="cls-1" d="M0,5c-.15.27.22.78.72.9A2.38,2.38,0,0,0,2.4,5.6a4.54,4.54,0,0,1-1.29-.25C.76,5.16.28,4.57,0,5Z"/><path class="cls-1" d="M.16,6.53c-.34.27,0,.83.89.67S2.4,5.6,2.4,5.6a4,4,0,0,1-1.35.93C.63,6.63.45,6.31.16,6.53Z"/><path class="cls-4" d="M4.44,3.44A.13.13,0,0,0,4.3,3.3a.14.14,0,0,0-.14.14.14.14,0,1,0,.28,0Z"/></g></g></svg>