<svg xmlns="http://www.w3.org/2000/svg" viewBox="0 0 13.24 8.6"><defs><style>.cls-1{fill:#e51d30;}.cls-2{fill:#f15f59;}.cls-3{fill:#e7373d;}.cls-4{fill:#f1eaea;}.cls-5{fill:#191818;}.cls-6{fill:#f2f3f4;}</style></defs><g id="Layer_2" data-name="Layer 2"><g id="Layer_2-2" data-name="Layer 2"><path class="cls-1" d="M2.86,6.69A1.14,1.14,0,0,0,3.38,8c.25.16-.36-.33-.19-1.12C3.32,6.27,2.86,6.69,2.86,6.69Z"/><path class="cls-1" d="M3.38,6.88A1.9,1.9,0,0,0,3.79,8c.39.55,1.14.77,1,.56C4.26,7.82,3.9,7.39,3.55,7Z"/><path class="cls-2" d="M8.85,6.31a1.15,1.15,0,0,1,.2-.77A1.94,1.94,0,0,0,9.33,4.4,2.19,2.19,0,0,0,9,3.32,1.6,1.6,0,0,1,8.7,2.6a1.78,1.78,0,0,1,.21-.77A6.26,6.26,0,0,1,10.5,3.29a3.69,3.69,0,0,0,0,.94c.05.31.1.6.16.85A8.81,8.81,0,0,1,8.89,6.49.59.59,0,0,1,8.85,6.31Z"/><path class="cls-2" d="M2.84,6.4A1.18,1.18,0,0,1,3,5.75,1.56,1.56,0,0,0,3.2,5a1.67,1.67,0,0,0-.33-.88.75.75,0,0,1-.13-.25.71.71,0,0,1,.07-.33A2.18,2.18,0,0,0,3,2.66a1.76,1.76,0,0,0-.29-.79,9.32,9.32,0,0,1,.94-.5,1.64,1.64,0,0,1,.26.78,1.58,1.58,0,0,1-.08.5,1.67,1.67,0,0,0-.1.92A2,2,0,0,0,4,4.45a.59.59,0,0,1,.14.39,1,1,0,0,1-.14.5,2.27,2.27,0,0,0-.25,1.07,3,3,0,0,0,.12.78,5.89,5.89,0,0,1-1-.38C2.87,6.68,2.85,6.54,2.84,6.4Z"/><path class="cls-2" d="M6.72,6.48a1,1,0,0,1,.16-.57,2.21,2.21,0,0,0,.27-1,1.88,1.88,0,0,0-.3-1,1.15,1.15,0,0,1-.21-.56,2.07,2.07,0,0,1,.11-1A2.72,2.72,0,0,0,6.89,1V1a5.56,5.56,0,0,1,1.25.41,2.74,2.74,0,0,0-.29,1.29,2.5,2.5,0,0,0,.37,1,1.39,1.39,0,0,1,.25.72,1,1,0,0,1-.19.66A2,2,0,0,0,8,6.42c0,.08,0,.27.1.47a6.76,6.76,0,0,1-1.15.36A2.74,2.74,0,0,1,6.72,6.48Z"/><path class="cls-2" d="M6,.9a1.87,1.87,0,0,1,0,.25,1.93,1.93,0,0,1-.1.9,2.84,2.84,0,0,0-.15,1.38,2,2,0,0,0,.32.89,1.09,1.09,0,0,1,.19.59,1.45,1.45,0,0,1-.19.62,2,2,0,0,0-.24,1,3,3,0,0,0,.21.84,6.86,6.86,0,0,1-1.2,0,2.61,2.61,0,0,1-.26-1,1.49,1.49,0,0,1,.18-.71A1.94,1.94,0,0,0,5,4.83,1.51,1.51,0,0,0,4.74,4a1,1,0,0,1-.2-.52,1,1,0,0,1,0-.55,2,2,0,0,0,.13-.78,2.26,2.26,0,0,0-.31-1.09A3.52,3.52,0,0,1,4.92,1,6.59,6.59,0,0,1,6,.9Z"/><path class="cls-2" d="M.77,4.4C.18,4.45.08,4,.09,3.92s.89-.74,1.19-1A7.09,7.09,0,0,1,2,2.35a.92.92,0,0,1,.14.36,1.3,1.3,0,0,1-.1.54A1.52,1.52,0,0,0,1.88,4a1.45,1.45,0,0,0,.27.6A.92.92,0,0,1,2.34,5a.83.83,0,0,1-.12.36A1.93,1.93,0,0,0,2,6.25c-.14-.1-.25-.19-.33-.26A10.4,10.4,0,0,1,.19,4.82,1.24,1.24,0,0,1,0,4.35.7.7,0,0,0,.77,4.4Z"/><path class="cls-1" d="M10.5,3.29h0a5.11,5.11,0,0,0,2.15-1,3.22,3.22,0,0,1,.14,3.48,7.59,7.59,0,0,0-2.14-.68h0c-.06-.25-.11-.54-.16-.85A3.69,3.69,0,0,1,10.5,3.29Z"/><path class="cls-3" d="M8.28,5.14a1,1,0,0,0,.19-.66,1.39,1.39,0,0,0-.25-.72,2.5,2.5,0,0,1-.37-1,2.74,2.74,0,0,1,.29-1.29,5.08,5.08,0,0,1,.77.41,1.78,1.78,0,0,0-.21.77A1.6,1.6,0,0,0,9,3.32,2.19,2.19,0,0,1,9.33,4.4a1.94,1.94,0,0,1-.28,1.14,1.15,1.15,0,0,0-.2.77.59.59,0,0,0,0,.18,8.51,8.51,0,0,1-.8.4C8,6.69,8,6.5,8,6.42A2,2,0,0,1,8.28,5.14Z"/><path class="cls-3" d="M5.86,6.55a2,2,0,0,1,.24-1,1.45,1.45,0,0,0,.19-.62,1.09,1.09,0,0,0-.19-.59,2,2,0,0,1-.32-.89,2.84,2.84,0,0,1,.15-1.38,1.93,1.93,0,0,0,.1-.9A1.87,1.87,0,0,0,6,.9a5.27,5.27,0,0,1,.9.11V1a2.72,2.72,0,0,1-.14,1.27,2.07,2.07,0,0,0-.11,1,1.15,1.15,0,0,0,.21.56,1.88,1.88,0,0,1,.3,1,2.21,2.21,0,0,1-.27,1,1,1,0,0,0-.16.57,2.74,2.74,0,0,0,.22.77,6.18,6.18,0,0,1-.67.12l-.2,0A3,3,0,0,1,5.86,6.55Z"/><path class="cls-1" d="M6.07,7.39l.2,0a6.18,6.18,0,0,0,.67-.12,6.76,6.76,0,0,0,1.15-.36,8.51,8.51,0,0,0,.8-.4,8.81,8.81,0,0,0,1.77-1.41A3.66,3.66,0,0,0,12,7.45S10.5,8.37,7.37,8c-.35,0-.73-.1-1.12-.18s-.86-.19-1.33-.33a.35.35,0,0,0,0-.08A6.86,6.86,0,0,0,6.07,7.39Z"/><path class="cls-1" d="M5.89.6,6.74.39a13.6,13.6,0,0,1,4.8-.28,10.85,10.85,0,0,0-1,3.18A6.26,6.26,0,0,0,8.91,1.83a5.08,5.08,0,0,0-.77-.41A5.56,5.56,0,0,0,6.89,1,5.27,5.27,0,0,0,6,.9,6.59,6.59,0,0,0,4.92,1a3.52,3.52,0,0,0-.51.1h0C4.68,1,5.21.78,5.89.6Z"/><path class="cls-3" d="M3.75,6.41A2.27,2.27,0,0,1,4,5.34a1,1,0,0,0,.14-.5A.59.59,0,0,0,4,4.45a2,2,0,0,1-.32-.88,1.67,1.67,0,0,1,.1-.92,1.58,1.58,0,0,0,.08-.5,1.64,1.64,0,0,0-.26-.78,5.22,5.22,0,0,1,.61-.25l.2-.07a2.26,2.26,0,0,1,.31,1.09,2,2,0,0,1-.13.78,1,1,0,0,0,0,.55,1,1,0,0,0,.2.52A1.51,1.51,0,0,1,5,4.83a1.94,1.94,0,0,1-.22.87,1.49,1.49,0,0,0-.18.71,2.61,2.61,0,0,0,.26,1l-.45-.07-.55-.13A3,3,0,0,1,3.75,6.41Z"/><path class="cls-3" d="M4.42,7.32l.45.07a.35.35,0,0,1,0,.08l-.5-.15Z"/><path class="cls-3" d="M4.21,1.12h0l.2-.07h0Z"/><path class="cls-3" d="M2.34,5a.92.92,0,0,0-.19-.44A1.45,1.45,0,0,1,1.88,4,1.52,1.52,0,0,1,2,3.25a1.3,1.3,0,0,0,.1-.54A.92.92,0,0,0,2,2.35c.21-.15.45-.32.71-.48A1.76,1.76,0,0,1,3,2.66a2.18,2.18,0,0,1-.14.87.71.71,0,0,0-.07.33.75.75,0,0,0,.13.25A1.67,1.67,0,0,1,3.2,5a1.56,1.56,0,0,1-.2.76,1.18,1.18,0,0,0-.16.65c0,.14,0,.28.05.41A5.65,5.65,0,0,1,2,6.25a1.93,1.93,0,0,1,.24-.87A.83.83,0,0,0,2.34,5Z"/><path class="cls-4" d="M2.28,3.62a.35.35,0,0,0-.37-.33.35.35,0,0,0-.33.37A.34.34,0,0,0,2,4,.35.35,0,0,0,2.28,3.62Z"/><path class="cls-5" d="M2.12,3.66a.24.24,0,0,0-.25-.22.24.24,0,0,0,0,.47A.24.24,0,0,0,2.12,3.66Z"/><path class="cls-6" d="M2,3.61A.06.06,0,0,0,2,3.55a.07.07,0,0,0-.07.06s0,.06.07.06A.06.06,0,0,0,2,3.61Z"/></g></g></svg>