<svg xmlns="http://www.w3.org/2000/svg" viewBox="0 0 14.84 10.84"><defs><style>.cls-1{fill:#464361;}.cls-2{fill:#e1dfd6;}.cls-3{fill:#cccbc8;}.cls-4{fill:#f1eaea;}.cls-5{fill:#191818;}.cls-6{fill:#f8f7f2;}</style></defs><g id="Layer_2" data-name="Layer 2"><g id="Layer_2-2" data-name="Layer 2"><path class="cls-1" d="M1.57,4s2.6,1.75.76,4c-.46.56,1.39-.65,2.7-.92l.06-1.71S1.27,3.59,1.57,4Z"/><path class="cls-2" d="M13.32,6.22s.24.43,1.3.16c.34-.09.48.3-1.11.53-1.13.17-1.2,1.4-2.51,2s-1.63.27-3.25.94-2.15,1.06-3,1a5.82,5.82,0,0,0,.55-1.67c0-.66-.39-1.83-.35-2.94s.6-1.94.53-2.83S4.86.44.34.36C0,.35-.17.07.34,0A19.27,19.27,0,0,1,11.65,3.29c.73.47,1.38,2.08,1.73,2.3.59.36,1.32-.11,1.4.2A1.81,1.81,0,0,1,13.32,6.22Z"/><path class="cls-1" d="M9.8,5.78c.12,2.67-1.29,3.61-.14,3.33a3.35,3.35,0,0,0,2.41-1.5c.33-.66.46-3.43-.44-4.06s-3-1.73-2.4-.94A8.45,8.45,0,0,1,9.8,5.78Z"/><path class="cls-3" d="M10.71,5.82a.22.22,0,0,1,0,.31c-.08.06-1.47.67-1.59.47s.06-.21.06-.33S9.07,6.12,9.06,6s.11-.22.12-.33-.06-.2,0-.29.15-.14.16-.22,0-.26.1-.31S10.53,5.62,10.71,5.82Z"/><path class="cls-1" d="M5.9,6.06c0,.54.45,1.45.31,2.2S5,10.86,5.76,10.39A3.84,3.84,0,0,0,7.5,7.63c0-1.17-.24-1-.24-1.61s.28-1.95.24-2.77C7.42,1.47,3.68.43,5.29,1.58a2,2,0,0,1,1,2C6.32,4.37,5.9,5.38,5.9,6.06Z"/><path class="cls-4" d="M11.18,4.69a.36.36,0,0,1,.71,0,.36.36,0,1,1-.71,0Z"/><path class="cls-5" d="M11.34,4.72a.24.24,0,1,1,.48,0,.24.24,0,0,1-.23.25A.25.25,0,0,1,11.34,4.72Z"/><circle class="cls-6" cx="11.68" cy="4.66" r="0.06"/></g></g></svg>