<svg xmlns="http://www.w3.org/2000/svg" viewBox="0 0 13.16 11.88"><defs><style>.cls-1{fill:#a57e5f;}.cls-2{fill:#b98e6a;}.cls-3{fill:#c1926f;}.cls-4{fill:#e2c795;}.cls-5{fill:#f1eaea;}.cls-6{fill:#191818;}.cls-7{fill:#f0f2f4;}</style></defs><g id="Layer_2" data-name="Layer 2"><g id="Layer_2-2" data-name="Layer 2"><path class="cls-1" d="M.51,4A2.1,2.1,0,0,0,.34,6.6,1.56,1.56,0,0,1,1.92,6L2,4.76A1.22,1.22,0,0,1,.51,4Z"/><path class="cls-2" d="M12,5.54c-1.51-1.36-8.71-1.48-10.18.77a4.7,4.7,0,0,1,.65-3A5.08,5.08,0,0,1,5.32,1c3.62-1,6,1.75,6.64,2.81.19.33.43.86,1,.76a.18.18,0,0,1,.16.29.69.69,0,0,1-1-.11.65.65,0,0,0,1.06.37.44.44,0,0,1-.12.39c-.18.16-.6.2-.63.42V6A2.37,2.37,0,0,0,12,5.54Z"/><path class="cls-3" d="M10.47,9.87c-2.19,2-6,1.28-7.48-.59a5.82,5.82,0,0,1-1.18-3C3.28,4.06,10.48,4.18,12,5.54A2.37,2.37,0,0,1,12.4,6C12.4,6.43,12.5,8,10.47,9.87Z"/><path class="cls-1" d="M8.93,5.29c0,.42-1.54,1.2-1.72,1.06S7.15,6.13,7.15,6s-.22-.13-.23-.29.14-.23.13-.37-.16-.2-.16-.3.16-.2.17-.31-.22-.25,0-.43S8.92,4.76,8.93,5.29Z"/><path class="cls-4" d="M9.21,3.12a.86.86,0,0,1-.86-.22s.33,0,.57-.69C9,2,8.83,3,9.21,3.12Z"/><path class="cls-4" d="M7,2.71a.86.86,0,0,1-.87.15s.31-.11.24-.87C6.33,1.76,6.57,2.71,7,2.71Z"/><path class="cls-4" d="M7.79.89A.85.85,0,0,1,6.91.81s.33,0,.46-.77C7.41-.2,7.39.78,7.79.89Z"/><path class="cls-4" d="M6.1.87a.85.85,0,0,1-.86.19s.31-.13.21-.88C5.41-.06,5.69.89,6.1.87Z"/><path class="cls-4" d="M3.27,2.29A.86.86,0,0,1,2.7,3s.17-.29-.37-.82C2.16,2,3,2.56,3.27,2.29Z"/><path class="cls-4" d="M4.45,1.39a.86.86,0,0,1-.74.49S4,1.65,3.58,1C3.47.78,4.07,1.56,4.45,1.39Z"/><path class="cls-4" d="M5.71,4.61a.86.86,0,0,1-.54.7s.15-.3-.41-.81C4.59,4.34,5.41,4.89,5.71,4.61Z"/><path class="cls-4" d="M5,6.28a.85.85,0,0,1,.61.64s-.27-.2-.86.28C4.54,7.35,5.2,6.62,5,6.28Z"/><path class="cls-4" d="M6.32,7.19a.86.86,0,0,1,.84.29s-.33-.05-.63.64C6.44,8.34,6.69,7.39,6.32,7.19Z"/><path class="cls-4" d="M8.23,7.65a.85.85,0,0,1,.7-.54s-.22.25.19.88C9.25,8.19,8.59,7.45,8.23,7.65Z"/><path class="cls-4" d="M9.46,1.48a.86.86,0,0,1-.81-.36S9,1.2,9.34.53C9.45.32,9.12,1.25,9.46,1.48Z"/><path class="cls-4" d="M10.9,2.53A.87.87,0,0,1,10.21,2s.3.17.82-.37C11.2,1.42,10.63,2.21,10.9,2.53Z"/><path class="cls-4" d="M4.7,3.07A.88.88,0,0,1,4,3.64s.21-.26-.22-.88C3.66,2.57,4.34,3.28,4.7,3.07Z"/><path class="cls-4" d="M3.52,4.73a.88.88,0,0,1-.3.84s.06-.33-.63-.65C2.37,4.83,3.32,5.09,3.52,4.73Z"/><path class="cls-4" d="M2.41,3.41a.85.85,0,0,1-.37.8s.08-.32-.58-.69C1.26,3.4,2.18,3.75,2.41,3.41Z"/><path class="cls-4" d="M3.32,6.32a.87.87,0,0,1,.12.88s-.1-.32-.86-.28C2.34,6.94,3.31,6.74,3.32,6.32Z"/><path class="cls-4" d="M4.05,7.84a.86.86,0,0,1,.56.68s-.25-.21-.87.22C3.54,8.88,4.25,8.2,4.05,7.84Z"/><path class="cls-4" d="M5.66,8.94a.86.86,0,0,1,.84.29s-.33-.05-.63.64C5.78,10.09,6,9.14,5.66,8.94Z"/><path class="cls-4" d="M7.66,9.39a.88.88,0,0,1,.85-.24s-.3.15-.16.89C8.4,10.28,8.07,9.35,7.66,9.39Z"/><path class="cls-4" d="M9.72,8.82a.86.86,0,0,1,.68-.57s-.21.25.23.87C10.76,9.31,10.08,8.61,9.72,8.82Z"/><path class="cls-4" d="M10.44,7.05a.88.88,0,0,1,.43-.78s-.11.32.52.74C11.59,7.14,10.7,6.73,10.44,7.05Z"/><path class="cls-4" d="M11.22,9.09a.85.85,0,0,1,.52-.72s-.15.3.43.79C12.35,9.31,11.51,8.79,11.22,9.09Z"/><path class="cls-4" d="M9.86,10.33a.87.87,0,0,1,.7-.55s-.22.25.2.88C10.89,10.86,10.23,10.13,9.86,10.33Z"/><path class="cls-4" d="M8,11a.86.86,0,0,1,.87-.2s-.31.13-.2.88C8.69,11.92,8.4,11,8,11Z"/><path class="cls-4" d="M6.29,11a.86.86,0,0,1,.89.07s-.34,0-.45.78C6.69,12.08,6.69,11.1,6.29,11Z"/><path class="cls-4" d="M4.66,10.52a.85.85,0,0,1,.83.31s-.33-.06-.64.62C4.75,11.67,5,10.72,4.66,10.52Z"/><path class="cls-4" d="M3.17,9.49a.86.86,0,0,1,.68.57s-.29-.17-.82.37C2.86,10.6,3.44,9.8,3.17,9.49Z"/><path class="cls-4" d="M2.22,7.94a.85.85,0,0,1,.39.79s-.2-.27-.9,0C1.49,8.83,2.34,8.33,2.22,7.94Z"/><path class="cls-4" d="M1.84,6.52A.87.87,0,0,1,2,7.39s-.13-.31-.88-.21C.92,7.22,1.86,6.94,1.84,6.52Z"/><path class="cls-5" d="M10.22,3.73a.34.34,0,0,1,.34-.36.35.35,0,0,1,.36.34.36.36,0,0,1-.34.36A.35.35,0,0,1,10.22,3.73Z"/><path class="cls-6" d="M10.38,3.75a.24.24,0,1,1,.47,0,.23.23,0,0,1-.23.24A.23.23,0,0,1,10.38,3.75Z"/><circle class="cls-7" cx="10.7" cy="3.71" r="0.07"/></g></g></svg>