<svg xmlns="http://www.w3.org/2000/svg" viewBox="0 0 17 24.35"><defs><style>.cls-1{fill:#f4bb4f;}.cls-2{fill:#010101;}.cls-3{fill:#f3837d;}.cls-4{fill:#fac2c0;}.cls-5{fill:#ee6b67;}</style></defs><g id="Layer_2" data-name="Layer 2"><g id="Layer_2-2" data-name="Layer 2"><path class="cls-1" d="M2.5.76l-.14,1a1.3,1.3,0,0,0-1.57.07c.09-.33.17-.73.22-1A3.34,3.34,0,0,1,2.5.76Z"/><path class="cls-2" d="M.05,3.15a2.59,2.59,0,0,1,.48-2A1.13,1.13,0,0,1,1,.85c-.05.29-.13.69-.22,1A3.83,3.83,0,0,0,.05,3.15Z"/><path class="cls-1" d="M7,21.27c.07,0,0-.36,0-.44-.11-.63-.46-.94-.32-1.26.21-.48.93-.62,1-.63s4.58-.24,4.63-.31-1.4-4-1.4-4l-.33.05,1.31,3.71-4.25.29a1.64,1.64,0,0,0-1.23.8C6.12,20.05,6.26,21.06,7,21.27Z"/><rect class="cls-1" x="4.2" y="19.09" width="9.52" height="0.3" transform="translate(-10.4 27.93) rotate(-89.2)"/><path class="cls-3" d="M3.61,0A1.58,1.58,0,0,1,4.89.63,3,3,0,0,1,6.53,2.47,4.2,4.2,0,0,1,5.44,6a4,4,0,0,0-.63,3.42A5.88,5.88,0,0,1,7,7.82l.15-.06a1.87,1.87,0,0,0-.68,2.92,3,3,0,0,0,1.78,1,6.6,6.6,0,0,0,2.27.33,17,17,0,0,0,5.18-1.34A3.52,3.52,0,0,0,17,12s-1.61,2.17-5.95,2.26c-.07.21-.19.47-.38.48s-.36-.26-.46-.49c-.24,0-.49,0-.74-.05-.1.23-.27.51-.47.49s-.35-.37-.41-.59c-4-.61-4.25-2.84-4.27-3.08a5.36,5.36,0,0,1,.33-5.56,3.32,3.32,0,0,0,.94-2.7A1.8,1.8,0,0,0,5,1.82a1.55,1.55,0,0,1-1.39.74,1.41,1.41,0,0,1-1.49-1.3A1.4,1.4,0,0,1,3.61,0Z"/><path class="cls-4" d="M8.2,11.68a6.73,6.73,0,0,0,4-.61c1.94-.9,1.5-2.37.94-3a6,6,0,0,1,1.57,1.3,16,16,0,0,1,.92,1.34A17,17,0,0,1,10.47,12,6.6,6.6,0,0,1,8.2,11.68Z"/><path class="cls-5" d="M7.1,7.76c.19-.09.55-.23.74-.3a5,5,0,0,1,1.78-.33,6.5,6.5,0,0,1,3.54.9c.56.67,1,2.14-.94,3a6.73,6.73,0,0,1-4,.61,3,3,0,0,1-1.78-1A1.87,1.87,0,0,1,7.1,7.76Z"/><path class="cls-4" d="M2.09,1.23c0-.42.56-.75,1.24-.74s1.22.35,1.22.77S4,2,3.31,2,2.08,1.64,2.09,1.23Z"/><path class="cls-2" d="M3.5,1.13a.15.15,0,1,1,.14.15A.15.15,0,0,1,3.5,1.13Z"/><path class="cls-4" d="M11.3,10h0a.51.51,0,0,0,.35-.28.54.54,0,0,0,0-.37A.45.45,0,0,0,11.88,9a.5.5,0,0,0-.12-.32A.47.47,0,0,0,12,8.38.53.53,0,0,0,11.84,8h0s0,0,0,0a.54.54,0,0,1,.16.36c0,.11-.1.21-.27.29l0,0,0,0a.42.42,0,0,1,.13.31.43.43,0,0,1-.23.28l0,0v0a.45.45,0,0,1,0,.34.48.48,0,0,1-.31.25s0,0,0,0A0,0,0,0,0,11.3,10Z"/><path class="cls-4" d="M9.89,10.37h0c.2,0,.32-.1.37-.22a.37.37,0,0,0,0-.32.52.52,0,0,0,.32-.27.46.46,0,0,0,0-.36.46.46,0,0,0,.24-.32.5.5,0,0,0-.12-.32c.16-.09.25-.19.26-.32a.5.5,0,0,0-.18-.39h0a0,0,0,0,0,0,0,.44.44,0,0,1,.16.35c0,.11-.1.21-.26.29l0,0,0,0a.42.42,0,0,1,.13.31.38.38,0,0,1-.23.28l0,0v0a.45.45,0,0,1,0,.34.43.43,0,0,1-.31.25h0l0,0a.37.37,0,0,1,0,.3c0,.1-.16.16-.34.19,0,0,0,0,0,0Z"/><path class="cls-4" d="M8.45,10.77h0c.19-.06.29-.14.32-.26a.3.3,0,0,0,0-.24.46.46,0,0,0,.33-.21.39.39,0,0,0,0-.33.46.46,0,0,0,.31-.26.5.5,0,0,0,0-.37.43.43,0,0,0,.23-.31.4.4,0,0,0-.12-.32.44.44,0,0,0,.26-.32.51.51,0,0,0-.17-.39h0a0,0,0,0,0,0,0,.46.46,0,0,1,.17.35.43.43,0,0,1-.27.3l0,0,0,0a.38.38,0,0,1,.13.31.4.4,0,0,1-.23.28h0v0a.46.46,0,0,1,0,.35A.5.5,0,0,1,9,9.7H9l0,0A.37.37,0,0,1,9,10c0,.1-.15.16-.33.19h0l0,0a.28.28,0,0,1,.08.23c0,.1-.13.17-.29.23s0,0,0,0Z"/><path class="cls-1" d="M6.68,24.35c.09,0,.91-.06,1.71-.15s1.19,0,1.26,0a.13.13,0,0,0,0-.25s-.89,0-1.21-.08c-.58-.1-1.69-.29-1.72-.27s-.11.11,0,.15S8,24,8.5,24c-.5.11-1.68.15-1.83.17A.09.09,0,0,0,6.68,24.35Z"/><path class="cls-1" d="M8.63,24.11V24c.16,0-1.86-.1-2-.09s-.14.14,0,.16Z"/></g></g></svg>