<svg xmlns="http://www.w3.org/2000/svg" viewBox="0 0 20.78 17.54"><defs><style>.cls-1{fill:#f4a067;}.cls-2{fill:#f6e9e1;}.cls-3{fill:#f4c69e;}.cls-4{fill:#553723;}.cls-5{fill:#131312;}.cls-6{fill:#f0f2f4;}</style></defs><g id="Layer_2" data-name="Layer 2"><g id="Layer_2-2" data-name="Layer 2"><path class="cls-1" d="M16.91,9.06c.27-.41-.22-1.73-.22-1.73-.25.79-1.45,1.29-1.45,1.29a7.67,7.67,0,0,1-.15-1.7,11.7,11.7,0,0,1-1.4,1.53c-.18-.27,0-1.35,0-1.35a7.05,7.05,0,0,0-1.22,1c-.11.27-.21.53-.31.81-.82,2.43-.06,2.93-.35,4.9S9.34,15.6,9.34,15.6s-1.46-.91,0,.23,2.47,1.29,4.55.76c2.47-.63,4.69-3.75,4.6-6.44a5.74,5.74,0,0,1,0-.6,8.69,8.69,0,0,1-.23-1.8C18.11,8.31,16.91,9.06,16.91,9.06Z"/><path class="cls-2" d="M20.22,6.13c-.58-.44-1.7.24-1.7.24-.44-1.7,2.26-2.91,2.26-2.91C17.23,1.62,15,5.83,15,5.83V4.23a10.19,10.19,0,0,0-2.54,3.82,7.05,7.05,0,0,1,1.22-1s-.18,1.08,0,1.35a11.7,11.7,0,0,0,1.4-1.53,7.67,7.67,0,0,0,.15,1.7s1.2-.5,1.45-1.29c0,0,.49,1.32.22,1.73,0,0,1.2-.75,1.38-1.31a8.69,8.69,0,0,0,.23,1.8A6.24,6.24,0,0,1,20.22,6.13Z"/><path class="cls-1" d="M3.26,11.72v1.73s0,.31-.18,0-.74-.12-.65.79c0,.62.09,2.09.83,2.64s2.28.45,3.06.4,2.07.13,2.84-.48a1.69,1.69,0,0,0,.48-.91c.07-.53.16-1.79.16-2.08,0-.57-.49-.72-.64-.41s-.23.16-.23,0-.11-1.73-.11-1.73Z"/><ellipse class="cls-3" cx="6.21" cy="13.76" rx="2.23" ry="2.96"/><path class="cls-4" d="M4.7,12.49s.19,3.91.12,4.13-.26.25-.35.33-.26.46.07.55,1,0,.88-.52.12-4.49.12-4.49Z"/><path class="cls-4" d="M7.89,12.49s0,3.92,0,4.14.26.23.36.3.28.46,0,.56-1,0-.9-.49-.28-4.48-.28-4.48Z"/><path class="cls-4" d="M8.5,17c0-.23.37-.56.84-.38s.25.62.05.63a2.66,2.66,0,0,1-.63,0C8.55,17.22,8.5,17.12,8.5,17Z"/><path class="cls-4" d="M4.17,17.12c0-.23-.39-.54-.85-.35s-.23.63,0,.63a2.66,2.66,0,0,0,.63,0C4.13,17.32,4.17,17.21,4.17,17.12Z"/><path class="cls-2" d="M3.57,7.12s.22.33-.2.77a2.84,2.84,0,0,0-.9,3.61s0-.84.2-.88A2.87,2.87,0,0,0,4.12,13s-.13-.59,0-.7S6,13.56,6.34,14.68a13.31,13.31,0,0,1,1.55-2,2.88,2.88,0,0,1,.05,1A5.22,5.22,0,0,0,9.2,11.34a1.55,1.55,0,0,1,.19.86s1.7-2.84-.08-4a1.53,1.53,0,0,1-.69-1.26Z"/><path class="cls-3" d="M11.06,5a1.36,1.36,0,0,0,.75-.53s-1.43-.28-1.75-1.24h0s-4-.46-3.61,4.67H6.07c-.3-5.36-4.15-4.45-4.15-4.45h0A3.31,3.31,0,0,1,0,5a4.31,4.31,0,0,0,.94.41,3,3,0,0,1-.76.38c.11.23,1,.32,1,.32-.32.35-.73.32-.64.44a6.47,6.47,0,0,0,2.23.56A18.5,18.5,0,0,1,6.36,8.45,5.72,5.72,0,0,1,9.29,6.89c2.14-.32,2.43-1,2.43-1a1.71,1.71,0,0,1-.85-.07,3.73,3.73,0,0,0,1-.57A2.14,2.14,0,0,1,11.06,5Z"/><path class="cls-1" d="M6.07,7.89h.38c-.35-5.13,3.61-4.67,3.61-4.67h0a11.2,11.2,0,0,0-.92-1.44c.47-1.23.5-1.6.24-1.72S7.83,1,7.83,1C5.54.24,4.37,1,4.37,1S3.14-.24,2.78,0,3,1.85,3,1.85a4.61,4.61,0,0,0-.49.65c-.2.33-.4.68-.58.94h0S5.77,2.53,6.07,7.89Z"/><path class="cls-4" d="M3.25,1.64l.65-.42S3.18.43,3,.52,3.25,1.64,3.25,1.64Z"/><path class="cls-4" d="M8.23,1.22l.63.34s.47-.93.32-1S8.23,1.22,8.23,1.22Z"/><path class="cls-5" d="M8,5.27A.27.27,0,0,0,7.72,5a.28.28,0,0,0-.28.28.29.29,0,0,0,.28.28A.28.28,0,0,0,8,5.27Z"/><path class="cls-5" d="M4.59,5.27A.28.28,0,0,0,4.31,5,.27.27,0,0,0,4,5.27a.28.28,0,0,0,.28.28A.29.29,0,0,0,4.59,5.27Z"/><path class="cls-5" d="M6.69,8.12a.43.43,0,1,0-.43.44A.43.43,0,0,0,6.69,8.12Z"/><path class="cls-6" d="M4.5,5.22a.09.09,0,0,0-.1-.09.09.09,0,0,0-.09.09.1.1,0,0,0,.09.1A.1.1,0,0,0,4.5,5.22Z"/><path class="cls-6" d="M7.92,5.21a.09.09,0,0,0-.09-.08.09.09,0,0,0-.08.08.09.09,0,0,0,.08.09A.09.09,0,0,0,7.92,5.21Z"/></g></g></svg>