<svg xmlns="http://www.w3.org/2000/svg" xmlns:xlink="http://www.w3.org/1999/xlink" viewBox="0 0 18.28 26.18"><defs><style>.cls-1{fill:#c27b2a;}.cls-2{fill:#faab4c;}.cls-3{fill:#642911;}.cls-4{fill:#010101;}.cls-5{opacity:0.7;fill:url(#radial-gradient);}</style><radialGradient id="radial-gradient" cx="-15.34" cy="12.19" r="0.32" gradientTransform="matrix(3.17, 0.19, -0.23, 3.97, 56.48, -39.18)" gradientUnits="userSpaceOnUse"><stop offset="0" stop-color="#f8a182"/><stop offset="1" stop-color="#faab4c"/></radialGradient></defs><g id="Layer_2" data-name="Layer 2"><g id="Layer_2-2" data-name="Layer 2"><path class="cls-1" d="M3.91,3.43a6,6,0,0,0,.66-.53,2.56,2.56,0,0,0,.46-1,1.26,1.26,0,0,0-1.29.34,1.7,1.7,0,0,0-.37,1Z"/><path class="cls-1" d="M18.27,16.88h0c-.11.21-.46.76-.85.48-1.55-1.12-2.05,0-2.05,0v.28s2.22,2,2.9-.76Z"/><path class="cls-2" d="M14.4,17.21a4.59,4.59,0,0,0-1.61-1.43c-1-1.7-3.24-2-4.47-1.95-.66,0-2.69.22-3.48,1.05l-.9-7.07s.69,1,4.15.71C10,8.35,10,5.8,9.9,5.28c-.26-1.17-.23-1.74-4.25-1.92-1.89-.08-2.46-.15-3-1.1A12.83,12.83,0,0,1,2.09.38L1.86.49s.8,2.67.16,3S.51.76.51.76L.32,1c.06.21.22.89.6,2.82C1.6,7.24,2.41,7.08,2.4,7.09s0,.73,0,1.78V9H2.5c.44.07.33.43.33.43l.07.67s-.11.68-.52.37v.05c0,.77,0,1.59,0,2.38v.59c.09-.13.18-.23.24-.32S2.71,12.9,3,13s.3,0,.22.33a.63.63,0,0,0,0,.6c0,.08.22.22-.22.31-.23,0-.18,0-.23,0s-.21.29-.39,0c0,.14,0,.28,0,.41,0,.53,0,1,0,1.34a6.23,6.23,0,0,0,1.36,3.85h0s.26,4.61-.1,5.37c0,0,0,.09,0,.13a1.09,1.09,0,0,0,.77.12.5.5,0,0,0,0-.11l0-4.9h0l.34.22h0s.41,4.24.34,4.52a1.37,1.37,0,0,0,0,.25,2.56,2.56,0,0,0,.47,0,2.44,2.44,0,0,0,.26-.06.76.76,0,0,1,0-.11c-.13-.4-.37-4.24-.37-4.24v0a5.12,5.12,0,0,0,1.86.41,10.13,10.13,0,0,0,3.8-.24h0s.29,3.65.22,4.06l0,.22.32.05h.12l.22,0s.13.07,0-.23S11.64,21,11.64,21h0a4.12,4.12,0,0,0,.61-.37h0l.46,4.59v.18a1.57,1.57,0,0,0,.53-.05c.11,0,.18,0,.28-.06s0-.06-.06-.15a30.93,30.93,0,0,1-.63-5h0a4.4,4.4,0,0,0,.48-2.85,4.23,4.23,0,0,0-.23-1s.45,0,1.19,1c.34.47,1.13.28,1.13.28v-.28S14.74,17.69,14.4,17.21Z"/><path class="cls-3" d="M2.79,14.27s0,0,.22,0c.44-.09.28-.22.22-.3a.72.72,0,0,1,0-.61c.08-.32.06-.23-.21-.33s-.3.07-.35.15-.16.2-.24.32c0,.3,0,.58,0,.86C2.58,14.56,2.7,14.32,2.79,14.27Z"/><path class="cls-3" d="M2.9,10.08,2.83,9.4S2.94,9,2.5,9L2.39,9c0,.45,0,.95,0,1.48C2.79,10.75,2.9,10.08,2.9,10.08Z"/><path class="cls-3" d="M2.9,11.69s-.27-.79.37-.85.58-.14.52.59.17.79-.35.79S2.93,12.2,2.9,11.69Z"/><path class="cls-3" d="M3.91,13.47c0-.21-.47-.77.23-.84s.36.1.38.57.36.75-.16.9S3.91,13.93,3.91,13.47Z"/><path class="cls-3" d="M3.44,9.6S3.08,9.08,3.7,9s.3,0,.44.59-.13.64-.13.64S3.88,10.51,3.44,9.6Z"/><path class="cls-3" d="M3,15.89a.62.62,0,0,1,.38-1c.81-.32.64.05.73.38s.34.71-.36.91S3,15.89,3,15.89Z"/><path class="cls-3" d="M5,16.07c-.06-.31-.43-.54.41-1.08s.86-.36,1.11.09-.35.58-.59.79C5.1,16.64,5,16.14,5,16.07Z"/><path class="cls-3" d="M4.14,16.71c.17-.1.43-.84.75-.05s-.25.88-.25.88-1,.68-1.07-.08S3.94,16.82,4.14,16.71Z"/><path class="cls-3" d="M7,15s-.2-.39,0-.63.39-.25,1-.15a5.11,5.11,0,0,1,.78.05c.1,0,.18.13.06.41s-.09.28-.06.36,0,.28-.48.21c-.15,0-.1,0-.32.1s-.42-.06-.6,0S7,15,7,15Z"/><path class="cls-3" d="M9.62,14.45a.42.42,0,0,1,.63.06c.35.36.35.1.24.58s-.09.56-.54.55-.69-.25-.66-.48C9.37,14.38,9.39,14.7,9.62,14.45Z"/><path class="cls-3" d="M8.89,16.57s-.55.13-.18-.54c.22-.39.51-.17.51-.17l.66.17s.7.39,0,.67a.61.61,0,0,1-.75-.06A.84.84,0,0,0,8.89,16.57Z"/><path class="cls-3" d="M10.85,15.25c0-.21.12-.75.79-.34s.13.71,0,.89-.14.54-.61.34-.22-.42-.18-.5A.73.73,0,0,0,10.85,15.25Z"/><path class="cls-3" d="M6.16,16.6c-.08-.15-.39-.33.36-.57s.68-.49,1.16-.09.21.73,0,.76a2.49,2.49,0,0,0-1.06.1C6.2,17,6.22,16.71,6.16,16.6Z"/><path class="cls-3" d="M7.76,17.43c0-.11-.21-.3.23-.42s.28-.12.38-.14.26-.06.36.06.34.36.29.58-.12.25-.44.25a2.11,2.11,0,0,0-.47,0C7.81,17.82,7.8,17.55,7.76,17.43Z"/><path class="cls-3" d="M6.42,17.48A.38.38,0,0,1,7,17.26c.48.31.27.41.18.71s-.14.77-.55.56c-.13-.07-.27-.21-.18-.32A.15.15,0,0,0,6.42,18c-.13,0-.13-.3-.09-.36A.81.81,0,0,0,6.42,17.48Z"/><path class="cls-3" d="M7.49,18.5c.09-.08.11-.23.29-.13s.31,0,.17.29-.11.3-.26.29-.54,0-.45-.23S7.44,18.55,7.49,18.5Z"/><path class="cls-3" d="M9.35,17.75c0-.33-.21-.34.27-.44.19,0,.51-.13.39.19s.27.25-.25.48S9.36,17.8,9.35,17.75Z"/><path class="cls-3" d="M10.45,17.18s-.46-.64.28-.68.32,0,.61.38-.23.56-.32.6-.38.35-.51,0S10.45,17.18,10.45,17.18Z"/><path class="cls-3" d="M12.31,17.08c-.11.06-.25.37-.47-.11s.17-.8.31-1,.08-.24.35-.15.3,0,.21.33a.72.72,0,0,0,0,.61c.06.07.23.21-.21.3C12.31,17.08,12.36,17.06,12.31,17.08Z"/><path class="cls-3" d="M11.19,18.33a.39.39,0,0,1,.29-.62.84.84,0,0,1,.57,0c.14,0,.33-.12.09.71s-.31.5-.45.37-.44,0-.44-.21A.78.78,0,0,0,11.19,18.33Z"/><path class="cls-3" d="M8.43,18.5c0-.11-.12-.44.3-.35s.45,0,.4.43-.37.79-.6.49A.57.57,0,0,1,8.43,18.5Z"/><path class="cls-3" d="M9.9,18.89c-.1-.08-.85-.15,0-.52s.84,0,.9.14.35.29-.25.38S10,19,9.9,18.89Z"/><path class="cls-3" d="M12.67,17.57c0-.14.59-.75.54-.11,0,.28,0,.16.08.43s-.35.56-.35.56-.44.15-.27-.34S12.67,17.72,12.67,17.57Z"/><path class="cls-3" d="M12.25,19c.1-.07.21-.25.47,0s-.09.41-.09.41-.3.22-.49,0S12.18,19.05,12.25,19Z"/><path class="cls-3" d="M10.49,19.58c0-.07-.09-.26.38-.22.25,0,.25,0,.33,0s.35,0,.32.2c-.08.38-.33.23-.44.24S10.59,19.92,10.49,19.58Z"/><path class="cls-3" d="M5.23,18.28c-.15,0-.42,0-.05-.62.22-.39.25-.46.22-.6s0-.39.29-.09.32.33.26.61,0,.58-.14.71,0,0-.33,0C5.33,18.33,5.39,18.28,5.23,18.28Z"/><path class="cls-3" d="M5.48,19.42s-.08-.69.75-.4.91.44.38.68S5.51,20.08,5.48,19.42Z"/><path class="cls-3" d="M7.32,19.68s-.11-.49.52-.3c.21.06.21,0,.27,0,.25-.16.69.52,0,.61S7.39,19.92,7.32,19.68Z"/><path class="cls-3" d="M8.8,19.71c0-.14.06-.3.48-.3.66,0,.93.15.48.51s-.41.15-.61.18A.36.36,0,0,1,8.8,19.71Z"/><path class="cls-3" d="M4,18.44s.16-.6.53-.18a.92.92,0,0,0,.35.23c.13,0,.4-.06.26.46s-.49.17-.62.09,0-.12-.31-.17A.3.3,0,0,1,4,18.44Z"/><path class="cls-4" d="M5.41,3.9a.18.18,0,0,0-.18-.18.18.18,0,1,0,0,.36A.18.18,0,0,0,5.41,3.9Z"/><path class="cls-4" d="M4.86,4.29a.18.18,0,0,0-.19-.19.19.19,0,0,0-.19.19.2.2,0,0,0,.19.19A.19.19,0,0,0,4.86,4.29Z"/><path class="cls-4" d="M8.68,4.88a.24.24,0,0,1-.16-.08.22.22,0,0,1-.06-.13.1.1,0,0,1,0-.11c.06-.06.17,0,.24.05a.22.22,0,0,1,.06.13.1.1,0,0,1,0,.11A.11.11,0,0,1,8.68,4.88Zm-.11-.3,0,0a.08.08,0,0,0,0,.06.47.47,0,0,0,.05.1c0,.06.13.08.16,0a.08.08,0,0,0,0-.06.31.31,0,0,0-.05-.1A.22.22,0,0,0,8.57,4.58Z"/><path class="cls-4" d="M9.11,4.42A.22.22,0,0,1,9,4.33c-.07-.08-.08-.17,0-.22s.15,0,.21.07.08.17,0,.21A.09.09,0,0,1,9.11,4.42ZM9,4.14H9s0,.09,0,.15.11.08.13,0,0-.08,0-.14A.15.15,0,0,0,9,4.14Z"/><path class="cls-4" d="M12.2,26a1.49,1.49,0,0,1-1,0l.12-.72a.92.92,0,0,0,.7-.05Z"/><path class="cls-4" d="M3.5,26a1.48,1.48,0,0,0,1,.14l-.07-.74a1.06,1.06,0,0,1-.74-.11Z"/><path class="cls-4" d="M13.71,25.82a1.72,1.72,0,0,1-1,.16v-.74a1.28,1.28,0,0,0,.75-.11l.31.65Z"/><path class="cls-4" d="M6,26.14a1.79,1.79,0,0,1-1-.08l.21-.71a1.12,1.12,0,0,0,.7,0l.17.72Z"/><path class="cls-1" d="M2.05,5.17A1.85,1.85,0,0,1,.39,7.43C.17,5.1,2,4.75,2,4.75S2,5.07,2.05,5.17Z"/><path class="cls-5" d="M6.21,6.44A1.09,1.09,0,0,1,5,7.37,1.11,1.11,0,0,1,3.87,6.3,1.1,1.1,0,0,1,5.1,5.38,1.08,1.08,0,0,1,6.21,6.44Z"/><path class="cls-1" d="M.74.88A.38.38,0,0,0,.37.51.38.38,0,0,0,0,.88a.37.37,0,0,0,.74,0Z"/><path class="cls-1" d="M2.31.37A.37.37,0,0,0,1.94,0a.38.38,0,0,0-.37.37.38.38,0,0,0,.37.37A.37.37,0,0,0,2.31.37Z"/></g></g></svg>