<svg xmlns="http://www.w3.org/2000/svg" viewBox="0 0 25.09 18.4"><defs><style>.cls-1{fill:#334c60;}.cls-2{fill:#bac6da;}.cls-3{fill:#212223;}.cls-4{fill:#f7f8f9;}.cls-5{fill:#e9ebee;}.cls-6{fill:#f0f2f4;}</style></defs><g id="Layer_2" data-name="Layer 2"><g id="Layer_2-2" data-name="Layer 2"><path class="cls-1" d="M9.08,14.45a2.75,2.75,0,0,0,0,1.67S7.19,16,7.35,13.05Z"/><path class="cls-2" d="M13.94,16.45a12.75,12.75,0,0,1-8-4.57A10.48,10.48,0,0,1,3.61,5.3C3.59,4.36,3.54,4,3,3.76a.75.75,0,0,0-.57.05,1.45,1.45,0,0,1-.39.3h0a1.49,1.49,0,0,1-.7.15,1.43,1.43,0,0,1,.11-2.85,1.4,1.4,0,0,1,.85.33,6.45,6.45,0,0,0,2.84.11A5.49,5.49,0,0,0,7.91.7a1.43,1.43,0,0,1,2.66.78A1.44,1.44,0,0,1,9.08,2.85a1.35,1.35,0,0,1-.28,0,.11.11,0,0,1-.07,0h0a1.26,1.26,0,0,1-.33-.16.62.62,0,0,0-.77.22.67.67,0,0,0-.2.42,6.64,6.64,0,0,0,1.15,4c1.23,1.83,1.49,1.8,1.49,1.8a3.89,3.89,0,0,0,.82,4.19s-.3-1.74.68-2.24a10.22,10.22,0,0,0,3.28,2.5,15.6,15.6,0,0,0,4.5,1c.37,0,.34.3.34.36s.07.22-.53.63A8.91,8.91,0,0,1,13.94,16.45Z"/><path class="cls-1" d="M19.68,14.89c0-.06,0-.33-.34-.36a15.6,15.6,0,0,1-4.5-1A10.22,10.22,0,0,1,11.56,11c-1,.5-.68,2.24-.68,2.24A3.8,3.8,0,0,1,10,9.19S9.62,9,8.54,7.29A5.78,5.78,0,0,1,7.42,3.18a.51.51,0,0,1,.2-.33,1.12,1.12,0,0,0-.13.51c-.06,1,2.86,4.17,2.86,4.17,3.63-1.91,5.52.1,5.52.1C12.62,7.85,13,9.87,13,9.87a17,17,0,0,0,6.39,3.73,3,3,0,0,0,1.31,0,5,5,0,0,1,4.42-3.48,11.47,11.47,0,0,0-2.93,4c0,.83,2.6,4.34,2.6,4.34a5.52,5.52,0,0,1-4.08-3.86,8,8,0,0,1-1.53,1C19.75,15.11,19.67,14.93,19.68,14.89Z"/><path class="cls-3" d="M8.88,1.53a.31.31,0,1,1,.62,0,.31.31,0,0,1-.32.3A.3.3,0,0,1,8.88,1.53Z"/><path class="cls-3" d="M1,2.92a.3.3,0,0,1,.32-.29.31.31,0,0,1,.3.32.3.3,0,0,1-.32.29A.31.31,0,0,1,1,2.92Z"/><path class="cls-3" d="M3.79,3.75A2.11,2.11,0,0,0,4.15,4c0,.15,0,.4.09.41s.15-.14.23-.26l.09,0c0,.15.08.36.13.37s.14-.18.21-.31H5c.06.14.17.36.22.36s.11-.25.14-.39l.1,0c.09.12.25.33.31.31s.05-.27.05-.42l.09,0c.1.11.27.28.32.26s0-.28,0-.42l.06,0c.11.1.28.26.33.23s0-.29,0-.43A4.1,4.1,0,0,0,7,3.35a3.22,3.22,0,0,1-.89,1.71c-.1-.09-.24-.2-.29-.18s0,.24,0,.38l-.12,0C5.66,5.18,5.56,5,5.49,5s-.12.22-.15.35H5.18c0-.14,0-.34-.09-.37s-.18.13-.26.24A3,3,0,0,1,3.79,3.75Z"/><path class="cls-4" d="M5.49,5c.07,0,.17.17.23.29a1.1,1.1,0,0,1-.26.06H5.34C5.37,5.23,5.43,5,5.49,5Z"/><path class="cls-4" d="M5.09,5c.06,0,.08.23.09.37a1.33,1.33,0,0,1-.35-.13C4.91,5.11,5,5,5.09,5Z"/><path class="cls-4" d="M5.86,4.88s.19.09.29.18a1.27,1.27,0,0,1-.31.2C5.82,5.12,5.8,4.91,5.86,4.88Z"/><path class="cls-4" d="M5.26,4.62S5.1,4.4,5,4.26l.36,0C5.37,4.37,5.32,4.61,5.26,4.62Z"/><path class="cls-4" d="M5.81,4.51c-.06,0-.22-.19-.31-.31a1.5,1.5,0,0,0,.36-.11C5.86,4.24,5.86,4.49,5.81,4.51Z"/><path class="cls-4" d="M4.69,4.57c-.05,0-.1-.22-.13-.37a2,2,0,0,0,.34.06C4.83,4.39,4.73,4.58,4.69,4.57Z"/><path class="cls-4" d="M4.24,4.43S4.16,4.17,4.15,4a1.87,1.87,0,0,0,.32.15C4.39,4.29,4.28,4.44,4.24,4.43Z"/><polygon class="cls-5" points="4.53 4.05 4.54 4.06 4.54 4.06 4.53 4.05"/><path class="cls-4" d="M6.27,4.32S6.05,4.17,6,4.06l.33-.16C6.29,4,6.32,4.3,6.27,4.32Z"/><path class="cls-4" d="M6.67,4.09S6.45,4,6.34,3.86l.31-.2C6.68,3.8,6.72,4.07,6.67,4.09Z"/><path class="cls-3" d="M9.69,9.06a1.06,1.06,0,0,1,.13-.63A1,1,0,0,1,10.26,8a.69.69,0,0,0-.52.32A1,1,0,0,0,9.69,9.06Z"/><path class="cls-3" d="M9.49,8.84a1,1,0,0,1,.12-.6A.92.92,0,0,1,10,7.88a.66.66,0,0,0-.49.3A.92.92,0,0,0,9.49,8.84Z"/><path class="cls-3" d="M9.29,8.64a.9.9,0,0,1,.12-.56.86.86,0,0,1,.39-.34A.64.64,0,0,0,9.34,8,.84.84,0,0,0,9.29,8.64Z"/><path class="cls-6" d="M1.48,2.84a.09.09,0,1,0-.09.09A.09.09,0,0,0,1.48,2.84Z"/><path class="cls-6" d="M9.38,1.44a.1.1,0,0,0-.09-.1.1.1,0,0,0-.1.1.09.09,0,0,0,.1.1A.09.09,0,0,0,9.38,1.44Z"/></g></g></svg>