<svg xmlns="http://www.w3.org/2000/svg" viewBox="0 0 25.07 15.74"><defs><style>.cls-1{fill:#5a4236;}.cls-2{fill:#5f463c;}.cls-3{fill:#2b2828;}.cls-4{fill:#383533;}.cls-5{fill:#302118;}.cls-6{fill:#bba791;}.cls-7{fill:#f4f1f0;}</style></defs><g id="Layer_2" data-name="Layer 2"><g id="Layer_2-2" data-name="Layer 2"><path class="cls-1" d="M20,12.35a5.9,5.9,0,0,1-1.42,2.44c-.66.45-1.24.41-1.42.23s.13-.58.58-1c.29-.3-.05-1.53-.05-1.53S19.61,11.75,20,12.35Z"/><path class="cls-1" d="M8.7,12.31a2,2,0,0,1-.24,1.07c-.28.33-1.1.89-.72,1.32s1.26-.12,1.78-.56A10.63,10.63,0,0,1,10.75,13,3.1,3.1,0,0,0,8.7,12.31Z"/><path class="cls-2" d="M2.29,10.66a3,3,0,0,1-1.42.65c-.12,0-1.13.2-.81.6s.85.33,1.51.07a6.44,6.44,0,0,1,2.61.14c2.41.42,2.67,0,4.35.36s2,.65,2.14.9-.34,1.22.2,1.55c.87.51,1.24-1.19,1.44-1.58s.28-.71,1.4-.56c2.52.31,5.41-.48,6-.26s1.48,1,1.1,1.76.12.71.3.72c.73,0,1.09-.78,1.09-1.37a6.68,6.68,0,0,0-.44-2.14c-.16-.26-.56-7.53-8.11-7.83C5.16,3.33,4.84,6.9,4.23,7.83A11.71,11.71,0,0,1,2.29,10.66Z"/><path class="cls-3" d="M3.61,10.23A.26.26,0,0,0,3.35,10a.26.26,0,0,0-.25.26.25.25,0,0,0,.25.25A.26.26,0,0,0,3.61,10.23Z"/><path class="cls-3" d="M.24,11.75a.14.14,0,0,0-.1-.15.14.14,0,0,0-.14.12c0,.06,0,.15.06.15A.2.2,0,0,0,.24,11.75Z"/><path class="cls-3" d="M.41,11.69a.14.14,0,0,1,0-.19.15.15,0,0,1,.2,0c0,.05.1.13,0,.17A.19.19,0,0,1,.41,11.69Z"/><path class="cls-4" d="M20.59,15.62c.11,0,.24-.34.35-.49s.19-.3,0-.33-.3.27-.35.45S20.55,15.63,20.59,15.62Z"/><path class="cls-4" d="M21.06,15.69c.1,0,.15-.39.22-.56s.06-.29-.06-.3-.22.31-.22.49S21,15.71,21.06,15.69Z"/><path class="cls-4" d="M21.49,15.55c.07-.07.05-.37.07-.53s0-.23-.11-.21-.13.27-.09.43S21.46,15.58,21.49,15.55Z"/><path class="cls-4" d="M20.27,15.25c.1,0,.3-.21.44-.31s.19-.18.1-.24-.31.11-.4.24S20.23,15.25,20.27,15.25Z"/><path class="cls-4" d="M16.77,15.57c.12,0,.31-.28.45-.41s.24-.25.1-.32-.36.2-.44.37S16.73,15.57,16.77,15.57Z"/><path class="cls-4" d="M17.22,15.73c.11,0,.23-.34.33-.5s.13-.27,0-.3-.28.25-.32.43S17.18,15.75,17.22,15.73Z"/><path class="cls-4" d="M17.67,15.68c.09,0,.13-.34.18-.5s0-.22-.06-.22-.18.23-.18.4S17.64,15.7,17.67,15.68Z"/><path class="cls-4" d="M16.54,15.14c.09,0,.34-.15.49-.21s.23-.14.15-.22-.32,0-.44.16S16.5,15.13,16.54,15.14Z"/><path class="cls-4" d="M10.42,15.41c.11,0,.29-.29.42-.43s.24-.26.1-.32-.35.22-.43.39S10.38,15.42,10.42,15.41Z"/><path class="cls-4" d="M10.88,15.56c.1,0,.21-.36.3-.52s.11-.28,0-.3-.27.26-.3.44S10.84,15.57,10.88,15.56Z"/><path class="cls-4" d="M11.32,15.49c.09-.05.11-.36.16-.52s0-.22-.07-.21-.18.24-.17.4S11.29,15.51,11.32,15.49Z"/><path class="cls-4" d="M10.17,15c.09,0,.33-.16.48-.23s.22-.15.14-.23-.32.07-.44.18S10.13,15,10.17,15Z"/><path class="cls-4" d="M7.22,15.09c.11,0,.35-.21.51-.31s.29-.2.17-.29-.39.13-.51.27S7.17,15.09,7.22,15.09Z"/><path class="cls-4" d="M7.62,15.34c.12,0,.3-.29.43-.43s.17-.24.06-.29-.32.19-.4.36S7.58,15.35,7.62,15.34Z"/><path class="cls-4" d="M8.07,15.38c.1,0,.19-.32.28-.46s.08-.21,0-.23-.23.2-.26.36S8,15.39,8.07,15.38Z"/><path class="cls-4" d="M7.07,14.63c.08,0,.36-.08.52-.11s.25-.1.2-.19-.34,0-.47.07S7,14.61,7.07,14.63Z"/><path class="cls-5" d="M10.24,3.74c.19-.19,1.38-1.24,1.92-1.62a12,12,0,0,0-1.84,1.11c-.14.1-.29.2-.43.32L10.5,3s-.45.24-1,.61c.13-.13.27-.25.42-.38l.79-.69.55-.46c.91-.76,1.69-1.39,1.69-1.39a16.86,16.86,0,0,0-1.85.94L10.52,2c-.27.17-.53.35-.78.53L9.11,3c-.32.25-.61.51-.89.76l-.17.16a2.43,2.43,0,0,1,.14-.2l.08-.09.24-.24c.53-.53.94-.89.94-.89s-.26.14-.64.37c.14-.2.29-.39.43-.58l.55-.68C10.48.71,11.05.05,11.05.05s-.66.52-1.48,1.28L9,1.86c-.21.2-.41.4-.61.61L8,3c-.23.27-.46.54-.66.81L7.1,4l-.21.19v0C7,4.08,7,4,7.11,3.82l.33-.55.23-.38c.09-.13.17-.27.25-.39l.66-.76L8.22,2l.18-.29a11.74,11.74,0,0,0-1,1l-.08.09L7.14,3,7,3.06l.31-.58.37-.65L8.5.49S7.05,1.94,6.88,2.18h0l-.11.11-.49.53c-.2.22-.4.46-.58.7a3.46,3.46,0,0,0-.22.31,3.49,3.49,0,0,0-.28.43,3.55,3.55,0,0,0-.2.39c-.1.2-.2.42-.28.63s-.16.42-.22.62-.13.46-.18.67c-.11.54-.1.95.11,1s.21-.08.28-.28a.22.22,0,0,0,.15.13.2.2,0,0,0,.24-.1.12.12,0,0,0,.08.06.27.27,0,0,0,.28-.06.21.21,0,0,0,.13.17s.12,0,.2-.05A.23.23,0,0,0,6,7.65a.61.61,0,0,0,.19-.06c0,.08.11.13.17.15a.32.32,0,0,0,.32-.09.26.26,0,0,0,.16.3.22.22,0,0,0,.22,0,.29.29,0,0,0,.17.27.26.26,0,0,0,.31-.07.26.26,0,0,0,0,.37c.12.12.23.1.27.07a.4.4,0,0,0,0,.3.24.24,0,0,0,.31,0c0,.19.05.25.17.32a.39.39,0,0,0,.28,0,.24.24,0,0,0,0,.29.4.4,0,0,0,.22.11.29.29,0,0,0,.08.23h0a.18.18,0,0,0,0,.18c.06.08.15.07.27,0a.28.28,0,0,0,0,.27c0,.06.2.06.25,0s-.1.18-.05.26a.26.26,0,0,0,.2.11c0,.08-.1.19,0,.27a.27.27,0,0,0,.15.09c0,.05,0,.1,0,.15a.14.14,0,0,0,.18.07.21.21,0,0,0-.06.24.25.25,0,0,0,.16.1s-.07.11-.07.15.09.13.2.14a2.4,2.4,0,0,0,.44.34c.18.12.38.23.6.35s.38.19.59.27.42.18.63.25l.42.12a3.67,3.67,0,0,0,.5.11l.38.05c.29,0,.6.06.9.08l.71,0c.67,0,1.17,0,1.17,0l-1.12-.17-.56-.1h.36c.3,0,.62-.05.92-.09l.74-.12.54-.1,1.18.06c.41,0,.81,0,1.18,0a19.12,19.12,0,0,0,3-.36c-.93,0-1.84,0-2.68,0-.41,0-.81,0-1.19-.09-.08,0,.22,0,.13,0,.4,0,0-.09,0-.1.34,0,.27.12.58.06.14,0,.33,0,.47,0,.4,0,.81-.11,1.18-.1a18.69,18.69,0,0,0,3-.19c-.8,0-1.57-.08-2.29-.16.48-.06.76-.12.76-.12-.55,0-.62-.16-1.15-.17.06,0-.23,0-.18-.07s.27.2.47.2a16.38,16.38,0,0,0,2.07-.12l-1.58-.26.36-.14-.55.11c-.13,0-.57-.49-.35-.52a22.42,22.42,0,0,0,2.39-.27s-1,0-2.17-.12l-.71,0h.21c.21-.05-.39,0-.05-.13a20.44,20.44,0,0,0,3-1.11c-.88.24-1.75.42-2.54.56-.32,0,.27-.31.53-.42,1.22-.49,2.09-.92,2.09-.92s-1,.29-2.28.62l-.08,0,.3-.1.61-.25a15.92,15.92,0,0,0,1.86-.91l-2.12.51-.69.16c-.34.08-.72.11-1.05.18s-.13,0-.37.09h-.19c.36-.12.59-.17.94-.3l.95-.37c1.06-.43,1.91-.82,2.24-1l.22,0h-.13l.08,0-.16,0c-.35,0-1.12,0-2.07.12l-.89.08-.4,0,.79-.16c.93-.16,1.94-.3,3-.38a20.51,20.51,0,0,0-3.42,0q-.63,0-1.32.15c-.24,0-.29.07-.54.11.13,0,.09-.06.22-.09l1.5-.29,1.09-.18c1-.16,1.76-.26,1.76-.26s-.8-.06-1.87-.08H21.08l.22-.11c1.28-.6,2.3-1.05,2.3-1.05s-1,.24-2.38.66l-.93.3c-.33.12-.23-.11.06-.25l1-.49c1.28-.6,2.3-1.05,2.3-1.05s-1,.24-2.38.66l-.92.3c-.34.12-.69.24-1,.38l-.18.07.53-.25c.4-.19.84-.38,1.29-.57.92-.38,1.91-.76,2.95-1.1a22,22,0,0,0-3.36.82c-.42.13-.85.29-1.31.46l-.32.13.18-.12.51-.34c1.13-.75,2-1.26,2-1.26s-.84.29-2,.78l.06,0a31.52,31.52,0,0,1,3-1.26,22,22,0,0,0-3.65,1,2.46,2.46,0,0,1-.65.17L18.53,4a2.92,2.92,0,0,1,.39-.26,8.49,8.49,0,0,1,.76-.41L20.26,3a12.54,12.54,0,0,1,1.4-.51,8.23,8.23,0,0,0-.93.17L21,2.56a17.07,17.07,0,0,0-2,.59,6.44,6.44,0,0,0-.61.24c-.3.12-.78.24-.5,0L19,2.75,20.16,2l.46-.15-.28,0,.36-.22L20,2a11.26,11.26,0,0,0-1.11.28l-.62.22-.12,0c.64-.78,1.08-1.28,1.08-1.28s-.73.54-1.66,1.36c-.15.12-.29.26-.44.39L17,3.11l-.34.26-.22.19-.35.3L16,3.91,15.88,4l.32-.34c.28-.3.58-.6.9-.92.51-.5,1.08-1,1.68-1.51.32-.13.67-.26,1-.37a7,7,0,0,0-.76.13l.22-.18L18.91,1a8.28,8.28,0,0,0-.82.21l-.63.22a7.83,7.83,0,0,0-.73.33l-.05,0C17.38,1,17.86.4,17.86.4a2.71,2.71,0,0,0-.24.19L18,.26a19.89,19.89,0,0,0-2.75,1.86c-.32.25-.65.53-1,.83l-.17.16c.16-.25.33-.49.49-.71s.23-.35.35-.51C15.73.77,16.33,0,16.33,0s-.69.59-1.57,1.47l-.42.42-.72.79c-.14.15-.27.32-.41.48h0l.19-.27L14.05,2l.23-.15-.17.08.58-.8s-.39.38-.95,1l-.19.1c.59-1,1.07-1.7,1.07-1.7s-.41.42-1,1.07A15.13,15.13,0,0,0,12,2.45q-.35.21-.72.48c-.28.2-.57.43-.85.67s0,0-.16.14Zm12.3,3.91L24,7.34l-1.74.42-.91.2L20.93,8,21.11,8l.41-.1Zm-7.41-3.9.22-.2.28-.29c.11-.12.24-.25.38-.38a5.87,5.87,0,0,1,.51-.46l.17-.13A3.75,3.75,0,0,1,17.08,2a8.49,8.49,0,0,1,.76-.41l.33-.16c-.46.31-1,.7-1.64,1.19-.32.25-.65.53-1,.83S15,3.92,15.13,3.75ZM13.35,2.49l0-.07.07,0Zm-1.92.87-.33.18.52-.45c.21-.18.44-.36.68-.54s.79-.59,1.23-.88l-.36.42-.41.5-.41.25C12.12,3,11.43,3.36,11.43,3.36Z"/><path class="cls-6" d="M9.55,4.26l-.36.16-.42.24-.21.16a2,2,0,0,0-.3.28l-.13.14-.2.22-.18.21c-.22.26-.27.39-.13.51S7.83,6.17,8,6l.15-.21.22-.28c.09-.11.19-.23.3-.34L8.75,5A2.59,2.59,0,0,1,9,4.85a4.47,4.47,0,0,1,.43-.3l.33-.2a8.57,8.57,0,0,1,.8-.38A5.89,5.89,0,0,0,9.55,4.26Z"/><path class="cls-6" d="M9.69,6.34a2.75,2.75,0,0,0-.36.15l-.42.25-.22.16a1.58,1.58,0,0,0-.3.28l-.12.13-.21.22-.18.21c-.22.26-.26.39-.12.52s.21,0,.36-.21l.16-.21c.06-.09.14-.19.22-.29a4.07,4.07,0,0,1,.29-.34l.1-.09.22-.19a4,4,0,0,1,.43-.3l.34-.2c.24-.13.51-.26.79-.38A5,5,0,0,0,9.69,6.34Z"/><path class="cls-6" d="M10.64,7.32l-.36.16-.42.24-.22.16-.3.28-.12.14L9,8.52l-.19.21c-.21.26-.26.39-.12.51s.21,0,.36-.21l.16-.21.22-.28.29-.34a.47.47,0,0,0,.1-.1l.22-.19.44-.3.33-.19a5.39,5.39,0,0,1,.8-.38A5.29,5.29,0,0,0,10.64,7.32Z"/><path class="cls-6" d="M11.52,5.74a4.81,4.81,0,0,0-.77.4l-.22.16a2,2,0,0,0-.3.28l-.13.13-.2.23a1.68,1.68,0,0,0-.18.21c-.22.25-.27.39-.13.51s.21,0,.37-.21l.16-.21L10.33,7c.09-.11.19-.23.3-.34l.09-.1A2.59,2.59,0,0,1,11,6.33a4.47,4.47,0,0,1,.43-.3l.34-.2a8.34,8.34,0,0,1,.79-.38A4.93,4.93,0,0,0,11.52,5.74Z"/><path class="cls-6" d="M7.8,5a3.63,3.63,0,0,0-.27.28,3.86,3.86,0,0,0-.3.38,1.76,1.76,0,0,0-.14.23,1.76,1.76,0,0,0-.17.37l-.07.18c0,.1-.07.19-.1.28A2,2,0,0,0,6.66,7c-.1.32-.1.46.08.52s.19-.09.25-.33a1.38,1.38,0,0,0,.07-.26c0-.1.06-.22.1-.34a4.13,4.13,0,0,1,.14-.42l.06-.13a2.08,2.08,0,0,1,.13-.26c.08-.13.17-.28.29-.44L8,5c.18-.21.38-.43.6-.65A4.77,4.77,0,0,0,7.8,5Z"/><path class="cls-6" d="M6.48,4.65A2.49,2.49,0,0,0,6.25,5,2.91,2.91,0,0,0,6,5.38l-.12.24A2.91,2.91,0,0,0,5.76,6c0,.06,0,.12,0,.18s0,.21-.07.29,0,.2,0,.27c-.07.34,0,.47.14.51s.17-.11.21-.36c0-.07,0-.16,0-.26s0-.22,0-.35.06-.29.1-.44l0-.13c0-.08.06-.17.11-.28A4,4,0,0,1,6.5,5a2.9,2.9,0,0,1,.2-.33,5.3,5.3,0,0,1,.51-.72A5.18,5.18,0,0,0,6.48,4.65Z"/><path class="cls-6" d="M7.31,3.55A2.31,2.31,0,0,0,7,3.73,4.64,4.64,0,0,0,6.54,4l-.21.17A2.65,2.65,0,0,0,6,4.44l-.12.14-.19.23L5.55,5c-.21.27-.25.4-.11.52s.21,0,.36-.22A2.1,2.1,0,0,0,6,5.1c.06-.09.13-.19.21-.29l.28-.35.1-.1c0-.06.13-.12.21-.2S7,4,7.18,3.85l.32-.21a7.11,7.11,0,0,1,.78-.4A4.93,4.93,0,0,0,7.31,3.55Z"/><path class="cls-6" d="M11.57,3.93l-.35.17a4.78,4.78,0,0,0-.42.26l-.21.16-.29.29L10.18,5l-.2.23-.17.22c-.21.26-.25.39-.11.51s.21,0,.36-.22l.15-.21c.06-.09.13-.19.21-.29a4.29,4.29,0,0,1,.28-.35l.09-.1a2.3,2.3,0,0,1,.22-.2,4.42,4.42,0,0,1,.43-.31L11.76,4a8.27,8.27,0,0,1,.79-.41A5.41,5.41,0,0,0,11.57,3.93Z"/><path class="cls-6" d="M13.2,5.11l-.33.15a3,3,0,0,0-.4.21l-.2.15a3.47,3.47,0,0,0-.29.25L11.87,6l-.19.2-.17.19c-.21.24-.25.35-.12.46s.2,0,.34-.18l.15-.19.2-.26.28-.3.09-.09.21-.17a4.1,4.1,0,0,1,.41-.28l.31-.17a6.51,6.51,0,0,1,.75-.34A5,5,0,0,0,13.2,5.11Z"/><path class="cls-6" d="M13.42,3.58a2.83,2.83,0,0,0-.36.16,4.49,4.49,0,0,0-.42.24l-.21.16a2.7,2.7,0,0,0-.31.28L12,4.56l-.2.22L11.61,5c-.21.25-.26.39-.12.51s.21,0,.36-.21A1.92,1.92,0,0,0,12,5.08l.22-.28c.09-.11.19-.23.3-.34l.09-.1a2.59,2.59,0,0,1,.23-.19,4.47,4.47,0,0,1,.43-.3l.33-.2a8.57,8.57,0,0,1,.8-.38A4.93,4.93,0,0,0,13.42,3.58Z"/><path class="cls-6" d="M13,1.86,12.65,2a3.5,3.5,0,0,0-.42.24L12,2.42a2,2,0,0,0-.3.28,1.49,1.49,0,0,0-.12.14l-.21.22c-.07.08-.13.14-.18.21-.22.26-.26.39-.12.51s.21,0,.36-.21l.16-.21.21-.28c.09-.11.19-.23.3-.34a.94.94,0,0,1,.1-.1,1.51,1.51,0,0,1,.22-.19c.12-.09.27-.2.43-.3L13.2,2c.24-.13.51-.26.79-.38A5.66,5.66,0,0,0,13,1.86Z"/><path class="cls-6" d="M11.67,2a2.75,2.75,0,0,0-.36.15,3.09,3.09,0,0,0-.42.25l-.22.16a2,2,0,0,0-.3.28L10.25,3l-.2.22-.19.21c-.21.26-.26.39-.12.51s.21,0,.36-.2l.16-.21.22-.29.29-.34.1-.09.22-.19a3.35,3.35,0,0,1,.44-.3l.33-.2a8.57,8.57,0,0,1,.8-.38A4.93,4.93,0,0,0,11.67,2Z"/><path class="cls-6" d="M9.6,2.66l-.36.15a3.09,3.09,0,0,0-.42.25l-.21.16a1.58,1.58,0,0,0-.3.28,1.59,1.59,0,0,0-.13.13L8,3.85l-.18.21c-.22.26-.27.39-.13.51s.21,0,.36-.2l.16-.21.22-.29.3-.34.09-.09A2.59,2.59,0,0,1,9,3.25,3.2,3.2,0,0,1,9.46,3a2.63,2.63,0,0,1,.33-.2,8.57,8.57,0,0,1,.8-.38A4.93,4.93,0,0,0,9.6,2.66Z"/><path class="cls-6" d="M7.51,2.57a2.75,2.75,0,0,0-.36.15A3.09,3.09,0,0,0,6.73,3l-.22.16a2.56,2.56,0,0,0-.3.28l-.12.13-.2.22L5.7,4c-.21.26-.26.39-.12.51s.21,0,.36-.2l.16-.21.22-.29.29-.34.1-.09.22-.19a3.35,3.35,0,0,1,.44-.3,2.63,2.63,0,0,1,.33-.2,8.57,8.57,0,0,1,.8-.38A4.93,4.93,0,0,0,7.51,2.57Z"/><path class="cls-6" d="M4.88,4.66c-.06.1-.11.2-.16.3a2.26,2.26,0,0,0-.15.39,1.42,1.42,0,0,0-.07.22c0,.11,0,.23,0,.35s0,.11,0,.15,0,.18,0,.26a2.09,2.09,0,0,0,0,.24c0,.29,0,.4.19.41s.13-.12.13-.33V6.42a3,3,0,0,1,0-.31c0-.12,0-.24,0-.38s0-.08,0-.12,0-.15,0-.24.08-.28.13-.43l.12-.31c.1-.22.21-.45.34-.68A4.23,4.23,0,0,0,4.88,4.66Z"/><path class="cls-6" d="M12.81,6.89,12.44,7,12,7.23l-.22.14a2.1,2.1,0,0,0-.33.26l-.13.12c-.08.08-.16.14-.22.21a1.88,1.88,0,0,0-.2.19c-.24.24-.3.37-.17.5s.21,0,.38-.18l.18-.2L11.53,8a3.17,3.17,0,0,1,.32-.31l.1-.09.24-.17a3.74,3.74,0,0,1,.46-.27L13,7a7,7,0,0,1,.82-.31A6,6,0,0,0,12.81,6.89Z"/><path class="cls-6" d="M9,5.64l-.27.14L8.43,6l-.16.13c-.07.08-.15.16-.21.24L8,6.49l-.14.19-.13.17c-.15.22-.17.32-.06.42s.16,0,.26-.19L8,6.9c.05-.07.09-.15.15-.23s.13-.19.21-.29l.06-.08.16-.16c.09-.08.19-.17.31-.26l.25-.18c.17-.11.37-.23.58-.34A3.59,3.59,0,0,0,9,5.64Z"/><path class="cls-6" d="M14.64,1.47l-.36.16-.42.24L13.65,2a2.68,2.68,0,0,0-.3.28l-.13.14-.2.22-.18.21c-.22.26-.27.39-.13.51s.21,0,.37-.21L13.23,3l.22-.28c.09-.11.19-.23.3-.34l.09-.1.23-.19.43-.3.33-.2a8.57,8.57,0,0,1,.8-.38A5.89,5.89,0,0,0,14.64,1.47Z"/><path class="cls-6" d="M15.87,2l-.34.15a3.84,3.84,0,0,0-.39.22l-.2.15a3.45,3.45,0,0,0-.28.26l-.12.13-.18.21-.17.19c-.21.25-.25.37-.12.48s.2,0,.34-.19a2.08,2.08,0,0,1,.15-.2c.06-.08.12-.17.2-.26A3.82,3.82,0,0,1,15,2.79l.09-.09.21-.18c.11-.09.25-.18.4-.28L16,2.06a7.26,7.26,0,0,1,.74-.36A5,5,0,0,0,15.87,2Z"/><path class="cls-6" d="M17.77,2.38a2.83,2.83,0,0,0-.36.16,4.49,4.49,0,0,0-.42.24l-.22.16a2,2,0,0,0-.3.28l-.12.13-.21.23-.18.2c-.22.26-.26.39-.12.52s.21,0,.36-.21l.16-.21c.06-.09.14-.19.22-.29a4,4,0,0,1,.29-.33.47.47,0,0,1,.1-.1L17.19,3a4,4,0,0,1,.43-.3l.34-.2c.24-.13.51-.26.79-.38A5,5,0,0,0,17.77,2.38Z"/><path class="cls-6" d="M19.16,2.84,18.8,3a4.49,4.49,0,0,0-.42.24l-.22.16a2.68,2.68,0,0,0-.3.28l-.12.14L17.53,4l-.18.21c-.22.26-.26.39-.12.51s.21,0,.36-.21l.16-.21L18,4.06a4.07,4.07,0,0,1,.29-.34l.1-.1.22-.19.43-.3.34-.19a5.78,5.78,0,0,1,.79-.38A5.09,5.09,0,0,0,19.16,2.84Z"/><path class="cls-6" d="M20.61,3.66l-.36.16a3.5,3.5,0,0,0-.42.24l-.22.16a2.68,2.68,0,0,0-.3.28l-.13.14-.2.22-.18.21c-.22.26-.26.39-.12.51s.21,0,.36-.2l.16-.22.21-.28.3-.34.1-.09a1.5,1.5,0,0,1,.22-.2l.43-.3.34-.19a5.78,5.78,0,0,1,.79-.38A5.09,5.09,0,0,0,20.61,3.66Z"/><path class="cls-6" d="M21.26,4.42a2.75,2.75,0,0,0-.36.15l-.42.25L20.26,5a2,2,0,0,0-.3.28l-.12.13-.21.22-.18.21c-.21.26-.26.39-.12.52s.21,0,.36-.21l.16-.21c.06-.09.14-.19.22-.29a4.07,4.07,0,0,1,.29-.34l.1-.09L20.68,5a3.35,3.35,0,0,1,.44-.3l.33-.2a8.57,8.57,0,0,1,.8-.38A4.93,4.93,0,0,0,21.26,4.42Z"/><path class="cls-6" d="M22.15,5.89,21.77,6a2.75,2.75,0,0,0-.47.13,1.3,1.3,0,0,0-.25.1,2.47,2.47,0,0,0-.36.19l-.15.1-.26.17-.23.15c-.27.2-.35.31-.24.47s.2,0,.4-.11L20.42,7l.28-.22a4,4,0,0,1,.37-.25l.12-.07.26-.13.49-.18L22.32,6a6.55,6.55,0,0,1,.86-.17A5.49,5.49,0,0,0,22.15,5.89Z"/><path class="cls-6" d="M23,7.89l-.31.25a3.94,3.94,0,0,1-.4.26,1.34,1.34,0,0,1-.24.12,2,2,0,0,1-.39.14l-.18.05-.29.08-.27.07c-.33.08-.46.06-.51-.12s.11-.18.35-.23l.26,0,.35-.06a4,4,0,0,0,.44-.11l.13,0,.27-.11.46-.25L23,7.68a8.23,8.23,0,0,0,.7-.54A5.27,5.27,0,0,1,23,7.89Z"/><path class="cls-6" d="M19.34,7.35l-.24.25a2.69,2.69,0,0,1-.32.27L18.6,8a2.19,2.19,0,0,1-.3.16l-.13,0-.23.09-.2.08c-.25.09-.35.08-.37-.09s.09-.17.27-.23l.2-.06a1.53,1.53,0,0,0,.26-.08l.33-.12.1,0a.78.78,0,0,0,.21-.12l.36-.25.25-.21c.18-.16.36-.34.55-.54A6.08,6.08,0,0,1,19.34,7.35Z"/><path class="cls-6" d="M17.29,4.22a1.88,1.88,0,0,1-.24.25c-.1.09-.2.18-.32.27l-.18.12-.3.16-.13.05-.22.09-.2.08c-.25.08-.35.08-.38-.09s.09-.17.27-.23l.2-.06.26-.08.33-.12.1,0,.21-.12a3,3,0,0,0,.36-.25L17.3,4a5.4,5.4,0,0,0,.55-.53A6.08,6.08,0,0,1,17.29,4.22Z"/><path class="cls-6" d="M16.09,7.37l-.23.25-.32.27L15.35,8a1.59,1.59,0,0,1-.29.15l-.14.06-.22.09-.2.08c-.25.08-.35.08-.37-.09s.08-.18.27-.23L14.59,8l.27-.08.33-.12.1,0,.21-.12c.1-.07.22-.15.35-.26a2.39,2.39,0,0,0,.26-.21,5.52,5.52,0,0,0,.55-.54A5.33,5.33,0,0,1,16.09,7.37Z"/><path class="cls-6" d="M14.84,6.53l-.24.24a2.69,2.69,0,0,1-.32.27l-.19.13a2.64,2.64,0,0,1-.29.15l-.14,0-.22.09-.2.08c-.25.09-.35.08-.37-.09s.08-.17.27-.23l.2-.06.26-.08L13.93,7l.1,0a.78.78,0,0,0,.21-.12l.36-.25.25-.21c.18-.16.36-.34.55-.54A5.72,5.72,0,0,1,14.84,6.53Z"/><path class="cls-6" d="M23,8.93c-.1.07-.2.15-.32.22a4.34,4.34,0,0,1-.43.23L22,9.49l-.4.11-.18,0-.3.06-.27,0c-.33,0-.47,0-.5-.16s.12-.17.36-.2l.27,0,.35,0a4.3,4.3,0,0,0,.45-.08l.13,0,.28-.09a4.42,4.42,0,0,0,.48-.21l.34-.18c.24-.14.49-.3.74-.48A5.08,5.08,0,0,1,23,8.93Z"/><path class="cls-6" d="M23.37,10.11l-.33.21a3.42,3.42,0,0,1-.43.21l-.26.1a2.59,2.59,0,0,1-.4.09l-.18,0-.3,0-.27,0c-.34,0-.47,0-.5-.18s.13-.17.38-.19h.26l.36,0,.44-.05.14,0,.28-.08c.14,0,.31-.11.49-.19l.35-.17c.24-.13.5-.28.76-.45A5.34,5.34,0,0,1,23.37,10.11Z"/><path class="cls-6" d="M20.36,10.36l-.29.2-.38.21-.22.09-.36.1L19,11l-.26,0-.24,0c-.3,0-.41,0-.43-.15s.12-.16.33-.18l.23,0,.31,0,.39-.06.12,0,.25-.08.43-.19.31-.17a6.75,6.75,0,0,0,.67-.43A5.37,5.37,0,0,1,20.36,10.36Z"/><path class="cls-6" d="M20.26,8.69a2.63,2.63,0,0,1-.33.2,2.89,2.89,0,0,1-.43.22l-.25.09a2.92,2.92,0,0,1-.4.1l-.19,0-.29,0-.28,0c-.33,0-.47,0-.49-.19s.12-.16.37-.18l.27,0,.35,0L19,8.94l.13,0,.28-.08c.15-.05.31-.12.49-.2a2.81,2.81,0,0,0,.35-.17A5.59,5.59,0,0,0,21.05,8,5,5,0,0,1,20.26,8.69Z"/><path class="cls-6" d="M19.63,11.58a2.44,2.44,0,0,1-.31.22,2.56,2.56,0,0,1-.4.22l-.23.1a1.92,1.92,0,0,1-.37.11l-.17,0-.27.06-.25,0c-.31.05-.43,0-.45-.15s.12-.17.35-.2l.24,0,.33,0a3.38,3.38,0,0,0,.4-.07l.13,0,.26-.09.45-.2.33-.18a7.8,7.8,0,0,0,.7-.47A4.8,4.8,0,0,1,19.63,11.58Z"/><path class="cls-6" d="M17.31,11.15l-.33.21a3.42,3.42,0,0,1-.43.21l-.26.1a2.59,2.59,0,0,1-.4.09l-.18,0-.3,0-.27,0c-.34,0-.47,0-.5-.18s.13-.17.38-.19h.26l.36,0,.44-.06.14,0,.28-.08c.15-.05.31-.11.49-.19l.35-.17c.24-.13.5-.28.76-.45A5.34,5.34,0,0,1,17.31,11.15Z"/><path class="cls-6" d="M16.19,12.4l-.37.13-.47.11-.27,0a2.77,2.77,0,0,1-.41,0l-.18,0-.3,0-.28,0c-.33,0-.46-.1-.44-.28s.16-.14.41-.1l.26,0,.35.06.45,0h.13l.3,0a4.16,4.16,0,0,0,.52-.08l.37-.08a6.36,6.36,0,0,0,.84-.28A5.07,5.07,0,0,1,16.19,12.4Z"/><path class="cls-6" d="M12.92,11.81a2.55,2.55,0,0,1-.33.11l-.43.08-.24,0a2.38,2.38,0,0,1-.38,0l-.17,0-.28,0-.25,0c-.31-.05-.43-.11-.42-.28s.14-.11.37-.07l.24,0,.33.07.41.05h.39c.14,0,.3,0,.48-.05l.35-.07a6.24,6.24,0,0,0,.76-.21A4.24,4.24,0,0,1,12.92,11.81Z"/><path class="cls-6" d="M15,9.6l-.27.23a3.27,3.27,0,0,1-.36.25l-.22.11-.35.14-.17,0-.27.08-.24.07c-.31.08-.44.07-.5-.09s.09-.16.31-.21l.25-.05.32-.07a3,3,0,0,0,.4-.11L14,10a1.06,1.06,0,0,0,.25-.11,4.57,4.57,0,0,0,.42-.23c.09-.06.19-.12.29-.2a6.3,6.3,0,0,0,.62-.49A4.22,4.22,0,0,1,15,9.6Z"/><path class="cls-6" d="M18.82,6.35a2,2,0,0,1-.27.23,3.27,3.27,0,0,1-.36.25L18,6.94l-.35.14-.16,0-.27.07-.25.07c-.3.08-.44.07-.49-.09s.08-.16.31-.21l.24,0,.33-.07a4.1,4.1,0,0,0,.4-.11l.12,0a1.6,1.6,0,0,0,.25-.11l.41-.23.3-.19a6.71,6.71,0,0,0,.61-.5A4.22,4.22,0,0,1,18.82,6.35Z"/><path class="cls-6" d="M20.65,7.71a2,2,0,0,1-.27.23,3.27,3.27,0,0,1-.36.25l-.22.11-.35.14-.16.05L19,8.57l-.25.06c-.3.08-.43.07-.49-.09s.08-.16.31-.21l.24-.05.33-.07a3.45,3.45,0,0,0,.4-.11l.12,0A1.6,1.6,0,0,0,19.93,8l.42-.23.29-.19a6.71,6.71,0,0,0,.61-.5A4.22,4.22,0,0,1,20.65,7.71Z"/><path class="cls-6" d="M15,11l-.37.13a2.47,2.47,0,0,1-.47.11l-.27,0h-.59l-.3,0-.28,0c-.33,0-.46-.1-.44-.29s.16-.13.41-.1l.26.05.35.05.45,0h.43l.52-.08.37-.09a7.41,7.41,0,0,0,.84-.27A4.71,4.71,0,0,1,15,11Z"/><path class="cls-6" d="M18.64,10.08l-.35.17a2.45,2.45,0,0,1-.45.17l-.27.07-.4,0H17l-.3,0H16.4c-.33,0-.46,0-.47-.23s.15-.15.39-.14h.62a2.29,2.29,0,0,0,.45,0h.14a1.18,1.18,0,0,0,.29,0,3.32,3.32,0,0,0,.51-.14l.36-.13a6.19,6.19,0,0,0,.8-.36A4.82,4.82,0,0,1,18.64,10.08Z"/><path class="cls-6" d="M13.71,7.69c-.39.08-1.38.35-1.26.6s.64,0,1.38-.29c.45-.16,1.5-.66,1.5-.66S13.78,7.68,13.71,7.69Z"/><path class="cls-6" d="M14.21,5.17c-.37.19-1.27.74-1.08.93s.62-.22,1.28-.69c.4-.28,1.3-1.06,1.3-1.06S14.27,5.14,14.21,5.17Z"/><path class="cls-6" d="M13.27,9c-.41.09-1.43.39-1.31.68s.66,0,1.43-.33c.46-.18,1.55-.74,1.55-.74S13.34,9,13.27,9Z"/><path class="cls-6" d="M15.91,9.38c-.4.09-1.41.42-1.27.66s.66-.07,1.41-.37c.45-.19,1.51-.74,1.51-.74S16,9.36,15.91,9.38Z"/><path class="cls-6" d="M18.23,5.74c-.4.08-1.43.35-1.3.61s.66,0,1.43-.3c.46-.16,1.55-.66,1.55-.66S18.3,5.73,18.23,5.74Z"/><path class="cls-6" d="M21.32,7.09c-.47.09-1.66.41-1.51.71s.76,0,1.65-.34c.53-.19,1.79-.79,1.79-.79S21.4,7.08,21.32,7.09Z"/><path class="cls-6" d="M16.53,8c-.38.15-1.3.58-1.13.78s.62-.15,1.3-.53c.41-.23,1.35-.87,1.35-.87S16.59,8,16.53,8Z"/><path class="cls-6" d="M11.28,10.31c-.41.07-1.44.35-1.31.62s.66,0,1.44-.31c.46-.16,1.56-.68,1.56-.68S11.35,10.29,11.28,10.31Z"/><path class="cls-6" d="M10.63,9.1c-.42.08-1.49.37-1.36.64s.69,0,1.49-.31c.48-.17,1.62-.71,1.62-.71S10.7,9.09,10.63,9.1Z"/><path class="cls-6" d="M16.51,5.43c-.4.15-1.42.61-1.24.87s.67-.13,1.42-.55c.45-.25,1.49-1,1.49-1S16.58,5.41,16.51,5.43Z"/><path class="cls-6" d="M14.9,3.59c-.42.18-1.44.71-1.25.93s.7-.2,1.45-.66c.46-.28,1.5-1.06,1.5-1.06S15,3.56,14.9,3.59Z"/><path class="cls-6" d="M22.81,11.49a3,3,0,0,1-.36.16,3.1,3.1,0,0,1-.46.15l-.26,0a1.9,1.9,0,0,1-.41,0h-.76c-.34,0-.47-.07-.47-.25s.15-.15.4-.13l.27,0,.35,0h.59l.29,0a3.06,3.06,0,0,0,.51-.12l.37-.11c.26-.09.54-.21.82-.34A5.82,5.82,0,0,1,22.81,11.49Z"/><path class="cls-6" d="M21.47,12.39l-.37.14a3.47,3.47,0,0,1-.46.13l-.27,0a1.85,1.85,0,0,1-.41,0h-.49l-.27,0c-.34,0-.46-.08-.45-.27s.15-.14.4-.11l.26,0,.35,0a3.19,3.19,0,0,0,.45,0h.14l.29,0a4.25,4.25,0,0,0,.52-.1,2.54,2.54,0,0,0,.37-.1,4.9,4.9,0,0,0,.83-.3A5.22,5.22,0,0,1,21.47,12.39Z"/><path class="cls-7" d="M3.44,10.09A.07.07,0,0,0,3.37,10a.07.07,0,0,0-.08.07.08.08,0,0,0,.08.08A.08.08,0,0,0,3.44,10.09Z"/></g></g></svg>