<svg xmlns="http://www.w3.org/2000/svg" xmlns:xlink="http://www.w3.org/1999/xlink" viewBox="0 0 26.94 12.15"><defs><style>.cls-1{fill:#9aa1b7;}.cls-2{fill:#a4a9c6;}.cls-3{fill:#8c8caf;}.cls-4{fill:#767691;}.cls-5{fill:#58577e;}.cls-6{fill:#282826;}.cls-7{opacity:0.6;fill:url(#radial-gradient);}.cls-8{fill:#505171;}.cls-9{fill:#e2afbc;}</style><radialGradient id="radial-gradient" cx="5.81" cy="6.95" r="1.11" gradientUnits="userSpaceOnUse"><stop offset="0" stop-color="#e2aebb"/><stop offset="1" stop-color="#a4a9c6"/></radialGradient></defs><g id="Layer_2" data-name="Layer 2"><g id="Layer_2-2" data-name="Layer 2"><path class="cls-1" d="M24.84,4A1.14,1.14,0,0,1,24,3.4a1.59,1.59,0,0,0-.82-.56,2.47,2.47,0,0,0-1.4.5L21.56,3a2.51,2.51,0,0,1,1.83-.29,2,2,0,0,1,.77.67c.22.29.4.46.67.47Z"/><path class="cls-2" d="M24.67,3.82c-.22.42.24,1.26,1.61.7.59-.24.66-.59.66-.59A.74.74,0,0,1,26.4,4C26.22,3.92,25.21,2.79,24.67,3.82Z"/><path class="cls-3" d="M6.47,0A3.12,3.12,0,0,1,8,.92a2.55,2.55,0,0,1,.69,1.44H8a2.33,2.33,0,0,1-1.26-.81A2.41,2.41,0,0,1,6.47,0Z"/><path class="cls-1" d="M20.12,10.11a6.33,6.33,0,0,1-1.32.46,7.15,7.15,0,0,0,.31,1.33l.09,0s0-.34.07-.34.15.28.16.38h0c0-.05,0-.45.14-.43s.15.28.18.46h0c0-.05,0-.42.1-.42s.13.22.14.43a.7.7,0,0,0,.36-.05,6.08,6.08,0,0,0,.18-1C20.42,10.45,20.3,10,20.12,10.11Z"/><path class="cls-4" d="M19.27,11.58c-.09,0-.07.34-.07.34l.23,0C19.42,11.86,19.38,11.57,19.27,11.58Z"/><path class="cls-4" d="M19.57,11.53c-.15,0-.14.38-.14.43a1.66,1.66,0,0,0,.32,0C19.72,11.81,19.65,11.55,19.57,11.53Z"/><path class="cls-4" d="M19.85,11.57c-.12,0-.1.37-.1.42H20C20,11.79,19.92,11.58,19.85,11.57Z"/><path class="cls-1" d="M10.59,10.05A9.62,9.62,0,0,0,10.92,12L11,12s0-.37.09-.37.15.3.15.43h0c0-.14,0-.48.17-.46s.15.31.16.5h0c0-.12,0-.44.12-.44s.13.24.13.46a.78.78,0,0,0,.39,0,4.83,4.83,0,0,0,.22-1c-.07-.37-.12-.71-.12-.71A7.05,7.05,0,0,1,10.59,10.05Z"/><path class="cls-4" d="M11.1,11.62c-.1,0-.09.37-.09.37l.24.06C11.25,11.92,11.22,11.62,11.1,11.62Z"/><path class="cls-4" d="M11.43,11.59c-.15,0-.17.32-.17.46l.33,0C11.58,11.9,11.51,11.61,11.43,11.59Z"/><path class="cls-4" d="M11.72,11.65c-.11,0-.12.32-.12.44l.25,0C11.85,11.89,11.8,11.65,11.72,11.65Z"/><polygon class="cls-4" points="11.6 12.12 11.6 12.12 11.6 12.12 11.6 12.12"/><path class="cls-2" d="M22.22,3.81C21.09,1.26,16.9.13,14.18,1A20.53,20.53,0,0,0,11,2.2c-.72.33-.72.28-1,.22-.77-.19-1.17-.69-2-.64s-1.91,1-2.62,1.14S.36,3.66,0,6.47A2.58,2.58,0,0,0,2.31,9.55a2.93,2.93,0,0,0,1.92-1,.88.88,0,0,1-.18-.21.05.05,0,0,1,0-.07.06.06,0,0,1,.07,0,.42.42,0,0,0,.18.2h0a.59.59,0,0,0,.36.1.05.05,0,0,1,0,.05,0,0,0,0,1,0,0,.86.86,0,0,1-.39-.09,3.11,3.11,0,0,1-2,1.06.82.82,0,0,0,.71.51c1.65.06,4.73-1,5.05-.87a9.16,9.16,0,0,0,1.12.21,9.62,9.62,0,0,0,1.37.55,7.05,7.05,0,0,0,1.75.34s.05.34.12.71a3.1,3.1,0,0,0,.27.94l.09.05c0-.08,0-.3.06-.34s.19.3.19.38h0c0-.08,0-.46.18-.43s.14.26.15.45h0c0-.1,0-.37.12-.4s.16.15.14.38h0a.72.72,0,0,0,.32-.09c.16-.13.29-1.14.41-1.23s1.51.18,2.56.09a12,12,0,0,0,1.86-.34,6.33,6.33,0,0,0,1.32-.46c.18-.1.3.34.41.82s.22,1,.36,1l.05,0c0-.09,0-.37.09-.37s.15.32.16.4h0s-.08-.44.09-.46.17.26.22.45h0c0-.08-.07-.42,0-.44s.18.16.23.39a1.24,1.24,0,0,0,.28-.12c.08-.06,0-2.7.16-3A6.25,6.25,0,0,0,22.22,3.81Z"/><path class="cls-5" d="M4.31,8.59a.86.86,0,0,0,.39.09,0,0,0,0,0,0,0,.05.05,0,0,0,0-.05.59.59,0,0,1-.36-.1h0a.41.41,0,0,1-.19-.2.06.06,0,0,0-.07,0,.05.05,0,0,0,0,.07.88.88,0,0,0,.18.21,2.93,2.93,0,0,1-1.92,1l0,.1A3.11,3.11,0,0,0,4.31,8.59Z"/><path class="cls-4" d="M12.88,11.75c-.07,0-.07.26-.06.34a1.31,1.31,0,0,0,.25,0C13.07,12.05,13.05,11.63,12.88,11.75Z"/><path class="cls-4" d="M13.4,12.15c0-.19-.06-.43-.15-.45s-.18.35-.18.43Z"/><path class="cls-4" d="M13.52,11.75c-.11,0-.12.3-.12.4h.26C13.68,11.9,13.59,11.74,13.52,11.75Z"/><path class="cls-4" d="M21,11.59c-.11,0-.09.28-.09.37l.25,0C21.18,11.91,21.14,11.59,21,11.59Z"/><path class="cls-4" d="M21.29,11.52c-.17,0-.09.46-.09.46h.31C21.46,11.78,21.43,11.5,21.29,11.52Z"/><path class="cls-4" d="M21.55,11.52c-.11,0-.06.36,0,.44l.27-.05C21.73,11.68,21.66,11.49,21.55,11.52Z"/><path class="cls-6" d="M7.86,3c0-.13,0-.26-.09-.29s-.2.05-.24.17,0,.26.09.29S7.82,3.1,7.86,3Z"/><path class="cls-6" d="M7.15,2.58a.2.2,0,0,0-.09-.26c-.08,0-.18,0-.22.16s0,.23.08.26S7.11,2.7,7.15,2.58Z"/><circle class="cls-7" cx="5.81" cy="6.95" r="1.11"/><path class="cls-8" d="M2.94,7.13A.13.13,0,0,0,2.8,7a.13.13,0,0,0-.13.13.13.13,0,0,0,.13.14A.14.14,0,0,0,2.94,7.13Z"/><circle class="cls-8" cx="0.61" cy="6.88" r="0.14"/><path class="cls-5" d="M2.85,7.4a0,0,0,0,1,0,0,.07.07,0,0,1,0-.05c.21,0,.23-.36.09-.42s-.38.18-.31.34a0,0,0,0,1-.08,0,.4.4,0,0,1,.09-.46.33.33,0,0,1,.39,0,.32.32,0,0,1,.14.35.35.35,0,0,1-.31.29Z"/><path class="cls-5" d="M.52,7.12h0a.32.32,0,0,1-.22-.29.29.29,0,0,1,.25-.28.29.29,0,0,1,.32.15A.27.27,0,0,1,.83,7s0,0-.06,0,0,0,0-.07a.2.2,0,0,0-.25-.28A.19.19,0,0,0,.53,7s0,0,0,0A0,0,0,0,1,.52,7.12Z"/><path class="cls-3" d="M10.59,1.75a3.17,3.17,0,0,1,2.08.65S12.44,3,11,3.32a2.15,2.15,0,0,1-1.46-.18c-.14-.09-.39-.39-.31-.5A2.35,2.35,0,0,1,10.59,1.75Z"/><path class="cls-9" d="M9.62,3.12a2.11,2.11,0,0,1,1-.77,3.43,3.43,0,0,1,1.73.33,3.31,3.31,0,0,1-1.21.57A2.12,2.12,0,0,1,9.62,3.12Z"/></g></g></svg>