<svg xmlns="http://www.w3.org/2000/svg" viewBox="0 0 27.62 21.17"><defs><style>.cls-1{fill:#3a281a;}.cls-2{fill:#9c5727;}.cls-3{fill:#a65e2b;}.cls-4{fill:#f3ac8c;}.cls-5{fill:#a65a26;}.cls-6{fill:#d37f46;}.cls-7{fill:#351314;}.cls-8{fill:#f8f3f4;}.cls-9{fill:#eef1f4;}</style></defs><g id="Layer_2" data-name="Layer 2"><g id="Layer_2-2" data-name="Layer 2"><path class="cls-1" d="M8.21,3.3s.2.23.61,0,.59-.51,1.29-.28c0,0-.67.23-.76.5s0,.51-.32.77a1.53,1.53,0,0,1,.63,0c.25.08.6-.37.66-.6a2.71,2.71,0,0,1-.1.89,1.41,1.41,0,0,1-.59.62s.34.45.7.21a1.58,1.58,0,0,0,.51-.67,1.33,1.33,0,0,1-.17.82,2.29,2.29,0,0,1-.55.51c-.21.15-.06,0-.06,0s.64-.28.88-.16a1,1,0,0,0,.82.07s-.24.6-.63.63-.53-.08-.65.22.23.46.49.44a1.33,1.33,0,0,0,.92-.46,1.83,1.83,0,0,1-.34.76,3.36,3.36,0,0,1-.67.34.71.71,0,0,0,.42.14c.23,0,.74-.42,1.36.16,0,0-.72-.07-.83.13s-.21.42-.46.45a1.64,1.64,0,0,0-.57.27A14.11,14.11,0,0,1,8.91,6.46a14.75,14.75,0,0,0-1.12-1.8L6.91,3.3l-.72-.94H8a3.88,3.88,0,0,1,1.28.22s-.59,0-.79.29S8.21,3.3,8.21,3.3Z"/><path class="cls-1" d="M17.52,10.85S19.08,9,20.77,9.09s2.36,1.31,3.28,1.39,1.79,0,2.16-.66A.77.77,0,0,1,26,11s1.28-.11,1.57-.87a1.3,1.3,0,0,1-1.08,1.62,2.13,2.13,0,0,0,1.13-.07A4.41,4.41,0,0,1,25,12.93a5.86,5.86,0,0,1-4.64-1.16,2.61,2.61,0,0,0-2.74-.72Z"/><path class="cls-2" d="M14.79,14.91a11.55,11.55,0,0,1,1.12,2.42,15.34,15.34,0,0,1-1.38,3,1.51,1.51,0,0,0,.77.2,1.24,1.24,0,0,1,.2-.37c.05,0,.15,0,.21-.14s0-.19,0-.49a7.89,7.89,0,0,1,1-1.79c.28-.46-.09-1.16,0-1.76a8.45,8.45,0,0,1,.47-1.53Z"/><path class="cls-2" d="M10,14.79a13.68,13.68,0,0,0-1.17,3,4,4,0,0,0,.78,1.43.85.85,0,0,1,.34.18.32.32,0,0,1,.05.24l.13.13a.9.9,0,0,1-.57.62s-1.3-2-1.37-2.05S8,18.23,7.9,18A.7.7,0,0,1,8,17.44a20,20,0,0,0,.82-3Z"/><path class="cls-3" d="M4.66,3.29A14.17,14.17,0,0,1,6.1,7.05c.37,1.89.23,2.78.52,4.21s.94,1.6.77,2.28a14.53,14.53,0,0,1-1.84,2.71A.84.84,0,0,0,5,16.5c-.2.2-.08.35-.23.57a10.32,10.32,0,0,1-1.94,2s0,.38.63.56h0c.14,0,.27-.15.27-.15a.21.21,0,0,0,.27,0c.12-.12,0-.25.09-.31s1.25-1.61,1.34-1.66a1.31,1.31,0,0,0,.64-.68,13.12,13.12,0,0,1,2.5-2.21,19.24,19.24,0,0,0,4.27.75,32.64,32.64,0,0,0,4-.7,8.88,8.88,0,0,0,2.7,1.93,8.22,8.22,0,0,0,1.68,3,1.23,1.23,0,0,0,.59-.44l-.29-.37a.41.41,0,0,0,0-.29c-.07-.11-.25-.15-.33-.22-.74-.59-.85-2.18-1-2.23a2.88,2.88,0,0,1-1.71-2c-.2-1.27.66-1.69-.24-3.54s-4.32-1-6.12-1.21A2.77,2.77,0,0,1,9.73,7.43,24.8,24.8,0,0,0,6.27,2.08,10.88,10.88,0,0,0,4.66,3.29Z"/><path class="cls-1" d="M2.09,19.3s.05.78,1.11.9a3.93,3.93,0,0,1,.37-.54s-.67,0-.77-.56A1.91,1.91,0,0,1,2.09,19.3Z"/><path class="cls-1" d="M10.19,20.84a.88.88,0,0,0,.34-.39,1.55,1.55,0,0,0,.13-.58,1.65,1.65,0,0,1-.55-.11,1,1,0,0,1-.57.62A.8.8,0,0,0,10.19,20.84Z"/><path class="cls-1" d="M14.09,21s.19.31,1.15.15l.06-.57a2,2,0,0,1-.77-.19A5.85,5.85,0,0,0,14.09,21Z"/><path class="cls-1" d="M21.5,20.1a1.39,1.39,0,0,0,.78-.59l-.43-.38a1.43,1.43,0,0,1-.59.44A2,2,0,0,0,21.5,20.1Z"/><path class="cls-3" d="M6.36,2.26s.7-1.59,3-.32a2.26,2.26,0,0,1-2.89.64Z"/><path class="cls-3" d="M5.27,2.39S5.92.78,3.38,0A2.25,2.25,0,0,0,4.94,2.51Z"/><path class="cls-4" d="M6.43,2.41a2.15,2.15,0,0,1,2.48-.26,2.39,2.39,0,0,1-2.4.43Z"/><path class="cls-4" d="M5.12,2.45a2.16,2.16,0,0,0-1.55-2,2.39,2.39,0,0,0,1.37,2Z"/><path class="cls-5" d="M.48,6.15c.79-1.49,2.9-5,5.27-4.37,2.09.55-.1,6.55-1.62,7.05C2.87,9.25,1,9.42.5,8.34A2.2,2.2,0,0,1,.48,6.15Z"/><path class="cls-6" d="M0,7.55A2.14,2.14,0,0,1,2.56,5.23c2.05.16,2.6,1.31,2.62,2.13s-.79,2-2.78,2A2.25,2.25,0,0,1,0,7.55Z"/><path class="cls-7" d="M.6,7.39A2.91,2.91,0,0,0,4,7s-.09,1.71-1.49,1.7A2,2,0,0,1,.6,7.39Z"/><path class="cls-1" d="M3.69,3.13a.18.18,0,0,0-.16-.2.19.19,0,0,0-.21.17.19.19,0,0,0,.37,0Z"/><path class="cls-1" d="M5.75,3.63a.19.19,0,0,0-.37,0,.2.2,0,0,0,.17.21A.19.19,0,0,0,5.75,3.63Z"/><path class="cls-1" d="M1.36,6.17c0-.07-.11-.1-.21-.07S1,6.2,1,6.27s.11.1.21.07S1.38,6.24,1.36,6.17Z"/><path class="cls-1" d="M3.92,6.19c0-.06,0-.15-.13-.18s-.2,0-.22.06,0,.15.13.18S3.9,6.26,3.92,6.19Z"/><path class="cls-8" d="M.89,7.88a2,2,0,0,0,1.47.33,3.18,3.18,0,0,0,1.45-.59,1.17,1.17,0,0,0,.08-.27A1.75,1.75,0,0,0,4,7a3.42,3.42,0,0,1-1.83.78A3,3,0,0,1,.59,7.36a1.51,1.51,0,0,0,.14.3A2.66,2.66,0,0,0,.89,7.88Z"/><path class="cls-1" d="M5.32,1.15s.25-.22.15-.4c0,0,.17.09.25.45,0,0,.32-.31.32-.46a1.37,1.37,0,0,1,0,.52s.48-.19.61-.09a1.63,1.63,0,0,0-.41.26s1.13.16,1.16,1.68A1.78,1.78,0,0,0,6.54,2a1.55,1.55,0,0,1,.11,1.25s-.16-1-.57-1.31a3,3,0,0,0-.42.8,3.76,3.76,0,0,1,0-.74,5.35,5.35,0,0,0-.49,1V3a4.55,4.55,0,0,1,.21-1.15,5.12,5.12,0,0,0-.81,1.45,2.77,2.77,0,0,1,.61-1.73s-.54.06-.82.86a.87.87,0,0,1,.64-1,3.62,3.62,0,0,0-1.44.43A1.78,1.78,0,0,1,5.32,1.15Z"/><path class="cls-9" d="M3.61,3.06a0,0,0,0,0-.1,0,0,0,0,0,0,.1,0A0,0,0,0,0,3.61,3.06Z"/><path class="cls-9" d="M5.67,3.56a.05.05,0,1,0-.1,0,0,0,0,0,0,.1,0Z"/></g></g></svg>