<svg xmlns="http://www.w3.org/2000/svg" viewBox="0 0 20.27 26.75"><defs><style>.cls-1{fill:#b54a26;}.cls-2{fill:#562b19;}.cls-3{fill:#ffe9d2;}.cls-4{fill:#c25327;}.cls-5{fill:#21201e;}.cls-6{fill:#090909;}</style></defs><g id="Layer_2" data-name="Layer 2"><g id="Layer_2-2" data-name="Layer 2"><path class="cls-1" d="M1.1,13.63a3.36,3.36,0,0,0-1,2.49,10.35,10.35,0,0,1,.23,2.09,9.4,9.4,0,0,0-.27.95.5.5,0,0,1,.28.05c.13.07.1-.06.22,0a.74.74,0,0,0,.26,0,1.71,1.71,0,0,0,0-.5,22.59,22.59,0,0,1-.47-2.59,2.48,2.48,0,0,1,.91-2,1.49,1.49,0,0,1,.6-.8A1.1,1.1,0,0,0,1.1,13.63Z"/><path class="cls-2" d="M.3,19.21A.5.5,0,0,0,0,19.16a1.36,1.36,0,0,0,.27,1.11c.1.13.39-.45.49-1a.74.74,0,0,1-.26,0C.4,19.15.43,19.28.3,19.21Z"/><path class="cls-2" d="M13.08,20.19a6.78,6.78,0,0,0,.5-.52A9.09,9.09,0,0,1,14,17.21L12.2,18.27A5.83,5.83,0,0,1,12.65,20C12.8,20.07,13,20.23,13.08,20.19Z"/><path class="cls-3" d="M13.53,20.79c0-.34,0-.73.05-1.12a6.78,6.78,0,0,1-.5.52c-.05,0-.28-.12-.43-.24,0,.2.06.42.08.67a.88.88,0,0,1,0,.16,4,4,0,0,0,.43.29C13.23,21.08,13.4,20.92,13.53,20.79Z"/><path class="cls-1" d="M1.29,24.6a7.82,7.82,0,0,1-.07-1.85,11.18,11.18,0,0,0,1.21-2.92,7.75,7.75,0,0,0-1.3-2.1A.94.94,0,0,1,1,17.55a7.12,7.12,0,0,1,0,2.95c-.38,1.18-.5,1.42-.61,1.77a11.39,11.39,0,0,0,.15,2.47c0,.22,0,.43.06.6v.09a1.14,1.14,0,0,0,.71-.23v-.12C1.33,24.94,1.31,24.77,1.29,24.6Z"/><path class="cls-1" d="M13.71,24.7a5,5,0,0,1-.07-.71,6,6,0,0,1,0-1,2.26,2.26,0,0,0-.08-1.14,6,6,0,0,1,0-1.08c-.13.13-.3.29-.35.28a4,4,0,0,1-.43-.29,3.9,3.9,0,0,1,.09,1.15A1.36,1.36,0,0,0,13,23.08a3.36,3.36,0,0,1,.12.92c0,.17,0,.49,0,.77A1,1,0,0,0,13.71,24.7Z"/><path class="cls-4" d="M11.38,22.05s0-.41.06-.94c-.14.16-.35.37-.39.36a1.71,1.71,0,0,1-.35-.21c0,.21,0,.44,0,.68a3.92,3.92,0,0,0-.16.77,2.62,2.62,0,0,0,.09.58,6.53,6.53,0,0,1-.06,1.51,1,1,0,0,0,.71,0,8.29,8.29,0,0,1,0-1.44A2.75,2.75,0,0,0,11.38,22.05Z"/><path class="cls-4" d="M14.36,15.35a1.86,1.86,0,0,0,.88-.36,7.5,7.5,0,0,0,.09-2.48l-2.59-1.42a2.3,2.3,0,0,1-.76.84l-.12.08c0,.32,0,.82,0,1.23a8.09,8.09,0,0,1-.12.86,5.66,5.66,0,0,0-.09.9,3.23,3.23,0,0,0,.06.46,4,4,0,0,1,0,1.75s0,0-.06,0h0a.07.07,0,0,1,0-.08,3.84,3.84,0,0,0,0-1.69A3.54,3.54,0,0,1,11.5,15a4.93,4.93,0,0,1,.1-.93c0-.28.09-.57.11-.85s0-.82,0-1.13a3.54,3.54,0,0,1-.86.39c0,.3,0,.74,0,1a6.71,6.71,0,0,1-.21,1.79,3,3,0,0,0,0,1.15,2,2,0,0,1,.05.42,2.68,2.68,0,0,1-.15.63.07.07,0,0,1-.06.05h0a.06.06,0,0,1,0-.08,3,3,0,0,0,.15-.6,2.73,2.73,0,0,0,0-.39,2.91,2.91,0,0,1,0-1.21,7.11,7.11,0,0,0,.21-1.75c0-.23,0-.65,0-1a5.11,5.11,0,0,1-.72.14,4.83,4.83,0,0,0-.18.79c0,.13,0,.34,0,.56a6.88,6.88,0,0,1,0,1,10.9,10.9,0,0,0-.11,2.35s0,.07-.05.07h0a.06.06,0,0,1-.06-.05A11,11,0,0,1,9.7,15a5.43,5.43,0,0,0,0-1c0-.24,0-.44,0-.58a5.76,5.76,0,0,1,.17-.77c-.25,0-.53.05-.85.06,0,.4,0,.86,0,1.17s0,.3,0,.37a4.51,4.51,0,0,1-.12.72,12.25,12.25,0,0,0-.22,1.35,6.13,6.13,0,0,0,0,1,.07.07,0,0,1-.06.07h0s-.05,0-.06-.06a6.33,6.33,0,0,1,0-1.06A10.59,10.59,0,0,1,8.75,15c.06-.3.11-.57.12-.69s0-.21,0-.37c0-.32,0-.77,0-1.17l-.78,0c-.06.27-.12.6-.15.85a5.58,5.58,0,0,0,0,.92,4.2,4.2,0,0,1,0,.72c0,.08,0,.19,0,.31a6.19,6.19,0,0,1-.35,1.86.05.05,0,0,1-.06,0h0a.06.06,0,0,1,0-.09,6.22,6.22,0,0,0,.33-1.82c0-.12,0-.23,0-.31a5.57,5.57,0,0,0,0-.71,7.29,7.29,0,0,1,0-.94c0-.24.1-.56.15-.84-.33,0-.68,0-1.07-.08a4.17,4.17,0,0,0-.1.77c0,.35,0,.85,0,1.34,0,.3,0,.59,0,.81a9,9,0,0,1-.26,1.79.06.06,0,0,1-.06.05h0a.07.07,0,0,1,0-.08,10.13,10.13,0,0,0,.25-1.76c0-.22,0-.5,0-.8,0-.49-.06-1,0-1.36a5.56,5.56,0,0,1,.1-.78h0c-.35,0-.69-.06-1-.08v0c0,.18-.07.47-.13.81a7.15,7.15,0,0,0-.19,1.4,8.81,8.81,0,0,0,.1,1.09c0,.18.06.36.07.51a5,5,0,0,1,0,.87.06.06,0,0,1-.06.06h0a.08.08,0,0,1-.06-.08,4.51,4.51,0,0,0,0-.84c0-.15,0-.32-.06-.5a8.68,8.68,0,0,1-.11-1.11,8.43,8.43,0,0,1,.19-1.43,7.45,7.45,0,0,0,.13-.79v0c-.41,0-.79,0-1.13,0a12.92,12.92,0,0,0,0,1.65c0,.19,0,.43,0,.71s0,.82,0,1.28a6.11,6.11,0,0,0,.22,1.35.06.06,0,0,1,0,.08h0a.06.06,0,0,1-.06-.05,5.36,5.36,0,0,1-.22-1.38c0-.47,0-.91,0-1.29s0-.52,0-.7a14.05,14.05,0,0,1,0-1.65,7,7,0,0,0-.87.1c0,.29,0,.65,0,.91a3,3,0,0,1-.15.8,2.77,2.77,0,0,0-.11.48A9.47,9.47,0,0,0,3.68,17a2.46,2.46,0,0,1,.07.9.06.06,0,0,1-.06.06h0a.05.05,0,0,1-.05-.07A2.59,2.59,0,0,0,3.55,17a9.84,9.84,0,0,1-.38-2.19,4.48,4.48,0,0,1,.11-.5,2.77,2.77,0,0,0,.15-.77c0-.25,0-.59,0-.88a4.86,4.86,0,0,0-1,.3c0,.13-.08.3-.13.51a5,5,0,0,0-.22,1,6.6,6.6,0,0,0,.27,2.15A5.88,5.88,0,0,1,2.67,18a.08.08,0,0,1,0,.07h0A.06.06,0,0,1,2.54,18a5.65,5.65,0,0,0-.38-1.29,6.69,6.69,0,0,1-.29-2.21,5.74,5.74,0,0,1,.22-1.06c0-.15.08-.29.11-.42a1.91,1.91,0,0,0-.83.63A4.54,4.54,0,0,0,1,17.55a.94.94,0,0,0,.12.18,7.75,7.75,0,0,1,1.3,2.1,1.5,1.5,0,0,1,.06.29,19.74,19.74,0,0,1-.4,2.81,12.29,12.29,0,0,0,.58,2.44.89.89,0,0,0,.76-.22,10,10,0,0,1-.54-2.25,1.37,1.37,0,0,1,.18-.4A2.26,2.26,0,0,1,3.16,21a1,1,0,0,1,1-.41A9.08,9.08,0,0,0,4.7,19s3.56.91,5.5-.07a5.2,5.2,0,0,1,.39,1.43c.17.09.4.2.48.17a2.64,2.64,0,0,0,.47-.4c.09-.73.2-1.39.35-1.44a4.36,4.36,0,0,0,2.71-2.06,4.39,4.39,0,0,0,.42-.84,1.77,1.77,0,0,1-2.16-.59,1.2,1.2,0,0,1,0-.68C13,14.42,13.72,15.36,14.36,15.35Z"/><path class="cls-3" d="M10.59,24.8c0,.16,0,.34-.06.56a.5.5,0,0,0,.79-.06s0-.23,0-.54A1,1,0,0,1,10.59,24.8Z"/><path class="cls-3" d="M.65,25.43a2.81,2.81,0,0,1,0,.46.57.57,0,0,0,.75-.27s0-.16-.06-.42A1.14,1.14,0,0,1,.65,25.43Z"/><path class="cls-3" d="M2.67,25.37a1.15,1.15,0,0,0,.18.4c.16.14.84-.05.73-.23s-.08-.2-.15-.39A.89.89,0,0,1,2.67,25.37Z"/><path class="cls-3" d="M13.08,24.77a3.72,3.72,0,0,1,0,.45c0,.14.25.22.45.18a.54.54,0,0,0,.31-.19s-.05-.21-.09-.51A1,1,0,0,1,13.08,24.77Z"/><path class="cls-3" d="M3.16,21a2.26,2.26,0,0,0-.09,1.49,14.92,14.92,0,0,0,1.06-1.9A1,1,0,0,0,3.16,21Z"/><path class="cls-3" d="M10.59,20.31c.05.28.08.59.11,1a1.71,1.71,0,0,0,.35.21s.25-.2.39-.36c0-.32.06-.68.1-1a2.64,2.64,0,0,1-.47.4C11,20.51,10.76,20.4,10.59,20.31Z"/><path class="cls-3" d="M11.71,13.23c0,.28-.07.57-.11.85a4.93,4.93,0,0,0-.1.93,3.54,3.54,0,0,0,.06.47,3.84,3.84,0,0,1,0,1.69.07.07,0,0,0,0,.08h0s.06,0,.06,0a4,4,0,0,0,0-1.75,3.23,3.23,0,0,1-.06-.46,5.66,5.66,0,0,1,.09-.9,8.09,8.09,0,0,0,.12-.86c0-.41,0-.91,0-1.23l-.12.09C11.74,12.41,11.74,12.86,11.71,13.23Z"/><path class="cls-3" d="M10.75,13.48a7.11,7.11,0,0,1-.21,1.75,2.91,2.91,0,0,0,0,1.21,2.73,2.73,0,0,1,0,.39,3,3,0,0,1-.15.6.06.06,0,0,0,0,.08h0a.07.07,0,0,0,.06-.05,2.68,2.68,0,0,0,.15-.63,2,2,0,0,0-.05-.42,3,3,0,0,1,0-1.15,6.71,6.71,0,0,0,.21-1.79c0-.25,0-.69,0-1l-.13,0C10.74,12.83,10.74,13.25,10.75,13.48Z"/><path class="cls-3" d="M9.72,14a5.43,5.43,0,0,1,0,1,11,11,0,0,0-.11,2.39.06.06,0,0,0,.06.05h0s.05,0,.05-.07A10.9,10.9,0,0,1,9.83,15a6.88,6.88,0,0,0,0-1c0-.22,0-.43,0-.56a4.83,4.83,0,0,1,.18-.79H9.89a5.76,5.76,0,0,0-.17.77C9.71,13.58,9.72,13.78,9.72,14Z"/><path class="cls-3" d="M7.84,14.48a5.57,5.57,0,0,1,0,.71c0,.08,0,.19,0,.31a6.22,6.22,0,0,1-.33,1.82.06.06,0,0,0,0,.09h0a.05.05,0,0,0,.06,0,6.19,6.19,0,0,0,.35-1.86c0-.12,0-.23,0-.31a4.2,4.2,0,0,0,0-.72,5.58,5.58,0,0,1,0-.92c0-.25.09-.58.15-.85H8c0,.28-.11.6-.15.84A7.29,7.29,0,0,0,7.84,14.48Z"/><path class="cls-3" d="M6.75,14.74c0,.3,0,.58,0,.8a10.13,10.13,0,0,1-.25,1.76.07.07,0,0,0,0,.08h0a.06.06,0,0,0,.06-.05,9,9,0,0,0,.26-1.79c0-.22,0-.51,0-.81,0-.49-.06-1,0-1.34a4.17,4.17,0,0,1,.1-.77l-.13,0a5.56,5.56,0,0,0-.1.78C6.69,13.74,6.72,14.25,6.75,14.74Z"/><path class="cls-3" d="M8.88,13.9c0,.16,0,.29,0,.37s-.06.39-.12.69a10.59,10.59,0,0,0-.23,1.37,6.33,6.33,0,0,0,0,1.06s0,.06.06.06h0a.07.07,0,0,0,.06-.07,6.13,6.13,0,0,1,0-1A12.25,12.25,0,0,1,8.87,15,4.51,4.51,0,0,0,9,14.27c0-.07,0-.2,0-.37s0-.77,0-1.17H8.91C8.91,13.13,8.89,13.58,8.88,13.9Z"/><path class="cls-3" d="M5.52,13.34a8.43,8.43,0,0,0-.19,1.43,8.68,8.68,0,0,0,.11,1.11c0,.18,0,.35.06.5a4.51,4.51,0,0,1,0,.84.08.08,0,0,0,.06.08h0a.06.06,0,0,0,.06-.06,5,5,0,0,0,0-.87c0-.15,0-.33-.07-.51a8.81,8.81,0,0,1-.1-1.09,7.15,7.15,0,0,1,.19-1.4c.06-.34.12-.63.13-.81v0H5.65v0A7.45,7.45,0,0,1,5.52,13.34Z"/><path class="cls-3" d="M4.36,14.17c0,.18,0,.42,0,.7s0,.82,0,1.29a5.36,5.36,0,0,0,.22,1.38.06.06,0,0,0,.06.05h0a.06.06,0,0,0,0-.08,6.11,6.11,0,0,1-.22-1.35c0-.46,0-.89,0-1.28s0-.52,0-.71a12.92,12.92,0,0,1,0-1.65H4.39A14.05,14.05,0,0,0,4.36,14.17Z"/><path class="cls-3" d="M3.43,13.52a2.77,2.77,0,0,1-.15.77,4.48,4.48,0,0,0-.11.5A9.84,9.84,0,0,0,3.55,17a2.59,2.59,0,0,1,.08.85.05.05,0,0,0,.05.07h0a.06.06,0,0,0,.06-.06,2.46,2.46,0,0,0-.07-.9,9.47,9.47,0,0,1-.38-2.14,2.77,2.77,0,0,1,.11-.48,3,3,0,0,0,.15-.8c0-.26,0-.62,0-.91l-.13,0C3.41,12.93,3.44,13.27,3.43,13.52Z"/><path class="cls-3" d="M1.87,14.48a6.69,6.69,0,0,0,.29,2.21A5.65,5.65,0,0,1,2.54,18,.06.06,0,0,0,2.6,18h0a.08.08,0,0,0,0-.07,5.88,5.88,0,0,0-.4-1.33A6.6,6.6,0,0,1,2,14.48a5,5,0,0,1,.22-1c0-.21.1-.38.13-.51L2.2,13c0,.13-.07.27-.11.42A5.74,5.74,0,0,0,1.87,14.48Z"/><path class="cls-3" d="M14.36,15.35c-.64,0-1.35-.93-1.49-.88a1.2,1.2,0,0,0,0,.68,1.77,1.77,0,0,0,2.16.59c.09-.25.16-.51.22-.75A1.86,1.86,0,0,1,14.36,15.35Z"/><path class="cls-2" d="M15.42,9.76c-.14.18-.75.19-.91.19s-.72.11-.85-.15a1.59,1.59,0,0,1-1.15,1c.44,1.78,1.21,2.49,2,2.5s1.47-.75,1.9-2.58A1.75,1.75,0,0,1,15.42,9.76Z"/><path class="cls-4" d="M18.57,6.67a3.92,3.92,0,0,0-1.79.65.54.54,0,0,1-.25,0,1.88,1.88,0,0,0-1.77-.94,2.08,2.08,0,0,0-2.27,1,.48.48,0,0,1-.24,0,3.89,3.89,0,0,0-1.71-.84,2.83,2.83,0,0,0-1.77.64,2.39,2.39,0,0,0,1.75,1.19c1,.06,1.36-.46,1.65-.45l.14,0,0,.18a1.58,1.58,0,0,1,1.41,1.39.22.22,0,0,1,0,.08,2.09,2.09,0,0,1,.77-.15,1.72,1.72,0,0,1,.92.12h0A1.59,1.59,0,0,1,16.72,8a.88.88,0,0,1,0-.16h.1c.29,0,.64.58,1.6.62a2.39,2.39,0,0,0,1.86-1A2.83,2.83,0,0,0,18.57,6.67Z"/><path class="cls-3" d="M15.39,9.53h0a1.72,1.72,0,0,0-.92-.12,2.09,2.09,0,0,0-.77.15.22.22,0,0,0,0-.08A1.58,1.58,0,0,0,12.28,8.1a6.48,6.48,0,0,0,.11,2.09c0,.2.08.4.12.58a1.59,1.59,0,0,0,1.15-1c.13.26.69.15.85.15s.77,0,.91-.19a1.75,1.75,0,0,0,1,.93,5,5,0,0,0,.12-.58A8.58,8.58,0,0,0,16.72,8,1.59,1.59,0,0,0,15.39,9.53Z"/><path class="cls-5" d="M12.64,8.55s-.1.77.59.58A.53.53,0,0,0,12.64,8.55Z"/><path class="cls-5" d="M16.37,8.51s.16.76-.55.63A.54.54,0,0,1,16.37,8.51Z"/><path class="cls-5" d="M14.57,12.58c.42,0,.95-.65.7-.94a1.26,1.26,0,0,0-1.46.06C13.6,12,14.09,12.57,14.57,12.58Z"/><path class="cls-6" d="M14.69,12.38c.05,0,.49-.29.39-.38S14.58,12.3,14.69,12.38Z"/><path class="cls-6" d="M14.4,12.38c-.07,0-.45-.3-.34-.38S14.56,12.38,14.4,12.38Z"/><path class="cls-3" d="M9.41,7.3a1.66,1.66,0,0,1,2.23.37A1.61,1.61,0,0,1,9.41,7.3Z"/><path class="cls-3" d="M19.61,7.56a1.65,1.65,0,0,0-2.26.14A1.62,1.62,0,0,0,19.61,7.56Z"/><path class="cls-3" d="M14.11,6.48a4.22,4.22,0,0,1-1.46,1c-.2,0,.07-.43-.6-1.43a2.49,2.49,0,0,1-.35-2.31,6.94,6.94,0,0,0,1.1-2C12.9.9,13,0,13.19,0s.17,2,.12,2.24c-.14.71-.83,1.53-.73,2.06C12.83,5.7,14.16,6.38,14.11,6.48Z"/><path class="cls-3" d="M14.86,6.51a4.19,4.19,0,0,0,1.47,1c.2,0-.08-.42.59-1.43a2.45,2.45,0,0,0,.32-2.31,7.61,7.61,0,0,1-1.11-2C16,.92,16,0,15.73,0s-.16,2-.1,2.24c.14.71.83,1.52.74,2.06C16.13,5.72,14.81,6.41,14.86,6.51Z"/><path class="cls-3" d="M13.48,12.33c-.21.21.07.93,1,.94.66,0,1.33-.68,1-.95s-.59.23-1,.23S13.76,12.06,13.48,12.33Z"/><path class="cls-5" d="M14.51,13.06a1.25,1.25,0,0,1-.78-.36,0,0,0,0,1,0,0h0a1,1,0,0,0,1.4,0h.05a0,0,0,0,1,0,.05A1,1,0,0,1,14.51,13.06Z"/><path class="cls-3" d="M16.32,8.67a.07.07,0,0,0-.06-.07.07.07,0,0,0-.07.07.07.07,0,0,0,.07.06S16.32,8.71,16.32,8.67Z"/><path class="cls-3" d="M13,8.7a.07.07,0,0,0-.06-.07.07.07,0,0,0-.07.07.06.06,0,0,0,.06.06S13,8.74,13,8.7Z"/><path class="cls-5" d="M10.53,25.32a.67.67,0,0,0,.22,1,.54.54,0,0,0,.21-.69.7.7,0,0,0,.49.6.69.69,0,0,0-.13-1,.74.74,0,0,1-.41.19A.63.63,0,0,1,10.53,25.32Z"/><path class="cls-5" d="M13,25.22a.7.7,0,0,0,.21,1.06.57.57,0,0,0,.22-.71.68.68,0,0,0,.51.61s.53-.72-.19-1a.49.49,0,0,1-.37.22A.57.57,0,0,1,13,25.22Z"/><path class="cls-5" d="M.67,25.82a.66.66,0,0,0,.44.93.53.53,0,0,0,0-.7.68.68,0,0,0,.61.47.65.65,0,0,0-.36-.92.63.63,0,0,1-.34.27A.61.61,0,0,1,.67,25.82Z"/><path class="cls-5" d="M2.82,25.73a.68.68,0,0,0,.44,1A.54.54,0,0,0,3.31,26a.71.71,0,0,0,.62.48s.35-.74-.37-.95a.63.63,0,0,1-.34.29A.58.58,0,0,1,2.82,25.73Z"/></g></g></svg>