<svg xmlns="http://www.w3.org/2000/svg" xmlns:xlink="http://www.w3.org/1999/xlink" viewBox="0 0 17.49 22.86"><defs><style>.cls-1{fill:#d27928;}.cls-2{fill:#e08d2e;}.cls-3{fill:#f5d1a8;}.cls-4{fill:#cf7929;}.cls-5{fill:#010101;}.cls-6{opacity:0.6;fill:url(#radial-gradient);}.cls-7{fill:#f2f3f4;}</style><radialGradient id="radial-gradient" cx="4.82" cy="4.05" r="0.72" gradientUnits="userSpaceOnUse"><stop offset="0" stop-color="#e71e25"/><stop offset="1" stop-color="#df8c2b"/></radialGradient></defs><g id="Layer_2" data-name="Layer 2"><g id="Layer_2-2" data-name="Layer 2"><path class="cls-1" d="M4.67,1.88A1.22,1.22,0,0,1,4.84,0a1.85,1.85,0,0,1,0,1.8Z"/><path class="cls-2" d="M3.36,10.76s-.7-.11-1,.24-.63.27-.68.1a.72.72,0,0,1,.6-.79,1.47,1.47,0,0,1,.42,0,1.54,1.54,0,0,0,.84-.14S3.5,10.77,3.36,10.76Z"/><path class="cls-3" d="M3.63,14.81c-.75-.39-1-2.51,0-4.84l.23-.5a7.35,7.35,0,0,0,.89-4.33l.83-.38A52.84,52.84,0,0,1,5.29,11a14.28,14.28,0,0,0,.19,2.21Z"/><path class="cls-4" d="M7.64,18s-.23.6-.37,1.11,0,.58.16.68.21.55-.27.57c-.88.05-4,.25-4.54.32s-1.1-.12-.7-.63a1.1,1.1,0,0,1,.87-.47c.07,0,2.89.11,3.41.15s.53-.22.53-.6a8.84,8.84,0,0,0-.2-1.28S6,16.5,7.16,16.5,7.64,18,7.64,18Z"/><path class="cls-2" d="M16.88,21.75c-2.3-.63-5.46-1.54-5.77-4.42a10.79,10.79,0,0,0-3.48-7.26c-2.11-1.8-.94-5.9-.94-5.9a3,3,0,0,0,0-1.56A1.85,1.85,0,0,0,8.28,1.15c-.9-.13-1.56.72-1.8,1.09a1.33,1.33,0,0,0-.94-.54C3.48,1.39,3.73,3.15,1.16,3-.29,3,0,3.74.13,4.08c.48,1.1,1.89,2.33,4.72,1L5,5s1,1.4-.14,5.5c0,0-1.48,1-1.88,1.21-.23.11-.38.27-1.12-.11s-1.34.72-1.34.72-.34.57.21.76.7-.62.7-.62.08-.47.67-.07a1.08,1.08,0,0,0,1.25,0c.17-.08,1.46-.82,1.46-.82A2.24,2.24,0,0,0,5.18,13a2.44,2.44,0,0,0-1.6,2.45A2.83,2.83,0,0,0,5,18a4.38,4.38,0,0,1,0,2.64c-.15.32-.83.38-1.12.4-.78.07-2.75.3-3.1.36a.8.8,0,0,0-.75.82c0,.77.91.67,1.42.48s2.72-.93,3-1c.61-.11,1.75-.09,1.75-.6s-.49-.23-.4-1.27a4.53,4.53,0,0,1,1.06-2.52s.41.06,2.22,2.66a6,6,0,0,0,5,2.45S19.19,22.37,16.88,21.75Zm-9.95-4.4A2.65,2.65,0,0,1,7.27,17Z"/><path class="cls-5" d="M3.61,2.73a.22.22,0,1,0-.44,0,.22.22,0,0,0,.44,0Z"/><circle class="cls-5" cx="4.13" cy="3.08" r="0.23"/><path class="cls-5" d="M.75,3.15c.07.08-.35.57-.46.59S0,3.34,0,3.24.6,3,.75,3.15Z"/><path class="cls-2" d="M6.67,3.31h0Z"/><path class="cls-6" d="M5.61,4.05a.73.73,0,0,0-.79-.65.74.74,0,0,0-.8.65.74.74,0,0,0,.8.65A.73.73,0,0,0,5.61,4.05Z"/><path class="cls-7" d="M3.57,2.69a.07.07,0,1,0-.07.07A.07.07,0,0,0,3.57,2.69Z"/><path class="cls-7" d="M4.32,3a.07.07,0,0,0-.14,0,.07.07,0,0,0,.14,0Z"/></g></g></svg>