<svg xmlns="http://www.w3.org/2000/svg" xmlns:xlink="http://www.w3.org/1999/xlink" viewBox="0 0 20.54 14.99"><defs><style>.cls-1{fill:#cb814f;}.cls-2{fill:#c17850;}.cls-3{fill:#9f7752;}.cls-4{fill:#45342b;}.cls-5{fill:#7c553b;}.cls-6{opacity:0.6;fill:url(#radial-gradient);}.cls-7{fill:#f0f2f4;}</style><radialGradient id="radial-gradient" cx="6.71" cy="5.78" r="1.03" gradientUnits="userSpaceOnUse"><stop offset="0" stop-color="#e94b4c"/><stop offset="1" stop-color="#9f7752"/></radialGradient></defs><g id="Layer_2" data-name="Layer 2"><g id="Layer_2-2" data-name="Layer 2"><path class="cls-1" d="M0,11.38S.34,6.77,4.41,4.93l.18.85S1.86,6.56,0,11.38Z"/><path class="cls-2" d="M0,11.38s1-4.45,4.5-6l.09.43S1.86,6.56,0,11.38Z"/><path class="cls-1" d="M15.26,13.46a.1.1,0,0,0-.13-.06l-.64.24,0-2.83c0-.11-.07-.21-.16-.21h0a.19.19,0,0,0-.17.2l0,2.9L13,13.8a.1.1,0,0,0-.09.11A.1.1,0,0,0,13,14l.93-.09-.92.44a.09.09,0,0,0-.05.14.1.1,0,0,0,.09.06h0l.91-.43-.54.7a.12.12,0,0,0,0,.15l.07,0a.12.12,0,0,0,.08,0l.77-1a.1.1,0,0,0,0-.05h0l.71-.27A.1.1,0,0,0,15.26,13.46Z"/><path class="cls-1" d="M17.76,13.25a.11.11,0,0,0-.14-.06l-.63.27-.07-2.83c0-.12-.08-.21-.17-.2h0a.18.18,0,0,0-.16.2l.08,2.89-1.14.15a.1.1,0,0,0-.09.12.1.1,0,0,0,.11.09l.93-.12-.91.47a.1.1,0,0,0,0,.14.12.12,0,0,0,.09.05h.05l.88-.46-.5.72a.12.12,0,0,0,0,.15l.07,0a.1.1,0,0,0,.08-.05l.74-1,0-.05h0l.7-.3A.1.1,0,0,0,17.76,13.25Z"/><path class="cls-3" d="M4.23,5.26A2.17,2.17,0,0,1,5.91,3c1-.31,2.24.07,3.06-.17S12,0,14.75,0,20,1.14,20.49,4.71s-2.75,5.13-3,5.33-.48.73-.72.76-.56-.34-.77-.37a3.46,3.46,0,0,0-1.08,0c-.13.09-.34.39-.57.4s-.41-.4-.63-.49A10.19,10.19,0,0,1,11.09,9.3c-1-.68-1.55-1.37-2.19-1.75s-3-.41-3.69-.81A1.68,1.68,0,0,1,4.23,5.26Z"/><path class="cls-4" d="M6.12,4.46a.25.25,0,0,0-.5,0,.25.25,0,0,0,.5,0Z"/><path class="cls-5" d="M11.66,2.08s0,0,0,0a0,0,0,0,1,0-.07,2.63,2.63,0,0,1,.44-.24,3.7,3.7,0,0,1,.73-.21s-.36.16-.67.3a4.09,4.09,0,0,0-.43.23Z"/><path class="cls-5" d="M13.2.88a.05.05,0,0,1,0,0,0,0,0,0,1,0-.07,3.59,3.59,0,0,1,.68-.19,3.43,3.43,0,0,1,.88,0s-.46,0-.86.13a3.69,3.69,0,0,0-.64.2Z"/><path class="cls-5" d="M13.94,1.36a.05.05,0,0,1,0,0,.06.06,0,0,1,0-.07,3.4,3.4,0,0,1,.56-.1,6,6,0,0,1,.8,0s-.42.06-.78.12a2.57,2.57,0,0,0-.54.12Z"/><path class="cls-5" d="M15.61.45a.05.05,0,0,1,0,0,.06.06,0,0,1,0-.06h0a4.33,4.33,0,0,1,.55.08,4.09,4.09,0,0,1,.7.22S16.5.57,16.15.51,15.61.45,15.61.45Z"/><path class="cls-5" d="M12.37,2.7l0,0s0-.06,0-.07a2.58,2.58,0,0,1,.51-.21,4.59,4.59,0,0,1,.78-.17s-.41.14-.75.26-.47.2-.48.2S12.38,2.7,12.37,2.7Z"/><path class="cls-5" d="M10.69,3.37a0,0,0,0,1,0,0,0,0,0,0,1,0-.07A1.91,1.91,0,0,1,11.07,3a2.76,2.76,0,0,1,.64-.25s-.3.14-.57.29a3.44,3.44,0,0,0-.41.29Z"/><path class="cls-5" d="M13.58,3.28a.05.05,0,0,1-.05,0,.06.06,0,0,1,0-.07s.3-.07.61-.1a3.89,3.89,0,0,1,.82,0s-.44,0-.82.11a5.42,5.42,0,0,0-.57.11Z"/><path class="cls-5" d="M14.69,2.49s0,0-.06,0a.05.05,0,0,1,0-.06,4.36,4.36,0,0,1,.61,0,3.59,3.59,0,0,1,.74.09s-.34,0-.69,0A4.33,4.33,0,0,0,14.69,2.49Z"/><path class="cls-5" d="M15.53,1.6a.06.06,0,0,1-.06-.05,0,0,0,0,1,0-.05,5.25,5.25,0,0,1,.65.08,3.5,3.5,0,0,1,.76.2s-.4-.07-.77-.12Z"/><path class="cls-5" d="M16.88,2.49a.05.05,0,1,1,0-.1,4.6,4.6,0,0,1,.6.14,5.62,5.62,0,0,1,.76.28s-.42-.12-.79-.21S16.89,2.49,16.88,2.49Z"/><path class="cls-5" d="M15.44,3.66a.06.06,0,0,1-.07,0,.06.06,0,0,1,0-.07,3.4,3.4,0,0,1,.64-.05,4.41,4.41,0,0,1,.81.11s-.43,0-.81,0A5,5,0,0,0,15.44,3.66Z"/><path class="cls-5" d="M12.48,4.27a0,0,0,0,1-.05,0,.07.07,0,0,1,0-.06s1.35-.27,1.36-.24-1.3.34-1.34.34Z"/><path class="cls-5" d="M11.66,3.84a.05.05,0,0,1-.05,0,.06.06,0,0,1,0-.07s1.17-.39,1.17-.36-1.1.44-1.1.45Z"/><path class="cls-5" d="M9.85,4.35a.05.05,0,0,1,0,0s0,0,0-.06.89-.21.9-.19a9.06,9.06,0,0,1-.88.29Z"/><path class="cls-5" d="M10.78,4.76a0,0,0,0,1,0,0,0,0,0,0,1,0-.06s1.05-.16,1.05-.13-1,.23-1,.23Z"/><path class="cls-5" d="M10.37,5.32a2.51,2.51,0,0,1-.44,0s0,0,0-.06a0,0,0,0,1,.06,0,5.15,5.15,0,0,0,.88,0A2,2,0,0,1,10.37,5.32Z"/><path class="cls-5" d="M9.38,7.1a0,0,0,0,1,0-.07,0,0,0,0,1,.07,0s.18.21.36.39.5.47.5.47a4.31,4.31,0,0,1-.57-.44C9.55,7.28,9.39,7.11,9.38,7.1Z"/><path class="cls-5" d="M11.05,8.65s0-.05,0-.07a0,0,0,0,1,.07,0s.17.14.37.28.67.42.66.43a6.38,6.38,0,0,1-.71-.37A3.08,3.08,0,0,1,11.05,8.65Z"/><path class="cls-5" d="M13.31,9.62a0,0,0,1,1,.06-.08s.22.1.46.18.63.17.63.19a4,4,0,0,1-.66-.12A3.57,3.57,0,0,1,13.31,9.62Z"/><path class="cls-5" d="M15.8,9.87a0,0,0,0,1-.05,0,.05.05,0,0,1,.05-.05l.41-.1c.32-.09.71-.22.72-.21a3.75,3.75,0,0,1-.69.3,2.23,2.23,0,0,1-.44.11Z"/><path class="cls-5" d="M20.07,6.47h0a.05.05,0,0,1,0-.08,2.58,2.58,0,0,0,.26-.7,1.15,1.15,0,0,1-.18.77Z"/><path class="cls-5" d="M17.63,9.1a0,0,0,0,1-.05,0,0,0,0,0,1,0-.06L18,8.84c.27-.12.57-.27.58-.26a3.19,3.19,0,0,1-.53.34c-.21.11-.41.17-.42.18Z"/><path class="cls-5" d="M18.68,8.15l-.05,0s0-.06,0-.07A3,3,0,0,0,19,7.73c.25-.27.53-.63.54-.62a4.68,4.68,0,0,1-.48.67,2.09,2.09,0,0,1-.36.36Z"/><path class="cls-5" d="M15.27,9.3a1.93,1.93,0,0,1-.34,0s0,0,0-.06a0,0,0,0,1,.06,0,4,4,0,0,0,1.22-.07A3.62,3.62,0,0,1,15.27,9.3Z"/><path class="cls-5" d="M12.34,8.58a0,0,0,0,1,.07-.07s.16.12.38.25.6.35.6.37a4.29,4.29,0,0,1-.63-.28A2.24,2.24,0,0,1,12.34,8.58Z"/><path class="cls-5" d="M10.56,7.33a.07.07,0,0,1,0-.07.05.05,0,0,1,.07,0l.34.34a3.09,3.09,0,0,1,.4.38,2.86,2.86,0,0,1-.49-.34A2.35,2.35,0,0,1,10.56,7.33Z"/><path class="cls-5" d="M11.74,7.66a0,0,0,0,1,.07-.07s.19.15.4.28.58.33.58.35a3.69,3.69,0,0,1-.64-.29A2.21,2.21,0,0,1,11.74,7.66Z"/><path class="cls-5" d="M13.56,8.88a.05.05,0,0,1,0-.07.06.06,0,0,1,.07,0,3.3,3.3,0,0,0,.33.14c.22.06.46.12.46.13a1.77,1.77,0,0,1-.5-.06A2.79,2.79,0,0,1,13.56,8.88Z"/><path class="cls-5" d="M13,7.69a.05.05,0,0,1,0-.08s.05,0,.07,0a5,5,0,0,0,.52.19,7.38,7.38,0,0,1,.72.19,4.16,4.16,0,0,1-.78-.1A2.87,2.87,0,0,1,13,7.69Z"/><path class="cls-5" d="M9.91,6.25a.05.05,0,0,1,0-.07.06.06,0,0,1,.08,0s.78.37.78.39A7.13,7.13,0,0,1,9.91,6.25Z"/><path class="cls-5" d="M10.58,5.93a.06.06,0,0,1,0-.06.06.06,0,0,1,.07,0s1.31.29,1.31.32S10.59,5.93,10.58,5.93Z"/><path class="cls-5" d="M11.2,6.82a.05.05,0,0,1,0-.08,0,0,0,0,1,.07,0l.39.21c.28.14.6.29.59.3A3.43,3.43,0,0,1,11.56,7,2.47,2.47,0,0,1,11.2,6.82Z"/><path class="cls-5" d="M12.17,6.77a0,0,0,0,1,0-.07.06.06,0,0,1,.07,0s.29.09.59.16a6,6,0,0,1,.67.17,4,4,0,0,1-1.31-.24Z"/><path class="cls-5" d="M15,7.32a4.26,4.26,0,0,1-1-.12s0,0,0-.06a.07.07,0,0,1,.07,0,5.44,5.44,0,0,0,1.49.13A2.38,2.38,0,0,1,15,7.32Z"/><path class="cls-5" d="M14.08,6.27a6.78,6.78,0,0,1-1.44-.15,0,0,0,0,1,0-.06,0,0,0,0,1,.06,0,9,9,0,0,0,1.81.19A2.46,2.46,0,0,1,14.08,6.27Z"/><path class="cls-5" d="M15.29,6.47a.06.06,0,0,1,0-.06.05.05,0,0,1,0,0s1.52-.2,1.53-.17S15.32,6.47,15.29,6.47Z"/><path class="cls-5" d="M17.3,5.78h0a0,0,0,0,1,0-.1h0s.25,0,.52-.09.77-.19.78-.18a3.35,3.35,0,0,1-.72.27A3.89,3.89,0,0,1,17.3,5.78Z"/><path class="cls-5" d="M19.11,5.19a.05.05,0,0,1-.06,0,.06.06,0,0,1,.05-.06A3.77,3.77,0,0,0,19.49,5c.28-.13.6-.3.61-.29a3.5,3.5,0,0,1-.58.35,2.47,2.47,0,0,1-.41.17Z"/><path class="cls-5" d="M18.07,3.44A.06.06,0,0,1,18,3.38a0,0,0,0,1,.05,0,4.33,4.33,0,0,1,.67.15,4.28,4.28,0,0,1,.8.32s-.42-.15-.82-.26A4.9,4.9,0,0,0,18.07,3.44Z"/><path class="cls-5" d="M17.49,4.51s0,0,0,0a.06.06,0,0,1,0-.07s1.25-.07,1.25,0-1.22.14-1.23.14Z"/><path class="cls-5" d="M15.75,4.77h-.24a.05.05,0,0,1,0,0,.05.05,0,0,1,.06,0s.75,0,1.19,0A3.47,3.47,0,0,1,15.75,4.77Z"/><path class="cls-5" d="M15.51,5.63a0,0,0,0,1,0-.1s1.29-.25,1.3-.22-1.27.32-1.3.32Z"/><path class="cls-5" d="M14.05,5.51a0,0,0,1,1,0-.1,11.69,11.69,0,0,1,1.19-.09s-1.18.19-1.19.19Z"/><path class="cls-5" d="M13.59,4.68a0,0,0,0,1-.05,0s0,0,0,0,1.21-.26,1.22-.23-1.19.33-1.2.33Z"/><path class="cls-5" d="M12.1,5.45h-.24a.06.06,0,1,1,0-.11s1.4-.11,1.4-.09A6,6,0,0,1,12.1,5.45Z"/><path class="cls-5" d="M17,6.83s0,0,0,0a.06.06,0,0,1,0-.06,3.77,3.77,0,0,0,.51-.13l.72-.24a2.87,2.87,0,0,1-.67.32,4.06,4.06,0,0,1-.55.16Z"/><path class="cls-5" d="M19,6.43s0,0,0,0,0-.05,0-.07A5,5,0,0,0,19.35,6c.26-.22.53-.48.54-.47a4.36,4.36,0,0,1-.49.53c-.21.19-.41.35-.43.36Z"/><path class="cls-5" d="M17.93,7.36a0,0,0,0,1-.05,0s0-.05,0-.06,1.12-.54,1.14-.52-1.1.61-1.12.62Z"/><path class="cls-5" d="M16,7.52h0a0,0,0,0,1,0-.1s1-.15,1.06-.13A7.57,7.57,0,0,1,16,7.52Z"/><path class="cls-5" d="M17,8.25a.05.05,0,0,1-.05,0,.06.06,0,0,1,0-.06s.22-.05.47-.13.69-.25.7-.24a4,4,0,0,1-1.15.47Z"/><path class="cls-5" d="M15.68,8.67a0,0,0,0,1,0-.05.06.06,0,0,1,0-.06,1.58,1.58,0,0,0,.33,0c.28,0,.61-.09.61-.08a2.3,2.3,0,0,1-.59.17,1.75,1.75,0,0,1-.35,0Z"/><path class="cls-5" d="M15.18,7.91a1.81,1.81,0,0,1-.44,0s-.05,0,0-.06a.06.06,0,0,1,.07,0,2.66,2.66,0,0,0,1,0A2.81,2.81,0,0,1,15.18,7.91Z"/><path class="cls-5" d="M14.74,8.58a1.64,1.64,0,0,1-.42-.05.06.06,0,0,1,0-.07s0,0,.06,0a3.41,3.41,0,0,0,.92,0A3.08,3.08,0,0,1,14.74,8.58Z"/><path class="cls-5" d="M18.69,2.08s0,0,0-.06a0,0,0,0,1,.06,0,2.13,2.13,0,0,1,.48.34,2.29,2.29,0,0,1,.46.51,5.18,5.18,0,0,0-.5-.45A3,3,0,0,0,18.69,2.08Z"/><path class="cls-5" d="M17.13,1.26s0,0,0-.06a0,0,0,0,1,.06,0,3.2,3.2,0,0,1,.51.25,2.75,2.75,0,0,1,.56.42s-.29-.18-.58-.34A3.82,3.82,0,0,0,17.13,1.26Z"/><path class="cls-5" d="M9.85,3.1h0s0,0,0-.07a4.56,4.56,0,0,1,.42-.33,3.87,3.87,0,0,1,.73-.4s-.35.24-.65.47a4.5,4.5,0,0,0-.41.32A0,0,0,0,1,9.85,3.1Z"/><path class="cls-5" d="M11.07,1.7h0a.06.06,0,0,1,0-.08,2.41,2.41,0,0,1,.35-.28A3.16,3.16,0,0,1,12.06,1s-.34.21-.62.4a1.57,1.57,0,0,0-.33.29Z"/><circle class="cls-6" cx="6.71" cy="5.78" r="1.03"/><path class="cls-7" d="M6,4.39a.07.07,0,0,0-.14,0,.07.07,0,0,0,.14,0Z"/></g></g></svg>