<svg xmlns="http://www.w3.org/2000/svg" xmlns:xlink="http://www.w3.org/1999/xlink" viewBox="0 0 20.67 26.98"><defs><style>.cls-1{mask:url(#mask);filter:url(#luminosity-noclip-3);}.cls-2,.cls-4{mix-blend-mode:multiply;}.cls-2{fill:url(#radial-gradient);}.cls-3{mask:url(#mask-2);filter:url(#luminosity-noclip-4);}.cls-4{fill:url(#radial-gradient-2);}.cls-5{fill:#966d2f;}.cls-6{fill:#835e2d;}.cls-7{fill:#a0763c;}.cls-8{fill:#8eb245;}.cls-9{fill:#84a845;}.cls-10{fill:#dcd4c0;}.cls-11{fill:#979592;}.cls-12{fill:#393734;}.cls-13{mask:url(#mask-3);}.cls-14,.cls-16{opacity:0.5;}.cls-14{fill:url(#radial-gradient-3);}.cls-15{mask:url(#mask-4);}.cls-16{fill:url(#radial-gradient-4);}.cls-17{fill:#f2f3f4;}.cls-18{filter:url(#luminosity-noclip-2);}.cls-19{filter:url(#luminosity-noclip);}</style><filter id="luminosity-noclip" x="14.83" y="-8290.51" width="1.59" height="32766" filterUnits="userSpaceOnUse" color-interpolation-filters="sRGB"><feFlood flood-color="#fff" result="bg"/><feBlend in="SourceGraphic" in2="bg"/></filter><mask id="mask" x="14.83" y="-8290.51" width="1.59" height="32766" maskUnits="userSpaceOnUse"><g class="cls-19"/></mask><radialGradient id="radial-gradient" cx="15.62" cy="9.54" r="0.79" gradientUnits="userSpaceOnUse"><stop offset="0" stop-color="#666"/><stop offset="1" stop-color="#fff"/></radialGradient><filter id="luminosity-noclip-2" x="10.73" y="-8290.51" width="1.55" height="32766" filterUnits="userSpaceOnUse" color-interpolation-filters="sRGB"><feFlood flood-color="#fff" result="bg"/><feBlend in="SourceGraphic" in2="bg"/></filter><mask id="mask-2" x="10.73" y="-8290.51" width="1.55" height="32766" maskUnits="userSpaceOnUse"><g class="cls-18"/></mask><radialGradient id="radial-gradient-2" cx="11.5" cy="9.55" r="0.77" xlink:href="#radial-gradient"/><filter id="luminosity-noclip-3" x="14.83" y="8.76" width="1.59" height="1.55" filterUnits="userSpaceOnUse" color-interpolation-filters="sRGB"><feFlood flood-color="#fff" result="bg"/><feBlend in="SourceGraphic" in2="bg"/></filter><mask id="mask-3" x="14.83" y="8.76" width="1.59" height="1.55" maskUnits="userSpaceOnUse"><g class="cls-1"><path class="cls-2" d="M16.42,9.54a.79.79,0,0,0-.8-.78.78.78,0,1,0,.8.78Z"/></g></mask><radialGradient id="radial-gradient-3" cx="15.62" cy="9.54" r="0.79" gradientUnits="userSpaceOnUse"><stop offset="0" stop-color="#e95b5e"/><stop offset="1" stop-color="#979592"/></radialGradient><filter id="luminosity-noclip-4" x="10.73" y="8.8" width="1.55" height="1.51" filterUnits="userSpaceOnUse" color-interpolation-filters="sRGB"><feFlood flood-color="#fff" result="bg"/><feBlend in="SourceGraphic" in2="bg"/></filter><mask id="mask-4" x="10.73" y="8.8" width="1.55" height="1.51" maskUnits="userSpaceOnUse"><g class="cls-3"><path class="cls-4" d="M12.28,9.55a.77.77,0,0,0-.78-.75.76.76,0,1,0,0,1.51A.77.77,0,0,0,12.28,9.55Z"/></g></mask><radialGradient id="radial-gradient-4" cx="11.5" cy="9.55" r="0.77" xlink:href="#radial-gradient-3"/></defs><g id="Layer_2" data-name="Layer 2"><g id="Layer_2-2" data-name="Layer 2"><path class="cls-5" d="M17,22.61a4.08,4.08,0,0,0-2.25.95l0,0a1.2,1.2,0,0,1,.41-.75c.26-.21-.12,0-.12,0a1.67,1.67,0,0,0-.41.9,3.56,3.56,0,0,0-.61.81L10,4.17a6.4,6.4,0,0,1,.65-.73c.39.59.86.3.86.3s.53-.35,0-.07a.58.58,0,0,1-.79-.29,11,11,0,0,1,1.18-1c.4-.27,0-.12,0-.12a7.55,7.55,0,0,0-1.18.77A.89.89,0,0,1,10.5,2c.33-.63-.06,0-.06,0a.89.89,0,0,0,.15,1.1h0a4.94,4.94,0,0,0-.71.71L9.57,2.27A3.57,3.57,0,0,0,5.38,3.84S6.68,11,7,13c.11.61.41,2.11.78,3.89a8.43,8.43,0,0,1-2.69-2c-.33-.37-.68-1-.94-1.32h0A1.2,1.2,0,0,1,4,12.8c0-.52-.09,0-.09,0a1.9,1.9,0,0,0,0,.55A8.64,8.64,0,0,0,3,13a6.91,6.91,0,0,1-1-.61s-.17,0-.08.08.62.44.79.6.87.16,1.19.57.41.82.89,1.53h0A1.62,1.62,0,0,0,4,15s-.35.13.13.16a1.75,1.75,0,0,1,.84.32H5a9.55,9.55,0,0,0,.65.76c.3.31,1.93,1.57,2.41,1.94.8,3.88,1.75,8.39,1.75,8.39a4.07,4.07,0,0,0,4.45-.65l-.11-.55h0a3.65,3.65,0,0,1,1-1.7,1.87,1.87,0,0,1,1.06.23s.23.13,0-.09a2.16,2.16,0,0,0-1-.22A8,8,0,0,1,17,22.74Z"/><path class="cls-6" d="M11.81,21.81a10.54,10.54,0,0,1-.19,1.12,1.19,1.19,0,0,0,0,.93c.15.48.37.52.5.87s.27.79.27.79a2.6,2.6,0,0,0,.28-1.85c-.12-.84-.42-.68-.53-1.14A1.94,1.94,0,0,0,11.81,21.81Z"/><path class="cls-7" d="M12.34,24.2a5.57,5.57,0,0,1-.22-.65c0-.23-.12-.66-.16-.74s-.2.37-.09.74A1.61,1.61,0,0,0,12.34,24.2Z"/><path class="cls-6" d="M8.27,13.5a12.58,12.58,0,0,1,0,2,1.19,1.19,0,0,0,0,.93c.15.48.37.82.5,1.16s.4,1.28.4,1.28a8.35,8.35,0,0,0,.07-.95,6.9,6.9,0,0,0,.07-1.68c-.12-.84-.42-.67-.53-1.14S8.27,13.5,8.27,13.5Z"/><path class="cls-7" d="M8.58,15.09s.11.71.15.94a5.46,5.46,0,0,0,.39,1.14A6.58,6.58,0,0,0,9,16.06,3,3,0,0,0,8.58,15.09Z"/><path class="cls-6" d="M7.07,6.37a6.52,6.52,0,0,1,0,1.5A1.78,1.78,0,0,0,7.14,9a8,8,0,0,0,.39.88c.14.34.29.74.29.74a3.36,3.36,0,0,0,.07-1.75,9.09,9.09,0,0,0-.36-1.51A4,4,0,0,0,7.07,6.37Z"/><path class="cls-7" d="M7.74,9.58s0-.7-.08-.93a5.18,5.18,0,0,0-.29-1A3.64,3.64,0,0,0,7.4,9,1.22,1.22,0,0,0,7.74,9.58Z"/><path class="cls-8" d="M13.87,1h0c-2-.1-2.56,1.05-2.15,1.48A7.74,7.74,0,0,1,13.87,1Z"/><path class="cls-9" d="M13.87,1a7.74,7.74,0,0,0-2.14,1.47C12.54,3.28,13.79,1.09,13.87,1Z"/><path class="cls-9" d="M11.4,3.72c.22,1,1.86.12,2-.76A3.91,3.91,0,0,1,11.4,3.72Z"/><path class="cls-8" d="M13.4,3h0s-2.21-.31-2,.74v0A3.91,3.91,0,0,0,13.4,3Z"/><path class="cls-10" d="M13.75,19.21c.7-.2,1.26-.38,1.45-.77s-.28-3.42-.66-3.39-1.76,1-2.49.9a1.59,1.59,0,0,1-.33-.13v.43a6.57,6.57,0,0,0,.9,3A3,3,0,0,0,13.75,19.21Z"/><path class="cls-10" d="M13.57,11.81l1.27-.25-.19,0L13,11.81a9.52,9.52,0,0,0-1,2.34h.06C13.27,14.08,13.57,11.81,13.57,11.81Z"/><path class="cls-11" d="M16.21,11.29l-1.37.27-1.27.25s-.3,2.27-1.52,2.34H12a2.29,2.29,0,0,1-1.38-.77.53.53,0,0,1-.12-.44c0-.16.27-.66-.07-.73s-.19.68-.43.64-.25-.9-.66-.64.45.69.16.91-.57-.75-.83-.29.65.41.53.75-.64-.29-.64.21.75,0,1.14.44a11.65,11.65,0,0,0,2,1.59,1.59,1.59,0,0,0,.33.13c.73.12,2.12-.88,2.49-.9s.85,3,.66,3.39-.75.57-1.45.77a3,3,0,0,1-1.13,0,2.07,2.07,0,0,1-1.3-.56c-.28-.39,0-1.06-.49-.9s.25.76,0,.89-.41-.87-.76-.57.5.65.4.85-.65-.51-.82-.06.77.29.75.52-.73-.18-.7.32.79,0,.92.1c.56.6,4.73,2.62,7.7.27C21.44,17.63,16.21,11.29,16.21,11.29Z"/><path class="cls-11" d="M17.05,5.49a1.94,1.94,0,0,1,.35-1.27,1.81,1.81,0,0,0,.11.73s.16-.94.7-1.11a1,1,0,0,0-.12.69,1.25,1.25,0,0,1,.83-.69.78.78,0,0,0-.25.55s.51-.57,1-.4c0,0-.38.18-.46.41a.86.86,0,0,1,1.06.17.85.85,0,0,0-.52,0,1,1,0,0,1,.87.76.67.67,0,0,0-.61-.22.9.9,0,0,1,.55,1s-.13-.31-.28-.28a1.49,1.49,0,0,1-.19,1.18,2.22,2.22,0,0,0-.07-.54,1.39,1.39,0,0,1-.49,1A1,1,0,0,0,19.65,7s-.35.62-.79.72A.93.93,0,0,0,19,7.27a1.43,1.43,0,0,1-.67.53s.15-.28.11-.41A1.38,1.38,0,0,1,18,7.8C17.78,7.89,17.05,5.49,17.05,5.49Z"/><path class="cls-10" d="M18.93,5.72c.35.82-.95,1.32-1.25.66S18.55,4.85,18.93,5.72Z"/><path class="cls-11" d="M10.91,5.26a2,2,0,0,0-.12-1.32,1.84,1.84,0,0,1-.24.71s0-1-.49-1.22a1,1,0,0,1,0,.7,1.26,1.26,0,0,0-.69-.82.78.78,0,0,1,.14.58s-.4-.65-1-.58c0,0,.35.24.38.49a.86.86,0,0,0-1.07,0,.88.88,0,0,1,.51.13,1,1,0,0,0-1,.59A.66.66,0,0,1,8,4.38a.91.91,0,0,0-.73.92s.18-.29.33-.24a1.51,1.51,0,0,0,0,1.2,2.63,2.63,0,0,1,.16-.51,1.4,1.4,0,0,0,.31,1,1,1,0,0,1,0-.49s.23.67.65.85a.94.94,0,0,1-.07-.49,1.42,1.42,0,0,0,.56.64.84.84,0,0,1,0-.42,1.53,1.53,0,0,0,.38.49C9.76,7.49,10.91,5.26,10.91,5.26Z"/><path class="cls-10" d="M9,5.15c-.49.75.69,1.47,1.11.88S9.54,4.36,9,5.15Z"/><path class="cls-11" d="M10.18,10.52a3.67,3.67,0,0,0,3.46,1.69c3.07-.09,3.8-1.88,3.8-1.88a.36.36,0,0,0,.17.11,1.07,1.07,0,0,1,.06-.53s.18.1.18.1a1.48,1.48,0,0,1,0-.55s.14.08.14.08a1,1,0,0,1,0-.36c.06.13.14.08.14.08a2,2,0,0,1,0-.36c.45-4.32-3.14-4.68-3.14-4.68a1,1,0,0,1,.2-.58,1.27,1.27,0,0,0-.65.31,1.61,1.61,0,0,1,.11-.65,1.85,1.85,0,0,0-.44.57,2.77,2.77,0,0,1-.21-.79,3.55,3.55,0,0,1-.29.82,1.09,1.09,0,0,1-.38-.55.93.93,0,0,0-.08.66,1.75,1.75,0,0,1-.61-.28.69.69,0,0,0,.23.48,4.07,4.07,0,0,0-2.54,1.48A4.22,4.22,0,0,0,9.52,9.2a1.78,1.78,0,0,1-.11.55.44.44,0,0,0,.24-.12,1.82,1.82,0,0,1,0,.68s.19-.06.23-.19a1.61,1.61,0,0,1,.13.7A.55.55,0,0,0,10.18,10.52Z"/><path class="cls-12" d="M14.7,10.29a0,0,0,0,0,0,0c-.17.24-.34.37-.52.37h0c-.27,0-.48-.31-.52-.36V10c1.6,0,.27-2.74,0-2.72S12,9.92,13.53,10v.3c-.17.25-.34.37-.52.37s-.52-.37-.52-.37,0,0-.06,0a.06.06,0,0,0,0,.06s.25.4.59.4h0a.69.69,0,0,0,.54-.36.78.78,0,0,0,.56.36h0a.72.72,0,0,0,.58-.4A0,0,0,0,0,14.7,10.29Z"/><circle class="cls-12" cx="12.02" cy="7.57" r="0.3"/><path class="cls-12" d="M15.31,7.5a.3.3,0,1,0-.59,0,.3.3,0,1,0,.59,0Z"/><g class="cls-13"><path class="cls-14" d="M16.42,9.54a.79.79,0,0,0-.8-.78.78.78,0,1,0,.8.78Z"/></g><g class="cls-15"><path class="cls-16" d="M12.28,9.55a.77.77,0,0,0-.78-.75.76.76,0,1,0,0,1.51A.77.77,0,0,0,12.28,9.55Z"/></g><path class="cls-9" d="M11.44,0a2.07,2.07,0,0,0-.57.7,5.23,5.23,0,0,1-.43,1.36c.21,0,.91-.26.84-1.23A2.58,2.58,0,0,1,11.44,0Z"/><path class="cls-8" d="M11.44,0h0s-1.08.23-1.29,1c-.16.65.11,1,.26,1h0A5.23,5.23,0,0,0,10.87.71,2.07,2.07,0,0,1,11.44,0Z"/><path class="cls-9" d="M17.1,24.19a1.76,1.76,0,0,1-1-.35c-.07.18-.21.73.74.86.73.1.85-.15,1.33-.23h0A5.55,5.55,0,0,0,17.1,24.19Z"/><path class="cls-8" d="M18.2,24.47a2.47,2.47,0,0,0-1-.84c-.55-.15-.87-.1-1.07.16l0,.05a1.76,1.76,0,0,0,1,.35A5.55,5.55,0,0,1,18.2,24.47Z"/><path class="cls-9" d="M15,22.87c1.08.43,1.35-1.55,1.37-1.66C16,21.47,14.93,22.34,15,22.87Z"/><path class="cls-8" d="M16.34,21.21h0a2.12,2.12,0,0,0-1.55.84.51.51,0,0,0,.17.82h0C14.93,22.34,16,21.47,16.34,21.21Z"/><path class="cls-9" d="M18.08,22.42l-1.2.28c.1.34.72.57,1.57.32a3.67,3.67,0,0,0,1.43-.83A15.53,15.53,0,0,0,18.08,22.42Z"/><path class="cls-8" d="M19.88,22.19h0c-2.09-1.17-3.07.25-3,.49v0l1.2-.28A15.53,15.53,0,0,1,19.88,22.19Z"/><path class="cls-9" d="M1.41,15.13c1,0,.84.36,1.62.43,1.21.12,1.23-.31,1.25-.43v0A5.75,5.75,0,0,0,3,14.8,5,5,0,0,0,1.41,15.13Z"/><path class="cls-8" d="M3.17,14.23a2.24,2.24,0,0,0-1.77.9h0A5,5,0,0,1,3,14.8a5.75,5.75,0,0,1,1.28.3C4.29,14.85,4.13,14.34,3.17,14.23Z"/><path class="cls-9" d="M1.13,11.64C.74,11.16.19,10.31,0,10.07H0a2.55,2.55,0,0,0,.28,1.67c.64,1.12,1.52,1,1.69.76H2A4.71,4.71,0,0,1,1.13,11.64Z"/><path class="cls-8" d="M1.48,11A4.21,4.21,0,0,0,0,10.07c.15.24.7,1.09,1.09,1.57a4.71,4.71,0,0,0,.89.85C2.17,12.26,1.93,11.52,1.48,11Z"/><path class="cls-9" d="M4.09,9.89a3.09,3.09,0,0,0-.74,1.53c-.05.87.28,1.38.64,1.38H4a13.37,13.37,0,0,0,.12-1.42C4.13,11,4.11,10.3,4.09,9.89Z"/><path class="cls-8" d="M4.76,11.55a2.1,2.1,0,0,0-.67-1.66h0c0,.41,0,1.12,0,1.49A13.37,13.37,0,0,1,4,12.8C4.56,12.8,4.79,12.29,4.76,11.55Z"/><path class="cls-17" d="M15.22,7.4a.1.1,0,0,0-.1-.1.1.1,0,1,0,0,.2A.1.1,0,0,0,15.22,7.4Z"/><path class="cls-17" d="M12.24,7.47a.09.09,0,0,0-.1-.1.1.1,0,1,0,0,.2A.09.09,0,0,0,12.24,7.47Z"/></g></g></svg>