<svg xmlns="http://www.w3.org/2000/svg" viewBox="0 0 16.51 18.98"><defs><style>.cls-1{fill:#6d6e68;}.cls-2{fill:#23356b;}.cls-3{fill:#135160;}.cls-4{fill:#96998d;}.cls-5{fill:#3097b6;}.cls-6{fill:#79d1ec;}.cls-7{fill:#a3a896;}.cls-8{fill:#997b5d;}.cls-9{fill:#eaece1;}.cls-10{fill:#20211f;}</style></defs><g id="Layer_2" data-name="Layer 2"><g id="Layer_2-2" data-name="Layer 2"><path class="cls-1" d="M9.57,14.5l.08,0a.13.13,0,0,0,0-.19,2.32,2.32,0,0,0-1.62-1,.13.13,0,0,0-.14.12.14.14,0,0,0,.12.15,2.08,2.08,0,0,1,1.41.88A.14.14,0,0,0,9.57,14.5Z"/><path class="cls-1" d="M10.25,14.08a.14.14,0,0,0,.09,0,.13.13,0,0,0,0-.19,2.1,2.1,0,0,0-1.11-.61.13.13,0,0,0-.14.12.13.13,0,0,0,.12.15,1.78,1.78,0,0,1,.93.52A.13.13,0,0,0,10.25,14.08Z"/><path class="cls-1" d="M11.46,13.58l.09,0a.13.13,0,0,0,0-.19,1.5,1.5,0,0,0-1.25-.59.13.13,0,0,0-.12.15.14.14,0,0,0,.16.11,1.25,1.25,0,0,1,1,.5A.19.19,0,0,0,11.46,13.58Z"/><path class="cls-1" d="M11.27,13.93l0,0a.12.12,0,0,0,.06-.17,1.89,1.89,0,0,0-1.6-1,.13.13,0,0,0,0,.26,1.65,1.65,0,0,1,1.38.83A.16.16,0,0,0,11.27,13.93Z"/><path class="cls-1" d="M10.82,14h.07a.13.13,0,0,0,0-.19,1.94,1.94,0,0,0-1.2-.83.13.13,0,0,0-.06.26,1.63,1.63,0,0,1,1,.71A.13.13,0,0,0,10.82,14Z"/><path class="cls-1" d="M10,14.46h0a.15.15,0,0,0,.08-.18,2.1,2.1,0,0,0-1.77-1,.14.14,0,1,0,0,.27,1.8,1.8,0,0,1,1.55.88A.14.14,0,0,0,10,14.46Z"/><path class="cls-2" d="M4.38,14.48s-.54.35-.62-.3c0,0-.56.25-.49-.35,0,0-.58.19-.43-.53h0a5.64,5.64,0,0,0,.39-.81,5.15,5.15,0,0,0,.22-.88c0,.89.74.73.74.73,0,.74.91.39.91.39.25.75,1.53.33,3.21-1h0C8,12,6.26,13.48,6,13.71H6a3.5,3.5,0,0,0-.87.79h0S4.56,14.93,4.38,14.48Z"/><path class="cls-2" d="M0,17.81a10,10,0,0,1,.8-1.32l0,0c-.17.68.46.44.46.44-.11.81.59.44.59.44.07.57.49.41.76.19a7.8,7.8,0,0,1-1.14,1.27C.82,19.27-.18,18.45,0,17.81Z"/><path class="cls-3" d="M1.86,17.41s-.7.37-.59-.44c0,0-.63.24-.46-.44l0,0c.31-.49.69-1.06,1-1.62v0c-.08.78.6.4.6.4-.14.84.66.48.66.48,0,.38.17.65.7.28h0L2.62,17.6C2.35,17.82,1.93,18,1.86,17.41Z"/><path class="cls-1" d="M1.88,14.89v0c.25-.39.5-.79.71-1.15l.25-.42h0c-.15.72.43.53.43.53-.07.6.49.35.49.35.08.65.62.3.62.3.18.45.72,0,.72,0h0c-.12.15-.26.3-.39.47-.28.33-.57.7-.87,1.08h0c-.53.37-.74.1-.7-.28,0,0-.8.36-.66-.48C2.48,15.29,1.8,15.67,1.88,14.89Z"/><path class="cls-4" d="M10,2.27c-.84-.09-2.4.78-2.78.83a1.75,1.75,0,0,1-1-.38A3.29,3.29,0,0,1,9.53,0c2.62,0,3.41,1.19,3.59,2.38a2.7,2.7,0,0,1,0,.49C11.91,3,10.81,2.35,10,2.27Z"/><path class="cls-5" d="M3.57,10.83a5.9,5.9,0,0,0,1.15,0,1.17,1.17,0,0,0,.38.33c.13,0,.3.57,1.13.32s.72.1,1.35-.17l.11,0c.74-.36.44.08,1.28-.23a2.92,2.92,0,0,0,.47-.23c-.39.36-.77.69-1.13,1-1.68,1.33-3,1.75-3.21,1,0,0-.93.35-.91-.39,0,0-.72.16-.74-.73Q3.51,11.25,3.57,10.83Z"/><path class="cls-6" d="M5.79,10.57A5.05,5.05,0,0,0,8.27,8.89C9.94,6.81,10.17,5.72,10,5.25c.7-.19,1-.46,1.14-.27a6.22,6.22,0,0,1-1.62,5.71l-.07.07A2.92,2.92,0,0,1,9,11c-.84.31-.54-.13-1.28.23l-.11,0c-.63.27-.56-.06-1.35.17s-1-.29-1.13-.32a1.17,1.17,0,0,1-.38-.33A5.83,5.83,0,0,0,5.79,10.57Z"/><path class="cls-7" d="M6.31,2.72a1.75,1.75,0,0,0,1,.38c.38-.05,1.94-.92,2.78-.83s1.87.72,3.12.6A6.38,6.38,0,0,1,12.76,5a3.81,3.81,0,0,1,1,3.07A6.77,6.77,0,0,1,10,13.16a11.92,11.92,0,0,1-4,.53l-.06,0H6c.29-.23,2-1.69,2.34-2h0c.36-.28.74-.61,1.13-1l.07-.07A6.22,6.22,0,0,0,11.13,5c-.11-.19-.44.08-1.14.27a4.58,4.58,0,0,1-1.56.11l-.21,0a3.77,3.77,0,0,1-2-.79h0c0-.26,0-.5,0-.73A5.29,5.29,0,0,1,6.31,2.72Z"/><path class="cls-1" d="M3.72,9.91a20.64,20.64,0,0,1,.56-2.16c.84-2.68,1.86-3.16,2-3.2a3.77,3.77,0,0,0,2,.79l.21,0A4.58,4.58,0,0,0,10,5.25c.18.47-.05,1.56-1.72,3.64a5.05,5.05,0,0,1-2.48,1.68,5.83,5.83,0,0,1-1.07.22,5.9,5.9,0,0,1-1.15,0C3.61,10.56,3.65,10.26,3.72,9.91Z"/><path class="cls-8" d="M13.12,3.54c.2,0,3.76-.56,3.36-.71a17.21,17.21,0,0,0-4.2,0A2.26,2.26,0,0,0,13.12,3.54Z"/><path class="cls-9" d="M11.21,2.1a.39.39,0,0,1,.41-.38.38.38,0,0,1,.37.4.39.39,0,0,1-.4.38A.4.4,0,0,1,11.21,2.1Z"/><path class="cls-10" d="M11.46,2.1a.2.2,0,1,1,.4,0,.2.2,0,0,1-.4,0Z"/><path class="cls-1" d="M12.28,2.83c0,.18,4.66.24,4.2,0A15.11,15.11,0,0,0,13,2.06C12.84,2.16,12.26,2.63,12.28,2.83Z"/></g></g></svg>