<svg xmlns="http://www.w3.org/2000/svg" viewBox="0 0 19.28 15.18"><defs><style>.cls-1{fill:#434342;}.cls-2{fill:#929296;}.cls-3{fill:#404040;}.cls-4{fill:#cbced8;}.cls-5{fill:#98989f;}.cls-6{fill:#585857;}.cls-7{fill:#b69330;}.cls-8{fill:#212123;}</style></defs><g id="Layer_2" data-name="Layer 2"><g id="Layer_2-2" data-name="Layer 2"><path class="cls-1" d="M17.43,12.84a1.44,1.44,0,0,0,.67.58c.37.15.69.18.57.41s-.63-.28-.79-.12.64.29.35.56-.44-.42-.66-.32.59.49.21.56-.37-.49-.55-.49,0,.45-.27.41-.07-.17-.13-.51a7.41,7.41,0,0,0-.21-.75S17.11,12.57,17.43,12.84Z"/><path class="cls-2" d="M16.42,8.87a7.62,7.62,0,0,0,1.26,4.28,1,1,0,0,1-.35-.2,1.3,1.3,0,0,1,.07.34,1.83,1.83,0,0,1-.33-.23,1.38,1.38,0,0,1,0,.39,1.9,1.9,0,0,1-.3-.3,1.16,1.16,0,0,1,0,.38s-.32-.08-.9-2A5.42,5.42,0,0,1,15.56,9Z"/><path class="cls-3" d="M16.82,13.36a1.37,1.37,0,0,0,.59.65c.36.2.67.27.53.48s-.6-.35-.77-.2.6.57.27.73-.35-.62-.58-.55.28.67-.11.69-.09-.63-.27-.64,0,.67-.34.6,0-.41-.05-.75A5.27,5.27,0,0,0,16,13.6S16.52,13.06,16.82,13.36Z"/><path class="cls-4" d="M5.27,9.83a7.22,7.22,0,0,1-1.12-.14,5.76,5.76,0,0,1,.11-.82,3.18,3.18,0,0,1,1.14.34A4.9,4.9,0,0,0,5.27,9.83Z"/><path class="cls-4" d="M5.54,8.71a2.3,2.3,0,0,0-1.12-.54c.06-.22.13-.45.2-.67A5.9,5.9,0,0,1,5.79,8Z"/><path class="cls-4" d="M6.36,3.6a3.21,3.21,0,0,1,.2.84,3.63,3.63,0,0,0-1.35.2,2.44,2.44,0,0,0-.14-.53L5,4A4.2,4.2,0,0,1,6.3,3.46Z"/><path class="cls-4" d="M6.54,5.31A6.26,6.26,0,0,1,6.4,6a3.33,3.33,0,0,0-1.26-.31,4.28,4.28,0,0,0,.07-.48A3.29,3.29,0,0,1,6.54,5.31Z"/><path class="cls-4" d="M5.75,2.65a3.23,3.23,0,0,0-1.07.94,2.56,2.56,0,0,0-.44-.34A4.71,4.71,0,0,1,4.77,1.9,3.6,3.6,0,0,1,5.75,2.65Z"/><path class="cls-4" d="M2.86,1.49a3.63,3.63,0,0,1,1,.08A4.39,4.39,0,0,0,3.64,3a2,2,0,0,0-.54-.08A8,8,0,0,1,2.86,1.49Z"/><path class="cls-4" d="M7.11,13l.38.15a2.5,2.5,0,0,1-.33,1,4.06,4.06,0,0,1-.69-.29A1.4,1.4,0,0,0,7.11,13Z"/><path class="cls-4" d="M8,13.26l.52,0a2.09,2.09,0,0,1,.07,1,4.51,4.51,0,0,1-.8-.06A1.3,1.3,0,0,0,8,13.26Z"/><path class="cls-4" d="M5.47,11.32l.12.23c0,.09.11.17.16.25a2.42,2.42,0,0,1-.9.5,1.64,1.64,0,0,1-.14-.22,2.92,2.92,0,0,1-.22-.43A1.6,1.6,0,0,0,5.47,11.32Z"/><path class="cls-4" d="M6.15,12.3a3.51,3.51,0,0,0,.41.37,2.39,2.39,0,0,1-.72.75,5.05,5.05,0,0,1-.58-.56A1.75,1.75,0,0,0,6.15,12.3Z"/><path class="cls-4" d="M5.25,10.43c0,.13,0,.26,0,.39a2.73,2.73,0,0,1-1,.19,4.21,4.21,0,0,1-.11-.6A3.61,3.61,0,0,0,5.25,10.43Z"/><path class="cls-4" d="M6,7.38a4.76,4.76,0,0,0-1.19-.46c.06-.2.13-.4.18-.59a4.49,4.49,0,0,1,1.21.41C6.14,7,6.07,7.17,6,7.38Z"/><path class="cls-4" d="M.22,5.66A2.77,2.77,0,0,1,0,4.74a2.44,2.44,0,0,0,1.32,0,1.86,1.86,0,0,0,.14.49A2.64,2.64,0,0,1,.22,5.66Z"/><path class="cls-4" d="M1.12,2.21a3.07,3.07,0,0,1,.81-.49A5.38,5.38,0,0,0,2.52,3a1.87,1.87,0,0,0-.47.23A3.46,3.46,0,0,1,1.12,2.21Z"/><path class="cls-4" d="M.14,3.67A3.06,3.06,0,0,1,.47,3a3.82,3.82,0,0,0,1.12.75,1.59,1.59,0,0,0-.13.22,1,1,0,0,0-.09.21A3.78,3.78,0,0,1,.13,3.7Z"/><path class="cls-1" d="M1.69,5.87a.66.66,0,0,1-.88.55,1.5,1.5,0,0,1-.59-.76A2.64,2.64,0,0,0,1.47,5.2,2.45,2.45,0,0,1,1.69,5.87Z"/><path class="cls-1" d="M0,4.74a2.76,2.76,0,0,1,.12-1,3.78,3.78,0,0,0,1.24.44,1.25,1.25,0,0,0,0,.57A2.44,2.44,0,0,1,0,4.74Z"/><path class="cls-1" d="M.47,3a2.7,2.7,0,0,1,.65-.75,3.46,3.46,0,0,0,.93,1,1.82,1.82,0,0,0-.46.5A3.82,3.82,0,0,1,.47,3Z"/><path class="cls-1" d="M1.94,1.71a3.34,3.34,0,0,1,.92-.22A8,8,0,0,0,3.1,2.88a1.24,1.24,0,0,0-.33,0A1.83,1.83,0,0,0,2.52,3a5.38,5.38,0,0,1-.59-1.26Z"/><path class="cls-1" d="M4.77,1.9a4.71,4.71,0,0,0-.53,1.35A2.56,2.56,0,0,0,3.64,3,4.39,4.39,0,0,1,3.9,1.57,3.54,3.54,0,0,1,4.77,1.9Z"/><path class="cls-1" d="M5.75,2.65a3.22,3.22,0,0,1,.55.81A4.2,4.2,0,0,0,5,4a2.13,2.13,0,0,0-.36-.45A3.23,3.23,0,0,1,5.75,2.65Z"/><path class="cls-1" d="M6.56,4.44a4.22,4.22,0,0,1,0,.87,3.29,3.29,0,0,0-1.33-.06,3.11,3.11,0,0,0,0-.61A3.63,3.63,0,0,1,6.56,4.44Z"/><path class="cls-1" d="M6.2,6.74A4.49,4.49,0,0,0,5,6.33q.09-.3.15-.6A3.33,3.33,0,0,1,6.4,6C6.34,6.27,6.28,6.5,6.2,6.74Z"/><path class="cls-1" d="M6,7.39,5.79,8A5.9,5.9,0,0,0,4.62,7.5L4.77,7l0-.12A4.76,4.76,0,0,1,6,7.38Z"/><path class="cls-1" d="M5.54,8.71c0,.17-.1.34-.14.5a3.18,3.18,0,0,0-1.14-.34c0-.23.1-.47.16-.7A2.3,2.3,0,0,1,5.54,8.71Z"/><path class="cls-1" d="M5.25,10.43a3.61,3.61,0,0,1-1.09,0,5.77,5.77,0,0,1,0-.72,7.22,7.22,0,0,0,1.12.14A4,4,0,0,0,5.25,10.43Z"/><path class="cls-1" d="M5.3,10.82a3,3,0,0,0,.17.5,1.6,1.6,0,0,1-1,.33A3,3,0,0,1,4.27,11,2.73,2.73,0,0,0,5.3,10.82Z"/><path class="cls-1" d="M6.15,12.3a1.75,1.75,0,0,1-.89.56,5.07,5.07,0,0,1-.41-.56,2.42,2.42,0,0,0,.9-.5A5.15,5.15,0,0,0,6.15,12.3Z"/><path class="cls-1" d="M6.56,12.67a2.43,2.43,0,0,0,.55.33,1.4,1.4,0,0,1-.64.84,5.75,5.75,0,0,1-.63-.42A2.39,2.39,0,0,0,6.56,12.67Z"/><path class="cls-1" d="M8,13.26a1.3,1.3,0,0,1-.21,1,4.34,4.34,0,0,1-.6-.14,2.5,2.5,0,0,0,.33-1A3.26,3.26,0,0,0,8,13.26Z"/><path class="cls-1" d="M8.49,13.29a2.88,2.88,0,0,0,.79-.12.53.53,0,0,1,.66.32.53.53,0,0,1-.32.66,4,4,0,0,1-.71.15l-.35,0A2.09,2.09,0,0,0,8.49,13.29Z"/><path class="cls-1" d="M12.15,14.6c1.18-.48,3.36-.75,3.31.1,0,.54-1.62.47-2.1.48s-2.18-.12-2.18-.12S11.9,14.7,12.15,14.6Z"/><path class="cls-5" d="M16,13.74a15.85,15.85,0,0,0-1.08-2.26,3.19,3.19,0,0,1-.55,2.31c-.65,1.17-2.8,1.4-3.63,1.22a3.48,3.48,0,0,1-2.36-3.38c-.12-2.17,2.14-3.19,3.56-4a6.23,6.23,0,0,0,2.17-2.7,6.54,6.54,0,0,0,1.52.7,28.28,28.28,0,0,0,.14,4.56A10.82,10.82,0,0,0,17,13.64a.68.68,0,0,1-.36-.17.69.69,0,0,1,.06.36,1.07,1.07,0,0,1-.29-.26,1.16,1.16,0,0,1,0,.39,1.18,1.18,0,0,1-.22-.26.43.43,0,0,1-.09.32S16,13.79,16,13.74Z"/><path class="cls-4" d="M16.54,5.43a4.08,4.08,0,0,1,.95,2.47s-.3-.28-.35-.31l.05,0a1.38,1.38,0,0,1,0,1s-.12,0-.25-.25a1.44,1.44,0,0,1-.06,1.06,2.31,2.31,0,0,1-.23-.4,1.67,1.67,0,0,1-.19.79,1.15,1.15,0,0,1-.24-.37,2.79,2.79,0,0,1-.38.68,2.35,2.35,0,0,1-.2-.49.74.74,0,0,1-.24.27,2.27,2.27,0,0,1,0-.54l-.18.08a7.82,7.82,0,0,0,.1-.79l-.15.16,0,0c-.07.07.28-.81.32-1.29l-.13.14a2.62,2.62,0,0,0,.18-.83.23.23,0,0,1-.14.07,2.57,2.57,0,0,0,.14-1.38A1.13,1.13,0,0,0,16.54,5.43Z"/><path class="cls-4" d="M11.5.77c.2-.16,1.29.68,1.7.71l-.47,1.24a2.84,2.84,0,0,1-.86-.61C11.55,1.73,11.29.93,11.5.77Z"/><path class="cls-1" d="M11.86,1.25c.14-.1.87.51,1.14.53l-.27.71a1.93,1.93,0,0,1-.56-.4C12,1.84,11.73,1.36,11.86,1.25Z"/><path class="cls-4" d="M19.14,0c-.23-.12-1.12.93-1.52,1l.72,1.12a2.67,2.67,0,0,0,.71-.77C19.29,1,19.38.12,19.14,0Z"/><path class="cls-1" d="M18.88.56c-.15-.08-.74.68-1,.75l.41.63a1.86,1.86,0,0,0,.47-.5C18.91,1.16,19,.63,18.88.56Z"/><path class="cls-4" d="M15.39.12a2.71,2.71,0,0,0-2.62,2.15C12.19,4.2,15,5.83,15.83,5.82s3.45-1.64,2.65-3.66A2.78,2.78,0,0,0,15.39.12Z"/><path class="cls-1" d="M17.19,1.74c-.3-.09-1.2,1.25-1,1.53s1.57.18,1.63-.1S17.7,1.89,17.19,1.74Z"/><path class="cls-1" d="M15.86,3.83c.14,0,.69-.23.91.1s-.46,1.23-.92,1.29-1.22-.87-1-1.17S15.86,3.83,15.86,3.83Z"/><path class="cls-1" d="M15.65,1.91c-.39,0-.57-.33-.92-.45s-.88.07-1.13-.19S14,.22,15.39.12s2.35.47,2.06.82-.53.14-1,.38C16.22,1.43,16,1.89,15.65,1.91Z"/><path class="cls-6" d="M15.52,3.87c0-.13.12-.23.31-.25s.35,0,.37.17a.3.3,0,0,1-.31.33C15.7,4.14,15.54,4.06,15.52,3.87Z"/><path class="cls-7" d="M16.74,2.84A.32.32,0,0,1,17,2.48a.32.32,0,0,1,.35.28.32.32,0,0,1-.28.36A.32.32,0,0,1,16.74,2.84Z"/><path class="cls-8" d="M16.92,2.88A.12.12,0,0,1,17,2.74a.13.13,0,0,1,.15.11.13.13,0,0,1-.12.15A.13.13,0,0,1,16.92,2.88Z"/><path class="cls-1" d="M14.24,1.84c.3-.1,1.26,1.2,1,1.48s-1.55.26-1.62,0S13.74,2,14.24,1.84Z"/><path class="cls-7" d="M14.74,2.92a.32.32,0,1,0-.34.29A.32.32,0,0,0,14.74,2.92Z"/><path class="cls-8" d="M14.56,3a.13.13,0,0,0-.26,0,.13.13,0,0,0,.26,0Z"/></g></g></svg>