<svg xmlns="http://www.w3.org/2000/svg" xmlns:xlink="http://www.w3.org/1999/xlink" viewBox="0 0 15.24 22.67"><defs><style>.cls-1{fill:#fcb017;}.cls-2{fill:#b76128;}.cls-3{fill:#efa120;}.cls-4{fill:#010101;}.cls-5,.cls-6{opacity:0.7;}.cls-5{fill:url(#radial-gradient);}.cls-6{fill:url(#radial-gradient-2);}.cls-7{fill:#ea9f22;}.cls-8{fill:#eef1f4;}</style><radialGradient id="radial-gradient" cx="-7.83" cy="10.83" r="0.65" gradientTransform="translate(19.33 -3.11) scale(1.3 1.17)" gradientUnits="userSpaceOnUse"><stop offset="0" stop-color="#f26858"/><stop offset="1" stop-color="#f3ae26"/></radialGradient><radialGradient id="radial-gradient-2" cx="-10.99" cy="10.72" r="0.61" xlink:href="#radial-gradient"/></defs><g id="Layer_2" data-name="Layer 2"><g id="Layer_2-2" data-name="Layer 2"><path class="cls-1" d="M14.66,21.11l-.17,0a.06.06,0,0,1,0-.05h.06a3.17,3.17,0,0,1-.47-.76.88.88,0,0,0-.63-.48,1.38,1.38,0,0,0-1,.26c.64-2-1.34-5.07-2.2-6.43L9,11.58l-3.08.31S5.22,13.69,5,14.3a10.9,10.9,0,0,0-.35,4.55c0,.47-.06,2.57-.06,2.57h1s0-2.67.78-2.67.73,2.57.73,2.57l1.17-.06a11.7,11.7,0,0,1,0-2.51c.14,0,.36,0,.38.12.08.27-.15.64.25.92s.84,0,1,.14c.62.56-.32.65-.14.8.83.68-.17.83,1.51.39.36-.1,1-.38,1.1-.7A1.73,1.73,0,0,1,13.47,20a.72.72,0,0,1,.5.4c.4.73.51.84.58.84h0A.11.11,0,0,0,14.66,21.11Z"/><path class="cls-2" d="M15.15,22.67s.49-2.43-.78-1.75S15.15,22.67,15.15,22.67Z"/><path class="cls-3" d="M6.87,21.58a3.31,3.31,0,0,0,1.47,0c.25-.19,0-1-.74-1S6.62,21.38,6.87,21.58Z"/><path class="cls-3" d="M4.4,21.58a3.31,3.31,0,0,0,1.47,0c.25-.19,0-1-.73-1S4.16,21.38,4.4,21.58Z"/><path class="cls-2" d="M3.38,1.54c.2-.15,0-.83.14-.92s.7.66.9.55,0-.85.22-.9S5,1,5.21.94s.2-.78.43-.84.51.64.7.65S6.73.06,7,0s.23.69.48.7S7.87,0,8.09,0s.17.72.42.79S9.05.23,9.3.27s.1.75.32.76.66-.51.86-.39,0,.84.2.93.78-.55,1-.37-.29.73-.1.83.78-.38,1-.19-.28.68-.09.83.75-.32.9-.11-.35.82-.16,1,.87-.33,1-.11-.52.66-.45.84.82-.1.86.12-.59.52-.49.76.73.14.77.39-.71.44-.63.67.85.32.84.55-.77.33-.74.55.7.26.74.46-.71.35-.7.56.68.55.59.74-.68.08-.75.22.6.64.49.86-.72.08-.76.28.56.54.47.74-.89.13-1,.38.4.6.28.77-.87-.05-1,.17.38.75.2.89-.8-.42-1-.24.2.8,0,.93-.69-.31-.85-.16,0,.78-.17.86-.6-.5-.8-.4-.07.84-.33.83-.43-.73-.7-.71-.41.94-.7.9-.3-.76-.52-.77-.55.86-.79.76-.27-.78-.45-.77-.41.71-.65.69-.22-.64-.41-.66-.4.47-.57.41-.2-.71-.41-.73-.59.4-.75.29.14-.73-.13-.89-.81.3-1,.08.17-.79,0-1-.71.42-.94.12.32-.76.15-1-.86,0-.94-.22.51-.72.37-.92-.88,0-.9-.21.59-.52.54-.74S.15,9.73.17,9.4.85,9,.82,8.72-.07,8.48,0,8.21s.68-.37.66-.55S0,7.44,0,7.25s.61-.52.6-.72S0,6.29,0,6.07s.72-.32.69-.53S.15,5.09.2,4.88s.7,0,.75-.26S.54,4.09.62,4s.66,0,.75-.19-.5-.61-.3-.79.76.13.86,0-.4-.83-.21-1,.78.44.92.24-.28-.79,0-.95S3.14,1.7,3.38,1.54Z"/><path class="cls-1" d="M10,4.71c.49-.12,1-1,.73-1.23s-1,.38-1.11.81a3.1,3.1,0,0,0-1.68-.51A3.7,3.7,0,0,0,6,4.07c0-.5-.5-1.16-.82-1s-.09,1.09.27,1.35A3,3,0,0,0,4.25,6.68c0,1-1.62,4.76,2.62,5.06,1.6.12,4,.07,3.8-3.71A7.11,7.11,0,0,0,10,4.71Z"/><path class="cls-4" d="M8.42,5.86a.26.26,0,0,0-.22-.28c-.11,0-.21.13-.21.28s.1.29.21.29A.26.26,0,0,0,8.42,5.86Z"/><path class="cls-4" d="M6.5,5.82a.23.23,0,1,1,.45,0,.26.26,0,0,1-.23.29A.26.26,0,0,1,6.5,5.82Z"/><path class="cls-4" d="M6.87,9.77h0c.1,0,.2-.13.22-.35A.36.36,0,0,1,7.4,9c.21,0,.26.16.62.09s.25-.45,0-.58a3.34,3.34,0,0,0-2-.08c-.57.24-.21.61-.17.63a.72.72,0,0,0,.48,0c.11,0,.45-.16.35.34,0,.21,0,.32.1.36h0l-.1.93a1,1,0,0,1-1.36-.39,0,0,0,0,0-.06,0,0,0,0,0,0,0,.05,1.07,1.07,0,0,0,.94.54,1.63,1.63,0,0,0,.53-.1,2.27,2.27,0,0,0,.71.14.91.91,0,0,0,.81-.4s0,0,0,0-.05,0-.06,0c-.38.58-1.24.29-1.4.23l.1-.93Z"/><path class="cls-5" d="M10,9.52a.84.84,0,0,0-1.68,0,.85.85,0,0,0,1.68,0Z"/><path class="cls-6" d="M5.81,9.4A.76.76,0,0,0,5,8.68a.72.72,0,1,0,0,1.43A.76.76,0,0,0,5.81,9.4Z"/><path class="cls-7" d="M10,20.57a.38.38,0,0,0,.18-.36.55.55,0,0,0-.34-.38H9.67a1,1,0,0,1-.84-.12A.85.85,0,0,1,8.7,19a.93.93,0,0,1,.43-.69,1.46,1.46,0,0,1,1.08,0,0,0,0,1,0,0-.07,1.44,1.44,0,0,0-1.15,0,1,1,0,0,0-.47.75.88.88,0,0,0,.15.79,1.07,1.07,0,0,0,.91.16l.12,0a.5.5,0,0,1,.27.31.37.37,0,0,1-.17.31.88.88,0,0,0-.47-.08c-.73.08-.89.91-.62,1.08a3.11,3.11,0,0,0,1.46-.16C10.43,21.22,10.31,20.79,10,20.57Z"/><circle class="cls-8" cx="6.78" cy="5.77" r="0.05"/><circle class="cls-8" cx="8.26" cy="5.81" r="0.05"/></g></g></svg>