<svg xmlns="http://www.w3.org/2000/svg" viewBox="0 0 19.62 19.42"><defs><style>.cls-1{fill:#10404c;}.cls-2{fill:#8fa7b6;}.cls-3{fill:#8f312f;}.cls-4{fill:#144a5b;}.cls-5{fill:#d4d2d1;}.cls-6{fill:#1c1d1e;}</style></defs><g id="Layer_2" data-name="Layer 2"><g id="Layer_2-2" data-name="Layer 2"><path class="cls-1" d="M12.16,10a4.59,4.59,0,0,0,3.4-1.34,5.08,5.08,0,0,0,1.13-3.31c.06-.58,2.19,2.22,2.34,4.78a8.5,8.5,0,0,1-.39,3.17A13.42,13.42,0,0,1,16.7,12,12.26,12.26,0,0,0,12.16,10Z"/><path class="cls-2" d="M14,17.08c-.32-.76-1.46-1.23-1-2.12s1.44-.5,1.86-.69.24-.53.72-.75a3,3,0,0,1,2.87.33c1.11.81,1,1.75.74,2.13a.24.24,0,0,1-.4-.08c-.17-.39.18-.85-.55-1.09a3.45,3.45,0,0,1-1.68,2.29,8,8,0,0,1-2.46.83A1.62,1.62,0,0,0,14,17.08Z"/><path class="cls-2" d="M9.05,19.35c1.61-.27,2.07-2.6,2.83-2.59.5,0,.8.92,1.08,1.57a7.58,7.58,0,0,1-4.36,1h0A1.35,1.35,0,0,0,9.05,19.35Z"/><path class="cls-3" d="M17.17,14.47s-.31,3-4.24,2.2C12.93,16.67,16.16,16.81,17.17,14.47Z"/><path class="cls-4" d="M5.14,5.77c-.5-1.48-.8-3.53-2.53-4.83C1.83.35.45.59.48.16A2.64,2.64,0,0,1,3.06.6C4.85,1.88,5.34,4,5.8,5.44A10,10,0,0,0,8,8.62c.57.68,1.34.67,3.88,1.32l.25.07a12.26,12.26,0,0,1,4.54,2,13.42,13.42,0,0,0,1.94,1.31,2.3,2.3,0,0,1,.61.6A1.49,1.49,0,0,1,19.14,16h0c.27-.38.37-1.32-.74-2.13a3,3,0,0,0-2.87-.33c-.48.22-.31.56-.72.75s-1.4-.21-1.86.69.68,1.36,1,2.12a1.62,1.62,0,0,1,.1.85C14,18.51,13.71,19,13.4,19c-.16,0-.3-.3-.44-.65-.28-.65-.58-1.55-1.08-1.57-.76,0-1.22,2.32-2.83,2.59a1.35,1.35,0,0,1-.45,0C6.91,19.2,4.19,17,3,16.55a3.78,3.78,0,0,0-2.93.27c-.41.16.42-1.35,1.23-2.07s1.81-.81,4.06-1.44a2.78,2.78,0,0,0,2.22-3.08C7.57,9.58,5.63,7.24,5.14,5.77Z"/><path class="cls-5" d="M11.32,14.52a.31.31,0,0,1,.61,0,.31.31,0,1,1-.61,0Z"/><path class="cls-6" d="M11.44,14.58a.2.2,0,0,1,.21-.18.19.19,0,0,1,.18.21.19.19,0,0,1-.21.18A.19.19,0,0,1,11.44,14.58Z"/><path class="cls-1" d="M11,14.27h0a.73.73,0,0,1,.57-.35h0a.78.78,0,0,1,.53.36s0,0,0,0,0,0,0,0a.85.85,0,0,0-.57-.38h0a.77.77,0,0,0-.63.37s0,0,0,0Z"/></g></g></svg>