<svg xmlns="http://www.w3.org/2000/svg" viewBox="0 0 17.48 20.52"><defs><style>.cls-1{fill:#e7a46e;}.cls-2{fill:#754b2b;}.cls-3{fill:#1e1d1d;}.cls-4{fill:#f0f2f4;}</style></defs><g id="Layer_2" data-name="Layer 2"><g id="Layer_2-2" data-name="Layer 2"><path class="cls-1" d="M0,7c-.15.35.7.32,1,.94,0,0,.14.28.19.35a2.36,2.36,0,0,0,.38-.19,2.67,2.67,0,0,1,.32-.24,1.62,1.62,0,0,1-.1-.18.55.55,0,0,1,.08-.45c.1-.12.48-.49.16-.61s-.21.42-.44.32.18-.79-.11-.83,0,.65-.29.65S1.08,6,.73,6.12s.29.61.13.73S.42,6.19.22,6.46s.56.49.44.68S.13,6.7,0,7Z"/><path class="cls-1" d="M17.46,7.16c.15.35-.71.3-1,.92,0,0-.14.28-.19.35a3.29,3.29,0,0,1-.4-.21c-.11-.07-.16-.17-.29-.23l.1-.18a.54.54,0,0,0-.08-.46c-.09-.12-.47-.5-.14-.61.18-.06.21.43.43.33s-.16-.79.13-.83,0,.65.28.66.12-.73.46-.6-.29.61-.13.73.45-.65.64-.38-.57.48-.45.68S17.36,6.89,17.46,7.16Z"/><path class="cls-2" d="M15.62,7.92A4.28,4.28,0,0,1,13,9.86a2.31,2.31,0,0,1-2.47-1.11.19.19,0,0,0-.24,0H7.21a.2.2,0,0,0-.31-.08A2.29,2.29,0,0,1,4.42,9.74a4.27,4.27,0,0,1-2.57-2,1.38,1.38,0,0,1-.69.45s1,2.19,2.85,2.56a3.7,3.7,0,0,0,2.11-.11,6.66,6.66,0,0,0-.62,3.16,3.32,3.32,0,0,0,.29.95,2.71,2.71,0,0,0-1.91.32c-.62.57-.36,2.41-.41,3.19s.5.94.77.64.29-2.74.56-3a6.65,6.65,0,0,1,2.34,0,5.07,5.07,0,0,0,1.13.17,3.88,3.88,0,0,0,1.22-.15,5.8,5.8,0,0,1,2.15,0c.27.27.35,2.71.62,3s.83.12.76-.66.16-2.62-.48-3.18A2.38,2.38,0,0,0,11,14.75a3,3,0,0,0,.36-1.19,8.92,8.92,0,0,0-.3-2.93,3.58,3.58,0,0,0,2.36.27c1.88-.34,2.9-2.51,2.9-2.51A1.34,1.34,0,0,1,15.62,7.92Z"/><path class="cls-1" d="M8,8.75a7.59,7.59,0,0,0-1.38,4.56A1.75,1.75,0,0,0,8.42,15a2,2,0,0,0,1.94-1.85,8.88,8.88,0,0,0-.92-4.39Z"/><path class="cls-1" d="M12.34,18.5c.51-.52,2.38.77,2.19,1.11-.07.14-.25,0-.25,0s.19.23.1.33-.36,0-.36,0,.15.23.06.33-.35,0-.35,0,.16.11,0,.23S11.83,19,12.34,18.5Z"/><path class="cls-1" d="M4.16,18.52C3.63,18,1.8,19.34,2,19.68c.07.14.25,0,.25,0s-.19.24-.09.33.36,0,.36,0-.15.23,0,.33.34,0,.34,0-.15.11,0,.22S4.68,19,4.16,18.52Z"/><path class="cls-2" d="M14.43,1.69a1.06,1.06,0,0,1-1.3,1.52l-.6-1.43S13.54.39,14.43,1.69Z"/><path class="cls-1" d="M13.92,2a.58.58,0,0,1-.71.83l-.33-.78S13.39,1.25,13.92,2Z"/><path class="cls-2" d="M3.46,1.79A1.06,1.06,0,0,0,4.67,3.38L5.36,2S4.42.53,3.46,1.79Z"/><path class="cls-1" d="M4,2.12A.58.58,0,0,0,4.62,3L5,2.23S4.52,1.4,4,2.12Z"/><path class="cls-2" d="M9,0c1.29,0,4.75.23,4.45,5.63-.21,3.7-4,3.5-4.62,3.48C8,9.09,4,9.28,4.25,4.83S7.59,0,9,0Z"/><path class="cls-1" d="M9,9.39c.52,0,4.34-.23,4.34-2.77,0-1.39-1-1.49-1-1.49s.44-3.62-1.43-3.83A2,2,0,0,0,9,2.2a2.07,2.07,0,0,0-1.86-.91c-2,.26-1.57,3.94-1.57,3.94a1.75,1.75,0,0,0-.94,2.39C5.23,8.84,7.4,9.31,9,9.39Z"/><path class="cls-3" d="M8.92,4.89c.21,0,.39-.09.51,0a.34.34,0,0,1,.07.37c-.1.14-.32.27-.34.17s.07-.22-.05-.22.05.43-.26.39.08-.42-.16-.41,0,.24-.15.27a.32.32,0,0,1-.34-.14.3.3,0,0,1,.2-.48C8.6,4.79,8.67,4.88,8.92,4.89Z"/><path class="cls-3" d="M7.93,3.7a.32.32,0,0,0-.33-.32A.32.32,0,1,0,7.6,4,.32.32,0,0,0,7.93,3.7Z"/><path class="cls-3" d="M10.65,3.7a.32.32,0,0,0-.32-.32.32.32,0,1,0,0,.64A.32.32,0,0,0,10.65,3.7Z"/><path class="cls-3" d="M8.71,8A4.3,4.3,0,0,1,5.82,6.34s0-.07,0-.09.06,0,.09,0,1.33,1.68,2.91,1.6a5.15,5.15,0,0,0,3-1.6.06.06,0,0,1,.09,0,.06.06,0,0,1,0,.09A5.31,5.31,0,0,1,8.84,8Z"/><path class="cls-4" d="M7.79,3.61a.09.09,0,0,0-.09-.1.09.09,0,0,0-.1.1.09.09,0,0,0,.1.09A.09.09,0,0,0,7.79,3.61Z"/><path class="cls-4" d="M10.51,3.61a.09.09,0,1,0-.09.09A.09.09,0,0,0,10.51,3.61Z"/></g></g></svg>