<svg xmlns="http://www.w3.org/2000/svg" xmlns:xlink="http://www.w3.org/1999/xlink" viewBox="0 0 24.6 21.28"><defs><style>.cls-1{fill:none;}.cls-2{fill:#3f372c;}.cls-3{fill:#8f4520;}.cls-4{fill:#a35525;}.cls-5{fill:#010101;}.cls-6{opacity:0.7;}.cls-7{clip-path:url(#clip-path);}.cls-8{fill:#a35425;}.cls-9{fill:#a35325;}.cls-10{fill:#a35224;}.cls-11{fill:#a45124;}.cls-12{fill:#a44f24;}.cls-13{fill:#a44e24;}.cls-14{fill:#a44d24;}.cls-15{fill:#a44c24;}.cls-16{fill:#a44b24;}.cls-17{fill:#a54a24;}.cls-18{fill:#a54924;}.cls-19{fill:#a54824;}.cls-20{fill:#a54724;}.cls-21{fill:#a54524;}.cls-22{fill:#a64524;}.cls-23{fill:#a64324;}.cls-24{fill:#a64224;}.cls-25{fill:#a64223;}.cls-26{fill:#a64123;}.cls-27{fill:#a63f23;}.cls-28{fill:#a53e23;}.cls-29{fill:#a73c23;}.cls-30{fill:#a73b23;}.cls-31{fill:#a73a23;}.cls-32{fill:#a73923;}.cls-33{fill:#a63823;}.cls-34{fill:#a63723;}.cls-35{fill:#a63623;}.cls-36{fill:#a83623;}.cls-37{fill:#a83523;}.cls-38{fill:#a83423;}.cls-39{fill:#a83223;}.cls-40{fill:#a73223;}.cls-41{fill:#a73123;}.cls-42{fill:#a73023;}.cls-43{fill:#a92f23;}.cls-44{fill:#a92e23;}.cls-45{fill:#a92d23;}.cls-46{fill:#a92c23;}.cls-47{fill:#a82b23;}.cls-48{fill:#a82a23;}.cls-49{fill:#a82923;}.cls-50{fill:#aa2923;}.cls-51{fill:#aa2823;}.cls-52{fill:#a92723;}.cls-53{fill:#a92623;}</style><clipPath id="clip-path"><path class="cls-1" d="M19.68,9.25A1,1,0,0,1,21,8.85a.94.94,0,0,1,.51,1.24,1,1,0,0,1-1.3.39A.93.93,0,0,1,19.68,9.25Z"/></clipPath></defs><g id="Layer_2" data-name="Layer 2"><g id="Layer_2-2" data-name="Layer 2"><path class="cls-2" d="M15.15,5.72c-1.47-.21-2.56-.13-4.24-3.59,0,0-1-2.16.26-2.13s.54,1.05.43,1.4-.11,1.16.4,1.28.63-.43.36-1.09.24-1.13.62-1,.92.35.2,1.52.12,1.3.12,1.3.56.26.49-1.06.58-1.14.86-1,.76.57-.1,1.22S14,3.84,14.21,3.91s.5.28.69-.49.55-.85.86-.66.09.77-.55,1.23-.12,1,.42,1.1a6.38,6.38,0,0,0,1.3.14l1.8-.3.85-.25s.84-.22.2-.86-.33-.95-.18-1,.58-.21.63.69.62.54.62.54.67-.3-.1-.92-.23-1-.12-1.09.74-.24.68.94.68.64.68.64a.77.77,0,0,0,0-1c-.33-.54-.74-1-.13-1.23s.68.41.53,1.05.41.6.59.52c.36-.16.85-.66.14-1.53-.45-.56-.21-.91,0-1,.05,0,2-.57.6,2.88,0,0-.75,2-4,2.09S16.3,5.88,15.15,5.72Z"/><path class="cls-3" d="M17.79,5a2.75,2.75,0,0,1,1.47-1.4,1.85,1.85,0,0,1,0,1.44C19,5.26,17.66,5.3,17.79,5Z"/><path class="cls-2" d="M13.86,19.92a4.58,4.58,0,0,0,.75.62c.05,0-.07.19-1,.39,0,0-.13-.26-.4-.67A1.2,1.2,0,0,0,13.86,19.92Z"/><path class="cls-4" d="M.85,19.53a8.62,8.62,0,0,0,2.22-4.22l-.14-.18a4,4,0,0,1-.29-3.72.54.54,0,0,1-.26-.06s-.46-.4.08-1A1,1,0,0,1,3.52,10a4,4,0,0,1,.53-.48C5.61,8.3,11.2,9,11.85,9.24c.29.12,1-.53,1.79-1.3.47-.52.6-.69.8-.91.49-.51,2.06-1.93,2.06-1.93.42-.32.52-.7,3.2-.08a9.56,9.56,0,0,1,4.46,2.62S25.38,9,23.77,11c-1.3,1.6-3.39.59-4.13-.11s-2.82-3.07-2.82-3.07-1.05,1.24-1.38,1.67-1,1.49-1,1.49a6.93,6.93,0,0,1-2.6,4.76,8.51,8.51,0,0,0,2,4.14s0,0,.06.06a1.15,1.15,0,0,1-.66.35l0,0A12.81,12.81,0,0,1,11.31,16l-.31.14-.23.1a7.67,7.67,0,0,0,1.46,3.95l.16.2a1.94,1.94,0,0,1-.75.16l0,0a10.82,10.82,0,0,1-1.42-4.09,8.5,8.5,0,0,1-5.57-.09,11.17,11.17,0,0,1-1.65,4s0,0,0,0a1.17,1.17,0,0,1-.74-.2L2.4,20a7.77,7.77,0,0,0,1.67-3.86,4.45,4.45,0,0,1-.51-.33,12.62,12.62,0,0,1-2.11,4.16l0,0a3.21,3.21,0,0,1-.33-.12.74.74,0,0,1-.3-.28Z"/><path class="cls-2" d="M12.39,20.43A5.09,5.09,0,0,0,13,21s-.09.17-1.06.27a4.31,4.31,0,0,0-.25-.69A1.94,1.94,0,0,0,12.39,20.43Z"/><path class="cls-2" d="M0,20.17a5.29,5.29,0,0,0,.79-.6.66.66,0,0,0,.29.26l.34.14a7.57,7.57,0,0,0-.42.64C.07,20.35,0,20.2,0,20.17Z"/><path class="cls-2" d="M1.64,20.71a5.59,5.59,0,0,0,.63-.59,1.08,1.08,0,0,0,.72.22,3,3,0,0,0-.3.69C1.72,20.89,1.59,20.75,1.64,20.71Z"/><path class="cls-3" d="M16.78,5.42a.54.54,0,0,1,0,.45,2.28,2.28,0,0,1-1.27.43,2.25,2.25,0,0,1-1.28-.21,1.48,1.48,0,0,1,2.56-.67Z"/><path class="cls-5" d="M17.71,5.78c0-.14.09-.25.18-.24s.17.11.17.25S18,6,17.88,6,17.71,5.92,17.71,5.78Z"/><path class="cls-5" d="M18.48,5.55c0-.14.09-.25.18-.25a.23.23,0,0,1,.17.26c0,.14-.08.25-.18.25S18.48,5.69,18.48,5.55Z"/><path class="cls-5" d="M23.17,9.24h0a0,0,0,0,0,0,0h0A.28.28,0,0,1,23,9c0-.06,0-.1.08-.14s.09,0,.12,0,.1.16.1.21l0,0s0,0,0,0,0-.19-.12-.24a.19.19,0,0,0-.18,0C23,8.91,23,9,23,9a.28.28,0,0,0,.16.21Z"/><path class="cls-5" d="M23.82,8.79h0s0,0,0,0l0,0a.2.2,0,0,1,0-.18c0-.06,0-.09.13-.1s.1,0,.12,0,0,.19,0,.23a0,0,0,0,0,0,0,0,0,0,0,0,0,0s.07-.18,0-.28a.2.2,0,0,0-.16-.06c-.11,0-.16.06-.17.11a.25.25,0,0,0,.05.25S23.81,8.79,23.82,8.79Z"/><g class="cls-6"><g class="cls-7"><polygon class="cls-4" points="21.74 8.65 19.5 8.6 19.44 10.68 21.69 10.74 21.74 8.65"/><path class="cls-4" d="M19.69,9.25a.9.9,0,0,0,.53,1.18,1,1,0,0,0,1.27-.34A.91.91,0,0,0,21,8.9,1,1,0,0,0,19.69,9.25Z"/><path class="cls-8" d="M19.71,9.26a.9.9,0,0,0,.52,1.16,1,1,0,0,0,1.25-.34A.9.9,0,0,0,21,8.92.92.92,0,0,0,19.71,9.26Z"/><path class="cls-9" d="M19.72,9.26a.89.89,0,0,0,.51,1.14.93.93,0,0,0,1.23-.33A.89.89,0,0,0,21,8.93.93.93,0,0,0,19.72,9.26Z"/><path class="cls-10" d="M19.74,9.27a.85.85,0,0,0,.5,1.11.89.89,0,0,0,1.2-.32A.86.86,0,0,0,20.94,9,.9.9,0,0,0,19.74,9.27Z"/><path class="cls-11" d="M19.76,9.28a.84.84,0,0,0,.49,1.09.87.87,0,0,0,1.17-.32A.84.84,0,0,0,20.93,9,.87.87,0,0,0,19.76,9.28Z"/><path class="cls-12" d="M19.78,9.29a.81.81,0,0,0,.48,1.06A.84.84,0,0,0,21.4,10,.81.81,0,0,0,20.93,9,.86.86,0,0,0,19.78,9.29Z"/><path class="cls-12" d="M19.8,9.3a.8.8,0,0,0,.46,1,.85.85,0,0,0,1.13-.3.81.81,0,0,0-.47-1A.84.84,0,0,0,19.8,9.3Z"/><path class="cls-13" d="M19.81,9.31a.78.78,0,0,0,.46,1,.82.82,0,0,0,1.1-.29.79.79,0,0,0-.46-1A.82.82,0,0,0,19.81,9.31Z"/><path class="cls-14" d="M19.83,9.32a.77.77,0,0,0,.45,1A.81.81,0,0,0,21.35,10a.76.76,0,0,0-.45-1A.79.79,0,0,0,19.83,9.32Z"/><path class="cls-15" d="M19.85,9.32a.75.75,0,0,0,.44,1,.77.77,0,0,0,1-.28.75.75,0,0,0-.43-1A.79.79,0,0,0,19.85,9.32Z"/><path class="cls-16" d="M19.87,9.33a.74.74,0,0,0,.42.95.76.76,0,0,0,1-.28.71.71,0,0,0-.42-.94A.75.75,0,0,0,19.87,9.33Z"/><path class="cls-17" d="M19.89,9.34a.7.7,0,0,0,.41.92.75.75,0,0,0,1-.27.71.71,0,0,0-.42-.92A.74.74,0,0,0,19.89,9.34Z"/><path class="cls-18" d="M19.91,9.35a.69.69,0,0,0,.4.9.73.73,0,0,0,1-.26.7.7,0,0,0-.41-.9A.71.71,0,0,0,19.91,9.35Z"/><path class="cls-19" d="M19.92,9.36a.67.67,0,0,0,.4.87.7.7,0,0,0,.94-.25.68.68,0,0,0-.39-.88A.71.71,0,0,0,19.92,9.36Z"/><path class="cls-20" d="M19.94,9.37a.65.65,0,0,0,.38.85.7.7,0,0,0,.92-.25.65.65,0,0,0-.38-.85A.68.68,0,0,0,19.94,9.37Z"/><path class="cls-20" d="M20,9.37a.64.64,0,0,0,.37.83.66.66,0,0,0,.89-.24.63.63,0,0,0-.37-.83A.67.67,0,0,0,20,9.37Z"/><path class="cls-21" d="M20,9.38a.62.62,0,0,0,.36.81A.64.64,0,0,0,21.2,10a.61.61,0,0,0-.36-.8A.64.64,0,0,0,20,9.38Z"/><path class="cls-22" d="M20,9.39a.59.59,0,0,0,.35.78.63.63,0,0,0,.84-.23.61.61,0,0,0-.35-.78A.63.63,0,0,0,20,9.39Z"/><path class="cls-23" d="M20,9.4a.59.59,0,0,0,.34.76.62.62,0,0,0,.82-.23.58.58,0,0,0-.34-.75A.61.61,0,0,0,20,9.4Z"/><path class="cls-24" d="M20,9.41a.56.56,0,0,0,.33.73.59.59,0,0,0,.79-.21.57.57,0,0,0-.33-.74A.6.6,0,0,0,20,9.41Z"/><path class="cls-25" d="M20.05,9.42a.54.54,0,0,0,.32.7.56.56,0,0,0,.76-.2.54.54,0,0,0-.32-.71A.56.56,0,0,0,20.05,9.42Z"/><path class="cls-26" d="M20.07,9.42a.53.53,0,0,0,.31.69.55.55,0,0,0,.73-.2.53.53,0,0,0-.3-.69A.56.56,0,0,0,20.07,9.42Z"/><path class="cls-27" d="M20.09,9.43a.5.5,0,0,0,.29.66.54.54,0,0,0,.72-.19.51.51,0,0,0-.3-.66A.53.53,0,0,0,20.09,9.43Z"/><path class="cls-27" d="M20.1,9.44a.5.5,0,0,0,.29.64.52.52,0,0,0,.69-.19.5.5,0,0,0-.29-.64A.52.52,0,0,0,20.1,9.44Z"/><path class="cls-28" d="M20.12,9.45a.47.47,0,0,0,.28.61.49.49,0,0,0,.66-.18.47.47,0,0,0-.28-.61A.5.5,0,0,0,20.12,9.45Z"/><path class="cls-29" d="M20.14,9.46a.46.46,0,0,0,.27.59A.47.47,0,0,0,21,9.88a.47.47,0,0,0-.26-.6A.49.49,0,0,0,20.14,9.46Z"/><path class="cls-30" d="M20.16,9.47a.43.43,0,0,0,.25.56A.45.45,0,0,0,21,9.87a.44.44,0,0,0-.25-.57A.45.45,0,0,0,20.16,9.47Z"/><path class="cls-31" d="M20.18,9.47a.42.42,0,0,0,.24.55A.45.45,0,0,0,21,9.86a.42.42,0,0,0-.25-.54A.43.43,0,0,0,20.18,9.47Z"/><path class="cls-32" d="M20.19,9.48a.4.4,0,0,0,.24.52A.41.41,0,0,0,21,9.85a.4.4,0,0,0-.24-.52A.43.43,0,0,0,20.19,9.48Z"/><path class="cls-33" d="M20.21,9.49a.39.39,0,0,0,.23.5A.4.4,0,0,0,21,9.84a.37.37,0,0,0-.22-.49A.4.4,0,0,0,20.21,9.49Z"/><path class="cls-34" d="M20.23,9.5a.36.36,0,0,0,.21.47A.38.38,0,0,0,21,9.83a.36.36,0,0,0-.21-.47A.38.38,0,0,0,20.23,9.5Z"/><path class="cls-35" d="M20.25,9.51a.34.34,0,0,0,.2.45.36.36,0,0,0,.48-.13.34.34,0,0,0-.2-.45A.36.36,0,0,0,20.25,9.51Z"/><path class="cls-36" d="M20.27,9.52a.32.32,0,0,0,.19.42.35.35,0,0,0,.46-.12.34.34,0,0,0-.2-.43A.33.33,0,0,0,20.27,9.52Z"/><path class="cls-37" d="M20.28,9.52a.32.32,0,0,0,.18.41.33.33,0,0,0,.44-.12.31.31,0,0,0-.18-.4A.33.33,0,0,0,20.28,9.52Z"/><path class="cls-38" d="M20.3,9.53a.29.29,0,0,0,.17.38.3.3,0,0,0,.41-.11.29.29,0,0,0-.17-.38A.32.32,0,0,0,20.3,9.53Z"/><path class="cls-39" d="M20.32,9.54a.3.3,0,0,0,.54.25.27.27,0,0,0-.16-.35A.28.28,0,0,0,20.32,9.54Z"/><path class="cls-40" d="M20.34,9.55a.28.28,0,0,0,.5.23.26.26,0,0,0-.14-.33A.27.27,0,0,0,20.34,9.55Z"/><path class="cls-41" d="M20.36,9.56a.23.23,0,0,0,.13.31.26.26,0,0,0,.34-.09.26.26,0,0,0-.47-.22Z"/><path class="cls-42" d="M20.37,9.57a.23.23,0,0,0,.13.28.21.21,0,1,0,.18-.37A.24.24,0,0,0,20.37,9.57Z"/><path class="cls-43" d="M20.39,9.57a.23.23,0,0,0,.4.19.21.21,0,0,0-.12-.26A.21.21,0,0,0,20.39,9.57Z"/><path class="cls-44" d="M20.41,9.58a.19.19,0,0,0,.11.24.17.17,0,1,0,.15-.31A.21.21,0,0,0,20.41,9.58Z"/><path class="cls-45" d="M20.43,9.59a.15.15,0,0,0,.09.21.16.16,0,0,0,.23-.06.16.16,0,0,0-.09-.21A.18.18,0,0,0,20.43,9.59Z"/><path class="cls-46" d="M20.45,9.6a.14.14,0,0,0,.08.19.16.16,0,0,0,.21-.06.16.16,0,0,0-.09-.19A.15.15,0,0,0,20.45,9.6Z"/><path class="cls-47" d="M20.46,9.61a.13.13,0,0,0,.08.16.13.13,0,0,0,.18,0,.13.13,0,0,0-.08-.17A.14.14,0,0,0,20.46,9.61Z"/><path class="cls-48" d="M20.48,9.62a.12.12,0,0,0,.07.14.11.11,0,0,0,.15,0,.11.11,0,0,0-.06-.14A.12.12,0,0,0,20.48,9.62Z"/><path class="cls-49" d="M20.5,9.62a.09.09,0,0,0,.05.12.09.09,0,0,0,.13,0,.09.09,0,0,0-.05-.12A.1.1,0,0,0,20.5,9.62Z"/><path class="cls-50" d="M20.52,9.63a.07.07,0,0,0,0,.1.07.07,0,0,0,.1,0,.06.06,0,0,0,0-.09A.08.08,0,0,0,20.52,9.63Z"/><path class="cls-51" d="M20.54,9.64a0,0,0,0,0,0,.07.05.05,0,0,0,.08,0s0-.06,0-.07A.06.06,0,0,0,20.54,9.64Z"/><path class="cls-52" d="M20.56,9.65a0,0,0,0,0,.07,0s0,0,0,0S20.56,9.63,20.56,9.65Z"/><path class="cls-53" d="M20.57,9.66s0,0,0,0h0a0,0,0,0,0,0,0Z"/></g></g></g></g></svg>