<svg xmlns="http://www.w3.org/2000/svg" viewBox="0 0 35.29 11.28"><defs><style>.cls-1{fill:#445661;}.cls-2{fill:#92a3b0;}.cls-3{fill:#f0f2f4;}.cls-4{fill:#1e2021;}.cls-5{fill:#5c3338;}.cls-6{fill:#c3b6aa;}.cls-7{fill:#3b4a51;}</style></defs><g id="Layer_2" data-name="Layer 2"><g id="Layer_2-2" data-name="Layer 2"><path class="cls-1" d="M34.85,6.61c-.24-.4-.09-1-.7-1.64a2.86,2.86,0,0,0-2-.6,4.79,4.79,0,0,0,.59-1.65c.08-.76-.14-1.21-.08-1.6s0-1.2-.1-1.11C30.3,1.5,30.79,3.58,30.67,4.13s-1.12,1.17-2.33,1.3S22.88,4,19,3.4,8.87,2.72,8.66,6.71A2.9,2.9,0,0,0,8.85,8c.06-.49.47-1,1.27-1.29A10.21,10.21,0,0,1,17,7a38.74,38.74,0,0,0,7.4,1c2.17.08,3.63-.55,3.77-.11,0,0,0,.12-.1.21C29,7.4,30.15,6.35,31,5.85a1.56,1.56,0,0,1,1.72.35C33.93,7.52,35,7.48,35.21,7.36S35.09,7,34.85,6.61Z"/><path class="cls-2" d="M28.18,7.88c-.14-.44-1.6.19-3.77.11A38.74,38.74,0,0,1,17,7a10.21,10.21,0,0,0-6.89-.28C9.32,7,8.91,7.49,8.85,8c1,2.66,5.84,3.26,9.48,3.29A18.05,18.05,0,0,0,27.48,8.5a5.86,5.86,0,0,0,.6-.41C28.16,8,28.19,7.93,28.18,7.88Z"/><path class="cls-3" d="M11.49,5.25a.34.34,0,1,0-.34.34A.34.34,0,0,0,11.49,5.25Z"/><path class="cls-4" d="M11.32,5.28a.18.18,0,0,0-.17-.17.18.18,0,0,0-.18.17.18.18,0,0,0,.18.18A.18.18,0,0,0,11.32,5.28Z"/><path class="cls-5" d="M9.49,8.13a1.85,1.85,0,0,0,2.07-.92A1.87,1.87,0,0,1,11,8.29C10.41,8.64,9.49,8.13,9.49,8.13Z"/><path class="cls-6" d="M9.11,6.5c-.16,0-.16-.09-.32-.14s-.18,0-.34,0-.13-.12-.29-.17-.18,0-.34,0S7.69,6,7.53,6s-.18,0-.34,0-.14-.12-.29-.17-.18,0-.34,0-.14-.12-.29-.17-.19,0-.34,0-.14-.12-.3-.17-.18,0-.33,0S5.16,5.2,5,5.15s-.18,0-.34,0S4.53,5,4.37,4.94s-.18,0-.34,0-.13-.12-.29-.17-.18,0-.34,0-.13-.12-.29-.17-.18,0-.34,0-.13-.12-.29-.17-.18,0-.34,0S2,4.19,1.85,4.13s-.18,0-.34,0S1.38,4,1.22,3.93,1,4,.88,3.9.75,3.78.59,3.73s-.2,0-.34-.07A.88.88,0,0,1,0,3.47c-.1-.12.07-.15.24-.14s.15.08.31.12.18,0,.34,0,.15.12.31.16.17,0,.34,0,.14.11.3.15.18,0,.34,0,.14.12.3.16.18,0,.34,0,.14.11.3.15.18,0,.34,0,.14.12.3.16.18,0,.34,0,.15.11.31.15.17,0,.33,0,.15.12.31.16.18,0,.34,0,.14.11.3.15.18,0,.34,0,.14.11.3.15.18,0,.34,0,.14.11.3.15.18,0,.34,0,.14.12.3.16.18,0,.34,0,.14.11.3.15.18,0,.34,0,.14.11.3.15.18,0,.34,0a.45.45,0,0,1,.39.55A.4.4,0,0,1,9.11,6.5Z"/><path class="cls-2" d="M13.09,5.46c-.09.12.24.29.31.13S13.15,5.38,13.09,5.46Z"/><path class="cls-2" d="M13.24,4.86c0,.1.37.07.35,0S13.24,4.76,13.24,4.86Z"/><path class="cls-1" d="M13.6,7.15c0,.15.62.37.77.2s-.11-.26-.19-.28-.17-.22-.32-.24A.25.25,0,0,0,13.6,7.15Z"/><path class="cls-1" d="M14.6,8.53c0,.13.65.09.64-.12S14.56,8.13,14.6,8.53Z"/><path class="cls-1" d="M12.71,7.48s.31.14.29,0S12.71,7.33,12.71,7.48Z"/><path class="cls-2" d="M15.25,5.47c0,.16.13.16.27.16s.2,0,.17-.17S15.23,5.22,15.25,5.47Z"/><path class="cls-2" d="M17.45,5.92c0,.24-.68.17-.6-.06S17.47,5.65,17.45,5.92Z"/><path class="cls-2" d="M15.12,5.81l0,0-.06,0-.15,0-.13-.06c-.09,0-.22,0-.28,0s0,.35.22.32a.45.45,0,0,1,.23,0c.09,0,.12.11.21,0A.14.14,0,0,0,15.12,5.81Z"/><path class="cls-1" d="M14.89,7.66c.15-.12-.16-.3-.25-.21s-.06.14,0,.16S14.84,7.7,14.89,7.66Z"/><path class="cls-1" d="M15,6.81c.1-.09.08-.22,0-.25s-.41,0-.33.16A.27.27,0,0,0,15,6.81Z"/><path class="cls-1" d="M17,7.72c-.19-.08-.46.13-.22.28a.24.24,0,0,0,.29,0C17.18,7.86,17.14,7.77,17,7.72Z"/><path class="cls-1" d="M16,8.07A1.29,1.29,0,0,1,15.74,8c-.05,0-.14-.06-.2,0s0,.1,0,.15.17.14.27.19.4.24.61.11.2-.16.12-.27-.19-.07-.27-.08A1.41,1.41,0,0,1,16,8.07Z"/><path class="cls-1" d="M16.48,8.88c0-.13-.24-.1-.34-.1s-.26.07-.17.2.25.07.32.08S16.51,9,16.48,8.88Z"/><path class="cls-2" d="M19,5.74c-.11,0-.5,0-.41.19s.11.08.17.1a.64.64,0,0,0,.41,0C19.42,5.9,19.15,5.78,19,5.74Z"/><path class="cls-2" d="M20.65,6.26c.08,0,.25.11.32,0C21.16,5.91,20.06,6.06,20.65,6.26Z"/><path class="cls-2" d="M20,6.45c-.08-.13-.65-.21-.53.07.05.1.21.09.31.09S20.06,6.59,20,6.45Z"/><path class="cls-2" d="M21.65,7.06c.2,0,.24-.15.06-.25s-.56,0-.41.16S21.55,7.05,21.65,7.06Z"/><path class="cls-2" d="M21.75,6.4c.08.11.33,0,.2-.15S21.69,6.32,21.75,6.4Z"/><path class="cls-2" d="M20.66,7.05c.21-.3-.6-.15-.22,0C20.5,7.09,20.62,7.12,20.66,7.05Z"/><path class="cls-2" d="M23.46,6.66A.59.59,0,0,0,24,6.5c.19-.25-.65-.33-.77-.28S23.33,6.63,23.46,6.66Z"/><path class="cls-2" d="M22.73,6.73c.18-.27-.4-.38-.5-.17S22.62,6.88,22.73,6.73Z"/><path class="cls-2" d="M23.27,7.17c0,.11.05.17.17.18s.3-.17.19-.29S23.25,7,23.27,7.17Z"/><path class="cls-2" d="M24.73,6.93c.06-.22-.22-.48-.35-.23s.11.28.24.3S24.71,7,24.73,6.93Z"/><path class="cls-2" d="M28.13,7.43c0-.09-.36-.13-.33,0s.1.08.18.08S28.17,7.54,28.13,7.43Z"/><path class="cls-2" d="M26.58,7.23a.46.46,0,0,0,.49,0c.15-.08.09-.19,0-.24s-.28,0-.43,0-.18-.07-.23,0-.08.15,0,.22A.64.64,0,0,0,26.58,7.23Z"/><path class="cls-1" d="M26.7,8.22c.28,0,.16-.3-.08-.26-.08,0-.2,0-.17.16S26.61,8.22,26.7,8.22Z"/><path class="cls-1" d="M25.79,8.4c-.07.06,0,.22.1.2a.12.12,0,0,0,.1-.14.16.16,0,0,0-.19-.07Z"/><path class="cls-1" d="M25.36,8.91c.08-.16-.09-.28-.22-.31a.48.48,0,0,0-.29,0c-.18.06-.35.11-.19.32s.33.08.47,0S25.31,9,25.36,8.91Z"/><path class="cls-1" d="M24.13,8.59c0-.09-.42-.07-.43.12s.2.16.31.15S24.14,8.7,24.13,8.59Z"/><path class="cls-1" d="M25,8.43c.06,0,.11-.12.07-.17s-.29-.08-.31,0S24.9,8.47,25,8.43Z"/><path class="cls-2" d="M25.29,7.52c.07,0,.09,0,.15.07s.14,0,.19,0-.22-.29-.34-.31C25,7.24,25,7.47,25.29,7.52Z"/><path class="cls-2" d="M24.93,7.8c.16-.08,0-.29-.11-.34a.62.62,0,0,0-.5,0c-.14.12,0,.23.14.27A.75.75,0,0,0,24.93,7.8Z"/><path class="cls-1" d="M23.56,8.37a.3.3,0,0,0,.26,0s0-.08.08-.11l.11,0c.17-.14-.17-.17-.28-.17s-.45,0-.49.13S23.45,8.35,23.56,8.37Z"/><path class="cls-1" d="M23.07,8.92c.09,0,.3-.07.29-.21s-.18-.09-.27-.09-.15,0-.2,0a.22.22,0,0,0-.1.2C22.83,8.93,23,8.93,23.07,8.92Z"/><path class="cls-1" d="M22.31,8.51a.3.3,0,0,0,.21,0,.2.2,0,0,0,.19-.26C22.7,8.1,22,8.29,22.31,8.51Z"/><path class="cls-1" d="M21.86,9.27c.16,0,.39,0,.5-.08s0-.29-.15-.34A.35.35,0,0,0,21.8,9C21.7,9.07,21.66,9.25,21.86,9.27Z"/><path class="cls-2" d="M18,6.28c0-.06-.14,0-.2-.07s-.23,0-.11.15S18.1,6.43,18,6.28Z"/><path class="cls-2" d="M16.48,5.59h-.23q-.08,0-.06.06a.19.19,0,0,0,.09.11.39.39,0,0,0,.24,0s.05-.06,0-.09A.09.09,0,0,0,16.48,5.59Z"/><path class="cls-1" d="M18.57,8.61c.14-.41-.67-.27-.64,0A.36.36,0,0,0,18.57,8.61Z"/><path class="cls-1" d="M19.3,9.3c-.05.17.23.2.24,0S19.34,9.13,19.3,9.3Z"/><path class="cls-1" d="M20.88,9.34c.05-.09-.14-.23-.22-.25s-.4,0-.4.13S20.82,9.46,20.88,9.34Z"/><path class="cls-1" d="M21.94,8c-.1-.12-.61,0-.48.15a.76.76,0,0,0,.38.08C22,8.2,22,8.1,21.94,8Z"/><path class="cls-2" d="M22.46,7.62c.11,0,.19,0,.12-.16s-.3-.12-.36,0S22.33,7.62,22.46,7.62Z"/><path class="cls-2" d="M23.79,7.59c-.12-.07-.3,0-.2.13S24,7.72,23.79,7.59Z"/><path class="cls-1" d="M18.71,9.22c.09-.09-.09-.22-.17-.22s-.26.15-.1.22A.62.62,0,0,0,18.71,9.22Z"/><path class="cls-2" d="M16.62,6.45c.13-.2-.25-.19-.35-.1s.26.23.35.11Z"/><path class="cls-2" d="M17.33,6.86h0c.06,0-.41-.37-.27-.09C17.11,6.86,17.25,6.88,17.33,6.86Z"/><path class="cls-2" d="M16.15,6.13c.1.09.21-.12.13-.16S16.07,6.06,16.15,6.13Z"/><path class="cls-2" d="M14.35,5c.05,0,.1,0,.08-.1a.1.1,0,0,0-.12-.08h0a.1.1,0,0,0,0,.12C14.23,5,14.3,5,14.35,5Z"/><path class="cls-1" d="M14,7.86a.13.13,0,0,0,0-.19c-.08-.09-.29,0-.25.1A.16.16,0,0,0,14,7.86Z"/><path class="cls-1" d="M15.86,7.7c.11,0,.26.06.36,0s-.15-.15-.24-.16-.25-.11-.33,0S15.77,7.68,15.86,7.7Z"/><path class="cls-1" d="M17.45,8.71c.07,0,.19-.11.15-.18s-.2-.09-.25-.1-.32,0-.17.2A.25.25,0,0,0,17.45,8.71Z"/><path class="cls-1" d="M15.79,7c-.08,0-.41-.16-.43,0a.2.2,0,0,0,.06.18,1,1,0,0,0,.38.1C15.94,7.26,15.87,7.07,15.79,7Z"/><path class="cls-1" d="M13.26,6.73c.11-.09-.13-.24-.21-.24s-.18.13-.05.21S13.21,6.77,13.26,6.73Z"/><path class="cls-1" d="M12.39,6.8s.14.09.19,0a.11.11,0,0,0-.18-.12A.06.06,0,0,0,12.39,6.8Z"/><path class="cls-2" d="M14.16,5.71c.1-.09,0-.19-.07-.22s-.33,0-.29.14.07.06.1.08A.3.3,0,0,0,14.16,5.71Z"/><path class="cls-1" d="M17.37,7.43a.14.14,0,0,0,.25,0c.08-.14-.07-.21-.19-.18S17.32,7.35,17.37,7.43Z"/><path class="cls-1" d="M16.39,7.1c-.06,0-.1,0-.07.07a1.14,1.14,0,0,0,.46.09.28.28,0,0,0,0-.09A1.19,1.19,0,0,0,16.39,7.1Z"/><path class="cls-1" d="M17.93,8.08c.23,0,.06-.29-.08-.22S17.81,8.08,17.93,8.08Z"/><path class="cls-2" d="M25.39,7c0,.06.11,0,.18,0s.15.13.21.09,0-.18-.07-.22S25.29,6.78,25.39,7Z"/><path class="cls-2" d="M26.25,7.41c-.23,0-.06.16.06.19S26.42,7.39,26.25,7.41Z"/><path class="cls-2" d="M18.9,6.65c0-.1-.14-.06-.21-.07s-.23,0-.25.08.16.13.23.13S18.92,6.78,18.9,6.65Z"/><path class="cls-2" d="M21.56,7.66c.16-.08,0-.14-.11-.15s-.17,0-.1.07A.17.17,0,0,0,21.56,7.66Z"/><path class="cls-2" d="M23.27,7.69c0-.06-.05-.2-.12-.1s0,.08,0,.11S23.27,7.73,23.27,7.69Z"/><path class="cls-1" d="M26.22,8.11c.05-.09-.07-.18-.16-.13S26.15,8.26,26.22,8.11Z"/><path class="cls-1" d="M27.5,8c.1.11.34-.08.14-.13S27.4,7.84,27.5,8Z"/><path class="cls-2" d="M27.15,7.66c.08,0,.24,0,.26-.07S27.13,7.44,27.15,7.66Z"/><path class="cls-2" d="M23.06,7.06a.15.15,0,0,0-.13,0s-.09,0-.12,0a.08.08,0,0,0,0,.07c0,.08.1.09.16.08S23.12,7.15,23.06,7.06Z"/><path class="cls-2" d="M20.65,7.34c-.18.23.33.26.4.14S20.74,7.23,20.65,7.34Z"/><path class="cls-2" d="M19.45,6.82c-.05.07.05.19.2.2a.29.29,0,0,0,.16,0c.14-.08.12-.15,0-.2a.56.56,0,0,0-.22,0A.17.17,0,0,0,19.45,6.82Z"/><path class="cls-2" d="M17.9,6.84s.18,0,.09-.06S17.86,6.78,17.9,6.84Z"/><path class="cls-7" d="M21.67,8.38c0,.21-3.09,1.28-4-1.18-.1-.27.79-.22,1.12-.23.92,0,1.54.75,1.92.94S21.71,8.16,21.67,8.38Z"/></g></g></svg>