<svg xmlns="http://www.w3.org/2000/svg" xmlns:xlink="http://www.w3.org/1999/xlink" viewBox="0 0 26.38 20.6"><defs><style>.cls-1{fill:#faab6f;}.cls-2{fill:#d14329;}.cls-3{fill:#f15c42;}.cls-4{fill:#eac6a4;}.cls-5{fill:#353433;}.cls-6,.cls-7{opacity:0.6;}.cls-6{fill:url(#radial-gradient);}.cls-7{fill:url(#radial-gradient-2);}</style><radialGradient id="radial-gradient" cx="8.94" cy="5.04" r="0.53" gradientTransform="translate(3.91 1.89) scale(1.32 1.22)" gradientUnits="userSpaceOnUse"><stop offset="0" stop-color="#ca3927"/><stop offset="1" stop-color="#f15c42"/></radialGradient><radialGradient id="radial-gradient-2" cx="4.76" cy="5.12" r="0.53" xlink:href="#radial-gradient"/></defs><g id="Layer_2" data-name="Layer 2"><g id="Layer_2-2" data-name="Layer 2"><path class="cls-1" d="M8.16,16.12s-.52,2.47.4,3.55a3.31,3.31,0,0,0,3.42.62,2.66,2.66,0,0,0,1.63-1.84,2.16,2.16,0,0,0-.31-2.05,1.44,1.44,0,0,0-2,.26c-.57.77.26.34.36.28s.64-.4,1,.07a2.23,2.23,0,0,1-.68,2.35c-.67.33-2.38.67-3.07-.66A6.09,6.09,0,0,1,8.16,16.12Z"/><path class="cls-2" d="M9.07,20c.09-.08,0-.26-.08-.4s-.32-.18-.41-.09,0,.26.09.4S9,20.12,9.07,20Z"/><path class="cls-2" d="M10.49,20.42c0-.12-.13-.24-.32-.26s-.35.05-.37.17.12.24.31.26S10.47,20.54,10.49,20.42Z"/><path class="cls-2" d="M12,20.17c0-.11-.21-.17-.39-.12s-.31.19-.28.31.21.17.39.12S12.06,20.29,12,20.17Z"/><path class="cls-2" d="M13.05,19.34c-.09-.07-.25,0-.37.12s-.13.31,0,.38.25,0,.37-.12S13.14,19.42,13.05,19.34Z"/><path class="cls-2" d="M7.87,12.22a4.18,4.18,0,0,0-2.44-.81,4.69,4.69,0,0,0-3.66,2.27A4,4,0,0,0,1,16.93c.14.35-.22.44-.74-.38s-.32-2.71.81-4.14a6,6,0,0,1,4.58-2.34A6.34,6.34,0,0,0,8,9.8c.35-.16,1.59-1.14,1.4-2.07a3.23,3.23,0,0,1-.2,2.91C8.29,12.14,7.87,12.22,7.87,12.22Z"/><path class="cls-2" d="M16.26,8.85a2.64,2.64,0,0,0,1.38,1.82,2.92,2.92,0,0,0,2.26.24,2.82,2.82,0,0,0,1.61-2.06A4.06,4.06,0,0,1,23,6.34a2.51,2.51,0,0,1,2.67-.08c.35.18-.17.35-.68.4-2,.2-2.11,1.91-2.48,3.47a3.63,3.63,0,0,1-1.88,1.95,5,5,0,0,1-3.66.18c-1.13-.34-.62-1.11-.69-1.4S16.26,8.85,16.26,8.85Z"/><path class="cls-1" d="M8.55,13.26s-1.14,1.46-4.1,1.08a4.11,4.11,0,0,1-3.09-2.65A6,6,0,0,1,1.62,7C3,4.59,4.87,4.6,5.44,4.76s1.25.65,1,1-.63-.1-1.08-.07a2.54,2.54,0,0,0-2.05.93A4.64,4.64,0,0,0,2.16,10,5,5,0,0,0,4.77,13.4,4.9,4.9,0,0,0,8.55,13.26Z"/><path class="cls-3" d="M9.66,17.29c0-3,3.21-5.12,3.21-5.12s-.11-.2.5,1.64a3.57,3.57,0,0,0,4,2.63c2-.23,4-.68,4.75-2.86s-.31-3.3-1.23-3.56c-1.21-.35-1.55.22-1.55.22s.32-.55,1.41-.12,1.49,1.58,1.14,3-1.79,2.49-4.4,2.19S15,11.82,15,11.82c2.11,4.27,7.08,3.69,8,3.41,1.2-.38,1.46-1,2.29-.77.61.14.8.9,1.05.7s0-1.25-1-1.47-1.89.48-3,.59-7.51-.23-5.58-6.74C18.14,2.93,16.3,0,13.05,0c-4.92,0-4.65,5.71-4,7.17a3.52,3.52,0,0,1,.32,2.46,3.82,3.82,0,0,1-4.3,3c-2-.27-2.56-2.42-2.49-3.48A3.49,3.49,0,0,1,4.91,5.68a3,3,0,0,0-2.54,1.9C1.7,9.36,1.72,11.81,4,13.17c1.08.64,1.54.74,3.73.65.54,0,2.79-1.94,2.79-1.94S7.9,14.57,8.1,17.15c0,0,.28,3,3,2.69,1.61-.21,1.61-2.05,1.61-2.05a1.51,1.51,0,0,1-1.73,1.38C9.6,19.08,9.65,17.86,9.66,17.29Z"/><path class="cls-1" d="M14.8,15.85S16,17.29,19.15,17a4.31,4.31,0,0,0,3.45-2.08c.39-.61,1.32-3.07.19-4.63a3,3,0,0,0-2.5-1.18c-.34,0-1,.35-1.07.86s.15.31.15.31S20.72,9.19,22,11a3.18,3.18,0,0,1,0,2.75A2.84,2.84,0,0,1,21.21,15c-.4.4-1.24,1.22-3.94,1.3A5.54,5.54,0,0,1,14.8,15.85Z"/><path class="cls-4" d="M11.18,6.66a.75.75,0,1,0-.75.74A.75.75,0,0,0,11.18,6.66Z"/><path class="cls-4" d="M16.26,6.53a.75.75,0,0,0-1.49,0,.75.75,0,1,0,1.49,0Z"/><circle class="cls-5" cx="10.42" cy="6.76" r="0.23"/><path class="cls-5" d="M15.75,6.66a.24.24,0,1,0-.47,0,.24.24,0,0,0,.47,0Z"/><path class="cls-2" d="M13.59.76c0-.17-.31-.31-.7-.31s-.7.14-.7.31.31.31.7.31S13.59.93,13.59.76Z"/><path class="cls-2" d="M14.54,2.06c0-.15-.21-.27-.48-.27s-.48.12-.48.27.21.28.48.28S14.54,2.22,14.54,2.06Z"/><path class="cls-2" d="M15.49,1.23c0,.13-.29.16-.54.07S14.52,1,14.57.91s.28-.16.54-.08S15.53,1.1,15.49,1.23Z"/><path class="cls-2" d="M16.29,2.44c0-.1-.09-.26-.3-.36s-.42-.09-.46,0,.08.26.29.36S16.24,2.54,16.29,2.44Z"/><path class="cls-2" d="M12.65,1.83c0,.12-.15.29-.41.37s-.5,0-.54-.06.14-.29.4-.37S12.61,1.71,12.65,1.83Z"/><path class="cls-2" d="M11.14,1.46c-.08-.11-.37-.05-.64.14s-.42.44-.34.55.37.06.64-.13S11.22,1.58,11.14,1.46Z"/><path class="cls-6" d="M16.38,8a.7.7,0,1,0-.7.65A.67.67,0,0,0,16.38,8Z"/><path class="cls-7" d="M10.88,8.13a.7.7,0,0,0-1.4,0,.7.7,0,0,0,1.4,0Z"/><path class="cls-2" d="M20.31,16.64c0-.12-.2-.18-.39-.14s-.32.16-.29.28.19.19.38.15S20.34,16.76,20.31,16.64Z"/><path class="cls-2" d="M19.37,16.19c0-.12-.19-.19-.38-.15s-.32.17-.3.29.2.18.39.14S19.4,16.31,19.37,16.19Z"/><path class="cls-2" d="M22.13,9.75c.06-.08,0-.24-.14-.34s-.31-.11-.37,0,0,.24.14.34S22.06,9.84,22.13,9.75Z"/><path class="cls-2" d="M22.1,10.7c.08-.09,0-.25-.1-.38s-.3-.15-.38-.07,0,.25.1.38S22,10.78,22.1,10.7Z"/><path class="cls-2" d="M23.05,10.9c.09-.06.1-.22,0-.37s-.24-.22-.33-.17-.1.22,0,.37S23,11,23.05,10.9Z"/><path class="cls-2" d="M6.21,14.26c0-.12-.17-.21-.36-.2s-.34.12-.34.24.17.21.36.2S6.21,14.38,6.21,14.26Z"/><path class="cls-2" d="M8.53,19c.11-.06.12-.24,0-.41s-.26-.25-.36-.19-.12.24,0,.41S8.43,19.06,8.53,19Z"/><path class="cls-2" d="M13.59,17.82c-.12,0-.22.13-.23.31s.07.33.19.34.21-.14.22-.32S13.7,17.82,13.59,17.82Z"/><path class="cls-2" d="M12.94,17.18c-.11,0-.2.15-.19.32s.09.32.2.32.2-.15.2-.32S13.05,17.18,12.94,17.18Z"/><path class="cls-2" d="M12.81,18.36c-.11,0-.23.09-.28.26s0,.34.12.37.23-.09.28-.26S12.92,18.39,12.81,18.36Z"/><path class="cls-2" d="M13.52,16.85c.08-.07.05-.23-.06-.35s-.26-.16-.34-.09,0,.23.06.35S13.45,16.92,13.52,16.85Z"/><path class="cls-2" d="M12.21,16.36c0-.09-.17-.12-.31-.07s-.23.15-.2.24.17.13.31.08S12.24,16.45,12.21,16.36Z"/><path class="cls-2" d="M5,13.74c0-.11-.08-.25-.26-.31s-.36,0-.4.1.08.26.27.32S5,13.86,5,13.74Z"/><path class="cls-2" d="M3.8,14.07c.06-.11,0-.27-.19-.37s-.36-.08-.42,0,0,.27.2.37S3.74,14.17,3.8,14.07Z"/><path class="cls-2" d="M3.54,13c.09-.08,0-.26-.1-.39s-.32-.17-.4-.08,0,.26.1.4S3.46,13.13,3.54,13Z"/><path class="cls-2" d="M2.47,11.91c.1-.06.12-.24,0-.41s-.25-.27-.35-.21-.13.24,0,.41S2.36,12,2.47,11.91Z"/><path class="cls-2" d="M1.37,7.86c.12,0,.26-.09.31-.28s0-.36-.12-.39-.25.09-.31.27S1.25,7.82,1.37,7.86Z"/><path class="cls-2" d="M1.86,8.69c.12,0,.25-.11.29-.3S2.12,8,2,8s-.25.11-.28.29S1.74,8.66,1.86,8.69Z"/><path class="cls-2" d="M2.39,7.15c.09.07.26,0,.36-.14s.12-.33,0-.39-.26,0-.37.14S2.29,7.09,2.39,7.15Z"/><path class="cls-2" d="M2.34,6.18c.08.08.25,0,.37-.1s.15-.29.07-.37-.25,0-.37.09S2.26,6.1,2.34,6.18Z"/><path class="cls-2" d="M3.44,6c.06.1.23.11.38,0s.24-.24.18-.34-.22-.1-.38,0S3.39,5.87,3.44,6Z"/><path class="cls-2" d="M3.69,5.13c.05.11.22.14.4.07s.28-.21.24-.32-.22-.15-.4-.08S3.65,5,3.69,5.13Z"/><path class="cls-2" d="M5.07,4.82c0,.11.1.21.27.23s.3,0,.32-.15-.11-.2-.28-.23S5.08,4.72,5.07,4.82Z"/><path class="cls-2" d="M4.54,5.55c0,.11.17.17.35.14s.3-.14.28-.25S5,5.26,4.82,5.29,4.52,5.44,4.54,5.55Z"/><path class="cls-2" d="M5.72,5.51c0,.1.09.21.25.24s.3,0,.32-.12S6.2,5.42,6,5.39,5.74,5.41,5.72,5.51Z"/><path class="cls-2" d="M1.89,10.28c.12,0,.21-.17.19-.36S2,9.58,1.83,9.59s-.2.17-.19.36S1.77,10.29,1.89,10.28Z"/><path class="cls-2" d="M2.37,13.08c.1-.07.08-.26,0-.41S2,12.46,2,12.53s-.08.26,0,.41S2.28,13.15,2.37,13.08Z"/><path class="cls-2" d="M22.55,11.73a.28.28,0,0,0,.09-.36c-.05-.16-.18-.27-.28-.24s-.15.2-.09.36S22.45,11.76,22.55,11.73Z"/><path class="cls-2" d="M21.09,9.94c0-.09,0-.22-.18-.28s-.29-.05-.33,0,0,.22.18.28S21.05,10,21.09,9.94Z"/><path class="cls-2" d="M20.55,9.23c0-.09-.15-.15-.3-.12s-.25.13-.23.22.15.15.3.12S20.57,9.32,20.55,9.23Z"/><path class="cls-2" d="M20,9.77c0-.09-.16-.13-.3-.09s-.24.14-.21.23.16.13.3.09S20,9.86,20,9.77Z"/><path class="cls-2" d="M22.41,13.05c.11,0,.22-.13.23-.31s-.07-.33-.18-.34-.22.13-.23.31S22.29,13,22.41,13.05Z"/><path class="cls-2" d="M23.24,12.23c.1,0,.18-.17.16-.34s-.12-.3-.23-.29-.18.16-.17.34S23.13,12.24,23.24,12.23Z"/><path class="cls-2" d="M22.91,14c.12,0,.26-.09.31-.27s0-.36-.12-.4-.25.09-.3.28S22.79,13.93,22.91,14Z"/><path class="cls-2" d="M21.83,14.59c.11.05.26-.06.33-.24s0-.36-.08-.4-.26.06-.33.24S21.72,14.55,21.83,14.59Z"/><path class="cls-2" d="M21.54,15.92a.31.31,0,0,0,.4-.09c.14-.13.18-.31.1-.4s-.27,0-.41.09S21.46,15.83,21.54,15.92Z"/><path class="cls-2" d="M21,15.46c-.06-.11-.24-.13-.41-.05s-.27.24-.22.35.24.13.41.05S21.05,15.57,21,15.46Z"/><path class="cls-2" d="M18,16.91c0-.12-.14-.23-.34-.24s-.36.07-.37.2.15.23.34.25S18,17,18,16.91Z"/><path class="cls-5" d="M13,8.93a4,4,0,0,1-2.21-.74s0,0,0,0a0,0,0,0,1,0,0,3.39,3.39,0,0,0,4.15,0,0,0,0,0,1,0,0,0,0,0,0,1,0,0A3.12,3.12,0,0,1,13,8.93Z"/><path class="cls-2" d="M1.11,9.56c.13,0,.22-.16.21-.36s-.12-.34-.24-.33-.21.16-.2.36S1,9.57,1.11,9.56Z"/><path class="cls-2" d="M1.38,11.42c.12,0,.17-.21.13-.39s-.19-.32-.3-.29-.18.21-.13.39S1.26,11.45,1.38,11.42Z"/><path class="cls-2" d="M10,19.84c0-.1-.06-.23-.22-.29s-.33,0-.37.08.07.23.23.29S9.93,20,10,19.84Z"/><path class="cls-2" d="M11.19,19.92c0-.11-.17-.19-.35-.17s-.31.12-.3.23.16.19.34.18S11.2,20,11.19,19.92Z"/><path class="cls-2" d="M12.33,19.31c-.07-.09-.25-.07-.39.05s-.19.28-.12.37.25.07.39-.05S12.4,19.4,12.33,19.31Z"/></g></g></svg>