<svg xmlns="http://www.w3.org/2000/svg" viewBox="0 0 30.1 14.69"><defs><style>.cls-1{fill:#252b3d;}.cls-2{fill:#c0bfbf;}.cls-3{fill:#f8f7f7;}.cls-4{fill:#161515;}.cls-5{fill:#202534;}</style></defs><g id="Layer_2" data-name="Layer 2"><g id="Layer_2-2" data-name="Layer 2"><path class="cls-1" d="M29.75,13.33S29.82,10,26.09,7a15,15,0,0,0-5.61-3s-.8-3.51-3.07-4c-.46-.1.73,3.52.22,3.48A14.47,14.47,0,0,0,9.32,5.64C5.54,8,4.41,10.07,4.41,10.07A4.52,4.52,0,0,0,0,10.49s1.5.12,2,.79,1.85.29,1.85.29A1.52,1.52,0,0,0,5,13.19c.45.16.72,1.14.72,1.14a3.54,3.54,0,0,0-.6-3.78,11.83,11.83,0,0,1,5-.7h0c1.5-.15,3.28-.22,3.17-.78-.16-.88-4.41.52-4.52-.88-.08-1,4.34-2.06,6.64-.72,1.71,1,1.63,4,3.06,4.75s3.1-.7,5.13-.62,4.32,2,5.18,2.58a.92.92,0,0,1,.34.42c.52-.09.87-.25,1-.51A.55.55,0,0,0,29.75,13.33Z"/><path class="cls-2" d="M28.74,14.19c-.86-.57-3.14-2.5-5.18-2.58s-3.7,1.33-5.13.62-1.35-3.75-3.06-4.75c-2.3-1.34-6.72-.33-6.64.72.11,1.4,4.36,0,4.52.88.11.56-1.67.63-3.17.78,2.47.31,7.3,2.63,9.45,3.43,1.76.66,7.28,1.7,9.55,1.32A.92.92,0,0,0,28.74,14.19Z"/><path class="cls-2" d="M24.79,9.36c.28-.52,2.56,1,2.54,1.35s-.77.63-1,.55S24.48,9.93,24.79,9.36Z"/><path class="cls-3" d="M27.88,12.16a.22.22,0,0,0-.22-.22.22.22,0,1,0,0,.44A.22.22,0,0,0,27.88,12.16Z"/><path class="cls-4" d="M27.82,12.23a.11.11,0,0,0-.11-.11.11.11,0,0,0-.12.11.12.12,0,0,0,.12.12A.11.11,0,0,0,27.82,12.23Z"/><path class="cls-5" d="M22.1,11.7c.31.41-.22,2.55-3.58,2C18.11,13.63,21.11,10.44,22.1,11.7Z"/></g></g></svg>