<svg xmlns="http://www.w3.org/2000/svg" viewBox="0 0 18.44 23.51"><defs><style>.cls-1{fill:#d99790;}.cls-2{fill:#5d554c;}.cls-3{fill:#030303;}.cls-4{fill:#d49a50;}.cls-5{fill:#dedfd2;}.cls-6{fill:#554d43;}.cls-7{fill:#f8f7f2;}</style></defs><g id="Layer_2" data-name="Layer 2"><g id="Layer_2-2" data-name="Layer 2"><path class="cls-1" d="M12.26,22.14a6.58,6.58,0,0,0-1.58-.95,12.06,12.06,0,0,1,0-2.73.58.58,0,0,0,.21-.47.6.6,0,0,0-.14-.41c.1-1.33.27-2.72.42-3.71h-.6c-.08.53-.26,2.11-.38,3.66A.59.59,0,0,0,10,18a.63.63,0,0,0,.13.39,15.57,15.57,0,0,0,0,2.53c-.18-.05-.43-.07-.51.23s.44.39.61.46a2.13,2.13,0,0,1,1.3.85c.35.35.77.28.66-.07C12.12,22.38,12.44,22.41,12.26,22.14Z"/><path class="cls-1" d="M9.54,23a5.73,5.73,0,0,0-1.35-1.2,14.91,14.91,0,0,1,.13-3.06.68.68,0,0,0,.15-.43A.54.54,0,0,0,8.4,18c.16-1.27.36-2.67.58-3.93H8.32s-.31,1.77-.54,3.6l0,.14a.62.62,0,0,0-.21.48.66.66,0,0,0,.11.38,17.23,17.23,0,0,0-.13,2.64c-.18-.1-.46-.21-.62.11s.38.49.55.6c.62.4.58.38,1.23,1.35.29.44.7-.16.55-.2C9.24,23.15,9.59,23.16,9.54,23Z"/><path class="cls-2" d="M13.17,8c-1.28-1-2.61-1.88-6.51-1-4.7,1-3,3.39-3,3.39A6.31,6.31,0,0,0,8,13.85a.8.8,0,0,0,1.23.09,7.84,7.84,0,0,0,1-.13.83.83,0,0,0,1.3-.38l.38-.15C14.4,12.22,14.22,8.86,13.17,8Z"/><path class="cls-1" d="M17.18.46c-2.08-1.41-2.8.81-2.54,1.5a1.82,1.82,0,0,1,.07.25c-.76.66-1,2.05-.57,4.14a2.83,2.83,0,0,1-.38,2.38c-.43.52-1.06.32-1.33.79-.12.2-.12,1,.44,1,.22,0,.92-.17,1.66-1.19A4,4,0,0,0,15,6.19c-.29-1.62-.21-2.78.22-3.24a2.39,2.39,0,0,0,.65.2C17.08,3.37,18.52,1.38,17.18.46Z"/><path class="cls-3" d="M15.91,1.24a.2.2,0,0,0-.28-.05.2.2,0,0,0,0,.29.2.2,0,0,0,.28.05A.2.2,0,0,0,15.91,1.24Z"/><path class="cls-3" d="M16.72.87c0-.11-.15-.17-.24-.13A.18.18,0,0,0,16.4,1a.19.19,0,0,0,.24.13A.19.19,0,0,0,16.72.87Z"/><path class="cls-4" d="M16.15,2.31a2.4,2.4,0,0,0,.6-.3,1.18,1.18,0,0,0,.41-.43c0-.06,1.53,1.26,1.24,1.59s-1.73-.38-2.14-.67A.38.38,0,0,1,16.15,2.31Z"/><path class="cls-5" d="M1.41,5.82C.76,6.88,4.06,9.37,4.76,8.28,5.23,7.53,2,4.93,1.41,5.82Z"/><path class="cls-5" d="M0,8.64c-.11,1,4.15,1.58,4.29.51S.15,7.39,0,8.64Z"/><path class="cls-5" d="M.41,11.31c.38.83,4.24-.51,3.85-1.4S0,10.37.41,11.31Z"/><path class="cls-5" d="M3.34,4.63c-.81.62,1.11,3.71,2,3.08C5.94,7.25,4.07,4.07,3.34,4.63Z"/><path class="cls-6" d="M6.54,9.67c.63-.28,2.18-.55,2.73.31s.08,1.4-.21,1.55a2.69,2.69,0,0,1-3.59-1.07C5.35,10.28,6.23,9.8,6.54,9.67Z"/><path class="cls-5" d="M6.18,12.67c.36.29,2.1-1.27,1.35-1.61C7.06,10.85,5.83,12.38,6.18,12.67Z"/><path class="cls-5" d="M5,12c.2.34,2.48-.66,1.91-1.2S4.66,11.39,5,12Z"/><path class="cls-5" d="M4.74,10.82c.16.33,2.24-.06,1.71-.66S4.47,10.31,4.74,10.82Z"/><path class="cls-5" d="M7.27,12.67c.3.25,1.74-1,1.12-1.34C8,11.15,7,12.41,7.27,12.67Z"/><path class="cls-7" d="M16.69.89a.05.05,0,0,0-.05-.05,0,0,0,0,0-.05.05.05.05,0,0,0,.05,0A.06.06,0,0,0,16.69.89Z"/><path class="cls-7" d="M15.89,1.34a.05.05,0,0,0-.05-.05.06.06,0,0,0-.05.05.05.05,0,0,0,.05,0A0,0,0,0,0,15.89,1.34Z"/></g></g></svg>