<svg xmlns="http://www.w3.org/2000/svg" viewBox="0 0 25.84 18.86"><defs><style>.cls-1{fill:#b57c48;}.cls-2{fill:#5f4a3c;}.cls-3{fill:#806445;}.cls-4{fill:#d4a685;}.cls-5{fill:#5f492f;}.cls-6{fill:#1c1b1a;}.cls-7{fill:#ba977e;}.cls-8{fill:#f0f2f4;}</style></defs><g id="Layer_2" data-name="Layer 2"><g id="Layer_2-2" data-name="Layer 2"><polygon class="cls-1" points="9.89 13.35 9.51 17.68 10.26 17.68 10.62 13.35 9.89 13.35"/><path class="cls-2" d="M10.26,17.63s0,.92-.15,1-.68.28-.73.18.12-.42.12-.42-.22.25-.32.25A.15.15,0,0,1,9,18.44c0-.08.5-.79.5-.79A2,2,0,0,0,10.26,17.63Z"/><polygon class="cls-1" points="12.34 13.4 11.96 17.73 12.71 17.73 13.07 13.4 12.34 13.4"/><path class="cls-2" d="M12.71,17.68s-.05.92-.15,1-.68.29-.73.19.12-.43.12-.43-.22.26-.32.26a.16.16,0,0,1-.16-.17c0-.09.5-.8.5-.8A2,2,0,0,0,12.71,17.68Z"/><polygon class="cls-1" points="23.37 13.27 23.25 17.62 23.99 17.57 24.1 13.23 23.37 13.27"/><path class="cls-2" d="M24,17.53s0,.91-.1,1-.66.33-.72.23.09-.43.09-.43-.2.27-.3.27a.14.14,0,0,1-.16-.16c0-.08.44-.82.44-.82A2,2,0,0,0,24,17.53Z"/><polygon class="cls-1" points="21.13 13.27 20.9 17.61 21.65 17.59 21.86 13.24 21.13 13.27"/><path class="cls-2" d="M21.65,17.54a3.84,3.84,0,0,1-.12,1c-.1,0-.67.31-.73.21s.11-.43.11-.43-.21.27-.31.27a.15.15,0,0,1-.16-.17c0-.08.46-.81.46-.81A2,2,0,0,0,21.65,17.54Z"/><path class="cls-3" d="M8.55,11.6a4.38,4.38,0,0,0-.2.76c0,.19.1.34.1.61a4.66,4.66,0,0,0-.1,1c.05.51.27.69.09,1.15,0,0,0-.24.41-.46s.26-.64.36-.81a3.38,3.38,0,0,1,.29-.39,1.41,1.41,0,0,0-.14.56c0,.19.21.15.21.35s-.16.26-.12.75c0,0,.21-.34.34-.4s.36-.11.45-.24.06-.37.14-.49.16-.31.16-.31a4.29,4.29,0,0,0-.12.72c0,.28.35.87.31,1.08a1.41,1.41,0,0,0,.18-.47c0-.16-.13-.39,0-.52a3.25,3.25,0,0,1,.4-.39,2.55,2.55,0,0,0,.28.75c.18.23.48.53.48.73a4.19,4.19,0,0,1,.09-.82,1.63,1.63,0,0,1,.52-.54,2,2,0,0,0,0,.72c.08.25.34.45.3.61a2.52,2.52,0,0,0,.35-.63c0-.15,0-.54.26-.64,0,0,.32.26.33.39s-.06.15,0,.35.42.39.41.63c0,0,.32-.33.27-.46s-.12-.27-.06-.38a2,2,0,0,1,.39-.34.92.92,0,0,1,.16.5c0,.23-.1.53,0,.68s.22.22.2.33a.86.86,0,0,0,.24-.44c0-.24-.15-.29-.08-.48s.42-.63.55-.63a1.1,1.1,0,0,0-.07.56c.06.25.32.2.3.44s.18.37.18.42a1.47,1.47,0,0,1,.21-.49c.12-.14,0-.38,0-.53s.15-.4.57-.45c0,0-.23.26-.07.46s.58.24.5.89a.54.54,0,0,1,.34-.26c.27-.08.06-.66.24-.86a.44.44,0,0,1,.35-.18.74.74,0,0,1,0,.51c-.09.26.17.39.11.58s-.11.37-.11.37.51,0,.63-.28-.33-.42-.14-.69a2.47,2.47,0,0,1,.84-.59h0a.17.17,0,0,0,.06.25c.17.09.65.05.5.42s-.11.33-.11.33.64-.25.62-.43-.28-.47-.09-.53a1.35,1.35,0,0,0,.32-.16s.39,0,.35.34-.17.65.48.81h0a.89.89,0,0,1,.06-.55c.13-.2-.21-.36-.13-.49a1.17,1.17,0,0,1,.25-.44s.81.29.34,1.3c0,0,.55-.21.57-.47s.1-.74.24-.82a.77.77,0,0,0,.07.7c.22.32.47.28.44.49a1.68,1.68,0,0,0,.16-.62,2.25,2.25,0,0,1,.13-.7,3.42,3.42,0,0,1,.61,1.37,1.42,1.42,0,0,0,.42-.71,9.27,9.27,0,0,1,.24-2.28c.3-.91,1.47-5.69-2.59-7S17.33,2,17.33,2c-6.34-5.13-11,1.42-11,1.42Z"/><path class="cls-1" d="M9.87,9.21c-.9,2-2.69,3.47-4.29,2.78S4,10.23,4.44,7.7c.3-1.87,1.33-4.49,4.39-3.13C11.29,5.67,10.77,7.16,9.87,9.21Z"/><path class="cls-4" d="M8.61,11.66c.26-.9-.56-1.93-1.83-2.31s-2.53,0-2.8.94a2.09,2.09,0,0,0,1.83,2.32C7,12.85,8.34,12.56,8.61,11.66Z"/><path class="cls-5" d="M23.39,13.29s0,0-.05,0a.07.07,0,0,1,0-.07l.07,0c.08,0,.2-.06.22-.34s-.06-.19-.15-.23a.31.31,0,0,1-.25-.33.39.39,0,0,1,.25-.38c.11-.07.19-.11.18-.28a.52.52,0,0,0-.28-.4.51.51,0,0,1-.26-.33c0-.32.33-.62.35-.63a0,0,0,0,1,.07,0,0,0,0,0,1,0,.07s-.35.28-.31.54.11.18.22.26a.57.57,0,0,1,.32.47.36.36,0,0,1-.23.37c-.11.07-.2.12-.2.3a.22.22,0,0,0,.18.24.26.26,0,0,1,.22.32c0,.36-.2.41-.29.44l-.05,0Z"/><path class="cls-5" d="M24.89,13h0a0,0,0,0,1,0-.07,1.34,1.34,0,0,0,.16-.34s-.06-.1-.14-.14-.21-.14-.23-.26.09-.21.19-.29a.47.47,0,0,0,.21-.21c.05-.19-.21-.36-.22-.36a0,0,0,0,1,0-.07.06.06,0,0,1,.07,0s.33.21.26.47a.57.57,0,0,1-.25.28c-.1.07-.16.12-.15.18s.1.14.19.19.21.14.18.25a1.2,1.2,0,0,1-.18.38Z"/><path class="cls-5" d="M24.93,9.73a0,0,0,0,1-.05,0c0-.11,0-.21.12-.32A.54.54,0,0,0,25.13,9c0-.12-.17-.16-.32-.21s-.32-.1-.35-.24.1-.29.22-.43.2-.23.2-.32-.29-.39-.4-.46a0,0,0,0,1,0-.07s.05,0,.07,0,.43.29.44.54a.71.71,0,0,1-.22.39c-.11.13-.22.25-.2.35s.14.12.28.16.36.12.39.29a.63.63,0,0,1-.15.43c-.06.09-.12.17-.1.23s0,.06,0,.06Z"/><path class="cls-5" d="M22,8.21s0,0,0,0,.06-.26.15-.35.18-.18.14-.31-.18-.15-.35-.18-.39-.06-.49-.24.05-.33.19-.46.28-.26.22-.43a.56.56,0,0,0-.46-.41.05.05,0,0,1-.05,0,.06.06,0,0,1,.06,0,.67.67,0,0,1,.55.48c.07.23-.11.4-.25.54s-.23.22-.17.34.25.16.41.18.38.06.44.25-.07.31-.17.41-.15.16-.13.26a0,0,0,0,1,0,.06Z"/><path class="cls-5" d="M20,10.44h0a.07.07,0,0,1,0-.06.45.45,0,0,1,.12-.25c.06-.07.12-.14.11-.21s-.08-.09-.16-.13a.44.44,0,0,1-.3-.34c0-.17.11-.26.22-.33s.24-.16.24-.36a.39.39,0,0,0-.2-.31A.48.48,0,0,1,19.7,8a.58.58,0,0,1,.5-.58s.05,0,.06,0a.06.06,0,0,1-.05.06A.48.48,0,0,0,19.8,8a.39.39,0,0,0,.21.37.46.46,0,0,1,.25.39A.47.47,0,0,1,20,9.2c-.12.08-.19.13-.18.24s.13.21.25.26.19.1.21.2a.42.42,0,0,1-.13.3.32.32,0,0,0-.1.19A.06.06,0,0,1,20,10.44Z"/><path class="cls-5" d="M21.68,12.38a0,0,0,0,1-.05-.05c0-.11-.09-.15-.18-.2s-.18-.1-.19-.22.1-.16.19-.19.25-.09.24-.25-.14-.25-.26-.34-.27-.18-.28-.37a1.21,1.21,0,0,1,.41-.74,0,0,0,0,1,.07.07s-.38.36-.37.67c0,.13.1.2.22.29a.55.55,0,0,1,.31.41c0,.26-.18.32-.31.36s-.13,0-.12.08.06.09.14.14.22.12.23.29a0,0,0,0,1-.05.05Z"/><path class="cls-5" d="M19,13.83a0,0,0,0,1-.05-.05c0-.12-.15-.25-.28-.35s-.24-.21-.24-.32.13-.16.26-.2.34-.13.35-.29-.17-.32-.34-.45-.26-.2-.27-.31.48-.44.54-.46a0,0,0,0,1,.07,0,.06.06,0,0,1,0,.07c-.2.08-.49.24-.48.36s.12.16.23.24.4.31.38.54-.25.32-.41.37-.2.07-.2.11.11.15.21.24a.78.78,0,0,1,.31.42.06.06,0,0,1-.05.06Z"/><path class="cls-5" d="M15.54,14h0a0,0,0,0,1,0-.06.54.54,0,0,0-.22-.46.41.41,0,0,1-.16-.27c0-.12.1-.21.21-.3s.2-.17.2-.26a.49.49,0,0,0-.14-.25.71.71,0,0,1-.23-.5.81.81,0,0,1,.43-.59.05.05,0,1,1,.05.09.68.68,0,0,0-.38.51.66.66,0,0,0,.2.43.51.51,0,0,1,.17.31c0,.14-.12.24-.23.33s-.19.16-.18.23.07.12.14.2a.65.65,0,0,1,.24.55A.05.05,0,0,1,15.54,14Z"/><path class="cls-5" d="M13.47,13a.05.05,0,0,1-.05-.05c0-.08-.07-.13-.19-.21s-.25-.15-.26-.32.16-.29.34-.43.32-.23.34-.36-.08-.23-.2-.35a.66.66,0,0,1-.26-.47.64.64,0,0,1,.33-.54.07.07,0,0,1,.07,0,.05.05,0,0,1,0,.07.52.52,0,0,0-.26.46c0,.15.1.27.23.39s.25.26.22.43-.2.31-.38.44-.31.23-.3.34.11.17.21.24.24.14.24.29A0,0,0,0,1,13.47,13Z"/><path class="cls-5" d="M16.35,10.33a0,0,0,0,1-.05-.05c0-.14.11-.23.21-.32s.18-.15.19-.26-.07-.14-.18-.22a.69.69,0,0,1-.32-.55c0-.21.16-.28.31-.34s.27-.12.27-.27a.51.51,0,0,0-.24-.45.48.48,0,0,1-.25-.44.65.65,0,0,1,.5-.61s.05,0,.06,0a.07.07,0,0,1,0,.07.54.54,0,0,0-.42.51.39.39,0,0,0,.21.36.62.62,0,0,1,.28.53c0,.22-.17.3-.33.36s-.25.11-.25.25a.57.57,0,0,0,.28.47c.12.08.22.16.22.3a.48.48,0,0,1-.23.34c-.09.08-.17.15-.17.24A0,0,0,0,1,16.35,10.33Z"/><path class="cls-5" d="M13.83,5.64h0s0,0,0,0c0-.19.17-.3.3-.4s.22-.15.21-.25a1.15,1.15,0,0,0-.24-.47,1.11,1.11,0,0,1-.27-.53c0-.29.41-.47.43-.48a0,0,0,0,1,.06,0,0,0,0,0,1,0,.06s-.37.16-.37.39a1.23,1.23,0,0,0,.25.48,1.3,1.3,0,0,1,.27.52c0,.15-.13.24-.26.33s-.25.18-.26.32A.05.05,0,0,1,13.83,5.64Z"/><path class="cls-5" d="M18.65,6.49s0,0,0,0a.42.42,0,0,0-.18-.19.93.93,0,0,1-.22-.19c-.1-.12,0-.26.08-.4s.18-.28.12-.42-.22-.18-.39-.22a.64.64,0,0,1-.42-.22c-.19-.29.29-.75.31-.77a.06.06,0,0,1,.07,0,0,0,0,0,1,0,.07c-.13.11-.41.45-.29.64A.56.56,0,0,0,18,5a.57.57,0,0,1,.46.28c.09.19,0,.37-.12.52s-.14.21-.09.27a.79.79,0,0,0,.19.18.52.52,0,0,1,.22.22,0,0,0,0,1,0,.07Z"/><path class="cls-5" d="M11.13,11.37a0,0,0,0,1-.05,0,.44.44,0,0,0-.16-.21.44.44,0,0,1-.21-.35c0-.17.12-.28.24-.39s.24-.2.24-.34-.08-.16-.21-.21-.28-.13-.27-.34a.82.82,0,0,1,.38-.6.05.05,0,0,1,.05.09.75.75,0,0,0-.33.52c0,.13.08.17.21.23s.27.12.27.31a.57.57,0,0,1-.27.42c-.11.1-.22.19-.21.3A.4.4,0,0,0,11,11a.48.48,0,0,1,.19.27.07.07,0,0,1,0,.06Z"/><path class="cls-5" d="M11.16,13.83h0a.06.06,0,0,1,0-.06c0-.13.15-.16.26-.2s.23-.08.23-.22-.14-.21-.28-.3-.3-.18-.3-.36.58-.67.6-.69a.07.07,0,0,1,.07,0,.05.05,0,0,1,0,.07c-.15.09-.53.39-.54.61s.11.19.25.27.32.19.32.38-.17.27-.3.32-.17.06-.19.12A0,0,0,0,1,11.16,13.83Z"/><path class="cls-5" d="M8.88,13.83h0a.07.07,0,0,1,0-.06.19.19,0,0,0-.06-.16.41.41,0,0,1-.09-.32c0-.17.15-.22.27-.26s.22-.09.25-.21a.29.29,0,0,0-.12-.29.43.43,0,0,1-.15-.28c0-.26.52-.36.58-.37s.05,0,.05,0a0,0,0,0,1,0,.06c-.12,0-.49.12-.49.27s.06.14.12.21a.41.41,0,0,1,.15.38.4.4,0,0,1-.31.28c-.12.05-.2.08-.21.18a.33.33,0,0,0,.08.25.33.33,0,0,1,.07.23A0,0,0,0,1,8.88,13.83Z"/><path class="cls-6" d="M7,6.65a.3.3,0,1,0-.3.3A.29.29,0,0,0,7,6.65Z"/><path class="cls-6" d="M8.73,7.05a.3.3,0,1,0-.3.3A.29.29,0,0,0,8.73,7.05Z"/><path class="cls-6" d="M7.45,11.1c0-.07-.07-.15-.18-.18s-.22,0-.23.09.06.15.18.18S7.43,11.17,7.45,11.1Z"/><path class="cls-6" d="M5.44,10.65c0-.07-.07-.15-.18-.18s-.21,0-.23.09.06.15.18.18S5.42,10.72,5.44,10.65Z"/><path class="cls-7" d="M6.37,3.67a1.63,1.63,0,0,0-.67-.82,4.11,4.11,0,0,0-.94.29,1.8,1.8,0,0,0-.43.29,1.31,1.31,0,0,1,.86.33,1.43,1.43,0,0,1,.34,1.17,2.22,2.22,0,0,1,.78-.09A1.65,1.65,0,0,0,6.37,3.67Z"/><path class="cls-7" d="M4.26,4.55a1,1,0,0,0-.72,0c-.17.33-.32.68-.47,1a1.15,1.15,0,0,1,.58.11,1.23,1.23,0,0,1,.57.58,4.85,4.85,0,0,1,.57-.85A1.08,1.08,0,0,0,4.26,4.55Z"/><path class="cls-7" d="M.68,6.28C.31,6.05.05,5.89,0,6.17a1,1,0,0,0,.22.73.48.48,0,0,0,.3-.15A.7.7,0,0,0,.68,6.28Z"/><path class="cls-7" d="M8.43,4.2A1.38,1.38,0,0,0,7.25,2.87a1.74,1.74,0,0,1,.44.89A1.79,1.79,0,0,1,7.41,5a1.29,1.29,0,0,0,1-.57.42.42,0,0,1,0-.1A.71.71,0,0,0,8.43,4.2Z"/><path class="cls-7" d="M7.59,3.77a1.79,1.79,0,0,0-.52-.94,3.57,3.57,0,0,0-1.22,0,1.75,1.75,0,0,1,.62.8,1.78,1.78,0,0,1,0,1.22A4.26,4.26,0,0,0,7.24,5h0A1.75,1.75,0,0,0,7.59,3.77Z"/><path class="cls-7" d="M3.61,5.74A1.07,1.07,0,0,0,3,5.65a3.73,3.73,0,0,1-.45.78,1.16,1.16,0,0,1,.56.32,1.13,1.13,0,0,1,.26.62,3.52,3.52,0,0,0,.77-1A1.16,1.16,0,0,0,3.61,5.74Z"/><path class="cls-7" d="M5.12,3.83a1.28,1.28,0,0,0-.89-.3,3.54,3.54,0,0,0-.62.89,1,1,0,0,1,.69,0,1.13,1.13,0,0,1,.57.83A1.32,1.32,0,0,1,5.43,5,1.39,1.39,0,0,0,5.12,3.83Z"/><path class="cls-7" d="M1.23,6.59.78,6.34a.83.83,0,0,1-.17.48A.63.63,0,0,1,.3,7a2.23,2.23,0,0,0,.81.57.81.81,0,0,0,.23-.45A.79.79,0,0,0,1.23,6.59Z"/><path class="cls-7" d="M2.49,6.52a1,1,0,0,1-.31.2A.63.63,0,0,1,2.39,7a.94.94,0,0,1-.11.76,2.25,2.25,0,0,0,.89-.25l.12-.08a1,1,0,0,0-.24-.61A1,1,0,0,0,2.49,6.52Z"/><path class="cls-7" d="M2.3,7a.61.61,0,0,0-.25-.29,1.21,1.21,0,0,1-.67-.1.87.87,0,0,1,.06.47.89.89,0,0,1-.23.48,2.37,2.37,0,0,0,1,.17A.94.94,0,0,0,2.3,7Z"/><path class="cls-7" d="M11.52,4.92a1.17,1.17,0,0,1,.59,0,2.54,2.54,0,0,0-.8-.86,1.78,1.78,0,0,0-1.43.57,1.23,1.23,0,0,0,0,1.23,1.92,1.92,0,0,1,.68.29C10.72,5.23,11.26,5,11.52,4.92Z"/><path class="cls-7" d="M9.79,4.6A1.84,1.84,0,0,1,11.15,4a2.85,2.85,0,0,0-1.27-.37,1.51,1.51,0,0,0-.76.51A1.75,1.75,0,0,0,8.85,5.5a2.16,2.16,0,0,0,.71.32l.16,0A1.28,1.28,0,0,1,9.79,4.6Z"/><path class="cls-7" d="M9,4.08a1.49,1.49,0,0,1,.55-.44,1.36,1.36,0,0,0-1.16.65s0,0,0,0l0,.1a.88.88,0,0,0,.36,1A1.74,1.74,0,0,1,9,4.08Z"/><path class="cls-7" d="M12.4,8.51a.76.76,0,0,1,.49-.15,2.53,2.53,0,0,1-.34-.95.77.77,0,0,0-.52,0,1.09,1.09,0,0,0-.58.78,2.63,2.63,0,0,0,.68,1.24A1.05,1.05,0,0,1,12.4,8.51Z"/><path class="cls-7" d="M13.1,9.28a1,1,0,0,1,.24-.41l-.12-.11a3.48,3.48,0,0,1-.26-.3.72.72,0,0,0-.5.13,1,1,0,0,0-.22.91,1.92,1.92,0,0,0,.87.38A1,1,0,0,1,13.1,9.28Z"/><path class="cls-7" d="M14.15,9a1.11,1.11,0,0,1-.72-.08,1,1,0,0,0-.24.39.93.93,0,0,0,0,.59,2.32,2.32,0,0,0,.91,0l0-.07A1.43,1.43,0,0,1,14.15,9Z"/><path class="cls-7" d="M12,7.28a.87.87,0,0,1,.53,0c0-.32,0-.65-.07-1a.85.85,0,0,0-.59,0c-.29.1-.5.41-.64.91.06.23.1.5.17.77A1.13,1.13,0,0,1,12,7.28Z"/><path class="cls-7" d="M14.26,9a1.39,1.39,0,0,0,0,.79l0,.08a1.3,1.3,0,0,0,1-1C15.29,8.55,14.81,8.86,14.26,9Z"/><path class="cls-7" d="M11.83,6.2a.94.94,0,0,1,.62,0,4.08,4.08,0,0,0-.11-.7,2.73,2.73,0,0,0-.16-.43A1,1,0,0,0,11.55,5c-.25.06-.76.29-.94,1.23a1.86,1.86,0,0,1,.39.4,1.49,1.49,0,0,1,.18.38A1.25,1.25,0,0,1,11.83,6.2Z"/><path class="cls-5" d="M14.26,9l-.11,0a1.43,1.43,0,0,0,0,.8l0,.07.1,0,0-.08A1.39,1.39,0,0,1,14.26,9Z"/><path class="cls-5" d="M13.19,9.31a1,1,0,0,1,.24-.39l-.09-.05a1,1,0,0,0-.24.41,1,1,0,0,0,0,.6l.12,0A.93.93,0,0,1,13.19,9.31Z"/><path class="cls-5" d="M12.46,8.59a.72.72,0,0,1,.5-.13.61.61,0,0,0-.07-.1.76.76,0,0,0-.49.15,1.05,1.05,0,0,0-.27.89l0,0,.07.06A1,1,0,0,1,12.46,8.59Z"/><path class="cls-5" d="M12,7.38a.77.77,0,0,1,.52,0s0-.08,0-.12a.87.87,0,0,0-.53,0,1.13,1.13,0,0,0-.6.7c0,.06,0,.12,0,.18A1.09,1.09,0,0,1,12,7.38Z"/><path class="cls-5" d="M11.87,6.3a.85.85,0,0,1,.59,0,.37.37,0,0,1,0-.11.94.94,0,0,0-.62,0,1.25,1.25,0,0,0-.65.83,1.21,1.21,0,0,0,.05.18C11.37,6.71,11.58,6.4,11.87,6.3Z"/><path class="cls-5" d="M11.55,5a1,1,0,0,1,.63.06s0-.09-.07-.13a1.17,1.17,0,0,0-.59,0c-.26.06-.8.31-1,1.26l.09.07C10.79,5.31,11.3,5.08,11.55,5Z"/><path class="cls-5" d="M9.88,4.66a1.78,1.78,0,0,1,1.43-.57L11.15,4a1.84,1.84,0,0,0-1.36.6,1.28,1.28,0,0,0-.07,1.25l.12,0A1.23,1.23,0,0,1,9.88,4.66Z"/><path class="cls-5" d="M.78,6.34l-.1-.06a.7.7,0,0,1-.15.47.48.48,0,0,1-.3.15L.3,7a.63.63,0,0,0,.31-.17A.83.83,0,0,0,.78,6.34Z"/><path class="cls-5" d="M1.38,6.65l-.15-.06a.79.79,0,0,1,.11.52.81.81,0,0,1-.23.45l.1,0a.89.89,0,0,0,.23-.48A.87.87,0,0,0,1.38,6.65Z"/><path class="cls-5" d="M2.39,7a.63.63,0,0,0-.21-.28h0l-.11,0A.61.61,0,0,1,2.3,7a.94.94,0,0,1-.13.73h.11A.94.94,0,0,0,2.39,7Z"/><path class="cls-5" d="M2.57,6.43l-.08.09a1,1,0,0,1,.56.3,1,1,0,0,1,.24.61l.1-.06a1.13,1.13,0,0,0-.26-.62A1.16,1.16,0,0,0,2.57,6.43Z"/><path class="cls-5" d="M3.65,5.65a1.15,1.15,0,0,0-.58-.11l0,.11a1.07,1.07,0,0,1,.59.09,1.16,1.16,0,0,1,.55.6l.06-.11A1.23,1.23,0,0,0,3.65,5.65Z"/><path class="cls-5" d="M4.3,4.46a1,1,0,0,0-.69,0,.83.83,0,0,0-.07.13,1,1,0,0,1,.72,0,1.08,1.08,0,0,1,.53.83l.08-.09A1.13,1.13,0,0,0,4.3,4.46Z"/><path class="cls-5" d="M5.19,3.76a1.31,1.31,0,0,0-.86-.33l-.1.1a1.28,1.28,0,0,1,.89.3A1.39,1.39,0,0,1,5.43,5h0l.09,0A1.43,1.43,0,0,0,5.19,3.76Z"/><path class="cls-5" d="M6.47,3.63a1.75,1.75,0,0,0-.62-.8l-.15,0a1.63,1.63,0,0,1,.67.82,1.65,1.65,0,0,1-.06,1.17h.11A1.78,1.78,0,0,0,6.47,3.63Z"/><path class="cls-5" d="M7.69,3.76a1.74,1.74,0,0,0-.44-.89l-.18,0a1.79,1.79,0,0,1,.52.94A1.75,1.75,0,0,1,7.29,5h.12A1.79,1.79,0,0,0,7.69,3.76Z"/><path class="cls-5" d="M9.12,4.14a1.51,1.51,0,0,1,.76-.51H9.59A1.49,1.49,0,0,0,9,4.08a1.74,1.74,0,0,0-.3,1.33.48.48,0,0,0,.11.09A1.75,1.75,0,0,1,9.12,4.14Z"/><path class="cls-8" d="M6.92,6.56a.09.09,0,0,0-.09-.09.09.09,0,1,0,0,.18A.09.09,0,0,0,6.92,6.56Z"/><circle class="cls-8" cx="8.52" cy="6.96" r="0.09"/></g></g></svg>