<svg xmlns="http://www.w3.org/2000/svg" viewBox="0 0 16.85 20.21"><defs><style>.cls-1{fill:#f78d20;}.cls-2{fill:#cb2026;}.cls-3{fill:#dbcecc;}.cls-4{fill:#112148;}.cls-5{fill:#f7f8f9;}.cls-6{fill:#1e1d1c;}.cls-7{fill:#2287c9;}.cls-8{fill:#831618;}.cls-9{fill:#f79235;}.cls-10{fill:#799b3e;}.cls-11{fill:#b5b534;}.cls-12{fill:#fcb91a;}.cls-13{fill:#f8f7f2;}</style></defs><g id="Layer_2" data-name="Layer 2"><g id="Layer_2-2" data-name="Layer 2"><path class="cls-1" d="M13.37,13.12A2.14,2.14,0,0,0,12.09,13V12.1A.13.13,0,0,0,12,12a.13.13,0,0,0-.14.13V13a.83.83,0,0,0-.82.14.11.11,0,0,0,0,.14.11.11,0,0,0,.08,0,.11.11,0,0,0,.07,0,.64.64,0,0,1,.71,0c.77.43.86.89.87.9a.11.11,0,0,0,.1.08h0a.1.1,0,0,0,.09-.12,1.55,1.55,0,0,0-.57-.77,1.85,1.85,0,0,1,.85.53.09.09,0,0,0,.08,0l.06,0a.09.09,0,0,0,0-.14,2,2,0,0,0-.89-.59,2,2,0,0,1,.8.15h0a.12.12,0,0,0,.1-.05A.11.11,0,0,0,13.37,13.12Z"/><path class="cls-1" d="M11.33,13.48a2.08,2.08,0,0,0-1.26-.24l.08-.88a.14.14,0,1,0-.28,0l-.07.89A.81.81,0,0,0,9,13.3a.11.11,0,1,0,.14.16.61.61,0,0,1,.71,0c.72.5.79,1,.79,1a.1.1,0,0,0,.1.09h0s.1-.06.09-.11a1.43,1.43,0,0,0-.5-.82,1.78,1.78,0,0,1,.8.61.15.15,0,0,0,.09,0l.06,0a.11.11,0,0,0,0-.14,2,2,0,0,0-.84-.66,2.07,2.07,0,0,1,.79.22l0,0a.11.11,0,0,0,.09-.05A.1.1,0,0,0,11.33,13.48Z"/><path class="cls-2" d="M11.08,11.52a.28.28,0,0,0,0,.06c.05.19.27.8.82.77s.83-1.1.83-1.1Z"/><path class="cls-2" d="M10.09,12.48c-.55,0-1-1.18-1-1.18l2.08.14S10.68,12.44,10.09,12.48Z"/><path class="cls-2" d="M13.43.07C13,0,11.07-.36,9.93,2.69S6.68,10,8,10.53s2.07,1.15,3.26,1.15,2.61-.34,3.29-2.85a12.14,12.14,0,0,0,.12-3.92c0-.53.38-2.66.31-3.23A1.82,1.82,0,0,0,13.43.07Z"/><path class="cls-3" d="M12,1.94c-.18.56-.21,2,2.29,1.5,2.27-.41.4-1.59.36-1.69C14.35,1.09,12.53.26,12,1.94Z"/><path class="cls-4" d="M2,19.77c.26.24,1.64-1.11,3-3.26s3.49-5.06,3.49-5.06l-.27-.17s-3.54,4.51-4,5S1.47,19.29,2,19.77Z"/><path class="cls-4" d="M5.12,18.49c.28.07,1-.91,2.11-2.94A19.53,19.53,0,0,0,8.7,11.62l-.17-.09S6.89,14.78,6.7,15.14,4.65,18.39,5.12,18.49Z"/><path class="cls-4" d="M.11,18.5c.32.19,2-1.12,3.5-2.69S8,11.23,8,11.23l-.27-.12L3.05,15.22C2.42,15.78-.43,18.16.11,18.5Z"/><path class="cls-2" d="M8,11.2s-3.79,4-5.18,5.51S-.35,19.85.06,20.16s1.53-.88,3.5-3.13S8.13,11.3,8.13,11.3Z"/><path class="cls-2" d="M3.56,19.26C4,19.6,5.7,17,6.35,15.8c.55-1,2.18-4.27,2.18-4.27l-.11-.08s-2,2.68-2.61,3.68S3.1,18.87,3.56,19.26Z"/><path class="cls-2" d="M.57,16.8c.23.29,2.34-1.47,2.83-1.89L7.59,11.2v-.14s-3.18,2.13-4.22,2.88S.25,16.4.57,16.8Z"/><path class="cls-1" d="M14,3.1a.8.8,0,0,0,.8.82,4.15,4.15,0,0,0,1.33-.41s.2-.79-1.07-.88c-.45,0-.86-.12-.86-.12A1,1,0,0,0,14,3.1Z"/><path class="cls-5" d="M13.53,1.94a.38.38,0,0,0-.38-.38c-.21,0-.31.17-.31.38s.1.38.31.38A.38.38,0,0,0,13.53,1.94Z"/><path class="cls-6" d="M13.42,2a.2.2,0,1,0-.2.2A.2.2,0,0,0,13.42,2Z"/><path class="cls-4" d="M5,12.21c-.07-.17.22-.36.22-.36s-.45.08-.55-.12.34-.5.34-.5-.4,0-.47-.22.42-.7.72-1c-.31.27-.66.57-1.08.91,0,0-.51.33-.33.64,0,0-.42.1-.36.48s.52.19.52.19a.37.37,0,0,0,.1.25,5.17,5.17,0,0,0,2.18-.08C5.46,12.48,5,12.4,5,12.21Z"/><path class="cls-7" d="M6.15,9.13c-.15.24-.28.51-.17.71s.64.16.64.16-.29.27-.15.52.68.1.68.1-.34.27-.23.52.6.19.6.19-.28.26-.17.49.42.27,1.55,0c-.3.1-.61.2-.94.28-.6.15-1.18.27-1.71.35-.79.06-1.21,0-1.29-.21s.22-.36.22-.36-.45.08-.55-.12.34-.5.34-.5-.41,0-.47-.22.33-.63.75-1C6.32,8.91,6.15,9.13,6.15,9.13Z"/><path class="cls-8" d="M14,4.68a0,0,0,0,1,0,0,.9.9,0,0,1,0-.38,0,0,0,0,1,0,0s0,0,0,0a1.34,1.34,0,0,0,0,.36s0,0,0,0Z"/><path class="cls-8" d="M11.74,1h0a0,0,0,0,1,0,0A1.1,1.1,0,0,1,12,.71a0,0,0,0,1,.05,0,0,0,0,0,1,0,.05,1,1,0,0,0-.27.2S11.75,1,11.74,1Z"/><path class="cls-8" d="M11.48,2.35h0a0,0,0,0,1,0,0A.66.66,0,0,1,11.6,2s0,0,.05,0a0,0,0,0,1,0,0,.65.65,0,0,0-.13.31S11.5,2.35,11.48,2.35Z"/><path class="cls-8" d="M10.73,2.35h0s0,0,0,0A.89.89,0,0,1,10.86,2s0,0,.05,0a0,0,0,0,1,0,0,.92.92,0,0,0-.15.32Z"/><path class="cls-8" d="M10.46,3.54h0s0,0,0,0a1.16,1.16,0,0,1,.13-.37,0,0,0,0,1,0,0,0,0,0,0,1,0,.05,1.33,1.33,0,0,0-.12.35S10.48,3.54,10.46,3.54Z"/><path class="cls-8" d="M11.19,3.54h0s0,0,0,0a1.27,1.27,0,0,1,.14-.43s0,0,0,0a0,0,0,0,1,0,.05,1.17,1.17,0,0,0-.13.41S11.21,3.54,11.19,3.54Z"/><path class="cls-8" d="M12,4h0a0,0,0,0,1,0,0,1.23,1.23,0,0,1,.09-.38,0,0,0,0,1,0,0s0,0,0,0a1.43,1.43,0,0,0-.08.36A0,0,0,0,1,12,4Z"/><path class="cls-8" d="M13,4.5a0,0,0,0,1,0,0,.88.88,0,0,1,0-.4s0,0,0,0,0,0,0,0a.93.93,0,0,0,0,.37s0,0,0,0Z"/><path class="cls-8" d="M14.4,5.88a0,0,0,0,1,0,0,1.2,1.2,0,0,0-.11-.35,0,0,0,0,1,0,0,0,0,0,0,1,0,0,1.3,1.3,0,0,1,.12.37.05.05,0,0,1,0,0Z"/><path class="cls-8" d="M14.29,8.26h0a0,0,0,0,1,0,0,.93.93,0,0,0,.05-.42s0,0,0,0,0,0,0,0a1,1,0,0,1-.06.46S14.31,8.26,14.29,8.26Z"/><path class="cls-8" d="M12.71,10.73a0,0,0,0,1,0,0s0,0,0,0a.74.74,0,0,0,.29-.18h.05a0,0,0,0,1,0,0,.83.83,0,0,1-.33.19Z"/><path class="cls-8" d="M13.71,9.76l0,0a0,0,0,0,1,0,0,1.39,1.39,0,0,0,.26-.33,0,0,0,0,1,0,0,0,0,0,0,1,0,.05,1.58,1.58,0,0,1-.27.35Z"/><path class="cls-8" d="M13.52,9.17h0a0,0,0,0,1,0-.05,1.2,1.2,0,0,0,.27-.34,0,0,0,0,1,.05,0,0,0,0,0,1,0,0,1.4,1.4,0,0,1-.29.37Z"/><path class="cls-8" d="M12.59,10.17l0,0a0,0,0,0,1,0,0,.71.71,0,0,0,.22-.2s0,0,0,0,0,0,0,0a.67.67,0,0,1-.25.23Z"/><path class="cls-8" d="M11.38,11a0,0,0,0,1,0,0s0,0,0,0a.76.76,0,0,0,.33-.16h.05a0,0,0,0,1,0,.05.71.71,0,0,1-.36.18Z"/><path class="cls-8" d="M11.73,11.34s0,0,0,0,0,0,0,0a2.38,2.38,0,0,0,.37-.1s0,0,0,0,0,0,0,0a1.89,1.89,0,0,1-.38.11Z"/><path class="cls-9" d="M14.26,2.11a1.16,1.16,0,0,1,1.67-.59,1.65,1.65,0,0,1,.84,2c-.22.66-.8,1-.95.91s.41-.81.14-1.16a1.06,1.06,0,0,0-1-.36c-.27.05-.51.09-.69-.15A.59.59,0,0,1,14.26,2.11Z"/><path class="cls-10" d="M9.73,11c-.14-.19,0-.53,0-.53s-.47.21-.67,0,.07-.7.07-.7-.5.29-.69.13,0-.68,0-.68-.55.31-.75.09.09-.68.09-.68-.51.29-.74.11.17-1.11.42-1.51l-.38.57c-.23.33-.86,1.11-1,1.28A.74.74,0,0,0,6,9.84c.19.32.64.16.64.16s-.29.27-.15.52.68.1.68.1-.34.27-.23.52.6.19.6.19-.28.26-.17.49.42.27,1.55,0a9.7,9.7,0,0,0,2.93-1.62C10.61,11.05,10,11.34,9.73,11Z"/><path class="cls-11" d="M7.12,8.79c.23.18.74-.11.74-.11s-.29.46-.09.68.75-.09.75-.09-.29.45,0,.68.69-.13.69-.13-.3.51-.07.7.67,0,.67,0-.19.34,0,.53.88,0,2.1-.84a8.66,8.66,0,0,0,1.49-1.56c-.66.86-1.4,1.27-1.66,1.05s0-.83,0-.83-.48.51-.81.29-.08-.81-.08-.81-.55.44-.92.16,0-.9,0-.9S9.27,8,9,7.78s0-.84,0-.84a.6.6,0,0,1-.7-.05c-.4-.37.46-1.34.74-1.63a5.17,5.17,0,0,0-.46.54c-.73,1-.72,1-1,1.48S6.82,8.54,7.12,8.79Z"/><path class="cls-12" d="M9.11,5.18a2.91,2.91,0,0,1,4.32.1,2.67,2.67,0,0,1,.24,2.81,3.94,3.94,0,0,1-.35.52c-.66.87-1.4,1.28-1.66,1.06s0-.83,0-.83-.49.51-.81.28-.08-.8-.08-.8-.55.44-.92.16,0-.9,0-.9-.58.43-.9.2,0-.84,0-.84a.58.58,0,0,1-.7-.05C7.89,6.53,8.7,5.54,9.11,5.18Z"/><circle class="cls-13" cx="13.25" cy="1.88" r="0.06"/></g></g></svg>