<svg xmlns="http://www.w3.org/2000/svg" viewBox="0 0 22.28 17"><defs><style>.cls-1{fill:#f4a51d;}.cls-2{fill:#d96e27;}.cls-3{fill:none;stroke:#010101;stroke-miterlimit:10;stroke-width:0.05px;}.cls-4{fill:#e09226;}.cls-5{fill:#c9c9c9;}.cls-6{fill:#232321;}.cls-7{fill:#3b393b;}.cls-8{fill:#c0bfbf;}</style></defs><g id="Layer_2" data-name="Layer 2"><g id="Layer_2-2" data-name="Layer 2"><path class="cls-1" d="M12,15.09s-.55.06-.32.72c0,0-.61-.25-.76.33l-.42-1.48Z"/><path class="cls-2" d="M9.86,14.43a.08.08,0,0,1,.11,0l.43.2v-1a.18.18,0,0,1,.17-.17.18.18,0,0,1,.17.17v1.11l1.34.32a.08.08,0,0,1,.06.1.08.08,0,0,1-.08.07h0l-1.21-.29.93.87a.09.09,0,0,1,0,.12l-.06,0a.07.07,0,0,1-.06,0l-1-.93.4,1.28a.07.07,0,0,1-.05.1h0a.09.09,0,0,1-.08-.06l-.47-1.48-.52-.24A.09.09,0,0,1,9.86,14.43Z"/><path class="cls-1" d="M9.45,15.88a.6.6,0,0,0-.56.78s-.69-.44-1,.16l0-1.48Z"/><path class="cls-2" d="M7.32,14.86a.11.11,0,0,1,.12,0l.44.33,0-1.52A.18.18,0,0,1,8,13.48a.17.17,0,0,1,.17.17l0,1.66h0l1.35.48a.07.07,0,0,1,0,.1.08.08,0,0,1-.08.06h0L8.23,15.5,9,16.67a.08.08,0,0,1,0,.12H8.92a.08.08,0,0,1-.07,0l-.8-1.23,0,1.39a.08.08,0,0,1-.09.08h0a.09.09,0,0,1-.08-.08l0-1.54L7.34,15A.08.08,0,0,1,7.32,14.86Z"/><path class="cls-1" d="M13.85,3h0c.89.28,3.74,1.18,4.59,1.48s2.68.84,3.83,1.19a6,6,0,0,1-5.07,1A9.69,9.69,0,0,1,12,3.45C12.08,3.46,13.43,3.45,13.85,3Z"/><path class="cls-3" d="M12,3.44h0S12,3.45,12,3.44Z"/><path class="cls-4" d="M13.86,2.94a2.44,2.44,0,0,0,.51-.85,71.07,71.07,0,0,1,7.91,3.52h0c-1.26-.26-3-.78-4.21-1.12A41.34,41.34,0,0,1,13.86,2.94Z"/><path class="cls-5" d="M14.46,2.36c.19-.77-.62-2.07-2.6-1.85,0,0-.38-.19-.39-.51,0,0-.06.36,0,.46a2.91,2.91,0,0,0-.39-.09s.18.19.19.29a1.28,1.28,0,0,0-.4.09s.35,0,.38.12a2.64,2.64,0,0,0-.5,1.94,46.29,46.29,0,0,0,1.58,4.77c0,.25.17.55,0,.71-.34.3-1.11-.19-1.84-.43S5.25,6.29,1.1,11.33a2.3,2.3,0,0,1-.7.43c-.33.17-.4.23-.4.39s.24.19.24.19a.32.32,0,0,0-.18.32c0,.23.4.23.45.23s-.13.11-.07.23S1.94,13,2.6,13a24.58,24.58,0,0,1,4.52.58,8.58,8.58,0,0,0,3.29.16,6.06,6.06,0,0,0,3.28-1.86,4.45,4.45,0,0,0,.71-3.39c-.2-.79-2-3.52-2.14-5a3.67,3.67,0,0,0,1.42-.29A1.48,1.48,0,0,0,14.46,2.36Z"/><path class="cls-6" d="M12.9,2.07a.18.18,0,0,1,.19-.19.19.19,0,1,1-.19.19Z"/><path class="cls-7" d="M3.6,12c-.25,0-1.67-.05-1.78-.37s.56-.28.56-.28-1.28,0-1.33-.47S2.31,10,2.31,10,2,10,1.93,9.8c0-.37,3.36-2.23,4.62-2.46s4.5-.62,4.88,1.11S9,11.24,7.75,11.5A26.58,26.58,0,0,1,3.6,12Z"/><path class="cls-7" d="M14.88,2.91h0s0,0,0,0,0-.09,0-.1a.15.15,0,0,1,.16.07s0,0,0,0a0,0,0,0,0,0,0,.18.18,0,0,0-.21-.09s-.06,0,0,.15A0,0,0,0,0,14.88,2.91Z"/><path class="cls-8" d="M11.43,8.38c-.16-.71-1.19-1.55-3.62-1.26S4.2,8.36,4.33,8.57s.94,0,.94,0-1.86.66-1.78,1.05S5,9.59,5,9.59s-1.63.42-1.69.87,1.85.09,1.85.09-.9.23-.81.46c.18.4,1.44.08,1.44.08s-.69.24-.63.44,2.76.2,4.63-.63C10.93,10.36,11.7,9.57,11.43,8.38Z"/></g></g></svg>