<svg xmlns="http://www.w3.org/2000/svg" viewBox="0 0 13.68 20"><defs><style>.cls-1{fill:#ba803a;}.cls-2{fill:#9b9b9b;}.cls-3{fill:#202c39;}.cls-4{fill:#eaeef1;}.cls-5{fill:#181919;}.cls-6{fill:#f0f2f4;}</style></defs><g id="Layer_2" data-name="Layer 2"><g id="Layer_2-2" data-name="Layer 2"><path class="cls-1" d="M8.78,18.73c-.19.29-1,.18-1,.18s.46-1.19.72-1.06A.85.85,0,0,1,8.78,18.73Z"/><path class="cls-1" d="M4.54,18.81c.27.15,1,0,1-.13v-.12a10.81,10.81,0,0,0-1.07-1.07C4.39,17.53,4.32,18.69,4.54,18.81Z"/><path class="cls-2" d="M4.69,5.22A6.72,6.72,0,0,1,3.38,7.93S5.88,7,5.94,5.22,3.87,2.94,3.87,2.94A2.46,2.46,0,0,1,4.69,5.22Z"/><path class="cls-3" d="M13.5,11.86a4.73,4.73,0,0,0-1.84-3.23,13.54,13.54,0,0,1-1.57-1.8h0C9.63,5.6,9,5.17,8.75,4,8.34,2.22,8.37,1.13,7.3.48c-2-1.2-3.2.23-3.82.26S1.54.19.92.75A8.14,8.14,0,0,0,3,1.87c.56.25.45,1,1.07,1.48s1,.33,1.21.8a2.18,2.18,0,0,1-.36,2.11c-.16.18-.68.49-1.16.86a9.51,9.51,0,0,0-2.2,2.25C.2,11.24-.26,13,.14,14.38c.2.67.77,1.6.8.83a11.58,11.58,0,0,1,.12-2.63A9.32,9.32,0,0,1,2.61,10a15.59,15.59,0,0,0-.29,1.91c-.53,5.51,5,8.74,5.22,8s1.24-1.78,1.75-2.7S11,14.57,10.62,9.66a1.23,1.23,0,0,0,0-.19c.32.28.85.76,1.23,1.15.58.61.92,2.48,1.49,3.34S13.67,13.58,13.5,11.86Z"/><path class="cls-4" d="M5.4,1.39A.41.41,0,0,0,5,1a.42.42,0,1,0,0,.83A.41.41,0,0,0,5.4,1.39Z"/><path class="cls-5" d="M5.16,1.45a.23.23,0,0,0-.24-.23.23.23,0,0,0,0,.46A.23.23,0,0,0,5.16,1.45Z"/><circle class="cls-6" cx="5.01" cy="1.37" r="0.08"/></g></g></svg>