<svg xmlns="http://www.w3.org/2000/svg" xmlns:xlink="http://www.w3.org/1999/xlink" viewBox="0 0 22.45 15.89"><defs><style>.cls-1{fill:#cacaca;}.cls-2{fill:#353030;}.cls-3{fill:#614d46;}.cls-4{fill:#685349;}.cls-5{fill:#232121;}.cls-6{opacity:0.5;fill:url(#radial-gradient);}.cls-7{fill:#aa7872;}.cls-8{fill:#5c4943;}</style><radialGradient id="radial-gradient" cx="2.33" cy="11.47" r="0.62" gradientUnits="userSpaceOnUse"><stop offset="0" stop-color="#aa7872"/><stop offset="1" stop-color="#685349"/></radialGradient></defs><g id="Layer_2" data-name="Layer 2"><g id="Layer_2-2" data-name="Layer 2"><path class="cls-1" d="M17.25,5.94,17,5.73,16.32,6l-.23.35.07.14-.09.11.31.14.82-.43L17,6.23Z"/><path class="cls-1" d="M13.53,8.35l0-.09.37-.35H13.7a2.21,2.21,0,0,1,.13-.29s-.2,0-.2,0V7.42l-.72.46-.14.43.22,0-.15.3.16,0L13,8.74l.1.13.34-.22,0-.19Z"/><path class="cls-1" d="M15.29,7.12l.21-.26-.21-.09-.17-.13.06-.11-.52.28-.08.05-.21.32.1.08-.25.33.16,0-.15.24.22.08c.34-.23.66-.45.93-.61l-.08-.09Z"/><path class="cls-1" d="M12.11,9l.19-.23H12V8.59c-.57.47-.8.83-.65,1s.45,0,.93-.26c0-.13.1-.29.1-.29Z"/><path class="cls-1" d="M18.88,5.1,18,5.38,18,5.52l.08.15-.12.14.1.1L19,5.46l0-.16Z"/><path class="cls-2" d="M13,8.68l-.16,0,.15-.3-.22,0,.14-.43a11,11,0,0,0-1,.71v.17h.34L12.11,9l.22.08s-.06.16-.1.29c.25-.13.53-.3.82-.49L13,8.74Z"/><path class="cls-2" d="M14.38,7.62l-.16,0,.25-.33-.1-.08.21-.32c-.34.19-.66.38-.95.56v.15s.23,0,.2,0a2.21,2.21,0,0,0-.13.29h.18l-.37.35,0,.09-.09.11,0,.19,1.06-.71-.22-.08Z"/><path class="cls-2" d="M16.16,6.5l-.07-.14L16.32,6c-.39.17-.78.34-1.14.52l-.06.11.17.13.21.09-.21.26v.12l.08.09.1-.06c.27-.17.57-.34.9-.52l-.31-.14Z"/><path class="cls-2" d="M18,5.67,18,5.52,18,5.38c-.31.11-.64.22-1,.35l.21.21L17,6.23l.17.09L18,5.91l-.1-.1Z"/><path class="cls-2" d="M18.88,5.1l.12.2,0,.16c1.2-.56,2.16-1,2.16-1S20.15,4.71,18.88,5.1Z"/><path class="cls-3" d="M9,13.38s-.22,2-.27,2.25-.84.38-.83,0,.52-.26.52-.26a8.85,8.85,0,0,0-.24-2.19Z"/><path class="cls-3" d="M13.46,13.11s-.22,2-.27,2.26-.84.37-.83,0,.51-.27.51-.27a8.47,8.47,0,0,0-.23-2.19Z"/><path class="cls-4" d="M3.48,7.09c-.75.08-3.12,3.1-3.42,4.1-.42,1.38,1.46,1.22,1.46,1.22a8.62,8.62,0,0,1,1,.06A10,10,0,0,0,5.38,12c.56-.18,1.79-.35,1.82,3.4,0,0-.5-.11-.51.26s.78.3.83,0,.27-2.25.27-2.25a5.47,5.47,0,0,0,5.18.16c1.57-.67,1.43,1.52,1.43,1.52s-.48-.11-.46.31c0,.25.53.23.7.11a14,14,0,0,0,.41-4.15A5.67,5.67,0,0,0,7.86,9.4,4.78,4.78,0,0,0,3.48,7.09Z"/><path class="cls-5" d="M3.36,9.31a.2.2,0,1,0-.4,0,.2.2,0,0,0,.4,0Z"/><path class="cls-2" d="M1.83,12.09h0a.63.63,0,0,1-.55.22A.57.57,0,0,1,.87,12v-.6a0,0,0,0,0,0,0s0,0,0,0V12c-.24.27-.43.2-.44.19l0,0s0,0,.09,0A.55.55,0,0,0,.84,12a.63.63,0,0,0,.4.33h.09a.79.79,0,0,0,.5-.25A0,0,0,0,0,1.83,12.09Z"/><path class="cls-2" d="M5,4.79l0,0-.12,0V4.72l-.11.07V4.72H4.61L4.49,5v.12l.08,0v.17l.09,0v.2h.08v.1H4.9c.06-.14.11-.28.17-.4L5,5Z"/><path class="cls-2" d="M5.5,4l-.08-.07,0-.09H5.23V3.77C5.13,3.9,5,4,5,4.15l0,0-.07.12.13-.07,0,.18s.08,0,.1,0a0,0,0,0,1,0,0l0,0,.06,0,.13-.07h0l.2-.35h0Z"/><path class="cls-2" d="M4.67,5.85H4.61V5.78l-.09,0V5.65H4.44l-.06-.1-.1.1L4.19,5.6,4.05,6a.11.11,0,0,0,.08,0,0,0,0,0,1,.08,0l.06,0h0l0,.11.09-.05,0,.08.14,0,.09-.23,0,0Z"/><path class="cls-2" d="M4.34,6.47l-.1.09,0-.12-.07,0V6.43L4,6.47l-.08,0c-.06.34,0,.56.06.59s.27-.16.42-.46l-.07,0Z"/><path class="cls-2" d="M6,3.11l0-.06s-.08,0-.08,0S6,3,6,3H5.85l-.27.3,0,.08v0l.12,0V3.5h.13l.06.06.21-.35v-.1Z"/><path class="cls-1" d="M5.22,4.48l-.06,0,0,0a0,0,0,0,0,0,0s-.1,0-.1,0l0-.18-.13.07L5,4.18l0,0c-.13.2-.25.39-.35.57h.08v.07l.11-.07v.07l.12,0,0,0L5,5l0,.11a1.82,1.82,0,0,1,.13-.28c0-.11.11-.23.19-.37h0Z"/><path class="cls-1" d="M5.71,3.5V3.41l-.12,0v0l0-.08-.35.44v.07h.22l0,.09L5.5,4l.09.07h0c.1-.17.2-.34.31-.51L5.84,3.5Z"/><path class="cls-1" d="M5.85,3H6s0,.07,0,.05.08,0,.08,0l0,.06H6.1v.1L6.8,2.14A9.12,9.12,0,0,0,5.85,3Z"/><path class="cls-1" d="M4.74,5.47v-.1H4.66v-.2l-.09,0V5.05l-.08,0V5c-.12.23-.22.45-.3.65l.09.05.1-.1.06.1h.08v.16l.09,0v.07h.06l0,0,0,0,.18-.45H4.74Z"/><path class="cls-1" d="M4.44,6.1l-.09.05,0-.11h0L4.21,6a0,0,0,0,0-.08,0,.11.11,0,0,1-.08,0,3.41,3.41,0,0,0-.12.52l.08,0,.12,0v.06l.07,0,0,.12.1-.09v.14l.07,0c.07-.15.15-.32.22-.5l-.14,0Z"/><path class="cls-2" d="M16.4,11.16l.05-.08L16.37,11l.11,0-.14-.11.12,0,0-.09L16,10.63l-.2,0,0,.09-.27.05.1.09-.35.06,0,.1-.18,0,0,.09v.1l.73.08.19-.07Z"/><path class="cls-2" d="M17.88,11.57l.1-.12h.16l0-.12,0-.13.11,0L17.5,11l0,0-.22,0,.14.13h-.33s.06.1,0,.13a.1.1,0,0,1-.07,0l0,.06-.06.08.14.13v.05l.66.14h0Z"/><path class="cls-2" d="M14.5,11.1l0-.07.12,0-.07-.09.28-.05,0-.1.16-.09-.19-.1.07-.12-.72-.05a.1.1,0,0,0,.05.09c.08.06,0,.1,0,.1l0,.08v.05l-.2.08.12.09-.13.08.08.16.42,0,0,0Z"/><path class="cls-2" d="M13.36,10.89l-.18-.09.19-.08-.1-.07.11,0-.09-.14-.11-.08c-.6,0-1,.13-1,.25s.33.27.88.36l.06-.09Z"/><path class="cls-2" d="M19.52,11.93l.12,0s-.06-.09-.09-.09h.09l0-.15L19,11.47l-.12,0h-.07l.09.13-.17,0,0,.16-.08.08.65.16.16-.05Z"/><path class="cls-1" d="M17,11.37l.06-.08,0-.06a.1.1,0,0,0,.07,0s0-.13,0-.13h.33L17.24,11l.22,0,0,0c-.36-.1-.72-.18-1.06-.25l0,.09-.12,0,.14.11-.11,0,.08.13-.05.08-.28.12-.19.07.52.08.66.12V11.5Z"/><path class="cls-1" d="M18.77,11.67l.17,0-.09-.13h.07l.12,0c-.28-.11-.56-.21-.83-.29l-.11,0,0,.13,0,.12H18l-.1.12-.11.12h0l.95.22.08-.08Z"/><path class="cls-1" d="M19.61,11.7l0,.15h-.09s.09.09.09.09l-.12,0V12l-.16.05,2,.51A15.79,15.79,0,0,0,19.61,11.7Z"/><path class="cls-1" d="M15.17,11.08l.18,0,0-.1.35-.06-.1-.09.27-.05,0-.09.2,0c-.41-.08-.81-.13-1.18-.17l-.07.12.19.1-.16.09,0,.1-.28.05.07.09-.12,0,0,.07-.07.05,0,0,.81.08v-.1Z"/><path class="cls-1" d="M14,10.9l-.12-.09.2-.08v-.05l0-.08s.11,0,0-.1a.1.1,0,0,1-.05-.09,7.19,7.19,0,0,0-.93,0l.11.08.09.14-.11,0,.1.07-.19.08.18.09-.24,0-.06.09c.27.05.58.09.91.12L13.89,11Z"/><path class="cls-2" d="M14,5.24V5.15l-.15,0L13.91,5h-.18l.07-.09-.07-.06-.37.23-.13.17.1,0-.17.23h.13l-.21.28.09.06L13.06,6l.06.05.09.07.58-.43.09-.18Z"/><path class="cls-2" d="M15.36,4.53V4.37l.12-.1-.09-.08-.12-.08L15.34,4c-.23.1-.45.21-.67.33v.06l-.19.11h.19l-.23.22s.1,0,.09.07a.06.06,0,0,1,0,.06l.07,0V5h.19l0,0,.58-.34h0Z"/><path class="cls-2" d="M12.58,6.5l-.06,0,.07-.09-.11,0,.16-.23-.07-.06,0-.17-.21,0,0-.13c-.2.16-.39.31-.56.46a.12.12,0,0,0,.09,0c.11,0,.05.09.05.09l0,.08,0,0-.09.2.15,0,0,.15.17.07.33-.25V6.58Z"/><path class="cls-2" d="M11.6,7.12l-.19,0L11.49,7l-.12,0,.07-.09-.17,0-.13,0c-.42.43-.62.75-.56.86s.42,0,.89-.33l0-.11Z"/><path class="cls-2" d="M16.81,3.68l.1-.07s-.1,0-.12,0l.05-.07-.11-.08-.58.22-.06.11,0,.05.15,0L16.09,4l.13.09v.12l.59-.32.08-.15Z"/><path class="cls-1" d="M14.57,5V4.9l-.07,0a.06.06,0,0,0,0-.06s-.09-.07-.09-.07l.23-.22h-.19l.19-.11V4.35c-.33.17-.65.35-.94.53l.07.06L13.73,5h.18l-.07.09.15,0v.09l-.12.29-.09.18.43-.31L14.79,5l0,0Z"/><path class="cls-1" d="M16.09,4l.11-.13-.15,0,0-.05.06-.11c-.28.11-.55.23-.81.35l-.07.09.12.08.09.08-.12.1V4.7h0l.84-.49V4.09Z"/><path class="cls-1" d="M16.73,3.45l.11.08-.05.07s.12,0,.12,0l-.1.07.07.06-.08.15,1.79-1A14.92,14.92,0,0,0,16.73,3.45Z"/><path class="cls-1" d="M13.06,6l.11-.14-.09-.06.21-.28h-.13l.17-.23-.1,0,.13-.17c-.36.23-.68.47-1,.69l0,.13.21,0,0,.17.07.06-.16.23.11,0-.07.09.06,0,0,.08v.06l.66-.5-.09-.07Z"/><path class="cls-1" d="M12.09,6.67l-.15,0,.09-.2,0,0,0-.08s.06-.11-.05-.09a.12.12,0,0,1-.09,0,7.2,7.2,0,0,0-.68.63l.13,0,.17,0L11.37,7l.12,0-.08.19.19,0-.15.19,0,.11c.23-.15.48-.34.75-.53l-.17-.07Z"/><path class="cls-2" d="M16.2,9.83l0-.07-.08-.13.11,0-.13-.11.11,0,0-.1-.42-.07-.21,0,.05.1-.28.05.1.09-.34.06,0,.11-.18,0,0,.08L15,10l.72.07.19-.08Z"/><path class="cls-2" d="M17.68,10.22l.1-.12H18l0-.12,0-.14.11,0-.71-.21-.05.05L17,9.62l.13.14h-.32s.06.1,0,.12a.08.08,0,0,1-.07,0l0,.06-.06.08.14.13v.05l.65.13h0Z"/><path class="cls-2" d="M14.3,9.81l0-.07.11,0-.06-.1.28-.06,0-.09.15-.1-.19-.09.07-.12c-.25,0-.5,0-.72,0a.11.11,0,0,0,0,.09c.08,0,0,.1,0,.1l0,.07v.06l-.19.08.12.09-.13.08.08.17.42,0,0,0Z"/><path class="cls-2" d="M13.15,9.61,13,9.52l.18-.08-.1-.07.12,0-.1-.14L13,9.13c-.6,0-1,.15-1,.26s.33.27.89.36l.05-.1Z"/><path class="cls-2" d="M19.33,10.57h.12s-.06-.09-.09-.09h.09l0-.15-.58-.22-.12,0h-.06l.09.13-.17,0,0,.15-.08.09.65.15.16-.05Z"/><path class="cls-1" d="M16.78,10l.06-.08,0-.06a.08.08,0,0,0,.07,0s0-.12,0-.12h.32L17,9.62l.21.05.05-.05-1.07-.24,0,.1-.11,0,.13.11-.11,0,.08.13,0,.07-.28.13-.19.08.52.06.67.12v-.05Z"/><path class="cls-1" d="M18.58,10.32l.17,0-.09-.13h.06l.12,0c-.28-.1-.55-.2-.83-.28l-.11,0,0,.14,0,.12h-.17l-.1.12-.11.13h0l1,.21.08-.09Z"/><path class="cls-1" d="M19.42,10.33l0,.15h-.09s.09.09.09.09h-.12v.09l-.16.05c1.08.25,2,.48,2,.48A15.7,15.7,0,0,0,19.42,10.33Z"/><path class="cls-1" d="M15,9.78l.18,0,0-.11.34-.06-.1-.09.28-.05-.05-.1.21,0c-.42-.07-.82-.12-1.19-.15l-.07.12.19.09-.15.1,0,.09-.28.06.06.1-.11,0,0,.07-.07,0,0,0L15,10l0-.11Z"/><path class="cls-1" d="M13.82,9.61l-.12-.09.19-.08V9.38l0-.07s.11-.05,0-.1a.11.11,0,0,1,0-.09c-.35,0-.66,0-.93,0l.11.08.1.14-.12,0,.1.07L13,9.52l.17.09-.24,0-.05.1.91.11-.08-.17Z"/><path class="cls-2" d="M17.23,8.56V8.47l-.12-.09.1-.06-.16-.06.09,0,0-.09-.43.08-.17.11.07.07-.24.14.13.05-.3.18.05.09-.15.09,0,.08.06.09.7-.19L17,8.78Z"/><path class="cls-2" d="M18.75,8.4l.06-.15L19,8.2l-.06-.1L18.83,8l.09-.06c-.25,0-.5,0-.74.06l0,0-.22,0,.17.07-.3.12s.09.07.07.11a.17.17,0,0,1-.07,0l.06,0,0,.09.17.08,0,.05.66-.11h0Z"/><path class="cls-2" d="M15.44,9.2l0-.06.1-.06L15.4,9l.24-.15-.05-.08.11-.15-.21,0,0-.13-.69.21a.14.14,0,0,0,.08.07c.1,0,0,.1,0,.1V9l0,0-.16.15.15,0-.09.12.13.13.41-.11,0-.05Z"/><path class="cls-2" d="M14.29,9.41l-.19,0,.14-.14-.11,0,.1-.06-.14-.09L14,9c-.55.25-.86.47-.84.59s.4.14,1,0l0-.1Z"/><path class="cls-2" d="M20.41,8.15l.12,0s-.08-.06-.11,0L20.5,8l-.08-.12H19.8L19.7,8l-.05,0,.13.09-.15.09.08.13-.05.11.66-.09.14-.1Z"/><path class="cls-1" d="M17.85,8.54l0-.09-.06,0a.17.17,0,0,0,.07,0s-.07-.11-.07-.11l.3-.12-.17-.07.22,0,0,0c-.37,0-.73.08-1.08.14l0,.09-.09,0,.16.06-.1.06.12.09v.09L17,8.78l-.15.13.51-.12L18,8.67l0-.05Z"/><path class="cls-1" d="M19.63,8.18l.15-.09L19.65,8l.05,0,.1-.08c-.3,0-.59,0-.88,0L18.83,8l.07.12.06.1-.15.05-.06.15-.05.16h0l1-.14.05-.11Z"/><path class="cls-1" d="M20.42,7.9,20.5,8l-.08.05s.11,0,.11,0l-.12,0,.05.08-.14.1c1.1-.14,2-.24,2-.24A14.63,14.63,0,0,0,20.42,7.9Z"/><path class="cls-1" d="M16.06,8.93l.15-.09-.05-.09.3-.18-.13-.05.24-.14-.07-.07.17-.11c-.41.08-.8.18-1.16.28l0,.13.21,0-.11.15.05.08L15.4,9l.1.07-.1.06,0,.06,0,.07,0,.05.79-.22L16.1,9Z"/><path class="cls-1" d="M14.92,9.18l-.15,0L14.93,9l0,0V8.86s.09-.08,0-.1a.14.14,0,0,1-.08-.07A8.58,8.58,0,0,0,14,9l.13,0,.14.09-.1.06.11,0-.14.14.19,0-.2.13,0,.1c.26-.05.57-.13.89-.21l-.13-.13Z"/><path class="cls-2" d="M7,4.27l0-.08H6.78l0-.1-.17,0,0-.1L6.63,4l-.32.3-.09.18.1,0-.13.25.13,0L6.17,5l.09,0-.08.16.07,0,.1,0,.49-.53.06-.19Z"/><path class="cls-2" d="M8.17,3.33l0-.16.1-.12L8.13,3,8,2.93l.05-.1c-.21.14-.41.29-.6.44v.06l-.17.15.19,0-.19.26s.11,0,.11.06a.11.11,0,0,1,0,.07h.07l0,.09.19,0,0,0,.5-.44h0Z"/><path class="cls-2" d="M5.79,5.77l-.06,0,0-.1H5.66l.13-.25-.09,0,0-.18-.19.09-.06-.12L5,5.67a.12.12,0,0,0,.1,0c.1,0,.07.08.07.08l0,.07,0,0,0,.2.14,0v.16l.18,0,.29-.31V5.77Z"/><path class="cls-2" d="M4.94,6.56l-.17.09,0-.2-.11,0,0-.1H4.58l-.13,0c-.33.5-.47.85-.39,1s.41-.1.81-.49l0-.1Z"/><path class="cls-2" d="M9.44,2.23l.09-.09s-.11,0-.12,0,0-.08,0-.08L9.31,2l-.53.33,0,.12,0,0h.15l-.08.15.14.07,0,.12.51-.43.06-.16Z"/><path class="cls-1" d="M7.48,3.93l0-.09H7.38a.11.11,0,0,0,0-.07s-.11-.06-.11-.06l.19-.26-.19,0,.17-.15V3.27c-.29.24-.57.47-.83.7l.08,0,0,.1.17,0,0,.1h.15l0,.08-.07.31-.06.19.37-.37.5-.47,0,0Z"/><path class="cls-1" d="M8.79,2.67l.08-.15H8.72l0,0,0-.12c-.25.16-.49.32-.72.49L8,2.93,8.13,3l.11.06-.1.12,0,.16,0,.16h0L9,2.86l0-.12Z"/><path class="cls-1" d="M9.31,2l.13.07s0,.1,0,.08.12,0,.12,0l-.09.09.08,0-.06.16c.86-.71,1.59-1.29,1.59-1.29A15.68,15.68,0,0,0,9.31,2Z"/><path class="cls-1" d="M6.18,5.22l.08-.16L6.17,5l.15-.31-.13,0,.13-.25-.1,0,.09-.18c-.31.29-.59.58-.84.85l.06.12.19-.09,0,.18.09,0-.13.25h.12l0,.1.06,0v.14l.55-.61-.1,0Z"/><path class="cls-1" d="M5.34,6l-.14,0,0-.2,0,0,0-.07s0-.12-.07-.08a.12.12,0,0,1-.1,0,8.77,8.77,0,0,0-.55.75l.13,0h.17l0,.1.11,0,0,.2.17-.09-.11.22,0,.1c.2-.19.42-.42.64-.66l-.18,0Z"/><path class="cls-2" d="M1.88,9.37h0a0,0,0,0,1,0,0,2.34,2.34,0,0,1,.43-.41s0,0,0,0a0,0,0,0,1,0,0,2.39,2.39,0,0,0-.42.39Z"/><path class="cls-2" d="M1.17,10.13h0a0,0,0,0,1,0,0,1,1,0,0,1,.34-.32h0s0,0,0,0a1.47,1.47,0,0,0-.33.3S1.18,10.13,1.17,10.13Z"/><path class="cls-2" d="M2.06,10H2s0,0,0,0a.94.94,0,0,1,.44-.3h0s0,0,0,0a.94.94,0,0,0-.41.28Z"/><path class="cls-2" d="M2.81,10.23h0s0,0,0,0A1.15,1.15,0,0,1,3.36,10a0,0,0,0,1,0,0l0,0a1.21,1.21,0,0,0-.54.16Z"/><path class="cls-2" d="M4.12,10.67h0a0,0,0,0,1,0,0,1.78,1.78,0,0,1,.71-.12s0,0,0,0,0,0,0,0a2.24,2.24,0,0,0-.7.12Z"/><path class="cls-2" d="M4.29,9.72h0a0,0,0,0,1,0,0,1.55,1.55,0,0,1,.65-.11l0,0s0,0,0,0a1.81,1.81,0,0,0-.62.11Z"/><path class="cls-2" d="M4.47,8.85h0s0,0,0,0a1.2,1.2,0,0,1,.62-.24l0,0s0,0,0,0a1.21,1.21,0,0,0-.6.22Z"/><path class="cls-2" d="M3.89,8.36h0a0,0,0,0,1,0,0,1.48,1.48,0,0,1,.54-.4s0,0,0,0a0,0,0,0,1,0,0,1.32,1.32,0,0,0-.52.39Z"/><path class="cls-2" d="M2.9,8.44h0a0,0,0,0,1,0,0,2,2,0,0,1,.49-.48h0a0,0,0,0,1,0,0,1.92,1.92,0,0,0-.47.48Z"/><path class="cls-6" d="M2.94,11.47a.61.61,0,0,0-.61-.62.62.62,0,0,0,0,1.24A.61.61,0,0,0,2.94,11.47Z"/><path class="cls-1" d="M3.87,5.06V5L3.73,5l0-.22-.14.11,0-.06c-.09.19-.18.38-.26.58l0,0,.08,0,0,.06.09,0,0,0h.14l.06,0A3.69,3.69,0,0,1,4,5.15l0-.12Z"/><path class="cls-1" d="M3.48,6.08l-.13,0,0-.09H3.18V6h0c-.07.22-.13.43-.17.62H3l0,.07.12,0,0,0,.06,0,.06,0,.11,0,.14-.56H3.55Z"/><path class="cls-1" d="M4.39,4l.11-.23-.15.1,0-.07-.1.06V3.79l-.21.29,0,.1h0l0,.14.16-.06h.05l0,0,0,.09c0-.09.1-.18.16-.27L4.46,4Z"/><path class="cls-1" d="M5.32,2.77l.09-.11-.08,0V2.64l0,0,0,0c-.15.15-.31.32-.46.49l0,0h0v0H5v0l.11,0,.37-.54Z"/><path class="cls-2" d="M4.32,4.27H4.27l-.16.06,0-.14h0l0-.1a4.53,4.53,0,0,0-.26.4c-.06.11-.13.23-.19.36l0,.06.14-.11,0,.22.15,0v.08l.07,0,0,.12a3.75,3.75,0,0,1,.19-.41c.06-.12.14-.26.23-.41l0-.09Z"/><path class="cls-2" d="M3.31,6.67l-.06,0,0,0-.12,0,0-.07H3c-.1.5-.09.88.1.92s.28-.3.41-.86l-.11,0Z"/><path class="cls-2" d="M3.64,5.53H3.59l0,0-.09,0,0-.06-.08,0,0,0c-.08.2-.14.39-.2.58h0V6h.13l0,.09.13,0,.07,0h.07c0-.18.11-.36.17-.55l-.06,0Z"/><path class="cls-2" d="M5,3.23H4.87v0h0l0,0c-.19.21-.38.43-.55.65v.07l.1-.06,0,.07.15-.1L4.39,4h.07l.08.07c.16-.25.33-.51.51-.76l-.11,0Z"/><path class="cls-2" d="M5.34,2.64V2.7l.08,0-.09.11h.1c.35-.5.63-.86.63-.86s-.35.31-.78.75l0,0Z"/><path class="cls-1" d="M12.56,12.51h.08l-.05-.17h.21l-.12-.15.05,0a5,5,0,0,0-.58-.21l0,0v.09l0,0,0,.1,0,0v.25l.41.13.11,0Z"/><path class="cls-1" d="M11.56,12.22l0-.16L11.6,12l0-.16h0l0-.06a4.86,4.86,0,0,0-.6-.09v.09l-.05.07L11,12l0,.06.05.06,0,.08.05.12.54.07,0-.08Z"/><path class="cls-1" d="M13.61,13l.23.09-.11-.16h.07l-.07-.1.07,0-.3-.21-.09.07v.05h-.13l.07.18v.06l0,0-.07,0,.27.15.06-.11Z"/><path class="cls-1" d="M14.89,13.85l.11.09L15,13.85H15l0,0,0,0-.52-.46,0,0v.06h0v.1h0v.12l.55.36Z"/><path class="cls-2" d="M13.36,12.91v-.06l-.07-.18h.13v-.05l.09-.07-.4-.24-.37-.16-.05,0,.12.15h-.21l.05.17h-.08l0,.08-.11,0a3.25,3.25,0,0,1,.4.15l.42.21.07,0Z"/><path class="cls-2" d="M11,12.12l-.05-.06L11,12l0-.14.05-.07V11.7c-.48,0-.83,0-.85.28s.32.28.86.34L11,12.2Z"/><path class="cls-2" d="M12.09,12.31v-.06l0,0,0-.1,0,0V12l0,0a5.12,5.12,0,0,0-.56-.15l0,.06h0l0,.16-.08.06,0,.16,0,.09,0,.08c.17,0,.35.06.54.11v-.19Z"/><path class="cls-2" d="M14.4,13.49v-.1h0v-.06l0,0a8.33,8.33,0,0,0-.67-.54l-.07,0,.07.1h-.07l.11.16L13.61,13l0,.08-.06.11c.25.14.52.31.78.47v-.12Z"/><path class="cls-2" d="M15,13.85H15l.05.09-.11-.09,0,.12c.51.33.88.6.88.6s-.33-.36-.8-.81l0,0Z"/><path class="cls-1" d="M8.25,7.2l.06-.07-.15,0,.15-.17-.17,0V6.87c-.18.11-.35.23-.53.36v0l.06.06v.06h.09v0l0,0,.06,0,0,.06a3.44,3.44,0,0,1,.36-.28l.05-.1Z"/><path class="cls-1" d="M7.39,7.86l-.13-.05V7.7l-.11-.06,0,0,0,0L6.66,8l.07,0v.08l.11.05v.07h.07l0,.07.12,0L7.48,8l-.07,0Z"/><path class="cls-1" d="M9.26,6.58l.21-.14H9.29l.05-.06H9.23l0-.06a2.52,2.52,0,0,0-.33.13l0,.11,0,0-.09.1.17,0,0,0h0l0,.08.28-.14,0-.1Z"/><path class="cls-1" d="M10.7,6l.13,0h-.09l0,0h0l0,0-.65.18v0l0,0,0,0,.06,0,0,0,.08.06.61-.26Z"/><path class="cls-2" d="M9.06,6.77l0,0-.17,0,.09-.1,0,0,0-.11a3.45,3.45,0,0,0-.43.2,3.35,3.35,0,0,0-.36.21v.06l.17,0-.15.17.15,0-.06.07h.08l-.05.1.38-.24.41-.23,0-.08Z"/><path class="cls-2" d="M6.93,8.27H6.86V8.21l-.11-.05V8.08L6.66,8c-.35.38-.54.7-.4.84s.4-.11.81-.52L7,8.34Z"/><path class="cls-2" d="M7.81,7.48l0,0v0H7.67V7.33l-.06-.06v0l-.48.37,0,0,0,0,.11.06v.11l.13.05,0,.08.07,0a5.7,5.7,0,0,1,.44-.37l0-.06Z"/><path class="cls-2" d="M10.14,6.22l-.06,0,0,0,0,0v0a7.46,7.46,0,0,0-.8.26l0,.06h.11l-.05.06h.18l-.21.14.06,0,0,.1.83-.38-.08-.06Z"/><path class="cls-2" d="M10.78,5.92l0,0h.09L10.7,6l.09,0,1-.4s-.45.08-1.06.23l0,0Z"/><path class="cls-1" d="M4.49,5.08l0-.08H4.36l.06-.21-.15.09,0-.06c-.11.18-.22.37-.32.56l0,0,.08,0,0,.06.1,0,0,0h0l.08,0,.07,0c.06-.13.13-.26.2-.4V5.05Z"/><path class="cls-1" d="M4,6.05H3.87l0-.09H3.71v0H3.67c-.09.21-.17.41-.23.6h.08l0,.07h.12l0,0,.06,0,.05.06.12,0c0-.17.12-.35.19-.54H4.07Z"/><path class="cls-1" d="M5.12,4.08l.12-.22-.15.08,0-.07-.1,0V3.85l-.24.26,0,.11h0l0,.13.16,0,0,0,0,0V4.4c.06-.08.12-.17.19-.25l-.07-.08Z"/><path class="cls-1" d="M6.16,2.94l.1-.1-.08,0,0-.06,0,0,0,0-.51.44,0,0h0v0l.08,0v0l.1,0c.14-.18.29-.35.42-.5Z"/><path class="cls-2" d="M5,4.34l0,0-.16,0,0-.13h0l0-.11-.3.38c-.07.11-.15.22-.22.34l0,.06.15-.09L4.36,5h.15l0,.08.08,0v.12a3,3,0,0,1,.23-.38c.07-.12.17-.25.27-.39V4.31Z"/><path class="cls-2" d="M3.78,6.62l-.06,0,0,0H3.56l0-.07H3.44c-.15.49-.17.87,0,.93s.31-.28.5-.82l-.12,0Z"/><path class="cls-2" d="M4.22,5.52h0l0,0-.1,0,0-.06L4,5.43l0,0c-.09.18-.18.37-.26.55h.05V6h.13l0,.09H4l.06.06h.07c.07-.17.14-.35.23-.54l-.07,0Z"/><path class="cls-2" d="M5.75,3.37l-.08,0v0h0l0,0c-.2.19-.41.39-.6.59v.07l.1,0,0,.07.15-.08-.12.22h.07l.07.08c.18-.23.38-.48.58-.71l-.1,0Z"/><path class="cls-2" d="M6.2,2.81l0,.06.08,0-.1.1h.1L7,2.14s-.38.28-.85.68l0,0Z"/><path class="cls-1" d="M15.85,7.4l.1-.08-.22-.14L16,7l-.29,0,0-.1c-.3.11-.61.23-.91.36v.08l.09.11,0,.11.16.06V7.6l.06.07.1.12.07.11c.19-.1.4-.2.62-.29L16,7.46Z"/><path class="cls-1" d="M14.35,8.11,14.16,8l0-.16L14,7.67l0,0L14,7.6a9.13,9.13,0,0,0-.83.52l.11.08v.14l.17.13v.1l.12,0,0,.13.18.09.73-.48-.11-.07Z"/><path class="cls-1" d="M17.57,6.82l.36-.14-.29-.06.1-.08-.19,0,.06-.09-.56.07L17,6.65l.06.06-.16.13.26.13.06.07h.07l-.06.12.47-.1,0-.18Z"/><path class="cls-1" d="M20,6.52l.21,0-.13,0,.07-.06-.09,0,0-.06c-.34,0-.71,0-1.08,0v.07l.06.07,0,0,.09.11-.06,0,.12.15c.35-.07.7-.12,1-.17Z"/><path class="cls-2" d="M17.22,7,17.16,7l-.26-.13.16-.13L17,6.65l.05-.17c-.25,0-.5.09-.72.15l-.61.19,0,.1L16,7l-.26.21.22.14-.1.08.12.06-.09.15c.21-.09.42-.17.64-.24s.45-.13.71-.2l.06-.12Z"/><path class="cls-2" d="M13.55,8.59l-.12,0v-.1l-.17-.13V8.2l-.11-.08c-.62.45-1,.9-.77,1.19s.66,0,1.38-.5l-.18-.09Z"/><path class="cls-2" d="M15.09,7.67,15,7.6V7.54l-.16-.06,0-.11-.09-.11V7.18A9.19,9.19,0,0,0,14,7.6l.07.05,0,0,.17.15,0,.16.19.13,0,.15.11.07c.23-.14.49-.29.77-.43l-.07-.11Z"/><path class="cls-2" d="M19.05,6.61,19,6.5l0,0-.06-.07V6.32c-.45,0-.9,0-1.34.09l-.06.09.19,0-.1.08.29.06-.36.14.1.07,0,.18c.45-.1.93-.19,1.41-.27L19,6.65Z"/><path class="cls-2" d="M20.14,6.4l-.07.06.13,0-.21,0,.14.11c.93-.15,1.65-.24,1.65-.24S21,6.33,20,6.32l0,.06Z"/><path class="cls-1" d="M12.45,5.84l.09-.13-.23,0,.26-.34-.29.08V5.3c-.3.25-.6.51-.89.79v.08l.1.07,0,.12h.16v.06l.06,0,.1.07.07.08L12.49,6l.08-.2Z"/><path class="cls-1" d="M11,7.25l-.2,0,0-.18L10.62,7l0,0-.07,0c-.3.32-.57.62-.8.91l.1,0V8l.17,0v.11l.12,0,0,.13h.19c.21-.25.45-.53.71-.82l-.11,0Z"/><path class="cls-1" d="M14.15,4.45l.35-.31-.29.07.09-.12-.19,0L14.17,4a6.32,6.32,0,0,0-.56.33l0,.19.06,0-.16.21.27,0,.06,0,.07,0,0,.15.47-.33,0-.17Z"/><path class="cls-1" d="M16.56,3l.21-.12h-.14l.07-.09-.09,0,0,0-1.08.5v.08l.06,0,0,0,.1.07-.06.08.12.09,1-.64Z"/><path class="cls-2" d="M13.8,4.84l-.06,0-.27,0,.16-.21-.06,0,0-.19c-.25.16-.5.32-.72.48l-.6.47v.11l.29-.08-.26.34.23,0-.09.13h.12l-.08.2.63-.54c.2-.16.44-.34.7-.52l0-.15Z"/><path class="cls-2" d="M10.19,8.1l-.12,0V8L9.89,8V7.84l-.1,0c-.62.76-.95,1.38-.73,1.58s.66-.32,1.36-1.15h-.19Z"/><path class="cls-2" d="M11.7,6.46l-.06,0V6.35h-.16l0-.12-.1-.07V6.09c-.29.26-.56.53-.82.8l.07,0,0,0L10.8,7l0,.18.2,0,0,.13.11,0c.23-.26.48-.52.75-.8l-.07-.08Z"/><path class="cls-2" d="M15.62,3.55l-.1-.07,0,0-.06,0V3.31c-.45.22-.9.46-1.34.71l-.06.12.19,0-.09.12.29-.07-.35.31.1,0,0,.17c.44-.3.92-.62,1.39-.92l-.12-.09Z"/><path class="cls-2" d="M16.7,2.84l-.07.09h.14L16.56,3l.14,0c.93-.58,1.65-1,1.65-1s-.76.28-1.76.73l0,0Z"/><path class="cls-1" d="M15.07,3.51l.08,0v.19l0,0,.37-.44,0-.11-.08,0,0-.09-.08,0V2.92L15,3.28l.07.12Z"/><path class="cls-1" d="M12.93,6.24,13,6.1s-.13,0-.11,0a.17.17,0,0,0,0-.12L12.72,6l.13-.21-.17,0L12.51,6c-.14.2-.28.4-.41.61l.18-.08-.06.2.07,0,0,.11h.1V7l.23-.08v.17h.16a5.69,5.69,0,0,1,.33-.52l.05-.07V6.22Z"/><path class="cls-1" d="M11.74,8.31l.09-.22L11.67,8V7.88L11.54,8V7.75l-.19,0c-.18.31-.34.62-.48.9,0,.13,0,.23,0,.23l.15-.09,0,.16.26,0-.08.35.18-.09.18-.06.36-.7,0-.14Z"/><path class="cls-1" d="M14.55,4.33l-.15.08V4.22l-.14,0L14.32,4l-.05,0c-.2.19-.4.39-.59.6v0l-.09.22h.19l0,.2.08-.1v.18L14,5l0,.23.06,0,.53-.69Z"/><path class="cls-2" d="M11.26,9.31,11.34,9l-.26,0,0-.16-.15.09s0-.1,0-.23c-.52,1.07-.74,1.86-.46,2s.72-.55,1.21-1.48l-.18.06Z"/><path class="cls-2" d="M12.59,6.92,12.36,7V6.84h-.1l0-.11-.07,0,.06-.2-.18.08c-.27.41-.53.82-.75,1.22l.19,0V8l.13-.09V8l.16.06-.09.22h.2l0,.14c.23-.44.48-.91.77-1.37h-.16Z"/><path class="cls-2" d="M14,5l-.19.1V4.9l-.08.1,0-.2H13.6l.09-.22v0a13.48,13.48,0,0,0-1,1.17l.17,0L12.72,6l.17-.06a.17.17,0,0,1,0,.12c0,.08.11,0,.11,0l-.06.14.19,0V6.5c.29-.42.6-.84.9-1.25l-.06,0Z"/><path class="cls-2" d="M14.27,4.25l.14,0v.19l.15-.08v.23l.63-.8,0,0V3.54l-.08,0V3.4L15,3.28c-.24.22-.48.44-.72.68l.05,0Z"/><path class="cls-2" d="M15.48,3.08l0,.09.08,0,0,.11c.81-1,1.41-1.66,1.41-1.66s-.69.5-1.57,1.26v.14Z"/><path class="cls-1" d="M12.47,2.5l.08,0v.18l.06,0c.12-.16.23-.32.33-.47l0-.11-.08,0,0-.09-.08,0V1.89l-.39.39.08.11Z"/><path class="cls-1" d="M10.53,5.38l.05-.15s-.14,0-.11,0a.24.24,0,0,0,0-.13l-.17.08.11-.22-.17,0-.15.25c-.13.21-.25.42-.37.63l.17-.09,0,.21.07,0L9.9,6H10v.15l.22-.09,0,.17.15,0,.3-.53.05-.08,0-.28Z"/><path class="cls-1" d="M9.49,7.52l.07-.22-.17-.06V7.1l-.12.1V7L9.06,7c-.16.33-.3.64-.42.94,0,.12,0,.22,0,.22l.14-.1,0,.16.26-.05-.06.35.17-.1.18-.07c.1-.22.2-.47.31-.72l-.05-.14Z"/><path class="cls-1" d="M12,3.36l-.15.09V3.26l-.14,0,0-.25L11.7,3c-.18.21-.37.42-.54.64v0l-.07.23.19,0,0,.21L11.34,4v.18L11.53,4l0,.24.06,0L12,3.59Z"/><path class="cls-2" d="M9.07,8.55l.06-.35-.26.05,0-.16-.14.1s0-.1,0-.22c-.45,1.09-.61,1.9-.32,2s.68-.6,1.1-1.56l-.18.07Z"/><path class="cls-2" d="M10.23,6.08,10,6.17V6H9.9l0-.11-.07,0,0-.21-.17.09c-.24.43-.47.86-.66,1.27L9.25,7V7.2l.12-.1v.14l.17.06-.07.22h.19l.05.14c.2-.46.42-1,.67-1.43l-.15,0Z"/><path class="cls-2" d="M11.53,4l-.18.12V4l-.08.11,0-.21-.19,0,.07-.23v0a14.56,14.56,0,0,0-.92,1.23l.17,0-.11.22.17-.08a.24.24,0,0,1,0,.13c0,.08.11,0,.11,0l-.05.15.18,0,0,.28c.25-.44.53-.88.81-1.31l-.06,0Z"/><path class="cls-2" d="M11.72,3.3l.14,0v.19L12,3.36l0,.23.57-.84-.06,0V2.53l-.08,0V2.39l-.08-.11c-.22.23-.45.47-.68.73l.06,0Z"/><path class="cls-2" d="M12.85,2.05l0,.09.08,0,0,.11c.74-1,1.3-1.75,1.3-1.75s-.65.54-1.47,1.36V2Z"/><path class="cls-1" d="M16.79,4.92l.07.06-.07.17,0,.06.48-.32V4.77l-.07,0,.06-.08-.06,0,.05-.13-.51.23,0,.13Z"/><path class="cls-1" d="M13.94,6.9,14,6.78s-.13,0-.08-.07a.16.16,0,0,0,0-.12h-.18L14,6.43l-.14-.09-.24.17L13,7l.2,0-.12.18.06,0-.06.09.09,0-.05.16h.24l-.05.16.16,0L14,7.26l.07-.06.07-.27Z"/><path class="cls-1" d="M12.19,8.52l.14-.19-.13-.1,0-.14-.15.05.07-.22H12c-.26.24-.51.49-.72.72a1.72,1.72,0,0,0,0,.22l.17,0,0,.17.25,0-.17.31.19,0a.57.57,0,0,1,.19,0l.55-.56V8.59Z"/><path class="cls-1" d="M16.05,5.56l-.17,0L16,5.41l-.15,0,.13-.21,0-.06c-.25.12-.5.26-.74.39v0L15,5.74l.18,0L15.09,6l.11-.07-.06.17.21,0-.11.21,0,0,.71-.5Z"/><path class="cls-2" d="M11.43,9.33,11.6,9l-.25,0,0-.17-.17,0a1.72,1.72,0,0,1,0-.22c-.82.86-1.26,1.55-1,1.71s.85-.3,1.59-1a.57.57,0,0,0-.19,0Z"/><path class="cls-2" d="M13.4,7.45h-.24l.05-.16-.09,0,.06-.09-.06,0,.12-.18L13,7c-.38.32-.74.64-1.08,1h.2l-.07.22.15-.05,0,.14.13.1-.14.19.18.07v.15c.36-.36.74-.73,1.15-1.09l-.16,0Z"/><path class="cls-2" d="M15.35,6l-.21,0,.06-.17L15.09,6l.09-.18-.18,0,.15-.19v0a13.78,13.78,0,0,0-1.3.83l.14.09-.18.17H14a.16.16,0,0,1,0,.12c0,.06.08.07.08.07l-.09.12.18,0-.07.27c.4-.31.82-.62,1.23-.92l0,0Z"/><path class="cls-2" d="M15.8,5.39l.15,0-.07.17.17,0L16,5.78l.84-.57,0-.06L16.86,5l-.07-.06,0-.1,0-.13c-.29.13-.59.28-.89.43l0,.06Z"/><path class="cls-2" d="M17.3,4.64l-.06.08.07,0v.12c1.07-.7,1.85-1.16,1.85-1.16s-.81.27-1.87.73l-.05.13Z"/><path class="cls-1" d="M13.78,2.74l.08,0V3l.06,0,.36-.44,0-.12-.09,0,0-.09-.08,0V2.15l-.41.37.07.11Z"/><path class="cls-1" d="M11.65,5.48l0-.15s-.13,0-.1,0a.2.2,0,0,0,0-.13l-.18.07L11.56,5l-.17,0c-.06.07-.11.15-.17.23l-.41.6L11,5.72l-.06.21L11,6l0,.1.1,0v.16l.22-.08v.17h.16c.11-.17.22-.34.34-.51l0-.08,0-.28Z"/><path class="cls-1" d="M10.46,7.54l.08-.22-.15-.06V7.12l-.13.09V7l-.2,0c-.18.32-.34.63-.48.91,0,.13,0,.23,0,.23l.16-.1,0,.17.26,0L10,8.54l.17-.09.18,0c.11-.22.23-.46.36-.7l0-.14Z"/><path class="cls-1" d="M13.26,3.57l-.15.07V3.46l-.14,0,0-.24,0,0c-.2.19-.4.39-.59.59v0l-.08.22h.19l0,.2.08-.1v.18l.19-.1-.05.23.06,0c.17-.24.35-.47.53-.69Z"/><path class="cls-2" d="M10,8.54l.07-.34-.26,0,0-.17-.16.1s0-.1,0-.23C9.06,9,8.84,9.79,9.12,9.87s.73-.54,1.21-1.47l-.18,0Z"/><path class="cls-2" d="M11.3,6.16l-.22.08V6.08l-.1,0L11,6l-.07,0L11,5.72l-.18.08c-.27.42-.52.83-.75,1.22l.2,0v.23l.13-.09v.14l.15.06-.08.22.19,0,0,.14c.23-.44.49-.91.77-1.38H11.3Z"/><path class="cls-2" d="M12.74,4.22l-.19.1V4.14l-.08.1,0-.2h-.19l.08-.22v0a13.59,13.59,0,0,0-1,1.18l.17,0-.13.22.18-.07a.2.2,0,0,1,0,.13c0,.07.1,0,.1,0l0,.15.18,0,0,.28c.28-.42.59-.83.9-1.24l-.06,0Z"/><path class="cls-2" d="M13,3.48l.14,0v.18l.15-.07,0,.23c.21-.28.42-.55.63-.8l-.06,0V2.77l-.08,0V2.63l-.07-.11c-.24.21-.49.44-.73.68l0,0Z"/><path class="cls-2" d="M14.19,2.32l0,.09.09,0,0,.12c.81-1,1.41-1.66,1.41-1.66s-.68.49-1.56,1.25v.14Z"/><path class="cls-1" d="M8.42,4.54l.06,0v.1l0,0,.23-.22,0-.06-.06,0v0l0,0V4.24l-.26.17.05.07Z"/><path class="cls-1" d="M7.11,5.92l0-.08s-.09,0-.08,0a.08.08,0,0,0,0-.07l-.12,0L7,5.66l-.12,0-.1.12a3.76,3.76,0,0,0-.25.31l.12,0,0,.11.06,0,0,.06.07,0,0,.09.15,0v.09H7a2.56,2.56,0,0,1,.2-.26l0,0,0-.16Z"/><path class="cls-1" d="M6.41,7l0-.11-.12,0V6.75l-.09,0V6.67H6.1a4.83,4.83,0,0,0-.28.47l0,.13.1,0,0,.1h.18l0,.19.12,0,.12,0c.07-.11.13-.24.21-.36l0-.09Z"/><path class="cls-1" d="M8.12,5,8,5V4.9h-.1l0-.13,0,0L7.52,5v0l0,.12h.13v.11l.05,0v.1l.13,0,0,.13.05,0,.32-.34Z"/><path class="cls-2" d="M6.14,7.52l0-.19H6l0-.1-.1,0,0-.13c-.29.56-.39,1-.19,1s.48-.26.75-.74l-.12,0Z"/><path class="cls-2" d="M6.91,6.28l-.15,0,0-.09-.07,0,0-.06-.06,0,0-.11-.12,0c-.16.21-.31.42-.44.63h.13v.12l.09,0v.08l.12,0,0,.11.14,0,0,.09A7.09,7.09,0,0,1,7,6.38H6.92Z"/><path class="cls-2" d="M7.79,5.29l-.13,0v-.1l-.05,0V5.18H7.48l0-.12V5a7.17,7.17,0,0,0-.63.59l.12,0-.07.11.12,0a.08.08,0,0,1,0,.07s.08,0,.08,0l0,.08h.13l0,.16c.17-.22.36-.43.55-.64l-.05,0Z"/><path class="cls-2" d="M7.91,4.9H8V5l.11,0,0,.13.39-.41,0,0v-.1l-.06,0V4.48l-.05-.07-.47.33,0,0Z"/><path class="cls-2" d="M8.68,4.34v0l.06,0,0,.06c.5-.49.88-.83.88-.83s-.45.23-1,.6v.07Z"/><path class="cls-1" d="M10.5,5.93l.2,0,.08,0,.57-.52H11l0-.07c-.2.15-.41.3-.62.47h.09Z"/><path class="cls-1" d="M8.63,7.84l-.06,0-.35.5,0,.09.15,0s0,.2,0,.24.18-.11.22-.11-.07.21-.07.21h.09c.11-.19.23-.4.36-.61L8.9,7.88Z"/><path class="cls-1" d="M8.24,9,8,8.89l0-.11-.1,0c-.36.57-.44.82-.18,1s.37-.14.63-.56L8.28,9Z"/><path class="cls-1" d="M9.79,6.62V6.46H9.66l-.38.39.22,0-.2.36L9.56,7l-.14.39h.07c0-.08.11-.15.16-.22s.23-.29.38-.46L10,6.59Z"/><path class="cls-2" d="M8.61,8.49s-.23.15-.22.11,0-.24,0-.24l-.15,0,0-.09c-.11.17-.22.32-.3.46l.1,0,0,.11.2.06,0,.08.09.12.26-.45H8.54S8.64,8.49,8.61,8.49Z"/><path class="cls-2" d="M9.56,7l-.26.18.2-.36-.22,0a8.27,8.27,0,0,0-.51.66l-.2.3.06,0,.27,0L9,8.09c.15-.24.31-.49.5-.75H9.42Z"/><path class="cls-2" d="M10.7,5.88l-.2,0,0-.13h-.09c-.24.2-.49.42-.72.65h.13v.16l.17,0,.07.07c.21-.23.46-.48.75-.76Z"/><path class="cls-2" d="M11.35,5.38h0c.42-.36.88-.73,1.39-1.09a12.56,12.56,0,0,0-1.74,1l0,.07Z"/><path class="cls-1" d="M8.09,4.12l.2,0,.08,0,.57-.52H8.63l0-.07c-.21.14-.42.3-.63.47h.1Z"/><path class="cls-1" d="M6.22,6,6.16,6l-.35.49,0,.1.15,0s0,.2,0,.24.18-.1.22-.1-.06.21-.06.21h.08l.36-.61-.09-.21Z"/><path class="cls-1" d="M5.83,7.14l-.2-.06,0-.11-.1,0c-.36.57-.44.83-.18,1s.37-.13.63-.55l-.09-.12Z"/><path class="cls-1" d="M7.38,4.82V4.65H7.25A4.59,4.59,0,0,0,6.88,5l.21,0-.2.35.26-.17L7,5.54h.07c0-.07.11-.14.16-.22s.23-.28.38-.45l-.07-.07Z"/><path class="cls-2" d="M6.2,6.69S6,6.84,6,6.79s0-.24,0-.24l-.15,0,0-.1c-.11.18-.22.33-.3.46l.1,0,0,.11.2.06,0,.09L6,7.35c.08-.14.17-.29.26-.46H6.14S6.23,6.68,6.2,6.69Z"/><path class="cls-2" d="M7.15,5.16l-.26.17L7.09,5,6.88,5a6.44,6.44,0,0,0-.52.65L6.16,6l.06,0,.27,0,.09.21c.15-.24.32-.49.5-.75H7Z"/><path class="cls-2" d="M8.29,4.08l-.2,0,0-.12H8a8.62,8.62,0,0,0-.72.65h.13v.17l.17,0,.07.07c.21-.23.46-.49.75-.76Z"/><path class="cls-2" d="M8.94,3.58h0c.42-.36.88-.73,1.39-1.09a11.1,11.1,0,0,0-1.73,1l0,.07Z"/><path class="cls-1" d="M7.25,3.92l.2,0,.08,0c.18-.17.37-.35.57-.52H7.79l0-.06c-.21.14-.42.3-.63.47h.1Z"/><path class="cls-1" d="M5.38,5.84l-.06-.06L5,6.28l0,.1.15,0s0,.2,0,.24.18-.11.22-.11-.06.22-.06.22h.08c.11-.19.23-.39.37-.61l-.1-.21Z"/><path class="cls-1" d="M5,6.94l-.2-.06,0-.11-.1,0c-.36.57-.44.82-.18,1s.37-.13.63-.56L5,7Z"/><path class="cls-1" d="M6.55,4.62V4.45h-.1l0,0c-.13.13-.25.26-.37.4l.21,0-.2.35L6.31,5l-.14.39h.07l.16-.22c.1-.13.23-.28.38-.45l-.07-.08Z"/><path class="cls-2" d="M5.36,6.48s-.23.16-.22.11,0-.24,0-.24L5,6.38l0-.1-.3.46.1,0,0,.11.2.06L5,7l.09.11c.08-.13.17-.28.26-.45H5.3S5.39,6.48,5.36,6.48Z"/><path class="cls-2" d="M6.31,5l-.26.18.2-.35L6,4.83a5.49,5.49,0,0,0-.52.65l-.2.3.06.06.27,0,.1.21c.14-.24.31-.49.49-.75H6.17Z"/><path class="cls-2" d="M7.45,3.88l-.2,0,0-.12h-.1a8.47,8.47,0,0,0-.72.64l0,0h.1v.17l.16,0,.07.08c.21-.23.46-.49.75-.76Z"/><path class="cls-2" d="M8.1,3.38h0A16.4,16.4,0,0,1,9.49,2.29a11.1,11.1,0,0,0-1.73,1l0,.06Z"/><path class="cls-1" d="M9.48,5.42l.2,0,.07,0,.58-.52H10l0-.07c-.2.14-.41.3-.62.47h.09Z"/><path class="cls-1" d="M7.6,7.33l-.06,0-.34.5,0,.09.15,0a2.27,2.27,0,0,1,0,.24S7.55,8,7.59,8s-.07.21-.07.21h.09L8,7.58l-.09-.21Z"/><path class="cls-1" d="M7.22,8.44,7,8.38V8.27l-.11,0c-.36.57-.43.82-.17,1s.37-.14.63-.56l-.09-.12Z"/><path class="cls-1" d="M8.77,6.11V6H8.63l-.37.39.22-.05-.2.36.26-.18-.14.39h.07a1.77,1.77,0,0,1,.16-.22c.1-.14.23-.29.38-.46l-.08-.07Z"/><path class="cls-2" d="M7.59,8s-.24.15-.22.11a2.27,2.27,0,0,0,0-.24l-.15,0,0-.09-.31.46.11,0v.11l.21.06,0,.08.09.12c.08-.13.16-.29.26-.46H7.52S7.62,8,7.59,8Z"/><path class="cls-2" d="M8.54,6.45l-.26.18.2-.36-.22.05A8.27,8.27,0,0,0,7.75,7l-.21.3.06,0,.28,0L8,7.58c.15-.24.31-.49.5-.75H8.4Z"/><path class="cls-2" d="M9.68,5.37l-.2,0,0-.13H9.36c-.24.2-.49.42-.73.65h.13v.16l.16,0L9,6.15c.21-.23.46-.48.74-.76Z"/><path class="cls-2" d="M10.33,4.87h0c.42-.36.88-.73,1.38-1.09a12.84,12.84,0,0,0-1.73,1l0,.07Z"/><path class="cls-1" d="M18.12,9.61l.24.2.05.1c.33.05.69.11,1.05.19h0l-.31-.37,0-.1c-.34-.1-.69-.2-1.05-.28l.07.12Z"/><path class="cls-1" d="M14.48,9.22V9.1l-.8.06-.06.13.17.15a2.23,2.23,0,0,1-.25.21s.28.11.32.15-.27.13-.27.13l.1.09.93-.15.1-.3Z"/><path class="cls-1" d="M13.05,9.8l-.13-.29L13,9.39l-.07-.15c-.89.11-1.2.26-1.08.69s.49.31,1.14.21l0-.21Z"/><path class="cls-1" d="M16.78,9.44l.14-.16-.09-.13v0L16.08,9l.26.21-.53.1.42.13-.51.2.08.07.37,0c.22,0,.49,0,.8,0V9.6Z"/><path class="cls-2" d="M13.85,9.8s-.37-.13-.32-.15a2.23,2.23,0,0,0,.25-.21l-.17-.15.06-.13-.74.08.07.15-.08.12.13.29,0,.13,0,.21.69-.12-.1-.09S13.88,9.84,13.85,9.8Z"/><path class="cls-2" d="M16.23,9.48l-.42-.13.53-.1L16.08,9a8.2,8.2,0,0,0-1.11,0l-.5,0v.12l.23.35-.1.3c.37,0,.76-.09,1.19-.12l-.08-.07Z"/><path class="cls-2" d="M18.36,9.81l-.24-.2.09-.14-.07-.12q-.64-.15-1.32-.24v0l.09.13-.14.16L17,9.6v.15c.41,0,.9.08,1.44.16Z"/><path class="cls-2" d="M19.46,10.1h0a22.89,22.89,0,0,1,2.38.59,18.28,18.28,0,0,0-2.65-1.06l0,.1Z"/><path class="cls-1" d="M15.68,4.94l.37,0,.13.07c.37-.2.77-.4,1.19-.61h0l-.57-.14,0-.12c-.41.14-.83.31-1.26.49l.16.06Z"/><path class="cls-1" d="M11.72,7.26l-.09-.12-.76.67,0,.17.28,0a2.48,2.48,0,0,1-.1.39c0,.06.37-.1.43-.08s-.18.32-.18.32l.16,0,.83-.85-.11-.38Z"/><path class="cls-1" d="M10.7,8.91l-.35-.19V8.53l-.17-.1c-.83.77-1,1.16-.61,1.51s.71-.06,1.3-.64l-.12-.23Z"/><path class="cls-1" d="M14.19,5.77l0-.28-.18,0L14,5.4l-.79.49h.41l-.47.5.52-.18-.37.58h.13l.36-.29c.22-.17.49-.37.82-.58l-.12-.15Z"/><path class="cls-2" d="M11.5,8.32c-.06,0-.46.14-.43.08a2.48,2.48,0,0,0,.1-.39l-.28,0,0-.17c-.27.23-.5.44-.69.62l.17.1v.19l.35.19.05.16.12.23.61-.63-.16,0S11.56,8.33,11.5,8.32Z"/><path class="cls-2" d="M13.67,6.22l-.52.18.47-.5h-.41a10.42,10.42,0,0,0-1.11.84l-.47.41.09.12.48.18.11.38c.34-.32.71-.67,1.12-1H13.3Z"/><path class="cls-2" d="M16.05,5l-.37,0,0-.22-.16-.06c-.5.22-1,.47-1.5.74l.05,0,.18,0,0,.28.3,0,.12.15c.44-.28,1-.59,1.57-.91Z"/><path class="cls-2" d="M17.37,4.43h0c.86-.4,1.81-.81,2.82-1.17a22,22,0,0,0-3.43.92l0,.12Z"/><path class="cls-1" d="M12.51,3.46l.3-.08.12,0c.26-.28.54-.56.85-.85h0l-.48,0,0-.1c-.3.23-.61.49-.92.77h.14Z"/><path class="cls-1" d="M9.76,6.57l-.1-.08c-.18.29-.35.56-.49.8l.05.15.23-.05s0,.3,0,.37.27-.18.32-.19-.08.34-.08.34l.13,0,.52-1-.16-.31Z"/><path class="cls-1" d="M9.23,8.31l-.32-.08,0-.17L8.72,8c-.52.91-.62,1.31-.21,1.51s.56-.24.92-.91L9.3,8.44Z"/><path class="cls-1" d="M11.47,4.59l0-.25h-.2c-.19.2-.37.42-.55.64l.33-.1-.28.57.38-.3-.19.62.1,0,.24-.35c.14-.21.33-.46.55-.73l-.12-.11Z"/><path class="cls-2" d="M9.76,7.57s-.34.26-.32.19,0-.37,0-.37l-.23.05-.05-.15c-.18.27-.32.52-.45.73l.16,0,0,.17.32.08.07.13.13.18c.12-.22.25-.46.38-.73l-.13,0S9.82,7.57,9.76,7.57Z"/><path class="cls-2" d="M11.13,5.13l-.38.3L11,4.86,10.7,5A9.88,9.88,0,0,0,10,6l-.3.48.1.08.41,0,.16.31c.21-.38.45-.78.71-1.2l-.1,0Z"/><path class="cls-2" d="M12.81,3.38l-.3.08,0-.19h-.14c-.36.33-.72.68-1.07,1.06h.2l0,.25.24-.06.12.11c.31-.37.67-.79,1.1-1.23Z"/><path class="cls-2" d="M13.77,2.56h0A26.81,26.81,0,0,1,15.83.77a18.59,18.59,0,0,0-2.59,1.72l0,.1Z"/><path class="cls-1" d="M13.7,4l.3-.09.12,0c.26-.27.54-.56.85-.85h0l-.48,0L14.43,3c-.3.24-.61.5-.92.78h.14Z"/><path class="cls-1" d="M11,7.07,10.85,7c-.18.29-.35.55-.49.79l.05.15.23,0s0,.31,0,.37.27-.18.32-.18-.08.33-.08.33l.13,0,.52-1-.16-.31Z"/><path class="cls-1" d="M10.41,8.81l-.31-.08,0-.17-.16,0c-.52.91-.62,1.3-.21,1.5s.56-.24.92-.91l-.13-.18Z"/><path class="cls-1" d="M12.66,5.09l0-.26h-.16l0,0c-.19.21-.37.42-.55.64l.33-.09-.28.56.38-.29-.19.61.1,0,.24-.36c.14-.21.33-.46.55-.73L12.9,5Z"/><path class="cls-2" d="M11,8.07s-.34.25-.32.18,0-.37,0-.37l-.23,0-.05-.15c-.18.28-.32.52-.45.74l.16,0,0,.17.31.08.08.12.13.18c.12-.21.25-.46.38-.73l-.13,0S11,8.06,11,8.07Z"/><path class="cls-2" d="M12.32,5.63l-.38.29.28-.56-.33.09a11,11,0,0,0-.74,1c-.11.17-.21.33-.3.49l.1.08.41,0,.16.31c.21-.38.45-.78.71-1.19l-.1,0Z"/><path class="cls-2" d="M14,3.87,13.7,4l0-.19h-.14a13.19,13.19,0,0,0-1.07,1l0,0h.16l0,.26L12.9,5l.12.11c.3-.37.67-.78,1.1-1.23Z"/><path class="cls-2" d="M15,3.05h0a26.81,26.81,0,0,1,2-1.79A19.77,19.77,0,0,0,14.43,3l.05.1Z"/><path class="cls-1" d="M18,10.72l.22.2.05.11,1,.25h0L19,10.9l0-.1c-.32-.12-.67-.24-1-.35l.07.12Z"/><path class="cls-1" d="M14.38,10.09V10h-.8l-.07.13.16.16-.26.19c-.06,0,.27.13.3.17s-.27.11-.27.11l.09.1c.28,0,.6-.07.94-.09l.12-.3Z"/><path class="cls-1" d="M12.92,10.58l-.12-.31.1-.11L12.84,10c-.9.05-1.22.18-1.13.62s.47.34,1.12.28l.05-.21Z"/><path class="cls-1" d="M16.66,10.45l.16-.15-.08-.13,0,0A5.84,5.84,0,0,0,16,10l.25.22-.54.06.41.16-.52.17.07.07H16c.22,0,.49,0,.8.07v-.16Z"/><path class="cls-2" d="M13.71,10.63s-.36-.15-.3-.17l.26-.19-.16-.16.07-.13-.74,0,.06.15-.1.11.12.31,0,.12-.05.21.7-.07-.09-.1S13.75,10.67,13.71,10.63Z"/><path class="cls-2" d="M16.11,10.46l-.41-.16.54-.06L16,10A6.89,6.89,0,0,0,14.88,10h-.5v.12l.21.36-.12.3c.37,0,.77-.05,1.19-.05l-.07-.07Z"/><path class="cls-2" d="M18.21,10.92l-.22-.2.1-.15L18,10.45a10.73,10.73,0,0,0-1.3-.32l0,0,.08.13-.16.15.17.17v.16c.41.05.9.14,1.43.25Z"/><path class="cls-2" d="M19.29,11.28h0c.73.2,1.52.44,2.33.74a17.16,17.16,0,0,0-2.58-1.22l0,.1Z"/><path class="cls-1" d="M17,5.47l.29,0,.08.07L18.58,5h0l-.41-.14,0-.11Q17.61,5,17,5.2l.11.06Z"/><path class="cls-1" d="M12.84,7.52l0-.11-.9.6-.05.16.22,0s-.19.31-.24.36.33-.07.37-.06-.28.3-.28.3l.13,0,1-.77.07-.36Z"/><path class="cls-1" d="M11.32,9l-.2-.19.08-.17-.1-.1c-1,.7-1.32,1-1.12,1.39s.6,0,1.32-.56V9.18Z"/><path class="cls-1" d="M15.45,6.2l.14-.26-.12-.06,0,0-.84.43.32,0-.58.46.49-.15-.54.52.1,0,.41-.26c.25-.16.56-.33.91-.52l0-.15Z"/><path class="cls-2" d="M12.21,8.5s-.43.12-.37.06.24-.36.24-.36l-.22,0L11.91,8c-.31.21-.58.39-.81.56l.1.1-.08.17.2.19,0,.15V9.4l.76-.57-.13,0S12.26,8.52,12.21,8.5Z"/><path class="cls-2" d="M14.84,6.61l-.49.15.58-.46-.32,0c-.42.23-.84.48-1.25.76l-.55.37,0,.11.31.18-.07.36c.41-.29.85-.6,1.32-.91l-.1,0Z"/><path class="cls-2" d="M17.29,5.49l-.29,0,.08-.21L17,5.2c-.49.19-1,.41-1.52.65l0,0,.12.06-.14.26.24,0,0,.15c.47-.25,1-.53,1.65-.81Z"/><path class="cls-2" d="M18.58,5h0c.86-.35,1.8-.7,2.77-1a20.91,20.91,0,0,0-3.15.77l0,.11Z"/><path class="cls-1" d="M16.25,12.23l.19.24,0,.12c.32.12.65.26,1,.41h0l-.22-.42.05-.09c-.3-.17-.62-.35-1-.51l.05.13Z"/><path class="cls-1" d="M12.79,11l0-.12L12,10.8l-.09.11.13.19a1.79,1.79,0,0,1-.28.14c-.06,0,.25.17.27.22s-.28.06-.28.06l.07.12.94.06.17-.27Z"/><path class="cls-1" d="M11.27,11.28,11.2,11l.11-.1,0-.16c-.9-.1-1.23,0-1.21.43s.4.41,1.06.46l.07-.2Z"/><path class="cls-1" d="M15,11.76l.18-.12-.06-.14v-.05l-.7-.23.21.26-.55,0,.38.22-.54.08.07.09.36.06c.21.05.48.11.77.2l0-.15Z"/><path class="cls-2" d="M12,11.46c0-.05-.33-.21-.27-.22a1.79,1.79,0,0,0,.28-.14l-.13-.19L12,10.8l-.73-.09,0,.16-.11.1.07.31-.07.12-.07.2.7,0-.07-.12S12.07,11.51,12,11.46Z"/><path class="cls-2" d="M14.43,11.68l-.38-.22.55,0-.21-.26A8.46,8.46,0,0,0,13.3,11l-.49-.07,0,.12.15.39-.17.27c.37,0,.77.08,1.19.15l-.07-.09Z"/><path class="cls-2" d="M16.44,12.47l-.19-.24.12-.12L16.32,12c-.39-.19-.8-.37-1.23-.53v.05l.06.14-.18.12.14.2,0,.15c.4.12.87.28,1.37.48Z"/><path class="cls-2" d="M17.45,13h0c.69.31,1.43.68,2.18,1.11a17.48,17.48,0,0,0-2.35-1.62l-.05.09Z"/><path class="cls-1" d="M18,7.32l.31.1.08.09,1.23-.24h0L19.22,7l0-.11c-.4,0-.81.07-1.24.13l.11.09Z"/><path class="cls-1" d="M13.84,8.41l0-.13-.9.4,0,.16.22.09a3,3,0,0,1-.24.31s.34,0,.39,0-.28.24-.28.24l.13.06,1-.54.06-.35Z"/><path class="cls-1" d="M12.34,9.6l-.21-.25.07-.16-.11-.13c-1,.48-1.31.77-1.09,1.16s.62.12,1.33-.25V9.74Z"/><path class="cls-1" d="M16.48,7.69l.13-.23-.12-.09,0,0c-.28.07-.57.15-.85.24l.34.1L15.36,8l.51,0-.54.42.11,0,.41-.17c.25-.1.55-.2.91-.31l0-.16Z"/><path class="cls-2" d="M13.24,9.27c-.05,0-.44,0-.39,0a3,3,0,0,0,.24-.31l-.22-.09,0-.16-.82.38.11.13-.07.16.21.25,0,.14V10c.23-.11.48-.25.76-.4L13,9.51S13.29,9.3,13.24,9.27Z"/><path class="cls-2" d="M15.87,8l-.51,0L16,7.67l-.34-.1A11.82,11.82,0,0,0,14.36,8l-.55.24,0,.13.33.27L14.11,9c.41-.2.85-.41,1.33-.61l-.11,0Z"/><path class="cls-2" d="M18.34,7.42,18,7.32l.08-.19L18,7c-.5.07-1,.17-1.54.29l0,0,.12.09-.13.23.24.09,0,.16c.47-.14,1-.29,1.66-.43Z"/><path class="cls-2" d="M19.64,7.27h0c.87-.15,1.82-.28,2.8-.36a20.09,20.09,0,0,0-3.21,0l0,.11Z"/><path class="cls-1" d="M15.5,12.68l.17.22a.67.67,0,0,0,0,.1l1,.44h0l-.17-.36.08-.07c-.3-.17-.63-.35-1-.52l0,.11Z"/><path class="cls-1" d="M11.86,11.34l0-.09L11,11.07l-.12.08.11.17-.34.09c-.07,0,.24.16.26.2s-.33,0-.33,0l.05.1,1,.14.25-.2Z"/><path class="cls-1" d="M10.11,11.39l0-.27.14-.07v-.13c-1-.17-1.38-.14-1.44.22s.37.38,1.1.49l.12-.15Z"/><path class="cls-1" d="M14.17,12.16l.23-.08L14.35,12v0l-.75-.26.19.23-.61-.07.38.22H13l0,.08.39.09c.24.06.52.14.83.24l.07-.12Z"/><path class="cls-2" d="M10.94,11.61s-.33-.2-.26-.2l.34-.09-.11-.17.12-.08-.8-.15v.13l-.14.07,0,.27-.1.09-.12.15.77.11-.05-.1S11,11.65,10.94,11.61Z"/><path class="cls-2" d="M13.57,12l-.38-.22.61.07-.19-.23a11.16,11.16,0,0,0-1.17-.31l-.54-.1,0,.09.09.34-.25.2c.41.07.85.15,1.31.25l0-.08Z"/><path class="cls-2" d="M15.67,12.9l-.17-.22.16-.09,0-.11c-.4-.2-.83-.39-1.27-.56v0l.05.12-.23.08.13.18-.07.12c.43.14.92.32,1.45.54A.67.67,0,0,1,15.67,12.9Z"/><path class="cls-2" d="M16.7,13.43h0a24.64,24.64,0,0,1,2.23,1.13A16.69,16.69,0,0,0,16.61,13l-.08.07Z"/><path class="cls-1" d="M9.92,3.76l.19,0,.07,0,.64-.5h0l-.29,0,0-.08-.67.45.09,0Z"/><path class="cls-1" d="M7.79,5.64l0-.07-.41.5v.11l.14,0s0,.21-.06.26.19-.1.22-.1-.1.22-.1.22h.09c.13-.19.29-.4.45-.62L8,5.7Z"/><path class="cls-1" d="M7.21,6.77,7,6.69V6.57L7,6.53c-.45.57-.57.84-.36,1S7,7.42,7.29,7l-.06-.13Z"/><path class="cls-1" d="M9.12,4.44l0-.18H9.05l0,0-.43.39.22,0L8.56,5l.27-.17-.2.4h.06L8.89,5l.44-.45-.05-.08Z"/><path class="cls-2" d="M7.64,6.32s-.24.14-.22.1.06-.26.06-.26l-.14,0V6.07c-.15.17-.27.33-.38.46l.09,0v.12l.18.08,0,.1L7.29,7l.34-.46H7.54S7.68,6.32,7.64,6.32Z"/><path class="cls-2" d="M8.83,4.78,8.56,5l.26-.37-.22,0a7.45,7.45,0,0,0-.6.65l-.26.3,0,.07L8,5.7l0,.22c.19-.24.39-.49.61-.75H8.63Z"/><path class="cls-2" d="M10.11,3.73l-.19,0V3.63l-.09,0c-.26.19-.54.4-.8.62l0,0h.09l0,.18.16,0,.05.08c.24-.22.52-.47.85-.74Z"/><path class="cls-2" d="M10.81,3.26h0a17.91,17.91,0,0,1,1.5-1,13,13,0,0,0-1.82.94l0,.08Z"/><path class="cls-1" d="M9.56,3.39l.2,0,.06,0,.64-.5h0l-.3,0V2.79l-.67.45.08,0Z"/><path class="cls-1" d="M7.43,5.27l0-.07c-.15.19-.29.35-.42.5v.11l.15,0s0,.21-.07.26.2-.1.23-.1-.1.22-.1.22h.08l.46-.62-.05-.22Z"/><path class="cls-1" d="M6.85,6.41l-.17-.09V6.21l-.09,0c-.45.57-.57.83-.35,1s.37-.11.69-.54l0-.13Z"/><path class="cls-1" d="M8.76,4.07l0-.17-.09,0h0l-.42.38.21,0-.26.36.28-.17-.21.4h.07c.06-.07.13-.14.19-.22L9,4.13l-.06-.08Z"/><path class="cls-2" d="M7.29,6s-.25.14-.23.1.07-.26.07-.26L7,5.81V5.7l-.38.47.09,0v.11l.17.09,0,.09,0,.13.34-.46H7.19S7.32,6,7.29,6Z"/><path class="cls-2" d="M8.48,4.41l-.28.17.26-.36-.21,0c-.21.21-.42.42-.61.65l-.25.3,0,.07.25.06.05.22c.18-.24.38-.49.61-.75H8.27Z"/><path class="cls-2" d="M9.76,3.36l-.2,0V3.26l-.08,0q-.4.29-.81.63h0l.09,0,0,.17.16,0L9,4.13c.23-.22.52-.47.84-.74Z"/><path class="cls-2" d="M10.46,2.89h0c.46-.35,1-.7,1.5-1a12.66,12.66,0,0,0-1.81.94v.08Z"/><path class="cls-1" d="M16.25,11.6l.19.18a.65.65,0,0,0,0,.1l1.08.28h0l-.22-.34.07-.08c-.33-.12-.68-.25-1-.36l0,.1Z"/><path class="cls-1" d="M12.44,10.83l0-.11-.89,0-.1.1.13.14s-.26.13-.33.15.27.12.29.16-.32.07-.32.07l.07.09h1l.21-.24Z"/><path class="cls-1" d="M10.72,11.13l-.06-.26.13-.09,0-.13c-1,0-1.38.07-1.38.44s.43.32,1.16.32l.1-.17Z"/><path class="cls-1" d="M14.85,11.29l.21-.12L15,11.06v0c-.26-.06-.51-.11-.78-.15l.22.21h-.61l.41.17-.61.1.07.07.4,0c.24,0,.53.06.86.11l0-.13Z"/><path class="cls-2" d="M11.57,11.23s-.35-.15-.29-.16.33-.15.33-.15l-.13-.14.1-.1-.82,0,0,.13-.13.09.06.26-.08.11-.1.17.78,0-.07-.09S11.6,11.27,11.57,11.23Z"/><path class="cls-2" d="M14.24,11.26l-.41-.17h.61l-.22-.21a11.89,11.89,0,0,0-1.2-.12l-.55,0,0,.11.14.31-.21.24c.42,0,.86,0,1.33,0l-.07-.07Z"/><path class="cls-2" d="M16.44,11.78l-.19-.18.14-.12,0-.1A13.3,13.3,0,0,0,15,11v0l.06.11-.21.12.15.15,0,.13c.44.07.95.18,1.51.31A.65.65,0,0,1,16.44,11.78Z"/><path class="cls-2" d="M17.54,12.16h0c.75.21,1.56.47,2.37.78a17.31,17.31,0,0,0-2.53-1.2l-.07.08Z"/><path class="cls-1" d="M9.33,5.48l-.22-.11-.46.28-.07.25L8.67,6l0,.08.27.06c.15-.13.32-.26.49-.39l-.16,0Z"/><path class="cls-1" d="M7.23,7.53l0,0,.18-.28-.13,0a1.7,1.7,0,0,1,0-.21s-.17,0-.17,0l0-.1-.41.39,0,.3h.17l0,.22h.13l0,0L7,7.93l.19-.19,0-.13Z"/><path class="cls-1" d="M8.2,6.5l.08-.19-.18,0-.17-.06V6.13l-.31.25,0,0-.07.24.1,0-.09.24h.13l0,.19.18,0c.19-.2.37-.38.53-.52l-.09,0Z"/><path class="cls-1" d="M6.35,8.13,6.43,8,6.18,8l-.06-.11c-.29.38-.36.64-.19.76s.34-.05.63-.29c0-.09,0-.21,0-.21Z"/><path class="cls-1" d="M10.31,4.73,9.74,5v.1l.11.09-.05.1.1.06L10.47,5l0-.12Z"/><path class="cls-2" d="M6.93,7.82H6.8l0-.22H6.66l0-.3a7.24,7.24,0,0,0-.51.59L6.18,8l.25,0-.08.17.19,0s0,.12,0,.21L7,7.93l-.12-.07Z"/><path class="cls-2" d="M7.66,6.94H7.53l.09-.24-.1,0,.07-.24L7,6.91l0,.1s.18,0,.17,0a1.7,1.7,0,0,0,0,.21l.13,0-.18.28,0,0,0,.08,0,.13.58-.59-.18,0Z"/><path class="cls-2" d="M8.67,6,8.58,5.9l.07-.25c-.25.15-.49.32-.71.48v.08l.17.06.18,0L8.2,6.5l0,.08.09,0,.05,0c.16-.14.34-.3.53-.45l-.27-.06Z"/><path class="cls-2" d="M9.84,5.21l-.11-.09V5l-.63.35.22.11-.09.22.16,0,.49-.37-.1-.06Z"/><path class="cls-2" d="M10.31,4.73l.14.11,0,.12C11.2,4.44,11.8,4,11.8,4S11.14,4.31,10.31,4.73Z"/><path class="cls-1" d="M17.85,9l-.22-.3-.8.07-.27.3.06.18-.1.08.32.26.92-.2-.18-.16Z"/><path class="cls-1" d="M13.64,10.33v-.1l.42-.26-.19-.05A1.73,1.73,0,0,1,14,9.64s-.22-.12-.22-.12l0-.16L13,9.63l-.17.41.22.11-.18.27.17.09,0,.05.1.17.39-.13.06-.19Z"/><path class="cls-1" d="M15.63,9.58l.25-.22-.22-.16L15.48,9l.08-.1L15,9l-.09,0-.25.27.1.12-.29.27.17.09-.18.21.23.16c.39-.14.76-.27,1.06-.36l-.08-.12Z"/><path class="cls-1" d="M12.06,10.56l.22-.19-.37-.11v-.19c-.65.33-.92.63-.78.9s.49.16,1,0l.12-.29Z"/><path class="cls-1" d="M19.67,8.58h-1l-.07.14.07.18L18.58,9l.1.14L19.73,9l.05-.17Z"/><path class="cls-2" d="M13,10.51l-.17-.09.18-.27L12.83,10,13,9.63a9.75,9.75,0,0,0-1.09.44v.19l.37.11-.22.19.23.15-.12.29c.28-.07.59-.16.92-.27l-.1-.17Z"/><path class="cls-2" d="M14.61,9.82l-.17-.09.29-.27-.1-.12.25-.27c-.38.09-.74.19-1.06.29l0,.16s.25.09.22.12a1.73,1.73,0,0,0-.16.28l.19.05-.42.26v.1l-.1.08-.06.19,1.18-.41L14.43,10Z"/><path class="cls-2" d="M16.62,9.2,16.56,9l.27-.3c-.44,0-.87.11-1.27.19l-.08.1.18.19.22.16-.25.22v.13l.08.12.11,0c.3-.09.65-.18,1-.26l-.32-.26Z"/><path class="cls-2" d="M18.71,8.91l-.07-.18.07-.14-1.08.06.22.3-.27.23.18.16.92-.17L18.58,9Z"/><path class="cls-2" d="M19.67,8.58l.11.24L19.73,9c1.34-.21,2.41-.35,2.41-.35S21.07,8.57,19.67,8.58Z"/><path class="cls-1" d="M9.15,5.07,8.94,5l-.41.32-.06.26.09.08,0,.08.25,0,.44-.43-.15,0Z"/><path class="cls-1" d="M7.29,7.28l0,0,.15-.29L7.28,7a1.46,1.46,0,0,1,0-.21s-.15,0-.15,0l0-.09c-.13.15-.26.29-.36.43l0,.29h.15V7.6H7l0,0,.11.06.17-.2,0-.13Z"/><path class="cls-1" d="M8.14,6.18,8.21,6,8,6l-.16,0V5.83l-.27.27,0,.05-.06.24.1,0-.08.25h.12l0,.18H7.8l.46-.56-.08,0Z"/><path class="cls-1" d="M6.5,8l.06-.18-.23.06-.06-.1c-.25.4-.31.67-.15.77s.31-.08.57-.34c0-.09,0-.2,0-.2Z"/><path class="cls-1" d="M10,4.23l-.51.34v.1l.1.08,0,.11.09,0,.52-.46,0-.11Z"/><path class="cls-2" d="M7,7.59H6.9V7.39H6.76l0-.29a5.73,5.73,0,0,0-.46.62l.06.1.23-.06L6.5,8h.17s0,.11,0,.2c.13-.13.27-.29.42-.47L7,7.63Z"/><path class="cls-2" d="M7.66,6.66H7.54l.08-.25-.1,0,.06-.24c-.18.18-.34.36-.49.53l0,.09s.16,0,.15,0a1.46,1.46,0,0,0,0,.21l.12,0-.15.29,0,0,0,.08,0,.13.52-.64H7.62Z"/><path class="cls-2" d="M8.56,5.63l-.09-.08.06-.26c-.23.18-.44.36-.64.54v.08L8,6l.17,0-.07.21,0,.07.08,0,.05-.06.47-.49-.25,0Z"/><path class="cls-2" d="M9.61,4.75l-.1-.08v-.1L8.94,5l.21.1-.08.22.15,0,.44-.41-.09,0Z"/><path class="cls-2" d="M10,4.23l.14.1,0,.11c.66-.58,1.2-1,1.2-1S10.78,3.74,10,4.23Z"/><path class="cls-1" d="M12.62,9.48l-.13-.18L12,9.37l-.17.2,0,.11-.06.06.2.15.59-.16-.11-.09Z"/><path class="cls-1" d="M9.92,10.5v-.06l.27-.18-.12,0a1.8,1.8,0,0,1,.1-.18S10,10,10,10l0-.1-.53.19-.11.28.14.06-.12.18.11,0,0,0,.07.1.25-.09,0-.12Z"/><path class="cls-1" d="M11.2,10l.16-.14-.14-.1-.11-.11.05-.07-.38.11-.06,0-.16.18.06.07-.19.18.11.05-.12.14.15.09.68-.26L11.2,10Z"/><path class="cls-1" d="M8.9,10.7,9,10.57l-.23-.06V10.4c-.42.22-.6.43-.51.59s.31.08.66,0c0-.08.08-.19.08-.19Z"/><path class="cls-1" d="M13.79,9.18l-.61.05,0,.08,0,.12-.09.07.06.09.68-.15,0-.1Z"/><path class="cls-2" d="M9.53,10.63l-.11,0,.12-.18-.14-.06.11-.28a6.76,6.76,0,0,0-.7.33v.11l.23.06-.14.13.14.08S9,10.89,9,11l.6-.2-.07-.1Z"/><path class="cls-2" d="M10.54,10.14l-.11-.05.19-.18-.06-.07.16-.18L10,9.88l0,.1s.16,0,.14.07a1.8,1.8,0,0,0-.1.18l.12,0-.27.18v.06l-.07.06,0,.12.76-.31-.15-.09Z"/><path class="cls-2" d="M11.83,9.68l0-.11.17-.2-.81.16-.05.07.11.11.14.1L11.2,10V10l.05.07.07,0c.2-.07.42-.14.65-.2l-.2-.15Z"/><path class="cls-2" d="M13.18,9.43l0-.12,0-.08-.69.07.13.18-.17.16.11.09.59-.14-.06-.09Z"/><path class="cls-2" d="M13.79,9.18l.07.16,0,.1c.86-.18,1.54-.3,1.54-.3S14.69,9.13,13.79,9.18Z"/><path class="cls-1" d="M7,2.9,6.8,2.82l-.41.45,0,.31.1.08,0,.1h.29c.13-.19.28-.38.42-.57H7Z"/><path class="cls-1" d="M5.28,5.82l0-.05.13-.36-.13.06a1.57,1.57,0,0,1,0-.25s-.17,0-.17,0l0-.11c-.13.21-.25.39-.35.57l.07.34.17,0v.25l.13,0v.06l.13,0,.16-.26,0-.15Z"/><path class="cls-1" d="M6.07,4.38l0-.25H5.94l-.18,0V4l-.27.38,0,.05,0,.3.1,0,0,.31.13,0v.22l.19,0C6,5,6.1,4.7,6.23,4.49l-.1,0Z"/><path class="cls-1" d="M4.5,6.76l0-.23-.24.12-.08-.11c-.22.51-.25.83-.06.93s.33-.15.58-.5c0-.11,0-.24,0-.24Z"/><path class="cls-1" d="M7.9,1.76c-.17.15-.35.32-.52.49v.12l.12.07,0,.13.11.05L8.1,2l0-.12Z"/><path class="cls-2" d="M5,6.23l-.13,0V6l-.17,0-.07-.34a7.16,7.16,0,0,0-.42.82l.08.11.24-.12,0,.23.19,0s0,.13,0,.24l.4-.63L5,6.29Z"/><path class="cls-2" d="M5.61,5l-.13,0,0-.31-.1,0,0-.3c-.17.25-.32.49-.46.71l0,.11s.17-.07.17,0a1.57,1.57,0,0,0,0,.25l.13-.06-.13.36,0,.05,0,.11,0,.15.49-.85-.19,0Z"/><path class="cls-2" d="M6.46,3.66l-.1-.08,0-.31c-.22.24-.44.49-.63.74v.1l.18,0h.18l0,.25.06.08.1,0,0-.07c.13-.21.29-.44.46-.67H6.44Z"/><path class="cls-2" d="M7.51,2.44l-.12-.07V2.25c-.19.18-.39.37-.58.57L7,2.9l0,.27h.16c.15-.19.29-.38.44-.56l-.11-.05Z"/><path class="cls-2" d="M7.9,1.76l.16.1L8.1,2C8.75,1.18,9.28.57,9.28.57S8.67,1.06,7.9,1.76Z"/><path class="cls-1" d="M10.43,4.3l-.2-.08-.42.52-.07.37.08.09,0,.12H10l.45-.68h-.14Z"/><path class="cls-1" d="M8.5,7.76l0-.06.17-.43-.13.07s0-.25,0-.29-.15,0-.15,0l0-.13c-.14.24-.27.46-.38.67L8,8l.16,0,0,.29.12,0,0,.07.11.06c.06-.11.12-.21.17-.32V7.88Z"/><path class="cls-1" d="M9.39,6.05l.07-.29H9.3l-.15,0V5.63c-.1.14-.2.29-.29.44l0,.06-.06.35.09,0-.09.37.12,0,0,.26.17,0c.18-.33.34-.64.49-.88l-.08,0Z"/><path class="cls-1" d="M7.69,8.86l.07-.27-.23.14,0-.13c-.27.61-.33,1-.18,1.1s.31-.19.57-.6c0-.12,0-.27,0-.27Z"/><path class="cls-1" d="M11.33,3l-.52.58v.14l.1.08,0,.16L11,4l.53-.75,0-.15Z"/><path class="cls-2" d="M8.22,8.24l-.12,0,0-.29L8,8l0-.4a10.25,10.25,0,0,0-.47,1l0,.13.23-.14-.07.27.17,0s0,.15,0,.27c.14-.21.29-.46.44-.73L8.2,8.31Z"/><path class="cls-2" d="M8.89,6.82l-.12,0,.09-.37-.09,0,.06-.35L8.33,7l0,.13s.16-.09.15,0,0,.29,0,.29l.13-.07-.17.43,0,.06,0,.12v.17c.19-.33.37-.67.54-1l-.17,0Z"/><path class="cls-2" d="M9.82,5.2l-.08-.09.07-.37c-.23.3-.45.59-.65.89v.11l.15,0h.16l-.07.29,0,.1.08,0,0-.09c.15-.24.31-.51.49-.78H9.79Z"/><path class="cls-2" d="M10.9,3.76l-.1-.08V3.54c-.19.22-.39.44-.58.68l.2.08-.08.33h.14L11,4l-.09-.05Z"/><path class="cls-2" d="M11.33,3l.13.11,0,.15c.68-1,1.22-1.67,1.22-1.67S12.1,2.13,11.33,3Z"/><path class="cls-1" d="M5.63,2.58l-.26,0L5,3l0,.3.12.06v.1l.29-.06c.1-.2.22-.4.33-.61l-.17,0Z"/><path class="cls-1" d="M4.34,5.65l-.06,0,.07-.37-.12.08a2.19,2.19,0,0,1-.07-.23S4,5.15,4,5.15l-.08-.09c-.09.21-.18.41-.25.6L3.81,6,4,5.9,4,6.14l.12,0v0l.14,0,.12-.28-.07-.13Z"/><path class="cls-1" d="M4.9,4.15V3.9l-.19,0H4.53V3.85a3.84,3.84,0,0,0-.21.4l0,.06,0,.28h.11v.3l.13-.05,0,.21.19,0c.11-.29.22-.56.32-.78L5,4.21Z"/><path class="cls-1" d="M3.71,6.67V6.45l-.22.15-.1-.1c-.14.53-.11.84.09.9s.32-.2.51-.57L3.9,6.61Z"/><path class="cls-1" d="M6.3,1.36l-.44.55,0,.11.13,0V2.2l.12,0,.41-.69-.07-.11Z"/><path class="cls-2" d="M4.15,6.09,4,6.14,4,5.9,3.81,6l-.14-.31a6.84,6.84,0,0,0-.28.84l.1.1.22-.15v.22l.19-.06L4,6.83c.1-.19.2-.42.3-.66l-.14,0Z"/><path class="cls-2" d="M4.54,4.85l-.13.05V4.6H4.3l0-.28-.36.75L4,5.15s.16-.09.16-.06a2.19,2.19,0,0,0,.07.23l.12-.08-.07.37.06,0v.11l.07.13c.12-.29.24-.6.35-.88l-.19,0Z"/><path class="cls-2" d="M5.17,3.4l-.12-.06L5,3c-.18.27-.35.54-.5.81v.09h.19l.19,0v.25L5,4.21l.11,0,0-.08c.1-.22.22-.46.35-.71l-.29.06Z"/><path class="cls-2" d="M6,2.07,5.89,2l0-.11c-.17.2-.33.42-.49.64l.26,0v.27l.17,0,.35-.61L6,2.2Z"/><path class="cls-2" d="M6.3,1.36l.18.06.07.11C7.07.67,7.51,0,7.51,0S7,.56,6.3,1.36Z"/><path class="cls-1" d="M10.51,3.83l-.28,0-.39.54,0,.35.12.06v.11l.32,0c.12-.23.25-.46.38-.69l-.19,0Z"/><path class="cls-1" d="M9,7.27,9,7.22l.08-.42-.14.09a2.3,2.3,0,0,1-.07-.26s-.18.07-.18.07l-.08-.11c-.11.24-.2.46-.29.67l.14.35.19-.07,0,.27.15-.06v.06l.16,0c0-.11.08-.21.13-.32L9,7.38Z"/><path class="cls-1" d="M9.68,5.58V5.3l-.2,0H9.28l0-.1L9,5.68l0,.07,0,.32h.13v.34l.14-.06,0,.24.21-.06c.13-.32.25-.62.36-.87H9.76Z"/><path class="cls-1" d="M8.32,8.39V8.14l-.25.17L8,8.2c-.16.6-.13,1,.09,1s.35-.22.57-.64c0-.11-.1-.24-.1-.24Z"/><path class="cls-1" d="M11.28,2.47l-.51.61,0,.12.15.06v.15l.13,0,.47-.77-.07-.13Z"/><path class="cls-2" d="M8.83,7.75l-.15.06,0-.27-.19.07L8.3,7.26A7.75,7.75,0,0,0,8,8.2l.11.11.25-.17v.25l.21-.05s.06.13.1.24c.11-.21.23-.46.35-.73l-.16,0Z"/><path class="cls-2" d="M9.27,6.36l-.14.06V6.08H9l0-.32c-.15.3-.28.58-.4.84l.08.11s.18-.11.18-.07a2.3,2.3,0,0,0,.07.26l.14-.09L9,7.22l.06,0v.11l.07.15c.14-.33.27-.67.4-1L9.3,6.6Z"/><path class="cls-2" d="M10,4.74l-.12-.06,0-.35c-.21.31-.4.61-.58.91l0,.1h.21l.2,0v.28l.08.08h.11l0-.08c.12-.25.25-.51.4-.79l-.32,0Z"/><path class="cls-2" d="M11,3.26l-.15-.06,0-.12c-.18.23-.36.46-.54.71l.28,0v.3l.19,0,.39-.67-.13,0Z"/><path class="cls-2" d="M11.28,2.47l.2.07.07.13c.59-1,1.09-1.71,1.09-1.71S12,1.58,11.28,2.47Z"/><path class="cls-1" d="M17.21,6.71,17,6.5l-.72.28L16,7.13l.07.14L16,7.38l.31.14.82-.43L17,7Z"/><path class="cls-1" d="M13.48,9.12l0-.09.37-.35h-.18a2.27,2.27,0,0,1,.13-.3s-.2-.05-.2-.05V8.19c-.27.16-.51.32-.73.47l-.13.42.21,0-.15.3.16,0,0,.06.11.13.34-.22.05-.19Z"/><path class="cls-1" d="M15.24,7.89l.21-.26-.2-.09-.18-.13.06-.11-.52.28-.08,0L14.32,8l.1.08-.25.33.16,0-.15.25.22.07c.34-.23.66-.45.93-.61L15.25,8Z"/><path class="cls-1" d="M12.06,9.76l.19-.23h-.33l0-.17c-.57.47-.79.83-.65,1s.45,0,.94-.26l.09-.29Z"/><path class="cls-1" d="M18.83,5.87,18,6.15l-.06.14.08.15-.11.14.09.11.94-.46,0-.16Z"/><path class="cls-2" d="M13,9.45l-.16,0,.15-.3-.21,0,.13-.42a9.32,9.32,0,0,0-1,.7l0,.17h.33l-.19.23.22.08-.09.29c.24-.13.52-.3.82-.49l-.11-.13Z"/><path class="cls-2" d="M14.33,8.39l-.16,0L14.42,8,14.32,8l.21-.32c-.34.19-.65.38-.94.56v.15s.23,0,.2.05a2.27,2.27,0,0,0-.13.3h.18L13.46,9l0,.09-.08.11-.05.19,1.05-.71-.22-.07Z"/><path class="cls-2" d="M16.11,7.27,16,7.13l.23-.35c-.39.17-.78.34-1.14.52l-.06.11.18.13.2.09-.21.26V8l.08.09.1-.06c.27-.17.58-.34.9-.52L16,7.38Z"/><path class="cls-2" d="M18,6.44l-.08-.15L18,6.15c-.32.11-.65.22-1,.35l.22.21L17,7l.17.09.82-.4-.09-.11Z"/><path class="cls-2" d="M18.83,5.87l.12.2,0,.16c1.2-.56,2.16-1,2.16-1S20.1,5.48,18.83,5.87Z"/><path class="cls-1" d="M18.23,9.29,18.15,9l-.73,0-.34.21v.13L17,9.42l.19.22L18,9.57l-.1-.13Z"/><path class="cls-1" d="M14.07,10l0-.08.46-.15-.15-.06s.2-.18.24-.2-.15-.1-.15-.1l.08-.12-.81.13-.3.29.15.11-.25.18.12.08-.07,0,0,.13.38-.06L14,10Z"/><path class="cls-1" d="M16.07,9.56l.29-.14-.13-.14-.08-.16.09-.07-.55,0H15.6l-.32.19.05.09L15,9.57l.12.08-.24.15.15.13,1-.17,0-.1Z"/><path class="cls-1" d="M12.6,10l.26-.12-.28-.11.07-.14c-.68.18-1,.39-1,.6s.38.16.9.11l.21-.2Z"/><path class="cls-1" d="M20,9.16l-.84-.07-.11.1v.14l-.16.08,0,.11,1,0,.1-.12S20,9.25,20,9.16Z"/><path class="cls-2" d="M13.48,10,13.36,10l.25-.18-.15-.11.3-.29a8.69,8.69,0,0,0-1.11.24l-.07.14.28.11L12.6,10l.15.14-.21.2a9,9,0,0,0,.9-.12l0-.13Z"/><path class="cls-2" d="M15.1,9.65,15,9.57l.35-.18-.05-.09.32-.19-1,.13-.08.12s.19.09.15.1-.24.2-.24.2l.15.06-.46.15,0,.08L14,10l-.13.13L15,9.93l-.15-.13Z"/><path class="cls-2" d="M17.07,9.36V9.23L17.42,9c-.4,0-.79,0-1.18,0l-.09.07.08.16.13.14-.29.14,0,.1,0,.1.1,0,1-.1L17,9.42Z"/><path class="cls-2" d="M19,9.33V9.19l.11-.1-1-.05.08.25-.32.15.1.13.86-.05,0-.11Z"/><path class="cls-2" d="M20,9.16c0,.09,0,.2,0,.2l-.1.12c1.24,0,2.22-.05,2.22-.05S21.18,9.28,20,9.16Z"/><path class="cls-1" d="M18.44,7.72l-.12-.23-.72.11-.3.26V8l-.1.08.22.18L18.28,8l-.13-.12Z"/><path class="cls-1" d="M14.46,9.1V9l.42-.23-.15,0a2.79,2.79,0,0,1,.2-.24s-.16-.08-.16-.08l.05-.13-.78.27-.24.35L14,9l-.22.23.14.06-.07,0,.06.13.36-.13.1-.15Z"/><path class="cls-1" d="M16.37,8.36l.26-.18-.15-.12-.12-.14.09-.08L15.91,8l-.09,0-.28.24.07.09-.32.24.13.06-.21.18.17.11,1-.36-.05-.09Z"/><path class="cls-1" d="M13,9.39l.24-.17L13,9.16,13,9c-.64.31-.94.57-.88.78s.4.09.9,0c.07-.11.17-.24.17-.24Z"/><path class="cls-1" d="M20.12,7.29l-.85.08-.09.11,0,.15-.14.1.05.11,1-.22.08-.13S20.13,7.37,20.12,7.29Z"/><path class="cls-2" d="M13.9,9.29l-.14-.06L14,9l-.17-.07.24-.35c-.41.15-.76.3-1.05.43l0,.15.3.06L13,9.39l.17.11s-.1.13-.17.24c.26-.07.55-.17.87-.28l-.06-.13Z"/><path class="cls-2" d="M15.42,8.63l-.13-.06.32-.24-.07-.09L15.82,8l-1,.31-.05.13s.19.06.16.08a2.79,2.79,0,0,0-.2.24l.15,0L14.47,9V9.1l-.11.08-.1.15,1.13-.41-.17-.11Z"/><path class="cls-2" d="M17.31,8V7.86l.3-.26c-.39.07-.78.14-1.15.24l-.09.08.12.14.15.12-.26.18,0,.11.05.09.09,0,.95-.28-.22-.18Z"/><path class="cls-2" d="M19.21,7.63l0-.15.09-.11-.95.12.12.23-.29.2.13.12.84-.2-.05-.11Z"/><path class="cls-2" d="M20.12,7.29c0,.08,0,.2,0,.2l-.08.13c1.21-.26,2.18-.44,2.18-.44S21.34,7.19,20.12,7.29Z"/><path class="cls-7" d="M1.55,10.93c-.11-.49-.7-.08-.7-.08s-.46-.35-.7.08c-.11.19.56.55.69.55S1.59,11.15,1.55,10.93Z"/><path class="cls-8" d="M5.35,8.11c0-.2.31-.87.67-.42s-.37.65-.46.64A.29.29,0,0,1,5.35,8.11Z"/><path class="cls-1" d="M10.84,11.29l.08,0-.09-.12.22-.05L10.9,11l0,0-.64,0,0,0,0,.08,0,0,.07.07,0,0v0l0,.08v.08h.45l.1-.06Z"/><path class="cls-1" d="M9.75,11.32l-.07-.11.07-.08L9.69,11h0l0,0-.64.08,0,.07,0,.07,0,.1,0,.06.07,0,0,.07.08.09.57-.08,0-.07Z"/><path class="cls-1" d="M12,11.38h.26l-.15-.09.07,0-.09-.07.06,0-.34-.09-.08.08v0l-.13,0,.11.13v.05l0,0-.07.05.31,0,0-.1Z"/><path class="cls-1" d="M13.51,11.78l.13,0-.07-.06h.06l0,0v0L13,11.44l0,0v0h0l0,.08h0l0,.1.65.15Z"/><path class="cls-2" d="M11.74,11.42v-.05l-.11-.13.13,0v0l.08-.08L11.35,11l-.41,0,0,0,.15.09-.22.05.09.12-.08,0,.05.06-.1.06.45,0,.47.06.07-.05Z"/><path class="cls-2" d="M9.14,11.39l-.07,0,0-.06,0-.1,0-.07,0-.07c-.5.1-.85.25-.81.44s.39.15.95.06l-.08-.09Z"/><path class="cls-2" d="M10.31,11.26v0l0,0-.07-.07,0,0,0-.08,0,0c-.2,0-.41,0-.61,0l0,0h0l.06.11-.07.08.07.11,0,.08,0,.07a5.22,5.22,0,0,1,.58-.05v-.08Z"/><path class="cls-2" d="M12.94,11.61l0-.08h0v0l0,0-.81-.26-.06,0,.09.07-.07,0,.15.09H12l0,.06,0,.1.89.18,0-.1Z"/><path class="cls-2" d="M13.63,11.75h-.06l.07.06-.13,0,.05.09c.59.13,1,.25,1,.25s-.42-.21-1-.44v0Z"/><path class="cls-1" d="M11,11.71H11L11,11.57l.22,0-.15-.1,0,0c-.2,0-.42-.05-.63-.06l0,0v.08l-.05.05.07.07,0,0v.05l0,.09v.07a3.54,3.54,0,0,1,.45,0l.1-.06Z"/><path class="cls-1" d="M9.86,11.68l-.06-.12.07-.07,0-.12h0l0,0a6.48,6.48,0,0,0-.65,0l0,.07,0,.07.05.1,0,.06.06,0,0,.07.08.09.57,0,0-.06Z"/><path class="cls-1" d="M12.12,11.87l.25,0-.14-.1h.08l-.09-.07.06,0-.34-.11-.08.07v0l-.14,0,.11.14v.05l0,0-.07.05.3.07.05-.1Z"/><path class="cls-1" d="M13.59,12.35l.13.05-.06-.06h.06l-.05,0v0L13.07,12l0,0v0h0v.08h0l0,.1.64.18Z"/><path class="cls-2" d="M11.85,11.89v-.05l-.11-.14.14,0v0l.08-.07-.46-.12-.41-.06,0,0,.15.1-.22,0,.07.13H11l.05.06-.1.06.44,0,.47.09.07-.05Z"/><path class="cls-2" d="M9.25,11.71l-.06,0,0-.06-.05-.1,0-.07,0-.07c-.51.06-.86.2-.83.39s.37.17,1,.11l-.08-.09Z"/><path class="cls-2" d="M10.43,11.65V11.6l0,0-.07-.07.05-.05v-.08l0,0H9.83l0,0h0l0,.12-.07.07.06.12,0,.08,0,.06h.58v-.07Z"/><path class="cls-2" d="M13,12.15v-.08h0v0l0,0c-.26-.11-.52-.21-.79-.3l-.06,0,.09.07h-.08l.14.1-.25,0,0,.06-.05.1.89.23,0-.1Z"/><path class="cls-2" d="M13.72,12.33h-.06l.06.06-.13-.05.05.09,1,.31s-.41-.23-1-.49v0Z"/><path class="cls-1" d="M11,12.36H11l0-.15.22,0-.12-.13.06,0-.61-.2,0,0V12l-.06,0,.05.08,0,0v.14l0,.07a3.45,3.45,0,0,1,.43.12l.12,0Z"/><path class="cls-1" d="M9.9,12.08l0-.13.08,0,0-.13h0v0c-.23,0-.44-.08-.64-.1l0,.07-.06.06,0,.12,0,0L9.3,12,9.25,12l.05.1.57.09,0-.07Z"/><path class="cls-1" d="M12.05,12.79l.24.08-.11-.14h.08l-.08-.09.07,0-.3-.18-.1.05v0h-.14l.07.16v.05l0,0-.08,0,.28.14.06-.09Z"/><path class="cls-1" d="M13.37,13.59l.12.08-.05-.07h.06l0,0v0L13,13.11l0,0v0h0v.07h0v.11l.57.32Z"/><path class="cls-2" d="M11.78,12.74v-.05l-.07-.16h.14v0l.1-.05-.42-.22-.38-.16-.06,0,.12.13-.22,0,0,.15H11l0,.07-.12,0,.43.15.43.19.08,0Z"/><path class="cls-2" d="M9.3,12l-.05-.05,0,0,0-.12.06-.06,0-.07c-.51-.06-.88,0-.91.19s.33.25.9.32L9.25,12Z"/><path class="cls-2" d="M10.46,12.18v0l0,0L10.44,12l.06,0V11.9l0,0L10,11.72v0h0l0,.13-.08,0,0,.13-.05.07,0,.07.57.12,0-.07Z"/><path class="cls-2" d="M12.87,13.26v-.07h0v0l0,0c-.22-.16-.46-.33-.7-.48l-.07,0,.08.09h-.08l.11.14-.24-.08,0,.06-.06.09.81.43v-.11Z"/><path class="cls-2" d="M13.5,13.6h-.06l.05.07-.12-.08,0,.1c.53.3.92.54.92.54s-.34-.32-.83-.71v0Z"/><path class="cls-1" d="M10.65,10.55l.08,0-.11-.1.21-.1-.17-.05,0-.06-.63.11,0,0,0,.07,0,.06.09,0v0l0,0,0,.08,0,.07.44-.1.09-.08Z"/><path class="cls-1" d="M9.59,10.79,9.5,10.7l.06-.09-.08-.1,0,0,0,0a4.34,4.34,0,0,0-.61.21l.05.06,0,.07.08.1,0,.06L9,11v.08l.1.07c.16-.07.34-.13.54-.2l-.05,0Z"/><path class="cls-1" d="M11.83,10.4l.25,0-.17-.07.07,0-.1,0,0-.05-.35,0-.07.09,0,0-.13.06.14.1,0,.05h0l-.06.06h.31l0-.1Z"/><path class="cls-1" d="M13.37,10.49h.14l-.08,0,.06,0-.06,0v0l-.66-.11,0,0,0,0h0l0,.07,0,0,0,.1h.67Z"/><path class="cls-2" d="M11.57,10.49l0-.05-.14-.1.13-.06,0,0,.07-.09H11.1l-.41,0,0,.06.17.05-.21.1.11.1-.08,0,.07,0-.09.08.45-.07.47,0,.06-.06Z"/><path class="cls-2" d="M9,11l-.07,0,0-.06-.08-.1,0-.07-.05-.06c-.48.19-.78.41-.71.6s.41.06.95-.14L9,11.06Z"/><path class="cls-2" d="M10.14,10.62l0,0v0l-.09,0,0-.06,0-.07,0,0-.59.15,0,0,0,0,.08.1-.06.09.09.09v.09l.05,0c.17-.06.36-.11.55-.16l0-.07Z"/><path class="cls-2" d="M12.78,10.43l0-.07h0l0,0,0,0c-.27,0-.56-.07-.84-.09l0,.05.1,0-.07,0,.17.07-.25,0,.05,0,0,.1c.29,0,.61,0,.91,0l0-.1Z"/><path class="cls-2" d="M13.49,10.43l-.06,0,.08,0h-.14l.07.07,1.06,0s-.45-.11-1.07-.23v0Z"/><path class="cls-1" d="M10,9.25l.07-.05L10,9.12,10.17,9,10,9l0-.06a4.24,4.24,0,0,0-.59.23v0l0,.07,0,.06.09,0v0l0,0,0,.07,0,.07a4.08,4.08,0,0,1,.42-.19l.07-.09Z"/><path class="cls-1" d="M9.05,9.7l-.11-.08,0-.09-.1-.09,0,0,0,0a4.69,4.69,0,0,0-.55.32l0,0v.08l.1.07V10h.07v.08l.11,0,.49-.29-.06-.05Z"/><path class="cls-1" d="M11.16,8.88l.24-.09-.17,0,.06,0-.12,0,.05-.06-.35,0,0,.1,0,0-.11.09L10.9,9l0,0H11l-.05.07L11.23,9V8.91Z"/><path class="cls-1" d="M12.69,8.66l.14,0-.08,0,.05,0h-.06v0l-.67,0v0l0,0,0,0,0,.06,0,0,.06.09.65-.12Z"/><path class="cls-2" d="M10.92,9l0,0-.16-.07.11-.09,0,0,0-.1-.47.1L10,8.91,10,9l.18,0L10,9.12l.12.08L10,9.25l.08,0-.07.09.42-.15.45-.13L11,9Z"/><path class="cls-2" d="M8.51,10H8.44V9.92l-.1-.07V9.77l0,0c-.43.28-.69.56-.58.73s.41,0,.9-.33l-.11,0Z"/><path class="cls-2" d="M9.55,9.42l0,0v0l-.09,0,0-.06,0-.07v0l-.56.26,0,0,0,0,.1.09,0,.09.11.08v.08l.06.05c.16-.09.33-.19.51-.27l0-.07Z"/><path class="cls-2" d="M12.1,8.72l0-.06,0,0,0,0v0a7.93,7.93,0,0,0-.84.07l-.05.06.12,0-.06,0,.17,0-.24.09.06,0V9c.28-.07.59-.13.89-.18l-.06-.09Z"/><path class="cls-2" d="M12.8,8.58l-.05,0,.08,0-.14,0,.08.06,1.05-.17s-.46,0-1.09,0v0Z"/><path class="cls-1" d="M9.45,8.36l.06-.06-.13-.06.16-.16H9.36V8l-.56.31v.05l.06.06,0,.06.1,0v0l0,0,.06.06,0,.06c.12-.08.25-.17.38-.24l.06-.11Z"/><path class="cls-1" d="M8.54,8.94l-.12-.06,0-.1-.11-.07,0,0,0,0a5.67,5.67,0,0,0-.51.4l.06,0v.08l.1.06v.06h.08v.08l.12,0,.44-.36L8.56,9Z"/><path class="cls-1" d="M10.51,7.82l.22-.12h-.18l.06-.06h-.12l0-.07-.34.11,0,.1,0,0-.1.1.17,0,0,0h0l0,.08L10.59,8l0-.1Z"/><path class="cls-1" d="M12,7.39l.13,0-.08,0,0,0H12l0,0-.66.12v0l0,0,0,0,.05.06,0,0,.07.08.63-.21Z"/><path class="cls-2" d="M10.29,8l0,0-.17,0,.1-.1,0,0,0-.1a4.72,4.72,0,0,0-.45.16L9.37,8v.06h.18l-.16.16.13.06-.06.06h.08l-.06.11a3,3,0,0,1,.4-.21,4.43,4.43,0,0,1,.43-.2l0-.08Z"/><path class="cls-2" d="M8.05,9.31H8V9.25l-.1-.06V9.11l-.06,0c-.38.34-.6.65-.47.8s.41-.08.85-.45l-.12,0Z"/><path class="cls-2" d="M9,8.6l0,0v0l-.1,0,0-.06-.06-.06V8.33c-.17.11-.34.22-.5.34l0,0,0,0,.11.07,0,.1.12.06,0,.08.06,0c.15-.11.3-.23.47-.34l0-.06Z"/><path class="cls-2" d="M11.41,7.54l-.05-.06,0,0,0,0v0l-.82.19,0,.07h.12l-.06.06h.18l-.22.12.06,0,0,.1c.27-.11.57-.21.86-.31l-.07-.08Z"/><path class="cls-2" d="M12.08,7.3l0,0,.08,0-.13,0,.09.05,1-.32L12,7.26l0,0Z"/><path class="cls-1" d="M10,9.33l.06-.06-.13-.06.16-.16H9.92V9l-.56.31v0l.06.06,0,.06.1,0v0l0,0,.06.06,0,.06L10,9.45l.06-.1Z"/><path class="cls-1" d="M9.09,9.91,9,9.85l0-.1-.11-.07,0,0,0,0a5.67,5.67,0,0,0-.51.4l.06,0v.09l.1.06v.06H8.6l0,.08.11,0L9.18,10l-.06,0Z"/><path class="cls-1" d="M11.07,8.8l.22-.13h-.18l.06-.06h-.12l0-.06-.34.1,0,.1,0,0-.1.1.17,0,0,0h0l0,.08.29-.12,0-.1Z"/><path class="cls-1" d="M12.55,8.37l.13,0H12.6l.05-.05h-.06v0l-.67.11V8.4l0,0,0,0,.06,0,0,0,.07.07.63-.21Z"/><path class="cls-2" d="M10.85,9l0,0-.17,0,.1-.1,0,0,0-.1a4.72,4.72,0,0,0-.45.16L9.93,9v.06h.18l-.16.16.13.06L10,9.33l.08,0-.06.1a3,3,0,0,1,.4-.21,4.54,4.54,0,0,1,.43-.19l0-.08Z"/><path class="cls-2" d="M8.6,10.28H8.53v-.06l-.1-.06v-.09l-.06,0c-.39.34-.6.64-.47.79s.4-.07.84-.44l-.11,0Z"/><path class="cls-2" d="M9.55,9.57l0,0v0l-.1,0,0-.06-.06-.06v0c-.17.11-.34.22-.5.34l0,0,0,0L9,9.75l0,.1.12.06,0,.08.06,0a4.37,4.37,0,0,1,.47-.34l0-.06Z"/><path class="cls-2" d="M12,8.51l-.06,0,0,0,0,0V8.35c-.27.06-.55.12-.82.2l0,.06h.12l-.06.06h.18l-.22.13.06,0,0,.1L12,8.62l-.07-.07Z"/><path class="cls-2" d="M12.65,8.27l-.05.05h.08l-.13,0,.09,0,1-.31s-.46,0-1.07.14v0Z"/><path class="cls-1" d="M6.56,3.71l.06,0v.1l0,0,.23-.22,0-.07-.06,0v0l-.05,0V3.4l-.26.18,0,.06Z"/><path class="cls-1" d="M5.25,5.09l0-.08S5.19,5,5.2,5a.07.07,0,0,0,0-.07l-.12,0,.07-.11L5,4.78l-.1.12c-.09.1-.17.21-.25.31l.12,0,0,.11.06,0,0,.06h.07l0,.09.15,0v.1h.12l.2-.27,0,0,0-.15Z"/><path class="cls-1" d="M4.55,6.16,4.6,6,4.48,6V5.91L4.38,6V5.83H4.24A4.83,4.83,0,0,0,4,6.31l0,.13.1,0,0,.09h.18l0,.19.12,0h.12l.21-.37,0-.08Z"/><path class="cls-1" d="M6.26,4.13l-.11,0v-.1h-.1l0-.14,0,0-.37.3v0l0,.11h.14l0,.11,0,0v.1l.13,0,0,.12,0,0c.1-.12.21-.24.32-.35Z"/><path class="cls-2" d="M4.28,6.68l0-.19H4.13l0-.09-.1,0,0-.13c-.29.56-.39,1-.19,1.05s.48-.25.75-.73H4.4Z"/><path class="cls-2" d="M5.05,5.44l-.15,0,0-.09H4.81l0-.06-.06,0,0-.11-.12,0c-.16.21-.31.43-.44.63h.13V6l.09,0V6L4.6,6l0,.12.14,0,0,.08a7,7,0,0,1,.45-.71H5.06Z"/><path class="cls-2" d="M5.93,4.46l-.13,0V4.4l0,0,0-.11H5.62l0-.11v0A5.85,5.85,0,0,0,5,4.78l.12,0-.07.11.12,0A.07.07,0,0,1,5.2,5s.08,0,.08,0l0,.08h.13l0,.15c.17-.21.36-.42.55-.63l0,0Z"/><path class="cls-2" d="M6.05,4.07h.1v.1l.11,0,0,.13.39-.4,0,0v-.1l-.06,0V3.64l0-.06L6,3.9l0,0Z"/><path class="cls-2" d="M6.82,3.5v0l.06,0,0,.07c.5-.5.88-.83.88-.83s-.45.23-1,.59v.08Z"/><path class="cls-1" d="M13.94,9.26l.25.08.07.07c.29-.07.61-.14.94-.2h0L14.85,9V8.93c-.31,0-.63.06-1,.11l.09.07Z"/><path class="cls-1" d="M10.74,10.14l0-.09-.67.32,0,.12.18.07-.16.25s.26,0,.3,0-.2.19-.2.19l.1,0,.76-.43,0-.28Z"/><path class="cls-1" d="M9.65,11.09l-.19-.19,0-.13-.09-.1c-.74.38-1,.61-.77.92s.48.09,1-.21l0-.18Z"/><path class="cls-1" d="M12.75,9.57l.09-.19-.1-.07,0,0-.65.19.27.08-.43.26.38,0-.39.33.09,0L12.3,10A5.82,5.82,0,0,1,13,9.76l0-.13Z"/><path class="cls-2" d="M10.33,10.83s-.34,0-.3,0l.16-.25L10,10.49l0-.12-.62.3.09.1,0,.13.19.19v.11l0,.18.57-.32-.1,0S10.37,10.85,10.33,10.83Z"/><path class="cls-2" d="M12.29,9.78l-.38,0,.43-.26-.27-.08a8.55,8.55,0,0,0-1,.38l-.41.2,0,.09.28.21,0,.28c.31-.16.64-.33,1-.49l-.09,0Z"/><path class="cls-2" d="M14.19,9.34l-.25-.08L14,9.11,13.9,9c-.39.06-.79.14-1.18.24l0,0,.1.07-.09.19.2.06,0,.13c.36-.12.79-.24,1.27-.35Z"/><path class="cls-2" d="M15.19,9.21h0c.67-.13,1.4-.23,2.16-.3a14.4,14.4,0,0,0-2.5,0V9Z"/><path class="cls-1" d="M7.55,4.18l.06,0v.1l0,0c.08-.08.15-.16.23-.23l0-.06L7.79,4l0,0,0,0V3.88l-.27.17.06.07Z"/><path class="cls-1" d="M6.24,5.56l0-.07s-.09,0-.08,0a.1.1,0,0,0,0-.08l-.12,0,.07-.11L6,5.26l-.1.12a3.76,3.76,0,0,0-.25.31l.12,0,0,.1.06,0,0,0,.07,0,0,.09.15,0V6h.11c.07-.09.13-.18.2-.26l0,0,0-.16Z"/><path class="cls-1" d="M5.54,6.63l0-.11-.12,0V6.39l-.09,0V6.31H5.23A4.83,4.83,0,0,0,5,6.79l0,.13.1,0,0,.1H5.3l0,.19.12,0,.12,0c.07-.11.13-.24.21-.36l0-.08Z"/><path class="cls-1" d="M7.24,4.61l-.1,0v-.1H7l0-.13,0,0-.37.29v0l0,.11h.13v.11l0,0V5l.13-.05,0,.13,0,0,.33-.35Z"/><path class="cls-2" d="M5.27,7.16,5.3,7H5.12l0-.1-.1,0,0-.13c-.29.56-.39,1-.19,1s.47-.25.75-.74l-.12,0Z"/><path class="cls-2" d="M6,5.92,5.89,6l0-.09-.07,0,0,0-.06,0,0-.1-.12,0c-.16.21-.31.42-.44.63h.13v.12l.09,0v.08l.12,0,0,.11.14,0,0,.08c.13-.23.28-.48.44-.72H6.05Z"/><path class="cls-2" d="M6.92,4.93,6.79,5v-.1l0,0V4.82H6.61l0-.11v0A7.17,7.17,0,0,0,6,5.26l.12,0-.07.11.12,0a.1.1,0,0,1,0,.08s.08,0,.08,0l0,.07h.12l0,.16c.17-.21.36-.43.54-.63l0,0Z"/><path class="cls-2" d="M7,4.54h.1v.1l.1,0,0,.13c.13-.14.26-.28.39-.4l0,0v-.1l-.06,0V4.12l-.06-.07L7,4.38l0,0Z"/><path class="cls-2" d="M7.81,4l0,0,.07,0,0,.06c.5-.49.88-.83.88-.83s-.45.24-1,.6V4Z"/><path class="cls-1" d="M9,7.83l0-.06-.14-.06L9,7.54l-.18,0V7.5l-.53.35V7.9L8.38,8V8h.1v0l0,0,.07.05,0,.06L9,8l0-.11Z"/><path class="cls-1" d="M8.09,8.48,8,8.43l0-.1-.12-.06,0,0,0,0c-.18.15-.34.3-.48.44l.07,0v.08l.11.06V8.9h.07l0,.08.12,0,.41-.4-.07,0Z"/><path class="cls-1" d="M10,7.22l.21-.14H10L10.05,7H9.93L10,7l-.33.13,0,.11,0,0-.09.11.17,0,0,0h0l0,.08.28-.14,0-.1Z"/><path class="cls-1" d="M11.41,6.67l.13,0h-.09l.05,0h-.06l0,0-.65.17v0l0,0,0,0,.06.05,0,0,.08.07.61-.26Z"/><path class="cls-2" d="M9.76,7.4l0,0-.17,0,.09-.11,0,0,0-.11-.44.2-.35.21v.06l.18,0-.15.17L9,7.77l0,.06H9L9,8c.12-.08.25-.17.38-.24a4,4,0,0,1,.42-.23l0-.08Z"/><path class="cls-2" d="M7.63,8.89H7.56V8.84l-.11-.06V8.7l-.07,0C7,9,6.82,9.36,7,9.5s.4-.11.81-.51L7.65,9Z"/><path class="cls-2" d="M8.51,8.11l0,0V8h-.1V8L8.32,7.9V7.85c-.17.13-.33.25-.48.38l0,0,0,0L8,8.33l0,.1.13.05,0,.08.07,0c.14-.12.28-.25.44-.37l0-.06Z"/><path class="cls-2" d="M10.85,6.86l-.06-.05,0,0,0,0v0c-.27.07-.54.16-.8.25l0,.07h.12L10,7.08h.17L10,7.22l.07,0,0,.1L10.89,7l-.08-.07Z"/><path class="cls-2" d="M11.5,6.57l-.05,0h.09l-.13,0,.09,0,1-.4s-.46.08-1.07.23l0,0Z"/><path class="cls-1" d="M11.7,6.94h.17l.05,0,.72-.41h0l-.25,0,0-.08c-.23.11-.48.22-.73.35l.06,0Z"/><path class="cls-1" d="M9.24,8.49l0-.07-.53.43,0,.1h.13s-.11.2-.14.24.2-.07.22-.07-.16.2-.16.2h.07l.6-.53,0-.23Z"/><path class="cls-1" d="M8.34,9.51l-.12-.1,0-.11-.06-.05c-.58.49-.78.73-.65.92s.35-.06.77-.43V9.51Z"/><path class="cls-1" d="M10.78,7.49l.09-.16-.08,0h0c-.17.1-.33.2-.5.32h.2l-.35.31.29-.12-.31.35h.06L10.41,8l.53-.38,0-.09Z"/><path class="cls-2" d="M8.87,9.12s-.25.11-.22.07S8.79,9,8.79,9H8.66l0-.1-.48.4.06.05,0,.11.12.1v.23l.45-.41H8.71S8.9,9.13,8.87,9.12Z"/><path class="cls-2" d="M10.42,7.79l-.29.12.35-.31h-.2c-.25.17-.5.35-.74.55l-.32.26,0,.07.18.08,0,.23c.24-.21.51-.43.79-.65h-.06Z"/><path class="cls-2" d="M11.87,6.93H11.7l0-.13-.06,0c-.29.15-.6.32-.9.51h0l.08,0-.09.16h.14l0,.09c.28-.19.61-.4,1-.61Z"/><path class="cls-2" d="M12.64,6.56h0c.51-.28,1.06-.56,1.64-.82a13.38,13.38,0,0,0-1.87.69l0,.08Z"/><path class="cls-1" d="M12.46,8.24h.17l0,0L13.43,8h0l-.24-.08,0-.07-.75.27.06,0Z"/><path class="cls-1" d="M9.85,9.52V9.45l-.57.37,0,.1.12,0-.16.22s.2-.05.23,0-.19.18-.19.18l.07,0c.2-.15.42-.31.66-.47L10,9.63Z"/><path class="cls-1" d="M8.85,10.45l-.11-.12.06-.1-.06-.06c-.63.43-.84.65-.74.85s.36,0,.82-.35v-.13Z"/><path class="cls-1" d="M11.49,8.7l.1-.16-.07,0v0a5.28,5.28,0,0,0-.53.27h.19l-.37.28.3-.1-.35.32h.06l.26-.16a5.55,5.55,0,0,1,.57-.32V8.71Z"/><path class="cls-2" d="M9.42,10.12s-.27.08-.23,0l.16-.22-.12,0,0-.1-.53.35.06.06-.06.1.11.12,0,.09v.13l.48-.35-.07,0S9.44,10.13,9.42,10.12Z"/><path class="cls-2" d="M11.1,9l-.3.1.37-.28H11c-.27.14-.53.3-.8.47l-.34.22v.07l.17.11L10,9.85c.26-.19.54-.38.85-.57h-.06Z"/><path class="cls-2" d="M12.63,8.25h-.17l.06-.12-.06,0c-.31.12-.63.26-1,.41v0l.07,0-.1.16h.14V8.8c.3-.16.65-.33,1-.51Z"/><path class="cls-2" d="M13.43,8h0c.54-.22,1.12-.44,1.72-.64a14.41,14.41,0,0,0-1.94.49l0,.07Z"/><path class="cls-1" d="M10.77,5.82H11l0,0,.72-.41h0l-.24-.05V5.31c-.23.11-.48.22-.73.35l.07,0Z"/><path class="cls-1" d="M8.31,7.37l0-.07-.53.43,0,.1h.13l-.14.23S7.92,8,8,8s-.17.2-.17.2h.07l.61-.54,0-.23Z"/><path class="cls-1" d="M7.42,8.39l-.12-.1,0-.11-.06,0c-.58.5-.77.74-.65.92S7,9,7.41,8.62V8.39Z"/><path class="cls-1" d="M9.86,6.38l.08-.17-.07,0,0,0-.5.32h.2L9.2,6.8l.3-.13L9.18,7h.06l.24-.19L10,6.46l0-.08Z"/><path class="cls-2" d="M8,8s-.26.1-.23.06l.14-.23H7.73l0-.1-.48.4.06,0,0,.11.12.1v.23l.44-.4H7.78S8,8,8,8Z"/><path class="cls-2" d="M9.5,6.67l-.3.13.35-.32h-.2c-.25.17-.49.35-.74.55l-.32.26,0,.07.19.08,0,.23c.24-.21.5-.43.78-.65H9.18Z"/><path class="cls-2" d="M11,5.81h-.18l.05-.13-.07,0q-.43.22-.9.51l0,0,.07,0-.08.17H10l0,.08c.28-.19.6-.39,1-.61Z"/><path class="cls-2" d="M11.71,5.44h0c.51-.28,1.07-.56,1.64-.82a15.18,15.18,0,0,0-1.87.69v.08Z"/></g></g></svg>