<svg xmlns="http://www.w3.org/2000/svg" viewBox="0 0 13.4 21.19"><defs><style>.cls-1{fill:#d8933e;}.cls-2{fill:#f9be53;}.cls-3{fill:#010101;}.cls-4{fill:#ce893c;}.cls-5{fill:#2b2828;}.cls-6{fill:#f8c26a;}.cls-7{fill:#f7eddf;}</style></defs><g id="Layer_2" data-name="Layer 2"><g id="Layer_2-2" data-name="Layer 2"><path class="cls-1" d="M3.37.58S3,.18,3.43,0s.42.11.34.42Z"/><path class="cls-2" d="M3.47.51s-.2-.22,0-.33.23.08.19.31Z"/><path class="cls-3" d="M1.71,3.47h0A5.85,5.85,0,0,0,.24,3.31h0a6,6,0,0,1,1.48.16h0A0,0,0,0,1,1.71,3.47Z"/><path class="cls-3" d="M0,4H0V4A6.65,6.65,0,0,1,1.6,3.66h0a0,0,0,0,1,0,0A6.7,6.7,0,0,0,0,4Z"/><path class="cls-3" d="M.41,4.59h0A2.89,2.89,0,0,1,1.72,4h0a2.92,2.92,0,0,0-1.31.57Z"/><path class="cls-4" d="M5.08,19.94s-.89.21-1.1.24-1.2-.18-1.18.47,1.15.21,1.46.14c.65-.15,1.27-.36,1.27-.36Z"/><path class="cls-4" d="M4.11,7.43A9.16,9.16,0,0,0,2.28,8.82c-.5.6-.92,1.65-.78,1.89a1.19,1.19,0,0,0,.3.34S2.87,8.62,4.11,8.67Z"/><path class="cls-4" d="M7.64,20.27a11.09,11.09,0,0,0,2.09-.57.44.44,0,0,1-.14.28c-.12.12.95-.22,1-.3s0,.28-.08.34a1.58,1.58,0,0,0,.47-.23c0-.08,0,.27,0,.26s1-.49,1.05-.57,0,.22,0,.26a3,3,0,0,0,.53-.5c0-.08,0,.24,0,.28a4.06,4.06,0,0,0,.81-.31,5.56,5.56,0,0,1-.71.63H13a2.64,2.64,0,0,1-.67.31c-.12,0,0,.11.12.09s-.66.13-.74.1-.05,0,.08.08-.35.11-.45.12,0,.12.09.15a3.5,3.5,0,0,1-.67,0c-.06,0,0,.11,0,.11a2,2,0,0,1-.61-.16c-.23-.13.09.23.09.23s-.6-.06-.62-.16.06.3.12.3a6.44,6.44,0,0,0-2.17-.45Z"/><path class="cls-2" d="M5.6,20.25A4.58,4.58,0,0,1,7,20.17a6.93,6.93,0,0,1-1.14-3.63,4.49,4.49,0,0,1,1-3.37A38.79,38.79,0,0,1,6.56,8,2.84,2.84,0,0,1,4.42,9.16a5.27,5.27,0,0,0-.64.17,5.27,5.27,0,0,0-.19.61c-.23.94-1.7,5.81.48,9.17C4.33,19.51,5.36,20.31,5.6,20.25Z"/><path class="cls-2" d="M6.31,6.53,6.19,4.19s-1.06.47-1.43.6a3,3,0,0,1-.44.12,20.61,20.61,0,0,0-.47,3.23c0,.15,0,.29,0,.4.7-.26,1.38-.39,1.54-.52A12,12,0,0,0,6.31,6.53Z"/><path class="cls-1" d="M8.12,10.84a10.52,10.52,0,0,1-.2-2.92A4.15,4.15,0,0,0,8,7a3.57,3.57,0,0,0-.22-1,4.4,4.4,0,0,1-.32-1.43c0-.42.31-1.89-.17-2.76,0,0,.59.08.45-.33s-.55-.06-.55-.06A2.25,2.25,0,0,0,5.65.37,3.41,3.41,0,0,0,2.92.76c-.51.34-1.8,2.14-1.21,3.45.39.86,1.75.87,2.61.7a3,3,0,0,0,.44-.12c.37-.13,1.43-.6,1.43-.6l.12,2.34A12,12,0,0,1,5.38,8c-.16.13-.84.26-1.54.52A2.89,2.89,0,0,0,2.27,9.69c-.65,1.19-.52,1.37-.4,1.52s.19.19.26.17c.38-.13.46-1.34.68-1.52a2.19,2.19,0,0,1,1-.53,5.27,5.27,0,0,1,.64-.17A2.84,2.84,0,0,0,6.56,8a38.79,38.79,0,0,0,.26,5.22,4.49,4.49,0,0,0-1,3.37A6.93,6.93,0,0,0,7,20.17a6.18,6.18,0,0,0-1.75,0,1.12,1.12,0,0,0-.64.4.42.42,0,0,0-.08.32c0,.06.11.63,1.61,0,.33-.14,1.27,0,1.44-.16a6.22,6.22,0,0,0,.75-1.57C8.9,17.15,9.06,15.38,8.12,10.84Z"/><path class="cls-5" d="M4.93,1.32a.17.17,0,0,0-.19-.18.18.18,0,0,0-.18.19.19.19,0,0,0,.19.18A.18.18,0,0,0,4.93,1.32Z"/><path class="cls-5" d="M3.17,1.08A.18.18,0,0,0,3,.91a.18.18,0,0,0-.17.18A.18.18,0,0,0,3,1.26.17.17,0,0,0,3.17,1.08Z"/><path class="cls-6" d="M7.35,5.21c0,.2,0,.36-.1.36s-.12-.16-.13-.35,0-.35.11-.35S7.35,5,7.35,5.21Z"/><path class="cls-6" d="M7.89,6.89c0,.25,0,.46-.12.46s-.14-.2-.14-.46,0-.46.12-.46S7.88,6.63,7.89,6.89Z"/><path class="cls-6" d="M7.67,8.93c0,.27-.06.48-.16.48s-.18-.21-.19-.47.07-.48.17-.48S7.67,8.67,7.67,8.93Z"/><path class="cls-6" d="M8,10.76c0,.27-.05.49-.12.49s-.14-.22-.14-.48,0-.49.12-.49S8,10.5,8,10.76Z"/><path class="cls-6" d="M8,12.48c0,.25,0,.46-.12.46s-.14-.2-.15-.45,0-.46.13-.46S8,12.23,8,12.48Z"/><path class="cls-2" d="M7.23,1.58s.32-.28.4,0-.12.16-.35.18Z"/><path class="cls-3" d="M3.86,3.37h0a4.6,4.6,0,0,1,1.68-.67h0s0,0,0,0a4.49,4.49,0,0,0-1.67.66Z"/><path class="cls-3" d="M4.21,3.53h0v0A5.55,5.55,0,0,1,6,3.4s0,0,0,0H6a5.47,5.47,0,0,0-1.75.11Z"/><path class="cls-3" d="M5.9,4.15h0A3.73,3.73,0,0,0,4,3.83a0,0,0,0,1,0,0s0,0,0,0a3.83,3.83,0,0,1,2,.33s0,0,0,0Z"/><path class="cls-7" d="M2.22,4.09s-.2.2-.31.2A.72.72,0,0,0,2,4.73s.28,0,.28,0,.23,0,.28,0,.09-.44,0-.44S2.22,4.09,2.22,4.09Z"/><rect class="cls-1" x="2.21" y="4.1" width="0.04" height="0.63" transform="translate(-0.1 0.05) rotate(-1.31)"/><path class="cls-5" d="M3.24,4.12a.06.06,0,0,0-.07,0,.66.66,0,0,1-.91-.06l0-.59h.11c.35-.1.7-.31.69-.71s-.33-.52-.73-.51-.73.14-.72.54a.73.73,0,0,0,.56.69l0,.59a.42.42,0,0,1-.39.23,0,0,0,0,0,0,0,0,0,0,0,0,0,0h0a.48.48,0,0,0,.4-.24.76.76,0,0,0,.54.22.83.83,0,0,0,.46-.16A.07.07,0,0,0,3.24,4.12Z"/></g></g></svg>