<svg xmlns="http://www.w3.org/2000/svg" viewBox="0 0 17.31 18.52"><defs><style>.cls-1{fill:#f1582a;}.cls-2{fill:#f15f38;}.cls-3{fill:#e8b870;}.cls-4{fill:#111;}.cls-5{fill:#cbcbcb;}.cls-6{fill:#ae5a45;}.cls-7{fill:#e8e4e3;}</style></defs><g id="Layer_2" data-name="Layer 2"><g id="Layer_2-2" data-name="Layer 2"><path class="cls-1" d="M10,18.5c.38.11,1.23-.51,1.28-.56s-.24-1.38-.79-1.27-1.4.67-1.33.84S9.64,18.41,10,18.5Z"/><path class="cls-1" d="M6.35,18a2.13,2.13,0,0,0,1.37-.27c.17-.11-.16-1.39-.49-1.43s-1.56.52-1.52.7A1.64,1.64,0,0,0,6.35,18Z"/><path class="cls-2" d="M10.7,15.1a4.75,4.75,0,0,1-.33,1.41c-.18.16-1.27.77-1.23,1s1.15-.65,1.15-.6-.46,1.47-.33,1.6.6-1.54.66-1.54.51,1.05.64,1-.55-1.3-.51-1.51.24-1.37.24-1.37S10.73,14.92,10.7,15.1Z"/><path class="cls-2" d="M7.59,14.65a5.18,5.18,0,0,1-.47,1.5c-.21.13-1.37.62-1.41.81-.08.35,1.22-.42,1.21-.37S6.2,17.91,6.35,18c.3.21.83-1.37.9-1.36s.34,1.11.47,1.09c.29-.05-.28-1.35-.21-1.55s.32-1.42.32-1.42S7.65,14.47,7.59,14.65Z"/><path class="cls-3" d="M1.73,4a5,5,0,0,0,.89-.82,4.45,4.45,0,0,1-.86.91h0A1.81,1.81,0,0,0,3,5.17L3.66,5,2.83,3.54a6.25,6.25,0,0,1-.05-2.39,6.4,6.4,0,0,0-.89.57A2.63,2.63,0,0,0,1.73,4Z"/><path class="cls-1" d="M0,4.62A2.82,2.82,0,0,0,1.73,4a2.63,2.63,0,0,1,.16-2.27A4.12,4.12,0,0,0,0,4.62Z"/><path class="cls-1" d="M1.77,4.09h0a3.2,3.2,0,0,1-1.68.73s.68,1,2.93.36A1.81,1.81,0,0,1,1.77,4.09Z"/><path class="cls-4" d="M1.88,3.75a4,4,0,0,0,.52-.51,3.61,3.61,0,0,1-.09-1.6S1.48,2.2,1.88,3.75Z"/><path class="cls-4" d="M2.5,3.48a3.1,3.1,0,0,0,.81,1.33s-.41.27-.93-.22A1.59,1.59,0,0,1,2,4C2,3.94,2.5,3.48,2.5,3.48Z"/><path class="cls-4" d="M15.75,12s.56-.24.44-.53-.86-.25-1.26-.45S14,9.87,12.52,8C10.93,5.9,8.26,5.07,7.91,4.29s0-1.06-.35-2.26a2.76,2.76,0,0,0-3.19-2,2.25,2.25,0,0,0-1.91,2.4c.12,1.32.76,1.63,1.2,2.65.19.44,0,.7-.28,1.32A1.47,1.47,0,0,1,4.1,6C5,5.78,5.88,7.63,6.77,8s2,.33,2.75,1,2.8,3.3,3.12,5.25a11.9,11.9,0,0,1,2.59-.9c1.66-.35,2-.46,2.08-.82S15.75,12,15.75,12Z"/><path class="cls-5" d="M9.52,9c-.79-.68-1.86-.6-2.75-1S5,5.78,4.1,6a1.47,1.47,0,0,0-.72.42l-.19.41a5.94,5.94,0,0,0,1,5A9.8,9.8,0,0,0,7,14.27c.31.16.48.53.6.59s.22.12.55,0a10.27,10.27,0,0,1,1.93,0c.28,0,.47.36.8.33s.69-.45,1.43-.77l.37-.16C12.32,12.34,10.19,9.61,9.52,9Z"/><path class="cls-5" d="M2.78,3.13a2,2,0,0,0,2.6,1.14A3.87,3.87,0,0,0,7.49,2.16a1.34,1.34,0,0,1-.84-.11C6.31,1.83,5.56.47,4.16.83A1.71,1.71,0,0,0,2.78,3.13Z"/><path class="cls-4" d="M4.59,1.14a2.45,2.45,0,0,0-.5,2.1A3.11,3.11,0,0,1,4.78,3c.28,0,.58,0,.86-.06a.89.89,0,0,0,.47-.28,1.07,1.07,0,0,1-.44.23A.68.68,0,0,1,5,2.52,4.86,4.86,0,0,1,4.59,1.14Z"/><circle class="cls-6" cx="4.5" cy="2.32" r="0.36"/><path class="cls-4" d="M4.69,2.33a.22.22,0,0,0-.21-.21.21.21,0,0,0-.21.21.21.21,0,0,0,.21.21A.21.21,0,0,0,4.69,2.33Z"/><path class="cls-7" d="M4.62,2.26a.09.09,0,0,0,0-.1.08.08,0,0,0-.11,0,.07.07,0,0,0,0,.1S4.6,2.3,4.62,2.26Z"/></g></g></svg>