<svg xmlns="http://www.w3.org/2000/svg" viewBox="0 0 24.75 14.14"><defs><style>.cls-1{fill:#a67757;}.cls-2{fill:#e7bda0;}.cls-3{fill:#9b7052;}.cls-4{fill:#ae7c5a;}.cls-5{fill:#bc865e;}.cls-6{fill:#b27f5c;}.cls-7{fill:#f3eded;}.cls-8{fill:#161515;}.cls-9{fill:#66472f;}</style></defs><g id="Layer_2" data-name="Layer 2"><g id="Layer_2-2" data-name="Layer 2"><path class="cls-1" d="M24.6.41c-.2-.33-.93-.64-1.23.26a2.51,2.51,0,0,0,.43.73A.65.65,0,0,0,24.6.41Z"/><path class="cls-2" d="M24.32.56c-.21-.28-.68-.21-.83.36a3.18,3.18,0,0,0,.3.28C24,1.35,24.67,1,24.32.56Z"/><path class="cls-1" d="M18.87.28c.22-.31,1-.56,1.2.36a2.8,2.8,0,0,1-.48.7A.66.66,0,0,1,18.87.28Z"/><path class="cls-2" d="M19.14.46c.23-.27.69-.16.8.43,0,0-.21.17-.33.25S18.75.91,19.14.46Z"/><path class="cls-3" d="M6.74,3.92a1.63,1.63,0,0,0-1.25.2c-1.2.62-1.85,2.05-1.91,5.24-.05,2.66-1.29,3.3-2,2.92-.33-.17-1-.9-1.46-.3S1,13.51,2.21,13.35a2.51,2.51,0,0,0,2-1.74c.64-1.74.16-3.8.8-5.51A2.15,2.15,0,0,1,6.16,4.67C6.46,4.57,6.74,3.92,6.74,3.92Z"/><path class="cls-4" d="M8.23,9.48a9.58,9.58,0,0,0-.33,1.66,4,4,0,0,0,.43,1.48c.19.19.7.43.7.75s-.37.42-.83.26a3.41,3.41,0,0,1-1.11-2.35A7.4,7.4,0,0,1,8.23,9.48Z"/><path class="cls-4" d="M17.18,9.69a9.25,9.25,0,0,0,.15,1.69,5.51,5.51,0,0,0,.5,1.5c.3.46.22,1-.54.8S16.79,10.38,17.18,9.69Z"/><path class="cls-5" d="M6.53,8.78c0,1.43-.68,2.11-.56,2.7s.81,1.76.88,2.1.11.56.35.56A.3.3,0,0,0,7.5,14a.34.34,0,0,0,.56-.14s.41,0,.42-.3-.46-.43-.58-.61-.73-1.17-.65-1.55S8.67,9.19,8.92,8.61A3.53,3.53,0,0,0,9.33,6.3a5.33,5.33,0,0,1,1.73.83,5.46,5.46,0,0,0,4.53,1.28s-.05,2.08,0,2.37a21,21,0,0,1,.26,2.28c0,.22-.16.66.13.8a.33.33,0,0,0,.33-.07s.34.31.6,0c0,0,.41.2.53-.12s-.26-.59-.36-.75a5.77,5.77,0,0,1-.11-2A12,12,0,0,1,18.1,7.59c.47-.5,2.16-2.38,2.5-2.72L19.43,1.68a8,8,0,0,0-2.22.41c-.72.3-1.2.58-1.36.62a13.16,13.16,0,0,1-3.36.37c-.62,0-4.29-.68-5.69.59C4.62,5.65,6.55,7.34,6.53,8.78Z"/><path class="cls-6" d="M21.76.12a2,2,0,0,1,2.11,1.15c.26.63-.12,3.93-2.2,4.07-.78,0-1.62-1.06-2-2A2.72,2.72,0,0,1,19.59,1,2.43,2.43,0,0,1,21.76.12Z"/><path class="cls-7" d="M22.25,2.35s.32-1,1.5-.45A1,1,0,0,1,22.25,2.35Z"/><circle class="cls-8" cx="23" cy="2.14" r="0.36"/><path class="cls-7" d="M23.23,2.05s-.08,0-.14,0S23,2,23,1.92s.08,0,.14,0S23.25,2,23.23,2.05Z"/><path class="cls-7" d="M21.29,2.42S21,1.47,19.78,2A1,1,0,0,0,21.29,2.42Z"/><path class="cls-8" d="M20.18,2.22a.36.36,0,1,1,.35.35A.36.36,0,0,1,20.18,2.22Z"/><path class="cls-7" d="M20.56,2s.08,0,.14,0,.1.09.08.12-.08,0-.14,0S20.54,2,20.56,2Z"/><path class="cls-1" d="M21.8,2a.55.55,0,0,1,.45.37c0,.13-.11.28-.08.43s.39.92.3,1.09-.55-.23-.8-.19-.65.46-.78.3.42-1,.44-1.22-.06-.32,0-.39A.58.58,0,0,1,21.8,2Z"/><path class="cls-1" d="M21.77,5.42c.43,0,.87-.29.67-.32a.79.79,0,0,1-.7-.69s-.64.65-.73.71S21.4,5.45,21.77,5.42Z"/><path class="cls-2" d="M22.39,3.6a5.79,5.79,0,0,1-1.5.07c-.34,0-.71.13-.71.58a1,1,0,0,0,.8.94c.27,0,.55-.17.76-.68a.94.94,0,0,0,.71.68,1,1,0,0,0,.91-.78C23.47,3.72,22.92,3.49,22.39,3.6Z"/><path class="cls-9" d="M23.75,4.48h0a1,1,0,0,0-.91-.11h0s0,0,0,0a1.07,1.07,0,0,1,.94.11s0,0,0,0S23.76,4.48,23.75,4.48Z"/><path class="cls-9" d="M23.56,4.85h0c-.19-.33-.72-.27-.72-.27s0,0,0,0,0,0,0,0,.56-.07.76.28a0,0,0,0,1,0,0Z"/><path class="cls-9" d="M23.31,5.21l0,0a.71.71,0,0,0-.55-.42l0,0h0a.74.74,0,0,1,.59.44,0,0,0,0,1,0,0Z"/><path class="cls-9" d="M19.82,4.77h0a0,0,0,0,1,0,0,.91.91,0,0,1,.83-.26s0,0,0,0,0,0,0,0a.89.89,0,0,0-.79.25Z"/><path class="cls-9" d="M19.67,4.42h0a0,0,0,0,1,0,0,1,1,0,0,1,.94-.08s0,0,0,0h0a1,1,0,0,0-.91.08Z"/><path class="cls-9" d="M20.09,5.07h0s0,0,0,0a.87.87,0,0,1,.65-.38s0,0,0,0a0,0,0,0,1,0,0,.85.85,0,0,0-.62.36Z"/><path class="cls-9" d="M21.7,3.4c.45,0,.93.11.86.54,0,.26-.37.3-.44.18s0-.15-.08-.2-.26.06-.2.13.1.3-.12.3-.15-.21-.1-.27A.12.12,0,0,0,21.43,4c-.12.1-.08.29-.35.25a.34.34,0,0,1-.19-.53A1.05,1.05,0,0,1,21.7,3.4Z"/></g></g></svg>