<svg xmlns="http://www.w3.org/2000/svg" viewBox="0 0 15.87 18.09"><defs><style>.cls-1{fill:#948c8b;}.cls-2{fill:#cdcccc;}.cls-3{fill:#4c484e;}.cls-4{fill:#f2f0f1;}.cls-5{fill:#282525;}</style></defs><g id="Layer_2" data-name="Layer 2"><g id="Layer_2-2" data-name="Layer 2"><path class="cls-1" d="M3.58,14.92s.08,1.49.14,1.69c.11.36-.21.33-.43.37s-2,.37-2.35,0,0-.67.52-.58a3.08,3.08,0,0,0,1.56,0c.07,0,0-.14-.24-.54s-1.67-2.72.09-2.48C2.87,13.39,3.36,13.53,3.58,14.92Z"/><path class="cls-1" d="M2.71,11.32s1-.65,1.1-1.12S4,6.82,4,6.82H3.86S3.71,9.77,2.45,11A.72.72,0,0,1,2.71,11.32Z"/><path class="cls-2" d="M4,6.82s-.18,3.54-1.09,5.12.19,4.19,3.34,4,3.52-2.67.28-9Z"/><path class="cls-3" d="M8.18,10.51a11.69,11.69,0,0,1,.54-1.34c.36.92,1.67,3.25,6,3.94a6.44,6.44,0,0,1-1.2,1.39C12.39,14.09,9.22,12.81,8.18,10.51Z"/><path class="cls-3" d="M11.44,5.78c.34-.28.69-.54,1-.76.27.54,1.08,1.59,3.34,1.81,0,.5.07,1,.07,1.58A5.24,5.24,0,0,1,11.44,5.78Z"/><path class="cls-3" d="M9.46,7.93a9.84,9.84,0,0,1,.83-1c.25.8,1.27,2.74,5.48,3.31a9.08,9.08,0,0,1-.33,1.5C14.25,11.54,10.8,10.86,9.46,7.93Z"/><path class="cls-3" d="M7.66,13.85a10.93,10.93,0,0,1,.08-1.3,10.72,10.72,0,0,0,4.1,2.95,5.61,5.61,0,0,1-1.69.31C9.36,15.41,7.9,14.59,7.66,13.85Z"/><path class="cls-3" d="M15.26,3.63s.17.65.34,1.65a2.86,2.86,0,0,1-1.89-1A9.91,9.91,0,0,1,15.26,3.63Z"/><path class="cls-1" d="M12.46,5a10.77,10.77,0,0,1,1.25-.73,2.86,2.86,0,0,0,1.89,1c.07.45.14,1,.2,1.55C13.54,6.61,12.73,5.56,12.46,5Z"/><path class="cls-1" d="M10.29,6.88a11.79,11.79,0,0,1,1.15-1.1,5.24,5.24,0,0,0,4.43,2.63,11.73,11.73,0,0,1-.1,1.78C11.56,9.62,10.54,7.68,10.29,6.88Z"/><path class="cls-1" d="M8.72,9.17a10.69,10.69,0,0,1,.74-1.24c1.34,2.93,4.79,3.61,6,3.76A6.1,6.1,0,0,1,14.86,13l-.1.15C10.39,12.42,9.08,10.09,8.72,9.17Z"/><path class="cls-1" d="M8.18,10.51c1,2.3,4.21,3.58,5.38,4a5.37,5.37,0,0,1-1.72,1,10.72,10.72,0,0,1-4.1-2.95A10.35,10.35,0,0,1,8.18,10.51Z"/><path class="cls-1" d="M7.86,15.48l-.15-.25a13.1,13.1,0,0,1,0-1.38c.24.74,1.7,1.56,2.49,2A6.29,6.29,0,0,1,7.86,15.48Z"/><path class="cls-1" d="M5.18,11.48a2.74,2.74,0,0,0,1-1.54,15.6,15.6,0,0,0-.88-3l1.12,0s5.35,7.73,1.1,9.07h0a12.44,12.44,0,0,1,.41,1.35c.15.55-.37.52-.56.53A11.76,11.76,0,0,1,5,18.06c-.49-.12-.59-.45-.13-.72a1.83,1.83,0,0,1,1.24,0A2.81,2.81,0,0,0,7,17.16c.13-.06.24,0-.07-.24s-3.41-2.8-.31-3.66a4.62,4.62,0,0,0-.2-2.08s-.51.34-1,.67A.64.64,0,0,0,5.18,11.48Z"/><path class="cls-3" d="M4.74,12.38c-.15.14-.15.76-.31.74s.11-.45,0-.52-.38.43-.5.34.36-.43.33-.49-.56.15-.6,0,.54-.14.54-.23-.51-.09-.42-.29.51.18.64.11a4.2,4.2,0,0,0,.77-.53.64.64,0,0,1,.26.37A7.12,7.12,0,0,0,4.74,12.38Z"/><path class="cls-3" d="M2,11.85c-.14.14-.14.76-.3.74s.1-.45,0-.52-.39.43-.51.34.36-.43.33-.49-.56.15-.59,0,.53-.14.54-.22-.51-.1-.42-.3.51.19.64.11A3.81,3.81,0,0,0,2.45,11a.66.66,0,0,1,.27.37C2.41,11.53,2.13,11.75,2,11.85Z"/><path class="cls-1" d="M1.78,2.69a4.75,4.75,0,0,1,1-1.17C2.42.42,2.41.1,2.65,0S4,.91,4,.91a3.63,3.63,0,0,1,3,.17S8.11.05,8.41.32s-.27,1.57-.27,1.57a9.14,9.14,0,0,1,1,1.56c.27.61.9,2.09.3,2.63a7.22,7.22,0,0,1-4.34,1.1C3.45,7,1.26,6.31,1,5.62S1.42,3.35,1.78,2.69Z"/><path class="cls-3" d="M7.92,1.69l-.54-.4S8,.64,8.19.72,7.92,1.69,7.92,1.69Z"/><path class="cls-3" d="M3.59,1.07,3,1.35S2.66.51,2.79.42,3.59,1.07,3.59,1.07Z"/><path class="cls-4" d="M3.86,5.66A1.34,1.34,0,0,1,5.23,4.35,1.34,1.34,0,0,1,6.45,5.81,1.35,1.35,0,0,1,5.08,7.12,1.34,1.34,0,0,1,3.86,5.66Z"/><path class="cls-3" d="M8,6.78C7.39,6.9,6.5,5.93,6,4.3S7.6,3,8.73,3.59s1.55.34,1.55.34-.19.61-.63.62c0,0,.5.34.85.1,0,0-.26.71-.81.62a1,1,0,0,0,.88.21S10.22,6.35,8,6.78Z"/><path class="cls-3" d="M2.26,6.47C2.85,6.62,4,5.62,4.41,4S2.84,2.75,1.75,3.34s-1.5.37-1.5.37.19.6.62.6c0,0-.48.35-.82.11,0,0,.27.7.8.6A1,1,0,0,1,0,5.25,4.12,4.12,0,0,0,2.26,6.47Z"/><path class="cls-5" d="M6.29,4.24a.16.16,0,0,1,.18-.16.17.17,0,0,1,.16.17.18.18,0,0,1-.18.17A.17.17,0,0,1,6.29,4.24Z"/><path class="cls-5" d="M3.78,4.09A.18.18,0,0,1,4,3.93a.18.18,0,0,1,.16.18.17.17,0,0,1-.34,0Z"/><path class="cls-5" d="M4.58,5.94s0,0,.06,0a.65.65,0,0,0,.46.3l0-.61c-.28,0-.49-.16-.48-.31s.25-.28.54-.27.51.16.5.32-.22.27-.48.27l0,.6A.81.81,0,0,0,5.65,6h0s0,0,0,.06a.92.92,0,0,1-.6.28h0A.71.71,0,0,1,4.57,6S4.56,6,4.58,5.94Z"/></g></g></svg>