<svg xmlns="http://www.w3.org/2000/svg" xmlns:xlink="http://www.w3.org/1999/xlink" viewBox="0 0 22.94 26.35"><defs><style>.cls-1{fill:#c2692a;}.cls-2{fill:#342d2e;}.cls-3{fill:#f6b381;}.cls-4{fill:#d87129;}.cls-5{fill:#f8ba8f;}.cls-6{opacity:0.7;fill:url(#radial-gradient);}</style><radialGradient id="radial-gradient" cx="16.13" cy="29.97" r="0.5" gradientTransform="translate(-12.94 -34.33) scale(1.42 1.51)" gradientUnits="userSpaceOnUse"><stop offset="0" stop-color="#f16758"/><stop offset="1" stop-color="#d87129"/></radialGradient></defs><g id="Layer_2" data-name="Layer 2"><g id="Layer_2-2" data-name="Layer 2"><path class="cls-1" d="M18.94,18.89s.15,1.77,1,1.9c.62.09,1.36-.16,1.55-.06s.23,2.61,1.06,3.59c.12.14-.4.44-.4.44a10.25,10.25,0,0,1-1-3.54,3.55,3.55,0,0,1-1.37.27c-.58,0-1.28-.32-1.32-.7A8.9,8.9,0,0,1,18.94,18.89Z"/><path class="cls-2" d="M22.12,24.76l.29.45a.89.89,0,0,0,.53-.68l-.42-.21Z"/><path class="cls-1" d="M6.22,18.37,4.43,18A.33.33,0,0,0,4,17.9c-.25.1-.21.22-.21.22l-2.3,3.23s-.1,0-.12.14a.56.56,0,0,0,0,.25l.12.66L2,21.87s-.13-.22-.11-.29a28,28,0,0,1,2.33-2.91,15.36,15.36,0,0,1,2.56.6Z"/><path class="cls-2" d="M1.53,22.4l.26.5a1,1,0,0,0,.64-.67L2,21.87Z"/><path class="cls-3" d="M17.88,16.71s1.45.13,1.62-1.15c.1-.81-1-1.23-1-1.23A3.25,3.25,0,0,1,17.88,16.71Z"/><path class="cls-4" d="M18,16.63a4.36,4.36,0,0,0,.53-2.33S20,15.73,18,16.71Z"/><path class="cls-3" d="M5.93,11.85c0-1.64-.28-1.17-.28-1.17-.12.35-.19.57-.23.74A16,16,0,0,0,5.17,15c.21,2.17.62,3.9,2.7,5.37l0,0,.2.13.06,0,.22.13,0,0,.26.14h0L9,21H9c1.57.68,3.75.85,6.73.17L15.18,20C5.66,22.24,5.93,13.48,5.93,11.85Z"/><path class="cls-4" d="M8.4,20.76h0Z"/><path class="cls-4" d="M7.9,20.45l0,0Z"/><path class="cls-4" d="M9,21Z"/><path class="cls-4" d="M8.69,20.91h0Z"/><path class="cls-4" d="M8.15,20.62l-.05,0Z"/><path class="cls-4" d="M20.36,21.84a3.23,3.23,0,0,1-1.69-.38c-.49-.2.18-1.27.24-1.95.47-5-4.8-2.84-6.64-3-5.62-.34-3.84-6.71-3.84-6.71s.49,4.2,4.82,2.67c.32-.12.05-.57.05-.57a11,11,0,0,1-.91-1.35c-.09-.26-.72-3.13-2.67-3.07s-3.1.83-4.07,3.15c0,0,.28-.46.28,1.18,0,1.13-.13,5.65,2.91,7.63L5.54,21.8s-.13,0-.28.21,0,.23-.06.3S5,24.82,5,24.82a1.22,1.22,0,0,0,0,.32,1.39,1.39,0,0,0,.42.75l.4-.5a.42.42,0,0,1-.27-.27,14.08,14.08,0,0,1,.18-2.4A.87.87,0,0,1,6,22.28a34.83,34.83,0,0,1,4.2-2.15,9.53,9.53,0,0,0,5-.07,6.71,6.71,0,0,0,.51,1.15c.67.82,1.36,1.39,4.2,1.19a18.76,18.76,0,0,0,.78,3.37l.5-.31C20.36,23.6,20.54,21.83,20.36,21.84Z"/><path class="cls-4" d="M8.66,20.9l-.26-.14Z"/><path class="cls-4" d="M8.1,20.58a1.37,1.37,0,0,1-.2-.13A1.37,1.37,0,0,0,8.1,20.58Z"/><path class="cls-4" d="M8.37,20.75l-.22-.13Z"/><path class="cls-2" d="M12,9.54a.17.17,0,0,0-.16-.17.17.17,0,0,0,0,.34A.17.17,0,0,0,12,9.54Z"/><path class="cls-2" d="M10.7,10a.18.18,0,1,0-.36,0,.18.18,0,0,0,.36,0Z"/><path class="cls-2" d="M13.34,12.48c.15-.14,0-.66-.16-.7s-.59.34-.52.54S13.21,12.6,13.34,12.48Z"/><path class="cls-2" d="M10.82,12.7h0a1.08,1.08,0,0,1-.54-1.13s0,0,0,0,0,0,0,0a1,1,0,0,0,.51,1.07s0,0,0,0Z"/><path class="cls-4" d="M10.65,7.89s-.08-2.09,1.87-1.76c0,0,.16,1.35-1.81,1.81Z"/><path class="cls-5" d="M12.37,6.29s0,1.23-1.62,1.6C10.75,7.89,10.77,6,12.37,6.29Z"/><path class="cls-4" d="M9.17,7.84s.24-2.18-1.64-2.28a2,2,0,0,0,1.3,2.35Z"/><path class="cls-5" d="M9.05,7.81s.22-1.89-1.41-2A2,2,0,0,0,8.92,7.89Z"/><path class="cls-2" d="M21.27,3.81a.22.22,0,0,0-.3-.12,5.29,5.29,0,0,1-1.48.38,8.12,8.12,0,0,1,.32-.75.22.22,0,0,0-.1-.31.23.23,0,0,0-.31.1,7.63,7.63,0,0,0-.41,1A8.37,8.37,0,0,1,17.25,4,13.46,13.46,0,0,0,19.8,1a.23.23,0,0,0-.07-.32.24.24,0,0,0-.32.08,10.79,10.79,0,0,1-1,1.36,9.41,9.41,0,0,0-.4-.94.23.23,0,1,0-.41.2A4.94,4.94,0,0,1,18,2.58a19.65,19.65,0,0,1-3.15,2.67A7.19,7.19,0,0,0,15.07,3a6.13,6.13,0,0,0,1-1,.22.22,0,0,0,0-.32.23.23,0,0,0-.32,0,6.25,6.25,0,0,1-.72.74,5.84,5.84,0,0,0-.64-2,.23.23,0,0,0-.31-.09A.24.24,0,0,0,14,.73a5.92,5.92,0,0,1,.65,2.79,2,2,0,0,1-.45-.42.23.23,0,0,0-.39.23,2.13,2.13,0,0,0,.82.71,7.27,7.27,0,0,1-.32,1.61A27.13,27.13,0,0,1,10.5,7.73a.23.23,0,0,0,.09.44.15.15,0,0,0,.09,0,26.77,26.77,0,0,0,6.13-3.78,7,7,0,0,0,1,.15,3.63,3.63,0,0,0,.78,1,.24.24,0,0,0,.15.06.25.25,0,0,0,.18-.08.22.22,0,0,0,0-.32,4,4,0,0,1-.52-.61h.37a6.16,6.16,0,0,0,2.47-.46A.23.23,0,0,0,21.27,3.81Z"/><path class="cls-2" d="M9.49,7.76s-2.34-1.4-4-2.61a5.44,5.44,0,0,1,.16-1.54,8.65,8.65,0,0,0,1.29-.36A.25.25,0,0,0,7.07,3a.23.23,0,0,0-.3-.13,9.63,9.63,0,0,1-1,.29,3.43,3.43,0,0,1,.9-1.41.23.23,0,0,0-.29-.36A4.62,4.62,0,0,0,5,4.81l-.47-.37a3.85,3.85,0,0,1-1-1.33A3,3,0,0,0,4.37,2a.21.21,0,0,0-.13-.29.23.23,0,0,0-.3.13,2.54,2.54,0,0,1-.54.85A9.81,9.81,0,0,1,2.84.21a.23.23,0,0,0-.46,0A11.58,11.58,0,0,0,2.69,2a4,4,0,0,1-1-.29.23.23,0,0,0-.18.42,4.42,4.42,0,0,0,1.38.35A5.08,5.08,0,0,0,4.27,4.79c.2.17.43.35.67.53a4.39,4.39,0,0,1-2.52.42,2.55,2.55,0,0,0-.56-1.16.23.23,0,1,0-.34.3,2.34,2.34,0,0,1,.4.78A5.52,5.52,0,0,1,.35,5.07.24.24,0,0,0,0,5.15a.24.24,0,0,0,.08.32A6.15,6.15,0,0,0,3,6.24a4.71,4.71,0,0,0,2.36-.62C7,6.81,9.15,8.09,9.26,8.16l.12,0a.23.23,0,0,0,.19-.11A.23.23,0,0,0,9.49,7.76Z"/><path class="cls-3" d="M10.1,16.16c0-.06-.06-.15-.18-.18s-.24,0-.26.06.06.15.19.19S10.08,16.23,10.1,16.16Z"/><path class="cls-3" d="M15.77,17.68c0-.09-.14-.16-.32-.16s-.31.07-.31.16.14.16.31.16S15.77,17.77,15.77,17.68Z"/><ellipse class="cls-3" cx="16.46" cy="16.84" rx="0.29" ry="0.12"/><path class="cls-3" d="M12.65,16.84c0-.07-.1-.13-.23-.13s-.22.06-.22.13.1.12.22.12S12.65,16.91,12.65,16.84Z"/><ellipse class="cls-3" cx="11.46" cy="17.36" rx="0.35" ry="0.13"/><ellipse class="cls-3" cx="13.81" cy="17.85" rx="0.31" ry="0.16"/><ellipse class="cls-3" cx="14.43" cy="16.84" rx="0.27" ry="0.12"/><path class="cls-3" d="M15.88,16.29c0-.06-.09-.1-.21-.1s-.22,0-.22.1.1.1.22.1S15.88,16.34,15.88,16.29Z"/><path class="cls-2" d="M5.39,25.89l.32.46a.94.94,0,0,0,.54-.74l-.46-.22Z"/><path class="cls-2" d="M20.64,25.68l.12.51a.89.89,0,0,0,.72-.47l-.32-.34Z"/><ellipse class="cls-6" cx="9.88" cy="10.94" rx="0.71" ry="0.76"/></g></g></svg>