<svg xmlns="http://www.w3.org/2000/svg" xmlns:xlink="http://www.w3.org/1999/xlink" viewBox="0 0 27.83 12.85"><defs><style>.cls-1{fill:#a3a4a8;}.cls-2{fill:#afafb7;}.cls-3{fill:#989aa0;}.cls-4{fill:#cecfcb;}.cls-5{fill:#76757f;}.cls-6{fill:#282826;}.cls-7{opacity:0.6;fill:url(#radial-gradient);}.cls-8{fill:#e2b0bc;}.cls-9{fill:#f2f3f4;}</style><radialGradient id="radial-gradient" cx="6.2" cy="7.3" r="1.18" gradientUnits="userSpaceOnUse"><stop offset="0" stop-color="#e2adba"/><stop offset="1" stop-color="#afafb7"/></radialGradient></defs><g id="Layer_2" data-name="Layer 2"><g id="Layer_2-2" data-name="Layer 2"><path class="cls-1" d="M25.63,4.8A1.22,1.22,0,0,1,24.87,4a1.69,1.69,0,0,0-.71-.79,2.63,2.63,0,0,0-1.58.17L22.47,3a2.73,2.73,0,0,1,2,.16,2.16,2.16,0,0,1,.63.89c.15.35.3.57.57.65Z"/><path class="cls-2" d="M25.5,4.57C25.17,5,25.44,5.94,27,5.69c.68-.1.84-.44.84-.44a.81.81,0,0,1-.58-.07C27.08,5.06,26.32,3.63,25.5,4.57Z"/><path class="cls-3" d="M7,0A3.29,3.29,0,0,1,8.66,1,2.72,2.72,0,0,1,9.4,2.51H8.66a2.42,2.42,0,0,1-1.34-.85A2.54,2.54,0,0,1,7,0Z"/><path class="cls-1" d="M21.46,10.68a7.3,7.3,0,0,1-1.4.49,6.27,6.27,0,0,0,.33,1.41l.09,0s0-.36.07-.37.16.3.17.42h0c0-.07,0-.48.15-.46s.17.29.2.49h0c0-.06,0-.46.1-.45s.14.23.15.46a.79.79,0,0,0,.39-.06,6.44,6.44,0,0,0,.19-1.09C21.78,11,21.65,10.57,21.46,10.68Z"/><path class="cls-4" d="M20.55,12.24c-.1,0-.07.37-.07.37l.24.05C20.71,12.54,20.67,12.24,20.55,12.24Z"/><path class="cls-4" d="M20.87,12.2c-.16,0-.15.39-.15.46l.35,0C21,12.49,21,12.21,20.87,12.2Z"/><path class="cls-4" d="M21.17,12.24c-.12,0-.1.39-.1.45h.25C21.31,12.47,21.24,12.24,21.17,12.24Z"/><path class="cls-1" d="M11.3,10.62a11.54,11.54,0,0,0,.34,2l.1,0s0-.4.1-.4.16.32.16.45h0c0-.14,0-.51.18-.48s.16.33.18.53h0c0-.13,0-.47.14-.47s.13.26.13.5a.72.72,0,0,0,.42-.05,5.64,5.64,0,0,0,.23-1L13.16,11A7.86,7.86,0,0,1,11.3,10.62Z"/><path class="cls-4" d="M11.84,12.29c-.1,0-.1.4-.1.4l.26.05C12,12.61,12,12.29,11.84,12.29Z"/><path class="cls-4" d="M12.19,12.26c-.15,0-.18.34-.18.48l.36,0C12.35,12.59,12.28,12.28,12.19,12.26Z"/><path class="cls-4" d="M12.51,12.32c-.12,0-.14.34-.14.47l.27,0C12.64,12.58,12.59,12.32,12.51,12.32Z"/><polygon class="cls-2" points="12.37 12.82 12.37 12.82 12.37 12.82 12.37 12.82"/><path class="cls-2" d="M23.7,4C22.5,1.24,18,0,15.12.92A22.89,22.89,0,0,0,11.7,2.24c-.77.35-.77.3-1,.23-.83-.2-1.25-.73-2.11-.68s-2,1-2.78,1.22S.39,3.8,0,6.8a2.77,2.77,0,0,0,2.43,3.29A3.13,3.13,0,0,0,4.51,9a.76.76,0,0,1-.19-.22.05.05,0,0,1,0-.07,0,0,0,0,1,.07,0,.61.61,0,0,0,.2.22h0A.67.67,0,0,0,5,9.05a0,0,0,0,1,.05,0A.06.06,0,0,1,5,9.16a.81.81,0,0,1-.42-.11,3.31,3.31,0,0,1-2.1,1.14.87.87,0,0,0,.75.54C5,10.8,8.3,9.66,8.64,9.8A9.08,9.08,0,0,0,9.83,10a10.44,10.44,0,0,0,1.47.59,7.86,7.86,0,0,0,1.86.36l.13.76a3.4,3.4,0,0,0,.29,1l.09,0c0-.09,0-.32.07-.36s.2.32.2.41h0c0-.09,0-.5.2-.46s.14.27.15.47h0c0-.1,0-.4.13-.42s.16.16.14.41h0a.9.9,0,0,0,.35-.09c.16-.14.3-1.22.42-1.31s1.62.19,2.74.09a12.7,12.7,0,0,0,2-.36,7.3,7.3,0,0,0,1.4-.49c.19-.11.32.36.44.87s.23,1,.39,1.08l.05,0c0-.1,0-.4.09-.4s.17.34.17.43h0s-.09-.47.1-.5.18.28.23.48h0c0-.09-.07-.45,0-.48s.19.18.24.42a1.42,1.42,0,0,0,.3-.13c.09-.07,0-2.88.17-3.19A6.68,6.68,0,0,0,23.7,4Z"/><path class="cls-5" d="M4.6,9.05A.81.81,0,0,0,5,9.16a.06.06,0,0,0,.05-.06,0,0,0,0,0-.05,0,.67.67,0,0,1-.39-.11h0a.61.61,0,0,1-.2-.22,0,0,0,0,0-.07,0,.05.05,0,0,0,0,.07A.76.76,0,0,0,4.51,9a3.13,3.13,0,0,1-2,1.1.55.55,0,0,0,0,.1A3.31,3.31,0,0,0,4.6,9.05Z"/><path class="cls-4" d="M13.74,12.43c-.07,0-.07.27-.07.36l.27.05C13.94,12.75,13.92,12.3,13.74,12.43Z"/><path class="cls-4" d="M14.29,12.85c0-.2-.06-.45-.15-.47s-.2.37-.2.46Z"/><path class="cls-4" d="M14.43,12.43c-.13,0-.14.32-.13.42h.27C14.59,12.59,14.49,12.42,14.43,12.43Z"/><path class="cls-4" d="M22.43,12.25c-.12,0-.1.3-.09.4a1.09,1.09,0,0,0,.26,0C22.6,12.59,22.55,12.25,22.43,12.25Z"/><path class="cls-4" d="M22.71,12.18c-.19,0-.1.5-.1.5h.12l.21,0C22.89,12.46,22.85,12.16,22.71,12.18Z"/><path class="cls-4" d="M23,12.18c-.12,0-.07.39,0,.48l.29-.06C23.18,12.36,23.1,12.15,23,12.18Z"/><path class="cls-6" d="M8.38,3.07a.23.23,0,0,0-.09-.31A.23.23,0,0,0,8,3a.24.24,0,0,0,.09.31A.23.23,0,0,0,8.38,3.07Z"/><path class="cls-6" d="M7.62,2.65c0-.13,0-.25-.09-.28s-.19,0-.24.17a.22.22,0,0,0,.09.28C7.47,2.85,7.58,2.77,7.62,2.65Z"/><circle class="cls-7" cx="6.2" cy="7.3" r="1.18"/><path class="cls-5" d="M3.14,7.5a.15.15,0,0,0-.3,0,.15.15,0,0,0,.3,0Z"/><path class="cls-5" d="M.8,7.23a.14.14,0,0,0-.15-.14.14.14,0,0,0-.14.14.15.15,0,0,0,.14.15A.15.15,0,0,0,.8,7.23Z"/><path class="cls-5" d="M3,7.79a0,0,0,0,1,0,0,0,0,0,0,1,0,0c.23,0,.25-.39.1-.46s-.41.2-.33.36a.05.05,0,0,1,0,.07,0,0,0,0,1-.06,0,.43.43,0,0,1,.09-.49.35.35,0,0,1,.42,0,.31.31,0,0,1,.15.37.37.37,0,0,1-.33.31Z"/><path class="cls-5" d="M.55,7.49h0a.32.32,0,0,1-.23-.31.31.31,0,0,1,.26-.3A.31.31,0,0,1,.92,7a.27.27,0,0,1,0,.34,0,0,0,0,1-.07,0s0,0,0-.07A.21.21,0,0,0,.56,7a.2.2,0,0,0,0,.38s0,0,0,.06A0,0,0,0,1,.55,7.49Z"/><path class="cls-3" d="M11.3,1.76a3.39,3.39,0,0,1,2.21.69s-.24.66-1.77,1a2.35,2.35,0,0,1-1.56-.2c-.14-.09-.41-.42-.32-.53A2.44,2.44,0,0,1,11.3,1.76Z"/><path class="cls-8" d="M10.26,3.22a2.26,2.26,0,0,1,1.11-.82,3.66,3.66,0,0,1,1.84.35,3.46,3.46,0,0,1-1.29.61A2.19,2.19,0,0,1,10.26,3.22Z"/><path class="cls-3" d="M1.7,6.27A1,1,0,0,1,.91,6,.6.6,0,0,1,.8,5.47a0,0,0,0,1,0,0,0,0,0,0,1,0,.06A.44.44,0,0,0,1,5.92c.22.17.43.19.89.15a1.64,1.64,0,0,0,1.51-.93A.49.49,0,0,0,3,4.51a0,0,0,0,1,0-.09s.64.18.49.77A1.81,1.81,0,0,1,1.91,6.26Z"/><path class="cls-4" d="M2.87.24c.17.08-.67,1.4-.59,2.58s1.06,2,.75,2.47a1.59,1.59,0,0,1-1.58.51A3.41,3.41,0,0,1,.67,3.14C.69,1.91,2.26-.06,2.87.24Z"/><circle class="cls-9" cx="8.28" cy="2.97" r="0.07"/><circle class="cls-9" cx="7.53" cy="2.6" r="0.05"/></g></g></svg>