<svg xmlns="http://www.w3.org/2000/svg" viewBox="0 0 16.45 27.8"><defs><style>.cls-1{fill:#2b2827;}.cls-2{fill:#7d7c7d;}.cls-3{fill:#3a3837;}.cls-4{fill:#d7d6d6;}.cls-5{fill:#ea7e25;}.cls-6{fill:#f68929;}</style></defs><g id="Layer_2" data-name="Layer 2"><g id="Layer_2-2" data-name="Layer 2"><path class="cls-1" d="M10.36,11.94C9.08,7.39,7,5.68,7,5.68A.78.78,0,0,0,7,4.59a.78.78,0,0,0-.15-1.06,1,1,0,0,0-.13-1.24.73.73,0,0,0-.3-1C6.69.42,6.21-.1,6,0A24.66,24.66,0,0,0,5,4.68c.16.26.31,1.36.58,1.78a15.6,15.6,0,0,1,2.52,5.32l-1.44.11v0Z"/><path class="cls-2" d="M5.6,6.46C5.33,6,5.18,4.94,5,4.68A8.45,8.45,0,0,0,4.91,6.4c0,.38.55,1.56.94,2.72.44,1.32.79,2.61.83,2.77l1.44-.11A15.6,15.6,0,0,0,5.6,6.46Z"/><path class="cls-1" d="M12.37,14.34c1.88-.61,2.92.16,3.48-.17a1.56,1.56,0,0,0,.59-1,1.23,1.23,0,0,0-.19-.79,1.28,1.28,0,0,0-.87-.48c-.58-.08-1.22.47-3,.17h-.06Z"/><path class="cls-3" d="M14,12.64s2.14-.58,2.28-.17-1.61.45-2.28.41S14,12.64,14,12.64Z"/><path class="cls-3" d="M14,13.43s2.2-.28,2.29.14-1.66.23-2.32.1S14,13.43,14,13.43Z"/><path class="cls-4" d="M2.58,14.41c0,.68.91,2.49,5,1.84s7-2.92,6.88-3.4S9.77,11.37,7,11.71,2.61,12.88,2.58,14.41Z"/><path class="cls-1" d="M4.61,13.65c0-.13-1.2.07-1.24.23a.48.48,0,0,0,.24.4C3.7,14.29,4.63,13.84,4.61,13.65Z"/><path class="cls-1" d="M14.87,26.1s.49-.64-.14-1c0,0,.47-.72-.23-.91,0,0,.47-.79-.37-1,0,0,.38-.76-.39-.88a.53.53,0,0,0-.36-.83.62.62,0,0,0-.49-.76,24.22,24.22,0,0,0-.27-3,15.11,15.11,0,0,0-.88-3.22A4.39,4.39,0,0,0,9.55,14a14.16,14.16,0,0,1,1,2.53,19.8,19.8,0,0,1,.77,4.39c0,.52.59,1.9.66,2.52s-.43.12-.75-.17c0,0-.32-.33-.76-.88,1.21,1.84,3.9,5.65,4.17,5.45s.14-.75.14-.75A.65.65,0,0,0,14.87,26.1Z"/><path class="cls-2" d="M12,23.39c-.07-.62-.63-2-.66-2.52a19.8,19.8,0,0,0-.77-4.39,14.16,14.16,0,0,0-1-2.53,2.53,2.53,0,0,0-2,1.13c-.26.38.65,1.27,1.35,3.07s.86,2.8,1,3.23a9.18,9.18,0,0,0,.59,1c.44.55.76.88.76.88C11.57,23.51,12.08,24,12,23.39Z"/><path class="cls-5" d="M3,15c-.07.29-1.53.44-2,.57a3.33,3.33,0,0,0-1,.8,1.29,1.29,0,0,1,.73-1.16,13.19,13.19,0,0,1,2.13-.58S3.14,14.55,3,15Z"/><path class="cls-6" d="M.05,16.34s-.2-1.15.2-1.51.51-.2.91-.28,1.34-.7,1.64-.49.29.5.21.59a7.53,7.53,0,0,1-1.77.54C.92,15.27.57,15.16.05,16.34Z"/></g></g></svg>