<svg xmlns="http://www.w3.org/2000/svg" xmlns:xlink="http://www.w3.org/1999/xlink" viewBox="0 0 11.77 24.07"><defs><style>.cls-1{fill:#ef4749;}.cls-2{fill:#f49b4c;}.cls-3{fill:#f27078;}.cls-4{fill:#d91f26;}.cls-5{fill:#272523;}.cls-6{opacity:0.6;fill:url(#radial-gradient);}.cls-7{fill:#ee9f6b;}</style><radialGradient id="radial-gradient" cx="5.71" cy="4.98" r="0.7" gradientUnits="userSpaceOnUse"><stop offset="0" stop-color="#ef4749"/><stop offset="1" stop-color="#f27078"/></radialGradient></defs><g id="Layer_2" data-name="Layer 2"><g id="Layer_2-2" data-name="Layer 2"><path class="cls-1" d="M5.87,21a.36.36,0,0,1-.19.11A.16.16,0,0,0,5.87,21Z"/><path class="cls-1" d="M10,4.21a3,3,0,0,0-2.93-3,3.84,3.84,0,0,0-1.45.21A2.92,2.92,0,0,0,3.76,3.31c-.08.24-.09.67-.42.93a5,5,0,0,1-2.47.44C.52,4.5.28,4.33.05,4.61s.37.37.37.63S0,5.5.07,5.78s.26.33.84.07A5.47,5.47,0,0,1,2.1,5.73s-.37.4,1.54.4c.49,0,.54.54,1.37.86a3.37,3.37,0,0,0,1.11.19,12.57,12.57,0,0,0,1.25-.33s-2.93,3.21-3.12,5.26.61,3.12,2.22,5c1.24,1.45,1.22,2.39,1.09,2.78a3,3,0,0,1-.86,1.91,1.55,1.55,0,0,1-2.43-.23c-.23-.56.09-1.29.54-1.31s.79.23.74.58h0a.23.23,0,0,0,.13.25A.36.36,0,0,0,5.87,21a.39.39,0,0,0,0-.14,1,1,0,0,0-.59-1.12,1.32,1.32,0,0,0-1.75.75,2,2,0,0,0,1.05,2.73c1.42.65,3.11,0,4.25-1.63a6.68,6.68,0,0,0,1.07-2.52c.47-3.79-1.86-4.95-2.07-7.82S10.15,6.76,10,4.21Z"/><path class="cls-2" d="M6.47,17.12c-1.61-1.89-2.41-3-2.22-5S7.37,6.85,7.37,6.85a12.57,12.57,0,0,1-1.25.33h0S3.38,8.81,2.61,10.89a5.21,5.21,0,0,0,1.71,6c.93.66,2.74,1.16,3.13,2.28a1.9,1.9,0,0,1,.11.73C7.69,19.51,7.71,18.57,6.47,17.12Z"/><path class="cls-3" d="M6.63,1.74a2.5,2.5,0,0,1,2.66,2c.48,2-1.21,4.5-1.46,4.92a6.77,6.77,0,0,1-1.45.28A8.16,8.16,0,0,0,8,6.08a3,3,0,0,1-2.77.07c-1.25-.77-.87-2.58-.65-3.07A2.36,2.36,0,0,1,6.63,1.74Z"/><path class="cls-4" d="M2.5,5.78H2.1a0,0,0,1,1,0-.08c1.11.07,1.53-.14,1.69-.32a.31.31,0,0,0,.09-.26s0-.05,0-.05,0,0,0,0a.42.42,0,0,1-.11.33C3.71,5.59,3.35,5.78,2.5,5.78Z"/><path class="cls-5" d="M5.6,3.7a.21.21,0,0,0-.21-.21.21.21,0,0,0-.21.21.21.21,0,0,0,.21.21A.22.22,0,0,0,5.6,3.7Z"/><circle class="cls-6" cx="5.71" cy="4.98" r="0.7"/><path class="cls-7" d="M5.51,8.9a2,2,0,0,1-.59-.45,3.63,3.63,0,0,1,1-.9,2.5,2.5,0,0,1,.77-.26A6.47,6.47,0,0,0,5.51,8.9Z"/><path class="cls-7" d="M2.87,11.16A4.48,4.48,0,0,1,4.3,9.11a2,2,0,0,0,.71.4,8.84,8.84,0,0,0-.86,1.89A3.14,3.14,0,0,1,2.87,11.16Z"/><path class="cls-3" d="M4.92,11.48a7.58,7.58,0,0,1,.82-1.76,6.92,6.92,0,0,0,1.88-.14,4,4,0,0,0-.23,1.82A4.71,4.71,0,0,1,4.92,11.48Z"/><path class="cls-3" d="M7.54,12.18A4.07,4.07,0,0,0,8,13.41a5.53,5.53,0,0,1-2.84.87,3.47,3.47,0,0,1-.37-1.77A4.9,4.9,0,0,0,7.54,12.18Z"/><path class="cls-7" d="M3.94,12.32a4.3,4.3,0,0,0,.36,2,3.67,3.67,0,0,1-1.5,0,5.15,5.15,0,0,1-.14-2.24A3.15,3.15,0,0,0,3.94,12.32Z"/><path class="cls-7" d="M4.6,15.21a3.47,3.47,0,0,1-1.15,0A3,3,0,0,0,5.81,17.1L6,17A4.33,4.33,0,0,1,4.6,15.21Z"/><path class="cls-7" d="M7,18.15a2.76,2.76,0,0,0-.53-.68.8.8,0,0,1-.31.16S7,18.21,7,18.15Z"/><path class="cls-3" d="M5.55,15.1a7.26,7.26,0,0,0,2.65-.94h0a6.61,6.61,0,0,1,.69,1.18,4.7,4.7,0,0,1-2.23,1.34A10.51,10.51,0,0,1,5.55,15.1Z"/><path class="cls-3" d="M7.16,17.29A5,5,0,0,0,9.29,16.1a3.71,3.71,0,0,1,.31,1.26,6.27,6.27,0,0,1-1.94.8A1.9,1.9,0,0,0,7.16,17.29Z"/><path class="cls-3" d="M7.91,18.79a10.41,10.41,0,0,0,1.8-.63,2.69,2.69,0,0,1-.17,1.22A3,3,0,0,1,8,19.52,1.61,1.61,0,0,0,7.91,18.79Z"/><path class="cls-3" d="M7.87,20.22a1.23,1.23,0,0,1-.19.71,3.54,3.54,0,0,0,1,.32,2.94,2.94,0,0,0,.51-.95A3.2,3.2,0,0,1,7.87,20.22Z"/><path class="cls-3" d="M7.36,21.55a1.73,1.73,0,0,0,.79.44,2.76,2.76,0,0,1-.66.59A2.84,2.84,0,0,1,7,22,1,1,0,0,0,7.36,21.55Z"/><path class="cls-3" d="M5.91,22.58a.77.77,0,0,0,.45-.13A1.72,1.72,0,0,0,6.7,23a4.63,4.63,0,0,0-.79.16A1,1,0,0,0,5.91,22.58Z"/><path class="cls-3" d="M4.75,22.34a1.35,1.35,0,0,0,.45.15,1.71,1.71,0,0,0-.15.62,1.13,1.13,0,0,0-.62-.3A.7.7,0,0,0,4.75,22.34Z"/><path class="cls-3" d="M4,21.47a.55.55,0,0,0,.18.41.79.79,0,0,0-.41.3,1.46,1.46,0,0,0-.23-.71A.74.74,0,0,0,4,21.47Z"/><path class="cls-3" d="M4.09,20.85a.39.39,0,0,1,.21-.37A.65.65,0,0,1,4,20.21a1,1,0,0,1-.28.53S3.88,20.66,4.09,20.85Z"/><path class="cls-3" d="M4.73,20.18a.73.73,0,0,1,.33,0,.39.39,0,0,1,.11-.37,1,1,0,0,1-.54,0A.79.79,0,0,1,4.73,20.18Z"/><path class="cls-4" d="M11.51,4.66a.45.45,0,0,0-.16,0c-.24-.12-.71-.39-.75-.78a.7.7,0,0,1,.47-.65.33.33,0,0,0,.2,0c.15,0,.25-.15.22-.26s-.16-.16-.31-.12A.28.28,0,0,0,11,3a1,1,0,0,1-.85-.39.65.65,0,0,1,0-.83.33.33,0,0,0,.25-.09c.13-.1.17-.26.09-.34s-.23-.08-.36,0a.33.33,0,0,0-.12.23.83.83,0,0,1-.74-.07A.41.41,0,0,1,9.13,1,.3.3,0,0,0,9.37.86c.09-.14.09-.3,0-.36S9.11.49,9,.63A.33.33,0,0,0,9,.91a.53.53,0,0,1-.57.23A.44.44,0,0,1,8.17.67.38.38,0,0,0,8.33.45.29.29,0,0,0,8.18.11C8.07.09,8,.2,7.91.36A.32.32,0,0,0,8,.62.48.48,0,0,1,7.5.94c-.22,0-.32-.23-.35-.42A.39.39,0,0,0,7.22.29C7.22.13,7.12,0,7,0S6.8.14,6.8.3a.3.3,0,0,0,.11.25c0,.18-.09.34-.4.42S6.13.83,6,.63a.34.34,0,0,0,0-.25C6,.22,5.92.11,5.8.13S5.62.3,5.64.46a.37.37,0,0,0,.14.22.77.77,0,0,0,0,.15,4,4,0,0,1-.11.56A3.84,3.84,0,0,1,7.1,1.18a3,3,0,0,1,2.93,3c.12,2.55-2.37,4.16-2.16,7s2.54,4,2.07,7.82a6.68,6.68,0,0,1-1.07,2.52C7.73,23.23,6,23.86,4.62,23.21a2,2,0,0,1-1.05-2.73,1.32,1.32,0,0,1,1.75-.75,1,1,0,0,1,.59,1.12.39.39,0,0,1,0,.14.21.21,0,0,0,.06-.1,1.73,1.73,0,0,1,.23-.67s-.18,0-.45-.3a1.8,1.8,0,0,1-.39-.54c-.05,0-.38.15-.64.19a4.49,4.49,0,0,1-.66,0s-.33.51-.52.79a3.52,3.52,0,0,1-.45.49A.31.31,0,0,0,3,21c0,.07.15.38.31.86s0,.67.09.89a.36.36,0,0,0,.14.16,9.14,9.14,0,0,1,.93.31,3.28,3.28,0,0,1,.85.52s0,0,0,.06.06.22.15.23.16-.1.16-.22v-.06a3.16,3.16,0,0,1,.91-.33,2.85,2.85,0,0,1,.83,0l0,.09a.21.21,0,0,0,.25.11.21.21,0,0,0,0-.27l0,0a4.25,4.25,0,0,1,.65-.92,4.4,4.4,0,0,1,.82-.57.3.3,0,0,0,.08.08.2.2,0,0,0,.27,0c0-.07,0-.18-.1-.25a.2.2,0,0,0-.08,0,2.31,2.31,0,0,1,.26-1,1.87,1.87,0,0,1,.61-.72.35.35,0,0,0,.15.11c.13,0,.26,0,.29-.09s0-.2-.17-.25a.34.34,0,0,0-.2,0,1.56,1.56,0,0,1-.11-.82,1.87,1.87,0,0,1,.77-1.21.38.38,0,0,0,.16,0c.14,0,.25-.09.24-.19s-.11-.17-.25-.17a.28.28,0,0,0-.13,0,1.23,1.23,0,0,1-.63-1,1.31,1.31,0,0,1,.29-1.16.3.3,0,0,0,.16,0c.14,0,.24-.14.21-.25s-.16-.15-.3-.12a.31.31,0,0,0-.16.09,1.17,1.17,0,0,1-.92-.61,1,1,0,0,1,.31-1.11.3.3,0,0,0,.16,0c.14,0,.24-.14.21-.25s-.16-.15-.31-.12a.4.4,0,0,0-.17.1c-.26-.06-.91-.24-1-.6-.19-.7.9-1.37.9-1.37S8.77,10.08,9,9.33a.83.83,0,0,1,.77-.6.34.34,0,0,0,.17.11.24.24,0,0,0,.32-.09c0-.11-.06-.22-.2-.27a.34.34,0,0,0-.14,0,1.06,1.06,0,0,1-.19-.93c.14-.37.78-.45,1.1-.47a.38.38,0,0,0,.15.09.23.23,0,0,0,.31-.1.23.23,0,0,0-.19-.26.31.31,0,0,0-.16,0,1,1,0,0,1-.52-1A1.08,1.08,0,0,1,11.33,5a.28.28,0,0,0,.16,0c.15,0,.27-.07.28-.17S11.66,4.67,11.51,4.66Z"/><path class="cls-1" d="M7.14,10.51a4.35,4.35,0,0,0,4.09-2,.84.84,0,0,0,.35,1,.72.72,0,0,0,.09,1,.77.77,0,0,0,0,1,.91.91,0,0,0,0,.93,1,1,0,0,0-.19,1,5,5,0,0,0-4.36-2C6.9,11.4,6.79,10.49,7.14,10.51Z"/><path class="cls-4" d="M7.76,10.73A4.48,4.48,0,0,1,7,10.68a0,0,0,0,1,0,0s0,0,0,0a6.6,6.6,0,0,0,4.35-1.13,0,0,0,0,1,.06,0,.07.07,0,0,1,0,.06A7.14,7.14,0,0,1,7.76,10.73Z"/><path class="cls-4" d="M8.05,10.89H7a0,0,0,0,1,0,0,0,0,0,0,1,0,0c3.5.1,4.47-.34,4.48-.34a0,0,0,0,1,0,.07A9.46,9.46,0,0,1,8.05,10.89Z"/><path class="cls-4" d="M11.5,11.52h0S10.41,11,7,11.07H7A0,0,0,1,1,7,11c3.43,0,4.47.43,4.51.45a0,0,0,0,1,0,.06Z"/><path class="cls-4" d="M11.5,12.44h0s-1.38-1.31-4.4-1.15c0,0,0,0-.05,0a0,0,0,0,1,0,0c3.07-.16,4.45,1.16,4.46,1.17a0,0,0,0,1,0,.06Z"/></g></g></svg>