<svg xmlns="http://www.w3.org/2000/svg" viewBox="0 0 25.7 15.7"><defs><style>.cls-1{fill:#64605f;}.cls-2{fill:#6f6967;}.cls-3{fill:#c0c9d1;}.cls-4{fill:#1f1c1c;}.cls-5{fill:#2d2a29;}.cls-6{fill:#010101;}.cls-7{fill:#f4f2f3;}</style></defs><g id="Layer_2" data-name="Layer 2"><g id="Layer_2-2" data-name="Layer 2"><path class="cls-1" d="M21.75,12.67s.49-.9.69-1.17.77-.79.92-.24c0,0,.48-.09.57.33,0,0,.45,0,.45.37a.42.42,0,0,1,.19.68L22.1,13Z"/><path class="cls-1" d="M5.79,13.63S6.16,14.71,4,15.08s-2.08-.34-2.08-.34-.2-.21-.09-.37a.38.38,0,0,1,0-.4s-.14-.31.11-.39c0,0-.18-.36.2-.42a1.35,1.35,0,0,1,.81.21,1.72,1.72,0,0,0,.8,0,.92.92,0,0,0,.52-.28Z"/><path class="cls-2" d="M25.31,14.72c.54-.15.13-.62.13-.62.53-.17.07-.65.07-.65.39-.32-.05-.6-.05-.6.21-.42-.57-.42-.57-.42a12.38,12.38,0,0,0-2.78.32s-2.94-2.11-5.91-4.31c-2.81-2.07-5.88-3.84-6.12-4.26C9.22,2.65,7.93.17,5.29,0,1.5-.21.37,3.32.06,5.13-.13,6.22.05,9.9,2.34,12A7.52,7.52,0,0,0,5,13.62a8,8,0,0,0,3.71.31l.09.15a4,4,0,0,0,1.93,1.32,8.74,8.74,0,0,0,1.7.3c.65,0,.45-.35.45-.35.36,0,.19-.43.19-.43.27-.15.06-.46.06-.46.18-.18,0-.4,0-.4l.48,0,4.56.05H20.9l1.27,0c.71.13,1.62.74,2.37.89C25.55,15.17,25.31,14.72,25.31,14.72Z"/><path class="cls-3" d="M13.09,14.09s2.78.12,3.7.11,2.08,0,2.77,0l.35,0a11.31,11.31,0,0,0-4.74-1.62c-2.68-.44-4.53-.55-4.81-.17s-.35.88,1.36,1.22a4.16,4.16,0,0,1,1.13.3A.89.89,0,0,1,13.09,14.09Z"/><path class="cls-3" d="M8.7,14a1.29,1.29,0,0,1-.09-1.1A4.09,4.09,0,0,0,7.06,8.69a4.75,4.75,0,0,0-6.15.77c-.05,0-.18.16-.15.25A6.8,6.8,0,0,0,5,13.65,7.65,7.65,0,0,0,8.7,14Z"/><path class="cls-4" d="M5.68,2.73A.33.33,0,0,1,6,2.38a.34.34,0,1,1,0,.68A.33.33,0,0,1,5.68,2.73Z"/><path class="cls-4" d="M2.6,2.8a.34.34,0,0,1,.33-.35.34.34,0,1,1,0,.68A.33.33,0,0,1,2.6,2.8Z"/><path class="cls-3" d="M7.84,5.6c-.1.45-.21,1.21-1.38,1.17s-.74-.5-1.84-.52S3.53,7,2.43,6.86A1.2,1.2,0,0,1,1.26,5.48,1.42,1.42,0,0,1,2.44,4c.71-.11,1.44.28,2.08.26s1.63-.48,2.29-.36A1.5,1.5,0,0,1,7.84,5.6Z"/><path class="cls-5" d="M5.41,4.7c-.57.55-.86.85-1.54,0-.82-1-.19-1.23,0-1.26s.54.22.72.21.35-.24.75-.2S5.89,4.25,5.41,4.7Z"/><path class="cls-6" d="M5,4.8a0,0,0,0,0,0,0,.21.21,0,0,1,.07-.18.27.27,0,0,1,.19-.06s0,0,.06,0a.06.06,0,0,0-.05-.06A.36.36,0,0,0,5,4.49a.33.33,0,0,0-.1.26,0,0,0,0,0,0,0Z"/><path class="cls-6" d="M4.28,4.82h0s0,0,0-.06A.36.36,0,0,0,4,4.44a0,0,0,0,0,0,0,.06.06,0,0,0,.06,0H4c.21,0,.25.23.25.24A0,0,0,0,0,4.28,4.82Z"/><path class="cls-6" d="M6.13,4.82h0A1.57,1.57,0,0,1,7.91,5s.1.11.09.12L7.88,5a1.53,1.53,0,0,0-1.67-.17h0A.07.07,0,0,1,6.13,5,.08.08,0,0,1,6,4.88S6.08,4.82,6.13,4.82Z"/><path class="cls-6" d="M6.82,4.37h.06A1.72,1.72,0,0,1,8.65,5s.06.12,0,.13L8.61,5a1.65,1.65,0,0,0-1.7-.59h0s0,.06-.08.06-.09,0-.09-.06A.08.08,0,0,1,6.82,4.37Z"/><path class="cls-6" d="M6.22,5.13a.09.09,0,0,1,.08,0c.19,0,1,0,1.27.43,0,0,.06.13,0,.13l-.08-.1c-.28-.42-1.06-.41-1.23-.41,0,0,0,0-.08,0a.07.07,0,0,1-.09-.06A.08.08,0,0,1,6.22,5.13Z"/><path class="cls-6" d="M6.88,5.45A.07.07,0,0,1,7,5.51v0c.24.12,1.31.7,1.33,1.54a.5.5,0,0,1,0,.12s0-.11,0-.12c0-.83-1.15-1.42-1.32-1.5h0a.09.09,0,0,1-.09-.07S6.83,5.45,6.88,5.45Z"/><path class="cls-6" d="M6.84,5a.06.06,0,0,1,.08,0c.33,0,1.52.28,1.88,1.06a.89.89,0,0,1,0,.14.5.5,0,0,1-.08-.12c-.35-.75-1.54-1-1.84-1a.09.09,0,0,1-.07,0A.08.08,0,0,1,6.75,5S6.79,5,6.84,5Z"/><path class="cls-6" d="M6.18,5.49s.07,0,.08,0a1.22,1.22,0,0,1,.9.6s0,.12,0,.13l-.08-.09a1.15,1.15,0,0,0-.86-.58.09.09,0,0,1-.08,0,.08.08,0,0,1-.09-.07S6.13,5.49,6.18,5.49Z"/><path class="cls-6" d="M6.1,5.69s.08,0,.08.06.5.36.46.74c0,0,0,.12,0,.1a.31.31,0,0,1,0-.1c0-.33-.33-.62-.44-.69s0,0-.06,0A.08.08,0,0,1,6,5.76S6.05,5.7,6.1,5.69Z"/><path class="cls-6" d="M6.73,6a.08.08,0,0,1,.09.07,0,0,0,0,1,0,0,1.59,1.59,0,0,1,.54,1.39s0,.11,0,.11a.37.37,0,0,1,0-.12,1.55,1.55,0,0,0-.52-1.35h0a.08.08,0,0,1-.09-.07S6.68,6,6.73,6Z"/><path class="cls-6" d="M6,6.13a.08.08,0,0,1,.09-.07.09.09,0,0,1,.09.06s0,0,0,.06a1.38,1.38,0,0,1,.29,1.34s-.06.11-.07.1a.25.25,0,0,1,0-.12,1.38,1.38,0,0,0-.3-1.31S6,6.16,6,6.13Z"/><path class="cls-6" d="M3.16,5H3.1a1.56,1.56,0,0,0-1.73-.12.55.55,0,0,0-.11.1s.12-.05.13-.05A1.51,1.51,0,0,1,3.07,5h0s0,.07.07.08.1,0,.1,0S3.21,5,3.16,5Z"/><path class="cls-6" d="M2.55,4.4H2.49A1.71,1.71,0,0,0,.64,4.7s-.08.11-.07.12l.1-.08a1.68,1.68,0,0,1,1.78-.3h0s0,.07.07.08a.08.08,0,0,0,.1,0S2.59,4.41,2.55,4.4Z"/><path class="cls-6" d="M3,5.25s-.07,0-.08,0c-.18,0-1-.18-1.33.2,0,0-.07.12-.06.13l.1-.09c.34-.36,1.11-.23,1.28-.19a.07.07,0,0,0,.07,0,.08.08,0,0,0,.1,0A.09.09,0,0,0,3,5.25Z"/><path class="cls-6" d="M2.31,5.45a.08.08,0,0,0-.1,0v0C2,5.6.8,6,.64,6.81c0,0,0,.12,0,.12a.36.36,0,0,0,0-.11C.85,6,2.07,5.62,2.25,5.57h0c.05,0,.1,0,.1,0S2.36,5.46,2.31,5.45Z"/><path class="cls-6" d="M2.43,5s-.08,0-.09,0a2.59,2.59,0,0,0-2,.72.39.39,0,0,0,0,.14l.09-.11c.47-.68,1.69-.71,2-.7a.09.09,0,0,0,.06,0s.09,0,.09,0A.08.08,0,0,0,2.43,5Z"/><path class="cls-6" d="M3,5.61a.08.08,0,0,0-.08,0,1.17,1.17,0,0,0-1,.44s-.07.11-.06.12L2,6.11a1.15,1.15,0,0,1,1-.42.13.13,0,0,0,.07,0,.08.08,0,0,0,.1,0A.09.09,0,0,0,3,5.61Z"/><path class="cls-6" d="M3,5.83a.08.08,0,0,0-.09,0c-.11,0-.55.27-.58.65,0,0,0,.12,0,.11a.29.29,0,0,0,0-.1c0-.33.43-.55.55-.61A.09.09,0,0,0,3,6s.09,0,.09,0S3.09,5.84,3,5.83Z"/><path class="cls-6" d="M2.36,6a.08.08,0,0,0-.1,0,0,0,0,0,0,0,0A1.59,1.59,0,0,0,1.5,7.39s0,.11,0,.11,0-.1,0-.11A1.58,1.58,0,0,1,2.3,6.14l0,0s.09,0,.09,0S2.41,6,2.36,6Z"/><path class="cls-6" d="M3.05,6.27S3,6.2,3,6.19a.08.08,0,0,0-.1,0,.05.05,0,0,0,0,0A1.4,1.4,0,0,0,2.4,7.57s0,.12.05.11,0-.11,0-.12A1.35,1.35,0,0,1,3,6.32.09.09,0,0,0,3.05,6.27Z"/><path class="cls-7" d="M5.74,2.58a.1.1,0,0,0,.1.1.1.1,0,0,0,.09-.1.09.09,0,0,0-.1-.1A.09.09,0,0,0,5.74,2.58Z"/><path class="cls-7" d="M2.66,2.63a.09.09,0,0,0,.1.09.08.08,0,0,0,.08-.1.09.09,0,0,0-.09-.09A.09.09,0,0,0,2.66,2.63Z"/></g></g></svg>