<svg xmlns="http://www.w3.org/2000/svg" viewBox="0 0 23.68 11.93"><defs><style>.cls-1{fill:#6e6d6e;}.cls-2{fill:#818385;}.cls-3{fill:#1c1a1a;}.cls-4{fill:#383938;}.cls-5{fill:#331f20;}.cls-6{fill:#f3eded;}</style></defs><g id="Layer_2" data-name="Layer 2"><g id="Layer_2-2" data-name="Layer 2"><path class="cls-1" d="M19.11,10.77s.33-.07.53.35a1.12,1.12,0,0,0,1.61.7c1.11-.35,2.84-1.5,2.34-2.29-.6-1-1.72-.52-2.19-.64s-.66-.26-1-.87A5.73,5.73,0,0,1,20,9.91,2.44,2.44,0,0,1,19.11,10.77Z"/><path class="cls-1" d="M5,7.77s-.3.82,0,1a1.35,1.35,0,0,1,.88,1.52c-.19.76-.42.61-.95.32s-.69-1-.9-1.77a6.85,6.85,0,0,1-.12-1.52Z"/><path class="cls-2" d="M14.48,2.28c2,.72,6.19,3.08,6,6.73s-8.23,2.3-8.84,2.2S7,10.34,5.75,8.44a3.56,3.56,0,0,1-2-1A2.19,2.19,0,0,1,1.55,6.21,2.3,2.3,0,0,1,.24,4c0-.66.55-1.14.76-1.56A3.9,3.9,0,0,1,4.61,0,5.68,5.68,0,0,1,8.34,1.29,23.27,23.27,0,0,1,14.48,2.28Z"/><path class="cls-1" d="M9.73,9.3c.18.14.93-.08,1.45-1a2.4,2.4,0,0,0,.37-1.69c-.08-.26-1-1.19-1-1.41a.51.51,0,0,0-.46-.47c-.23,0-.43,0-.64.41s-.14.55,0,.73a.83.83,0,0,1,.32.67,4.33,4.33,0,0,1-.28,1.81C9.41,8.89,9.54,9.16,9.73,9.3Z"/><path class="cls-3" d="M3.81,2.94a.33.33,0,0,0-.19-.09c-.1,0-.26.16-.35.1s0-.1,0-.16a.53.53,0,0,1,.37-.23A.42.42,0,0,1,4,2.79S4,3,4,3A.14.14,0,0,1,3.81,2.94Z"/><path class="cls-3" d="M2.22,2.83A.32.32,0,0,0,2,2.72c-.09,0-.26.14-.34.08a.13.13,0,0,1,0-.16.49.49,0,0,1,.37-.19.39.39,0,0,1,.32.24c0,.05,0,.17,0,.18A.15.15,0,0,1,2.22,2.83Z"/><circle class="cls-3" cx="6.26" cy="2.31" r="0.32"/><path class="cls-4" d="M6.38,3.26a.85.85,0,0,1-.23,0,.83.83,0,0,1-.51-.48,0,0,0,0,1,0,0s0,0,0,0a.82.82,0,0,0,.47.45,1.2,1.2,0,0,0,1-.25h0a0,0,0,0,1,0,0A1.46,1.46,0,0,1,6.38,3.26Z"/><path class="cls-4" d="M6.55,3.75a1.34,1.34,0,0,1-1.08-.66s0,0,0,0,0,0,0,0a1.2,1.2,0,0,0,1.67.46s0,0,0,0,0,0,0,0A1.44,1.44,0,0,1,6.55,3.75Z"/><path class="cls-4" d="M1.53,6.18l0,0a0,0,0,0,0,0,0h.14a1.26,1.26,0,0,0,.6-.15l0,0A1.23,1.23,0,0,1,1.53,6.18Z"/><path class="cls-4" d="M2.64,3.73s0,0,0,0l0,0a3,3,0,0,0,0,1.46l0-.06A3,3,0,0,1,2.64,3.73Z"/><path class="cls-4" d="M5.48,6a0,0,0,0,0,0,0,2.31,2.31,0,0,1-1.92.05.1.1,0,0,1,0,0,2.11,2.11,0,0,0,.91.21,2.33,2.33,0,0,0,1.09-.26A0,0,0,0,0,5.48,6Z"/><path class="cls-5" d="M2.69,5.33A1,1,0,0,1,2.4,6l-.13.09c.15.18.54.52,1.2,0a1.94,1.94,0,0,1-.33-.2A1.39,1.39,0,0,1,2.69,5.33Z"/><path class="cls-4" d="M3.17,5.87a1.52,1.52,0,0,1-.51-.76l0,.06v0h0A1,1,0,0,1,2.36,6,.5.5,0,0,1,2.24,6l0,0L2.4,6a1,1,0,0,0,.29-.67,1.39,1.39,0,0,0,.45.58,1.94,1.94,0,0,0,.33.2.1.1,0,0,0,0,0A1.75,1.75,0,0,1,3.17,5.87Z"/><path class="cls-4" d="M4.17,4.63h0c-.09-.33-.34-.29-.35-.29s0,0,0,0,0,0,0,0,.3-.06.4.32c0,0,0,0,0,0Z"/><path class="cls-4" d="M4.76,5.59l0,0c0-.31-.24-.34-.25-.34s0,0,0,0l0,0a.37.37,0,0,1,.29.39s0,0,0,0Z"/><path class="cls-4" d="M3.77,5.27l0,0A.38.38,0,0,0,3.45,5l0,0a0,0,0,0,1,0,0,.42.42,0,0,1,.34.31l0,0Z"/><path class="cls-4" d="M4.84,3.87h0a.4.4,0,0,0-.44-.12s0,0,0,0,0,0,0,0a.45.45,0,0,1,.5.14s0,0,0,0Z"/><path class="cls-4" d="M5.89,4.23h0a.36.36,0,0,0-.48-.07,0,0,0,0,1,0,0s0,0,0,0a.4.4,0,0,1,.54.08,0,0,0,0,1,0,0Z"/><path class="cls-4" d="M5.09,4.76h0c-.1-.28-.3-.27-.31-.27l0,0,0,0a.37.37,0,0,1,.35.29s0,0,0,0Z"/><path class="cls-4" d="M6.26,5h0c-.17-.31-.42-.21-.43-.2h0s0,0,0,0a.39.39,0,0,1,.48.22s0,0,0,0Z"/><path class="cls-4" d="M5.84,5.63h0c-.13-.32-.39-.27-.39-.26a0,0,0,0,1,0,0s0,0,0,0a.4.4,0,0,1,.44.29s0,0,0,0Z"/><path class="cls-4" d="M4.13,6.15h0l0,0c0-.29-.19-.34-.2-.34s0,0,0,0,0,0,0,0a.36.36,0,0,1,.23.38Z"/><path class="cls-4" d="M.91,4.23h0a0,0,0,0,1,0,0c.3-.25.47-.11.48-.11a0,0,0,0,1,0,0h0S1.19,4,.93,4.22Z"/><path class="cls-4" d="M1.4,4.93h0a0,0,0,0,1,0,0c.14-.31.35-.31.36-.31a0,0,0,0,1,0,0s0,0,0,0h0s-.19,0-.31.29Z"/><path class="cls-4" d="M1.87,5.59h0s0,0,0,0a.47.47,0,0,1,.24-.37s0,0,0,0a0,0,0,0,1,0,0,.41.41,0,0,0-.22.34Z"/><path class="cls-4" d="M0,4.46H0s0,0,0,0a.37.37,0,0,1,.46-.15,0,0,0,0,1,0,0h0s-.2-.1-.41.15Z"/><path class="cls-4" d="M.21,5.17h0s0,0,0,0c.15-.34.36-.33.37-.33s0,0,0,0l0,0s-.2,0-.33.29Z"/><path class="cls-4" d="M.56,3.79h0s0,0,0,0A.36.36,0,0,1,1,3.68s0,0,0,0a0,0,0,0,1,0,0,.34.34,0,0,0-.38.08Z"/><path class="cls-4" d="M1.06,6.06h0A0,0,0,0,1,1,6c.12-.29.32-.32.33-.32a0,0,0,0,1,0,0s0,0,0,0-.19,0-.31.29Z"/><path class="cls-4" d="M.57,5.63h0a0,0,0,0,1,0,0A.39.39,0,0,1,1,5.31s0,0,0,0,0,0,0,0a.35.35,0,0,0-.36.27Z"/><circle class="cls-6" cx="6.43" cy="2.17" r="0.08"/></g></g></svg>