<svg xmlns="http://www.w3.org/2000/svg" viewBox="0 0 20.34 22.45"><defs><style>.cls-1{fill:#afa133;}.cls-2{fill:#29170e;}.cls-3{fill:#482610;}.cls-4{fill:#9a6733;}.cls-5{fill:#2f1c0e;}</style></defs><g id="Layer_2" data-name="Layer 2"><g id="Layer_2-2" data-name="Layer 2"><path class="cls-1" d="M10.33,0c1,0,1.65,1.44,1.81,2.33s-.45,1.78-.44,2.41a4.34,4.34,0,0,0,.48,1.79,8.74,8.74,0,0,0-4.12-.1,3.26,3.26,0,0,0,.57-1.75C8.55,3.85,8,3.28,8.2,2.36S9.2,0,10.33,0Z"/><path class="cls-2" d="M9,1.47c0-.05-.17,0-.23.11s0,.27,0,.25A.33.33,0,0,0,9,1.47Z"/><path class="cls-2" d="M11.46,1.47c0-.05.16,0,.21.13s0,.27-.05.25A.33.33,0,0,1,11.46,1.47Z"/><path class="cls-3" d="M9.78,20.53c1.88,0,4-1.77,5.41-6C16.68,9.9,15,5.88,10,6S2.7,9.29,4.74,14.87C6.33,19.19,8.49,20.53,9.78,20.53Z"/><path class="cls-1" d="M6.12,17.51s-1,.92-1.25,1.07A2.35,2.35,0,0,0,3.8,20.35c.05.89.78,2.09,1.35,2.1.36,0,.77-1.87.9-2.3s.7-1.71.7-1.71Z"/><path class="cls-4" d="M4.89,20.14a.31.31,0,1,0-.31.31A.31.31,0,0,0,4.89,20.14Z"/><path class="cls-4" d="M5.38,21.31a.31.31,0,0,0-.62,0,.31.31,0,0,0,.62,0Z"/><path class="cls-4" d="M5.15,21.93a.16.16,0,0,0-.32,0,.16.16,0,0,0,.32,0Z"/><path class="cls-4" d="M4.4,20.87a.13.13,0,0,0-.13-.13.12.12,0,0,0-.13.13.13.13,0,0,0,.13.13A.13.13,0,0,0,4.4,20.87Z"/><path class="cls-4" d="M5.28,20.43a.1.1,0,0,0-.11-.1.1.1,0,0,0,0,.2A.1.1,0,0,0,5.28,20.43Z"/><circle class="cls-4" cx="5.62" cy="20.7" r="0.17"/><path class="cls-4" d="M5.87,19.93a.21.21,0,1,0-.21.21A.21.21,0,0,0,5.87,19.93Z"/><path class="cls-4" d="M5.46,19.43a.15.15,0,0,0-.14-.15.15.15,0,0,0-.15.15.15.15,0,0,0,.15.14A.14.14,0,0,0,5.46,19.43Z"/><circle class="cls-4" cx="5.92" cy="19.08" r="0.26"/><path class="cls-4" d="M6.58,18.67a.15.15,0,1,0-.3,0,.15.15,0,0,0,.3,0Z"/><path class="cls-4" d="M6,18.31a.12.12,0,0,0-.12-.12.12.12,0,0,0-.13.12.13.13,0,0,0,.13.13A.12.12,0,0,0,6,18.31Z"/><path class="cls-4" d="M5.47,18.76a.24.24,0,1,0-.24.24A.24.24,0,0,0,5.47,18.76Z"/><path class="cls-4" d="M4.69,19.4a.21.21,0,0,0-.42,0,.21.21,0,1,0,.42,0Z"/><path class="cls-1" d="M13.66,17.47s1,.9,1.27,1.05A2.35,2.35,0,0,1,16,20.28c0,.89-.75,2.1-1.32,2.12-.35,0-.79-1.87-.93-2.29s-.72-1.7-.72-1.7Z"/><path class="cls-4" d="M14.93,20.08a.31.31,0,1,1,.31.31A.31.31,0,0,1,14.93,20.08Z"/><path class="cls-4" d="M14.46,21.26a.31.31,0,1,1,.61,0,.3.3,0,0,1-.3.31A.3.3,0,0,1,14.46,21.26Z"/><path class="cls-4" d="M14.69,21.88a.16.16,0,1,1,.32,0,.16.16,0,0,1-.15.16A.17.17,0,0,1,14.69,21.88Z"/><path class="cls-4" d="M15.43,20.8a.13.13,0,0,1,.13-.13.14.14,0,0,1,.14.13.13.13,0,0,1-.13.13A.13.13,0,0,1,15.43,20.8Z"/><path class="cls-4" d="M14.55,20.38a.1.1,0,0,1,.2,0,.1.1,0,0,1-.2,0Z"/><path class="cls-4" d="M14.05,20.66a.16.16,0,0,1,.16-.17.17.17,0,0,1,0,.33A.16.16,0,0,1,14.05,20.66Z"/><path class="cls-4" d="M14,19.89a.21.21,0,0,1,.21-.22.21.21,0,0,1,.21.21.21.21,0,0,1-.21.21A.2.2,0,0,1,14,19.89Z"/><path class="cls-4" d="M14.35,19.38a.15.15,0,0,1,.14-.15.15.15,0,0,1,.15.14.15.15,0,1,1-.29,0Z"/><path class="cls-4" d="M13.63,19a.26.26,0,0,1,.25-.26.26.26,0,1,1,0,.52A.26.26,0,0,1,13.63,19Z"/><path class="cls-4" d="M13.37,18.64a.15.15,0,1,1,.3,0,.16.16,0,0,1-.15.15A.15.15,0,0,1,13.37,18.64Z"/><path class="cls-4" d="M13.76,18.27a.14.14,0,0,1,.13-.13.12.12,0,0,1,.12.13.12.12,0,0,1-.12.13A.13.13,0,0,1,13.76,18.27Z"/><path class="cls-4" d="M14.34,18.71a.23.23,0,0,1,.23-.24.24.24,0,0,1,.24.24.23.23,0,0,1-.23.24A.24.24,0,0,1,14.34,18.71Z"/><path class="cls-4" d="M15.12,19.35a.21.21,0,0,1,.21-.22.21.21,0,0,1,.21.21.2.2,0,0,1-.2.21A.21.21,0,0,1,15.12,19.35Z"/><path class="cls-4" d="M10.47,2.9a.31.31,0,1,0-.3.3A.31.31,0,0,0,10.47,2.9Z"/><circle class="cls-4" cx="11.27" cy="3.15" r="0.26"/><path class="cls-4" d="M9.16,3.34a.29.29,0,0,0-.3-.29.3.3,0,1,0,0,.59A.29.29,0,0,0,9.16,3.34Z"/><circle class="cls-4" cx="9.55" cy="3.34" r="0.14"/><path class="cls-4" d="M10,3.91a.27.27,0,1,0-.53,0,.27.27,0,0,0,.53,0Z"/><path class="cls-4" d="M9,4.37a.18.18,0,0,0-.18-.18.18.18,0,0,0-.19.18.18.18,0,0,0,.19.19A.18.18,0,0,0,9,4.37Z"/><path class="cls-4" d="M10,4.86a.4.4,0,1,0-.4.4A.4.4,0,0,0,10,4.86Z"/><path class="cls-4" d="M11,3.91a.28.28,0,0,0-.28-.27.28.28,0,0,0,0,.55A.28.28,0,0,0,11,3.91Z"/><path class="cls-4" d="M10.47,4.39a.18.18,0,0,0-.18-.18.18.18,0,0,0-.17.18.18.18,0,0,0,.17.17A.18.18,0,0,0,10.47,4.39Z"/><circle class="cls-4" cx="8.89" cy="5.57" r="0.19"/><circle class="cls-4" cx="9.95" cy="5.57" r="0.22"/><circle class="cls-4" cx="10.8" cy="5.05" r="0.34"/><path class="cls-4" d="M11.53,5.71a.19.19,0,0,0-.19-.19.19.19,0,0,0-.2.19.2.2,0,1,0,.39,0Z"/><path class="cls-4" d="M11.57,4.34a.21.21,0,0,0-.22-.21.21.21,0,0,0-.21.21.22.22,0,1,0,.43,0Z"/><path class="cls-4" d="M11.93,3.66a.11.11,0,0,0-.12-.11.11.11,0,0,0-.11.11.11.11,0,0,0,.11.12A.12.12,0,0,0,11.93,3.66Z"/><path class="cls-1" d="M7.25,6.61s-.64.13-.91-.08-1.68-2-3.2-1.27S1.25,8.27,1,8.91s-1.28,3.37-1,3.64,2.07-.32,2.83-1.77S3.64,7.42,4.1,7.05a.92.92,0,0,1,1.48.67A9.37,9.37,0,0,1,7.25,6.61Z"/><path class="cls-4" d="M1,11.59a.32.32,0,0,0-.32-.32.33.33,0,0,0-.32.32.32.32,0,0,0,.32.32A.32.32,0,0,0,1,11.59Z"/><path class="cls-4" d="M1.56,11.87a.2.2,0,0,0-.19-.19.19.19,0,0,0-.19.19.18.18,0,0,0,.19.19A.19.19,0,0,0,1.56,11.87Z"/><circle class="cls-4" cx="1.89" cy="11.29" r="0.2"/><circle class="cls-4" cx="1.31" cy="11.14" r="0.14"/><path class="cls-4" d="M1.89,10.55a.13.13,0,1,0-.13.13A.13.13,0,0,0,1.89,10.55Z"/><circle class="cls-4" cx="1.12" cy="10.48" r="0.2"/><circle class="cls-4" cx="2.45" cy="10.31" r="0.24"/><circle class="cls-4" cx="2.88" cy="9.65" r="0.19"/><path class="cls-4" d="M2.27,9.61a.41.41,0,0,0-.41-.41.41.41,0,1,0,0,.82A.41.41,0,0,0,2.27,9.61Z"/><circle class="cls-4" cx="3.11" cy="8.52" r="0.34"/><path class="cls-4" d="M2.68,7.39A.34.34,0,0,0,2.33,7,.35.35,0,0,0,2,7.39a.35.35,0,0,0,.35.35A.35.35,0,0,0,2.68,7.39Z"/><path class="cls-4" d="M1.89,8.3a.22.22,0,1,0-.22.22A.22.22,0,0,0,1.89,8.3Z"/><path class="cls-4" d="M2.68,8.07A.11.11,0,0,0,2.57,8a.12.12,0,0,0-.12.12.11.11,0,0,0,.12.11A.11.11,0,0,0,2.68,8.07Z"/><path class="cls-4" d="M2.43,8.69a.17.17,0,0,0-.34,0,.17.17,0,0,0,.34,0Z"/><path class="cls-4" d="M2.68,9.08A.12.12,0,0,0,2.57,9a.12.12,0,0,0-.12.12.12.12,0,0,0,.12.12A.11.11,0,0,0,2.68,9.08Z"/><circle class="cls-4" cx="3.25" cy="7.48" r="0.18"/><path class="cls-4" d="M4.6,6.53a.13.13,0,0,0-.13-.13.13.13,0,0,0,0,.26A.13.13,0,0,0,4.6,6.53Z"/><path class="cls-4" d="M4,6.5a.38.38,0,0,0-.76,0A.38.38,0,1,0,4,6.5Z"/><path class="cls-4" d="M5.18,6a.32.32,0,0,0-.32-.32A.32.32,0,0,0,4.54,6a.33.33,0,0,0,.32.32A.32.32,0,0,0,5.18,6Z"/><path class="cls-4" d="M5.64,6.15a.12.12,0,1,0-.24,0,.12.12,0,1,0,.24,0Z"/><path class="cls-4" d="M5.87,6.65a.24.24,0,0,0-.24-.24.24.24,0,0,0,0,.48A.24.24,0,0,0,5.87,6.65Z"/><path class="cls-4" d="M3.89,5.69a.22.22,0,1,0-.22.22A.22.22,0,0,0,3.89,5.69Z"/><path class="cls-4" d="M2.33,6.76a.12.12,0,0,0-.12-.12.13.13,0,0,0-.12.12.13.13,0,0,0,.12.13A.12.12,0,0,0,2.33,6.76Z"/><circle class="cls-4" cx="2.92" cy="6.89" r="0.14"/><circle class="cls-4" cx="2.88" cy="6.22" r="0.19"/><path class="cls-4" d="M1.48,9a.11.11,0,0,0-.11-.12A.12.12,0,0,0,1.25,9a.11.11,0,0,0,.12.11A.11.11,0,0,0,1.48,9Z"/><path class="cls-4" d="M1.12,9.8A.11.11,0,0,0,1,9.7a.1.1,0,0,0-.1.1.09.09,0,0,0,.1.1A.1.1,0,0,0,1.12,9.8Z"/><path class="cls-1" d="M13,6.91s.64.13.91-.09,1.66-2,3.19-1.29,1.91,3,2.13,3.63,1.31,3.36,1,3.64-2.07-.31-2.85-1.75-.79-3.36-1.25-3.72A.92.92,0,0,0,14.72,8,10.07,10.07,0,0,0,13,6.91Z"/><path class="cls-4" d="M19.31,11.85a.32.32,0,1,1,.64,0,.32.32,0,0,1-.64,0Z"/><path class="cls-4" d="M18.78,12.13a.19.19,0,1,1,.38,0,.2.2,0,0,1-.19.19A.18.18,0,0,1,18.78,12.13Z"/><path class="cls-4" d="M18.24,11.55a.2.2,0,0,1,.2-.2.2.2,0,1,1,0,.4A.2.2,0,0,1,18.24,11.55Z"/><path class="cls-4" d="M18.88,11.39a.14.14,0,0,1,.13-.14.14.14,0,0,1,.14.14.13.13,0,0,1-.13.14A.14.14,0,0,1,18.88,11.39Z"/><path class="cls-4" d="M18.43,10.81a.13.13,0,1,1,.13.13A.13.13,0,0,1,18.43,10.81Z"/><path class="cls-4" d="M19,10.74a.2.2,0,0,1,.2-.2.2.2,0,0,1,.2.19.2.2,0,0,1-.4,0Z"/><path class="cls-4" d="M17.64,10.58a.24.24,0,1,1,.47,0,.23.23,0,0,1-.23.23A.23.23,0,0,1,17.64,10.58Z"/><path class="cls-4" d="M17.25,9.92a.19.19,0,0,1,.19-.19.18.18,0,0,1,.19.19.19.19,0,0,1-.19.19A.2.2,0,0,1,17.25,9.92Z"/><path class="cls-4" d="M18,9.88a.41.41,0,0,1,.41-.42.42.42,0,0,1,.42.41.41.41,0,0,1-.41.41A.42.42,0,0,1,18,9.88Z"/><path class="cls-4" d="M16.86,8.79a.35.35,0,0,1,.33-.34.34.34,0,0,1,.34.34.33.33,0,0,1-.33.33A.32.32,0,0,1,16.86,8.79Z"/><path class="cls-4" d="M17.61,7.65A.35.35,0,0,1,18,7.3a.35.35,0,0,1,.35.35A.34.34,0,0,1,18,8,.36.36,0,0,1,17.61,7.65Z"/><path class="cls-4" d="M18.41,8.56a.23.23,0,0,1,.45,0,.23.23,0,0,1-.45,0Z"/><path class="cls-4" d="M17.62,8.33a.12.12,0,0,1,.12-.12.13.13,0,0,1,.12.12.12.12,0,0,1-.12.12A.12.12,0,0,1,17.62,8.33Z"/><path class="cls-4" d="M17.88,9a.17.17,0,1,1,.17.17A.18.18,0,0,1,17.88,9Z"/><path class="cls-4" d="M17.63,9.35a.11.11,0,0,1,.11-.12.12.12,0,0,1,.12.12.12.12,0,0,1-.11.12A.12.12,0,0,1,17.63,9.35Z"/><path class="cls-4" d="M16.87,7.75a.18.18,0,1,1,.18.18A.18.18,0,0,1,16.87,7.75Z"/><path class="cls-4" d="M15.69,6.81a.13.13,0,0,1,.13-.13.13.13,0,1,1-.13.13Z"/><path class="cls-4" d="M16.28,6.78a.38.38,0,0,1,.76,0,.37.37,0,0,1-.37.38A.39.39,0,0,1,16.28,6.78Z"/><path class="cls-4" d="M15.1,6.24a.33.33,0,0,1,.32-.32.32.32,0,0,1,0,.64A.33.33,0,0,1,15.1,6.24Z"/><path class="cls-4" d="M14.65,6.44a.12.12,0,0,1,.24,0,.13.13,0,0,1-.12.13A.12.12,0,0,1,14.65,6.44Z"/><path class="cls-4" d="M14.42,6.94a.24.24,0,0,1,.48,0,.24.24,0,0,1-.48,0Z"/><path class="cls-4" d="M16.4,6a.22.22,0,0,1,.22-.23.22.22,0,0,1,0,.44A.21.21,0,0,1,16.4,6Z"/><path class="cls-4" d="M18,7a.12.12,0,1,1,.24,0A.12.12,0,0,1,18,7Z"/><path class="cls-4" d="M17.23,7.16A.14.14,0,0,1,17.37,7a.15.15,0,0,1,0,.29A.15.15,0,0,1,17.23,7.16Z"/><path class="cls-4" d="M17.22,6.49a.2.2,0,0,1,.19-.19.18.18,0,0,1,.19.19.18.18,0,0,1-.18.19A.19.19,0,0,1,17.22,6.49Z"/><path class="cls-4" d="M18.83,9.23a.12.12,0,1,1,.12.11A.11.11,0,0,1,18.83,9.23Z"/><path class="cls-4" d="M19.2,10.06a.1.1,0,0,1,.1-.1.09.09,0,0,1,.1.09.09.09,0,0,1-.1.1A.1.1,0,0,1,19.2,10.06Z"/><path class="cls-5" d="M9.08,9.92a4.48,4.48,0,0,1,2.06,0,4.77,4.77,0,0,1,1,1.67,5.34,5.34,0,0,1-1,1.69,6,6,0,0,1-2,0,4.68,4.68,0,0,1-1.1-1.6A4.87,4.87,0,0,1,9.08,9.92Z"/><path class="cls-5" d="M5.52,13a4,4,0,0,0,.66,2.1,4,4,0,0,0,1.88,0,3.66,3.66,0,0,0,.83-1.44,4.66,4.66,0,0,0-1-1.44A5.38,5.38,0,0,0,6,12.29,1.51,1.51,0,0,0,5.52,13Z"/><path class="cls-5" d="M8.26,7.57a6.88,6.88,0,0,1,3.55-.09.71.71,0,0,1,.37.59A4.16,4.16,0,0,1,11,9.2a7.72,7.72,0,0,1-1.86,0C8.94,9.11,8,8.27,8,8.08A.79.79,0,0,1,8.26,7.57Z"/><path class="cls-5" d="M8.42,9.7A9.87,9.87,0,0,0,7.25,8.3a.6.6,0,0,0-.32-.12,3.54,3.54,0,0,0-1.75,3.31c0,.27.9.19,1.07.19a4.52,4.52,0,0,0,1.23-.19A8,8,0,0,0,8.42,9.7Z"/><path class="cls-5" d="M11.81,9.9a4.35,4.35,0,0,0,.95,1.59,4.51,4.51,0,0,0,1.42,0,.85.85,0,0,0,.24-.35,3.29,3.29,0,0,0-.86-2.62c-.11-.13-.66-.1-.84,0A4,4,0,0,0,11.81,9.9Z"/><path class="cls-5" d="M9.36,13.79a3.75,3.75,0,0,1,1.7,0,3,3,0,0,1,.7,1.29,3.57,3.57,0,0,1-.8,1.3,4.44,4.44,0,0,1-1.5,0,2.75,2.75,0,0,1-.83-1.19A3.3,3.3,0,0,1,9.36,13.79Z"/><path class="cls-5" d="M6.66,16.15c0,.13,0,.89,1.07,1.67.13.1.5,0,.65-.1A3,3,0,0,0,9,16.57a2.07,2.07,0,0,0-.61-.93,4.43,4.43,0,0,0-1.26,0A.9.9,0,0,0,6.66,16.15Z"/><path class="cls-5" d="M9.46,16.83a4.1,4.1,0,0,1,1.44,0A3.05,3.05,0,0,1,11.52,18a2.72,2.72,0,0,1-.73,1.12,3.57,3.57,0,0,1-1.22,0,2.24,2.24,0,0,1-.85-1A2.79,2.79,0,0,1,9.46,16.83Z"/><path class="cls-5" d="M14.43,12.31a5.87,5.87,0,0,1-.72,2.76c-.09.18-1,.09-1.15,0a3.33,3.33,0,0,1-.93-1.44,3.75,3.75,0,0,1,1-1.51,3.26,3.26,0,0,1,1.24-.1C14,12.08,14.36,12.17,14.43,12.31Z"/><path class="cls-5" d="M13.52,15.89a5.13,5.13,0,0,1-1.22,1.93c-.11.11-.44-.13-.54-.24a2.73,2.73,0,0,1-.35-.95,3.31,3.31,0,0,1,.77-1.12,2.15,2.15,0,0,1,1,0C13.32,15.57,13.52,15.77,13.52,15.89Z"/><path class="cls-5" d="M4.8,11c0,.28.12.65-.45.75s-.43-.66-.4-.87,0-.92.59-.86S4.8,10.85,4.8,11Z"/><path class="cls-5" d="M4,12.86c0,.32.1.82.73.7s.34-.69.29-.94,0-.82-.62-.69S4,12.44,4,12.86Z"/><path class="cls-5" d="M4.48,14.67c.11.33.08.92.71.66s.29-.68.21-1-.1-.81-.66-.61S4.27,14,4.48,14.67Z"/><path class="cls-5" d="M5.32,15.57c.22-.11.38-.23.71.53s.27.81,0,.93-.38.22-.71-.51S5,15.75,5.32,15.57Z"/><path class="cls-5" d="M6.26,18.1c.24.26.41.74.81.42s0-.69-.17-.87-.26-.76-.64-.53S5.75,17.54,6.26,18.1Z"/><path class="cls-5" d="M7.21,18.64c-.12.12-.4.23.08.76s.54.24.67.12.29-.31-.15-.73S7.34,18.49,7.21,18.64Z"/><path class="cls-5" d="M8.1,19.62c-.07.11-.34.32.32.66s.74,0,.78-.14.17-.37-.43-.59C8.36,19.4,8.28,19.35,8.1,19.62Z"/><path class="cls-5" d="M10,19.88c.25,0,.49-.19.62.1s.13.64-.52.67-.9,0-.75-.51S9.68,19.87,10,19.88Z"/><path class="cls-5" d="M11.31,19.3c.29-.15.45-.4.75,0s0,.56-.38.78-.63.42-.82,0S10.77,19.56,11.31,19.3Z"/><path class="cls-5" d="M12.21,19.17c.21.19.34.32.84-.26s.44-.59.11-.85-.44,0-.72.21S11.77,18.77,12.21,19.17Z"/><path class="cls-5" d="M13.42,16.9c-.14.21-.64.74-.15,1.06s.57-.19.81-.53.55-.77.07-1S13.69,16.46,13.42,16.9Z"/><path class="cls-5" d="M14.15,15.23c-.1.21-.6.92,0,1.15s.58-.51.68-.71.5-.83,0-1S14.36,14.79,14.15,15.23Z"/><path class="cls-5" d="M14.67,13.45c-.07.35-.45.9.08,1s.61-.12.75-.68.3-1-.2-1.06S14.79,12.8,14.67,13.45Z"/><path class="cls-5" d="M14.82,11.49c0,.23-.21,1,.42,1s.55-.6.56-.95.15-1-.4-1S14.89,10.84,14.82,11.49Z"/><path class="cls-5" d="M14.66,9.58c.15.54,0,.95.71.83s.3-.7.19-1-.18-1-.72-.72S14.56,9.21,14.66,9.58Z"/><path class="cls-5" d="M13.9,8.18c.26.2.38.57.76.37s.22-.64-.09-1-.63-.49-.83-.26S13.53,7.89,13.9,8.18Z"/><path class="cls-5" d="M12.56,7.43c.18.07.74.36.94-.07s.15-.59-.47-.83-.84-.43-1,.17S12.13,7.24,12.56,7.43Z"/><path class="cls-5" d="M11,7.05c.43.06.77.08.84-.35s-.12-.62-.61-.67-.82-.13-.88.43S10.8,7,11,7.05Z"/><path class="cls-5" d="M9.35,6c.33,0,.84-.16.87.42s-.23.52-.74.6-.82.12-.88-.42S8.79,6.06,9.35,6Z"/><path class="cls-5" d="M7.91,7.3c-.21.07-.77.39-1-.13s0-.64.56-.83.91-.23,1,.32S8.27,7.18,7.91,7.3Z"/><path class="cls-5" d="M6.38,8c-.16.16-.57.54-.88.18s-.22-.6.25-1,.64-.54,1,0S6.54,7.87,6.38,8Z"/><path class="cls-5" d="M4.48,8.84c-.16.32-.51.79.12,1s.51-.26.63-.5.56-.77.11-1S4.64,8.52,4.48,8.84Z"/></g></g></svg>