<svg xmlns="http://www.w3.org/2000/svg" viewBox="0 0 30.91 15.6"><defs><style>.cls-1{fill:#4d6b70;}.cls-2{fill:#557880;}.cls-3{fill:#bee0e5;}.cls-4{fill:#3e5557;}.cls-5{fill:#2b2b2d;}.cls-6{fill:#eef1f4;}</style></defs><g id="Layer_2" data-name="Layer 2"><g id="Layer_2-2" data-name="Layer 2"><path class="cls-1" d="M12.87.09c0-.19,2.18-.26,3.87,1.69A33.91,33.91,0,0,0,19.34,5a1.85,1.85,0,0,0,.88.36v.29l-5.73.59a8.66,8.66,0,0,0-.81-4.72A8.78,8.78,0,0,0,12.87.09Z"/><path class="cls-1" d="M23.62,12.94s1.09,1.26,1,1.76c0,0-2.61-.91-2.68-1.37S23.62,12.94,23.62,12.94Z"/><path class="cls-2" d="M18.59,5.36a21.09,21.09,0,0,0-9.85,3,5.67,5.67,0,0,1-2.6.49c-3-6-6-5.5-6-5.5,2.57,3.19,3.19,5.46,3.22,6S0,13.61,0,13.61C2.14,13.84,6.11,10,6.11,10a9.64,9.64,0,0,1,1.75.2,3.15,3.15,0,0,1,.62.22,29.32,29.32,0,0,1,4.19,0c1.79.19,2.9-.46,6.63-.59a26.21,26.21,0,0,0-3.64,2.28,7.28,7.28,0,0,0-.7.82s-.65,1-1.06,1.45a8,8,0,0,1-1.37,1.17c-.06.13,2.17.31,4.52-2.08a.72.72,0,0,0,.14-.13c2.41-2.57,2.18-3.48,2.6-3.51s3.54.21,5.39,0c.56,0,1.31.11,1.53.07a8.1,8.1,0,0,1,1.51-.19c.33.07.23.1.88.23s.82,0,1.09.27a.31.31,0,0,1,.08.33,2,2,0,0,0,.63-.78C31.07,9.25,25.84,5.07,18.59,5.36Z"/><path class="cls-3" d="M30.19,10.23c-.27-.24-.44-.14-1.09-.27s-.55-.16-.88-.23a8.1,8.1,0,0,0-1.51.19c-.22,0-1-.12-1.53-.07-1.85.17-5-.07-5.39,0s-.19.94-2.6,3.51l-.13.13.52.08c.39,0,.9.06,1.48.08,6.52-.16,9.91-1.9,11.21-3A.31.31,0,0,0,30.19,10.23Z"/><path class="cls-3" d="M15.66,12.09A26.21,26.21,0,0,1,19.3,9.81c-3.73.13-4.84.78-6.63.59a29.32,29.32,0,0,0-4.19,0,62,62,0,0,0,6.46,2.55A7.75,7.75,0,0,1,15.66,12.09Z"/><path class="cls-4" d="M21.51,11.34a.05.05,0,0,1-.05,0,2.9,2.9,0,0,1,.27-3.72.06.06,0,0,1,.09,0,.07.07,0,0,1,0,.09,2.74,2.74,0,0,0-.25,3.56.07.07,0,0,1,0,.09Z"/><path class="cls-4" d="M22.32,11.34l-.06,0a2.74,2.74,0,0,1,.26-3.5.06.06,0,0,1,.09.09,2.58,2.58,0,0,0-.24,3.34.07.07,0,0,1,0,.09Z"/><path class="cls-4" d="M23.07,11.21a.05.05,0,0,1-.05,0A2.48,2.48,0,0,1,23.19,8a.06.06,0,0,1,.09,0s0,.07,0,.09a2.33,2.33,0,0,0-.15,3.06.07.07,0,0,1,0,.09Z"/><path class="cls-5" d="M26.94,9.13a.23.23,0,1,0-.45,0,.23.23,0,1,0,.45,0Z"/><ellipse class="cls-4" cx="28.22" cy="10.33" rx="0.24" ry="0.1"/><path class="cls-4" d="M28.62,11.64a9.21,9.21,0,0,0-2.52-.5.06.06,0,0,1,.06-.06,7.66,7.66,0,0,1,2.63.47Z"/><path class="cls-6" d="M26.89,9.07a.09.09,0,0,0-.18,0,.09.09,0,1,0,.18,0Z"/></g></g></svg>