<svg xmlns="http://www.w3.org/2000/svg" viewBox="0 0 22.38 19.88"><defs><style>.cls-1{fill:#19171a;}.cls-2{fill:#1c191c;}.cls-3{fill:#434145;}.cls-4{fill:#f7f7f8;}.cls-5{fill:#1e1e21;}.cls-6{fill:#fdfeff;}</style></defs><g id="Layer_2" data-name="Layer 2"><g id="Layer_2-2" data-name="Layer 2"><path class="cls-1" d="M2.92,13.31a4.33,4.33,0,0,1-1.61-1.23,15.44,15.44,0,0,1-.84-3C.23,8.35,0,7.51,0,7.51a.77.77,0,0,1,.58.19A5.73,5.73,0,0,0,.46,6s.17,0,.35.18l0,0A8.83,8.83,0,0,0,1,4.63a.69.69,0,0,1,.28.4A9.21,9.21,0,0,0,2,3.18s0,0,0-.06c0-.54.13.39.13.39A6.74,6.74,0,0,0,2.81,2,.55.55,0,0,1,3,2.32,10.05,10.05,0,0,0,3.37.9a.64.64,0,0,1,.15.27A3.57,3.57,0,0,0,4.16,0,2.24,2.24,0,0,1,5,1.51a.44.44,0,0,0,.35-.21,4,4,0,0,0,0,1,.56.56,0,0,1,.28-.25,1.68,1.68,0,0,0,.1,1.06.68.68,0,0,1,.3-.21A2.67,2.67,0,0,0,6.12,4a1.16,1.16,0,0,1,.34-.17,8.89,8.89,0,0,0-.41,1.56s.21-.08.32,0a2.94,2.94,0,0,0-.52,1,1.25,1.25,0,0,1,.38,0,3.77,3.77,0,0,0-.74,1,.64.64,0,0,1,.35-.09s-.51.83-.58,1c0,0,.08-.07.26,0a10.17,10.17,0,0,0-.62.9c-.2.34-.51.76-1.22,1.76a2.51,2.51,0,0,0-.32,1.37Z"/><path class="cls-2" d="M14,16.1a11.31,11.31,0,0,0,.43,3.17c.21.29,1,.27,1.08-.1S15,18.7,15,18.7a5.72,5.72,0,0,1,.54-3.46Z"/><path class="cls-2" d="M5.91,16.47s-.06,2.83.39,3.19,1.07.24,1.09-.07S7,19.2,7,19.2a4.52,4.52,0,0,1,1-2.36Z"/><path class="cls-1" d="M22.21,12.93,22,12.77a3.65,3.65,0,0,1,.27.3A.41.41,0,0,0,22.21,12.93Z"/><path class="cls-1" d="M17.49,10.14c-1.45-.09-2.6.6-4.29.62s-4.75-.64-6.69-.15a5.33,5.33,0,0,0-3.36,1.93,8.31,8.31,0,0,1,4.09-1.78,25,25,0,0,1,5.23.32c2.68.21,3.56-.87,5-.73,1.09.11,3.63,1.73,4.78,2.59C21.27,11.92,18.71,10.21,17.49,10.14Z"/><path class="cls-3" d="M14.79,14.92a3.4,3.4,0,0,0-1,1.36,7.13,7.13,0,0,0,1.47-.77,5.26,5.26,0,0,1,2.57-1c-.52-.11-.88-.26-1-.28S16.25,13.87,14.79,14.92Z"/><path class="cls-3" d="M6.07,15.76a4.92,4.92,0,0,0-.41.74A14.42,14.42,0,0,0,8.84,17a16.17,16.17,0,0,0,3.45-.24v-1A26.53,26.53,0,0,1,6.07,15.76Z"/><path class="cls-1" d="M22.3,13.28c-3.08-1.95-3.81-2-4.78-2.06s-3.67,1-5.07,1.06-3.18-.82-5.86-.35a11.81,11.81,0,0,0-3.75,1.14c-.46,1.25.34,2.84.46,3.31s.85,3,1,3.19,1,.42,1.16-.07S5,19.06,5,19.06a7.29,7.29,0,0,1,.62-2.56,4.92,4.92,0,0,1,.41-.74,26.53,26.53,0,0,0,6.22,0v1c0,.66,0,1.57,0,2.43,0,.35.92.6,1.17.27s-.29-.59-.29-.59a8.36,8.36,0,0,1,.59-2.55,3.4,3.4,0,0,1,1-1.36c1.46-1.05,1.76-.78,2-.73s.49.17,1,.28a5.36,5.36,0,0,0,2,.06c1.17-.2,2.36-.75,2.52-1.24Z"/><path class="cls-4" d="M19,12c0-.11-.14-.21-.25-.21s-.26.07-.27.18.14.21.25.21S19,12.1,19,12Z"/><path class="cls-5" d="M19,12c0-.09-.12-.16-.2-.17s-.2.06-.21.14.11.16.19.17S18.94,12.07,19,12Z"/><path class="cls-6" d="M3.15,12.54c-1-1.36-.5-2.47-.12-3.55S4.61,6.7,4.91,5.32a5.92,5.92,0,0,0-.39-2.93,9.38,9.38,0,0,1,0-1.54A2.07,2.07,0,0,0,4.16,0,2.22,2.22,0,0,1,4,1.05c-.89,2-.35,2.92-.77,4.21S1.81,7.6,1.64,9.67a4.51,4.51,0,0,0,1.2,3.4A13,13,0,0,1,6.76,11.9c2.53-.41,4.3.39,5.71.38s4.1-1.13,5.08-1,1.52.06,4.61,2l.17,0a.33.33,0,0,0,0-.22c-.09-.1-.86-.65-1.22-.94a8.17,8.17,0,0,0-3.61-1.72c-1.44-.14-2.32.94-5,.73a25,25,0,0,0-5.23-.32,8,8,0,0,0-4.09,1.79Z"/><path class="cls-3" d="M17.4,11.38c0-.05-.34-.82-.81-.43s0,.5.1.57a.84.84,0,0,0,.48.09A.37.37,0,0,0,17.4,11.38Z"/><path class="cls-1" d="M17.35,11.48s-.35-.4-.51-.22.12.28.4.3A.09.09,0,0,0,17.35,11.48Z"/><path class="cls-3" d="M22.36,13.17a.24.24,0,0,0-.23-.34s-.48,0-.33.28.32.36.39.34S22.3,13.4,22.36,13.17Z"/></g></g></svg>