<svg xmlns="http://www.w3.org/2000/svg" viewBox="0 0 20.87 20.39"><defs><style>.cls-1{fill:#87705c;}.cls-2{fill:#4e5148;}.cls-3{fill:#c4af8e;}.cls-4{fill:#7c6857;}.cls-5{fill:#966d2f;}.cls-6{fill:#1c1b1b;}.cls-7{fill:#292827;}.cls-8{fill:#aa8d75;}.cls-9{fill:#835e2d;}.cls-10{fill:#a0763c;}.cls-11{fill:#84a845;}.cls-12{fill:#8eb245;}</style></defs><g id="Layer_2" data-name="Layer 2"><g id="Layer_2-2" data-name="Layer 2"><path class="cls-1" d="M15.67,11.79c.41.59,2.59,2.08,4.37.76s.15-3.9.15-3.9,0-.16.25-.12A.68.68,0,0,0,20,8.37.45.45,0,0,1,20.1,8s-.36.2-.41.08,0-.3-.12-.44c0,0,.06.25-.11.33,0,0-2-1.74-3.79-.2S15.27,11.22,15.67,11.79Z"/><path class="cls-2" d="M16.74,9.58c.19.1.64.16.8-.11a.62.62,0,0,0-.28-.8c-.36-.18-.85,0-1.2-.13a2.17,2.17,0,0,1-.5-.31,1.28,1.28,0,0,0-.24.29c.17.09.49.25.63.35A7.31,7.31,0,0,0,16.74,9.58Z"/><path class="cls-3" d="M19.26,9.85l0-.12a.18.18,0,0,0-.2,0c-.05,0,0-.17,0-.24s-.32.06-.27,0a.24.24,0,0,0,.06-.24h-.26c-.06,0,.1-.19.1-.19a.56.56,0,0,0-.17,0s-1.32-1.87-2.82-1l-.23.17a2.17,2.17,0,0,0,.5.31c.35.16.84,0,1.2.13a.62.62,0,0,1,.28.8c-.16.27-.61.21-.8.11A7.31,7.31,0,0,1,16,8.87c-.14-.1-.46-.26-.63-.35-.58,1,.08,2.57.63,3.18a3.26,3.26,0,0,0,3.13,1,5.18,5.18,0,0,0-.22-.5,8.84,8.84,0,0,1-.62-.86c-.08-.21-.08-.66.2-.79a.61.61,0,0,1,.76.37c.15.38-.12.84,0,1.21a2.38,2.38,0,0,0,.19.42l.15-.09C20.89,11.54,19.26,9.85,19.26,9.85Z"/><path class="cls-2" d="M19.2,10.93a.61.61,0,0,0-.76-.37c-.28.13-.28.58-.2.79a8.84,8.84,0,0,0,.62.86,5.18,5.18,0,0,1,.22.5,2.2,2.2,0,0,0,.31-.15,2.38,2.38,0,0,1-.19-.42C19.08,11.77,19.35,11.31,19.2,10.93Z"/><path class="cls-4" d="M15.49,8s-.14-.72-.24-1.31,0-1.41-.52-1.42-.84.29-.71,1l.13.73.2,2.05.54.32Z"/><path class="cls-4" d="M9.81,14.1a28.79,28.79,0,0,1-.49-3.61c0-1.22,0-2.29-.73-2.22s-.91.67-.9,1.37a14.9,14.9,0,0,0,.49,4.9Z"/><path class="cls-5" d="M17.57,3.83s-.8.24-1.16.39-1.74.62-2.22.78a28.51,28.51,0,0,0-3.7,1.93c-.36.21-4.6,2.63-5.56,3.16A15.39,15.39,0,0,0,2.8,11.64L2.73,5.72A2.39,2.39,0,0,0,0,5.82s0,4.43,0,5.66c0,.36,0,1.21,0,2.24,0,.33.13,6.23.13,6.23A2.38,2.38,0,0,0,2.9,20v-.77l-.07-5.53A11.74,11.74,0,0,1,6.29,10.9c.64-.35,3.22-2,3.46-2.09S13.28,6.56,14.56,6s2.37-1,2.55-1.08.3-.4.4-.52S17.57,3.83,17.57,3.83Z"/><path class="cls-1" d="M16.41,11.34c.17.23.65.54,1.78.36,0,0-.81-.33-.61-1l-.35-.41s-.8,0-.82-.69A1.46,1.46,0,0,0,16.41,11.34Z"/><path class="cls-3" d="M13.46,11.86S11,14.23,8,13.58c0,0-.36,2.5,3.73,2S13.91,12.57,13.46,11.86Z"/><path class="cls-6" d="M17.08,10.72c.05.08.85.23.87,0s-.34-.26-.41-.33S17.45,10,17.3,10,17,10.65,17.08,10.72Z"/><path class="cls-6" d="M17.3,11.28a.74.74,0,0,1-.59-.21.64.64,0,0,1-.11-.51.05.05,0,0,1,.06,0,0,0,0,0,1,0,.06.59.59,0,0,0,.09.43.7.7,0,0,0,.58.18,0,0,0,0,1,.05,0,0,0,0,0,1,0,0Z"/><path class="cls-6" d="M17.08,9.43a.19.19,0,0,1-.28,0,.2.2,0,0,1-.08-.27.21.21,0,0,1,.3-.06A.21.21,0,0,1,17.08,9.43Z"/><path class="cls-6" d="M18.43,11a.2.2,0,0,0-.07.28.19.19,0,0,0,.26.1.2.2,0,0,0,.09-.28A.21.21,0,0,0,18.43,11Z"/><path class="cls-1" d="M17.74,12.83a5.83,5.83,0,0,0-.49,1.67.36.36,0,0,1-.14-.09,2.5,2.5,0,0,0-.11.71s-.11-.07-.13-.12a1.63,1.63,0,0,0-.1.67.2.2,0,0,1-.19-.08,3.92,3.92,0,0,0-.19.84.77.77,0,0,1-.14-.29,5,5,0,0,0-.37,1,.86.86,0,0,0-.15-.24,1.05,1.05,0,0,0-.09.36s-.1-.14-.12-.14h0a3,3,0,0,1-1.06,1.06.86.86,0,0,1,0-.25,11.46,11.46,0,0,1-1,.75.4.4,0,0,1,.06-.23,2.59,2.59,0,0,1-.83.51.31.31,0,0,1,0-.21,5.22,5.22,0,0,1-.94.45.42.42,0,0,1,.07-.27,5.5,5.5,0,0,1-.95.4.33.33,0,0,1,0-.22,2.27,2.27,0,0,1-.81.29.26.26,0,0,1,0-.19,3.44,3.44,0,0,1-1,.19.58.58,0,0,1,.17-.28,5,5,0,0,1-1.14,0,.28.28,0,0,1,.15-.18,2.06,2.06,0,0,1-.73-.44.15.15,0,0,1,.11-.06,3.29,3.29,0,0,1-.78-.57s0-.06.12,0-.47-.36-.62-.44a.18.18,0,0,1,.2-.07,3.4,3.4,0,0,1-.49-.69.62.62,0,0,1,.18,0,2.55,2.55,0,0,1-.43-.77.11.11,0,0,1,.11,0,2.26,2.26,0,0,1-.18-.49.08.08,0,0,1,.11,0,2.21,2.21,0,0,1-.35-1.09.29.29,0,0,1,.15,0h0a18.58,18.58,0,0,1,.08-3C6.1,9.61,6.2,8.83,7,8.74c1-.11.84,1.21.87,2.57,0,0,0,0,.14-.07a3.87,3.87,0,0,1-.14.85s.15-.05.22,0a4.11,4.11,0,0,1-.17.66s0-.05.17-.05c0,0,.36,2.38,2.05,2.7A4.15,4.15,0,0,0,14,13.94a2.19,2.19,0,0,1-.58-1.17s-.27-.18-.32-.33l.16-.06A1.41,1.41,0,0,0,12.9,12s.11-.1.21-.07a2.32,2.32,0,0,0-.37-.76.22.22,0,0,1,.23-.14s-.12-.31-.28-.37a.4.4,0,0,1,.3-.12.87.87,0,0,0-.25-.52A.3.3,0,0,1,13,10a1.33,1.33,0,0,0-.28-.59.76.76,0,0,1,.22,0,14.82,14.82,0,0,1,0-3c.09-.56.35-.9.84-.9,1,0,.53.91,1,3.94a3.26,3.26,0,0,0,.87,2.2A3.81,3.81,0,0,0,17.74,12.83Z"/><path class="cls-6" d="M7.27,8.12a1.68,1.68,0,0,0-.12,1.16c0,.08-.18.16-.27.06S6.79,8.37,7.27,8.12Z"/><path class="cls-6" d="M8.53,8.7a2.62,2.62,0,0,0,.18-.77c0-.08-.1-.12-.19-.07S8.42,8.24,8.53,8.7Z"/><path class="cls-6" d="M8.22,8.84A3.53,3.53,0,0,0,8.34,8c0-.06-.13-.06-.2,0A1.36,1.36,0,0,0,8.22,8.84Z"/><path class="cls-7" d="M14.24,5.74a3.43,3.43,0,0,0,.13-.84c0-.05-.13-.06-.21,0A1.56,1.56,0,0,0,14.24,5.74Z"/><path class="cls-6" d="M8.85,8.58a3.33,3.33,0,0,0,.22-.77c0-.07-.13-.09-.21,0A1.73,1.73,0,0,0,8.85,8.58Z"/><path class="cls-7" d="M14.56,5.62a2.52,2.52,0,0,0,.15-.77c0-.09-.11-.12-.2-.06S14.43,5.16,14.56,5.62Z"/><path class="cls-7" d="M14.85,5.49A3.57,3.57,0,0,0,15,4.72c0-.08-.14-.08-.21,0A1.68,1.68,0,0,0,14.85,5.49Z"/><path class="cls-6" d="M6.78,8.4a1.54,1.54,0,0,0-.08.91s-.15.12-.22,0S6.41,8.64,6.78,8.4Z"/><path class="cls-6" d="M7.51,8.32a2.73,2.73,0,0,0,0,.91c0,.06-.15.12-.22,0S7.2,8.48,7.51,8.32Z"/><path class="cls-6" d="M14.09,4.87A1.63,1.63,0,0,0,14,6c0,.08-.18.16-.27.06S13.61,5.12,14.09,4.87Z"/><path class="cls-6" d="M14.39,5.07a2.16,2.16,0,0,0,0,.91c0,.06-.14.12-.21,0S14,5.29,14.39,5.07Z"/><path class="cls-6" d="M13.59,5.15a1.54,1.54,0,0,0-.08.91c0,.05-.15.11-.21,0A1,1,0,0,1,13.59,5.15Z"/><path class="cls-8" d="M15.49,12.05h0a.86.86,0,0,1-.29-.17,0,0,0,0,1,0,0h0a.75.75,0,0,0,.27.16,0,0,0,0,1,0,0A0,0,0,0,1,15.49,12.05Z"/><path class="cls-8" d="M14.43,13h0a.4.4,0,0,1-.2-.23,0,0,0,0,1,0,0s0,0,0,0a.36.36,0,0,0,.18.2s0,0,0,0Z"/><path class="cls-8" d="M15.62,13h0a.55.55,0,0,1-.26-.16s0,0,0,0h0a.56.56,0,0,0,.23.15s0,0,0,0Z"/><path class="cls-8" d="M14.88,13.77a.44.44,0,0,1-.24-.06s0,0,0,0h0a.44.44,0,0,0,.22,0s0,0,0,0l0,0Z"/><path class="cls-8" d="M15.9,13.92l0,0a0,0,0,0,1,0,0,.47.47,0,0,0,.22-.19h0a0,0,0,0,1,0,0,.51.51,0,0,1-.24.2Z"/><path class="cls-8" d="M15.21,14.54h0s0,0,0,0a1.3,1.3,0,0,0,.28-.18h0a0,0,0,0,1,0,0,1.25,1.25,0,0,1-.29.19Z"/><path class="cls-8" d="M16,14.54h0a0,0,0,0,1,0,0,1.06,1.06,0,0,0,.23-.18h0s0,0,0,0a.93.93,0,0,1-.23.19Z"/><path class="cls-8" d="M15.43,15.4h0a0,0,0,0,1,0,0,1.54,1.54,0,0,0,.28-.23s0,0,0,0a0,0,0,0,1,0,0,1.11,1.11,0,0,1-.28.24Z"/><path class="cls-8" d="M15.43,16.48a0,0,0,0,1,0,0,0,0,0,0,1,0,0,.6.6,0,0,0,.21-.25h0s0,0,0,0a.89.89,0,0,1-.23.27Z"/><path class="cls-8" d="M14.13,15.17l0,0,0,0a.72.72,0,0,0,.31-.26s0,0,0,0a0,0,0,0,1,0,0,.79.79,0,0,1-.34.29Z"/><path class="cls-8" d="M16.85,14.1h0s0,0,0,0a2,2,0,0,0,.15-.29h0s0,0,0,0a2.75,2.75,0,0,1-.15.29Z"/><path class="cls-8" d="M16.37,15.29h0a0,0,0,0,1,0,0,.9.9,0,0,0,.15-.31s0,0,0,0,0,0,0,0a.87.87,0,0,1-.17.33Z"/><path class="cls-8" d="M14,16.06h0a0,0,0,0,1,0,0,1.08,1.08,0,0,0,.33-.26h0s0,0,0,0a1.09,1.09,0,0,1-.35.27Z"/><path class="cls-8" d="M12.73,15.87s0,0,0,0l0,0a.93.93,0,0,0,.42-.12h0a0,0,0,0,1,0,0A.77.77,0,0,1,12.73,15.87Z"/><path class="cls-8" d="M14.21,16.79s0,0,0,0a0,0,0,0,1,0,0,.66.66,0,0,0,.36-.21h0a0,0,0,0,1,0,0,.64.64,0,0,1-.39.22Z"/><path class="cls-8" d="M12.94,17s0,0,0,0a0,0,0,0,1,0,0,.67.67,0,0,0,.41-.15h0a0,0,0,0,1,0,0A.88.88,0,0,1,13,17Z"/><path class="cls-8" d="M13.81,17.64l0,0s0,0,0,0a.67.67,0,0,0,.31-.15h0s0,0,0,0a.55.55,0,0,1-.34.16Z"/><path class="cls-8" d="M14.83,17.34h0a0,0,0,0,1,0,0,.84.84,0,0,0,.26-.24h0a.06.06,0,0,1,0,0,1.27,1.27,0,0,1-.28.25Z"/><path class="cls-8" d="M11.43,16.42h0a0,0,0,0,1,0,0,0,0,0,0,1,0,0,.82.82,0,0,0,.39-.07s0,0,0,0a0,0,0,0,1,0,0A.93.93,0,0,1,11.43,16.42Z"/><path class="cls-8" d="M12.73,17.89s0,0,0,0a0,0,0,0,1,0,0,.7.7,0,0,0,.35-.12h0a0,0,0,0,1,0,0A.59.59,0,0,1,12.73,17.89Z"/><path class="cls-8" d="M11,18.43h0s0,0,0,0,0,0,0,0a1,1,0,0,0,.38-.07s0,0,0,0a0,0,0,0,1,0,0A1.32,1.32,0,0,1,11,18.43Z"/><path class="cls-8" d="M11.66,17.22a0,0,0,0,1,0,0s0,0,0,0a.55.55,0,0,0,.33-.11h0s0,0,0,0a.65.65,0,0,1-.37.13Z"/><path class="cls-8" d="M12.07,18.59h0s0,0,0,0a2.4,2.4,0,0,0,.33-.1s0,0,0,0,0,0,0,0a1.42,1.42,0,0,1-.34.1Z"/><path class="cls-8" d="M10.28,16.43a1.55,1.55,0,0,1-.34,0s0,0,0,0l0,0a1.41,1.41,0,0,0,.39,0,0,0,0,0,1,0,0,0,0,0,0,1,0,0Z"/><path class="cls-8" d="M9.12,16.06a.49.49,0,0,1-.33-.14,0,0,0,0,1,0,0h0a.46.46,0,0,0,.3.13,0,0,0,0,1,0,0A0,0,0,0,1,9.12,16Z"/><path class="cls-8" d="M7.37,13.54h0a.55.55,0,0,1,0-.33s0,0,0,0,0,0,0,0a.42.42,0,0,0,0,.29s0,0,0,0Z"/><path class="cls-8" d="M6.31,13.82l0,0a1.14,1.14,0,0,1,0-.44l0,0s0,0,0,0a1.27,1.27,0,0,0,0,.42s0,0,0,0Z"/><path class="cls-8" d="M7,14.76H7a1.07,1.07,0,0,1-.06-.32,0,0,0,0,1,0,0s0,0,0,0a.91.91,0,0,0,.06.3s0,0,0,0Z"/><path class="cls-8" d="M8.07,15.4h0a.42.42,0,0,1-.18-.29s0,0,0,0,0,0,0,0a.41.41,0,0,0,.17.25,0,0,0,0,1,0,0Z"/><path class="cls-8" d="M6.89,16.23h0a.53.53,0,0,1-.13-.31s0,0,0,0l0,0a.51.51,0,0,0,.12.28,0,0,0,0,1,0,0Z"/><path class="cls-8" d="M8.07,16.42h0a.62.62,0,0,1-.26-.28s0,0,0,0h0a.59.59,0,0,0,.25.26,0,0,0,0,1,0,0S8.08,16.42,8.07,16.42Z"/><path class="cls-8" d="M8.07,17.64h0a.41.41,0,0,1-.27-.21s0,0,0,0h0a.46.46,0,0,0,.24.19s0,0,0,0Z"/><path class="cls-8" d="M9.43,17a1,1,0,0,1-.38,0s0,0,0,0,0,0,0,0a1.09,1.09,0,0,0,.36.05h0s0,0,0,0S9.44,17,9.43,17Z"/><path class="cls-8" d="M10.48,17.51a.44.44,0,0,1-.15,0s0,0,0,0a0,0,0,0,1,0,0h0a.61.61,0,0,0,.31,0s0,0,0,0,0,0,0,0A.72.72,0,0,1,10.48,17.51Z"/><path class="cls-8" d="M9.67,18a.72.72,0,0,1-.25-.05,0,0,0,0,1,0,0l0,0a.58.58,0,0,0,.26.05,0,0,0,0,1,0,0s0,0,0,0Z"/><path class="cls-8" d="M8.79,18.59a.55.55,0,0,1-.33-.1s0,0,0,0h0a.56.56,0,0,0,.32.1s0,0,0,0a0,0,0,0,1,0,0Z"/><path class="cls-8" d="M10.1,18.73a.3.3,0,0,1-.17-.05s0,0,0,0h0a.35.35,0,0,0,.32,0h0a0,0,0,0,1,0,0A.3.3,0,0,1,10.1,18.73Z"/><path class="cls-8" d="M16.69,13.23h0a0,0,0,0,1,0,0,.48.48,0,0,0,.15-.25l0,0s0,0,0,0a.46.46,0,0,1-.16.28Z"/><path class="cls-8" d="M17.37,13.39h0a0,0,0,0,1,0,0,.85.85,0,0,0,.13-.28l0,0s0,0,0,0a.79.79,0,0,1-.14.3Z"/><path class="cls-5" d="M9.83,7.53h0a4.29,4.29,0,0,1,.4-1.59c.18-.4.67-.91.83-1.24h0a1.14,1.14,0,0,1,.57-.39c.43-.16,0-.07,0-.07a1.77,1.77,0,0,0-.47.19A5.59,5.59,0,0,0,11,3.54a6.27,6.27,0,0,1,.14-1s-.06-.14-.1,0a5.68,5.68,0,0,0-.15,1,2,2,0,0,1-.06,1c-.16.32-.52.64-.93,1.31h0a1.48,1.48,0,0,0-.14-.7s-.24-.24-.08.17a1.53,1.53,0,0,1,0,.81h0A5.58,5.58,0,0,0,9.42,7a7,7,0,0,0-.24,1C9.56,7.85,9.44,7.83,9.83,7.53Z"/><path class="cls-9" d="M1.88,17.31a5.42,5.42,0,0,1-.23.65.75.75,0,0,0-.11.55c0,.31.16.36.2.58a4,4,0,0,1,.07.5,1.52,1.52,0,0,0,.38-1.07c0-.52-.18-.45-.19-.74A1.15,1.15,0,0,0,1.88,17.31Z"/><path class="cls-10" d="M1.93,18.8s-.05-.27-.06-.41a3.15,3.15,0,0,0,0-.46c0-.06-.16.2-.13.43A.86.86,0,0,0,1.93,18.8Z"/><path class="cls-9" d="M13.11,5.89a4.57,4.57,0,0,1-.53.12.65.65,0,0,0-.42.16c-.19.14-.18.24-.31.35l-.32.24a1.37,1.37,0,0,0,.88-.21c.36-.19.24-.28.43-.41A.89.89,0,0,0,13.11,5.89Z"/><path class="cls-10" d="M12.11,6.51a3.11,3.11,0,0,1,.27-.2c.09-.06.28-.16.31-.19s-.2,0-.35.1A.82.82,0,0,0,12.11,6.51Z"/><path class="cls-9" d="M.69,11.93a7.69,7.69,0,0,1-.21,1.21.72.72,0,0,0-.1.56,7.15,7.15,0,0,0,.17.75c0,.22.1.81.1.81a4.71,4.71,0,0,0,.14-.56,4.29,4.29,0,0,0,.24-1c0-.51-.18-.45-.2-.74S.69,11.93.69,11.93Z"/><path class="cls-10" d="M.7,12.92s0,.44,0,.58a3.41,3.41,0,0,0,.11.73,4.33,4.33,0,0,0,0-.68A1.71,1.71,0,0,0,.7,12.92Z"/><path class="cls-9" d="M.77,7.53a4,4,0,0,1-.14.9,1.15,1.15,0,0,0-.12.69c0,.3.1.35.14.57s.09.47.09.47a2,2,0,0,0,.24-1,5.56,5.56,0,0,0,0-.94A2.27,2.27,0,0,0,.77,7.53Z"/><path class="cls-10" d="M.81,9.53A4.76,4.76,0,0,0,.86,9a2.85,2.85,0,0,0,0-.63,2.18,2.18,0,0,0-.14.82A.76.76,0,0,0,.81,9.53Z"/><path class="cls-9" d="M10.94,7.59a4,4,0,0,1-.82.39,1.1,1.1,0,0,0-.64.3,4.46,4.46,0,0,0-.39.43l-.34.34a2,2,0,0,0,1-.39,5.18,5.18,0,0,0,.75-.57A2.33,2.33,0,0,0,10.94,7.59Z"/><path class="cls-10" d="M9.32,8.75s.38-.2.49-.28a3.32,3.32,0,0,0,.49-.4,2.23,2.23,0,0,0-.76.35A.76.76,0,0,0,9.32,8.75Z"/><path class="cls-9" d="M5.29,10.44a3.79,3.79,0,0,1-.76.5,1.14,1.14,0,0,0-.59.37,3.62,3.62,0,0,0-.32.49l-.3.38a1.91,1.91,0,0,0,.93-.52A5.13,5.13,0,0,0,4.92,11,2.11,2.11,0,0,0,5.29,10.44Z"/><path class="cls-10" d="M3.84,11.81a5.66,5.66,0,0,0,.46-.35A3.26,3.26,0,0,0,4.73,11a2.27,2.27,0,0,0-.7.45A.75.75,0,0,0,3.84,11.81Z"/><path class="cls-9" d="M17.52,4.29a2.09,2.09,0,0,1-.61.17.52.52,0,0,0-.47.12,2.8,2.8,0,0,0-.3.31l-.27.25A1.05,1.05,0,0,0,16.6,5a2.92,2.92,0,0,0,.57-.35A1.63,1.63,0,0,0,17.52,4.29Z"/><path class="cls-10" d="M16.29,5a2.74,2.74,0,0,0,.37-.14A1.84,1.84,0,0,0,17,4.59a1,1,0,0,0-.56.14A.56.56,0,0,0,16.29,5Z"/><path class="cls-11" d="M8.73,3c.33.79,0,.82.25,1.49.35,1,.71.9.82.86h0a5.33,5.33,0,0,0-.24-1.16A4.5,4.5,0,0,0,8.73,3Z"/><path class="cls-12" d="M10.13,4.14A2,2,0,0,0,8.72,3h0a4.5,4.5,0,0,1,.86,1.18,5.33,5.33,0,0,1,.24,1.16C10,5.29,10.4,5,10.13,4.14Z"/><path class="cls-11" d="M11.49,1.48c.25-.49.74-1.26.88-1.47h0a2.31,2.31,0,0,0-1.26.86c-.69,1-.25,1.62,0,1.67h0A4.93,4.93,0,0,1,11.49,1.48Z"/><path class="cls-12" d="M12.16,1.53A3.69,3.69,0,0,0,12.37,0c-.14.21-.63,1-.88,1.47a4.93,4.93,0,0,0-.37,1.06C11.37,2.58,11.89,2.1,12.16,1.53Z"/><path class="cls-11" d="M14,3.27a2.67,2.67,0,0,0-1.54,0c-.73.28-1,.75-.89,1.05h0a10.6,10.6,0,0,0,1.21-.43C13.14,3.72,13.71,3.43,14,3.27Z"/><path class="cls-12" d="M12.93,4.44A1.9,1.9,0,0,0,14,3.27h0c-.33.16-.9.45-1.22.58a10.6,10.6,0,0,1-1.21.43C11.82,4.74,12.33,4.74,12.93,4.44Z"/></g></g></svg>