<svg xmlns="http://www.w3.org/2000/svg" xmlns:xlink="http://www.w3.org/1999/xlink" viewBox="0 0 18.42 19.65"><defs><style>.cls-1{fill:#ed7e2a;}.cls-2{fill:#fbb05f;}.cls-3{fill:#222323;}.cls-4{fill:#d7d9db;}.cls-5,.cls-6{opacity:0.7;}.cls-5{fill:url(#radial-gradient);}.cls-6{fill:url(#radial-gradient-2);}.cls-7{fill:#7d5226;}.cls-8{fill:#dd9f3f;}.cls-9{fill:#4b2e12;}.cls-10{fill:#f2f3f4;}</style><radialGradient id="radial-gradient" cx="2.62" cy="16.52" r="0.63" gradientTransform="translate(7.67 -10.47) scale(1.3 1.17)" gradientUnits="userSpaceOnUse"><stop offset="0" stop-color="#f16758"/><stop offset="1" stop-color="#fbb05f"/></radialGradient><radialGradient id="radial-gradient-2" cx="5.23" cy="16.52" r="0.63" xlink:href="#radial-gradient"/></defs><g id="Layer_2" data-name="Layer 2"><g id="Layer_2-2" data-name="Layer 2"><path class="cls-1" d="M13.8,18a4.75,4.75,0,0,1,1.08.17c.26.1,1.17.77,1.45.19s-1.06-.65-1.06-.65l-1-.18Z"/><path class="cls-1" d="M9.79,18.45a7.32,7.32,0,0,1-5.86.43C.89,17.68-.57,12,.2,7.76s2-8,5.1-7.75S7.65,5.57,7.22,8.1s-2.57,6-1.54,8.3,3.89,1.71,3.89,1.71Z"/><path class="cls-2" d="M14.8,16.1a15,15,0,0,0-1-4.88c-.43-1.11-.26-1.41-.26-1.41h-1l0,.13h.39a9.28,9.28,0,0,1-.9,3.81s1.39-.6,1.67,1.26a3.54,3.54,0,0,1-1.07,3.66h.1A2.34,2.34,0,0,0,14.8,16.1Z"/><path class="cls-1" d="M13.6,18.73l-.89-.06h-.1A3.54,3.54,0,0,0,13.68,15C13.4,13.15,12,13.75,12,13.75a9.28,9.28,0,0,0,.9-3.81H12s.13.64-.68,1.41S7.72,15,9.23,18.15c.56,1.17,2.57,1,2.57,1s1.24.15,1.39.18,1.24.72,1.56,0S13.6,18.73,13.6,18.73Z"/><path class="cls-3" d="M9.59,17s0,0,0,0a2.84,2.84,0,0,1,0-.78,0,0,0,1,1,.09,0,2.7,2.7,0,0,0,0,.76.07.07,0,0,1,0,.05Z"/><path class="cls-3" d="M4.86,9.64h0s0,0,0-.05a2.72,2.72,0,0,0,.11-.75s0,0,.05,0a0,0,0,0,1,0,0,2.4,2.4,0,0,1-.12.78Z"/><path class="cls-3" d="M6.43,6.7h0a0,0,0,0,1,0-.06A2.51,2.51,0,0,0,6.5,5.9a0,0,0,0,1,0-.05h0s0,0,0,.05a2.86,2.86,0,0,1-.11.77A.05.05,0,0,1,6.43,6.7Z"/><path class="cls-3" d="M5.93,2.68h0a.05.05,0,0,1,0-.05,2.75,2.75,0,0,0,0-.76,0,0,0,0,1,.09,0,2.29,2.29,0,0,1,0,.78A0,0,0,0,1,5.93,2.68Z"/><path class="cls-3" d="M4.52,5.94a0,0,0,0,1,0,0,2.78,2.78,0,0,1,.06-.78s0,0,0,0a0,0,0,0,1,0,0,2.71,2.71,0,0,0,0,.75,0,0,0,0,1,0,.05Z"/><path class="cls-3" d="M10.32,15.43a0,0,0,0,1,0,0,1.91,1.91,0,0,1,.15-.76,0,0,0,0,1,.06,0,0,0,0,0,1,0,.05,1.63,1.63,0,0,0-.14.72.07.07,0,0,1,0,0Z"/><path class="cls-3" d="M.45,10.73s0,0,0,0a1.57,1.57,0,0,1,0-.77,0,0,0,0,1,0,0,0,0,0,0,1,0,0,1.69,1.69,0,0,0,0,.73s0,0,0,.05Z"/><path class="cls-3" d="M3.82,13.89a.05.05,0,0,1,0,0,1.87,1.87,0,0,1-.08-.77.05.05,0,0,1,0,0s0,0,0,0a1.8,1.8,0,0,0,.07.73,0,0,0,0,1,0,.05Z"/><path class="cls-3" d="M1.22,7.27a0,0,0,0,1,0,0,1.63,1.63,0,0,1,.15-.76,0,0,0,0,1,.06,0,0,0,0,0,1,0,.06,1.53,1.53,0,0,0-.15.71s0,0,0,0Z"/><path class="cls-3" d="M2.72,10.36s0,0,0,0a1.61,1.61,0,0,1,0-.78s0,0,.05,0a.05.05,0,0,1,0,.05,1.7,1.7,0,0,0,0,.73s0,0,0,.06Z"/><path class="cls-3" d="M3.22,3.76a0,0,0,0,1,0,0A1.83,1.83,0,0,1,3.35,3a0,0,0,1,1,.08,0,1.48,1.48,0,0,0-.16.71,0,0,0,0,1,0,0Z"/><path class="cls-3" d="M10,14.12h0a0,0,0,0,1,0,0,1.79,1.79,0,0,1,.25-.63.06.06,0,0,1,.06,0s0,0,0,.06a1.92,1.92,0,0,0-.24.6S10,14.12,10,14.12Z"/><path class="cls-3" d="M1.67,14.3s0,0,0,0a1.74,1.74,0,0,1-.18-.65,0,0,0,0,1,.08,0,1.89,1.89,0,0,0,.18.61,0,0,0,0,1,0,.06Z"/><path class="cls-3" d="M5.88,17.78h0a0,0,0,0,1,0-.06,2.15,2.15,0,0,1,.36-.52,0,0,0,0,1,.06,0s0,0,0,.06a2,2,0,0,0-.34.5A0,0,0,0,1,5.88,17.78Z"/><path class="cls-3" d="M5,16l0,0a3.08,3.08,0,0,1-.2-.61.07.07,0,0,1,0,0,.05.05,0,0,1,0,0,2.09,2.09,0,0,0,.19.58A0,0,0,0,1,5,16Z"/><path class="cls-3" d="M12.19,11.48h0a0,0,0,0,1,0-.06,3.58,3.58,0,0,0,.17-.55,0,0,0,0,1,0,0,0,0,0,0,1,0,.05,3.56,3.56,0,0,1-.17.56A.05.05,0,0,1,12.19,11.48Z"/><path class="cls-3" d="M5.74,12h0a0,0,0,0,1,0-.06,2.66,2.66,0,0,0,.17-.55s0,0,0,0a0,0,0,0,1,0,0,2.67,2.67,0,0,1-.17.56S5.76,12,5.74,12Z"/><path class="cls-3" d="M11.2,13.51a0,0,0,0,1,0,0,1.27,1.27,0,0,1,.28-.6s0,0,.06,0a0,0,0,0,1,0,.06,1.2,1.2,0,0,0-.26.55A0,0,0,0,1,11.2,13.51Z"/><path class="cls-1" d="M15.71,7.75A2.93,2.93,0,0,0,12.65,5,2.93,2.93,0,0,0,9.59,7.75a2.93,2.93,0,0,0,3.06,2.79A2.93,2.93,0,0,0,15.71,7.75Z"/><path class="cls-3" d="M11.73,7.28a.22.22,0,1,0-.22.22A.22.22,0,0,0,11.73,7.28Z"/><path class="cls-3" d="M14.25,7.28A.21.21,0,0,0,14,7.07a.22.22,0,1,0,0,.43A.21.21,0,0,0,14.25,7.28Z"/><path class="cls-1" d="M14.21,5.65A2.77,2.77,0,0,1,15.43,2.8l.18-.08A3.38,3.38,0,0,1,14.21,5.65Z"/><path class="cls-2" d="M12.79,8.07a10.56,10.56,0,0,1,1.73-.32c.66,0,1.32.48.74,1.37a3,3,0,0,1-2.47,1.38,3.22,3.22,0,0,1-2.62-1.16,1,1,0,0,1,.94-1.59A12.13,12.13,0,0,0,12.79,8.07Z"/><path class="cls-4" d="M13,9.2c.15.13.18.1.18.12a2.18,2.18,0,0,1,0,.42.58.58,0,0,1-.32,0s0-.73,0-.73A.65.65,0,0,0,13,9.2Z"/><path class="cls-4" d="M12.78,9V9s0,.72,0,.74a.61.61,0,0,1-.33,0,2.57,2.57,0,0,1,0-.36.84.84,0,0,0,.2-.14A.49.49,0,0,0,12.78,9Z"/><path class="cls-3" d="M13.84,9.18a0,0,0,0,0,0,0,.71.71,0,0,1-.58.15A.74.74,0,0,1,12.82,9V8.31c.2,0,.36-.13.36-.28s-.17-.2-.38-.2-.39,0-.39.2.16.27.37.28V9a.62.62,0,0,1-1,.33h0s0,0,0,0a.9.9,0,0,0,.42.12.66.66,0,0,0,.21,0A.71.71,0,0,0,12.8,9a.73.73,0,0,0,.42.35l.14,0a.9.9,0,0,0,.48-.17A0,0,0,0,0,13.84,9.18Z"/><path class="cls-3" d="M16,2.54s0,0-.06,0l-.23.15.15-.23a0,0,0,0,0,0-.06,0,0,0,0,0-.06,0l-.15.23.06-.27a.05.05,0,0,0,0,0s-.05,0-.05,0a3.48,3.48,0,0,1-.1.41l0,0a.12.12,0,0,1,.1,0s0,0,0,.07l0,0L16,2.6S16,2.56,16,2.54Z"/><path class="cls-1" d="M11.46,5.59a2.77,2.77,0,0,1-.84-3,1.42,1.42,0,0,1,.08-.18A3.38,3.38,0,0,1,11.46,5.59Z"/><path class="cls-3" d="M10.86,2.05s0,0,0,0l-.08.27,0-.27a.05.05,0,0,0,0,0s0,0,0,0l0,.27-.13-.24a0,0,0,0,0-.06,0,0,0,0,0,0,0,.06s.2.34.2.36a.2.2,0,0,1,0,.05.14.14,0,0,1,.08-.06.08.08,0,0,1,.09,0,.12.12,0,0,1,0,0s.11-.38.11-.38A0,0,0,0,0,10.86,2.05Z"/><path class="cls-5" d="M11.91,8.8a.78.78,0,0,0-.82-.73.73.73,0,1,0,0,1.46A.78.78,0,0,0,11.91,8.8Z"/><path class="cls-6" d="M15.3,8.8a.78.78,0,0,0-.82-.73.73.73,0,1,0,0,1.46A.78.78,0,0,0,15.3,8.8Z"/><path class="cls-7" d="M14.73,11.15a3.76,3.76,0,0,1,2-.07,3.34,3.34,0,0,1,1.27,1,.33.33,0,0,0,.31-.09,1.78,1.78,0,0,0-.25-1.3A1.83,1.83,0,0,0,17,9.73a2.31,2.31,0,0,0-1.8.43,2,2,0,0,0-.52.55A.35.35,0,0,0,14.73,11.15Z"/><path class="cls-8" d="M15.32,15a.74.74,0,0,1,.14-.21h0a.38.38,0,0,1,.2-.1,3,3,0,0,0,2.42-2.59h0l-.17-.2h0l0,0h0l-.2-.2h0l0,0h0l-.19-.15h0a1.88,1.88,0,0,0-.23-.16h0L17,11.2h0l-.26-.11h-.05a2.1,2.1,0,0,0-.24-.06h0a1.9,1.9,0,0,0-.25,0h-.39l-.3,0h0c-.1,0-.21,0-.31.06h0l-.32.08h0c-.9,2,0,2.93.35,3.33l.09.09a.85.85,0,0,1,.11.35V15Z"/><path class="cls-9" d="M15.29,15Z"/><path class="cls-9" d="M15.28,15h0Z"/><path class="cls-9" d="M15.29,14.94h0v0h0Z"/><polygon class="cls-9" points="15.3 15 15.3 14.99 15.29 15 15.3 15"/><path class="cls-9" d="M15.3,15h0Z"/><polygon class="cls-9" points="15.29 14.99 15.29 14.88 15.29 14.87 15.29 14.85 15.33 14.86 15.32 14.88 15.29 14.99"/><path class="cls-9" d="M15.29,14.93v0h0l0-.07v.11h0Z"/><polygon class="cls-9" points="15.33 14.9 15.29 14.9 15.31 14.9 15.29 14.9 15.29 14.89 15.29 14.88 15.29 14.88 15.29 14.86 15.33 14.87 15.33 14.9"/><path class="cls-9" d="M15.27,14.94h0l.06-.17V15l0,.06Z"/><path class="cls-9" d="M15.27,14.94h0l0,0,.05-.09v.14Z"/><path class="cls-9" d="M15.33,14.89h0l0-.09v.1Z"/><polygon class="cls-9" points="15.3 15 15.29 14.88 15.29 14.87 15.32 14.76 15.33 14.88 15.32 14.88 15.3 15"/><polygon class="cls-9" points="15.32 14.9 15.29 14.9 15.29 14.89 15.3 14.89 15.33 14.89 15.32 14.9"/><polygon class="cls-9" points="15.29 15 15.29 14.87 15.29 14.87 15.29 14.86 15.32 14.86 15.33 14.88 15.29 15"/><polygon class="cls-9" points="15.32 14.99 15.28 14.98 15.28 14.98 15.28 14.98 15.28 14.98 15.28 14.98 15.28 14.97 15.29 14.98 15.32 14.98 15.31 14.98 15.32 14.98 15.3 14.98 15.32 14.98 15.32 14.99"/><polygon class="cls-9" points="15.32 14.95 15.29 14.95 15.29 14.95 15.29 14.95 15.29 14.95 15.3 14.95 15.29 14.95 15.3 14.95 15.3 14.95 15.3 14.95 15.29 14.95 15.3 14.95 15.29 14.95 15.32 14.95 15.31 14.95 15.32 14.95 15.32 14.95 15.32 14.95"/><path class="cls-9" d="M15.29,14.93v0l0-.07,0,0Z"/><path class="cls-9" d="M15.3,15h0v0h0l0-.08v.09h0Z"/><polygon class="cls-9" points="15.29 14.98 15.29 14.9 15.29 14.89 15.33 14.77 15.32 14.91 15.29 14.98"/><path class="cls-9" d="M15.27,14.94h0l0-.06,0-.1v.11h0Z"/><path class="cls-9" d="M15.27,14.94a.76.76,0,0,0-.11-.34l-.09-.1c-.37-.4-1.25-1.33-.35-3.32h0a2.23,2.23,0,0,1,.33-.09h0v0A6.59,6.59,0,0,0,14.62,13a2.84,2.84,0,0,0,.46,1.34l.09.15a.84.84,0,0,1,.16.38v.08Zm-.52-3.74c-.88,2,0,2.88.35,3.27a.36.36,0,0,0,.08.09l0-.06-.09-.15A2.81,2.81,0,0,1,14.58,13,6.24,6.24,0,0,1,15,11.12Z"/><path class="cls-9" d="M15.29,15v-.12a1.54,1.54,0,0,0-.14-.54,2.46,2.46,0,0,1-.28-1.24A11.49,11.49,0,0,1,15.39,11h0l.34,0h0v0a12,12,0,0,0-.64,2.15,4.45,4.45,0,0,0,.15,1.15,1.38,1.38,0,0,1,.05.26,1.5,1.5,0,0,1,0,.3v0Zm.13-3.93a10.5,10.5,0,0,0-.51,2,2.53,2.53,0,0,0,.27,1.22,1.38,1.38,0,0,1,.12.36v-.11c0-.05,0-.13-.05-.25a4.45,4.45,0,0,1-.16-1.16A11.22,11.22,0,0,1,15.73,11Z"/><path class="cls-9" d="M15.29,14.86a.79.79,0,0,0-.15-.36l-.09-.15A2.81,2.81,0,0,1,14.58,13a6.43,6.43,0,0,1,.47-1.9h0l.35-.07h0v0a10.7,10.7,0,0,0-.52,2.06,2.53,2.53,0,0,0,.27,1.22,1.63,1.63,0,0,1,.15.55Zm-.21-3.75A6.6,6.6,0,0,0,14.62,13a2.84,2.84,0,0,0,.46,1.34l.09.15.09.15a2.33,2.33,0,0,0-.11-.31,2.46,2.46,0,0,1-.28-1.24,11.17,11.17,0,0,1,.51-2Z"/><path class="cls-9" d="M15.33,14.86h0a1.55,1.55,0,0,0,0-.3c0-.05,0-.13-.05-.25a4.45,4.45,0,0,1-.16-1.16A11.11,11.11,0,0,1,15.74,11h.39v0a12.89,12.89,0,0,0-.73,2.25,5.61,5.61,0,0,0,0,1c0,.12,0,.21,0,.28A1.72,1.72,0,0,1,15.33,14.86ZM15.77,11a11.29,11.29,0,0,0-.64,2.14,4.45,4.45,0,0,0,.15,1.15,1.38,1.38,0,0,1,.05.26.49.49,0,0,1,0,.12,1.15,1.15,0,0,0,0-.14c0-.07,0-.16,0-.28a6.73,6.73,0,0,1,0-1A13.65,13.65,0,0,1,16.08,11Z"/><path class="cls-9" d="M15.46,14.8l0,0,.06-.07a1.15,1.15,0,0,1,.32-.14l.2-.07a2,2,0,0,0,.92-.7,7,7,0,0,0,.93-1.9v0l0,0,.18.21h0a3,3,0,0,1-2.42,2.58A.47.47,0,0,0,15.46,14.8Zm2.43-2.86A6.84,6.84,0,0,1,17,13.82a2.06,2.06,0,0,1-.93.71l-.2.07-.2.07h0a2.93,2.93,0,0,0,2.39-2.55S18,12,17.89,11.94Z"/><path class="cls-9" d="M15.28,15v0h0l0-.05a.78.78,0,0,1,.19-.21l0,0-.06.07a1.19,1.19,0,0,0-.16.21Z"/><path class="cls-9" d="M15.33,14.87h0a1.11,1.11,0,0,0,.07-.31c0-.07,0-.16,0-.28a6.73,6.73,0,0,1,0-1A14.36,14.36,0,0,1,16.09,11h0l.28,0h0v0a19.65,19.65,0,0,0-.82,2.67A7.48,7.48,0,0,1,15.33,14.87ZM16.12,11a12.76,12.76,0,0,0-.73,2.24,5.61,5.61,0,0,0,0,1c0,.09,0,.17,0,.23a5.62,5.62,0,0,0,.15-.8A20.32,20.32,0,0,1,16.36,11Z"/><path class="cls-9" d="M15.52,14.74l0,0a1.47,1.47,0,0,1,.39-.26l.21-.12A2.77,2.77,0,0,0,17,13.25l.06-.12a14.67,14.67,0,0,0,.55-1.46v0l0,0,.23.23h0A6.92,6.92,0,0,1,17,13.82a2.06,2.06,0,0,1-.93.71l-.2.07A1.15,1.15,0,0,0,15.52,14.74Zm2.14-3a15.09,15.09,0,0,1-.53,1.44l-.06.11a3,3,0,0,1-.95,1.1l-.21.12-.25.14.16,0,.2-.07a2,2,0,0,0,.92-.7,7.06,7.06,0,0,0,.93-1.89Z"/><polygon class="cls-9" points="15.32 14.98 15.31 14.98 15.28 14.98 15.3 14.98 15.28 14.98 15.28 14.97 15.28 14.97 15.29 14.96 15.33 14.91 15.32 14.97 15.32 14.97 15.32 14.97 15.32 14.98 15.32 14.98 15.32 14.98 15.31 14.98 15.32 14.98"/><path class="cls-9" d="M15.29,15V14.9h0v0a5.65,5.65,0,0,0,.26-1.17A19.38,19.38,0,0,1,16.37,11h0a2,2,0,0,1,.26.06h.05c-.31,1.05-1,3-1.34,3.75l0,.07ZM16.4,11a19.27,19.27,0,0,0-.81,2.65,6.3,6.3,0,0,1-.2,1c.32-.85,1-2.59,1.27-3.57h0Z"/><path class="cls-9" d="M15.36,14.84l0,0c.3-.77,1-2.7,1.33-3.74h0l.29.12h0c-.13.36-.78,2.14-1,2.59-.14.28-.3.53-.42.73S15.41,14.76,15.36,14.84Zm1.33-3.73c-.28,1-.92,2.67-1.25,3.53l.08-.12c.12-.21.28-.46.42-.73.23-.45.87-2.19,1-2.57Z"/><path class="cls-9" d="M15.28,15h0a1.83,1.83,0,0,1,.42-.57,4.17,4.17,0,0,0,.8-1.22A.87.87,0,0,1,16.6,13c.11-.22.46-1.34.56-1.68v0h0a2.48,2.48,0,0,1,.26.19h0v0c-.13.38-.46,1.3-.63,1.65a4.33,4.33,0,0,1-1,1.3l-.08.06a1.23,1.23,0,0,0-.41.41s0,0,0,.05Zm1.91-3.62c-.11.36-.45,1.44-.56,1.65l-.09.18a4,4,0,0,1-.8,1.22l-.23.25a1.53,1.53,0,0,1,.22-.16l.08-.06a4.26,4.26,0,0,0,1-1.29c.16-.34.48-1.25.62-1.63Z"/><path class="cls-9" d="M15.34,14.94l0,0a1.08,1.08,0,0,1,.42-.43l.08-.06a4.26,4.26,0,0,0,1-1.29c.16-.35.49-1.27.63-1.65v0l0,0a1.84,1.84,0,0,1,.22.17h0a14.14,14.14,0,0,1-.54,1.47l-.06.11a3,3,0,0,1-.95,1.1l-.21.12a1.66,1.66,0,0,0-.38.25A.78.78,0,0,0,15.34,14.94Zm2.11-3.41c-.14.39-.46,1.28-.62,1.63a4.33,4.33,0,0,1-1,1.3l-.08.06-.1.07a2.1,2.1,0,0,1,.24-.14l.21-.12A2.77,2.77,0,0,0,17,13.25l.06-.12a12.88,12.88,0,0,0,.54-1.45Z"/><path class="cls-9" d="M15.29,15h0l0-.1c.05-.08.11-.19.19-.3s.28-.46.42-.73c.24-.46.89-2.24,1-2.59v0h0l.21.11h0c-.1.34-.45,1.47-.56,1.68l-.09.18a4,4,0,0,1-.8,1.22,2.06,2.06,0,0,0-.42.56ZM17,11.23c-.14.4-.77,2.13-1,2.57-.14.28-.3.53-.42.73l-.06.1a2.62,2.62,0,0,1,.22-.25,4.17,4.17,0,0,0,.8-1.22A.87.87,0,0,1,16.6,13c.11-.21.45-1.31.56-1.66Z"/><path class="cls-7" d="M18,9.14a.74.74,0,0,0,0,.31s-.42-.22-.93.41C17.1,9.86,17,9.18,18,9.14Z"/><path class="cls-9" d="M18.41,11.64h0v0h0v0h0l0-.16h0v0h0s0-.11,0-.16h0v0h0a1.56,1.56,0,0,0,0-.16h0v0h0v0h0v0a.69.69,0,0,1-.07-.13h0v0h0l-.09-.16h0l0,0h0L18,10.41h0l0,0h0l-.12-.14h0l0,0h0a1.74,1.74,0,0,0-.24-.22l-.19-.12h0l-.07,0h0l-.05,0h0l-.1,0h0l-.18,0h-.53l-.22,0h0a2.69,2.69,0,0,0-.6.21h0l-.06,0h0l-.16.1h0l-.09.07a.57.57,0,0,0-.09.08h0l-.09.08h0l0,0h0a1.77,1.77,0,0,0-.14.17h0v0h0l0,0h0l0,0a.56.56,0,0,0,0,.12v.09h0v0a.33.33,0,0,0,0,.15v0h0a.11.11,0,0,0,0,.05h0l.1,0c.3-.07.53-.12.76-.15h.19a.2.2,0,0,0,.11,0A.36.36,0,0,0,16,11h0l.24,0,.25,0h.09l.21.07a2.37,2.37,0,0,1,.41.22l.2.15h0a3,3,0,0,1,.28.24h0l.11.12,0,0,.2.21h0l.18,0,.06,0,0,0v0h0a.29.29,0,0,0,0-.1v0h0A.54.54,0,0,0,18.41,11.64Zm0-.05h-.13l0,0h0l0,0h0a.31.31,0,0,1,0-.1h0a.43.43,0,0,0,.15,0,.09.09,0,0,1,0,.05h0v0h0v0h0v0Zm-1.3-.6a.14.14,0,0,1,0-.1h.14l.06,0a.94.94,0,0,0,0,.09v0h0l0,0,0,0h-.09A.21.21,0,0,1,17.07,11Zm.09.09Zm1,.1-.05,0h0a.21.21,0,0,1-.15,0,.45.45,0,0,1-.05-.1h.05a.38.38,0,0,0,.15,0,.35.35,0,0,0,.08.15Zm0,.05a.26.26,0,0,0,.09.16h-.19a.22.22,0,0,1-.08-.14h0l.12,0Zm-.49,0h-.09a.18.18,0,0,1-.15-.06.24.24,0,0,1-.05-.1h.05l.11,0h.05a.33.33,0,0,0,.09.17Zm-2-.86h.05a.43.43,0,0,0,.15,0v0a0,0,0,0,0,0,0,.27.27,0,0,0,.07.12h-.09a.18.18,0,0,1-.15-.06A.12.12,0,0,1,15.69,10.38Zm0,.17,0,0h0a.21.21,0,0,1-.16-.06.14.14,0,0,1,0-.1h.05l.15,0A.34.34,0,0,0,15.72,10.55Zm.86-.31h-.09a.21.21,0,0,1-.16-.06.18.18,0,0,1,0-.09h.21A.3.3,0,0,0,16.58,10.24Zm0-.15h.06a.37.37,0,0,0,.14,0,.33.33,0,0,0,.09.17h-.09a.21.21,0,0,1-.2-.14Zm-.21.19h-.09a.21.21,0,0,1-.16-.06.14.14,0,0,1,0-.1h.2A.33.33,0,0,0,16.34,10.28Zm-.26,0h-.16a.12.12,0,0,1-.08,0,.15.15,0,0,1-.05-.1h.05l.11,0H16A.22.22,0,0,0,16.08,10.3Zm-.1.16,0-.05h0s0,0,0,0H16a.37.37,0,0,0,.14,0,.26.26,0,0,0,.09.17h-.09A.21.21,0,0,1,16,10.46Zm.24,0a.16.16,0,0,1,0-.1h.05a.43.43,0,0,0,.15,0,.33.33,0,0,0,.08.17h-.14Zm.24,0a.16.16,0,0,1,0-.1h0a.43.43,0,0,0,.15,0,.24.24,0,0,0,0,.09h0l.06.08h-.1A.18.18,0,0,1,16.46,10.4Zm.2-.12h.05a.43.43,0,0,0,.15,0,.29.29,0,0,0,.09.17h-.09a.21.21,0,0,1-.15,0A.15.15,0,0,1,16.66,10.28Zm.27,0H17l.12,0a.23.23,0,0,0,.07.17h-.16l-.08,0A.21.21,0,0,1,16.93,10.27Zm-.06.24a.42.42,0,0,0,.14,0,.36.36,0,0,0,.06.13h0l0,0-.07,0h0a.21.21,0,0,1-.16-.06.14.14,0,0,1,0-.1Zm.19,0h.2a.3.3,0,0,0,.07.15l0,0h0a.2.2,0,0,1-.14-.05A.23.23,0,0,1,17.06,10.48Zm.25,0h.05a.42.42,0,0,0,.13,0h0a.34.34,0,0,0,.09.16h-.1l-.12,0h0l0,0A.14.14,0,0,1,17.31,10.47Zm-.15.21h.2a.26.26,0,0,0,.08.16h-.19a.1.1,0,0,1-.05,0,.31.31,0,0,1-.05-.1Zm.26,0h.2a.34.34,0,0,0,.08.16h-.09a.25.25,0,0,1-.15-.05A.16.16,0,0,1,17.42,10.67Zm.15.2.1,0h0a.26.26,0,0,0,.09.16h-.09a.23.23,0,0,1-.16,0v0a.46.46,0,0,1,0-.09Zm.11.3a.19.19,0,0,1,0-.1h0a.31.31,0,0,0,.15,0h0a.33.33,0,0,0,.09.17h-.1A.25.25,0,0,1,17.68,11.17Zm.14-.23a.14.14,0,0,1,0-.1H18a.26.26,0,0,0,0,.1l.06.06A.25.25,0,0,1,17.82,10.94Zm.12-.15h-.07a.2.2,0,0,1-.15,0,.14.14,0,0,1,0-.1h0l.13,0h0a.19.19,0,0,0,.05.12l0,0Zm-.1-.2a.25.25,0,0,1-.23-.05.24.24,0,0,1-.05-.1h.05a.49.49,0,0,0,.14,0h0a.22.22,0,0,0,.08.16Zm-.21-.19a.17.17,0,0,1-.13-.05.12.12,0,0,1,0-.09h0a.42.42,0,0,0,.14,0,.21.21,0,0,0,.08.15Zm-.15,0h-.09a.2.2,0,0,1-.11,0h0l-.05,0a.16.16,0,0,1,0-.1h.2A.33.33,0,0,0,17.48,10.42Zm-.15-.19h0a.21.21,0,0,1-.16-.06.14.14,0,0,1,0-.1h.05a.42.42,0,0,0,.14,0,.34.34,0,0,0,0,.11l0,.05Zm-.22,0H17a.21.21,0,0,1-.16-.06.14.14,0,0,1,0-.1h.05l.11,0h0A.33.33,0,0,0,17.11,10.22ZM17,10h-.13l-.05,0h0a.14.14,0,0,1,0-.1h.05l.13,0h0A.33.33,0,0,0,17,10Zm-.25,0h-.06a.21.21,0,0,1-.15,0,.14.14,0,0,1,0-.1h.05l.12,0h0a.33.33,0,0,0,.05.12Zm-.23,0-.14,0L16.27,10a.16.16,0,0,1,0-.1h.05a.31.31,0,0,0,.15,0A.26.26,0,0,0,16.49,10Zm-.25,0h-.09A.2.2,0,0,1,16,10a.34.34,0,0,1,0-.1H16a.31.31,0,0,0,.15,0A.27.27,0,0,0,16.24,10.07ZM16,9.9h0Zm0,.16h0l0,0h0l-.06,0h0a.21.21,0,0,1-.15,0h0a.17.17,0,0,1,0-.1h0a.43.43,0,0,0,.15,0A.21.21,0,0,0,16,10.06Zm-.14.27h-.16a.2.2,0,0,1-.08,0,.34.34,0,0,1-.05-.11h.06l.13,0h0A.26.26,0,0,0,15.83,10.33Zm-.26,0h-.06a.21.21,0,0,1-.17-.06.25.25,0,0,1-.05-.11h.09l.12,0A.3.3,0,0,0,15.57,10.36Zm-.17.06v0h0Zm0,0a.21.21,0,0,0,.07.15h-.08a.17.17,0,0,1-.12-.05.14.14,0,0,1,0-.09h0Zm-.16.18h-.08a.18.18,0,0,1-.15-.06.14.14,0,0,1,0-.09H15l.14,0A.27.27,0,0,0,15.21,10.59Zm-.2.06a.26.26,0,0,0,.09.16h-.16a.13.13,0,0,1-.09,0,.19.19,0,0,1,0-.1h0l.12,0Zm.05,0h0a.28.28,0,0,0,.15,0h0a.33.33,0,0,0,.09.18h-.17a.1.1,0,0,1-.07,0A.14.14,0,0,1,15.06,10.64Zm.29.08a.14.14,0,0,1,0-.1h0a.42.42,0,0,0,.14,0l0,.09h0l.05.07H15.5A.21.21,0,0,1,15.35,10.72Zm.19-.11h.21a.33.33,0,0,0,.08.17h-.09l-.09,0h0s-.05,0-.06,0A.31.31,0,0,1,15.54,10.61Zm.25,0h.05l.13,0h0a.26.26,0,0,0,.09.17h-.16a.2.2,0,0,1-.08,0A.15.15,0,0,1,15.79,10.58Zm.26,0h0a.5.5,0,0,0,.16,0c0,.09.05.14.09.16l-.11,0h-.05a.15.15,0,0,1-.09,0A.19.19,0,0,1,16.05,10.57Zm.26-.05h.07l.13,0a.26.26,0,0,0,.09.16h-.1a.23.23,0,0,1-.15,0A.19.19,0,0,1,16.31,10.52Zm.24,0h.06a.37.37,0,0,0,.14,0,.33.33,0,0,0,.09.17h-.09a.18.18,0,0,1-.15-.06A.16.16,0,0,1,16.55,10.51Zm.16.22a.43.43,0,0,0,.15,0,.33.33,0,0,0,.09.17h-.09a.2.2,0,0,1-.14-.05.27.27,0,0,1-.06-.11Zm.2,0h.2a.26.26,0,0,0,.09.15h-.09a.21.21,0,0,1-.16,0A.16.16,0,0,1,16.91,10.7Zm.4.27h0a.31.31,0,0,1,0-.08h0a.43.43,0,0,0,.15,0,.16.16,0,0,0,0,.1.1.1,0,0,0,.05.06l0,0h-.05a.18.18,0,0,1-.15-.06Zm.23.33a.42.42,0,0,0,.14,0h0a.64.64,0,0,0,0,.07v0a.28.28,0,0,0,.06.08h-.1a.2.2,0,0,1-.14,0,.23.23,0,0,1-.05-.1Zm.25.08a.45.45,0,0,1-.05-.1h.05l.13,0a.24.24,0,0,0,0,.12l.07,0h-.1A.21.21,0,0,1,17.79,11.38Zm.11.1a.43.43,0,0,0,.15,0h0a.27.27,0,0,0,.08.16l-.09,0h0a.23.23,0,0,1-.15-.05.16.16,0,0,1,0-.1Zm.1.19h.06l.1,0a.26.26,0,0,0,.09.16H18v0h0v0h0Zm.36-.17h0v-.05a.06.06,0,0,1,0,0h0S18.36,11.47,18.36,11.5Zm0-.14h-.09l0,0h0v0h0v0h.11Zm-.05-.2H18.2l0,0a.19.19,0,0,1,0-.1h.12C18.26,11.05,18.28,11.1,18.29,11.16Zm-.14-.35a.59.59,0,0,1,.07.14h-.13l0,0h0l0,0a.15.15,0,0,1,0-.08h.13Zm0,0H18l0,0h0a.46.46,0,0,1,0-.09H18A1.4,1.4,0,0,1,18.14,10.77Zm-.23-.35h0a1,1,0,0,1,.11.15h-.13l0,0a.05.05,0,0,1,0,0,.14.14,0,0,1,0-.06h.1Zm0,0h-.16v0h0v0h.06Zm-.16-.19H17.6v0h0v0h0ZM17.52,10h0s0,0,0,.05h0s0,0,0,0h0s0,0,0,0h0l0,0h-.08a.29.29,0,0,1-.17,0h0a.24.24,0,0,1,0-.1h0a.42.42,0,0,0,.14,0Zm-.27-.18a1.2,1.2,0,0,1,.24.15h-.2l0,0a.28.28,0,0,1,0-.11Zm-.08,0v0h0v0h0v0h0l0,0h0s0,0,0,0h-.1A.23.23,0,0,1,17,10a.19.19,0,0,1,0-.11H17a.42.42,0,0,0,.14,0ZM17,9.77l.07,0h-.18l0,0h0Zm-.19,0h0v0h0v0h-.2v0h0v0h0v0h0Zm-.27,0v0h0v0h0Zm-.25,0v0h0v0h0l0,0h0l0,0h-.2l0,0h0a0,0,0,0,1,0,0h0Zm-.23,0h0a.28.28,0,0,0,.06.08h-.24Zm-.22.06,0,0h0l0,0h0a.62.62,0,0,1-.16,0h0v0l0,0-.07,0Zm-.35.15h.15a.38.38,0,0,0,.05.12l0,0h-.21l0,0h0v0h0Zm-.1,0v0h0v0h0v0h-.18Zm-.17.12h0Zm-.11.07h.08a.33.33,0,0,0,.09.17h-.2l0,0h0l0,0h0Zm-.2.18.07-.08,0,0h.07a.35.35,0,0,1-.12,0h0Zm-.06.06h0a.43.43,0,0,0,0,0h0l0,0h0l0,0h0l0,0h-.06s0,0,0,0a0,0,0,0,1,0,0h-.08Zm-.17.22h0a.33.33,0,0,0,.09.18h-.18A.64.64,0,0,1,14.72,10.68Zm0,.41a.34.34,0,0,1,0-.16h0a.2.2,0,0,0,.06.11.18.18,0,0,0,.07.05h-.11Zm.13,0-.1,0h.07l.06,0H15Zm.09-.06h-.14v-.1h0a.43.43,0,0,0,.15,0A.33.33,0,0,0,15,11Zm.24,0A.21.21,0,0,1,15,11a.34.34,0,0,1-.05-.11H15a.49.49,0,0,0,.15,0,.24.24,0,0,0,.08.17Zm.24,0a.16.16,0,0,1-.14-.05.14.14,0,0,1,0-.09h0l.14,0a.34.34,0,0,0,.08.16Zm.29,0h-.19v0h0v0h0v0h0v0h.05a.21.21,0,0,0,.13,0s0,0,0,0v0h0v0h0v0h0Zm.27,0h-.26v0h.05l.15,0h0a.31.31,0,0,0,0,.08h0v0h0v0h0Zm.18,0a.18.18,0,0,1-.15-.06s0,0,0,0v0h0v0H16a.24.24,0,0,0,.14,0,.33.33,0,0,0,.09.18Zm.09-.1a.14.14,0,0,1,0-.1h.06l.14,0h0a.41.41,0,0,0,0,.08.28.28,0,0,0,.06.08h-.09A.21.21,0,0,1,16.22,10.85Zm.07.12h.21v0h0Zm.17-.14a.08.08,0,0,1,0,0s0,0,0,0v0h0a.28.28,0,0,0,.15,0v0a.2.2,0,0,0,.05.13h0l0,0h-.09A.21.21,0,0,1,16.46,10.83Zm.16.2h-.07v0h.05l.14,0s0,0,0,.05v0l0,0h0v0h0Zm.21,0a.15.15,0,0,1,0-.11h.06a.42.42,0,0,0,.14,0h0a.29.29,0,0,0,.09.17H17A.21.21,0,0,1,16.83,11Zm.4.27h0l-.33-.18H17l.11,0a.2.2,0,0,0,.06.14l.08,0Zm-.06-.09a.14.14,0,0,1,0-.1h0a.31.31,0,0,0,.16,0,.26.26,0,0,0,.09.17l-.1,0h0A.2.2,0,0,1,17.17,11.21Zm.09.12h0a.28.28,0,0,0,.15,0,.17.17,0,0,0,.06.13h0l0,0h-.1Zm.24.18h.06a.31.31,0,0,0,0,.08Zm.2.18Zm-.06-.09a.14.14,0,0,1,0-.1h0a.31.31,0,0,0,.16,0,.26.26,0,0,0,.09.17l-.1,0A.2.2,0,0,1,17.64,11.6Zm.25.25h0l-.11-.12v0h.05a.25.25,0,0,0,.13,0,.27.27,0,0,0,0,.11l.06.05h-.14Zm.17.21-.15-.16h.15v0h0a.17.17,0,0,0,.06.11h0l0,0Zm.19,0H18.2l-.05,0a.36.36,0,0,1,0-.09h0a.28.28,0,0,0,.15,0,.14.14,0,0,0,0,.06v0l0,0A.13.13,0,0,1,18.25,12Zm.1-.11h0v0s0,0,0,0h.05A.64.64,0,0,1,18.35,11.92Zm0-.1h-.12v0h0v0h0v0h.05l.12,0h0A.91.91,0,0,1,18.37,11.82Z"/><path class="cls-9" d="M15.26,14.9s0,.13,0,.13,0,0,.07-.09S15.26,14.9,15.26,14.9Z"/><path class="cls-1" d="M13.3,12.35c-.19,0-.67-.66-.67-.66l-.15.67a1.53,1.53,0,0,0,.82.46,12.07,12.07,0,0,0,1.85-.33c.16,0,.56.31.64.2s-.35-.17-.33-.28.48,0,.48-.15-.47,0-.49,0,.4-.28.3-.4-.38.27-.43.23.21-.38,0-.43-.15.43-.27.48A5.52,5.52,0,0,1,13.3,12.35Z"/><path class="cls-10" d="M14.17,7.22a.07.07,0,0,0-.07-.07.07.07,0,0,0-.06.07.06.06,0,0,0,.06.06A.07.07,0,0,0,14.17,7.22Z"/><circle class="cls-10" cx="11.59" cy="7.22" r="0.07"/></g></g></svg>