<svg xmlns="http://www.w3.org/2000/svg" viewBox="0 0 27.64 15.6"><defs><style>.cls-1{fill:#fdcd9a;}.cls-2{fill:#dd732a;}.cls-3{fill:#36190e;}.cls-4{fill:#232121;}.cls-5{fill:#f47c29;}.cls-6{fill:#f0f2f4;}</style></defs><g id="Layer_2" data-name="Layer 2"><g id="Layer_2-2" data-name="Layer 2"><path class="cls-1" d="M7.24,14A7,7,0,0,1,7,15.14c-.08.23-.28.46-.52.28,0,0-.22.21-.37,0,0,0-.29.21-.39-.07,0,0-.34.21-.37-.15a.87.87,0,0,1,.46-.71c.14-.07.24-.43.28-.61Z"/><path class="cls-2" d="M6,8.78s.1,1.29.14,2.62a2.93,2.93,0,0,0,.93.23,7.17,7.17,0,0,1-.92.24A7.27,7.27,0,0,1,6,14.18a.58.58,0,0,0,.21-.13.86.86,0,0,1,.11.25,1.87,1.87,0,0,0,.21-.24s.15.17.15.24a1.4,1.4,0,0,0,.17-.22,1.43,1.43,0,0,1,.11.22l.17-.2.14.2v-.2c0-.48,0-.9,0-1.29-.45,0-.69,0-.7-.11s.45-.25.72-.35c0-.69.1-1.22.16-1.6-.92,0-1-.27-1-.27a3,3,0,0,0,1.06-.18c.17-.75.34-.69.36-.69Z"/><path class="cls-2" d="M7.9,9.61Z"/><path class="cls-3" d="M6.58,12.7c0,.08.25.14.7.11,0-.16,0-.31,0-.46C7,12.45,6.57,12.63,6.58,12.7Z"/><path class="cls-3" d="M6.11,11.4c0,.15,0,.31,0,.47A7.17,7.17,0,0,0,7,11.63,2.93,2.93,0,0,1,6.11,11.4Z"/><path class="cls-3" d="M6.48,10.48s.06.29,1,.27a3.73,3.73,0,0,1,.08-.45A3,3,0,0,1,6.48,10.48Z"/><path class="cls-1" d="M16.25,14.31s-.22.74-.31,1-.32.44-.54.24c0,0-.25.19-.37,0,0,0-.31.18-.39-.1,0,0-.35.17-.35-.18s.38-.61.52-.67a.78.78,0,0,0,.36-.43Z"/><path class="cls-2" d="M17.11,12h.07a1.66,1.66,0,0,0,.19-.85,5.46,5.46,0,0,0-.62-1,2,2,0,0,1-1,.52,6.94,6.94,0,0,0,.84-.71c-.38-.54-.77-1-.77-1l-1.11.28a4.14,4.14,0,0,0,.13.57,2,2,0,0,0,.91-.21,1.14,1.14,0,0,1-.84.46,5.78,5.78,0,0,0,.6,1.34,8.53,8.53,0,0,0,1-.24s-.11.21-.82.51a3.73,3.73,0,0,0,.26.3l-.24.6a2.66,2.66,0,0,0,.42.09s0,.11-.49.07c-.18.45-.39,1.11-.51,1.4,0,.05-.1.19-.1.19a.46.46,0,0,0,.24-.08.87.87,0,0,0,0,.23s.19-.17.19-.17l.07.22a.76.76,0,0,0,.21-.15s0,.21.1.24l.15-.21.1.21a19.48,19.48,0,0,1,.94-2.4,1.2,1.2,0,0,1-.5-.16A4,4,0,0,0,17.11,12Z"/><path class="cls-3" d="M17.11,12a4,4,0,0,1-.49,0,1.2,1.2,0,0,0,.5.16l.06-.17Z"/><path class="cls-3" d="M16.55,11.12a8.53,8.53,0,0,1-1,.24l.19.27C16.44,11.33,16.55,11.12,16.55,11.12Z"/><path class="cls-3" d="M16.84,10.05l-.12-.2-.1.11c0,.06.09.12.13.19Z"/><path class="cls-3" d="M16.75,10.15c0-.07-.09-.13-.13-.19a6.94,6.94,0,0,1-.84.71A2,2,0,0,0,16.75,10.15Z"/><path class="cls-3" d="M16.17,12.62a2.66,2.66,0,0,1-.42-.09l-.07.16C16.17,12.73,16.17,12.62,16.17,12.62Z"/><path class="cls-3" d="M15.78,9.56a2,2,0,0,1-.91.21c0,.08,0,.16.07.25A1.14,1.14,0,0,0,15.78,9.56Z"/><path class="cls-1" d="M18.12,14.09a.48.48,0,0,1-.24.34c-.23.16-.58.33-.64.73s.25.42.4.26c0,0,.17.29.38,0,0,0,.23.31.41,0a.34.34,0,0,0,.49.07.71.71,0,0,0,.27-.47,5.44,5.44,0,0,0,0-.95Z"/><path class="cls-1" d="M9.83,14s0,.81,0,1.06-.3.55-.55.38a.27.27,0,0,1-.43,0,.29.29,0,0,1-.46-.08.2.2,0,0,1-.28-.16c-.06-.35.29-.61.42-.69s.06-.46.08-.64Z"/><path class="cls-4" d="M.73,7.28h0Z"/><path class="cls-1" d="M4.78,8.29S8.64,11.94,16.17,9l-.86-1s-3.84,2.47-9.95-.61Z"/><path class="cls-5" d="M21.53,7.84a1.65,1.65,0,0,1-1,.42c.07.2.13.39.18.58a4.27,4.27,0,0,0,1-.38C21.66,8.25,21.6,8.05,21.53,7.84Z"/><path class="cls-5" d="M25.37,13.05a2.15,2.15,0,0,1-.45.14,3.34,3.34,0,0,1,0,1.05,3.42,3.42,0,0,0,.79-.22A1.5,1.5,0,0,0,25.37,13.05Z"/><path class="cls-5" d="M21.82,8.8a4.41,4.41,0,0,1-1,.37c0,.16.09.31.12.47a1.83,1.83,0,0,0,1-.29C21.92,9.17,21.87,9,21.82,8.8Z"/><path class="cls-5" d="M24.58,13.24h-.44a2,2,0,0,1-.29,1l.38,0h.33A2.77,2.77,0,0,0,24.58,13.24Z"/><path class="cls-5" d="M22.68,11.92c-.05-.14-.11-.29-.16-.45a2.09,2.09,0,0,1-.95.39,6.37,6.37,0,0,0,.27.7A2.14,2.14,0,0,0,22.68,11.92Z"/><path class="cls-5" d="M22.12,10c0-.1,0-.2-.07-.3a2.11,2.11,0,0,1-1,.28l.06.26c0,.11.06.21.08.31a1.89,1.89,0,0,0,1-.32Z"/><path class="cls-5" d="M22.27,10.58a2.31,2.31,0,0,1-1,.31c.05.22.11.43.17.64a1.84,1.84,0,0,0,1-.41Z"/><path class="cls-5" d="M23.79,13.15a1.5,1.5,0,0,1-.34-.16,3,3,0,0,1-.75.72,2.23,2.23,0,0,0,.79.43A1.6,1.6,0,0,0,23.79,13.15Z"/><path class="cls-5" d="M23.19,12.77a2.18,2.18,0,0,1-.35-.51,2.49,2.49,0,0,1-.84.6,3.07,3.07,0,0,0,.44.61A2.74,2.74,0,0,0,23.19,12.77Z"/><path class="cls-5" d="M26,12.68a2.8,2.8,0,0,1-.34.21,1.86,1.86,0,0,1,.35,1,4.53,4.53,0,0,0,.69-.43A1.68,1.68,0,0,0,26,12.68Z"/><path class="cls-5" d="M26.74,12.18l-.1,0c-.07.08-.18.18-.32.31a2,2,0,0,1,.68.76,3.71,3.71,0,0,0,.34-.31A1.2,1.2,0,0,0,26.74,12.18Z"/><path class="cls-5" d="M19.18,5A2.34,2.34,0,0,0,18.46,5a2,2,0,0,1,.34,1l.31.09h0A1.79,1.79,0,0,0,19.18,5Z"/><path class="cls-5" d="M19.44,6.28a1.8,1.8,0,0,1,.21.19,1.6,1.6,0,0,0,.53-.92,2.39,2.39,0,0,0-.62-.39A2.36,2.36,0,0,1,19.44,6.28Z"/><path class="cls-5" d="M17.66,5.14c-.26.12.19,1.05.44.93A1,1,0,0,1,18.46,6a1.49,1.49,0,0,0-.4-1A1.49,1.49,0,0,0,17.66,5.14Z"/><path class="cls-5" d="M21.4,7.47a4.86,4.86,0,0,0-.26-.61,2.48,2.48,0,0,1-.83.65l.15.38v0A1.29,1.29,0,0,0,21.4,7.47Z"/><path class="cls-5" d="M21,6.53a4.47,4.47,0,0,0-.51-.71,1.89,1.89,0,0,1-.59.91,3.31,3.31,0,0,1,.29.46A2.22,2.22,0,0,0,21,6.53Z"/><path class="cls-5" d="M27.58,12.62a.52.52,0,0,0-.13-.64.53.53,0,0,0-.5-.08A1.52,1.52,0,0,1,27.58,12.62Z"/><path class="cls-3" d="M26.32,12.46c-.09.07-.18.15-.29.22a1.68,1.68,0,0,1,.7.76,2,2,0,0,0,.27-.22A2,2,0,0,0,26.32,12.46Z"/><path class="cls-3" d="M25.37,13.05a1.5,1.5,0,0,1,.34,1,2.41,2.41,0,0,0,.33-.15,1.86,1.86,0,0,0-.35-1Z"/><path class="cls-3" d="M24.92,13.19a2,2,0,0,1-.34.05,2.77,2.77,0,0,1,0,1l.36,0A3.34,3.34,0,0,0,24.92,13.19Z"/><path class="cls-3" d="M23.79,13.15a1.6,1.6,0,0,1-.3,1,3.15,3.15,0,0,0,.36.09,2,2,0,0,0,.29-1A1.8,1.8,0,0,1,23.79,13.15Z"/><path class="cls-3" d="M23.45,13a1.32,1.32,0,0,1-.26-.22,2.74,2.74,0,0,1-.75.7,1.48,1.48,0,0,0,.26.24A3,3,0,0,0,23.45,13Z"/><path class="cls-3" d="M22.84,12.26a2.68,2.68,0,0,1-.16-.34,2.14,2.14,0,0,1-.84.64c.05.1.1.2.16.3A2.49,2.49,0,0,0,22.84,12.26Z"/><path class="cls-3" d="M22.42,11.12a1.84,1.84,0,0,1-1,.41c0,.11.07.23.11.33a2.09,2.09,0,0,0,.95-.39C22.49,11.36,22.45,11.24,22.42,11.12Z"/><path class="cls-3" d="M22.18,10.23a1.89,1.89,0,0,1-1,.32l.09.34a2.31,2.31,0,0,0,1-.31Z"/><path class="cls-3" d="M22,9.35a1.83,1.83,0,0,1-1,.29l.09.34a2.11,2.11,0,0,0,1-.28Z"/><path class="cls-3" d="M21.72,8.46a4.27,4.27,0,0,1-1,.38l.09.33a4.41,4.41,0,0,0,1-.37C21.79,8.68,21.75,8.57,21.72,8.46Z"/><path class="cls-3" d="M21.43,7.55l0-.08a1.29,1.29,0,0,1-.93.46c0,.11.08.22.11.33a1.65,1.65,0,0,0,1-.42C21.5,7.74,21.46,7.64,21.43,7.55Z"/><path class="cls-3" d="M21.14,6.86A2.55,2.55,0,0,0,21,6.53a2.22,2.22,0,0,1-.81.66l.15.32A2.48,2.48,0,0,0,21.14,6.86Z"/><path class="cls-3" d="M20.46,5.82a3.5,3.5,0,0,0-.28-.27,1.6,1.6,0,0,1-.53.92,1.88,1.88,0,0,1,.22.26A1.89,1.89,0,0,0,20.46,5.82Z"/><path class="cls-3" d="M19.56,5.16l-.07,0L19.18,5a1.79,1.79,0,0,1,0,1.07,1.66,1.66,0,0,1,.3.19A2.36,2.36,0,0,0,19.56,5.16Z"/><path class="cls-3" d="M18.06,5a1.49,1.49,0,0,1,.4,1,1.32,1.32,0,0,1,.34,0,2,2,0,0,0-.34-1A2.25,2.25,0,0,0,18.06,5Z"/><path class="cls-3" d="M27.58,12.62A1.52,1.52,0,0,0,27,11.9a.48.48,0,0,0-.22.16s0,0-.09.09l.1,0a1.2,1.2,0,0,1,.6.73c.11-.11.17-.19.18-.2A.24.24,0,0,0,27.58,12.62Z"/><path class="cls-5" d="M.84,1.8S-.46,1.39.21.59c.5-.59,1,.53,1,.53Z"/><path class="cls-1" d="M.85,1.59S.12,1.36.5.91s.56.3.56.3Z"/><path class="cls-5" d="M5.63,1.9s1.28-.45.59-1.23c-.52-.57-1,.56-1,.56Z"/><path class="cls-1" d="M5.61,1.69s.72-.25.33-.69-.56.32-.56.32Z"/><path class="cls-3" d="M.27,3.2c0,.14-.05.28-.08.43a8.5,8.5,0,0,1,1-.33A1.06,1.06,0,0,0,.27,3.2Z"/><path class="cls-3" d="M1.22,3.93a1.37,1.37,0,0,0-1.1.26c0,.11,0,.22,0,.33s0,.2,0,.29A6.84,6.84,0,0,1,1.22,3.93Z"/><path class="cls-3" d="M4.74,3.19A6.9,6.9,0,0,1,6,3.52c0-.14,0-.29,0-.43A1.22,1.22,0,0,0,4.74,3.19Z"/><path class="cls-3" d="M6,4.05a1.46,1.46,0,0,0-1.19-.24A6.89,6.89,0,0,1,6,4.62V4.05Z"/><path class="cls-3" d="M3.05,1.59A3.41,3.41,0,0,0,3.45,0H3L2.78,0A14.24,14.24,0,0,1,3.05,1.59Z"/><path class="cls-3" d="M3.88,1.59A2.88,2.88,0,0,0,4.54.31,2.23,2.23,0,0,0,3.91.08,5.18,5.18,0,0,1,3.88,1.59Z"/><path class="cls-3" d="M2.37,1.59A5.68,5.68,0,0,0,2.2.17a2.33,2.33,0,0,0-.65.4A2.92,2.92,0,0,1,2.37,1.59Z"/><path class="cls-3" d="M18.33,9.26A1.42,1.42,0,0,1,18.26,9a1.32,1.32,0,0,1-.06-.39c-.26.32-.76.95-.93,1.13A5.33,5.33,0,0,0,18.33,9.26Z"/><path class="cls-3" d="M19.42,10.52l-.3-.22c-.17.29-.43.74-.45.76A2.34,2.34,0,0,0,19.42,10.52Z"/><path class="cls-3" d="M19.63,12.09c0-.14.06-.27.08-.4l-.65.23S19.09,12.09,19.63,12.09Z"/><path class="cls-3" d="M19.06,12.68a2.47,2.47,0,0,1-.64-.2l-.05.28C18.9,12.88,19.06,12.68,19.06,12.68Z"/><path class="cls-3" d="M17.26,10.81l.28.22a3,3,0,0,0,.6-.8S17.62,10.59,17.26,10.81Z"/><path class="cls-3" d="M17,8.92a4.74,4.74,0,0,1-1,.47l.26.34C16.88,9.25,17,8.92,17,8.92Z"/><path class="cls-3" d="M17.27,8.56a1.59,1.59,0,0,0,1-.41c.07-.3.2-.59.27-.9A5.3,5.3,0,0,1,17.27,8.56Z"/><path class="cls-3" d="M16.62,7.7s.76.18,1.94-.88a2.57,2.57,0,0,0-.12-.7A5.55,5.55,0,0,1,16.62,7.7Z"/><path class="cls-3" d="M9.78,13.22c0-.1,0-.2,0-.3a3,3,0,0,1-.59.18S9.14,13.26,9.78,13.22Z"/><path class="cls-3" d="M9.7,11v-.41c-.23.11-.54.26-.72.36A1.53,1.53,0,0,0,9.7,11Z"/><path class="cls-3" d="M9.33,12.09a2.28,2.28,0,0,1-.9-.17c0,.19,0,.37,0,.53C9.3,12.41,9.33,12.09,9.33,12.09Z"/><path class="cls-3" d="M6.27,6.28c0,.29.29,1.73.29,1.36s0-1,0-1.25.43-.62.52-1,.39-.86.53-1.2L6.86,4A3.73,3.73,0,0,1,6.74,5,6.52,6.52,0,0,0,6.27,6.28Z"/><path class="cls-3" d="M13.83,6.55a2.66,2.66,0,0,0-.05,1.12c0-.3.37-.76.42-1.17a5.57,5.57,0,0,0-.15-1.16,2.46,2.46,0,0,1,.32-1A2.48,2.48,0,0,0,14.52,4l-.6.12c-.09.56-.27,1-.28,1.24S14,5.94,13.83,6.55Z"/><path class="cls-5" d="M19.42,10.52a2.34,2.34,0,0,1-.75.54s.28-.47.45-.76a2.63,2.63,0,0,1-.79-1,5.33,5.33,0,0,1-1.06.52c.17-.18.67-.81.93-1.13a1.63,1.63,0,0,1,.06-.5,1.59,1.59,0,0,1-1,.41,5.3,5.3,0,0,0,1.26-1.31s0,0,0-.07a1.4,1.4,0,0,0,0-.36c-1.18,1.06-1.94.88-1.94.88a5.55,5.55,0,0,0,1.82-1.58,3.49,3.49,0,0,0-.55-1c-.1.13-.25.31-.39.46s-.46,1-.66,1.14a6.06,6.06,0,0,0-.87,1,5.36,5.36,0,0,1,.8-1.28c.21-.33.14-.46.34-1a2.25,2.25,0,0,1,.46-.68l-.28-.24c-.17.18-.44.43-.71.7-.46.44-.27,1.1-.59,1.46a7.71,7.71,0,0,0-.64,1,3.66,3.66,0,0,1,.43-1.3,10.53,10.53,0,0,0,.39-1.45,3.39,3.39,0,0,1,.48-.8,3,3,0,0,0-.93-.23A8.87,8.87,0,0,0,15.27,5c-.11.31,0,1.11-.15,1.33a2.06,2.06,0,0,0-.38,1.23c-.19-.33,0-1.14.14-1.52s0-.36,0-1.08a2.36,2.36,0,0,1,.32-1,3.93,3.93,0,0,0-.64.09h0a2.48,2.48,0,0,1-.15.41,2.46,2.46,0,0,0-.32,1A5.57,5.57,0,0,1,14.2,6.5c0,.41-.43.87-.42,1.17a2.66,2.66,0,0,1,.05-1.12c.15-.61-.19-.9-.19-1.22s.19-.68.28-1.24c-.53.11-1,.18-1.38.24a2.19,2.19,0,0,1-.06,1.49,7.68,7.68,0,0,0-.25.92,1.19,1.19,0,0,1-.05.22l.05-.22a7.21,7.21,0,0,0-.16-1.54,3.5,3.5,0,0,1,.11-.82,14.69,14.69,0,0,1-2.77.08H9.24a3.26,3.26,0,0,0,.12.39A2.22,2.22,0,0,1,9.51,6.3,3.61,3.61,0,0,0,8.73,9a2.48,2.48,0,0,1-.27-1.58c.19-.77.79-1.46.75-1.88a9.64,9.64,0,0,1-.16-1.1l-.39-.05a3,3,0,0,1-.38.81,2.52,2.52,0,0,0-.48,1,6.2,6.2,0,0,1,0,1.23c-.12.43-.6.86-.63,1.17a2.7,2.7,0,0,1,.21-1.17c.26-.62-.13-1,0-1.3A7,7,0,0,0,8,4.27L7.61,4.2c-.14.34-.45.9-.53,1.2s-.47.7-.52,1,0,.89,0,1.25-.29-1.07-.29-1.36A6.52,6.52,0,0,1,6.74,5,3.73,3.73,0,0,0,6.86,4c-.59-.14-1-.27-1-.27L5.48,7.64a5.23,5.23,0,0,1,2.93,4.08c0,.07,0,.13,0,.2a2.28,2.28,0,0,0,.9.17s0,.32-.86.36a11.76,11.76,0,0,1,.13,1.92,1.54,1.54,0,0,0,.19-.17s.14.1.15.16.17-.12.16-.17.12.1.13.17.14-.13.14-.17a.53.53,0,0,1,.13.19l.11-.19.26.2c0-.36-.07-.76-.09-1.17-.64,0-.61-.12-.61-.12a3,3,0,0,0,.59-.18c0-.65-.06-1.32-.06-1.9A1.53,1.53,0,0,1,9,11c.18-.1.49-.25.72-.36A3.65,3.65,0,0,1,9.87,9.2c.4-.41,3,.29,5.41-.91a10.56,10.56,0,0,0,.7,1.1,4.74,4.74,0,0,0,1-.47s-.1.33-.74.81a7.39,7.39,0,0,0,1,1.08c.36-.22.88-.58.88-.58a3,3,0,0,1-.6.8,2.91,2.91,0,0,0,1.06.52l-.18.93a2.47,2.47,0,0,0,.64.2s-.16.2-.69.08c0,0-.16,1-.25,1.33l-.07.18s.22-.08.22-.14a.5.5,0,0,0,0,.18.85.85,0,0,0,.2-.17,1.64,1.64,0,0,1,.13.19,1.77,1.77,0,0,1,.12-.19.43.43,0,0,1,.13.18l.17-.18.17.19s0-.17,0-.22c.09-.53.21-1.09.4-2-.54,0-.57-.17-.57-.17l.65-.23c.07-.33.13-.59.15-.68S19.69,10.72,19.42,10.52ZM10.6,6.16c0,.32.07.52-.77,1.48a2.93,2.93,0,0,0,.43-1.17,3.84,3.84,0,0,1,0-1.95,4.91,4.91,0,0,0,.21.77A1.73,1.73,0,0,1,10.6,6.16Zm.92-1.23s0,.1-.1.23a3.16,3.16,0,0,0,.09,1.34,1.62,1.62,0,0,1-.4,1.22,1.3,1.3,0,0,0-.33.65,1.24,1.24,0,0,1,.07-.51c.11-.32.31-.06.31-1.18a4,4,0,0,1,.26-1.52.94.94,0,0,1,.1-.23v0ZM13.1,6.64a2.18,2.18,0,0,0-.41,1.48,1.61,1.61,0,0,1-.11-.89c.1-.41.4-.78.38-1s-.14-.66,0-.88a1.2,1.2,0,0,0,.08.5A1.4,1.4,0,0,1,13.1,6.64Z"/><path class="cls-3" d="M8.46,7.42A2.48,2.48,0,0,0,8.73,9a3.61,3.61,0,0,1,.78-2.7,2.22,2.22,0,0,0-.15-1.46,3.26,3.26,0,0,1-.12-.39H9.05a9.64,9.64,0,0,0,.16,1.1C9.25,6,8.65,6.65,8.46,7.42Z"/><path class="cls-3" d="M13,5.33c-.14.22,0,.65,0,.88s-.28.61-.38,1a1.61,1.61,0,0,0,.11.89,2.18,2.18,0,0,1,.41-1.48A1.4,1.4,0,0,0,13,5.83,1.2,1.2,0,0,1,13,5.33Z"/><path class="cls-3" d="M10.26,4.52a3.84,3.84,0,0,0,0,2,2.93,2.93,0,0,1-.43,1.17c.84-1,.72-1.16.77-1.48a1.73,1.73,0,0,0-.13-.87A4.91,4.91,0,0,1,10.26,4.52Z"/><path class="cls-3" d="M11.52,4.93a.94.94,0,0,0-.1.23C11.47,5,11.51,5,11.52,4.93Z"/><path class="cls-3" d="M10.85,7.86a1.24,1.24,0,0,0-.07.51,1.3,1.3,0,0,1,.33-.65,1.62,1.62,0,0,0,.4-1.22,3.16,3.16,0,0,1-.09-1.34,4,4,0,0,0-.26,1.52C11.16,7.8,11,7.54,10.85,7.86Z"/><path class="cls-3" d="M12.23,6.74,12.18,7A1.19,1.19,0,0,0,12.23,6.74Z"/><path class="cls-3" d="M12.07,5.2a7.21,7.21,0,0,1,.16,1.54,7.68,7.68,0,0,1,.25-.92,2.19,2.19,0,0,0,.06-1.49l-.36,0A3.5,3.5,0,0,0,12.07,5.2Z"/><path class="cls-3" d="M14.88,6c-.1.38-.33,1.19-.14,1.52a2.06,2.06,0,0,1,.38-1.23c.15-.22,0-1,.15-1.33a8.87,8.87,0,0,1,.45-1.07,3,3,0,0,0-.52,0,2.36,2.36,0,0,0-.32,1C14.85,5.63,15,5.61,14.88,6Z"/><path class="cls-3" d="M15.78,6.36a3.66,3.66,0,0,0-.43,1.3,7.71,7.71,0,0,1,.64-1c.32-.36.13-1,.59-1.46.27-.27.54-.52.71-.7a3.34,3.34,0,0,0-.64-.37,3.39,3.39,0,0,0-.48.8A10.53,10.53,0,0,1,15.78,6.36Z"/><path class="cls-3" d="M16.77,6.36A5.36,5.36,0,0,0,16,7.64a6.06,6.06,0,0,1,.87-1c.2-.15.4-.88.66-1.14s.29-.33.39-.46a3.59,3.59,0,0,0-.32-.36,2.25,2.25,0,0,0-.46.68C16.91,5.9,17,6,16.77,6.36Z"/><path class="cls-3" d="M7.38,7.39a2.7,2.7,0,0,0-.21,1.17c0-.31.51-.74.63-1.17a6.2,6.2,0,0,0,0-1.23,2.52,2.52,0,0,1,.48-1,3,3,0,0,0,.38-.81L8,4.27a7,7,0,0,1-.61,1.82C7.25,6.39,7.64,6.77,7.38,7.39Z"/><path class="cls-5" d="M6,4.05c0-.18,0-.35,0-.53a6.9,6.9,0,0,0-1.21-.33,1.22,1.22,0,0,1,1.17-.1A3.23,3.23,0,0,0,4.54.31a2.88,2.88,0,0,1-.66,1.28,5.18,5.18,0,0,0,0-1.51A3.17,3.17,0,0,0,3.45,0a3.41,3.41,0,0,1-.4,1.58A14.24,14.24,0,0,0,2.78,0,1.91,1.91,0,0,0,2.2.17a5.68,5.68,0,0,1,.17,1.42,2.92,2.92,0,0,0-.82-1A4.65,4.65,0,0,0,.27,3.2a1.06,1.06,0,0,1,1,.1,8.5,8.5,0,0,0-1,.33c0,.18,0,.37-.07.56a1.37,1.37,0,0,1,1.1-.26,6.84,6.84,0,0,0-1.14.88C0,7.17.56,9,3,9s3-2,3-4.42a6.89,6.89,0,0,0-1.19-.81A1.46,1.46,0,0,1,6,4.05Z"/><path class="cls-1" d="M6.1,6.56a2.86,2.86,0,0,0-3-2.63A2.87,2.87,0,0,0,0,6.56,2.87,2.87,0,0,0,3.05,9.2,2.86,2.86,0,0,0,6.1,6.56Z"/><path class="cls-5" d="M3.05,3.44C4,3.44,4.44,6,4,6.56s-1.95.5-2.22,0S2,3.44,3.05,3.44Z"/><path class="cls-4" d="M4.45,2.52a.29.29,0,1,0-.28.29A.29.29,0,0,0,4.45,2.52Z"/><path class="cls-4" d="M2.27,2.52A.29.29,0,1,0,2,2.81.29.29,0,0,0,2.27,2.52Z"/><path class="cls-4" d="M2.17,8a1.27,1.27,0,0,1-.82-.42,0,0,0,0,1,0,0,0,0,0,0,1,0,0c.34.32.65.46.92.39s.58-.66.58-.67l0,0a.05.05,0,0,1,0,0s-.19.59-.63.7A.39.39,0,0,1,2.17,8Z"/><path class="cls-4" d="M3.67,8,3.5,8c-.44-.13-.6-.7-.61-.72a.05.05,0,0,1,0,0l0,0s.16.57.56.68.58,0,.93-.37a0,0,0,0,1,0,0,0,0,0,0,1,0,0A1.28,1.28,0,0,1,3.67,8Z"/><path class="cls-4" d="M1.37,7.06A.07.07,0,0,0,1.3,7a.07.07,0,0,0-.08.07.08.08,0,0,0,.08.08A.08.08,0,0,0,1.37,7.06Z"/><path class="cls-4" d="M.9,6.58a.07.07,0,0,0-.08-.07.07.07,0,0,0-.07.07.07.07,0,0,0,.07.08A.07.07,0,0,0,.9,6.58Z"/><circle class="cls-4" cx="4.81" cy="6.16" r="0.08"/><path class="cls-4" d="M5.46,6.66a.08.08,0,0,0-.08-.08.08.08,0,0,0,0,.16A.08.08,0,0,0,5.46,6.66Z"/><circle class="cls-4" cx="4.53" cy="6.85" r="0.08"/><path class="cls-4" d="M.75,7.14a.09.09,0,0,0-.08-.08.08.08,0,0,0-.07.08.07.07,0,0,0,.07.07A.08.08,0,0,0,.75,7.14Z"/><path class="cls-4" d="M4.2,6.4c0-.55-.58,0-1.28,0s-1.28-.55-1.28,0a1.16,1.16,0,0,0,1.28,1A1.17,1.17,0,0,0,4.2,6.4Z"/><path class="cls-6" d="M2.15,2.44a.08.08,0,0,0-.08-.09A.09.09,0,0,0,2,2.44a.09.09,0,0,0,.09.08A.08.08,0,0,0,2.15,2.44Z"/><circle class="cls-6" cx="4.25" cy="2.44" r="0.08"/></g></g></svg>