<svg xmlns="http://www.w3.org/2000/svg" viewBox="0 0 15.86 19.29"><defs><style>.cls-1{fill:#f47820;}.cls-2{fill:#f7941d;}.cls-3{fill:#1c1c1c;}.cls-4{fill:#d26828;}.cls-5{fill:#131313;}.cls-6{fill:#f4ebd7;}.cls-7{fill:#3e403e;}.cls-8{fill:#1c1a1a;}.cls-9{fill:#191919;}.cls-10{fill:#f8f7f2;}</style></defs><g id="Layer_2" data-name="Layer 2"><g id="Layer_2-2" data-name="Layer 2"><path class="cls-1" d="M9.13,5.07S4.5,4,2.69,4.22a5.19,5.19,0,0,0-2.45,1S.5,3.45,3.49,3a16,16,0,0,1,5.32,0Z"/><path class="cls-2" d="M9.38.37A10.53,10.53,0,0,0,4,.37a9.44,9.44,0,0,0-2,.86.8.8,0,0,1,.7,1c-.18.89-.88.69-1.26.78S.49,3.37.07,4.7a4.42,4.42,0,0,0,.15.48,3.46,3.46,0,0,1,2.34-1.9C4.12,2.75,5.67,2.75,8.82,3A3.9,3.9,0,0,1,9.38.37Z"/><path class="cls-3" d="M1.43,3c.38-.09,1.08.11,1.26-.78a.8.8,0,0,0-.7-1C.6,2.05-.26,3.21.07,4.7.49,3.37,1,3.11,1.43,3Z"/><path class="cls-4" d="M4.75,2.86A4.13,4.13,0,0,0,4.69,2a2.11,2.11,0,0,0-.08.89,3.2,3.2,0,0,0,.11.74A3.58,3.58,0,0,0,4.75,2.86Z"/><path class="cls-4" d="M4.16,2.91a2.6,2.6,0,0,0-.09-.64,2.46,2.46,0,0,0,0,.67,3,3,0,0,0,.09.67A2.64,2.64,0,0,0,4.16,2.91Z"/><path class="cls-4" d="M3.51,3a1,1,0,0,0-.09-.39s0,.31,0,.44.08.47.13.46A2.92,2.92,0,0,0,3.51,3Z"/><path class="cls-4" d="M5.29,2.84a2.72,2.72,0,0,0,0-.64s-.1.26-.08.65a3,3,0,0,0,.07.66h0A2.39,2.39,0,0,0,5.29,2.84Z"/><path class="cls-4" d="M5.73,2.84c0-.11,0-.59-.05-.59s-.07.25-.08.58c0,.17,0,.63.07.63S5.73,3,5.73,2.84Z"/><path class="cls-4" d="M6.18,2.86c0-.21,0-.46-.07-.45a1.25,1.25,0,0,0-.05.43,1.42,1.42,0,0,0,.07.51A1.67,1.67,0,0,0,6.18,2.86Z"/><path class="cls-4" d="M6.63,2.88a1.08,1.08,0,0,0,0-.41,1,1,0,0,0,0,.41c0,.13,0,.44,0,.44S6.62,3,6.63,2.88Z"/><path class="cls-5" d="M14.31,5.43c-.24-.41-.92-.54-.78-1.14.41-1.67.12-2.68-1.08-3.54A4,4,0,0,0,9.29.36,4,4,0,0,0,8.66,3a2.36,2.36,0,0,0,1,.12c.43-.08.93-.7,1.77-.18a1.26,1.26,0,0,1-.22,2.15A9.19,9.19,0,0,1,9,5H9a.8.8,0,0,1,0,.28c0,1.15,0,6,2.46,7.53A3.45,3.45,0,0,0,14,13.3C16.78,12.88,15.3,7.13,14.31,5.43Z"/><path class="cls-6" d="M11.18,5.07a1.26,1.26,0,0,0,.22-2.15c-.84-.52-1.34.1-1.77.18a2.36,2.36,0,0,1-1-.12A7.69,7.69,0,0,0,9,5,9.19,9.19,0,0,0,11.18,5.07Z"/><path class="cls-2" d="M9.49,1c.23-.05,1.56.61,1.42,1.08s-.6.28-.84.38-.61.53-1,.15S9.05,1.12,9.49,1Z"/><path class="cls-5" d="M15.14,12.12A4.47,4.47,0,0,0,15,13.35c0,.5,1.46,5.69.35,5.72a.71.71,0,0,1-.65-.46s0,.61-.44.67-.62-.61-.62-.61-.07.6-.54.61-.57-.55-.57-.55-.21.61-.72.43-.49-2,.22-5.45c.08-.36-.6-1.21-.6-1.21S13.92,14.34,15.14,12.12Z"/><path class="cls-7" d="M13.31,13.82c.13,0,.42,5-.24,4.95-.89-.07,0-4.74.1-4.95S13.31,13.82,13.31,13.82Z"/><path class="cls-7" d="M12.53,13.92c.05.35,0,5.14-.66,4.85-.49-.21.42-4.73.51-4.94S12.53,13.92,12.53,13.92Z"/><path class="cls-7" d="M14,13.81c.13,0,.8,5,.13,5-.89,0-.34-4.72-.27-4.95S14,13.81,14,13.81Z"/><path class="cls-7" d="M14.68,13.84c.09.21,1.08,4.55.66,4.82-.82.51-.85-4.67-.8-4.9S14.68,13.84,14.68,13.84Z"/><circle class="cls-8" cx="9.63" cy="1.86" r="0.25"/><path class="cls-9" d="M9.38,5.28A2.4,2.4,0,0,1,11.8,6c.91,1.14,2.08,4.85,1.62,5.28-.18.16-.43-.07-.43-.07s.35.73.09,1a.57.57,0,0,1-.53.17s.34.45,0,.59c-.82.36-3.89-1.33-4.41-4.94A2.5,2.5,0,0,1,9.38,5.28Z"/><path class="cls-9" d="M13.63,5c.44-.13,1.59.19,2.09,3.61s-.47,4.34-.77,4.21-.21-.88-.21-.88-.2.19-.37.07-.18-.9-.18-.9-.09.16-.3,0S11.79,5.5,13.63,5Z"/><path class="cls-7" d="M8.57,8.63a1.08,1.08,0,0,0,1.25.17,9.5,9.5,0,0,0,1.07,1.95c.52.7,1.72,1.86,1.55,2s-1.8-.53-2.74-1.72A5.62,5.62,0,0,1,8.57,8.63Z"/><path class="cls-7" d="M10.23,8.86a.82.82,0,0,0,.93.1,11.25,11.25,0,0,0,.63,1c.32.44,1.31,1.87,1.12,2.06s-1.31-1-1.78-1.66A16.66,16.66,0,0,1,10.23,8.86Z"/><path class="cls-7" d="M11.76,8.86a.64.64,0,0,0,.7-.23s1.16,2.2.89,2.45S12.05,9.63,11.76,8.86Z"/><path class="cls-7" d="M13.53,8.86a.64.64,0,0,0,.6.26s0,1.68-.15,1.6A4.35,4.35,0,0,1,13.53,8.86Z"/><path class="cls-7" d="M15.12,8.79c.33.06.44-.34.44-.34a15.44,15.44,0,0,1,.08,2.27c-.07.65-.24,1.81-.52,1.74s0-1,.05-1.83A14.67,14.67,0,0,0,15.12,8.79Z"/><path class="cls-7" d="M14.34,9.08a.9.9,0,0,0,.59-.22s.06,2.87-.39,2.87C14.28,11.73,14.51,10.42,14.34,9.08Z"/><path class="cls-10" d="M9.78,1.78a.07.07,0,0,0-.07-.08.07.07,0,0,0-.08.08.08.08,0,0,0,.08.08A.08.08,0,0,0,9.78,1.78Z"/></g></g></svg>