<svg xmlns="http://www.w3.org/2000/svg" viewBox="0 0 20.89 15.79"><defs><style>.cls-1{fill:#3e3a33;}.cls-2{fill:#2e2b25;}.cls-3{fill:#262223;}.cls-4{fill:#8d8e8d;}.cls-5{fill:#436068;}.cls-6{fill:#1d4a39;}.cls-7{fill:#af5227;}.cls-8{fill:#f8f4f9;}.cls-9{fill:#4c2a21;}.cls-10{fill:#5f3429;}.cls-11{fill:#88523c;}.cls-12{fill:#273954;}.cls-13{fill:#09432e;}.cls-14{fill:#9ea4a3;}.cls-15{fill:#b3b7b7;}.cls-16{fill:#d72027;}.cls-17{fill:#e8e8e8;}.cls-18{fill:#1c1b1c;}</style></defs><g id="Layer_2" data-name="Layer 2"><g id="Layer_2-2" data-name="Layer 2"><path class="cls-1" d="M6.91,14.18s-.15.55,0,.73S8,15,8,15.23s-1.16.15-1.42.18-1.15.53-1.36.33.07-.14.07-.14-.74.1-.74-.06.94-.41,1.63-.53c.21,0,.23-.5.23-.9Z"/><path class="cls-2" d="M8.29,14.18s-.15.55,0,.73,1.06.1,1.08.32-1.16.15-1.42.18-1.15.53-1.36.33.07-.14.07-.14S6,15.7,6,15.54s.94-.41,1.63-.53c.22,0,.23-.5.23-.9Z"/><path class="cls-3" d="M11,8.37s-.83.17-.95-.21a.42.42,0,0,1,0-.33s-.42-.15-.49-.5a1,1,0,0,1,.18-.69.6.6,0,0,1-.38-.54.74.74,0,0,1,.28-.54.91.91,0,0,1-.28-.67.77.77,0,0,1,.42-.55.76.76,0,0,1-.11-.78.79.79,0,0,1,.64-.5.85.85,0,0,1-.05-.83A.92.92,0,0,1,11,1.77a.73.73,0,0,1,.31-.72.79.79,0,0,1,.81,0,.75.75,0,0,1,.48-.74,1,1,0,0,1,1,.16A.7.7,0,0,1,14.31,0a.64.64,0,0,1,.61.53s.41-.55.89-.43.6.82.6.82a.91.91,0,0,1,1-.2c.5.24.31.92.31.92s.54-.31.9,0,.08.83.08.83.59-.1.8.21a.78.78,0,0,1,0,.92.74.74,0,0,1,.75.32c.31.43-.1,1-.1,1a.93.93,0,0,1,.59.58.84.84,0,0,1-.21.75.83.83,0,0,1,.4.69.87.87,0,0,1-.39.69.74.74,0,0,1,.39.75.65.65,0,0,1-.5.63s.4.31.3.67-.56.48-.56.48a.69.69,0,0,1,.12.8.78.78,0,0,1-.69.37.71.71,0,0,1,.07.85.58.58,0,0,1-.63.27.79.79,0,0,1-.22.74,1.08,1.08,0,0,1-.85.19s-.2.5-.6.52a1.31,1.31,0,0,1-.79-.27.52.52,0,0,1-.64.27c-.24,0-.41-.37-.41-.37a.63.63,0,0,1-.62.08.49.49,0,0,1-.33-.51.72.72,0,0,1-.61-.12c-.26-.22-.2-.75-.06-1.07Z"/><path class="cls-4" d="M11.61,8.27s-1,.15-1.33-.53A.63.63,0,0,1,10.35,7,1,1,0,0,1,10,6.24a1,1,0,0,1,.35-.72,1,1,0,0,1-.16-.67.64.64,0,0,1,.41-.44.82.82,0,0,1-.07-.78.57.57,0,0,1,.54-.44.66.66,0,0,1,.11-.68c.27-.38.81-.08.81-.08s0-.6.37-.69.71.42.71.42.19-.69.64-.62.59.61.59.61.3-.41.69-.26a.72.72,0,0,1,.38.64.6.6,0,0,1,.79-.06.61.61,0,0,1,.22.81.69.69,0,0,1,.76.09c.36.3.08.8.08.8a.7.7,0,0,1,.78.21.8.8,0,0,1,.1.72.61.61,0,0,1,.77.4,1.17,1.17,0,0,1-.17.73.67.67,0,0,1,.67.5.82.82,0,0,1-.23.74.7.7,0,0,1,.39.63.72.72,0,0,1-.28.68.74.74,0,0,1,.28.78c-.1.56-.45.64-.45.64a.89.89,0,0,1,.16.78.83.83,0,0,1-.56.48.93.93,0,0,1-.1.85.54.54,0,0,1-.7.12s.05.57-.24.74-.72-.11-.72-.11-.07.42-.45.41a.79.79,0,0,1-.6-.41.48.48,0,0,1-.5.31.7.7,0,0,1-.52-.43.54.54,0,0,1-.55,0c-.44-.32-.31-1.1-.31-1.1Z"/><path class="cls-3" d="M11.76,8.22s-.9-.18-1-.75a.52.52,0,0,1,.23-.57.7.7,0,0,1-.33-.6.67.67,0,0,1,.31-.54.83.83,0,0,1-.1-.77.87.87,0,0,1,.57-.45.59.59,0,0,1,.16-.68.5.5,0,0,1,.6,0s.06-.54.47-.62a.76.76,0,0,1,.68.32.59.59,0,0,1,.63-.27.57.57,0,0,1,.36.57s.36-.32.66-.17.21.63.21.63.45-.29.77,0,.14.8.14.8.49-.13.71.16-.07.77-.07.77a.76.76,0,0,1,.65.32.77.77,0,0,1-.07.83.63.63,0,0,1,.54.5.59.59,0,0,1-.2.71A1,1,0,0,1,18,9a.93.93,0,0,1-.25.62.65.65,0,0,1,.26.62.71.71,0,0,1-.47.61.49.49,0,0,1,.08.58c-.15.32-.57.21-.57.21a.55.55,0,0,1-.15.52c-.22.17-.57-.06-.57-.06a.4.4,0,0,1-.33.34.45.45,0,0,1-.44-.26s-.16.36-.41.36-.46-.32-.46-.32-.23.28-.46.17-.22-.63-.22-.63Z"/><path class="cls-5" d="M11.84,8.1s-.48-.16-.45-.56.41-.32.41-.32-.18-.48,0-.74a.58.58,0,0,1,.61-.11s0-.54.34-.66.7.35.7.35.19-.65.67-.48.33.74.33.74.41-.49.79-.16,0,.79,0,.79a.54.54,0,0,1,.79,0c.37.39-.12.84-.12.84a.53.53,0,0,1,.5.45.69.69,0,0,1-.31.68.7.7,0,0,1,.32.66.61.61,0,0,1-.41.55.48.48,0,0,1-.55.77s.17.43-.13.64a.52.52,0,0,1-.59,0s-.15.32-.38.38-.74-.67-.74-.67Z"/><path class="cls-3" d="M3.33,8.62a4,4,0,0,0,.84.18A1.92,1.92,0,0,0,5.78,6.75,4.18,4.18,0,0,1,4.25,3.83c0-2.23-1.39-2.45-1.74-2.44A1.51,1.51,0,0,0,1,3a1.47,1.47,0,0,1-.69.64,1.88,1.88,0,0,0,.68-.28,2.06,2.06,0,0,1-.83,1,2.5,2.5,0,0,0,1-.69A2.34,2.34,0,0,1,.31,4.71a2.69,2.69,0,0,0,1-.89A1.67,1.67,0,0,1,.56,5.05a2.15,2.15,0,0,0,1-.84A3.12,3.12,0,0,1,1,5.53a3.41,3.41,0,0,0,.76-1.15,1.54,1.54,0,0,1-.3,1.16A2.45,2.45,0,0,0,2,4.67c.08-.23.11.49,0,.73A7.71,7.71,0,0,0,2,7.62,3.59,3.59,0,0,0,3.33,8.62Z"/><path class="cls-3" d="M8.44,14.1l-.06,0Z"/><path class="cls-3" d="M8.13,8.51l.08,0a5.07,5.07,0,0,1,1.48.35,8.68,8.68,0,0,1,1.76,1l.17.12a14.25,14.25,0,0,1,1.16.95,3.89,3.89,0,0,1,1,1.25c1.81-1.88,1.78-4.26,1.32-4.2-.31,0-.51.48-.51.48s.12-1.19-.29-1.27-.86.89-.86.89,0-.89-.31-1-.3.09-.76.53c-1,1-2.7.84-3.85.6C8.5,8.39,8.33,8.47,8.13,8.51Z"/><path class="cls-3" d="M8.29,14.14a1.66,1.66,0,0,1-.44,0h0A1.66,1.66,0,0,0,8.29,14.14Z"/><path class="cls-3" d="M8.37,14.12l-.07,0Z"/><path class="cls-3" d="M8.5,14.07l0,0Z"/><path class="cls-3" d="M8.56,14l-.05,0Z"/><path class="cls-6" d="M8.21,8.53l-.08,0h.08Z"/><path class="cls-6" d="M7.73,14.11l.12,0h0Z"/><path class="cls-6" d="M7.31,14,7.2,14Z"/><path class="cls-6" d="M7.45,14l-.12,0Z"/><path class="cls-6" d="M7.16,13.93l-.08,0Z"/><path class="cls-6" d="M7.59,14.08l-.13,0Z"/><path class="cls-6" d="M7,13.85l0,0Z"/><path class="cls-6" d="M7.72,14.11l-.12,0Z"/><path class="cls-6" d="M6.68,13.63l-.15-.13Z"/><path class="cls-6" d="M6.68,13.63l.16.12-.16-.12Z"/><path class="cls-7" d="M8.29,14.14h0l.07,0h0l.06,0h0l0,0h0l.05,0c.19-.26-.1-.71-.1-.71s.82.35,1.12,0-.2-.83-.2-.83.66.34.94-.12-.42-.94-.42-.94.6.38.79-.08-.69-.93-.69-.93.69.25.78-.17-.57-1-1.09-1.36a5.07,5.07,0,0,0-1.48-.35H7.68a3.05,3.05,0,0,0-2,.9A3.41,3.41,0,0,0,6,9.82c.31.28.41.5.28.77s-.59.24-.92.35l-.33.11A3.58,3.58,0,0,0,6.53,13.5l.15.13.16.12.12.07,0,0,.07,0,.08,0,0,0,.11,0h0l.12,0h0l.13,0h0l.12,0h0l.13,0A1.66,1.66,0,0,0,8.29,14.14Z"/><path class="cls-8" d="M6.32,10.59c.13-.27,0-.49-.28-.77a3.41,3.41,0,0,1-.36-.39,2.31,2.31,0,0,0-.61,1.62l.33-.11C5.73,10.83,6.19,10.86,6.32,10.59Z"/><path class="cls-9" d="M11,13.9h0l-.45.13A.51.51,0,0,0,11,13.9Z"/><path class="cls-9" d="M11.45,9.87a8.68,8.68,0,0,0-1.76-1c.52.36,1.18.92,1.09,1.36s-.78.17-.78.17.89.47.69.93-.79.08-.79.08.69.48.42.94-.94.12-.94.12.49.49.2.83-1.12,0-1.12,0,.29.45.1.71l-.05,0h0l0,0h0l-.06,0h0l-.07,0h0a1.66,1.66,0,0,1-.44,0l-.12,0h0l-.12,0h0l-.13,0h0l-.12,0h0L7.2,14l0,0-.08,0-.07,0,0,0-.12-.07a6.53,6.53,0,0,0,1,.63l.34.16.44.13c.67.15,1.4.22,1.69-.09a.33.33,0,0,0,0-.49,1.26,1.26,0,0,0-.28-.22,1.39,1.39,0,0,0,.53.16L11,13.9c.33-.32-.21-.8-.21-.8s.58.31.83-.06-.4-.78-.4-.78.66.28.79-.06-.51-.8-.51-.8.55.22.67-.06S11.85,10.3,11.45,9.87Z"/><path class="cls-9" d="M7.2,14l0,0Z"/><path class="cls-9" d="M7.73,14.11h0Z"/><path class="cls-9" d="M7.33,14h0Z"/><path class="cls-9" d="M7.46,14h0Z"/><path class="cls-9" d="M7.6,14.08h0Z"/><path class="cls-9" d="M7.08,13.89l-.07,0Z"/><path class="cls-9" d="M8.38,14.12h0Z"/><path class="cls-9" d="M8.46,14.09h0Z"/><path class="cls-9" d="M8.3,14.14h0Z"/><path class="cls-9" d="M7,13.82l-.12-.07Z"/><path class="cls-9" d="M8.51,14.06h0Z"/><path class="cls-10" d="M12.78,10.94A14.25,14.25,0,0,0,11.62,10l-.17-.12c.4.43.89,1.07.71,1.47s-.67.06-.67.06.71.32.51.8-.79.06-.79.06.66.4.4.78-.83.06-.83.06.54.48.21.8h0a.51.51,0,0,1-.44.13l-.25.06a.33.33,0,0,1,0,.49c-.29.31-1,.24-1.69.09a12.28,12.28,0,0,0,1.58.31,1.6,1.6,0,0,0,1-.18c.24-.19,0-.54,0-.54a1.15,1.15,0,0,0,.93,0c.22-.15,0-.51,0-.51s.51.08.74-.19a.48.48,0,0,0,0-.54.58.58,0,0,0-.07-.12C13.74,12.56,13.29,11.63,12.78,10.94Z"/><path class="cls-10" d="M10.29,14.09l.25-.06a1.39,1.39,0,0,1-.53-.16A1.26,1.26,0,0,1,10.29,14.09Z"/><path class="cls-11" d="M13.4,13.1a.61.61,0,0,0,.39-.91,3.89,3.89,0,0,0-1-1.25c.51.69,1,1.62,0,2a.58.58,0,0,1,.07.12.48.48,0,0,1,0,.54c-.23.27-.74.19-.74.19s.22.36,0,.51a1.15,1.15,0,0,1-.93,0s.24.35,0,.54a1.6,1.6,0,0,1-1,.18,4.47,4.47,0,0,0,1.34,0,.22.22,0,0,0,.16-.32s.68.11,1-.18a.33.33,0,0,0,.06-.45s.68.08,1-.29S13.4,13.1,13.4,13.1Z"/><path class="cls-12" d="M4.17,8.8A2.06,2.06,0,0,0,5,8.73a5.68,5.68,0,0,1,3.14-.22c.2,0,.37-.12.4-.28l-.65-.17a6.56,6.56,0,0,1-2.1-1.31A1.92,1.92,0,0,1,4.17,8.8Z"/><path class="cls-13" d="M5.68,9.43a3.05,3.05,0,0,1,2-.9h.45A5.68,5.68,0,0,0,5,8.73a2.06,2.06,0,0,1-.82.07,4,4,0,0,1-.84-.18A3.59,3.59,0,0,1,2,7.62c.2,2.75,1.47,6.79,5.88,6.76a6.53,6.53,0,0,1-1-.63l-.16-.12h0l-.15-.13a3.58,3.58,0,0,1-1.46-2.45,2.31,2.31,0,0,1,.61-1.62Z"/><path class="cls-5" d="M8,8.52H8Z"/><path class="cls-14" d="M0,1.23a3.54,3.54,0,0,1,.68.42c.21.19.45.61.6.57A.24.24,0,0,0,1.48,2c0-.21-.4-.56-.51-.66S.25,1,0,1.23Z"/><path class="cls-15" d="M0,1.09A1,1,0,0,1,1.07.88c.67.26.76.76.74.84s-.25.47-.36.38-.2-.41-.46-.63A1.32,1.32,0,0,0,0,1.09Z"/><path class="cls-16" d="M3.31,2.05c.22.26-.1.51.31.69s.26-.2.26-.35a1,1,0,0,0-.21-.53.92.92,0,0,0-.59-.32c-.27,0-.42.05-.4.18C2.72,2,3.17,1.87,3.31,2.05Z"/><circle class="cls-17" cx="2.81" cy="2.4" r="0.2"/><path class="cls-18" d="M2.91,2.38a.14.14,0,0,0-.14-.14.14.14,0,0,0-.14.14.13.13,0,0,0,.14.13A.14.14,0,0,0,2.91,2.38Z"/></g></g></svg>