<svg xmlns="http://www.w3.org/2000/svg" xmlns:xlink="http://www.w3.org/1999/xlink" viewBox="0 0 23.98 11.4"><defs><style>.cls-1{fill:#66682c;}.cls-2{fill:#9ca539;}.cls-3{fill:#010101;}.cls-4{fill:#986828;}.cls-5{fill:#7b491e;}.cls-6{opacity:0.5;fill:url(#radial-gradient);}.cls-7{fill:#f8f7f2;}</style><radialGradient id="radial-gradient" cx="-26.98" cy="31.98" r="0.39" gradientTransform="matrix(1.57, -0.09, 0.09, 1.5, 42.22, -47.29)" gradientUnits="userSpaceOnUse"><stop offset="0" stop-color="#f26458"/><stop offset="1" stop-color="#9ca539"/></radialGradient></defs><g id="Layer_2" data-name="Layer 2"><g id="Layer_2-2" data-name="Layer 2"><path class="cls-1" d="M18.29,10.54c-.07,0-.29.24-.35.32A.28.28,0,0,0,18,11h0A.18.18,0,0,0,18,11C18.19,10.78,18.42,10.62,18.29,10.54Z"/><path class="cls-1" d="M6.83,10.5c0-.08-.42.22-.49.28a.48.48,0,0,0,.18.07C6.61,10.79,6.89,10.6,6.83,10.5Z"/><path class="cls-1" d="M18.76,10.72c-.07-.07-.35.34-.38.4h.21C18.65,11,18.85,10.79,18.76,10.72Z"/><path class="cls-1" d="M18.53,10.63c-.07-.08-.38.36-.44.44h0a.45.45,0,0,0,.16,0C18.35,11,18.61,10.72,18.53,10.63Z"/><path class="cls-1" d="M16.15,11c-.07-.06-.34.34-.4.44h.18S16.25,11,16.15,11Z"/><path class="cls-1" d="M15.93,10.86c-.07-.09-.41.4-.44.45l.17.06h0C15.73,11.28,16,10.94,15.93,10.86Z"/><path class="cls-1" d="M15.67,10.8c-.06,0-.27.21-.35.3a.19.19,0,0,0,0,.08l0,.07,0,0h0C15.61,11,15.81,10.88,15.67,10.8Z"/><path class="cls-1" d="M6.66,10.31c0-.1-.44.22-.5.28a.42.42,0,0,0,.11.13C6.37,10.66,6.73,10.43,6.66,10.31Z"/><path class="cls-1" d="M6.47,10.14c-.06-.05-.31.14-.37.19a.35.35,0,0,0,0,.2C6.36,10.33,6.58,10.25,6.47,10.14Z"/><path class="cls-2" d="M23.79,7.53A1.42,1.42,0,0,1,22.23,7l-15.52-1A5.47,5.47,0,0,1,5.27,4.79c-.79-.76-.67-1-.69-1.34s-.39-2.4-2.23-1.93C-.52,2.26-.06,3.62.18,3.83a4.54,4.54,0,0,0,1.3.35A3.08,3.08,0,0,1,3,4.8c.84.78,3.08,2.51,3.2,2.57l0,.64a9.77,9.77,0,0,0-1.94.81.75.75,0,0,0-.37.45c.06,0,.32-.24.38-.19s-.13.2-.37.41l0,.06c.06-.05.46-.37.51-.28s-.34.38-.41.42a.6.6,0,0,0,.08.08c.08-.07.44-.35.49-.27s-.28.32-.34.36c.24.1.63.09,1.22-.36C6.57,8.64,7,8.26,7,8.26l1,.27S6.41,9.8,6.3,9.94a.85.85,0,0,0-.2.39c.06-.05.32-.24.37-.19s-.11.19-.34.39c0,0,0,0,0,.06s.45-.38.5-.28-.29.35-.39.41l0,0,0,0c.07-.06.44-.36.49-.28s-.22.29-.31.35c.36.07.84-.24,1.23-.72s1.11-1.4,1.11-1.4l8.24.58-.05.06s-1.68,1.21-1.73,1.73c.08-.09.29-.34.35-.3s-.06.22-.24.48l.06,0c0-.05.37-.54.44-.45s-.2.42-.27.5h0l.09,0c.06-.1.33-.5.4-.44s-.2.42-.22.45c.47,0,1-.36,1.36-1.14.52-1.09.53-1,.53-1L19.5,9l-1.17,1.24s-.38.39-.39.65c.06-.08.28-.36.35-.32s-.1.24-.28.49a.2.2,0,0,0,.08,0c.06-.08.37-.52.44-.44s-.18.4-.25.48h.1c0-.06.31-.47.38-.41s-.11.32-.17.39a1.73,1.73,0,0,0,1.13-.91,7.43,7.43,0,0,0,.63-1.58l1.17-.78a1.89,1.89,0,0,0,1.93.34C23.74,8,24.27,7.43,23.79,7.53Z"/><path class="cls-1" d="M4.41,9.27c0-.09-.45.23-.51.28l0,0a.58.58,0,0,0,.08.1C4.07,9.65,4.49,9.4,4.41,9.27Z"/><path class="cls-1" d="M4.57,9.5c-.05-.08-.41.2-.49.27l.15.09C4.29,9.82,4.63,9.6,4.57,9.5Z"/><path class="cls-1" d="M4.24,9.08c-.06-.05-.32.15-.38.19v.16s0,0,0,.06C4.11,9.28,4.35,9.19,4.24,9.08Z"/><path class="cls-3" d="M2.45,1.85c0-.1-.07-.18-.14-.18a.17.17,0,0,0-.12.2.17.17,0,0,0,.14.18C2.4,2.05,2.46,2,2.45,1.85Z"/><path class="cls-4" d="M6.11,8c0-.31,1.47-8,9.22-7.95,6.7.05,7.06,7,7.06,7l-.06.11c-.29.49-1.87,2.63-7.1,2.45A32.42,32.42,0,0,1,6.11,8Z"/><path class="cls-5" d="M19,4.23c-.05-.13-.61-1,.46-1.16s.88-.76,1.32-.08.72,1.07.09,1.38C20,4.82,19.39,5.26,19,4.23Z"/><path class="cls-5" d="M19,5.41c-.44-1.55-.61-.8-1.5-.66-.44.07-.08.7-.07.92,0,0,.23,1.25,1.1,1.54s.53-.66.53-.66A7.61,7.61,0,0,0,19,5.41Z"/><path class="cls-5" d="M19.45,6.07s-.22-.53.79-.81,1-.92,1.37.17c.26.86-.57,1-.73,1a7,7,0,0,1-.79.44C19.73,7.05,19.45,6.07,19.45,6.07Z"/><path class="cls-5" d="M13.18,2.82a1,1,0,0,1,1.26-1c1.28.26,1,.47.62,1.4s-.6.91-1.16.9S12.62,4.3,13.18,2.82Z"/><path class="cls-5" d="M13,5.69c.1-.42-.13-1.07,1.48-.85,1.08.15.3.79.2,1.26S15,7.56,13.47,7.39,12.92,6.06,13,5.69Z"/><path class="cls-5" d="M15.28,6.58c.13-.35.59-2.94,1.69-.14.12.31.92,1,.15,1.16C15.6,8,15,7.27,15.28,6.58Z"/><path class="cls-5" d="M15.8,3a1.08,1.08,0,0,1,1.44-.78c.52.13.72.77.81.87s.67.69-.5,1.1-1.28,1.14-1.82.11A1.33,1.33,0,0,1,15.8,3Z"/><path class="cls-5" d="M17.46,1.24c-.09-.12-1-1,.37-.46a4.7,4.7,0,0,1,1.54.87c.24.11,1.23,1.08-.26,1-.36,0-.51.28-1.1-.47C17.71,1.74,17.61,1.45,17.46,1.24Z"/><path class="cls-5" d="M15.91.3c.27,0,1.62,1-.08,1.1a7.8,7.8,0,0,1-2.26-.12c-.94-.08-.27-.78-.05-.84s.73,0,1.18-.07A5.37,5.37,0,0,1,15.91.3Z"/><path class="cls-5" d="M9.91,3.46c-.25-.27-.81-.58.5-1.39s1.4-1.24,2-.4,0,1.45-.64,1.6S10.57,4.18,9.91,3.46Z"/><path class="cls-5" d="M10.21,5.65c.1-.48.3-1.64,1.55-1.16s.51,1.52.47,1.68.13,1.27-1.62.86C9.32,6.72,10.16,5.85,10.21,5.65Z"/><path class="cls-5" d="M7.89,5c.31-.28.9-.91,1.37-.94s.69-.35.2,1.29c-.44,1.47-1.1,1-1.49,1S6.89,5.91,7.89,5Z"/><path class="cls-5" d="M8.07,7s-.52-.22-.63.27-.15.57.37.71.61-.23.62-.36S8.65,7,8.07,7Z"/><path class="cls-5" d="M14.92,8.24s-.55-.13-.58.37-.05.59.48.64.57-.33.56-.46S15.5,8.23,14.92,8.24Z"/><path class="cls-5" d="M20.48,7.16s-.54.19-.29.62.28.52.75.28.3-.59.22-.68S21,6.83,20.48,7.16Z"/><path class="cls-5" d="M10.65,8.09c0-.22-.14-.31.87-.21.63.06.5.3.45.51-.15.57.15.35-.87.31C10.27,8.66,10.63,8.31,10.65,8.09Z"/><path class="cls-5" d="M16.3,8.3c-.15,0-.54-.09-.54.34,0,.59,0,.56.56.45s.61.36.56-.51c0-.57-.52-.28-.58-.28Z"/><path class="cls-5" d="M12.47,8.42s0-.6.73-.48.7.65.7.71.09.46-.78.33S12.41,8.89,12.47,8.42Z"/><path class="cls-5" d="M8.92,8s-.16-.79.58-.53.57.29.47.68-.3.46-.59.33S8.7,8.59,8.92,8Z"/><path class="cls-5" d="M6.53,6.42c.66.19.55.08.46.64-.12.8-.76.31-.76.31Z"/><path class="cls-5" d="M17.43,8.69c-.08-.57-.4-.4.49-.57.55-.11.52-.06.58.39s-.44.42-.44.42S17.52,9.29,17.43,8.69Z"/><path class="cls-5" d="M18.86,8.42s-.2-.37.4-.58.68.18.67.28.32.36-.39.59S19.05,9,18.86,8.42Z"/><path class="cls-5" d="M21.36,7.21s-.31-.33.25-.61.36-.54.54,0,0,.51-.16.6S21.54,7.84,21.36,7.21Z"/><path class="cls-3" d="M2.86,2c0-.11-.07-.19-.14-.18s-.13.09-.12.19.07.19.14.18S2.87,2.12,2.86,2Z"/><path class="cls-6" d="M3.42,3.09a.61.61,0,0,0-.66-.55.6.6,0,0,0-.58.62.62.62,0,0,0,1.24-.07Z"/><path class="cls-7" d="M2.85,2A.06.06,0,1,0,2.79,2,.06.06,0,0,0,2.85,2Z"/><path class="cls-7" d="M2.43,1.81a.06.06,0,0,0-.12,0,.06.06,0,0,0,.12,0Z"/></g></g></svg>