<svg xmlns="http://www.w3.org/2000/svg" viewBox="0 0 16.96 18.8"><defs><style>.cls-1{fill:#4f423c;}.cls-2{fill:#b0adad;}.cls-3{fill:#f37577;}.cls-4{fill:#fcb141;}.cls-5{fill:#cc6971;}.cls-6{fill:#f7f4f0;}.cls-7{fill:#2d1c1c;}.cls-8{fill:#38302b;}.cls-9{fill:#0d0a0a;}</style></defs><g id="Layer_2" data-name="Layer 2"><g id="Layer_2-2" data-name="Layer 2"><path class="cls-1" d="M5.32,3.94c-1.23-.22-5.23.37-4.79,7s1.5,4.75,1.73,5,.51.45.49.61-1.13,1.78-.72,2c.2.11.46-.27.46-.27s0,.47.13.52.47-.42.47-.42-.07.29.12.36.86-.81,1.4-1.75c0,0,3.29-1.4,4.54-3.83s.76-6.07-1.24-7.73A4.36,4.36,0,0,0,5.32,3.94Z"/><path class="cls-2" d="M7.82,5.79a2.2,2.2,0,0,0-.93-1.56s.09,1.06-.33,1c0,0-.38-1-1.08-.91a.72.72,0,0,1,.12,1,2.37,2.37,0,0,0-2.29.24s.78,0,.87.63c0,0-.84,0-1,.51,0,0,1.5,2,1.35,3.45,0,0,.6,0,.73-.26,0,0,.31.55.17.86a1.38,1.38,0,0,0,1-1.12,4.92,4.92,0,0,1,.73,1.3,1.19,1.19,0,0,0,.46-1.37A4,4,0,0,1,8.8,10.73a1.5,1.5,0,0,0,0-1.65C8.22,8.18,8.65,8,8.65,8s.87-.92.68-1.57c0,0-.65.2-.85.07a4.3,4.3,0,0,0-.05-1.35S8.15,5.69,7.82,5.79Z"/><path class="cls-3" d="M11.76,4.6s1.84,1.33,2.65-1.14S12.24.88,11.71,1s-2,.19-1.76,2.52c.19,1.64,1.72,1.93,1.75,4,0,1.58-2.59.92-4-.23-1.91-1.52-1.36.56-.55,1.22A6,6,0,0,0,11.2,9.63,2.07,2.07,0,0,0,13,7.37,10.05,10.05,0,0,0,11.76,4.6Z"/><path class="cls-4" d="M17,5.06a2.8,2.8,0,0,0-1-2.39c-1.14-.67-2.1-.44-2.14.48s.47,1.28,1,1.34,1-.41,1.44-.23A1.23,1.23,0,0,1,17,5.06Z"/><path class="cls-5" d="M11.78,2.56a.76.76,0,0,0,.58.87.76.76,0,0,0,1-.33.75.75,0,0,0-.58-.86A.75.75,0,0,0,11.78,2.56Z"/><path class="cls-6" d="M12.07,2.54c-.08.22.1.49.4.59a.52.52,0,0,0,.68-.22.52.52,0,0,0-.4-.6A.51.51,0,0,0,12.07,2.54Z"/><path class="cls-7" d="M12.5,2.54a.2.2,0,0,1,.15-.24.21.21,0,0,1,.24.15.2.2,0,0,1-.15.24A.19.19,0,0,1,12.5,2.54Z"/><path class="cls-7" d="M11.26,1.5h0s0,0,0,0-.4-.72-.75-.77c0,0,0,0,0,0a0,0,0,0,0,0,0c.33.05.72.74.72.75Z"/><path class="cls-7" d="M11.52,1.34h0s0,0,0,0A1.88,1.88,0,0,1,11.64,0a0,0,0,0,0,0,0h0a2,2,0,0,0-.1,1.32S11.51,1.34,11.52,1.34Z"/><path class="cls-7" d="M11.92,1.35h0s0,0,0,0c-.11-.39.33-.79.34-.8s0,0,0,0,0,0,0,0-.47.42-.35.84C11.9,1.35,11.91,1.36,11.92,1.35Z"/><path class="cls-7" d="M11,5.86h0l.3-.21a0,0,0,0,0,0,0h0l-.3.2s0,0,0,0Z"/><path class="cls-7" d="M12.66,5.9h0l0,0a.67.67,0,0,0-.43,0l0,0s0,0,0,0a.7.7,0,0,1,.41,0Z"/><path class="cls-7" d="M12.5,7.62h0a0,0,0,0,0,0,0,.6.6,0,0,0-.33-.27l0,0s0,0,0,0a.58.58,0,0,1,.31.25Z"/><path class="cls-7" d="M11.94,9.5h0s0,0,0,0a.78.78,0,0,0-.22-.43,0,0,0,0,0,0,0v0a.73.73,0,0,1,.21.41S11.93,9.51,11.94,9.5Z"/><path class="cls-7" d="M9.33,9.18h0a.82.82,0,0,0,.19-.25s0,0,0,0h0a.79.79,0,0,1-.17.24s0,0,0,0Z"/><path class="cls-8" d="M2.69,6.27C1.89,6.16,1,7,.46,8.24a3.93,3.93,0,0,0-.41,2.38c.09.07.14-.27.14-.27a8,8,0,0,0,.51,4.5c.06.12.16-.14.16-.14s.5,1.95,1.1,2c.3,0,2.65-1.5,2.87-5.25S3.61,6.39,2.69,6.27Z"/><path class="cls-9" d="M6,12.36H6a2.54,2.54,0,0,0,.15-1l0,0,0,0a2.42,2.42,0,0,1-.15,1s0,0,0,0Z"/><path class="cls-9" d="M4.82,14.47h0a2.26,2.26,0,0,0,.42-.81l0,0h0a2.43,2.43,0,0,1-.41.8,0,0,0,0,0,0,0Z"/><path class="cls-9" d="M4,16.44H4a1.4,1.4,0,0,0,.4-.8,0,0,0,0,0,0,0,0,0,0,0,0,0,0,1.5,1.5,0,0,1-.39.77,0,0,0,0,0,0,0Z"/><path class="cls-9" d="M5.33,15.72h0c.26-.09.58-.71.59-.73a0,0,0,0,0,0,0s0,0,0,0-.32.63-.56.71c0,0,0,0,0,0Z"/><path class="cls-9" d="M6.18,13.73h0a1.24,1.24,0,0,0,.27-.88l0,0s0,0,0,0a1.29,1.29,0,0,1-.27.84,0,0,0,0,0,0,0Z"/><path class="cls-9" d="M7.21,12.59h0a1.27,1.27,0,0,0,.22-.73l0,0,0,0a1.36,1.36,0,0,1-.21.71s0,0,0,0Z"/><path class="cls-9" d="M7.19,14.55h0a1.36,1.36,0,0,0,.47-.82s0,0,0,0a0,0,0,0,0,0,0,1.3,1.3,0,0,1-.46.8,0,0,0,0,0,0,0S7.18,14.55,7.19,14.55Z"/><path class="cls-9" d="M8.36,12.72h0a1.28,1.28,0,0,0,.2-.88s0,0,0,0l0,0a1.35,1.35,0,0,1-.19.84,0,0,0,0,0,0,0Z"/><path class="cls-9" d="M3,9.19a.33.33,0,0,0,.17-.12,0,0,0,0,0,0,0h0c-.07.09-.14.13-.19.11-.25-.09-.3-1.22-.3-1.64,0,0,0,0,0,0s0,0,0,0,0,1.56.32,1.68Z"/><path class="cls-9" d="M4,11.6c.06,0,.12-.08.2-.19s0,0,0,0,0,0,0,0-.15.18-.2.17-.16-1.06-.1-1.71l0,0,0,0c0,.17-.15,1.65.13,1.75Z"/><path class="cls-9" d="M1.3,9.27c.06,0,.12-.08.2-.21a0,0,0,0,0,0,0,0,0,0,0,0,0,0c-.12.19-.18.2-.19.19s-.07-.77,0-1.22l0,0,0,0c0,.2-.16,1.19,0,1.26Z"/><path class="cls-9" d="M2,12.2c.08,0,.18-.12.3-.31a0,0,0,0,0,0,0s0,0,0,0c-.17.27-.26.3-.31.28-.26-.09-.15-1.62-.08-2.2,0,0,0,0,0,0l0,0c0,.22-.24,2.14.1,2.25Z"/><path class="cls-9" d="M3.23,14.22a.5.5,0,0,0,.2-.15s0,0,0,0h0c-.09.11-.17.16-.23.13-.27-.12-.13-1.66,0-2.24,0,0,0,0,0,0l0,0c0,.09-.28,2.13.07,2.29Z"/><path class="cls-9" d="M2.25,15.59a.46.46,0,0,0,.22-.19,0,0,0,0,0,0,0h0c-.1.14-.18.2-.25.17C1.88,15.43,1.91,13.69,2,13c0,0,0,0,0,0l0,0c0,.1-.14,2.42.27,2.56Z"/><path class="cls-9" d="M1,13.17A.5.5,0,0,0,1.21,13a0,0,0,0,0,0,0h0c-.11.13-.2.18-.26.15C.62,13,.78,11.2.87,10.53l0,0,0,0c0,.1-.31,2.47.08,2.64A.14.14,0,0,0,1,13.17Z"/><path class="cls-7" d="M5.87,16.7a1.36,1.36,0,0,1,.55-.22,4.9,4.9,0,0,0-.25-1c.1-.17.47-.1.47-.1s0,.7,0,1h0a1.41,1.41,0,0,1,1.05,0,1.19,1.19,0,0,1,.57.63.1.1,0,0,1-.06.11h0a.1.1,0,0,1-.1-.06.91.91,0,0,0-.47-.52,1.08,1.08,0,0,0-.76,0,1.55,1.55,0,0,1,1.16,1,.09.09,0,0,1-.06.11H8a.08.08,0,0,1-.1-.06,1.34,1.34,0,0,0-.9-.85,1.57,1.57,0,0,1,.37.88.08.08,0,0,1-.07.08h0a.09.09,0,0,1-.09-.08s-.06-.89-.77-1h0a1,1,0,0,0-.44.19H6a.08.08,0,0,1-.09,0A.09.09,0,0,1,5.87,16.7Z"/><path class="cls-7" d="M4.42,17A1.34,1.34,0,0,1,5,16.8a5,5,0,0,0-.25-1c.11-.17.47-.11.47-.11s0,.7,0,1.05h0a1.32,1.32,0,0,1,1,0,1.13,1.13,0,0,1,.57.62.09.09,0,0,1-.06.11h0a.08.08,0,0,1-.1,0,1,1,0,0,0-.48-.53,1.14,1.14,0,0,0-.76,0,1.55,1.55,0,0,1,1.16,1,.07.07,0,0,1,0,.1h0a.09.09,0,0,1-.1-.06,1.34,1.34,0,0,0-.9-.85,1.57,1.57,0,0,1,.37.87.1.1,0,0,1-.07.09h0A.08.08,0,0,1,5.74,18s-.06-.89-.77-1H5a1.21,1.21,0,0,0-.44.18l0,0a.08.08,0,0,1-.09,0A.08.08,0,0,1,4.42,17Z"/></g></g></svg>