<svg xmlns="http://www.w3.org/2000/svg" viewBox="0 0 23.6 13.7"><defs><style>.cls-1{fill:#924c33;}.cls-2{fill:#010101;}.cls-3{fill:#a35c3d;}.cls-4{fill:#fff;}.cls-5{fill:#ae764d;}.cls-6{fill:#421b1b;}.cls-7{fill:#813d27;}</style></defs><g id="Layer_2" data-name="Layer 2"><g id="Layer_2-2" data-name="Layer 2"><path class="cls-1" d="M17,12.32c.13-.65,1.55-.67,1.55-.67s-.13.47.61.56a1.18,1.18,0,0,1,.88.5,2.08,2.08,0,0,0-.4-.08s0,0,0,0,0,0,0,0a2.11,2.11,0,0,1,.45.09.58.58,0,0,1,.07.21,2,2,0,0,0-.6-.12h0s0,0,0,0,0,0,0,0a2.13,2.13,0,0,1,.61.12.64.64,0,0,1,0,.2,1.74,1.74,0,0,0-.54-.11h0a0,0,0,0,0,0,0s0,0,0,0a1.51,1.51,0,0,1,.52.1l0,.07c-.31.4-2.32-.19-2.32-.19S16.83,13,17,12.32Z"/><path class="cls-2" d="M19.49,12.88s0,0,0,0h0a2,2,0,0,1,.6.12.11.11,0,0,1,0,0,2.13,2.13,0,0,0-.61-.12S19.49,12.9,19.49,12.88Z"/><path class="cls-2" d="M19.53,13.14a0,0,0,0,1,0,0h0a1.74,1.74,0,0,1,.54.11s0,0,0,0a1.51,1.51,0,0,0-.52-.1S19.53,13.16,19.53,13.14Z"/><path class="cls-2" d="M19.57,12.65s0,0,0,0a2.08,2.08,0,0,1,.4.08l0,.06a2.11,2.11,0,0,0-.45-.09S19.57,12.66,19.57,12.65Z"/><path class="cls-1" d="M1.13,11.4l0,0s0,0,0,0a2,2,0,0,0-.66-.08l.07-.18a1.82,1.82,0,0,1,.57.06h0s0,0,0,0a1.58,1.58,0,0,0-.57-.06c.43-.8,3.13.43,3.13.43l-.23.78L.45,12s-.22-.07,0-.72a2.32,2.32,0,0,1,.67.09Z"/><path class="cls-2" d="M1.13,11.35s0,0,0,0l0,0h0a2.32,2.32,0,0,0-.67-.09l0,0A2,2,0,0,1,1.13,11.35Z"/><path class="cls-2" d="M1.13,11.11s0,0,0,0h0a1.82,1.82,0,0,0-.57-.06h0l0,0A1.58,1.58,0,0,1,1.13,11.11Z"/><path class="cls-3" d="M.72,12.14A2.09,2.09,0,0,0,0,12.05v0a.91.91,0,0,0,0,.17,1.37,1.37,0,0,1,.59.08s0,0,0,0l0,0h0A1.52,1.52,0,0,0,0,12.3c.23,1.09,3.11.5,3.11.5l1.06,0,2.31.07,3.84-.1,0,.1a2.42,2.42,0,0,1,.76,0,0,0,0,0,1,0,0s0,0,0,0a2.13,2.13,0,0,0-.75,0,.47.47,0,0,0,0,.2,1.55,1.55,0,0,1,.64,0s0,0,0,0a0,0,0,0,1,0,0,1.54,1.54,0,0,0-.62,0c.15.34.73.65,2.31.44a2.17,2.17,0,0,0,1.65-.86l.08-.14a6.2,6.2,0,0,0,3.09-.29,6.3,6.3,0,0,0,2.19-1.45c2.45-2.47,2.27-6.5,2.27-6.5A4.48,4.48,0,0,0,17.31,0s-2.53,0-3.48,1.79a8.64,8.64,0,0,0-1.38.38A3.77,3.77,0,0,0,11.2,3.35,3,3,0,0,0,9,5,6.37,6.37,0,0,0,6,7a14.5,14.5,0,0,0-2.63,4.9S.62,10.9.09,11.8a1.64,1.64,0,0,1,.64,0s0,0,0,0h0a1.64,1.64,0,0,0-.66,0A.75.75,0,0,0,0,12a2.26,2.26,0,0,1,.73.08,0,0,0,0,1,0,0,0,0,0,0,1,0,0Zm9.59.57a1.35,1.35,0,0,1,.73,0s0,0,0,0,0,0,0,0a1.46,1.46,0,0,0-.7,0h0S10.3,12.72,10.31,12.71Z"/><path class="cls-2" d="M11.07,12.91a0,0,0,0,1,0,0s0,0,0,0a2.13,2.13,0,0,0-.75,0,.43.43,0,0,1,0,0A2.42,2.42,0,0,1,11.07,12.91Z"/><path class="cls-2" d="M11,13.15s0,0,0,0a0,0,0,0,1,0,0,1.54,1.54,0,0,0-.62,0s0,0,0,0A1.55,1.55,0,0,1,11,13.15Z"/><path class="cls-2" d="M11,12.67s0,0,0,0,0,0,0,0a1.46,1.46,0,0,0-.7,0h0s0,0,0,0A1.35,1.35,0,0,1,11,12.67Z"/><path class="cls-2" d="M.74,12.09a0,0,0,0,1,0,0,0,0,0,0,1,0,0h0A2.09,2.09,0,0,0,0,12.05v0A2.26,2.26,0,0,1,.74,12.09Z"/><path class="cls-2" d="M.6,12.33s0,0,0,0l0,0h0A1.52,1.52,0,0,0,0,12.3a.09.09,0,0,1,0-.05A1.37,1.37,0,0,1,.6,12.33Z"/><path class="cls-2" d="M.73,11.85s0,0,0,0h0a1.64,1.64,0,0,0-.66,0l0,0A1.64,1.64,0,0,1,.73,11.85Z"/><path class="cls-4" d="M18.58,5.54a25.47,25.47,0,0,1,.18,3.23c-.09.64,1.31-1.25.7-2.91Z"/><path class="cls-4" d="M16.76,5.54a27,27,0,0,0-.14,3.23c.11.65-1.32-1.23-.73-2.89Z"/><path class="cls-5" d="M18.6,3.48c.63-.1,2.29-.41,2.41.74.1.91-1.09,3.27-3.36.73,0,0-2.47,3-3.35-.59-.3-1.17,1.78-1,2.41-.85.22,0,.85.2.85.2S18.34,3.52,18.6,3.48Z"/><path class="cls-5" d="M10.34,12.8s-2.31.12-3.08.12c-.58,0-2.31-.06-2.31-.06H4.64a9.18,9.18,0,0,1,4-1.47c2.23-.4,3.77-.52,4-.17s.28.8-1.14,1.11a3.69,3.69,0,0,0-1,.28A1.1,1.1,0,0,0,10.34,12.8Z"/><path class="cls-5" d="M17.32,12.39a5.5,5.5,0,0,1-3,.24,1.64,1.64,0,0,0,.16-1s-.12-.48,1.19-.59c.54,0,2.13,0,1.72,1.3Z"/><path class="cls-2" d="M18.78,2.4h0a.73.73,0,0,1,.54-.32h0a.87.87,0,0,1,.58.29.06.06,0,0,0,.07,0,0,0,0,0,0,0-.07A1,1,0,0,0,19.36,2a.79.79,0,0,0-.61.35,0,0,0,0,0,0,.06Z"/><path class="cls-2" d="M15.11,2.48h0a.72.72,0,0,1,.54-.32h0a.94.94,0,0,1,.58.29s0,0,.06,0a.06.06,0,0,0,0-.07,1,1,0,0,0-.65-.32.82.82,0,0,0-.62.35s0,0,0,.06Z"/><path class="cls-2" d="M23.56,5.33a0,0,0,0,0,0,0s0,0,0,0L20,4.24s0,0,0,0,0,0,0,0l3.54,1Z"/><path class="cls-2" d="M19.55,4l2.72-.06s0,0,0,0a0,0,0,0,0,0,0l-2.72.06a0,0,0,0,0,0,0S19.53,4,19.55,4Z"/><path class="cls-2" d="M21.67,5.51l0,0s0,0,0,0L19.07,4.26s0,0,0,0,0,0,0,0l2.62,1.19Z"/><path class="cls-2" d="M22.2,6.83a0,0,0,0,0,0,0,0,0,0,0,0,0,0L19.46,4.93a0,0,0,0,0-.05,0s0,0,0,0l2.76,1.83Z"/><path class="cls-2" d="M20.71,6.86s0,0,0,0a0,0,0,0,0,0,0L19.1,5.19a0,0,0,0,0-.05,0l1.63,1.61Z"/><path class="cls-2" d="M11.77,5.4h0l3.53-1.07a0,0,0,0,0,0,0s0,0,0,0L11.76,5.34s0,0,0,0Z"/><path class="cls-2" d="M15.76,4s0,0,0,0a0,0,0,0,0,0,0l-2.71,0s0,0,0,0,0,0,0,0l2.71,0Z"/><path class="cls-2" d="M13.67,5.56h0l2.6-1.22s0,0,0,0a0,0,0,0,0,0,0l-2.6,1.22a0,0,0,0,0,0,0S13.65,5.56,13.67,5.56Z"/><path class="cls-2" d="M13.16,6.88h0L15.91,5a0,0,0,0,0,0,0s0,0-.05,0L13.14,6.82a0,0,0,0,0,0,0S13.15,6.89,13.16,6.88Z"/><path class="cls-2" d="M14.65,6.89h0l1.61-1.63a0,0,0,0,0,0,0h-.05l-1.6,1.64s0,0,0,0Z"/><path class="cls-2" d="M14.34,4.63a0,0,0,0,1,.05,0S14.71,5.84,15.53,6c.58.14,1.27-.23,2-1.08h0l0-1a0,0,0,0,1,0,0,0,0,0,0,1,.05,0l0,1c.82.85,1.54,1.2,2.13,1,.82-.22,1.12-1.37,1.12-1.39a.06.06,0,0,1,.06,0,0,0,0,0,1,0,.06s-.31,1.21-1.19,1.45a1.26,1.26,0,0,1-.28,0,2.92,2.92,0,0,1-1.93-1.09,2.89,2.89,0,0,1-1.81,1.11,1,1,0,0,1-.3,0c-.87-.21-1.19-1.39-1.2-1.44A0,0,0,0,1,14.34,4.63Z"/><path class="cls-6" d="M17.6,4.05a1.42,1.42,0,0,1-.74-.4c-.13-.2.36-.33.56-.24s.17.12.26.07c.29-.18.75,0,.68.13A1.29,1.29,0,0,1,17.6,4.05Z"/><path class="cls-7" d="M8.89,5.5a0,0,0,0,0,0,0C8.92,5.36,9,5,9,5a1.64,1.64,0,0,0-.14.48,0,0,0,0,0,0,0Z"/><path class="cls-7" d="M11,4a0,0,0,0,0,0,0c.06-.36.16-.62.15-.63A1.28,1.28,0,0,0,11,4s0,0,0,0Z"/><path class="cls-7" d="M13.63,2.68s0,0,0,0a3,3,0,0,1,.19-.91s-.21.22-.26.9c0,0,0,0,0,0Z"/></g></g></svg>