<svg xmlns="http://www.w3.org/2000/svg" viewBox="0 0 37.11 14.52"><defs><style>.cls-1{fill:#414b5a;}.cls-2{fill:#384250;}.cls-3{fill:#f8f7f7;}.cls-4{fill:#191818;}.cls-5{fill:#f8f7f2;}</style></defs><g id="Layer_2" data-name="Layer 2"><g id="Layer_2-2" data-name="Layer 2"><path class="cls-1" d="M35.71,2.26c1.06,1.18,2.22,2.13.59,8.32,0,0-3.29.58-5.4-.84a5.84,5.84,0,0,0,5.23,1.51s0,.67-1.17.85-11.13.61-12.46.62-7.48.5-11.8-1.47a8.24,8.24,0,0,1-4.37-4.6c-.75-1.39-2.4-.78-3.69-1.52A8.26,8.26,0,0,1,0,2a2,2,0,0,0,1.56.63c1.5-.11,3.21.08,4.23,1.3A4.2,4.2,0,0,1,9,.87,4.94,4.94,0,0,0,10.85,0,7.81,7.81,0,0,1,9.06,3.86C8.11,4.78,6.58,5,7.26,6.4A2.66,2.66,0,0,0,9.11,7.54c1.81.36,4.87-1,7.74-2.17C23.51,2.64,33.19-.52,35.71,2.26Z"/><path class="cls-2" d="M22.57,13.72a2.37,2.37,0,0,0,1.51.79,2.4,2.4,0,0,0,1.43-1.57c.2-.74-.05-1.54-.57-1.5s-.36.66-.58,1C24,13,22.52,13.44,22.57,13.72Z"/><path class="cls-3" d="M27.61,9.06a.48.48,0,0,1,.45-.51.48.48,0,1,1-.45.51Z"/><path class="cls-4" d="M28,9a.19.19,0,0,1,.18-.21.2.2,0,0,1,.22.19.21.21,0,0,1-.19.21A.19.19,0,0,1,28,9Z"/><path class="cls-5" d="M28.11,9a.08.08,0,0,1,.07-.08.07.07,0,0,1,.08.07.08.08,0,0,1-.07.09A.08.08,0,0,1,28.11,9Z"/></g></g></svg>