<svg xmlns="http://www.w3.org/2000/svg" viewBox="0 0 27.95 21.57"><defs><style>.cls-1{fill:#524c4f;}.cls-2{fill:#969294;}.cls-3{fill:#665d62;}.cls-4{fill:#262323;}.cls-5{fill:#dcccce;}</style></defs><g id="Layer_2" data-name="Layer 2"><g id="Layer_2-2" data-name="Layer 2"><path class="cls-1" d="M7.51,11.21s-1.13.84-.81,1.06a4.22,4.22,0,0,0,2.06,0l.05,0C9,12.1,7.51,11.21,7.51,11.21Z"/><path class="cls-1" d="M4.48,8.58S3.3,9.69,3.79,9.72a10.07,10.07,0,0,0,1.64-.15L5.5,9.5Z"/><path class="cls-1" d="M4.74,6.91S4.55,5.2,5,5.36s1.33,2,1.77,2.05Z"/><path class="cls-1" d="M.78,5.74C.84,6.31-.4,10,.16,9.61S1.7,7,2.18,7c1-.15.32-.25.45-.42s.51-.17.42-.17-.49-.65-.74-1.14C1.13,2.94.66,0,.09,0-.29,0,.66,4.64.78,5.74Z"/><path class="cls-2" d="M13.38,16.86l-.5,0A20.84,20.84,0,0,0,20.5,21,38.25,38.25,0,0,1,16,18.23C15.28,17.87,13.88,16.85,13.38,16.86Z"/><polygon class="cls-2" points="22.43 21.56 22.43 21.56 22.43 21.56 22.43 21.56"/><path class="cls-2" d="M10.52,14.3c-.17-.21-1-1-1.91-1.93a17.66,17.66,0,0,0,1.48,2.09C10.37,14.38,10.53,14.32,10.52,14.3Z"/><path class="cls-3" d="M20,10.39C12.68,7.12,10,7.67,7.29,7.33S2.35,5.62,2.06,6.19s3,3.12,4,3.84c.5.37,1.6,1.39,2.58,2.34s1.74,1.72,1.91,1.93c0,0-.15.08-.43.16-1.54.43-6.8,1.58-6.92,2.14-.07.27.26.42.57.53s7.16-.17,9.14-.25l.5,0c.5,0,1.9,1,2.66,1.37A38.25,38.25,0,0,0,20.5,21a5.92,5.92,0,0,0,1.93.54h0a4,4,0,0,0,.49,0,7,7,0,0,0,3-1.07,5.73,5.73,0,0,0,2-3.4C28,15.67,27.34,13.65,20,10.39Z"/><circle class="cls-4" cx="21.52" cy="20.69" r="0.21"/><path class="cls-4" d="M27.35,15.23a.19.19,0,0,0-.38,0,.19.19,0,1,0,.38,0Z"/><path class="cls-4" d="M25.3,20.13c1.18-.69,1.8-2.8,1.8-2.8a4.39,4.39,0,0,1-1.24,2.88c-.7.57-1.41.62-2.91.67A10,10,0,0,0,25.3,20.13Z"/><path class="cls-1" d="M9.39,2.87C9,3,9,7.62,9.32,8s3.25,1.5,3.44,1.3S10.53,2.47,9.39,2.87Z"/><path class="cls-5" d="M7.57,7.8s0,.17.07.19.16,0,.18-.06S7.75,7.68,7.57,7.8Z"/><path class="cls-5" d="M8.34,8.35a.14.14,0,0,0,.11.2c.12,0,.18,0,.21-.05S8.42,8.23,8.34,8.35Z"/><path class="cls-5" d="M7.37,9.1a.15.15,0,0,0,.11.19c.11,0,.2,0,.17-.14S7.47,9,7.37,9.1Z"/><path class="cls-5" d="M8.53,9.39a.1.1,0,0,0,.05.16c.06,0,.1,0,.09-.09A.09.09,0,0,0,8.53,9.39Z"/><path class="cls-5" d="M2.82,6.82A.1.1,0,0,0,2.87,7c.06,0,.1,0,.09-.09A.09.09,0,0,0,2.82,6.82Z"/><path class="cls-5" d="M7.64,11.24c-.07,0,0,.16.05.16a.08.08,0,0,0,.08-.1C7.76,11.25,7.69,11.19,7.64,11.24Z"/><path class="cls-5" d="M14.5,10.68c-.06.05,0,.15.05.15s.1,0,.09-.09S14.56,10.63,14.5,10.68Z"/><path class="cls-5" d="M16.43,15.8c-.06,0,0,.16.05.16s.1,0,.09-.09S16.49,15.75,16.43,15.8Z"/><path class="cls-5" d="M15.24,17.1a.1.1,0,0,0,0,.16.07.07,0,0,0,.08-.09C15.36,17.12,15.29,17.06,15.24,17.1Z"/><path class="cls-5" d="M11.91,7.64A.1.1,0,0,0,12,7.8c.06,0,.1,0,.09-.09A.09.09,0,0,0,11.91,7.64Z"/><path class="cls-5" d="M9.58,7.8c-.08.06,0,.18.07.18s.13,0,.12-.1A.13.13,0,0,0,9.58,7.8Z"/><path class="cls-5" d="M7.46,16.64c-.07.05,0,.16,0,.16a.08.08,0,0,0,.08-.1C7.58,16.65,7.51,16.59,7.46,16.64Z"/><path class="cls-5" d="M6,15.6c-.07.05,0,.15,0,.15a.08.08,0,0,0,.08-.09C6.16,15.61,6.09,15.55,6,15.6Z"/><path class="cls-5" d="M4.47,8.37a.09.09,0,0,0,0,.15.07.07,0,0,0,.08-.09S4.52,8.32,4.47,8.37Z"/><path class="cls-5" d="M6.79,8.68a.09.09,0,0,0,0,.15c.06,0,.09,0,.08-.09S6.84,8.63,6.79,8.68Z"/><path class="cls-5" d="M6,7.23c-.06,0,0,.15,0,.15s.1,0,.09-.09S6,7.18,6,7.23Z"/><path class="cls-5" d="M8.86,7.56a.09.09,0,0,0,.05.15c.06,0,.1,0,.09-.09S8.91,7.51,8.86,7.56Z"/><path class="cls-5" d="M9.74,15.4c-.07,0,0,.15,0,.15a.07.07,0,0,0,.08-.09C9.86,15.41,9.79,15.35,9.74,15.4Z"/><path class="cls-5" d="M7.7,10.31a.18.18,0,0,0,.19.24A.19.19,0,0,0,8,10.28C8,10.22,7.81,10.11,7.7,10.31Z"/><path class="cls-5" d="M8.57,11.3c.11,0,.23-.12.18-.18s-.1-.1-.18,0S8.5,11.27,8.57,11.3Z"/><path class="cls-5" d="M6.64,9.93c.1,0,.3-.11.2-.27a.16.16,0,0,0-.3,0C6.52,9.78,6.54,9.9,6.64,9.93Z"/><path class="cls-5" d="M6.32,7.87c-.07,0-.09.29,0,.31S6.64,8.1,6.6,8A.19.19,0,0,0,6.32,7.87Z"/><path class="cls-5" d="M5.73,9.06c0,.09.08.14.2.1S6,9,5.93,8.92A.15.15,0,0,0,5.73,9.06Z"/><path class="cls-5" d="M4.93,8.36a.18.18,0,0,0,.27.1c.15-.1,0-.23,0-.25S4.92,8.19,4.93,8.36Z"/><path class="cls-5" d="M5,7.41c0,.07.08.17.18.16s.13-.12.08-.16S5,7.28,5,7.41Z"/><path class="cls-5" d="M5.65,7.84c-.06,0-.06.26,0,.26A.14.14,0,0,0,5.83,8C5.81,7.84,5.73,7.77,5.65,7.84Z"/><path class="cls-5" d="M4.38,7.63c-.08,0-.18.14-.11.21a.15.15,0,0,0,.23,0A.13.13,0,0,0,4.38,7.63Z"/><path class="cls-5" d="M3.79,7.15c0,.07.21.15.29.06S4.05,7,4,7,3.79,7.05,3.79,7.15Z"/><path class="cls-5" d="M10.06,4.19c-.05,0-.12.23,0,.29a.17.17,0,0,0,.25-.11A.2.2,0,0,0,10.06,4.19Z"/><path class="cls-5" d="M9.54,5.27c.11.05.22-.19.15-.28a.14.14,0,0,0-.23,0A.19.19,0,0,0,9.54,5.27Z"/><path class="cls-5" d="M10,5.84c0,.12.2.23.27.12A.15.15,0,1,0,10,5.84Z"/><path class="cls-5" d="M10.74,5.42c0,.1.29.07.31,0s-.08-.19-.13-.18S10.69,5.31,10.74,5.42Z"/><path class="cls-5" d="M9.5,6.86s.2,0,.21-.07-.09-.11-.13-.09S9.46,6.79,9.5,6.86Z"/><path class="cls-5" d="M10.26,7.3a.11.11,0,0,0-.11.16c0,.09.17.06.18,0A.11.11,0,0,0,10.26,7.3Z"/><path class="cls-5" d="M11.25,7.14s-.12,0-.11.11a.08.08,0,0,0,.12,0S11.34,7.18,11.25,7.14Z"/><path class="cls-5" d="M9.82,8.53s-.12,0-.11.11.11.08.12,0S9.91,8.57,9.82,8.53Z"/><path class="cls-5" d="M9.68,3.47s-.12,0-.11.11.1.07.12,0S9.77,3.51,9.68,3.47Z"/><path class="cls-5" d="M14.85,8.92s-.11,0-.11.11.11.08.12.05S14.94,9,14.85,8.92Z"/><path class="cls-5" d="M18.21,9.84s-.12,0-.11.1.1.08.12.05S18.3,9.88,18.21,9.84Z"/><path class="cls-5" d="M14.05,12.79s-.12.05-.11.11.1.08.12,0S14.14,12.83,14.05,12.79Z"/><path class="cls-5" d="M10.7,12.29s-.12,0-.11.1.1.08.12,0S10.79,12.32,10.7,12.29Z"/><path class="cls-5" d="M10.81,8.05c-.05,0-.1.49.11.42a.22.22,0,0,0,.14-.3C11,8.12,10.92,8,10.81,8.05Z"/><path class="cls-5" d="M11.17,10.2c0,.11.2.18.27,0a.14.14,0,0,0-.11-.22C11.28,10,11.17,10.05,11.17,10.2Z"/><path class="cls-5" d="M11.57,11.31c-.07,0,0,.24,0,.26s.2,0,.2-.1S11.69,11.23,11.57,11.31Z"/><path class="cls-5" d="M11.67,12.59c0,.13.22.12.28,0s0-.2-.11-.2S11.65,12.46,11.67,12.59Z"/><path class="cls-5" d="M11.56,14c0,.07.2,0,.23,0s0-.2-.12-.19A.15.15,0,0,0,11.56,14Z"/><path class="cls-5" d="M12.79,13.67c0,.12.17.29.28.21a.19.19,0,0,0,0-.32A.19.19,0,0,0,12.79,13.67Z"/><path class="cls-5" d="M14.2,14.83c0,.15.27.22.32.14s.06-.24,0-.28A.19.19,0,0,0,14.2,14.83Z"/><path class="cls-5" d="M13.31,15.81c0,.08.24.21.32.13a.17.17,0,0,0-.05-.27C13.47,15.62,13.28,15.62,13.31,15.81Z"/><path class="cls-5" d="M11.47,16.3c-.09.06,0,.28.1.26s.17-.12.16-.18A.18.18,0,0,0,11.47,16.3Z"/><path class="cls-5" d="M11.62,15.27c0,.08.34,0,.34-.09s-.14-.17-.23-.15A.19.19,0,0,0,11.62,15.27Z"/><path class="cls-5" d="M10.48,15.7c0,.11.25.13.34.06s0-.19-.1-.23S10.47,15.58,10.48,15.7Z"/><path class="cls-5" d="M10.29,14.84a.19.19,0,0,0,.31-.05c0-.11-.09-.18-.16-.18S10.19,14.75,10.29,14.84Z"/><path class="cls-5" d="M9.54,16.32c0,.12.27.15.34.08s.08-.26-.06-.29S9.53,16.11,9.54,16.32Z"/><path class="cls-5" d="M8.92,15.5c0,.13.27.15.35.06a.16.16,0,0,0-.14-.24C9,15.31,8.89,15.36,8.92,15.5Z"/><path class="cls-5" d="M6.57,16.09s.17.13.24.05a.11.11,0,0,0,0-.18S6.55,16,6.57,16.09Z"/><path class="cls-5" d="M7.67,15.58c0,.11.28.11.37,0s0-.25-.18-.22S7.65,15.47,7.67,15.58Z"/><path class="cls-5" d="M8.14,16.38c0,.09.22.2.31.15s.12-.23,0-.28S8.14,16.26,8.14,16.38Z"/><path class="cls-5" d="M4.43,16.24c0,.07-.06.26.07.3s.29-.08.26-.19S4.51,16.12,4.43,16.24Z"/><path class="cls-5" d="M5.29,16.39c0,.08.19.21.28.13s0-.19,0-.22S5.31,16.25,5.29,16.39Z"/><path class="cls-5" d="M16.23,14.87c0,.11.18.13.23.08a.13.13,0,0,0-.05-.2C16.35,14.73,16.22,14.73,16.23,14.87Z"/><path class="cls-5" d="M15.25,16.33c.05.06.17,0,.23,0s0-.21-.1-.21S15.17,16.24,15.25,16.33Z"/><path class="cls-5" d="M15.75,17.67c0,.11.1.22.23.17s.07-.24,0-.25S15.79,17.54,15.75,17.67Z"/><path class="cls-5" d="M17.16,16.14c0,.12.15.23.29.17s.09-.24,0-.3A.23.23,0,0,0,17.16,16.14Z"/><path class="cls-5" d="M17.05,17.12c0,.06.1.19.21.12s0-.16,0-.18A.14.14,0,0,0,17.05,17.12Z"/><path class="cls-5" d="M18.9,16.92c.06,0,.24.08.21.16s-.26.24-.32.17A.22.22,0,0,1,18.9,16.92Z"/><path class="cls-5" d="M18.14,18.58c.08.11,0,.38-.14.37s-.24-.12-.22-.23S18,18.46,18.14,18.58Z"/><path class="cls-5" d="M19.26,18.45c0,.06.08.24.19.2s.11-.22.05-.28A.17.17,0,0,0,19.26,18.45Z"/><path class="cls-5" d="M21.75,19c0,.07.05.22.14.21A.15.15,0,0,0,22,19C22,19,21.81,18.86,21.75,19Z"/><path class="cls-5" d="M23.64,19.36a.13.13,0,0,0,.21-.11c0-.12-.12-.09-.16-.06S23.6,19.33,23.64,19.36Z"/><path class="cls-5" d="M23.48,18.31c0,.07.08.17.15.15s.11-.2,0-.23A.13.13,0,0,0,23.48,18.31Z"/><path class="cls-5" d="M21.26,17.77c0,.06.23,0,.26-.05a.13.13,0,0,0-.13-.15A.15.15,0,0,0,21.26,17.77Z"/><path class="cls-5" d="M21.06,16.53a.18.18,0,0,0-.07-.32.19.19,0,0,0-.2.19A.17.17,0,0,0,21.06,16.53Z"/><path class="cls-5" d="M20.6,19.68a.18.18,0,1,0-.27-.12A.17.17,0,0,0,20.6,19.68Z"/><path class="cls-5" d="M22.61,16.56a.21.21,0,0,0-.1.2c0,.08.09.13.14.08a.23.23,0,0,0,.07-.21S22.68,16.54,22.61,16.56Z"/><path class="cls-5" d="M22.43,15.2c.06,0,.06-.3-.05-.29s-.14.13-.14.18S22.29,15.31,22.43,15.2Z"/><path class="cls-5" d="M24,16.38s-.16.27,0,.29.16-.15.15-.19S24.09,16.33,24,16.38Z"/><path class="cls-5" d="M24.79,17.39c0,.08.09.22.19.17s.06-.21,0-.22S24.83,17.31,24.79,17.39Z"/><path class="cls-5" d="M20.55,18.48c-.05.08.09.22.19.17s.05-.21,0-.23S20.59,18.4,20.55,18.48Z"/><path class="cls-5" d="M23.62,14.89c0,.08.1.18.2.13s.1-.13.1-.2-.1-.17-.19-.13A.19.19,0,0,0,23.62,14.89Z"/><path class="cls-5" d="M15.36,14.36c0,.08.09.18.19.13s.1-.13.11-.2a.16.16,0,0,0-.2-.13A.17.17,0,0,0,15.36,14.36Z"/><path class="cls-5" d="M19.25,12c0,.08.1.18.2.13s.1-.13.1-.21-.1-.17-.19-.12A.18.18,0,0,0,19.25,12Z"/><path class="cls-5" d="M25.48,15.13s0,.18.07.2.16-.13.14-.19S25.53,15,25.48,15.13Z"/><path class="cls-5" d="M23.37,17.18c0,.05,0,.19.07.21s.17-.13.14-.19A.14.14,0,0,0,23.37,17.18Z"/><path class="cls-5" d="M24.36,13.66c.06,0,.09-.09.09-.15s-.08-.11-.13-.08S24.23,13.67,24.36,13.66Z"/><path class="cls-5" d="M23.29,15.94c.08,0,.11-.12.11-.18s-.1-.15-.17-.1S23.12,16,23.29,15.94Z"/><path class="cls-5" d="M25.31,13.87c0,.12.09.19.24.16s.06-.17,0-.22S25.33,13.75,25.31,13.87Z"/><path class="cls-5" d="M22.11,13.82a.18.18,0,0,0,.13-.22c0-.12-.2-.12-.25,0S22,13.84,22.11,13.82Z"/><path class="cls-5" d="M23.14,13.89c.12.06.21-.12.14-.19S23,13.84,23.14,13.89Z"/><path class="cls-5" d="M22.32,12.47a.24.24,0,0,0,.25-.19.14.14,0,0,0-.22-.07C22.29,12.27,22.27,12.45,22.32,12.47Z"/><path class="cls-5" d="M20,11s-.07.12,0,.16.15,0,.15,0S20.1,10.94,20,11Z"/><path class="cls-5" d="M14.61,15.58s-.08.12,0,.16.14,0,.14,0S14.7,15.55,14.61,15.58Z"/><path class="cls-5" d="M9.25,5.78s-.08.12,0,.16.15,0,.15,0S9.34,5.76,9.25,5.78Z"/><path class="cls-5" d="M21.1,15.15s-.08.12,0,.16.14,0,.14,0S21.19,15.12,21.1,15.15Z"/><path class="cls-5" d="M20.3,17.18s-.08.12,0,.16.14,0,.14,0S20.39,17.15,20.3,17.18Z"/><path class="cls-5" d="M16.9,18.05s-.07.12,0,.16.15,0,.15,0S17,18,16.9,18.05Z"/><path class="cls-5" d="M6.26,16.62s-.07.12,0,.16.15,0,.15,0S6.35,16.6,6.26,16.62Z"/><path class="cls-5" d="M10.48,16.43s-.07.13,0,.16.15,0,.15,0S10.57,16.41,10.48,16.43Z"/><path class="cls-5" d="M12.84,16.24s-.07.12,0,.16.15,0,.15,0S12.94,16.22,12.84,16.24Z"/><path class="cls-5" d="M12.75,14.81s-.07.12,0,.16.15,0,.15,0S12.84,14.78,12.75,14.81Z"/><path class="cls-5" d="M17.51,14s-.08.12,0,.16.15,0,.15,0S17.6,13.92,17.51,14Z"/><path class="cls-5" d="M17,11.73s-.07.12,0,.16.15,0,.15,0S17.07,11.7,17,11.73Z"/><path class="cls-5" d="M25.09,16.12s-.07.12,0,.16.15,0,.15,0S25.18,16.1,25.09,16.12Z"/><path class="cls-5" d="M22.58,17.85s-.07.13,0,.16.15,0,.15,0S22.67,17.83,22.58,17.85Z"/><path class="cls-5" d="M22.78,19.53s-.08.13,0,.16.14,0,.14,0S22.87,19.51,22.78,19.53Z"/><path class="cls-5" d="M26.05,17.49s-.08.12,0,.16.14,0,.14,0S26.14,17.46,26.05,17.49Z"/><path class="cls-5" d="M24.69,15.47s-.07.12,0,.16.15,0,.15,0S24.78,15.44,24.69,15.47Z"/><path class="cls-5" d="M23.59,12.46s-.08.13,0,.17.15,0,.15,0S23.68,12.44,23.59,12.46Z"/><path class="cls-5" d="M21.33,12.15c-.08,0-.15.31,0,.28S21.57,12.14,21.33,12.15Z"/><path class="cls-5" d="M19.77,13.12c.06,0,.07-.19,0-.22a.14.14,0,0,0-.16.11C19.62,13.07,19.65,13.17,19.77,13.12Z"/><path class="cls-5" d="M20.72,14.3s.21,0,.22-.06-.06-.18-.12-.16A.15.15,0,0,0,20.72,14.3Z"/><path class="cls-5" d="M18.36,14.71a.18.18,0,0,0,.25,0c0-.07,0-.21-.12-.19S18.3,14.64,18.36,14.71Z"/><path class="cls-5" d="M19.83,15.29c-.06,0-.26,0-.27.07s.06.24.19.21A.18.18,0,0,0,19.83,15.29Z"/><path class="cls-5" d="M18.18,13c0,.11-.16.16-.25.13a.11.11,0,0,1,0-.2C18,12.9,18.18,12.9,18.18,13Z"/><path class="cls-5" d="M26.72,14.66c0,.1-.16.16-.25.13a.13.13,0,0,1,0-.21C26.51,14.55,26.73,14.56,26.72,14.66Z"/><path class="cls-5" d="M18.3,11.16a.16.16,0,0,0,.05.27.16.16,0,0,0,.18-.19A.17.17,0,0,0,18.3,11.16Z"/><path class="cls-5" d="M16.79,12.7a.17.17,0,0,0-.13.17c0,.1.06.18.12.19s.1-.09.1-.17S16.88,12.71,16.79,12.7Z"/><path class="cls-5" d="M16.81,10.3c0,.11.21.06.24,0a.14.14,0,0,0-.12-.2C16.82,10.1,16.78,10.2,16.81,10.3Z"/><path class="cls-5" d="M15.34,10c0,.1.2.11.26.07s0-.16-.1-.16S15.33,9.85,15.34,10Z"/><path class="cls-5" d="M12.57,11.72c0,.1.2.12.25.07s0-.16-.09-.16S12.56,11.61,12.57,11.72Z"/><path class="cls-5" d="M21.08,11.22c0,.1.2.12.25.07s0-.16-.09-.16S21.07,11.11,21.08,11.22Z"/><path class="cls-5" d="M18.62,16c0,.1.2.12.25.07s0-.16-.09-.16S18.61,15.85,18.62,16Z"/><path class="cls-5" d="M15.46,11.17c-.17,0-.21.31-.12.33s.23.06.27,0S15.58,11.17,15.46,11.17Z"/><path class="cls-5" d="M13.75,12.06c0,.1.23,0,.26,0s-.07-.17-.13-.17A.15.15,0,0,0,13.75,12.06Z"/><path class="cls-5" d="M11.17,6.33c0,.09.23,0,.26,0s-.07-.17-.13-.17A.16.16,0,0,0,11.17,6.33Z"/><path class="cls-5" d="M12,8.7c0,.09.23,0,.26,0s-.07-.17-.13-.17A.16.16,0,0,0,12,8.7Z"/><path class="cls-5" d="M15,13.07c0,.12.12.22.24.16s0-.21,0-.25S15,13,15,13.07Z"/><path class="cls-5" d="M10.3,13.29c0,.11.16.2.3.15s.05-.26-.06-.28A.22.22,0,0,0,10.3,13.29Z"/><path class="cls-5" d="M13,10.58c0,.12.14.3.24.23s.15-.19,0-.27A.19.19,0,0,0,13,10.58Z"/><path class="cls-5" d="M13.61,9.58c0,.11.24.09.28,0a.13.13,0,0,0-.1-.19A.16.16,0,0,0,13.61,9.58Z"/><path class="cls-5" d="M13.71,8.81c.07,0,.16-.19.1-.23a.13.13,0,0,0-.18,0C13.59,8.64,13.55,8.77,13.71,8.81Z"/><path class="cls-5" d="M10.05,9.8c.12,0,.18-.19.12-.27a.17.17,0,0,0-.26,0A.16.16,0,0,0,10.05,9.8Z"/><path class="cls-5" d="M9.33,10.22c.12,0,.18-.22,0-.28s-.27,0-.26.06A.21.21,0,0,0,9.33,10.22Z"/><path class="cls-5" d="M10,11.05c-.1.06-.06.35.06.34s.2,0,.2-.13S10.12,11,10,11.05Z"/><path class="cls-5" d="M9.5,12s.08.26.22.23,0-.19,0-.23A.16.16,0,0,0,9.5,12Z"/><path class="cls-5" d="M18.71,19.6s.09.13.16.09,0-.14,0-.15A.1.1,0,0,0,18.71,19.6Z"/><path class="cls-5" d="M24.88,18.56c.07.08.23,0,.24-.06s0-.19-.15-.18A.14.14,0,0,0,24.88,18.56Z"/><path class="cls-5" d="M19.61,14.44c.07.07.23,0,.24-.07s0-.19-.15-.18A.15.15,0,0,0,19.61,14.44Z"/><path class="cls-5" d="M14.1,17c.07.07.23,0,.24-.07a.15.15,0,0,0-.16-.17A.14.14,0,0,0,14.1,17Z"/><path class="cls-5" d="M12.14,9.74c.07.07.23,0,.24-.07a.15.15,0,0,0-.16-.17A.14.14,0,0,0,12.14,9.74Z"/><path class="cls-5" d="M25.83,16.65c0,.05,0,.16.09.15a.1.1,0,0,0,.06-.15A.09.09,0,0,0,25.83,16.65Z"/><path class="cls-5" d="M26.56,15.72a.12.12,0,0,0,.17.1.1.1,0,0,0,0-.17C26.68,15.62,26.57,15.64,26.56,15.72Z"/><path class="cls-5" d="M24.73,14.55c0,.1.1.13.16.11s.1-.13,0-.17S24.73,14.47,24.73,14.55Z"/></g></g></svg>