<svg xmlns="http://www.w3.org/2000/svg" viewBox="0 0 33.07 17.02"><defs><style>.cls-1{fill:#bbbebf;}.cls-2{fill:#9d9e9e;}.cls-3{fill:#1f91a1;}.cls-4{fill:#171717;}.cls-5{fill:#f0f2f4;}</style></defs><g id="Layer_2" data-name="Layer 2"><g id="Layer_2-2" data-name="Layer 2"><path class="cls-1" d="M24.6,8.79C14.59,19,5.12,17.1.75,9.46-.34,7.54.14,6.86.14,6.86S5.68,1,13.1,4.19,25.18,8.19,24.6,8.79Z"/><path class="cls-2" d="M11.11,15.89c3.35,0,8-1.51,13.49-7.1l-.09-.09c-6.37,6.5-11.64,7.4-15,7A11.86,11.86,0,0,1,.81,9.43C-.25,7.57.28,6.93.19,6.89l0,0s-.54.7.56,2.63A12,12,0,0,0,9.53,15.8,11.13,11.13,0,0,0,11.11,15.89Z"/><path class="cls-2" d="M10.72,10.89a5.32,5.32,0,0,0,2-.36l0-.12s-4,1.82-8-2.89l-.09.09C6.83,10.33,9.15,10.9,10.72,10.89Z"/><path class="cls-2" d="M10.87,12.25a6.6,6.6,0,0,0,4-1.4l-.08-.09a6.52,6.52,0,0,1-4.51,1.35c-2.56-.2-5.11-1.84-7.58-4.86l-.09.08c2.49,3.05,5.07,4.7,7.67,4.9A5.52,5.52,0,0,0,10.87,12.25Z"/><path class="cls-2" d="M11.2,13.58a9,9,0,0,0,6-2.57l-.09-.08a8.83,8.83,0,0,1-6.34,2.52c-3.16-.17-6.26-2.25-9.21-6.19l-.1.08c3,4,6.11,6.07,9.31,6.23Z"/><path class="cls-2" d="M11,14.69c5,0,9-3.84,9-3.89l-.08-.08c-.05,0-4.72,4.49-10.24,3.77C6.14,14,3,11.6.43,7.28l-.1.06C3,11.7,6.08,14.15,9.63,14.61A8.55,8.55,0,0,0,11,14.69Z"/><path class="cls-3" d="M25.21,5c.35.48,1.46,1.36,0,2.36S19.6,6.26,19.6,6.26,8.12-.91.36,6.55c-.72.69.2.89.46.92,1.65.19,4.67.17,6.46,1.6s1.71,2,1.63,2.71S8.2,15.68,13.58,17c.35.08.39,0,.33-.13-.94-1.68-.19-1.7-.69-3.17-.44-1.28-1.62-1.43-2.37-2s-1.63-2-.22-1.47,9,2.31,12.51-.45c3.21-2.53,4.95-1.57,5.57-.79a4.9,4.9,0,0,0,3.78,1.91c1.78-.06-1-.11-1.72-3.08-.49-2.12-3.18-1.18-3.18-1.18s1.36-2.47-2-4.44c-.91-.53-.64-2.18-1-2.18S22.91,2,25.21,5Z"/><path class="cls-4" d="M5.89,6.21a.31.31,0,0,1,.62,0,.31.31,0,0,1-.62,0Z"/><path class="cls-5" d="M6.39,6.11A.09.09,0,0,0,6.29,6a.09.09,0,0,0-.09.09.09.09,0,0,0,.09.1A.09.09,0,0,0,6.39,6.11Z"/></g></g></svg>