<svg xmlns="http://www.w3.org/2000/svg" viewBox="0 0 19.33 19.04"><defs><style>.cls-1{fill:#524f4d;}.cls-2{fill:#5f5b58;}.cls-3{fill:#766e67;}.cls-4{fill:#dddcdb;}.cls-5{fill:#a89e96;}.cls-6{fill:#1e1d1d;}.cls-7{fill:#010101;}.cls-8{fill:#f8f7f2;}</style></defs><g id="Layer_2" data-name="Layer 2"><g id="Layer_2-2" data-name="Layer 2"><path class="cls-1" d="M9.15,18.21s-.33.31,1.12.29,3.05-.15,3.42-.14.7-.31.6-.54-.14-.53-1.37-.27-2.49.43-2.49.43Z"/><path class="cls-2" d="M12.93,0s1.68,2.18.64,2.71c-.74.38-1.16-.28-1.14-1A5.34,5.34,0,0,1,12.93,0Z"/><path class="cls-2" d="M18.34.15s-2,1.11-1.09,2.52C17.67,3.3,18.91,1.88,18.34.15Z"/><path class="cls-3" d="M18.82,7c-.4,0-1.11-.85-1.11-.85h0V6.06A14.86,14.86,0,0,0,18,3.65c-.39-2-3.23-2.83-4.95-.93-.67.72-.61,1.34-1,2.68A18.22,18.22,0,0,1,9,11.33c-.49.83-3.09,4.42-1,6.61,2.41,2.57,6.05-1.56,7.74-4a15,15,0,0,0,1.82-6h0C17.78,7.78,18.82,7,18.82,7Z"/><path class="cls-2" d="M14.45,10l.44,8.33s0,.3.64.25c.44,0,.48-.21.43-.34a.37.37,0,0,0-.64-.12L15.38,10Z"/><path class="cls-2" d="M15.6,9.79l.45,8.33s0,.29.63.25c.39,0,.37-.19.32-.33s-.25-.27-.56,0l0-8.21Z"/><path class="cls-4" d="M12.51,5.27a4.8,4.8,0,0,0-1.25,2.08A8.85,8.85,0,0,1,12,6.8s-.5,1.63-.09,2.27c0,0,.14-.65.36-.71,0,0,.13,1,.12,1.25v.05c0,.12.51-.74.69-.82a5.91,5.91,0,0,1,.1,1.56s.81-1,.73-1.13c0,0,.23,1.63,0,1.74,0,0,.62-.72.66-.82s0,.1,0,.1a10.85,10.85,0,0,1-.17,1.16A5,5,0,0,0,15,10.6s.29.84.21.94a2.76,2.76,0,0,1,.39-.7s.27.91.31.82.31-.92.33-.82a4,4,0,0,1,.3.83,3,3,0,0,0,.35-1s.36.21.34.35a4.58,4.58,0,0,0,.25-1.37.56.56,0,0,1,.15.32s.3-1.3.11-1.51L15.15,6.4Z"/><path class="cls-5" d="M17.83,7.55a25.8,25.8,0,0,1-2.33-3,1.63,1.63,0,0,0-2.75-.21A1.41,1.41,0,0,0,14,6.59c.93-.2,1.26,0,1.49.5s1.21,2.61,3,1.14V7.62Z"/><path class="cls-5" d="M17.71,6.12S16.48,4.84,16.82,4A.66.66,0,0,1,18,3.91,17.89,17.89,0,0,1,17.71,6.12Z"/><path class="cls-5" d="M18.49,7.5l.41-.24s.06-.37.37.14-.36,1.06-.78.83Z"/><path class="cls-2" d="M9.16,18.75c0,.25.1.29,1.11.29,1.45,0,3.06-.15,3.43-.14s.7-.31.6-.54-.14-.54-1.37-.27-2.49.42-2.49.42,3.81-3.93,1.06-4.94C10,13,9.18,15,9.13,15.76S9.2,18.49,9.16,18.75Z"/><path class="cls-3" d="M7.42,16.63s-2.93,1.53-4.76-1.12-.93-4.23.82-5.43C1,9.26.65,12,1.06,12.78c0,0-.91-.26-.58-1.52,0,0-1.52,1.31.84,3.29A1.49,1.49,0,0,1,0,14.12S.2,15.36,2.05,16a1.44,1.44,0,0,1-1.3,0,3.92,3.92,0,0,0,2.79,1.14,2.53,2.53,0,0,1-1.48.48s.79.94,2.91-.08c0,0-.26.62-.8.65a7.31,7.31,0,0,0,3.36-1.18Z"/><path class="cls-6" d="M19,7.1c-.09-.18-.45-.2-.79,0s-.55.45-.46.63.44.21.79,0S19.1,7.29,19,7.1Z"/><path class="cls-6" d="M17.54,4.64a.2.2,0,1,0-.2.2A.2.2,0,0,0,17.54,4.64Z"/><path class="cls-6" d="M14.66,4.84a.2.2,0,1,0-.2.2A.2.2,0,0,0,14.66,4.84Z"/><path class="cls-1" d="M10.67,10.48h0s0,0,0,0a3.84,3.84,0,0,0,.21-.46s0,0,0,0,0,0,0,0-.09.22-.22.47Z"/><path class="cls-1" d="M11.19,11.45h0s0,0,0,0a4.77,4.77,0,0,0,.21-.46s0,0,0,0,0,0,0,0a3.7,3.7,0,0,1-.21.47Z"/><path class="cls-1" d="M12.6,11h0s0,0,0,0a1.34,1.34,0,0,0,.16-.35s0,0,0,0,0,0,0,0a1.3,1.3,0,0,1-.17.37Z"/><path class="cls-1" d="M13.08,11.91h0a0,0,0,0,1,0,0c.1-.15.23-.38.23-.38s0,0,0,0,0,0,0,0-.13.23-.23.38Z"/><path class="cls-1" d="M11.93,10.25h0s0,0,0,0a3.61,3.61,0,0,0,.21-.46s0,0,0,0,0,0,0,0a3.34,3.34,0,0,1-.22.47Z"/><path class="cls-1" d="M11.8,12.56h0a0,0,0,0,1,0,0A1.25,1.25,0,0,0,12,12.1s0,0,0,0a0,0,0,0,1,0,0,1.23,1.23,0,0,1-.24.44Z"/><path class="cls-1" d="M12.15,13.49h0s0,0,0,0a3.22,3.22,0,0,0,.2-.36s0,0,0,0,0,0,0,0-.13.25-.21.37Z"/><path class="cls-1" d="M9.51,12h0a0,0,0,0,1,0,0,1.5,1.5,0,0,0,.24-.37s0,0,0,0,0,0,0,0a2,2,0,0,1-.26.38Z"/><path class="cls-1" d="M9.9,13.12h0a0,0,0,0,1,0,0,1.84,1.84,0,0,0,.29-.46h0s0,0,0,0a2,2,0,0,1-.31.48Z"/><path class="cls-1" d="M8.23,14.1h0s0,0,0,0a2,2,0,0,1,.29-.47h0s0,0,0,0a1.46,1.46,0,0,0-.28.46Z"/><path class="cls-1" d="M8.08,15.87h0s0,0,0,0a2.12,2.12,0,0,1,.13-.54h0s0,0,0,0a2,2,0,0,0-.13.53Z"/><circle class="cls-7" cx="17.04" cy="7.41" r="0.05"/><path class="cls-7" d="M17,8a0,0,0,0,0-.05,0,0,0,0,0,0,0,0,0,0,0,0,0,0,0A0,0,0,0,0,17,8Z"/><path class="cls-7" d="M16.57,7.62a0,0,0,0,0-.05,0,0,0,0,0,0,0,0,0,0,0,0,0,0,0A0,0,0,0,0,16.57,7.62Z"/><path class="cls-8" d="M14.62,4.82a.07.07,0,0,0-.07-.07.08.08,0,0,0-.08.07.09.09,0,0,0,.08.08A.08.08,0,0,0,14.62,4.82Z"/><circle class="cls-8" cx="17.44" cy="4.63" r="0.07"/></g></g></svg>