<svg xmlns="http://www.w3.org/2000/svg" width="167.89" height="113.82" viewBox="0 0 167.89 113.82"><defs><style>.a{fill:#82706b;}.b{fill:#fff;}.c{fill:#4f2909;}</style></defs><path class="a" d="M164.67,31.31C161.1,15,152.76,2.67,150.07,2.24S140.89,13,140.57,15c0,0-13.78-1.38-23.15,0,0,0-6.51-11.63-10.16-12C102.12,2.65,90.68,21.4,90,38.19A32.09,32.09,0,0,0,90.05,42l-.46-.11s-11.2-4.39-31.41,2.53C39,51,31.28,69.27,33.37,84.51A24.31,24.31,0,0,1,21.21,69.25c-1.67-6-.47-10.33,5.2-14.52,5.93-4.39-.16-17.3-12.76-12s-16.43,27-4.4,42.63c16.16,21,36.85,20.48,36.85,20.48H47c6.78,4,15.43,5.36,25,5.8,14.94.7,21.14-.76,21.47-5.16h.4s2.52,1.28,19,2.24c13.64.8,23.92.11,25.62-5L136.61,98c.26-.07.52-.14.76-.23a7.69,7.69,0,0,1,1.07,2.19,6.31,6.31,0,0,1,.1,3.83l.19.57s18.76,3.11,18.86-5-9.39-10.13-13.51-9.94l-.77.06c0-.16,0-.32,0-.48s0-.29,0-.43a31.13,31.13,0,0,0,6.27-19.69C160.22,64.55,169.35,52.7,164.67,31.31Z"/><path class="b" d="M23.8,44.3a8.08,8.08,0,0,0-10.08-.21A4.52,4.52,0,0,0,12,43.74c-2.38,0-3.78,2.41-4.81,4.81-1.48,3.5.6,7.93,3.63,10A9.18,9.18,0,0,0,22,58.33c2-1.59,5.92-4.63,6.09-7.29C29.58,48.61,26.71,45.29,23.8,44.3Z"/><path class="b" d="M90.7,102.83c-2.15-2.72-5.49-2.54-8.4-3.81S80.39,95,78,97.83c-4.8,5.64-25.38,6.93-29.13,6a2.65,2.65,0,0,0-2.21.55c-2.52,2,6.28,4.18,7.6,4.64,4.24,1.48,8.76,1.89,13.24,2.29,3.19.29,6.45,0,9.61.32,2.5.22,4.42,1.14,6.88-.19L87.3,111c2-.25,3.58-1,4.4-3A5,5,0,0,0,90.7,102.83Z"/><path class="b" d="M165.5,46.83a2.12,2.12,0,0,0-.48-1.25c-.76-.72,0,3.08-.84,3.66-4.46,3-14.77,3.61-20.65-1.48-1.66-1.45-6.38-7.35-15.5-5.78-6,1-8.71,4.81-13.78,7.81A31,31,0,0,1,94,53.89c.29,5.6,7.91,14.1,13.42,15.45a15.39,15.39,0,0,1-7,9.66c-3.9,2.54-8.52,3.69-13.08,4.61a2.91,2.91,0,0,0-1.57.65,3.23,3.23,0,0,0-.66,1.44,19.69,19.69,0,0,1-5.55,9.09c-.89.83-1.95,1.86-1.65,3,.37,1.48,2.41,1.59,3.92,1.42,4.18-.47,9.15-.22,11.55,3.23A10.07,10.07,0,0,0,95.24,105a5.57,5.57,0,0,0,2.1.87,65.56,65.56,0,0,0,16.33,1.94c2.32,0,4.63-.19,6.92-.13.84,0,5-.71,5.24-.57,4.31,2.14,8,.2,10.68-2.75l.24.58a5.77,5.77,0,0,0,1.35-2.39c3.31,1.59,7.16,1.49,10.82,1.18a13.88,13.88,0,0,0,5.71-1.35,5.17,5.17,0,0,0,2.86-4.78c-.28-2.48-2.8-4-5.09-5A50.8,50.8,0,0,0,143,89.69c1.79-1.55,3.76-3.58,3.3-5.91,0-.11-.08-.2-.11-.3A52.49,52.49,0,0,0,149,75.8c.5-1.77.62-3.81,1.26-5.51.74-2,.57-1.49,2.1-2.83,4.87-4.24,9.69-7,12.07-13.45A15.51,15.51,0,0,0,165.5,46.83Z"/><path class="c" d="M135.85,97.65a2,2,0,0,1-1.15-3.6,29.34,29.34,0,0,0,12.88-25.33c-.06-1.09,1-.71,2-.78s1.84-.56,1.91.54A33.4,33.4,0,0,1,137,97.29,2,2,0,0,1,135.85,97.65Z"/><path class="c" d="M114.82,90.49a24.81,24.81,0,0,1,9.9-.49,27.45,27.45,0,0,1,10,2.73A12.39,12.39,0,0,1,139,96.47a9.66,9.66,0,0,1,1.34,2.71,10,10,0,0,1,.49,3,6.87,6.87,0,0,1-.83,3.29,7.48,7.48,0,0,1-2.21,2.44,14.37,14.37,0,0,1-5.16,2.14,47.34,47.34,0,0,1-10,1c-3.29,0-6.54-.11-9.77-.3s-6.45-.44-9.68-.76c-1.62-.16-3.24-.34-4.87-.58-.81-.12-1.63-.25-2.46-.4l-1.27-.27-.66-.17-.37-.11c-.15-.06-.19-.06-.55-.22a1.91,1.91,0,0,1,1.73-3.4c-.17-.08,0,0,0,0l.21.07.5.12c.35.09.72.16,1.09.23.76.13,1.52.25,2.3.36,1.55.22,3.12.38,4.7.53,3.16.3,6.35.51,9.54.69s6.35.28,9.48.23a44.3,44.3,0,0,0,9.13-.93,10.73,10.73,0,0,0,3.69-1.51,2.8,2.8,0,0,0,1.32-2.43,6.73,6.73,0,0,0-.31-1.73,5.76,5.76,0,0,0-.79-1.59,8.48,8.48,0,0,0-2.91-2.47,25,25,0,0,0-8.47-2.44c-3.06-.4-6.16-.39-9.34-1.12h0a1.2,1.2,0,0,1-.07-2.31Z"/><path class="c" d="M146.15,106.9a51.36,51.36,0,0,1-7.74-.62,2,2,0,0,1,.64-3.91c4.58.75,12.88,1.07,15.68-1.27a2.26,2.26,0,0,0,.88-1.84,6.26,6.26,0,0,0-2-4.8c-2.59-2.5-7.08-3.25-9.49-3.14a2,2,0,1,1-.18-4c2.65-.11,8.66.61,12.43,4.25a10.25,10.25,0,0,1,3.15,7.7,6.23,6.23,0,0,1-2.3,4.83C154.66,106.33,150.13,106.9,146.15,106.9Z"/><path class="c" d="M64.31,61a17.53,17.53,0,0,1,7.17-.52,20,20,0,0,1,7,2.17A19.08,19.08,0,0,1,87.81,73.9a22.91,22.91,0,0,1,1,7.3,21.1,21.1,0,0,1-5.33,13.59,23.55,23.55,0,0,1-2.61,2.58,19.77,19.77,0,0,1-3.08,2.17h0L77,95.84a50.36,50.36,0,0,1,11.43,2.58,20.93,20.93,0,0,1,2.82,1.31A10.15,10.15,0,0,1,94,101.87a6.18,6.18,0,0,1,1.08,1.75,5.6,5.6,0,0,1,.31,1.06c0,.3.09.58.11.9a6.25,6.25,0,0,1-.94,3.91,7.13,7.13,0,0,1-2.94,2.44,14.34,14.34,0,0,1-3.08,1,37.09,37.09,0,0,1-5.89.75c-3.87.19-7.65.08-11.43-.1a90.24,90.24,0,0,1-11.4-1.23A45.21,45.21,0,0,1,48.61,109,29.05,29.05,0,0,1,39,101.9a31.5,31.5,0,0,1-6-10.32A39.06,39.06,0,0,1,45.66,48.93,39.35,39.35,0,0,1,55.9,43.12c1.84-.74,3.65-1.24,5.48-1.83s3.7-1,5.59-1.39a62.21,62.21,0,0,1,11.5-1.38,44.1,44.1,0,0,1,5.85.24c1,.1,2,.25,2.94.44.49.09,1,.2,1.48.33a13.61,13.61,0,0,1,1.58.48A2,2,0,0,1,89,43.74l-.13,0a18.46,18.46,0,0,0-2.37-.61q-1.29-.26-2.61-.39a41.33,41.33,0,0,0-5.35-.22,58.46,58.46,0,0,0-10.75,1.3c-1.78.35-3.54.85-5.3,1.32S59,46.16,57.33,46.81A36,36,0,0,0,48.12,52,34.32,34.32,0,0,0,36.5,69.39a34.67,34.67,0,0,0,.28,20.88,27.63,27.63,0,0,0,5.18,9,25.32,25.32,0,0,0,8.33,6.12c6.41,3,13.8,3.87,21.12,4.27,3.69.18,7.4.28,11,.1a33.25,33.25,0,0,0,5.22-.65c1.62-.35,3.14-1,3.59-1.8a2.17,2.17,0,0,0,.3-1.45,4.53,4.53,0,0,0-.06-.5c0-.1,0-.18-.08-.28a2.76,2.76,0,0,0-.4-.62A10.41,10.41,0,0,0,87,102.13a46.52,46.52,0,0,0-10.42-2.35,2,2,0,0,1-.84-3.65l.08,0h0a18.71,18.71,0,0,0,2.32-1.8,20,20,0,0,0,2.12-2.2,19.74,19.74,0,0,0,3.07-5.15,19,19,0,0,0,.41-11.81,15,15,0,0,0-7.22-9,23.54,23.54,0,0,0-11.88-2.94h-.05A1.1,1.1,0,0,1,64.31,61Z"/><path class="c" d="M142.16,69.18A34.07,34.07,0,0,0,153,64.74a23.76,23.76,0,0,0,7.73-8.54,28.09,28.09,0,0,0,3.12-11.34,45.44,45.44,0,0,0-1-12,75,75,0,0,0-3.5-11.8A68.45,68.45,0,0,0,154,10a29.8,29.8,0,0,0-3.46-4.72,8,8,0,0,0-.87-.78l-.13-.09s0,0,0,0a1.18,1.18,0,0,0,.35,0,.92.92,0,0,0,.26,0,2.1,2.1,0,0,0-.54.37,9.79,9.79,0,0,0-.92.91,41.14,41.14,0,0,0-3.54,4.76c-.55.85-1.06,1.73-1.57,2.59-.25.44-.49.87-.7,1.3l-.29.61a3.37,3.37,0,0,1-.17.36,1.73,1.73,0,0,1-2.06,1.59h0c-1.87-.18-3.79-.31-5.69-.41s-3.82-.16-5.72-.18a74.89,74.89,0,0,0-11.27.6h0a1.92,1.92,0,0,1-1.93-.95h0a61.7,61.7,0,0,0-6.51-9.06,9,9,0,0,0-1.77-1.53,1.53,1.53,0,0,0-.4-.2,1.14,1.14,0,0,0-.43.12,7.21,7.21,0,0,0-1.8,1.28,18.49,18.49,0,0,0-1.79,1.93,47,47,0,0,0-5.8,9.5,61.77,61.77,0,0,0-3.89,10.6,44.47,44.47,0,0,0-1.6,11,36.49,36.49,0,0,0,2,10.87,32.9,32.9,0,0,0,5,9.65A28.8,28.8,0,0,0,102.59,64a23.38,23.38,0,0,0,4.45,3l0,0A1.47,1.47,0,0,1,106,69.67a20.19,20.19,0,0,1-5.57-2.9A27.67,27.67,0,0,1,98,64.86a21.64,21.64,0,0,1-2.24-2.25,31.9,31.9,0,0,1-5.72-10.9,43.19,43.19,0,0,1-2-12,49.5,49.5,0,0,1,1.57-12,65.28,65.28,0,0,1,4-11.32A50.6,50.6,0,0,1,99.87,5.93,22.48,22.48,0,0,1,102,3.57,11,11,0,0,1,105,1.49,5,5,0,0,1,107.35,1a5.07,5.07,0,0,1,2.3.81,12.5,12.5,0,0,1,2.63,2.26A39.08,39.08,0,0,1,116,9c1.11,1.67,2.09,3.37,3.06,5.16h0l-1.94-1A79.45,79.45,0,0,1,129,12.53q2.94,0,5.87.19c2,.11,3.89.24,5.88.42h0l-2.06,1.59a6.48,6.48,0,0,1,.29-1.15c.11-.3.22-.58.33-.85.22-.53.45-1,.69-1.54.48-1,1-2,1.56-2.92a35.27,35.27,0,0,1,3.85-5.5,15,15,0,0,1,1.32-1.33A6.07,6.07,0,0,1,148.88.16a3.37,3.37,0,0,1,1-.16A3.56,3.56,0,0,1,151,.2a5.59,5.59,0,0,1,.73.34c.18.11.36.22.52.34a10.53,10.53,0,0,1,1.49,1.34,33.37,33.37,0,0,1,4,5.49A76.84,76.84,0,0,1,166.88,32a49.25,49.25,0,0,1,.89,13.13,33.08,33.08,0,0,1-3.47,12.93,25.87,25.87,0,0,1-9.07,10A24.92,24.92,0,0,1,149.08,71a20,20,0,0,1-6.69.87,1.37,1.37,0,0,1-.27-2.7Z"/><path class="c" d="M142.17,52.13a7.1,7.1,0,0,1-3.79,2,8.18,8.18,0,0,1-4.17-.36,9.53,9.53,0,0,1-3.49-2.21,10.76,10.76,0,0,1-2.28-3.4h0l3.18-.05a11.45,11.45,0,0,1-2.11,3.35,9.42,9.42,0,0,1-3.25,2.36,8.28,8.28,0,0,1-7.61-.62,1.8,1.8,0,0,1-.48-2.44,1.67,1.67,0,0,1,1.71-.76h.1c.94.17,1.77.38,2.58.47a4.9,4.9,0,0,0,2.29-.33,6.24,6.24,0,0,0,2-1.37,10.62,10.62,0,0,0,.86-1c.26-.35.53-.81.69-1.08l.12-.23a1.68,1.68,0,0,1,2.34-.65,1.72,1.72,0,0,1,.72.84h0a6.81,6.81,0,0,0,3.75,3.64,4.84,4.84,0,0,0,4.62-.71l.05,0a1.6,1.6,0,0,1,2.3.35A1.75,1.75,0,0,1,142.17,52.13Z"/><path class="c" d="M143.17,39.63c0,2,1.3,3.68,3,3.7s3-1.6,3-3.63S147.88,36,146.22,36,143.19,37.61,143.17,39.63Z"/><path class="c" d="M146.16,45.31h-.06a4.75,4.75,0,0,1-3.63-1.84,6.24,6.24,0,0,1,.09-7.69A4.76,4.76,0,0,1,146.19,34h.05c2.75,0,5,2.6,4.92,5.71a6.1,6.1,0,0,1-1.38,3.83A4.78,4.78,0,0,1,146.16,45.31Zm0-7.32a.81.81,0,0,0-.59.34,2.12,2.12,0,0,0-.45,1.32,2.1,2.1,0,0,0,.41,1.34.89.89,0,0,0,.59.36h0a.89.89,0,0,0,.59-.34,2.15,2.15,0,0,0,.44-1.33c0-1-.52-1.68-1-1.69Z"/><path class="c" d="M110.45,40.27c0,2.09,1.34,3.8,3.06,3.82s3.12-1.65,3.15-3.74-1.35-3.81-3.07-3.83S110.47,38.18,110.45,40.27Z"/><path class="c" d="M113.54,46.08h-.06c-2.8,0-5-2.65-5-5.83h0c0-3.16,2.32-5.71,5.1-5.71h.06a4.84,4.84,0,0,1,3.7,1.88,6.15,6.15,0,0,1,1.32,3.95,6.22,6.22,0,0,1-1.41,3.92A4.83,4.83,0,0,1,113.54,46.08Zm-1.11-5.78c0,1,.57,1.8,1.1,1.81a1.09,1.09,0,0,0,.67-.37,2.28,2.28,0,0,0,.47-1.42,2.23,2.23,0,0,0-.44-1.42.9.9,0,0,0-.66-.39h0c-.53,0-1.13.76-1.14,1.79Z"/><path class="c" d="M32.66,86.14a26,26,0,0,1-13-15.48,21.3,21.3,0,0,1-1-5.2,12.4,12.4,0,0,1,.91-5.54,14.2,14.2,0,0,1,3.15-4.54c.31-.32.64-.62,1-.91s.67-.57,1-.83l.51-.4.33-.28a2.9,2.9,0,0,0,.52-.59,4.34,4.34,0,0,0,.65-3.19,6.7,6.7,0,0,0-1.6-3.31,7.76,7.76,0,0,0-7.06-2.34,14.17,14.17,0,0,0-4,1.22,14,14,0,0,0-3.51,2.33A19,19,0,0,0,5.73,54.3a29.65,29.65,0,0,0-.82,17.77,32.93,32.93,0,0,0,3.41,8.42,34.23,34.23,0,0,0,2.53,3.79l1.46,1.82,1.54,1.76A51.66,51.66,0,0,0,28.49,99.18a46.83,46.83,0,0,0,8.61,3.39,41.15,41.15,0,0,0,4.5,1,29.64,29.64,0,0,0,4.46.44h.11a1.84,1.84,0,0,1,0,3.68,32.34,32.34,0,0,1-5.14-.45,45.2,45.2,0,0,1-4.91-1.08,50.13,50.13,0,0,1-9.34-3.61A54.82,54.82,0,0,1,11,90.46L9.35,88.58,7.79,86.65A38.82,38.82,0,0,1,5,82.43,36.68,36.68,0,0,1,1.12,73,33.53,33.53,0,0,1,2,52.86a22.68,22.68,0,0,1,5.84-8.7,17.66,17.66,0,0,1,4.5-3,18.14,18.14,0,0,1,5.18-1.53,12.81,12.81,0,0,1,5.61.48A11,11,0,0,1,28,43.31a10.54,10.54,0,0,1,2.5,5.29,8.21,8.21,0,0,1-1.33,6,7.35,7.35,0,0,1-1.08,1.21l-.6.49-.44.34c-.3.23-.58.46-.85.7a9.32,9.32,0,0,0-.79.74,10.27,10.27,0,0,0-2.35,3.31c-1.05,2.39-.71,5.28.19,8.14A22.48,22.48,0,0,0,34.26,83a1.78,1.78,0,0,1-1.59,3.18Z"/><path class="b" d="M148.18,95.61l-.16.06h0l.18-.07Z"/></svg>