<svg xmlns="http://www.w3.org/2000/svg" width="147.93" height="150.78" viewBox="0 0 147.93 150.78"><defs><style>.a{fill:#ffc364;}.b{fill:#db8b49;}.c{fill:#4f2909;}</style></defs><path class="a" d="M123.3,111.4l0,.37-.42-.07c2.11-3.21,1.32-6.3-2.89-7.82-7-2.52-18.31,2.59-18.31,2.59,1.5-5.62,2.57-17.9-3.56-25.87C92.18,73,81.17,71.1,73.82,77l.42.79c-1.14-.64-6.8-1.59-8-2.11.35-3.46,5.58-6.49,6.68-9.78,7.67-6,18.61-7.34,23.46-4.67,7.41,4.07,17.33-5,8.72-14-7.32-7.64-21.12-7.55-29.53-3l-.39,1.29A34.78,34.78,0,0,0,73.29,29c-5.82-16.74-15.46-26.91-18.1-27s-7.48,10.4-7.54,12.32a174.47,174.47,0,0,0-21.16,3.9S17.42,7.86,13.86,7.88C8.32,7.92.79,28.08,2,43.8,2.63,51.33,6.79,61,12.62,65.62a22,22,0,0,0,5.63,3.29,2.6,2.6,0,0,0,0,.4c0,.36,0,.73,0,1.09a6.53,6.53,0,0,0-.31.84L15.36,69c-2.94,7.31-5.93,32.78,4.32,50.92,7.62,13.46,20.65,26.89,48.14,28.73,8.54.57,18.17-1.06,29.31-5.81,14.45-.69,25.67-6.81,22.81-13a7.26,7.26,0,0,0-.53-1c.49-.26,1-.52,1.45-.82l0,0-.39,2.69A39.82,39.82,0,0,1,132,125.82c6-1.65,10.21-1.15,13-5C148.49,116,141.75,103.94,123.3,111.4Z"/><path class="b" d="M90.84,60a12.68,12.68,0,0,1,5.57,1.28c7.41,4.07,17.33-5,8.72-14a20.76,20.76,0,0,0-12.07-5.82A22.62,22.62,0,0,0,90.84,60Z"/><path class="b" d="M71,97.73c5,3.72,12.41,5,14.89,0,4-7-2.38-12.31-8.26-16.71C71.16,83.88,66.48,94.36,71,97.73Z"/><path class="b" d="M100.76,118.83c7.9,4,15.79-.16,22.09-7.17,2.08-3.2,1.28-6.27-2.91-7.78-7-2.52-18.31,2.59-18.31,2.59s.07-.29.11-.44C98.61,111.5,98.13,118,100.76,118.83Z"/><path class="b" d="M128.1,109.81c-1.24,5.58-.14,11,1.91,16.6.64-.21,1.3-.4,2-.59,6-1.65,10.21-1.15,13-5C148.17,116.41,142.91,106.1,128.1,109.81Z"/><path class="b" d="M120.52,130.68l.08-.06-.06-.1Z"/><path class="b" d="M93.31,130c-3.28,4.11-1.13,9.31,3.23,13.07l.59-.25c14.45-.69,25.67-6.81,22.81-13a4.35,4.35,0,0,0-.29-.52C113.7,122.09,98.58,121.56,93.31,130Z"/><path class="b" d="M55.23,28.38c-12.18-6.57-39.84.72-40.11,17.29-.25,15.06,18,21.62,33.56,17.5,6.78-1.8,13.87-8.51,15.67-15.57C66.29,40,62.05,32.06,55.23,28.38Z"/><path class="c" d="M60.63,63.41a25.65,25.65,0,0,0,12.11-16A27.2,27.2,0,0,0,73.17,37a44.23,44.23,0,0,0-2.9-10.29A67.32,67.32,0,0,0,59.41,8a22.19,22.19,0,0,0-3.66-3.51A4.73,4.73,0,0,0,55,4.11c-.05,0,0,0,.26,0s.11,0,.16,0h0a6.42,6.42,0,0,0-1.35,1.44A30.47,30.47,0,0,0,51.4,10c-.39.8-.76,1.62-1.1,2.42-.16.4-.32.81-.45,1.19a4.85,4.85,0,0,0-.17.55c0,.15-.07.33-.07.26l-1.73,1.88h0c-3.5.44-7,1-10.53,1.59s-7,1.34-10.34,2.26a2,2,0,0,1-2-.6h0a64.68,64.68,0,0,0-8.59-8.32,10.37,10.37,0,0,0-2.18-1.31,2.56,2.56,0,0,0-.34-.1s-.05,0-.12,0a2,2,0,0,0-.66.32,13.2,13.2,0,0,0-3.2,4.18A49.9,49.9,0,0,0,5.76,25.49,63,63,0,0,0,3.89,37.36a47.24,47.24,0,0,0,0,6A29,29,0,0,0,5,49,36.22,36.22,0,0,0,9.88,59.61a23.44,23.44,0,0,0,3.71,4.25,19.94,19.94,0,0,0,4.75,3,23.39,23.39,0,0,0,11.23,1.94,1.51,1.51,0,0,1,.31,3,27.21,27.21,0,0,1-6.57.15,24.41,24.41,0,0,1-6.48-1.65,23.81,23.81,0,0,1-5.75-3.47,22.88,22.88,0,0,1-4.53-5A38.25,38.25,0,0,1,1.2,50.05,35,35,0,0,1,.12,43.58a53.25,53.25,0,0,1,0-6.44A67.71,67.71,0,0,1,2,24.54a53.66,53.66,0,0,1,4.48-12A24.85,24.85,0,0,1,8.29,9.64,11.57,11.57,0,0,1,10.88,7,5.71,5.71,0,0,1,13,6a4.19,4.19,0,0,1,1.42,0,5.4,5.4,0,0,1,1.16.31,13.32,13.32,0,0,1,3.14,1.83A68.84,68.84,0,0,1,28,17h0l-2-.6c3.56-1,7.12-1.69,10.69-2.33s7.14-1.18,10.76-1.63h0l-1.73,1.89a5.42,5.42,0,0,1,.18-1.12c.07-.28.14-.54.22-.8.16-.5.33-1,.51-1.44.36-.92.76-1.81,1.18-2.7a33.43,33.43,0,0,1,3-5.16,14,14,0,0,1,1-1.27A6.86,6.86,0,0,1,53.3.56c.18-.11.4-.21.6-.31A3.57,3.57,0,0,1,54.73,0a3.52,3.52,0,0,1,1.63.19,7.87,7.87,0,0,1,1.73.92,25.51,25.51,0,0,1,4.43,4.21A71.43,71.43,0,0,1,74.06,25.24c2.87,7,4.54,15.21,2.73,23.11a25.94,25.94,0,0,1-5.24,10.82A21.53,21.53,0,0,1,61.74,66a1.41,1.41,0,0,1-1.13-2.57Z"/><path class="c" d="M44,72.37a31.57,31.57,0,0,1,12.72-1.83,40.19,40.19,0,0,1,12.63,2.7,45.21,45.21,0,0,1,11.18,6.38A38.15,38.15,0,0,1,85.33,84a19.58,19.58,0,0,1,3.72,5.75,9.69,9.69,0,0,1,.68,3.77,8.07,8.07,0,0,1-1.14,3.85A10,10,0,0,1,86,100.26a9.52,9.52,0,0,1-3.5,1.64,15,15,0,0,1-7.05-.28,35.72,35.72,0,0,1-6.13-2.24c-1-.44-1.92-.92-2.85-1.43s-1.72-.91-2.61-1.3a25.4,25.4,0,0,0-5.43-1.72,19.68,19.68,0,0,0-5.61-.31,13.52,13.52,0,0,0-2.71.51c-.43.13-.85.29-1.26.45a11.24,11.24,0,0,0-1.06.54l-.27.17a1.52,1.52,0,0,1-1.64-2.57c8.37-5.39,18.37-1.83,25.13,2a32.39,32.39,0,0,0,5.42,2,11,11,0,0,0,5.15.28,5.54,5.54,0,0,0,2-.93,6.19,6.19,0,0,0,1.54-1.69,4.67,4.67,0,0,0,.2-4.25,14.16,14.16,0,0,0-3-4.5,33.35,33.35,0,0,0-4.31-3.89,41.14,41.14,0,0,0-10.23-5.67,38.69,38.69,0,0,0-5.6-1.65,35,35,0,0,0-5.77-.8,56.91,56.91,0,0,0-11.7.7h0a1.55,1.55,0,0,1-.77-3Z"/><path class="c" d="M74.76,42.66a28.5,28.5,0,0,1,11.62-3.39,29.44,29.44,0,0,1,12.07,1.47,20,20,0,0,1,10,7.46,11.27,11.27,0,0,1,2.06,6.56,9.58,9.58,0,0,1-2.88,6.51,10.53,10.53,0,0,1-6.31,3A10.13,10.13,0,0,1,97.82,64a9.68,9.68,0,0,1-1.69-.6l-1.24-.6a12.5,12.5,0,0,0-4.78-.8,24.43,24.43,0,0,0-5.22.59C78,64.09,71.39,68.06,68,74.27h0A1.5,1.5,0,0,1,65.28,73,22.79,22.79,0,0,1,73,63.56a30,30,0,0,1,11-5,28.11,28.11,0,0,1,6.1-.71A16.63,16.63,0,0,1,96.5,59c.28.12.55.26.82.39l.51.25a6,6,0,0,0,1,.35,5.92,5.92,0,0,0,2.1.14,6.38,6.38,0,0,0,3.79-1.83,5.38,5.38,0,0,0,1.63-3.68,7.18,7.18,0,0,0-1.31-4.15,16,16,0,0,0-8-5.94,25.92,25.92,0,0,0-10.42-1.35,27.39,27.39,0,0,0-10.23,2.63h0a1.79,1.79,0,0,1-1.66-3.17Z"/><path class="c" d="M98.72,143.76a68.81,68.81,0,0,1-17.16,5.94,56,56,0,0,1-9.15,1.06c-1.54.05-3.08,0-4.63-.08s-3-.23-4.53-.41a68.78,68.78,0,0,1-17.77-4.37,52.84,52.84,0,0,1-15.66-9.7,58.09,58.09,0,0,1-11.46-14.37A54.71,54.71,0,0,1,12,104.58a80.38,80.38,0,0,1-1.42-18.16,79.24,79.24,0,0,1,.78-9.09,26.14,26.14,0,0,1,2.57-8.93A1.53,1.53,0,0,1,16,67.78a1.54,1.54,0,0,1,.78,1.66l0,.1c-.54,2.67-1.06,5.51-1.49,8.35a78,78,0,0,0-.68,8.64,76.38,76.38,0,0,0,1.44,17.23,51.13,51.13,0,0,0,6,15.94A56.77,56.77,0,0,0,32.66,133a48.86,48.86,0,0,0,14.4,9,64.87,64.87,0,0,0,16.67,4.15c1.43.18,2.88.3,4.32.41s2.84.13,4.26.08a54.51,54.51,0,0,0,8.53-.83A87.9,87.9,0,0,0,97.51,141a1.49,1.49,0,0,1,1.21,2.73Z"/><path class="c" d="M97.81,120.94a67.38,67.38,0,0,0,13.2-3.61,33.6,33.6,0,0,0,6-3,13.47,13.47,0,0,0,4.37-4.16,3.3,3.3,0,0,0,.54-2.08,2.29,2.29,0,0,0-1.05-1.52,9.8,9.8,0,0,0-5.52-1.42,39.83,39.83,0,0,0-13,2.81h0a1.67,1.67,0,0,1-2.23-.78,1.63,1.63,0,0,1-.12-1.12l0-.08a34.52,34.52,0,0,0,.86-6.37,38.4,38.4,0,0,0-.17-6.44A22.8,22.8,0,0,0,96.4,81.69a16.38,16.38,0,0,0-10.14-6.06A14.69,14.69,0,0,0,74.85,78.3h0A1.63,1.63,0,0,1,72.55,78a1.65,1.65,0,0,1,.24-2.24,17.29,17.29,0,0,1,6.6-3.49,18.47,18.47,0,0,1,7.47-.43,19.87,19.87,0,0,1,12.66,7.41,25.79,25.79,0,0,1,5,13.58,39.37,39.37,0,0,1-1.22,14.08l-2.33-2h0a43,43,0,0,1,6.91-2.59,29,29,0,0,1,7.46-1.17,13.18,13.18,0,0,1,7.94,2.15,6.45,6.45,0,0,1,2.7,4.24,7.39,7.39,0,0,1-1,4.69,16.75,16.75,0,0,1-5.74,5.55,38,38,0,0,1-6.73,3.22,67.22,67.22,0,0,1-14.14,3.56,1.83,1.83,0,0,1-.56-3.62Z"/><path class="c" d="M51,54.07a7.29,7.29,0,0,1-3.44.56,9.51,9.51,0,0,1-3.25-.85,11.38,11.38,0,0,1-4.89-4.21l3.43-.8h0a8.54,8.54,0,0,1-.37,1.74,8.13,8.13,0,0,1-.64,1.56,9,9,0,0,1-2.12,2.68,9.48,9.48,0,0,1-3,1.71,6.52,6.52,0,0,1-3.22.39,1.84,1.84,0,0,1-.38-3.52l.14-.06c.75-.29,1.43-.45,2.08-.67a5.22,5.22,0,0,0,1.71-1,5.43,5.43,0,0,0,1.28-1.49,7.18,7.18,0,0,0,.46-.92c.13-.29.25-.71.31-.88h0c.37-1.6,2.66-2.08,3.42-.79a8.53,8.53,0,0,0,3.32,2.76,6.16,6.16,0,0,0,3.93.43l.09,0A1.77,1.77,0,0,1,51,54.07Z"/><path class="c" d="M51.14,39.56A2.86,2.86,0,0,0,54.3,42a2.74,2.74,0,0,0,1.8-3.45A2.84,2.84,0,0,0,53,36.11,2.75,2.75,0,0,0,51.14,39.56Z"/><path class="c" d="M53.85,44a5,5,0,0,1-4.7-4h0a5.24,5.24,0,0,1,.63-4,4.29,4.29,0,0,1,2.74-1.94A4.89,4.89,0,0,1,58.1,38a5.25,5.25,0,0,1-.63,4A4.29,4.29,0,0,1,54.73,44,4.46,4.46,0,0,1,53.85,44Zm-.44-5.93h0a.3.3,0,0,0-.14.13,1.14,1.14,0,0,0-.1.86h0c.14.62.57.86.73.85a.27.27,0,0,0,.14-.14,1.1,1.1,0,0,0,.1-.85C54,38.37,53.58,38.11,53.41,38.11Z"/><path class="c" d="M21.64,45.08a2.83,2.83,0,0,0,3,2.53,2.75,2.75,0,0,0,2-3.36,2.82,2.82,0,0,0-3-2.53A2.75,2.75,0,0,0,21.64,45.08Z"/><path class="c" d="M24.32,49.69a5,5,0,0,1-4.69-4.26h0a5.23,5.23,0,0,1,.83-3.93,4.29,4.29,0,0,1,2.83-1.8,4.88,4.88,0,0,1,5.38,4.2,5.27,5.27,0,0,1-.83,3.93A4.28,4.28,0,0,1,25,49.63,3.91,3.91,0,0,1,24.32,49.69Zm-.66-5c.1.58.49.92.68.87a.27.27,0,0,0,.15-.13,1.17,1.17,0,0,0,.15-.85c-.11-.59-.52-.91-.68-.87a.26.26,0,0,0-.16.13A1.12,1.12,0,0,0,23.66,44.72Z"/><path class="c" d="M78.39,98.13a22,22,0,0,1,14.54,6.05,19.3,19.3,0,0,1,4.4,6.79A27.82,27.82,0,0,1,99,118.66c0,.65.07,1.3.09,1.9a7.6,7.6,0,0,0,.1,1.25.69.69,0,0,0-.26-.31c-.11-.06-.1,0,.1,0a15.55,15.55,0,0,0,1.57.1c2.37.06,4.9.05,7.43.29a26.53,26.53,0,0,1,7.7,1.72,12.66,12.66,0,0,1,3.67,2.26,9.47,9.47,0,0,1,2.59,3.84,6.6,6.6,0,0,1-.39,5,10.87,10.87,0,0,1-2.84,3.45,24.6,24.6,0,0,1-7,3.8,49.34,49.34,0,0,1-14.94,2.8,50.18,50.18,0,0,1-7.63-.2,21.48,21.48,0,0,1-7.67-2.3,16,16,0,0,1-6-5.62A19.3,19.3,0,0,1,73.77,133c-.23-.63-.43-1.26-.6-1.86l-.26-.87c-.06-.24-.2-.59-.12-.42h0l2.76.66A22.57,22.57,0,0,1,68,134.07a23.66,23.66,0,0,1-4.1.74,18.61,18.61,0,0,1-4.22,0,1.32,1.32,0,0,1-.11-2.61l.12,0c1.13-.24,2.4-.53,3.58-.86s2.38-.7,3.53-1.13,2.28-.88,3.38-1.39,2.18-1.07,3.28-1.61l.33-.16a1.82,1.82,0,0,1,2.43.83h0a5.57,5.57,0,0,1,.51,1.29L77,130c.17.57.34,1.1.53,1.62a15,15,0,0,0,1.4,2.91,12.09,12.09,0,0,0,4.56,4.25c3.77,2.05,8.55,2.19,13.27,2a46,46,0,0,0,13.73-2.56,20.56,20.56,0,0,0,5.82-3.14,6.92,6.92,0,0,0,1.81-2.14,2.59,2.59,0,0,0,.19-2.06,5.74,5.74,0,0,0-1.48-2.15,8.93,8.93,0,0,0-2.54-1.54,22.71,22.71,0,0,0-6.54-1.43c-2.33-.22-4.68-.22-7.19-.27a18.85,18.85,0,0,1-2.08-.16,3.83,3.83,0,0,1-1.63-.58,3.32,3.32,0,0,1-1.33-1.74,8.76,8.76,0,0,1-.31-2.38c0-.62,0-1.19-.08-1.75a23.79,23.79,0,0,0-1.45-6.56A15.6,15.6,0,0,0,90.15,107a18.22,18.22,0,0,0-11.92-4.9h0a2,2,0,1,1,.17-4Z"/><path class="c" d="M120.52,132.73a2,2,0,0,1-1.17-3.73,42.07,42.07,0,0,1,12.09-5.15c1.76-.49,3.37-.8,4.8-1.07,3.76-.72,5.63-1.15,7.12-3.2.76-1,.73-3.13-.79-5.07-1.21-1.55-6.13-6.22-18.5-1.22a2,2,0,1,1-1.53-3.79c15-6.08,21.6.37,23.26,2.48,2.48,3.17,2.84,7.28.87,10-2.5,3.45-5.82,4.09-9.66,4.82-1.42.27-2.88.55-4.48,1a38.58,38.58,0,0,0-10.84,4.57A2.05,2.05,0,0,1,120.52,132.73Z"/><path class="b" d="M16.92,14.49a8.78,8.78,0,0,0-.86-.54,3.09,3.09,0,0,0-2.48-.38,3.68,3.68,0,0,0-1.81,2.37c-1.43,3.84-4.08,11.43,3.17,10.85,2.61-.21,5.31-1.46,6-4.23S19.34,16.23,16.92,14.49Z"/><path class="b" d="M57.05,9.08c-1.33-.89-2.73-.91-3.55.8-1,2-3.64,6.56-1.33,8.53,1.59,1.35,4.9.93,6.52,0C62.11,16.33,59.74,10.9,57.05,9.08Z"/></svg>