<svg xmlns="http://www.w3.org/2000/svg" width="134.89" height="127.37" viewBox="0 0 134.89 127.37"><defs><style>.a{fill:#fff;}.b{fill:#ffa143;}.c{fill:#4f2909;}</style></defs><path class="a" d="M101.6,32.73c-12.15-4.16-21.51-2.66-26.5-1.14-2.75-17.07-9.49-28.5-12.16-29.4-2.32-.78-8.44,6-11.83,11.76,0,0-13.09-1.89-25.53.37,0,0-6.3-7.69-10.29-10.52S.9,25.24,2.14,41.63C3,52.54,7.91,59.81,14.37,64.35a27.66,27.66,0,0,0,5.05,2.71,4.32,4.32,0,0,0-.31.94l-.38-.89c-1.62,4.72-5.13,26.29,10.46,28,.3.64.6,1.28.91,1.92-1.16,4,1.24,9.54,5.5,14.51,10.89,12.69,33.2,16.22,55.28,12.4,18.5-3.2,37.4-14.91,41.29-37.32C135.74,66.07,126.56,41.27,101.6,32.73Z"/><path class="b" d="M51.36,78.27c-1.28-3-4.17-4-7.2-4.4a2.51,2.51,0,0,0-.61,0,4,4,0,0,0-2.55,0A5.36,5.36,0,0,0,37.14,79a7.53,7.53,0,0,0,2,4.65,7.59,7.59,0,0,0,7.88,2.91A6.26,6.26,0,0,0,51.36,78.27Z"/><path class="b" d="M47.92,31.57C44.31,44.79,57.2,59.11,68,54.3c8.47-3.76,9-11.93,9.11-23.26-.73.18-1.41.36-2,.55A85.85,85.85,0,0,0,71.44,17C60.83,17.17,50,21.29,47.92,31.57Z"/><path class="b" d="M50.32,100.06c-3.61-6-10.81-9.61-18-6a14.62,14.62,0,0,0-2.57,2.18c.12.26.24.52.37.78-1.16,4,1.24,9.54,5.5,14.51a32.72,32.72,0,0,0,8.45,6.87C52.2,117.56,55.37,106,50.32,100.06Z"/><path class="b" d="M102,58c7.2,8.09,19.11,12.15,29.69,8.63-3.25-14.54-12.94-28-30.07-33.91q-1.95-.66-3.81-1.14C93.3,40.11,95.35,52.2,102,58Z"/><path class="b" d="M28.74,13.83c-1.06.14-2.11.3-3.16.49,0,0-6.3-7.69-10.29-10.52C11.45,1.08,1.63,23.57,2.06,39.87,14.69,35.05,25.29,26.71,28.74,13.83Z"/><path class="c" d="M59.42,64.16a29.5,29.5,0,0,0,12.9-16.1,32.26,32.26,0,0,0,1.5-10.38,36.12,36.12,0,0,0-.49-5.27q-.42-2.7-1-5.36a81.48,81.48,0,0,0-3-10.43A46.61,46.61,0,0,0,64.58,7a17.93,17.93,0,0,0-1.49-2,7.54,7.54,0,0,0-.72-.7.58.58,0,0,0-.18-.11s.32.1.37,0-.2,0-.46.11a6.36,6.36,0,0,0-.91.57,20.1,20.1,0,0,0-1.91,1.64,42.6,42.6,0,0,0-6.54,8.36h0a1.94,1.94,0,0,1-1.9.91h0c-2-.26-4.13-.44-6.21-.56s-4.19-.16-6.28-.15-4.18.11-6.25.28-4.13.45-6.17.79h0a1.87,1.87,0,0,1-1.75-.59l-.06-.07a105,105,0,0,0-8.66-8.95c-.38-.31-.76-.63-1.13-.9l-.14-.1,0,0a.76.76,0,0,0,.27.11,1.1,1.1,0,0,0,.37,0,2.68,2.68,0,0,0-.56.42,8.41,8.41,0,0,0-.85,1,29.85,29.85,0,0,0-3,5.16A70.66,70.66,0,0,0,6.25,23.9,65.87,65.87,0,0,0,4.18,36.12a36.26,36.26,0,0,0,.05,6.08,31.27,31.27,0,0,0,1,5.95,26.4,26.4,0,0,0,5.52,10.48,26.8,26.8,0,0,0,4.41,4,25.36,25.36,0,0,0,5.23,2.86,28.11,28.11,0,0,0,11.63,2.26h0a1.23,1.23,0,0,1,.38,2.42,18.06,18.06,0,0,1-6.86.43,26.7,26.7,0,0,1-6.56-1.75,28.91,28.91,0,0,1-6-3.22A29.83,29.83,0,0,1,1.47,49.22,36.75,36.75,0,0,1,.21,42.59a40.86,40.86,0,0,1-.13-6.72,69.05,69.05,0,0,1,2.17-13A74.58,74.58,0,0,1,6.64,10.44a33.38,33.38,0,0,1,3.41-5.93,13.52,13.52,0,0,1,1.26-1.44,6,6,0,0,1,2.07-1.36,3.52,3.52,0,0,1,1.95-.13,3.07,3.07,0,0,1,1,.42c.18.11.22.15.28.19l.18.13c.49.36.93.74,1.36,1.11a74.92,74.92,0,0,1,8.9,9.68l-1.81-.66h0c2.17-.37,4.35-.68,6.53-.84s4.36-.28,6.54-.29,4.35,0,6.52.15,4.32.3,6.55.6L49.47,13h0a52.2,52.2,0,0,1,7.05-9.21,21.58,21.58,0,0,1,2.28-2A10.6,10.6,0,0,1,60.22.78,7.8,7.8,0,0,1,62.39,0a2.89,2.89,0,0,1,1.71.3,5.19,5.19,0,0,1,1,.66,10.41,10.41,0,0,1,1.24,1.26,20.9,20.9,0,0,1,1.79,2.52A44,44,0,0,1,70.79,10Q72,12.59,73,15.28a87.06,87.06,0,0,1,3.1,11c.4,1.85.73,3.71,1,5.59a38.8,38.8,0,0,1,.47,5.81,35.58,35.58,0,0,1-1.88,11.53,30.4,30.4,0,0,1-5.79,10.18,25,25,0,0,1-9.47,6.75,1.09,1.09,0,0,1-1-1.94Z"/><path class="c" d="M50.34,51.51a4.52,4.52,0,0,1-2,1.67,7.32,7.32,0,0,1-2,.53,9.66,9.66,0,0,1-4-.4,8.85,8.85,0,0,1-3.47-2.13,10.12,10.12,0,0,1-2.17-3.29h0l3.37,0a12.42,12.42,0,0,1-2.05,3,9.87,9.87,0,0,1-3,2.26,8.13,8.13,0,0,1-3.86.81,7.65,7.65,0,0,1-3.59-1.1,1.66,1.66,0,0,1,1.27-3l.08,0a6,6,0,0,0,4.41-.16,6.94,6.94,0,0,0,1.89-1.43,10.7,10.7,0,0,0,1.49-2l0-.08a1.85,1.85,0,0,1,2.52-.73,1.82,1.82,0,0,1,.8.85h0a5.92,5.92,0,0,0,3.48,3.17,5.64,5.64,0,0,0,2.35.23,7.91,7.91,0,0,0,1.08-.22c.33-.06.6-.25.61-.11a1.76,1.76,0,1,1,2.84,2.07Z"/><path class="c" d="M30.66,97.18h-.05c-5.27-.13-9.28-2.14-11.93-6C13,83,15.85,69.4,16.85,66.46a2,2,0,1,1,3.75,1.29c-1.13,3.31-3,15,1.33,21.2,1.92,2.76,4.8,4.16,8.78,4.26a2,2,0,0,1-.05,4Z"/><path class="c" d="M134.57,72.07a51.85,51.85,0,0,0-6.8-20.7,46,46,0,0,0-15.2-15.71A50.45,50.45,0,0,0,92,28.43a39.29,39.29,0,0,0-11,.11,35.58,35.58,0,0,0-5.3,1.28,20.82,20.82,0,0,1,.37,3l.37-.08a41.87,41.87,0,0,1,5-.69,46.93,46.93,0,0,1,10,.28,48.25,48.25,0,0,1,9.81,2.45,45.94,45.94,0,0,1,9.08,4.35,42,42,0,0,1,14,14.23,48.43,48.43,0,0,1,4.31,39.08,39.62,39.62,0,0,1-10.86,16.66,50.37,50.37,0,0,1-17.36,10.23A61.23,61.23,0,0,1,90.55,122c-3.4.57-6.83,1-10.27,1.22A78.83,78.83,0,0,1,59.8,122c-6.67-1.32-13.17-3.73-18.44-7.77A29.66,29.66,0,0,1,34.67,107a22,22,0,0,1-2.2-4.29,10,10,0,0,1-.69-4.29c.18-2.56,2.68-4.47,5.43-4.39a11.37,11.37,0,0,1,4.35,1,24.15,24.15,0,0,1,4.25,2.41c2.8,1.93,5.6,4.18,8.7,6.11a34.39,34.39,0,0,0,10.19,4.43,33.45,33.45,0,0,0,5.53.85c1.8.08,3.6.19,5.41.15a63.52,63.52,0,0,0,10.82-1,50.89,50.89,0,0,0,20.13-8.18,45.32,45.32,0,0,0,8.13-7.33,35.69,35.69,0,0,0,5.89-9.28,1.32,1.32,0,0,0-2.37-1.16l0,.1a35.24,35.24,0,0,1-2.76,4.16,41.92,41.92,0,0,1-3.27,3.88,45.89,45.89,0,0,1-7.68,6.58A47,47,0,0,1,85.8,104.4a60.73,60.73,0,0,1-10.18.86c-1.71,0-3.42-.07-5.13-.15a29.51,29.51,0,0,1-4.88-.76,30.74,30.74,0,0,1-9.07-4c-2.87-1.79-5.57-4-8.54-6a28.69,28.69,0,0,0-4.91-2.8,15.17,15.17,0,0,0-5.85-1.36,10.27,10.27,0,0,0-3.22.48,9.82,9.82,0,0,0-2.92,1.57,8.62,8.62,0,0,0-2.2,2.57,8.72,8.72,0,0,0-1,3.23,13.67,13.67,0,0,0,.89,6,25.11,25.11,0,0,0,2.59,5.09,33.76,33.76,0,0,0,7.56,8.21c5.94,4.56,13,7.13,20.08,8.56a82.81,82.81,0,0,0,21.53,1.22,103.71,103.71,0,0,0,10.68-1.28,65.09,65.09,0,0,0,10.52-2.74,54.28,54.28,0,0,0,18.73-11.07,43.53,43.53,0,0,0,11.93-18.32A51.31,51.31,0,0,0,134.57,72.07Z"/><path class="c" d="M91.4,56.88a21.8,21.8,0,0,0-11.93,3.86A16.94,16.94,0,0,0,74,82.42,15.33,15.33,0,0,0,78,87a17.72,17.72,0,0,0,2.59,1.69,16.82,16.82,0,0,0,2.74,1.2h0l.13,0a2,2,0,0,1,1.17,2.55A2,2,0,0,1,83,93.73a46.07,46.07,0,0,0-7.43,1.76,20.39,20.39,0,0,0-6.46,3.23A4.94,4.94,0,0,0,67.47,101a2.78,2.78,0,0,0,.22,2.32A4.1,4.1,0,0,0,69.91,105a9.65,9.65,0,0,0,3.37.47h0a1.6,1.6,0,0,1,.1,3.19,12.88,12.88,0,0,1-4.53-.43,7.68,7.68,0,0,1-4.2-2.88,6.39,6.39,0,0,1-1-2.6,6.63,6.63,0,0,1,.17-2.74,8.78,8.78,0,0,1,2.84-4.16,24,24,0,0,1,7.7-4,51.53,51.53,0,0,1,8.1-2l-.26,3.87h0a19.85,19.85,0,0,1-3.55-1.52,22.34,22.34,0,0,1-3.14-2.06,19.21,19.21,0,0,1-5-5.74,18.51,18.51,0,0,1-2.25-7.27,23.74,23.74,0,0,1,.46-7.47,19.13,19.13,0,0,1,3.07-6.94,18.67,18.67,0,0,1,5.58-5.09,21.31,21.31,0,0,1,6.88-2.67,19.86,19.86,0,0,1,7.29-.2,1.09,1.09,0,0,1-.16,2.17Z"/><path class="c" d="M29.67,80.46a10.9,10.9,0,0,1,5.65-6.72,14.49,14.49,0,0,1,8.53-1.26,21.67,21.67,0,0,1,7.86,2.79,17.83,17.83,0,0,1,6.22,5.79A13.21,13.21,0,0,1,60,89.59,9.36,9.36,0,0,1,58.3,94a7.8,7.8,0,0,1-4,2.82,10.36,10.36,0,0,1-4.65.21,11.2,11.2,0,0,1-4.18-1.67c-2.48-1.61-6.14-4.31-6.14-4.31a1.33,1.33,0,0,1,1.77-2c1.06.77,2,1.5,3,2.14a16.86,16.86,0,0,0,3.05,1.55,18.48,18.48,0,0,0,3.11.69,6.89,6.89,0,0,0,3-.12,4.71,4.71,0,0,0,3.16-4.22A9.52,9.52,0,0,0,54.8,83a14.46,14.46,0,0,0-4.92-4.62A18.17,18.17,0,0,0,43.35,76a11.1,11.1,0,0,0-6.48.85,8.09,8.09,0,0,0-4.2,4.55v0a1.58,1.58,0,0,1-3-1Z"/><path class="c" d="M51.71,38.88a3,3,0,0,0,2.66,3.33A3,3,0,0,0,57.11,39a3,3,0,0,0-2.66-3.33A3,3,0,0,0,51.71,38.88Z"/><path class="c" d="M54.4,44.19h-.06c-2.58,0-4.65-2.42-4.62-5.33h0c0-2.89,2.14-5.22,4.7-5.22h0a4.48,4.48,0,0,1,3.43,1.73,5.8,5.8,0,0,1-.09,7.18A4.47,4.47,0,0,1,54.4,44.19Zm-.71-5.28c0,.79.42,1.32.7,1.32h0c.16,0,.32-.17.38-.24a1.85,1.85,0,0,0,0-2.14c-.06-.08-.21-.25-.37-.25h0c-.28,0-.72.52-.73,1.31Z"/><path class="c" d="M20.21,39.53a3,3,0,0,0,2.67,3.32,3,3,0,0,0,2.74-3.26A3,3,0,0,0,23,36.26,3.05,3.05,0,0,0,20.21,39.53Z"/><path class="c" d="M22.9,44.84h0c-2.59,0-4.67-2.43-4.63-5.34a5.65,5.65,0,0,1,1.28-3.57,4.49,4.49,0,0,1,3.42-1.65H23c2.58,0,4.66,2.42,4.62,5.33A5,5,0,0,1,22.9,44.84Zm0-6.6a.59.59,0,0,0-.38.24,1.74,1.74,0,0,0-.36,1.07c0,.79.42,1.32.71,1.32h0c.29,0,.73-.52.74-1.3s-.42-1.32-.71-1.33Z"/><path class="b" d="M96.91,67.84c-3.32-3.73-9.37-5.85-13.54-3.77A8.47,8.47,0,0,0,78.64,71a7.81,7.81,0,0,0,4.13,7.19,14.21,14.21,0,0,0,7.16,2.87,8.46,8.46,0,0,0,8.24-3.79C100.23,73.94,99.25,70.48,96.91,67.84Z"/></svg>