<svg xmlns="http://www.w3.org/2000/svg" width="151.89" height="158.18" viewBox="0 0 151.89 158.18"><defs><style>.a{fill:#fff;}.b{fill:#ffa143;}.c{fill:#918380;}.d{fill:#4f2909;}</style></defs><path class="a" d="M141.84,10.37c-4.55.72-13.54,9.4-13.54,9.4C121.09,17.48,105,15.39,105,15.39,105,13.41,99.67,2.11,97,2S84.42,9.89,78.36,24.86C72.64,39,76.05,51,81.86,58.32c-.59.27-1.18.54-1.76.83l.23-.91C74,56.76,62.71,59.66,62.61,70.78a14.69,14.69,0,0,0,4.17,11l-.35.48c-5.93-3.91-11.11-4.46-16.93,1-4.68,4.4-5.73,14.93-4.28,18,0,0-9.82-9.19-15.59-7.79s-5.37,10,2.72,16.32,11.77,6.9,11.77,6.9l.67-1c.15.13.32.24.48.36a10.39,10.39,0,0,0-1.15.67c-8.16,5.6,5.39,12.67,12,15.93s16.86,4.81,21.09,5.16c0,0-20.72,4.82-37.68-2.31S19,113.75,6.37,118.45s2.73,32.35,37.35,37c40.9,5.5,68.43-19.32,77.37-31.58,15-20.54,13.45-41.24,10.55-51.21A12,12,0,0,0,132,70.5a22.83,22.83,0,0,0,6.59-3.06c6.16-4.37,9.75-12.8,10.9-20.55C151.9,30.7,145.35,9.82,141.84,10.37Z"/><path class="b" d="M44.67,95.87a12.12,12.12,0,0,0,.55,5.35S35.4,92,29.63,93.43s-5.37,10,2.72,16.32c5.27,4.09,8.66,5.77,10.39,6.45,1.8-2.09,3.29-8.15,2.59-15.6C44.93,96.26,46.26,99.84,44.67,95.87Z"/><path class="c" d="M85.34,106.23c-1.08-3.85-5.88-7.14-10.58-6.85-5.29.33-11.69,5.7-8.29,11.94,2.35,4.32,11.34,5,15.81,1.91C85.27,111.14,86,108.58,85.34,106.23Z"/><path class="b" d="M109.34,73.28c-2.59-1.46-6.19-.74-8.92-.1-3.89.92-4.88,5.38-2.84,8.56,2.15,3.37,9.22,4.92,12.55,2.4S112.93,75.3,109.34,73.28Z"/><path class="b" d="M100.31,45.59c9.2-5,14.32-17,14.56-28.71-5.36-.9-9.92-1.49-9.92-1.49C105,13.41,99.67,2.11,97,2S84.42,9.89,78.36,24.86a36.34,36.34,0,0,0-2.6,19A24.08,24.08,0,0,0,100.31,45.59Z"/><path class="c" d="M118.47,43.37c-1,4.41.38,9.77,4.46,12.32,5.21,3.25,12.39.49,16.39-3.47a17.41,17.41,0,0,0,5.05-13.46c-.41-5.53-6.35-9.65-11.8-8.54C125.8,31.61,120,36.46,118.47,43.37Z"/><path class="b" d="M95.51,116.48c-8.18,9.66-8.54,21.17-5.91,32.23,15.69-7.21,26.49-18,31.49-24.83a65.92,65.92,0,0,0,9-16.86C117.82,103.23,103.41,106.59,95.51,116.48Z"/><path class="b" d="M49.63,138.34a47.1,47.1,0,0,1-10.07-2.91,41.3,41.3,0,0,1-5-2.5,36.13,36.13,0,0,1-15,14.37,63.68,63.68,0,0,0,24.1,8.16c1.31.18,2.6.31,3.88.43C49.84,150.22,50.88,144.31,49.63,138.34Z"/><path class="c" d="M38.82,135.49C26,128,17.68,114.25,6.37,118.45c-9.16,3.4-2.9,21.22,19,31.45C31.62,146.59,33.24,142.93,38.82,135.49Z"/><path class="d" d="M88.2,65.53A22.5,22.5,0,0,1,79,57.75a30.29,30.29,0,0,1-4.78-11A39,39,0,0,1,76.87,23.3,56,56,0,0,1,90,3.94,28.41,28.41,0,0,1,92.38,2,13.41,13.41,0,0,1,95.3.34,5.74,5.74,0,0,1,96.38.05a3.64,3.64,0,0,1,.77,0,3.46,3.46,0,0,1,.9.19,5.39,5.39,0,0,1,1.88,1.28,15.94,15.94,0,0,1,2,2.54,41.1,41.1,0,0,1,2.88,5.22c.42.89.82,1.79,1.17,2.74.18.47.35,1,.5,1.47.08.26.15.53.22.83a4.75,4.75,0,0,1,.13,1.2l-1.65-2h0c4,.53,7.9,1.13,11.84,1.82,2,.34,3.93.71,5.9,1.13s3.94.88,5.95,1.5l-1.9.45h0a61.66,61.66,0,0,1,9.89-8A17.6,17.6,0,0,1,140,8.81a8.43,8.43,0,0,1,.93-.3l.53-.11a2.63,2.63,0,0,1,.48-.05,2.25,2.25,0,0,1,.59,0,3.55,3.55,0,0,1,1.56.72,6.1,6.1,0,0,1,.85.82A13.72,13.72,0,0,1,146.8,13c.48,1,.88,2,1.25,3a66.77,66.77,0,0,1,3,12.33A71.83,71.83,0,0,1,151.86,41a48.86,48.86,0,0,1-2,12.65,32.57,32.57,0,0,1-6,11.53,20.63,20.63,0,0,1-5.09,4.42,24.37,24.37,0,0,1-6.1,2.6,26.88,26.88,0,0,1-13,.4,1.47,1.47,0,0,1,.49-2.89h0a25.89,25.89,0,0,0,11.42-1,22.49,22.49,0,0,0,5.15-2.35,19.72,19.72,0,0,0,4.09-3.73,30.82,30.82,0,0,0,5.4-10.14,37.09,37.09,0,0,0,1.37-5.71,46.33,46.33,0,0,0,.48-5.91A67.36,67.36,0,0,0,147.25,29a63,63,0,0,0-2.93-11.56c-.34-.92-.71-1.81-1.12-2.66a10.18,10.18,0,0,0-1.33-2.16c-.17-.26-.51-.35-.07-.2a.7.7,0,0,0,.21,0c.08,0,.19,0,.1,0l-.23,0a5.44,5.44,0,0,0-.54.17,13.35,13.35,0,0,0-2.39,1.2,67.75,67.75,0,0,0-9.33,7.34h0a1.91,1.91,0,0,1-1.89.45c-1.78-.56-3.69-1-5.59-1.41s-3.83-.77-5.77-1.11c-3.86-.67-7.78-1.27-11.67-1.79h0l-1.65-1.95c0,.11,0-.06-.06-.21s-.09-.34-.15-.54c-.13-.38-.28-.79-.45-1.2-.33-.82-.71-1.65-1.1-2.46a38.13,38.13,0,0,0-2.65-4.69,12.36,12.36,0,0,0-1.51-1.9A4,4,0,0,0,96.71,4a.94.94,0,0,0,.21,0H97a1,1,0,0,0-.28.09,9.22,9.22,0,0,0-2,1.16,20.65,20.65,0,0,0-2,1.65A51.81,51.81,0,0,0,80.5,24.84a38.36,38.36,0,0,0-2.87,10.38,31,31,0,0,0,.53,10.61,29.28,29.28,0,0,0,11.32,17.3l0,0a1.36,1.36,0,0,1-1.32,2.37Z"/><path class="d" d="M114.07,80.71a16.67,16.67,0,0,0-5.22-4,12.16,12.16,0,0,0-3.16-1,14.55,14.55,0,0,0-3.37-.19,19.1,19.1,0,0,0-6.66,1.63A19.87,19.87,0,0,0,89.9,81a6.93,6.93,0,0,0-2.38,5.3,4.5,4.5,0,0,0,.83,2.48A3.58,3.58,0,0,0,90.46,90a16,16,0,0,0,6.65-.39,60.17,60.17,0,0,0,7-2.12h0a1.62,1.62,0,0,1,1.2,3A47.65,47.65,0,0,1,98,93.2a18.34,18.34,0,0,1-8.39.56,7.51,7.51,0,0,1-4.27-2.62,8.38,8.38,0,0,1-1.61-4.6,9.26,9.26,0,0,1,1-4.61,13,13,0,0,1,2.63-3.55,24.68,24.68,0,0,1,6.82-4.58,22.76,22.76,0,0,1,8-2,16.91,16.91,0,0,1,8.28,1.52A13.9,13.9,0,0,1,114,75.69a11.38,11.38,0,0,1,2.54,3.41,1.48,1.48,0,0,1-2.38,1.69Z"/><path class="d" d="M79.93,59.93c-4.55-.76-9.93.58-12.89,3.92A10.06,10.06,0,0,0,64.67,70a14.88,14.88,0,0,0,1.18,6.86,9.65,9.65,0,0,0,4.33,4.85,4.84,4.84,0,0,0,5.35-.18c.2-.1.32-.33.49-.48a2.75,2.75,0,0,0,.47-.57,6.94,6.94,0,0,0,.77-1.38A8.4,8.4,0,0,0,77.87,76a25.36,25.36,0,0,0-1.35-7.21,1.46,1.46,0,0,1,2.68-1.11l0,0a18.18,18.18,0,0,1,2.56,8.26A11.63,11.63,0,0,1,81,80.63a10.71,10.71,0,0,1-2.87,4,8.08,8.08,0,0,1-4.9,1.83,9.82,9.82,0,0,1-2.55-.25,10.45,10.45,0,0,1-2.3-.89,13.66,13.66,0,0,1-6.2-6.83,18.85,18.85,0,0,1-1.45-8.8,14.15,14.15,0,0,1,3.43-8.47,15.86,15.86,0,0,1,7.77-4.58,17.41,17.41,0,0,1,8.84-.13A1.74,1.74,0,0,1,82,58.66c-.23.88.63,2.32-.24,2.18Z"/><path class="d" d="M82.87,98.3a17.69,17.69,0,0,0-9.48-1.53A12.88,12.88,0,0,0,69,98.25a14.38,14.38,0,0,0-3.64,3,15.22,15.22,0,0,0-2.53,4,9.92,9.92,0,0,0-.67,4.47A21.7,21.7,0,0,0,65.46,119h0a1.43,1.43,0,0,1-1.84,2.15l-.18-.12a33.23,33.23,0,0,0-7.24-3.4,15.74,15.74,0,0,0-7.45-.82,8.63,8.63,0,0,0-3.22,1.23,4.19,4.19,0,0,0-1.91,2,1.57,1.57,0,0,0,0,1,4.37,4.37,0,0,0,.68,1.26A13.6,13.6,0,0,0,47,124.87a47.65,47.65,0,0,0,6.88,4.32c1.21.64,2.48,1.32,3.68,1.89a34.23,34.23,0,0,0,3.73,1.52,84.28,84.28,0,0,0,16.12,3.64h0a1.49,1.49,0,0,1,1.37,1.62,1.51,1.51,0,0,1-1.18,1.34,80.85,80.85,0,0,1-18,1.76,59.68,59.68,0,0,1-18-2.83,47.36,47.36,0,0,1-15.81-9.19c-2.31-1.94-4.47-4-6.67-5.79s-4.46-3.25-6.84-3.58a9.63,9.63,0,0,0-3.65.22,16.14,16.14,0,0,0-1.82.58,5.3,5.3,0,0,0-1.37.82c-1.54,1.26-1.83,3.7-1.18,6.2a21.42,21.42,0,0,0,3.65,7.16,38.71,38.71,0,0,0,5.76,6.12c8.66,7.37,19.83,11.62,31.22,13a80.53,80.53,0,0,0,34.22-3,84.52,84.52,0,0,0,30-16.84,67.61,67.61,0,0,0,11.57-12.71,64.21,64.21,0,0,0,7.75-15.3A60.29,60.29,0,0,0,131.63,89,64.22,64.22,0,0,0,130,72v0a1.42,1.42,0,0,1,2.7-.84c2.31,5.74,2.83,11.93,2.69,18a60.3,60.3,0,0,1-3.29,17.9,68.19,68.19,0,0,1-8.2,16.23,71,71,0,0,1-12.2,13.44,88.21,88.21,0,0,1-31.36,17.64,84.34,84.34,0,0,1-35.85,3.16c-12-1.42-23.9-5.86-33.3-13.85a41.7,41.7,0,0,1-6.37-6.76,24.84,24.84,0,0,1-4.31-8.54,12.37,12.37,0,0,1-.31-5.21,8.15,8.15,0,0,1,2.78-5,8.8,8.8,0,0,1,2.41-1.44A17.19,17.19,0,0,1,7.75,116a13.56,13.56,0,0,1,5.13-.26,14.05,14.05,0,0,1,4.8,1.73,26.72,26.72,0,0,1,3.89,2.74c2.37,2,4.47,4,6.68,5.87a45.1,45.1,0,0,0,14.55,8.68,55.94,55.94,0,0,0,16.87,2.91,77.53,77.53,0,0,0,17.23-1.39l.22,3h0a74.48,74.48,0,0,1-8.6-1,63.6,63.6,0,0,1-8.47-2,39.87,39.87,0,0,1-4.16-1.59c-1.36-.61-2.6-1.22-3.9-1.9A51.65,51.65,0,0,1,44.49,128a17.46,17.46,0,0,1-3.4-3.37,8.3,8.3,0,0,1-1.25-2.49,5.6,5.6,0,0,1,0-3.22,6.43,6.43,0,0,1,1.59-2.57,10.33,10.33,0,0,1,2-1.59,12.29,12.29,0,0,1,4.67-1.69,18.79,18.79,0,0,1,9.22,1.26,31.45,31.45,0,0,1,7.79,4.37l-2,2h0a24.21,24.21,0,0,1-3-5A19.14,19.14,0,0,1,58.43,110a13.75,13.75,0,0,1,.64-6.26,18.8,18.8,0,0,1,3.14-5.28,16.57,16.57,0,0,1,10.66-5.87,16.15,16.15,0,0,1,11.38,3.32,1.38,1.38,0,0,1-1.37,2.37Z"/><path class="d" d="M43.83,118.4a8.14,8.14,0,0,1-1.06-.28l-.86-.31c-.56-.23-1.1-.46-1.62-.71-1-.5-2-1-3-1.63a58,58,0,0,1-5.54-3.77,23.28,23.28,0,0,1-5-4.93,14.74,14.74,0,0,1-2.88-6.86,8.87,8.87,0,0,1,.44-4.13,6.75,6.75,0,0,1,2.88-3.47,7.56,7.56,0,0,1,4.24-1,13.14,13.14,0,0,1,3.74.89,27.46,27.46,0,0,1,6,3.44A43.63,43.63,0,0,1,46.34,100h0l-2.6,1.9A8.88,8.88,0,0,1,43,99.08a19,19,0,0,1-.13-2.6,26.56,26.56,0,0,1,.58-5A23,23,0,0,1,45,86.56a15.12,15.12,0,0,1,3-4.51,18.88,18.88,0,0,1,4.22-3.15,12.42,12.42,0,0,1,5.33-1.52,12.78,12.78,0,0,1,5.36,1,21.44,21.44,0,0,1,4.44,2.54,1.58,1.58,0,0,1-1.73,2.65h0c-2.58-1.51-5.31-2.71-7.86-2.47s-5,1.72-7,3.67c-1.82,1.79-2.94,4.65-3.64,7.47a25.9,25.9,0,0,0-.65,4.37,15.33,15.33,0,0,0,0,2.14,6.3,6.3,0,0,0,.32,1.76l0,0a1.65,1.65,0,0,1-.91,2.14,1.63,1.63,0,0,1-1.71-.29h0a40.76,40.76,0,0,0-10.34-6.56,9,9,0,0,0-2.57-.59,5,5,0,0,0-1.06.08,4.37,4.37,0,0,0-1,.38c-1.09.62-1.62,2-1.4,3.72a11.09,11.09,0,0,0,2.14,5,19.26,19.26,0,0,0,4.18,4.18c1.68,1.3,3.4,2.53,5.15,3.65.88.56,1.77,1.09,2.68,1.55.45.23.9.45,1.34.64l.66.26.32.1.19.06a1.77,1.77,0,0,1-.59,3.5Z"/><path class="d" d="M101.3,51.73a6.08,6.08,0,0,0,4.12-.54,8.86,8.86,0,0,0,3.4-3h0a1.78,1.78,0,0,1,2.42-.69,1.76,1.76,0,0,1,.77.87l.1.24a14.18,14.18,0,0,0,1,1.88,9.46,9.46,0,0,0,1.27,1.63,5.45,5.45,0,0,0,1.49,1.06c.53.24,1.05.33,1.67.61l.4.18a1.74,1.74,0,0,1-.42,3.29,5.48,5.48,0,0,1-3.3-.48,9.38,9.38,0,0,1-2.66-1.9,11.87,11.87,0,0,1-1.78-2.47,12.61,12.61,0,0,1-1.12-2.79l3.29.42h0a11.69,11.69,0,0,1-4.88,4.5,9.59,9.59,0,0,1-3.33,1,7.48,7.48,0,0,1-3.56-.52,1.71,1.71,0,0,1,1.06-3.24Z"/><path class="d" d="M100.85,92.27a6.6,6.6,0,0,0,2.28,3.93,8.27,8.27,0,0,0,4.44,1.87,11.2,11.2,0,0,0,5.1-.71,19.72,19.72,0,0,0,4.74-2.85l.07-.05a1.26,1.26,0,0,1,1.72,1.84,17.48,17.48,0,0,1-5.18,4.11,13.15,13.15,0,0,1-6.78,1.39,10.71,10.71,0,0,1-6.64-2.71,7.93,7.93,0,0,1-1.25-1.4l-.55-.77-.42-.85a8.5,8.5,0,0,1-.78-3.67,1.63,1.63,0,0,1,3.23-.3Z"/><path class="d" d="M124.73,43.51c-.36,1.81.56,3.53,2,3.82s3-.94,3.35-2.75a2.81,2.81,0,1,0-5.4-1.07Z"/><path class="d" d="M127.21,49.36a4.65,4.65,0,0,1-.82-.08c-2.56-.51-4.18-3.27-3.6-6.16h0a5.73,5.73,0,0,1,1.93-3.31,4.4,4.4,0,0,1,6.83,1.35,5.67,5.67,0,0,1,.52,3.8A5.2,5.2,0,0,1,127.21,49.36Zm.43-6.67a.71.71,0,0,0-.4.18,1.79,1.79,0,0,0-.56,1h0c-.16.81.18,1.44.48,1.5s.86-.39,1-1.2a1.72,1.72,0,0,0-.13-1.16c-.05-.09-.18-.3-.35-.33Zm-2.91.82h0Z"/><path class="d" d="M94.82,38.57a2.81,2.81,0,1,0,5.4,1.06c.36-1.82-.56-3.53-2-3.82S95.18,36.75,94.82,38.57Z"/><path class="d" d="M97.31,44.41a3.74,3.74,0,0,1-.82-.08A4.51,4.51,0,0,1,93.41,42a5.65,5.65,0,0,1-.53-3.81c.56-2.88,3.11-4.82,5.67-4.32s4.18,3.27,3.62,6.15a5.74,5.74,0,0,1-1.94,3.32A4.57,4.57,0,0,1,97.31,44.41Zm.42-6.66c-.31,0-.81.44-1,1.2a1.72,1.72,0,0,0,.13,1.16c0,.09.18.3.36.33a.62.62,0,0,0,.45-.17,1.81,1.81,0,0,0,.57-1c.15-.81-.19-1.44-.49-1.5Z"/></svg>