<svg xmlns="http://www.w3.org/2000/svg" width="115.1" height="157.38" viewBox="0 0 115.1 157.38"><defs><style>.a{fill:#fff;}.b{fill:#4f2909;}</style></defs><path class="a" d="M84.83,51.29l-1.43,5a5.85,5.85,0,0,0-1-.75,30.5,30.5,0,0,0-1-29.17C71.81,9.61,58.32,2.17,53.67,2.17c-2.44,0-2.32,7.91-3.62,13.77A136.72,136.72,0,0,0,27.3,26s-8.49-5.15-13.19-6.49-5.32,24.6,1.31,39.65c3.43,7.79,8.47,12.66,14.12,15.45a6.33,6.33,0,0,0-.69.5l-1.07.9a7.42,7.42,0,0,0-3.19-3.69C19.92,69.56,13.34,73.55,9,80.5c-11.67,18.58-7,38.35,1.56,50.93C25,152.71,50.77,156.37,64.37,155.19c20.76-1.8,44.12-17.34,48.05-45.1C118.49,67.15,84.83,51.29,84.83,51.29Z"/><path class="b" d="M76.93,61.33A38.15,38.15,0,0,0,82,51.87a27.7,27.7,0,0,0,1.64-10.44,30.3,30.3,0,0,0-2.19-10.37A32.77,32.77,0,0,0,79,26.26c-1-1.58-2-3.13-3-4.63a61.5,61.5,0,0,0-7.2-8.33,41.93,41.93,0,0,0-8.66-6.59,23.09,23.09,0,0,0-4.76-2.06,8.4,8.4,0,0,0-1.11-.26c-.16,0-.34,0-.46,0s-.22,0,0,0a.81.81,0,0,0,.31-.19c.3-.33.14-.2,0,0a7.1,7.1,0,0,0-.35,1,51,51,0,0,0-.94,5.37c-.27,1.88-.52,3.81-1,5.78h0a1.86,1.86,0,0,1-1.23,1.39h0c-1.9.63-3.84,1.34-5.75,2.08s-3.8,1.53-5.67,2.35a116.6,116.6,0,0,0-11,5.45h0a1.9,1.9,0,0,1-1.85,0l-.07,0a108,108,0,0,0-11-5.48c-.45-.17-.91-.36-1.35-.48l-.33-.11-.1,0a.23.23,0,0,0,.12,0,1,1,0,0,0,.54-.11c.15-.12-.08.06-.21.38a6.51,6.51,0,0,0-.44,1.13,27.24,27.24,0,0,0-.88,5.76A71.69,71.69,0,0,0,13,40.92a70.39,70.39,0,0,0,2.29,12,38.11,38.11,0,0,0,4.87,10.92A26.59,26.59,0,0,0,28.58,72c6.72,4,15.46,5.1,22.6,2h0a1.23,1.23,0,0,1,1.18,2.15,18,18,0,0,1-6.26,2.59,24,24,0,0,1-6.71.33,30.67,30.67,0,0,1-12.68-4A30.29,30.29,0,0,1,17.05,66a41.57,41.57,0,0,1-5.56-11.93A75.18,75.18,0,0,1,9,41.36a77.58,77.58,0,0,1-.42-12.95,31.49,31.49,0,0,1,1-6.68,12.07,12.07,0,0,1,.69-1.81A5,5,0,0,1,12,17.87a3.29,3.29,0,0,1,2-.5,4.17,4.17,0,0,1,.51.09,1.27,1.27,0,0,1,.28.08l.42.13c.57.17,1.08.39,1.62.59a74.93,74.93,0,0,1,11.41,6.1l-1.93,0h0A124.16,124.16,0,0,1,37.68,18.7c1.93-.84,3.87-1.65,5.83-2.41s3.92-1.48,6-2.15L48.2,15.53h0a53.73,53.73,0,0,0,.85-5.46,51.74,51.74,0,0,1,.89-5.87,11.1,11.1,0,0,1,.56-1.69A4.57,4.57,0,0,1,52.31.41a2.7,2.7,0,0,1,1-.38A2.88,2.88,0,0,1,54,0a8.86,8.86,0,0,1,1,.11,12.85,12.85,0,0,1,1.65.4,26.72,26.72,0,0,1,5.6,2.64,60.15,60.15,0,0,1,17,16.13c1.14,1.59,2.21,3.23,3.22,4.9a36.19,36.19,0,0,1,2.72,5.34,33,33,0,0,1,2.48,11.8,31.11,31.11,0,0,1-2.12,11.88,23.36,23.36,0,0,1-7.06,9.63,1.09,1.09,0,0,1-1.57-1.49Z"/><path class="b" d="M62.92,53.15a3.84,3.84,0,0,1-.74,1.48,6.09,6.09,0,0,1-.88.88,7.73,7.73,0,0,1-1.87,1.12,11.41,11.41,0,0,1-4.07.94,10,10,0,0,1-4.19-.73,9.82,9.82,0,0,1-3.45-2.47l3.19-1.23a13,13,0,0,1-.23,2.08,12,12,0,0,1-.54,2,9.59,9.59,0,0,1-2.3,3.7A7.77,7.77,0,0,1,43.75,63a8.92,8.92,0,0,1-4.21-.33,1.65,1.65,0,0,1-1.06-2.09,1.67,1.67,0,0,1,1.66-1.15h.06A10.69,10.69,0,0,0,43,59.29a4.14,4.14,0,0,0,2.12-1.13,6.37,6.37,0,0,0,1.39-2.28A11,11,0,0,0,47.2,53V53a1.86,1.86,0,0,1,3.19-1.16,6.34,6.34,0,0,0,2.22,1.41,6.53,6.53,0,0,0,2.58.39,7.68,7.68,0,0,0,4.08-1.19c.82-.67,1-1.89,2.45-1.46A1.77,1.77,0,0,1,62.92,53.15Z"/><path class="b" d="M66.21,40.1a8.74,8.74,0,0,1-2,2.57,8.91,8.91,0,0,1-2.85,1.65,10.8,10.8,0,0,1-3.07.58,11,11,0,0,1-3.1-.31,2.21,2.21,0,0,1,.57-4.36h.39a7.57,7.57,0,0,0,.87,0,7.73,7.73,0,0,0,1-.06,6.89,6.89,0,0,0,1.75-.4A4.63,4.63,0,0,0,61.12,39a6.14,6.14,0,0,0,1.13-1.19l.21-.27a2.28,2.28,0,0,1,3.75,2.55Z"/><path class="b" d="M38.3,50.81a8.61,8.61,0,0,1-2,2.72,9.16,9.16,0,0,1-2.88,1.79,9.47,9.47,0,0,1-3.29.63,7.56,7.56,0,0,1-3.53-.77A2.19,2.19,0,0,1,28,51.06l.51.08a6.28,6.28,0,0,0,1.52.08,6.1,6.1,0,0,0,1.74-.39,6.17,6.17,0,0,0,2.79-2.1l.12-.16a2.16,2.16,0,0,1,3.66,2.24Z"/><path class="b" d="M85.76,49.32A42.31,42.31,0,0,1,91,52.55c1.64,1.16,3.2,2.42,4.71,3.73a58.44,58.44,0,0,1,8.15,8.78,56.15,56.15,0,0,1,9.86,21.68,63.15,63.15,0,0,1,1.39,11.85,80.9,80.9,0,0,1-.75,11.86,54,54,0,0,1-8.43,22.28A56.35,56.35,0,0,1,66.18,157a59.7,59.7,0,0,1-12,.15,71.6,71.6,0,0,1-11.73-1.94A60.72,60.72,0,0,1,21,145.15C8.05,135.62-.18,119.9,0,103.71a46.07,46.07,0,0,1,6.54-23,26,26,0,0,1,8.34-9.16,12.28,12.28,0,0,1,6.47-2.08,8.46,8.46,0,0,1,3.64.83,9.44,9.44,0,0,1,2.89,2.2A10.58,10.58,0,0,1,30.38,79a19.78,19.78,0,0,1-.75,6.34,34.33,34.33,0,0,1-2.14,5.74c-.86,1.82-1.83,3.51-2.61,5.17a23.53,23.53,0,0,0-1.8,5,27.66,27.66,0,0,0-.61,5.35,30.25,30.25,0,0,0,1.68,10.7c2.38,6.86,7.59,12.53,13.75,16.6A50.73,50.73,0,0,0,47.79,139a38.75,38.75,0,0,0,5.29,1.7,25.46,25.46,0,0,0,2.66.52,9.23,9.23,0,0,0,2.42.09l.12,0a1.32,1.32,0,0,1,.55,2.58,10.16,10.16,0,0,1-3.34.29,25.34,25.34,0,0,1-3.06-.34,44.13,44.13,0,0,1-5.83-1.51A49.67,49.67,0,0,1,35.85,137a43.09,43.09,0,0,1-9.09-7.92,37.3,37.3,0,0,1-3.56-5,33.39,33.39,0,0,1-2.6-5.55,33.73,33.73,0,0,1-1.93-12,30.37,30.37,0,0,1,.69-6.12,27.41,27.41,0,0,1,2.06-5.85c.87-1.83,1.81-3.5,2.59-5.17a30,30,0,0,0,1.89-5.09c1-3.39,1-7.13-.92-9.23a5.85,5.85,0,0,0-1.68-1.29,4.64,4.64,0,0,0-2-.43A8.43,8.43,0,0,0,17,74.87,18.09,18.09,0,0,0,13,78.3a26.7,26.7,0,0,0-3.11,4.42,42.06,42.06,0,0,0-5.94,21,46.17,46.17,0,0,0,5.13,21.36A48.36,48.36,0,0,0,23.34,142a56.59,56.59,0,0,0,20.14,9.39,65.76,65.76,0,0,0,11.07,1.84,55.45,55.45,0,0,0,11.16-.14,52.66,52.66,0,0,0,36.94-22.5,49.6,49.6,0,0,0,7.82-20.65,78.23,78.23,0,0,0,.71-11.23,58.83,58.83,0,0,0-1.3-11.09,50.67,50.67,0,0,0-9.27-20.08A53.6,53.6,0,0,0,93,59.42,49.21,49.21,0,0,0,88.56,56a39.46,39.46,0,0,0-4.66-2.76l-.09-.05a2.18,2.18,0,1,1,1.91-3.92Z"/><path class="b" d="M75.49,112.54A21.79,21.79,0,0,0,68.71,102a17,17,0,0,0-22.35.28,15.34,15.34,0,0,0-3.39,5,17.46,17.46,0,0,0-1,2.94,16.46,16.46,0,0,0-.46,3v0a2,2,0,0,1-3.8.7h0a46.61,46.61,0,0,0-4.09-7.46,25,25,0,0,0-2.58-3.21,9.77,9.77,0,0,0-3-2.19,3.61,3.61,0,0,0-1.44-.33,2.17,2.17,0,0,0-1.18.29,5,5,0,0,0-2,2.49,14.09,14.09,0,0,0-.57,7.81h0a1.59,1.59,0,0,1-3.13.6,17.36,17.36,0,0,1,.43-9.76,8.64,8.64,0,0,1,3.44-4.35,5.83,5.83,0,0,1,3.06-.87,7.49,7.49,0,0,1,2.88.61,13.22,13.22,0,0,1,4.23,3,28.34,28.34,0,0,1,3,3.69,50.84,50.84,0,0,1,4.55,8.12h0l-3.81.74a19.4,19.4,0,0,1,.56-3.81,22.32,22.32,0,0,1,1.19-3.57,19.07,19.07,0,0,1,4.28-6.27,18.63,18.63,0,0,1,6.45-4,24.59,24.59,0,0,1,7.34-1.46,19.07,19.07,0,0,1,7.5,1.19,18.65,18.65,0,0,1,6.34,4.09,21.33,21.33,0,0,1,4.35,6,19.7,19.7,0,0,1,2,7,1.09,1.09,0,0,1-2.14.39Z"/><path class="b" d="M67.88,89.18a32.11,32.11,0,0,1-10.5,5.95,31,31,0,0,1-12.15,1.62,22,22,0,0,1-11.91-4.18,17.35,17.35,0,0,1-4.41-4.86,18.4,18.4,0,0,1-2.32-6.08h0a2.19,2.19,0,0,1,1.72-2.55c1.17-.23,1.76-.15,2,1A16.34,16.34,0,0,0,36,89a18.75,18.75,0,0,0,9.54,3.44A30,30,0,0,0,56.2,91.35a39.59,39.59,0,0,0,10-4.45h0a1.42,1.42,0,0,1,1.68,2.29Z"/></svg>