<svg xmlns="http://www.w3.org/2000/svg" width="130.59" height="132.38" viewBox="0 0 130.59 132.38"><defs><style>.a{fill:#82706b;}.b{fill:#4f2909;}</style></defs><path class="a" d="M127.35,35.74c-4.74-.72-14.42.42-14.42.42-7.24-10.07-17.77-17.65-17.77-17.65,2.85-6.06,2-16-.35-16.36S78,5,64.53,14.41a30.56,30.56,0,0,0-7.3,7.18l-.65-.66S17,18.29,4,61c-8,26.32,7.82,53.5,25.61,63.57,11.66,6.6,35,10.09,56.61-3C99,113.81,111.91,98.3,108.09,72.84l-.37-.37c.77-.59,1.54-1.2,2.3-1.88C122.07,59.86,132.09,36.46,127.35,35.74Z"/><path class="b" d="M52.23,48.19a23.21,23.21,0,0,1-2.4-11.31A30.35,30.35,0,0,1,52.6,25.53,31.75,31.75,0,0,1,59.42,16,33.54,33.54,0,0,1,64,12.4c1.56-1.06,3.15-2.07,4.78-3A86.69,86.69,0,0,1,89.63.79,29.17,29.17,0,0,1,92.5.18,14.49,14.49,0,0,1,94.11,0a4.37,4.37,0,0,1,1.18.07,2.88,2.88,0,0,1,1.58,1A6.27,6.27,0,0,1,98,3a11.07,11.07,0,0,1,.47,1.61,19.17,19.17,0,0,1,.39,3,28.35,28.35,0,0,1-.31,5.9,22.56,22.56,0,0,1-1.68,5.79l-.6-2.3h0c1.77,1.31,3.4,2.64,5,4s3.18,2.84,4.71,4.34,3,3.05,4.41,4.66,2.76,3.3,4,5l-1.73-.76h0a73.62,73.62,0,0,1,12.66-.8c.56,0,1.1.06,1.69.14l.43.05.28,0c.16,0,.32.07.49.13a3.17,3.17,0,0,1,1.61,1.28,4.9,4.9,0,0,1,.71,2.53,11.32,11.32,0,0,1-.12,1.9A31,31,0,0,1,128.65,46,75,75,0,0,1,123,57.35a75.09,75.09,0,0,1-7.4,10.32,41.28,41.28,0,0,1-9.83,8.38,29.36,29.36,0,0,1-25.31,2.59,23,23,0,0,1-5.86-3,17.74,17.74,0,0,1-4.53-4.85,1.21,1.21,0,0,1,.41-1.66,1.2,1.2,0,0,1,1.52.22h0c5.13,5.65,13.35,8.27,21,7.4a26.28,26.28,0,0,0,10.82-3.86,37.5,37.5,0,0,0,8.8-7.76,70.18,70.18,0,0,0,7-9.8,71.31,71.31,0,0,0,5.28-10.79,26.74,26.74,0,0,0,1.56-5.5,7.42,7.42,0,0,0,.08-1.19c0-.33-.12-.59,0-.43a1,1,0,0,0,.43.33l.12,0h-.1l-.34,0c-.44-.06-.93-.08-1.4-.12a106.22,106.22,0,0,0-12,.43h0a1.9,1.9,0,0,1-1.72-.75v0c-1.21-1.62-2.45-3.23-3.82-4.76s-2.75-3-4.22-4.45-3-2.83-4.54-4.18S95.67,21.2,94.07,20h0a1.88,1.88,0,0,1-.59-2.3A20.94,20.94,0,0,0,95,7.86a16.36,16.36,0,0,0-.36-2.42,7.4,7.4,0,0,0-.32-1c-.12-.28-.27-.54-.29-.49s.06.24.4.33c.15,0-.05,0-.18,0a10.17,10.17,0,0,0-1.14.1c-.82.11-1.68.26-2.54.44A56.6,56.6,0,0,0,80.38,8a79.14,79.14,0,0,0-9.64,4.76q-2.33,1.35-4.54,2.87a31.06,31.06,0,0,0-4,3.24,28.89,28.89,0,0,0-6,8.31,27.21,27.21,0,0,0-2.64,9.88,37.64,37.64,0,0,0,.7,10.38v0a1.08,1.08,0,0,1-2,.7Z"/><path class="b" d="M73.5,46.36c.09-.22.18.2.41.47a7.73,7.73,0,0,0,.76,1,7.43,7.43,0,0,0,2.11,1.62,6.14,6.14,0,0,0,5,.35h0a1.84,1.84,0,0,1,2.44,2.13V52A8.44,8.44,0,0,0,84,53.36a11.92,11.92,0,0,0,0,1.47,8.1,8.1,0,0,0,.83,2.74,7.25,7.25,0,0,0,1.66,2.27,6.75,6.75,0,0,0,2.23,1.39l.15.06a1.63,1.63,0,0,1-.76,3.12,7.33,7.33,0,0,1-4.07-1.77,10.87,10.87,0,0,1-2.6-3.39,11.7,11.7,0,0,1-.77-1.94,11.23,11.23,0,0,1-.41-2.11,13.38,13.38,0,0,1,0-2.1A12,12,0,0,1,80.72,51l2.43,2.19h0A9.42,9.42,0,0,1,75,52.91a11.26,11.26,0,0,1-3.24-2.5,7.85,7.85,0,0,1-1.22-1.76,7.17,7.17,0,0,1-.42-1.14,3.67,3.67,0,0,1,0-1.62,1.73,1.73,0,1,1,3.42.47Z"/><path class="b" d="M76.93,32.48A6,6,0,0,0,77.44,34a4.59,4.59,0,0,0,.94,1.28,7,7,0,0,0,1.4,1.07,8.21,8.21,0,0,0,.83.44,8.11,8.11,0,0,0,.78.34l.36.15a2.17,2.17,0,0,1-1.27,4.12,10,10,0,0,1-2.89-1,10.51,10.51,0,0,1-2.5-1.76A8.44,8.44,0,0,1,73.22,36a8.61,8.61,0,0,1-.76-3.11,2.23,2.23,0,0,1,4.38-.76Z"/><path class="b" d="M97.22,53.51a6.07,6.07,0,0,0,1.63,3,6.14,6.14,0,0,0,2.78,1.6l.49.14a2.15,2.15,0,0,1-.49,4.22,7.39,7.39,0,0,1-3.46-.75,9.89,9.89,0,0,1-2.68-1.9,9.16,9.16,0,0,1-1.84-2.78A8.43,8.43,0,0,1,93,53.83a2.12,2.12,0,0,1,4.18-.51Z"/><path class="b" d="M92.18,80.25c-.66,0-1.32,0-2-.08S89,80.1,88.4,80c0,.38,0,.76,0,1.13,0,.79,0,1.55,0,2.27A20.23,20.23,0,0,1,88,87.71a43.27,43.27,0,0,1-3,8.35,30.38,30.38,0,0,1-11.89,12.77,43.66,43.66,0,0,1-17,5.53,55.82,55.82,0,0,1-9,.36,38.71,38.71,0,0,1-4.46-.45,20.24,20.24,0,0,1-2.11-.47,7.22,7.22,0,0,1-1.74-.7l-.1-.07a1.3,1.3,0,0,0-1.54,2.08,8.36,8.36,0,0,0,2.45,1.38,20.31,20.31,0,0,0,2.41.76,33.82,33.82,0,0,0,4.85.8,47.64,47.64,0,0,0,9.7-.1A46.79,46.79,0,0,0,75,112,34,34,0,0,0,88.36,97.73a38.46,38.46,0,0,0,3.34-9.48A37,37,0,0,0,92.19,82c0-.84.18-2,.17-2.78,0-.27-.2,0-.2-.29C92.13,78.88,92.21,80.25,92.18,80.25Z"/><path class="b" d="M56.44,23.07a44.84,44.84,0,0,0-7.7.38A51.7,51.7,0,0,0,41.05,25a49.35,49.35,0,0,0-14.2,6.52,47.91,47.91,0,0,0-11.36,10.7A56.76,56.76,0,0,0,7.83,56L7.1,57.83l-.63,1.88-.62,1.88-.52,1.89A50.32,50.32,0,0,0,4,71.19,51.57,51.57,0,0,0,5.12,86.8a59.86,59.86,0,0,0,14.73,27.49,45.39,45.39,0,0,0,12.37,9.41,48.36,48.36,0,0,0,15,4.31,58.84,58.84,0,0,0,30.86-4.42,53.62,53.62,0,0,0,13.37-8.18,43.84,43.84,0,0,0,10-11.91,42.34,42.34,0,0,0,5-14.69,51.17,51.17,0,0,0,.53-7.83c0-2.63-.19-5.25-.13-8v0a1.31,1.31,0,0,1,2.56-.37,30.55,30.55,0,0,1,1.21,8.29,54.09,54.09,0,0,1-.51,8.42,46.16,46.16,0,0,1-5.35,16A47.29,47.29,0,0,1,94,118.4a57.7,57.7,0,0,1-14.35,8.77,62.72,62.72,0,0,1-32.91,4.71,52.56,52.56,0,0,1-16.21-4.68A49.26,49.26,0,0,1,17,117,63.21,63.21,0,0,1,1.36,87.65,55.36,55.36,0,0,1,.19,70.86a53.33,53.33,0,0,1,1.43-8.33l.56-2.05.66-2,.66-2,.77-2a60.91,60.91,0,0,1,8.17-14.65A52.86,52.86,0,0,1,24.69,28.34a55,55,0,0,1,15.24-7.15,61.23,61.23,0,0,1,8.24-1.83,48.9,48.9,0,0,1,8.55-.56A2.13,2.13,0,0,1,58.8,21a2.15,2.15,0,0,1-2.21,2.08h-.15Z"/><path class="b" d="M34.21,77a19.15,19.15,0,0,1,4.69-5.41,20.55,20.55,0,0,1,6.31-3.56A18.12,18.12,0,0,1,52.54,67a18.58,18.58,0,0,1,7.18,2,22.72,22.72,0,0,1,3.14,1.92,23.43,23.43,0,0,1,2.81,2.38,18.44,18.44,0,0,1,4.11,6.23A18.75,18.75,0,0,1,71,86.84a21.46,21.46,0,0,1-.39,3.67,19.87,19.87,0,0,1-1.05,3.63l-3.1-2.21h0a49.2,49.2,0,0,1,7.37-5.39,27.51,27.51,0,0,1,4.22-2.06,13,13,0,0,1,5-1,7.46,7.46,0,0,1,2.82.63,5.82,5.82,0,0,1,2.38,2,8.5,8.5,0,0,1,1.29,5.28A17.08,17.08,0,0,1,86,100.35a1.57,1.57,0,0,1-2.56-1.81h0a13.76,13.76,0,0,0,2.68-7.2,5,5,0,0,0-.8-3,2.17,2.17,0,0,0-.93-.74A3.72,3.72,0,0,0,83,87.25a9.54,9.54,0,0,0-3.53.75,24.36,24.36,0,0,0-3.61,1.81,45.36,45.36,0,0,0-6.68,5h0A2,2,0,0,1,66,92.63l0,0a17.13,17.13,0,0,0,.8-2.82,18.12,18.12,0,0,0,.33-3,15.11,15.11,0,0,0-1-5.83,16.62,16.62,0,0,0-19.83-9.35A21.31,21.31,0,0,0,36,78.22l0,0A1.07,1.07,0,0,1,34.21,77Z"/></svg>