<svg xmlns="http://www.w3.org/2000/svg" width="168.47" height="115.81" viewBox="0 0 168.47 115.81"><defs><style>.a{fill:#ffa143;}.b{fill:#d8761d;}.c{fill:#4f2909;}</style></defs><path class="a" d="M166.25,23.57a8.93,8.93,0,0,0-7.76-6.48c-3.46-.35-6.89,1.07-9.84,3.07-11.42,7.75-16,20.73-17.08,35.32l-.19.05a37.85,37.85,0,0,0-18-11.93c-21.06-6.67-32.53-1.86-32.53-1.86l-.47.11a31.54,31.54,0,0,0,0-3.89C79.25,20.62,67,1.52,61.68,2.11,57.92,2.53,51.47,14.7,51.47,14.7c-9.72-1.22-23.93.54-23.93.54-.38-2.08-6.15-13.5-8.92-13S6.32,15.73,3,32.64C-1.3,54.85,8.42,66.89,19.52,71a32.14,32.14,0,0,0,7.75,21.19l1.14.07c-.2.11-.41.22-.59.34l-.1.08c-.15-.16-.31-.32-.45-.49l-1.58-.08c-4.26-.1-14,2.17-13.72,10.59s19.61,4.76,19.61,4.76l.18-.6a6.41,6.41,0,0,1,0-3.89,11.51,11.51,0,0,0,1.18.06l-1.18,3.83c1.88,5.24,12.52,5.71,26.61,4.56,17-1.39,19.61-2.77,19.61-2.77l.4,0c.44,4.55,6.88,5.91,22.33,4.84,11.05-.77,20.86-2.72,28-8.19h.14c.38-.3.72-.63,1.08-.94l.24-.21c.55-.49,1.07-1,1.57-1.49l.3-.31a50.47,50.47,0,0,0,8-11.65c4.1-7.6,5.42-15.14,6.34-23.88s3.34-18.36,8.11-24.49c2.36-3,5.54-5.2,8.1-8S167.18,27.41,166.25,23.57Z"/><path class="b" d="M26.5,15.86c-.54,2.85-1.33,7,.64,9.58,1.08,1.43,3.84,1,4.47-.45.52-1.25.26-2.54.35-3.83a22.14,22.14,0,0,1,.69-4C33.45,14.05,27.08,12.81,26.5,15.86Z"/><path class="b" d="M36,15.52a12.07,12.07,0,0,0,.2,10.35c.52,1,2.22,1.43,3.39,1.16a2.77,2.77,0,0,0,2.21-2.43c.37-2.52.49-5,.94-7.52C43.43,13.35,37.66,12,36,15.52Z"/><path class="b" d="M46.28,15.22c-.81,2.64-1.32,6.36,0,8.94.58,1.14,3.11,1.83,3.93.4,1.45-2.56,1.85-5.95,2.14-8.72S47.06,12.65,46.28,15.22Z"/><path class="b" d="M88.59,39.31a34,34,0,0,0-.53,3.59,41.66,41.66,0,0,1-1.3,5.29c-.66,2.24-2.45,5.94,0,7.71,3,2.21,6-3.36,7-5.61,1.33-3.1,2.68-7.81,1.65-11.3C93,39.07,90.73,39.23,88.59,39.31Z"/><path class="b" d="M103.66,39.37a4,4,0,0,0-1.54,3.07,29.67,29.67,0,0,1-1,5.69c-.52,1.92-1.19,3.74-.88,5.77a2.32,2.32,0,0,0,2.76,2c4.42-1.42,5.78-8.6,6.21-13.15A4.39,4.39,0,0,0,109,41,19.83,19.83,0,0,0,103.66,39.37Z"/><path class="b" d="M114.23,48.58c-.36,2.9-1.9,5.55-2.09,8.43-.13,1.88,1.46,3.61,3.11,3.1,4-1.23,5.86-6.83,6-11.11C121.49,43.69,114.87,43.4,114.23,48.58Z"/><path class="b" d="M131.17,54.63c-.69-.92-1.79-2.54-2.68-2-1.67,1-1.85,3-3.4,6.36-.76,1.64-2.3,3.51-2.16,5.41a2.65,2.65,0,0,0,2.5,2.64c2.47.2,4.56-2.62,5.58-4.68C132.23,59.88,132.91,57,131.17,54.63Z"/><path class="b" d="M159.65,16.13c-5.3-.63-10.27.33-9.52,5.09-.23,2.87,5.05,10.65,6.82,12.56,2.36,2.55,3.79,2.89,6.39.42a10.77,10.77,0,0,0,3.08-6.29C167.06,23.39,164.92,16.76,159.65,16.13Z"/><path class="b" d="M155.45,38.06c-4.87-3.05-7.92-7.57-11.14-12.2-.63-.9-3.13.6-3.25,1.64-.84,7.07,5.42,12.34,11.26,15.91C155.74,45.5,158.82,40.17,155.45,38.06Z"/><path class="b" d="M149.34,47.8a29.05,29.05,0,0,1-8.69-6.1c-.74-.77-4.66-5.3-6-3.15-1.89,2.92.79,6.18,2.75,8.32a27.9,27.9,0,0,0,9.19,6.81C150.37,55.4,153.12,49.63,149.34,47.8Z"/><path class="b" d="M145.93,59.5c-2.37-.89-4.6-1.45-6.74-2.93-1.68-1.16-3-1.63-5.49-3.2-.43-.27-1,.38-1.14.87-.68,2.75,2.11,5.29,4.06,6.79a18.18,18.18,0,0,0,8.58,3.9C148.5,65.34,148.62,60.51,145.93,59.5Z"/><path class="c" d="M128.89,107.27a2,2,0,0,1-1.55-.74,2,2,0,0,1,.31-2.79c5.53-4.45,8.5-10,10.67-14,3.81-7,5.16-14.08,6.12-23.15.8-7.67,2.94-18.33,8.52-25.5a37.87,37.87,0,0,1,4.77-4.86,46.7,46.7,0,0,0,3.42-3.29C163.78,30,165,26.69,164.32,24a7,7,0,0,0-6-5c-2.59-.26-5.45.66-8.53,2.74-9.73,6.61-15,17.67-16.21,33.82a2,2,0,0,1-4-.29c1.26-17.2,7.29-29.58,17.95-36.81,3.86-2.62,7.6-3.76,11.15-3.4a10.86,10.86,0,0,1,9.48,8c1.38,5.67-2.39,10.63-4.08,12.49a48,48,0,0,1-3.71,3.59,35.1,35.1,0,0,0-4.29,4.34c-3.91,5-6.64,13.36-7.71,23.49-1,9.54-2.45,17-6.57,24.61-2.33,4.33-5.52,10.25-11.68,15.21A2,2,0,0,1,128.89,107.27Z"/><path class="c" d="M34.35,100.45a2,2,0,0,1-1.1-.34,34.43,34.43,0,0,1-15.7-29.37,2,2,0,0,1,2.05-1.91,2,2,0,0,1,1.91,2.06,30.4,30.4,0,0,0,14,25.93,2,2,0,0,1-1.11,3.63Z"/><path class="c" d="M55.92,95c-3.27.8-6.48.87-9.63,1.36a25.68,25.68,0,0,0-8.72,2.73,8.74,8.74,0,0,0-3,2.64,6,6,0,0,0-.78,1.68,6.84,6.84,0,0,0-.28,1.82A2.94,2.94,0,0,0,35,107.73a11.06,11.06,0,0,0,3.87,1.49,45.86,45.86,0,0,0,9.47.73c3.25,0,6.53-.21,9.81-.46s6.58-.56,9.84-.94c1.62-.2,3.25-.4,4.85-.66.8-.13,1.59-.27,2.36-.43l1.13-.26.52-.14.22-.07s.19-.09,0,0a1.9,1.9,0,0,1,1.81,3.35,4.21,4.21,0,0,1-.55.24l-.37.12-.69.19c-.44.12-.87.22-1.29.31-.86.18-1.7.34-2.54.48-1.67.28-3.34.5-5,.71-3.33.41-6.66.73-10,1s-6.69.5-10.08.54A48.87,48.87,0,0,1,38,113.19a14.92,14.92,0,0,1-5.35-2.08,7.52,7.52,0,0,1-2.33-2.45,7.05,7.05,0,0,1-.93-3.35,10.64,10.64,0,0,1,.43-3.09,10,10,0,0,1,1.32-2.81,12.87,12.87,0,0,1,4.36-4A28.66,28.66,0,0,1,45.73,92.4,26.28,26.28,0,0,1,56,92.65a1.18,1.18,0,0,1,.84,1.46,1.16,1.16,0,0,1-.86.85Z"/><path class="c" d="M23,110.27c-3.85,0-8-.56-10.55-2.58a6.41,6.41,0,0,1-2.46-4.9,10.55,10.55,0,0,1,3-8c3.79-3.84,10-4.73,12.7-4.67a2,2,0,0,1,0,4h-.05c-2.49,0-7.14.82-9.78,3.49A6.51,6.51,0,0,0,14,102.65a2.42,2.42,0,0,0,1,1.94c3,2.37,11.56,1.83,16.28.94a2,2,0,1,1,.74,3.9A52.48,52.48,0,0,1,23,110.27Z"/><path class="c" d="M107.13,63.1a24.32,24.32,0,0,0-12.25,3.3A15.64,15.64,0,0,0,87.61,76a19.48,19.48,0,0,0,.71,12.24,20.28,20.28,0,0,0,3.3,5.27,21.53,21.53,0,0,0,2.25,2.23,19.77,19.77,0,0,0,2.46,1.81h0l.06,0a2,2,0,0,1-.73,3.68,48.05,48.05,0,0,0-10.73,2.68,10.83,10.83,0,0,0-4.06,2.53,2.28,2.28,0,0,0-.41.67,1.47,1.47,0,0,0-.08.3,4.8,4.8,0,0,0,0,.52,2.36,2.36,0,0,0,.36,1.54c.5.8,2.1,1.47,3.79,1.8a33.74,33.74,0,0,0,5.42.54c3.75.11,7.57-.09,11.39-.36,7.56-.59,15.18-1.69,21.74-4.93a25.75,25.75,0,0,0,8.49-6.54,28.42,28.42,0,0,0,5.16-9.45,35.93,35.93,0,0,0-.21-21.62A35.56,35.56,0,0,0,124,51.22,36.66,36.66,0,0,0,114.35,46c-1.7-.64-3.57-1.12-5.38-1.65s-3.66-.92-5.51-1.24A60,60,0,0,0,92.3,42.06a40.66,40.66,0,0,0-5.53.35,26.51,26.51,0,0,0-2.69.47,17.19,17.19,0,0,0-2.44.69l-.13,0a2,2,0,0,1-1.41-3.7,15,15,0,0,1,1.61-.53c.51-.14,1-.27,1.52-.37,1-.23,2-.4,3-.53a45.37,45.37,0,0,1,6-.39,64,64,0,0,1,11.9,1.15c2,.34,3.88.84,5.8,1.3s3.79,1.05,5.71,1.76a40.66,40.66,0,0,1,10.7,5.75,40.32,40.32,0,0,1,14,43.7,32.52,32.52,0,0,1-5.9,10.79,30.15,30.15,0,0,1-9.75,7.54,46.91,46.91,0,0,1-11.47,3.78,92.67,92.67,0,0,1-11.75,1.54c-3.9.28-7.81.49-11.8.38a36.93,36.93,0,0,1-6.1-.63,15.2,15.2,0,0,1-3.19-1,7.26,7.26,0,0,1-3.07-2.43,6.33,6.33,0,0,1-1-4c0-.32,0-.61.09-.92a5.09,5.09,0,0,1,.29-1.1,6.4,6.4,0,0,1,1.06-1.81,14.31,14.31,0,0,1,5.62-3.67A51.71,51.71,0,0,1,95.16,97.3L94.48,101h0a21.15,21.15,0,0,1-3.23-2.17,25.86,25.86,0,0,1-2.75-2.59,22.67,22.67,0,0,1-4.13-6.4,22,22,0,0,1-1.67-7.48,23.27,23.27,0,0,1,.85-7.55A19.8,19.8,0,0,1,87.07,68a20,20,0,0,1,5.85-5A20.78,20.78,0,0,1,100,60.6a18.2,18.2,0,0,1,7.42.35,1.09,1.09,0,0,1-.28,2.15Z"/><path class="c" d="M27,74a20.74,20.74,0,0,1-6.91-.75A26.26,26.26,0,0,1,13.7,70.4,26.88,26.88,0,0,1,4.11,60.27,34.12,34.12,0,0,1,.22,47,50.4,50.4,0,0,1,.81,33.47,70.82,70.82,0,0,1,10.23,8.36a39.67,39.67,0,0,1,4.11-5.59A15.66,15.66,0,0,1,15.7,1.44a6.4,6.4,0,0,1,.87-.67,6.61,6.61,0,0,1,.57-.34l.35-.16A4.7,4.7,0,0,1,18,.11a3.27,3.27,0,0,1,.58-.1,3,3,0,0,1,.6,0,3.84,3.84,0,0,1,1,.24,5.33,5.33,0,0,1,1.23.7A10,10,0,0,1,22.86,2.4,31.35,31.35,0,0,1,26.7,8.26c.52,1,1,2,1.48,3.07.23.52.44,1.06.65,1.61.1.28.21.56.3.86a7.67,7.67,0,0,1,.27,1.1l-2.09-1.55h0c2-.24,4-.42,6.06-.57s4-.27,6.06-.34a83,83,0,0,1,12.28.38l-1.91,1h0c1-1.87,1.93-3.64,3-5.4a40.14,40.14,0,0,1,3.72-5.13A13.58,13.58,0,0,1,59.21.9,5.14,5.14,0,0,1,61.54,0,5.25,5.25,0,0,1,64,.45a11.21,11.21,0,0,1,3.07,2.07A24.07,24.07,0,0,1,69.33,4.9,52.3,52.3,0,0,1,76,15.5a67.55,67.55,0,0,1,4.39,11.59A51,51,0,0,1,82.3,39.45a45,45,0,0,1-1.74,12.46A33.1,33.1,0,0,1,74.92,63.3a24.21,24.21,0,0,1-2.25,2.37,26.38,26.38,0,0,1-2.45,2,20.78,20.78,0,0,1-5.66,3.14,1.47,1.47,0,0,1-1.15-2.7l0,0A24,24,0,0,0,68,64.93a29.42,29.42,0,0,0,3.9-4,33.67,33.67,0,0,0,5-10.11,37.65,37.65,0,0,0,1.76-11.3,45.64,45.64,0,0,0-1.91-11.38,64.22,64.22,0,0,0-4.27-10.87,49.29,49.29,0,0,0-6.23-9.7A22.08,22.08,0,0,0,64.3,5.61a7.13,7.13,0,0,0-1.91-1.29,1.48,1.48,0,0,0-.48-.13,1.7,1.7,0,0,0-.44.23,9.1,9.1,0,0,0-1.8,1.64,64,64,0,0,0-6.52,9.53h0a1.91,1.91,0,0,1-1.9,1h0a78,78,0,0,0-11.67-.36c-2,.07-3.94.19-5.91.33s-3.95.33-5.88.56h0a1.73,1.73,0,0,1-1.9-1.06l-.2-.49-.19-.47-.29-.66c-.21-.45-.44-.92-.68-1.38-.49-.92-1-1.85-1.51-2.75a33.82,33.82,0,0,0-3.44-5,6,6,0,0,0-.85-.8l-.19-.12s.05,0,.17,0h.2l.18,0,.09,0h0L19,4.49c-.11.08-.27.19-.43.33s-.65.61-1,.95a35.61,35.61,0,0,0-3.66,4.91A64.86,64.86,0,0,0,8.3,22,65.79,65.79,0,0,0,4.83,34.17a46.92,46.92,0,0,0-.72,12.49A28.94,28.94,0,0,0,7.62,58.32,24.63,24.63,0,0,0,15.84,67a35,35,0,0,0,11.35,4.31h0A1.37,1.37,0,0,1,27,74Z"/><path class="c" d="M27.85,52.5a5.45,5.45,0,0,0,2.57,0,6.45,6.45,0,0,0,2.45-1.21,11.77,11.77,0,0,0,3.56-4.82h0a1.78,1.78,0,0,1,2.26-1.11,1.83,1.83,0,0,1,1,.84l.1.19A14.45,14.45,0,0,0,41.59,49a10.86,10.86,0,0,0,2.33,2,7.84,7.84,0,0,0,2.7,1.11,27.19,27.19,0,0,0,3,.28h.13a1.75,1.75,0,0,1,.43,3.41,8.35,8.35,0,0,1-4.33.18,11.66,11.66,0,0,1-4.06-1.69,13.55,13.55,0,0,1-3.12-2.86,14.83,14.83,0,0,1-2.18-3.59l3.34-.08h0a14.58,14.58,0,0,1-4.71,6.47,9.73,9.73,0,0,1-3.87,1.85,7.69,7.69,0,0,1-4.43-.32,1.71,1.71,0,0,1,1-3.26Z"/><path class="c" d="M25.37,39.63c.08,2.11-1.27,3.87-3,3.93S19.18,42,19.1,39.85s1.27-3.87,3-3.93S25.3,37.52,25.37,39.63Z"/><path class="c" d="M22.28,45.54c-2.75,0-5-2.48-5.16-5.62a6.26,6.26,0,0,1,1.23-4,4.86,4.86,0,0,1,3.68-2,4.92,4.92,0,0,1,3.81,1.71,6.22,6.22,0,0,1,1.51,3.91h0a6.24,6.24,0,0,1-1.22,4,4.86,4.86,0,0,1-3.69,2Zm-.09-7.64h0a1,1,0,0,0-.67.42,2.35,2.35,0,0,0-.41,1.46c0,1,.65,1.8,1.19,1.8h0a.94.94,0,0,0,.67-.42,2.27,2.27,0,0,0,.42-1.46h0a2.35,2.35,0,0,0-.52-1.43A1,1,0,0,0,22.19,37.9Z"/><path class="c" d="M58.1,39.47c.07,2.11-1.27,3.86-3,3.92s-3.19-1.6-3.26-3.71,1.27-3.86,3-3.92S58,37.36,58.1,39.47Z"/><path class="c" d="M55,45.38a4.89,4.89,0,0,1-3.66-1.72,6.42,6.42,0,0,1-.27-7.91,4.73,4.73,0,0,1,7.49-.26,6.22,6.22,0,0,1,1.51,3.91h0a6.24,6.24,0,0,1-1.23,4,4.88,4.88,0,0,1-3.69,2Zm-.09-7.64h0a.91.91,0,0,0-.67.42,2.26,2.26,0,0,0-.42,1.46A2.29,2.29,0,0,0,54.33,41a.8.8,0,0,0,1.37,0,2.35,2.35,0,0,0,.41-1.46h0a2.29,2.29,0,0,0-.51-1.43A1,1,0,0,0,54.92,37.74Z"/></svg>