<svg xmlns="http://www.w3.org/2000/svg" width="171.33" height="129.02" viewBox="0 0 171.33 129.02"><defs><style>.a{fill:#bcaeaa;}.b{fill:#4f2909;}</style></defs><path class="a" d="M161.55,57.14c-7-10.22-18.25-15.59-29-14.74l0-.21,2.88-.57a34.36,34.36,0,0,0-4-6.66l-.09-.61c3.35-.76,5.85-7.45.25-13.16s-20.2-11.8-22.68-3.38l-.74.38c-1.29-.49-2.61-1-4-1.4A52.61,52.61,0,0,0,75,16.11l4.49-1.75c-2.93-6.94-14.9-9.83-21.91-8A41.35,41.35,0,0,0,45.13,12S39.35,4.83,32.93,2.5c-3.4-1.24-8.83-.65-9,4.21S35.07,24.15,35.07,24.15l-.14,1.2a26.29,26.29,0,0,0-9,8.63,55.83,55.83,0,0,0-12.11-6.81C3,22.82-.8,33.36,4,38.49S18,50.41,24.57,52c3.75.93,6.06.26,7.35-.49l-.18,1.61c-4.51,5.88-5.12,14.1-2.95,21.19s6.8,13.16,12,18.45C45.5,97.61,51,102.31,52.7,108.85c.84,3.23.65,6.65,1.24,9.94s2.3,6.72,5.43,7.89c3,1.12,6.47-.23,8.54-2.64A14.84,14.84,0,0,0,71,115.21c.71-12.27-7.33-23.46-16.78-31.33-2.55-2.13-5.3-4.18-7-7.06s-1.86-6.93.52-9.26h.5c7.83,4,18.91,3.52,25.12,1.23l.73.44v0l.15.1-.14-.08C76.92,78,88.17,81,92.8,80.34l-1-.57a4.17,4.17,0,0,0,1.65-1l.17-.19A31.49,31.49,0,0,0,99.08,95c8.18,12.23,26.4,22.3,30.29,18.76,3.67-3.33,3.44-13.64,3.44-13.64A63.11,63.11,0,0,0,152.17,88.7c4.05,3,11.74,5.55,14.6,4.13S172.32,73,161.55,57.14Z"/><path class="b" d="M129.53,41.53a24.45,24.45,0,0,1,11.81-.3,34,34,0,0,1,11.07,4.34,36.65,36.65,0,0,1,9,7.84,42.48,42.48,0,0,1,6.15,10.11,46.33,46.33,0,0,1,3.26,11.33A42.5,42.5,0,0,1,171,86.67a23,23,0,0,1-.56,3,12.79,12.79,0,0,1-1.18,3.13,5.93,5.93,0,0,1-.63.89,4.2,4.2,0,0,1-.52.48,3.06,3.06,0,0,1-.68.41,6.4,6.4,0,0,1-2,.48,12.64,12.64,0,0,1-3.3-.18,27.1,27.1,0,0,1-5.8-1.76,26.08,26.08,0,0,1-5.31-3h0l2.31-.11a55,55,0,0,1-4.58,3.65q-2.35,1.69-4.85,3.18a57.34,57.34,0,0,1-5.14,2.73,49.11,49.11,0,0,1-5.42,2.19h0l1.22-1.76a37.34,37.34,0,0,1-.23,5.51,25.89,25.89,0,0,1-1.21,5.53,11.78,11.78,0,0,1-1.39,2.8,7.16,7.16,0,0,1-1.17,1.34,4.49,4.49,0,0,1-2,1,8.7,8.7,0,0,1-3.37,0,19.16,19.16,0,0,1-2.85-.72,43.53,43.53,0,0,1-9.79-5,61,61,0,0,1-8.5-6.71A44.85,44.85,0,0,1,97,95.49a34.88,34.88,0,0,1-4.41-10.17A29.61,29.61,0,0,1,92,74.18a24.94,24.94,0,0,1,1.4-5.45,13.18,13.18,0,0,1,3.07-4.68,1.11,1.11,0,0,1,1.83,1.12v0c-.48,1.67-1,3.19-1.53,4.74a25.51,25.51,0,0,0-1.07,4.73,26,26,0,0,0,.75,9.68,30.66,30.66,0,0,0,4,9,42.37,42.37,0,0,0,6.45,7.63,57.43,57.43,0,0,0,7.93,6.3,40.16,40.16,0,0,0,8.86,4.54,15.42,15.42,0,0,0,2.24.58,5.21,5.21,0,0,0,1.84,0,.78.78,0,0,0,.33-.13,3.59,3.59,0,0,0,.55-.63,8.06,8.06,0,0,0,1-1.88,32.09,32.09,0,0,0,1.44-9.65V100a1.83,1.83,0,0,1,1.22-1.68h0c1.69-.65,3.38-1.31,5-2.12s3.25-1.66,4.82-2.59,3.11-1.92,4.61-3,3-2.19,4.3-3.32l0,0a1.85,1.85,0,0,1,2.28-.08h0a24.4,24.4,0,0,0,9.55,4,9.3,9.3,0,0,0,2.31.12,2.22,2.22,0,0,0,.77-.18c.1,0-.1.06-.08.06s0,0,0,0a2,2,0,0,0,.18-.27,8.92,8.92,0,0,0,.73-2.16,23,23,0,0,0,.42-2.55,42.93,42.93,0,0,0-3.59-21A42,42,0,0,0,158.13,56a32.21,32.21,0,0,0-7.83-7.13,30.2,30.2,0,0,0-9.71-4.2A37.67,37.67,0,0,0,130,44h0a1.24,1.24,0,0,1-.42-2.42Z"/><path class="b" d="M115.13,65.48a8.81,8.81,0,0,1,3.58-1.89,13.11,13.11,0,0,1,3.82-.46,14.41,14.41,0,0,1,3.78.52,9.32,9.32,0,0,1,3.71,1.9l-3,1.62h0a12.31,12.31,0,0,1,.15-3.71,12,12,0,0,1,1.21-3.52,10.37,10.37,0,0,1,2.38-3A10.19,10.19,0,0,1,134,55.12a1.64,1.64,0,0,1,1.35,3l-.06,0a9.27,9.27,0,0,0-2.06,1.55,7.76,7.76,0,0,0-1.44,2,9.51,9.51,0,0,0-.83,2.46,13.6,13.6,0,0,0-.27,2.6h0c-.05,1.75-1.6,2.34-3,1.62a8.41,8.41,0,0,0-2.34-.9,15.88,15.88,0,0,0-2.86-.38,12.18,12.18,0,0,0-5.39,1l-.11.05a1.63,1.63,0,0,1-1.81-2.67Z"/><path class="b" d="M123.25,78.94a2.67,2.67,0,1,0,0,4.13A2.94,2.94,0,0,0,123.25,78.94Z"/><path class="b" d="M121.79,85.45a5.31,5.31,0,0,1-4.05-2,4.53,4.53,0,1,1,7-5.69A5.44,5.44,0,0,1,126,81.18a4.28,4.28,0,0,1-1.54,3.35A4.14,4.14,0,0,1,121.79,85.45Zm-1.11-5.94a.44.44,0,0,0-.28.08c-.22.18-.23.86.26,1.47s1.17.73,1.39.55a.63.63,0,0,0,.15-.44,1.67,1.67,0,0,0-.41-1A1.55,1.55,0,0,0,120.68,79.51Z"/><path class="b" d="M147.24,63.12a2.67,2.67,0,1,0,0,4.12A2.94,2.94,0,0,0,147.24,63.12Z"/><path class="b" d="M145.76,69.63a4.66,4.66,0,0,1-.9-.09,5.57,5.57,0,0,1-4.38-5.32A4.27,4.27,0,0,1,142,60.86a4.34,4.34,0,0,1,3.58-.85,5.45,5.45,0,0,1,3.11,1.91A5.38,5.38,0,0,1,150,65.34a4.27,4.27,0,0,1-1.52,3.35A4.13,4.13,0,0,1,145.76,69.63Zm-1.09-5.93a.38.38,0,0,0-.27.08.56.56,0,0,0-.15.43,1.82,1.82,0,0,0,1.34,1.63.6.6,0,0,0,.46-.06.61.61,0,0,0,.14-.44,1.66,1.66,0,0,0-.41-1h0a1.71,1.71,0,0,0-.93-.61Z"/><path class="b" d="M93.06,82.27a18.08,18.08,0,0,1-5.85-.42A25.47,25.47,0,0,1,81.87,80a21.21,21.21,0,0,1-4.8-3.11,15.41,15.41,0,0,1-3.7-4.57A15.93,15.93,0,0,1,72.1,60.85a23.48,23.48,0,0,1,2.07-5.28,26.32,26.32,0,0,1,3.2-4.69h0l.86,3.18a25,25,0,0,1-3.89-1.72,22.74,22.74,0,0,1-3.54-2.4,14,14,0,0,1-2.93-3.43,9.6,9.6,0,0,1-1.36-4.56,8.23,8.23,0,0,1,1.18-4.81,9,9,0,0,1,3.65-3.26,13.46,13.46,0,0,1,4.4-1.24,20.83,20.83,0,0,1,4.33.09,29,29,0,0,1,8,2.29,24.31,24.31,0,0,1,7.06,4.58,16.47,16.47,0,0,1,1.48,1.63,15.81,15.81,0,0,1,1.23,1.9,10.06,10.06,0,0,1,1.24,4.49A8.6,8.6,0,0,1,98,52.18a9.61,9.61,0,0,1-3.07,3.35,1.35,1.35,0,0,1-1.66-2.11l0,0a6.52,6.52,0,0,0,2.24-5.54,8.79,8.79,0,0,0-3.15-5.36,23.42,23.42,0,0,0-6-3.69,27,27,0,0,0-6.86-2.06,16.44,16.44,0,0,0-3.42-.14,9.37,9.37,0,0,0-3.06.78A5.21,5.21,0,0,0,71,39.14a4.23,4.23,0,0,0-.61,2.62c0,2,1.26,3.75,3,5.22a19.87,19.87,0,0,0,6.09,3.34,2,2,0,0,1,.86,3.18h0a21.94,21.94,0,0,0-2.64,3.91,19.27,19.27,0,0,0-1.73,4.39,12,12,0,0,0,.92,8.71,14.47,14.47,0,0,0,6.73,6A21.8,21.8,0,0,0,88.05,78a14.38,14.38,0,0,0,4.49.36h.1a2,2,0,0,1,.42,3.88Z"/><path class="b" d="M133.58,42.4a34.19,34.19,0,0,0-5.22-8.09,45.67,45.67,0,0,0-7.11-6.71,54,54,0,0,0-8.35-5.21,68.55,68.55,0,0,0-9.2-3.71,52.36,52.36,0,0,0-29.2-.59,46.28,46.28,0,0,0-9.17,3.41l-.09.05a1.53,1.53,0,0,1-1.49-2.66,40.83,40.83,0,0,1,4.8-2.43c1.64-.66,3.29-1.26,5-1.77a52.28,52.28,0,0,1,10.38-2A55.55,55.55,0,0,1,104.85,15a72.79,72.79,0,0,1,9.79,3.89,58.86,58.86,0,0,1,9,5.56,47,47,0,0,1,7.74,7.31,38.36,38.36,0,0,1,5.77,9.08,2,2,0,0,1-3.57,1.58Z"/><path class="b" d="M74.07,70.62a36.12,36.12,0,0,1-12.83,1.86,33.39,33.39,0,0,1-12.72-2.65A15,15,0,0,1,47,69.1a12.92,12.92,0,0,1-1.42-.83,32.08,32.08,0,0,1-2.69-1.78A34.18,34.18,0,0,1,38,62.24,28.7,28.7,0,0,1,34,57a24.54,24.54,0,0,1-1.52-3c-.23-.51-.42-1-.61-1.58a12.8,12.8,0,0,1-.47-1.79l3.55.76a4,4,0,0,1-.33.43c-.1.12-.2.21-.29.3a6.7,6.7,0,0,1-.59.51,7.2,7.2,0,0,1-1.25.78,10.16,10.16,0,0,1-2.65.83,14.35,14.35,0,0,1-5-.23,30.58,30.58,0,0,1-8.62-3.6,62.75,62.75,0,0,1-7.45-5.09c-1.18-.94-2.33-1.9-3.45-2.92-.56-.51-1.1-1-1.65-1.57A17.37,17.37,0,0,1,2,39.06a9.65,9.65,0,0,1-.8-10.37A8.5,8.5,0,0,1,5.26,25a10.21,10.21,0,0,1,5.3-.64,19,19,0,0,1,4.71,1.37q2.09.88,4.1,1.93a57.86,57.86,0,0,1,7.71,4.82h0L24.21,33a25.77,25.77,0,0,1,2.11-2.92,30.79,30.79,0,0,1,2.4-2.58,25.56,25.56,0,0,1,5.76-4.14,20.6,20.6,0,0,1,14.08-1.84,27.41,27.41,0,0,1,6.63,2.38,18.55,18.55,0,0,1,5.65,4.5A15.37,15.37,0,0,1,64,35a15.88,15.88,0,0,1-.12,7.16,1.32,1.32,0,0,1-2.58-.51v-.05a13.26,13.26,0,0,0-3.07-10.93c-2.57-2.91-6.45-4.51-10.45-5.37a17.11,17.11,0,0,0-11.44,1.63,22.66,22.66,0,0,0-4.86,3.51,26,26,0,0,0-2.11,2.21A21.11,21.11,0,0,0,27.58,35l0,.05a2,2,0,0,1-2.71.6.71.71,0,0,1-.14-.1h0a53.74,53.74,0,0,0-7.13-4.45c-1.25-.66-2.52-1.25-3.81-1.8a15.33,15.33,0,0,0-3.67-1.09,6.47,6.47,0,0,0-3.29.36,4.65,4.65,0,0,0-2.22,2,5.56,5.56,0,0,0-.65,3.13,5.89,5.89,0,0,0,1.15,3,12.55,12.55,0,0,0,1.28,1.42c.5.48,1,1,1.53,1.44,1,1,2.12,1.86,3.23,2.74a59.56,59.56,0,0,0,7,4.78,26.89,26.89,0,0,0,7.46,3.16,10.56,10.56,0,0,0,3.64.19A5.87,5.87,0,0,0,30.72,50a4.49,4.49,0,0,0,.61-.37l.24-.21.09-.09s.06-.09,0,0a2.22,2.22,0,0,1,3.56.76,10.13,10.13,0,0,0,.33,1.18c.15.43.3.86.49,1.28A20.31,20.31,0,0,0,37.32,55a24.76,24.76,0,0,0,3.48,4.52,31.71,31.71,0,0,0,4.38,3.78c.78.58,1.61,1.1,2.44,1.61a11.1,11.1,0,0,0,1.23.71,11.32,11.32,0,0,0,1.26.62,29.6,29.6,0,0,0,11.22,2.3A32.25,32.25,0,0,0,72.72,67l.06,0a2,2,0,1,1,1.3,3.68Z"/><path class="b" d="M35.07,26.1a2,2,0,0,1-1.45-.64C31.63,23.26,21.7,12,21.93,6.62a6.42,6.42,0,0,1,2.86-5.28C27.38-.39,31.08-.25,33.6.66c5.15,1.88,9.8,6.47,11.89,8.77a43.05,43.05,0,0,1,11.61-5c7.3-1.85,20.68.87,24.18,9.19a1.95,1.95,0,1,1-3.59,1.51c-2-4.74-11.64-8.94-19.63-6.92a39.36,39.36,0,0,0-11.79,5.38,2,2,0,0,1-2.66-.36c0-.07-5.52-6.77-11.34-8.89-1.59-.57-3.93-.67-5.31.26a2.57,2.57,0,0,0-1.13,2.2c-.11,2.51,5.46,10.28,10.69,16.05a2,2,0,0,1-1.45,3.26Z"/><path class="b" d="M131.32,36.3a1.95,1.95,0,0,1-.43-3.85,3.1,3.1,0,0,0,1.8-2.27c.72-2.43-.22-5.29-2.52-7.62-3.9-4-12.24-7.88-16.75-6.75a3.42,3.42,0,0,0-2.66,2.55,1.95,1.95,0,1,1-3.74-1.1A7.25,7.25,0,0,1,112.48,12c6.64-1.66,16.32,3.56,20.48,7.8,3.3,3.37,4.6,7.65,3.47,11.47a6.83,6.83,0,0,1-4.68,5A2.15,2.15,0,0,1,131.32,36.3Z"/><path class="b" d="M61.59,129a8.13,8.13,0,0,1-2.9-.51c-3.38-1.27-5.81-4.68-6.67-9.37a45.44,45.44,0,0,1-.5-4.53,30.05,30.05,0,0,0-.71-5.27c-1.32-5.13-5.45-9.22-9.43-13.18l-2-2C33,87.61,28.89,81.31,26.93,74.91,24.37,66.55,25.58,58,30.19,52a2,2,0,0,1,3.1,2.38c-3.78,4.93-4.79,12.38-2.63,19.42,1.77,5.8,5.54,11.57,11.51,17.66.64.66,1.3,1.31,2,2,4.36,4.33,8.87,8.81,10.46,15a33.62,33.62,0,0,1,.82,6,40.77,40.77,0,0,0,.45,4.13c.23,1.22,1.18,5.29,4.2,6.42,2.27.85,4.92-.41,6.37-2.09A12.68,12.68,0,0,0,69,115.1C69.82,101.55,59.3,90.66,53,85.38l-.91-.76c-2.39-2-4.86-4-6.49-6.84-2-3.43-2.3-8.52.85-11.61A2,2,0,1,1,49.14,69c-1.71,1.68-1.37,4.8-.19,6.89s3.36,3.94,5.58,5.76l.93.77c6.91,5.76,18.36,17.69,17.48,33-.24,4.16-1.44,7.52-3.55,10A10.45,10.45,0,0,1,61.59,129Z"/></svg>