<svg xmlns="http://www.w3.org/2000/svg" width="149.9" height="121.87" viewBox="0 0 149.9 121.87"><defs><style>.a{fill:#bcaeaa;}.b{fill:#918380;}.c{fill:#4f2909;}</style></defs><path class="a" d="M142.86,78.48l-.12.25c3.26-17.33-6.17-43.1-29.05-49.23-22.24-6-37.13,3-37.13,3l1.7,1.71c-.73,0-1.45-.07-2.17,0l-.18,0C74.38,18.58,65.57.45,62.13,3,58.2,5.91,50.85,13.77,50.85,13.77a82.08,82.08,0,0,0-24.36.13C24.16,7.48,17.57.89,15.61,2.35S5.6,16.58,2.69,33.09c-2.51,14.22,4,27.41,15.91,32,0,.18-.1.34-.13.52-.93,4.88.7,10.58,3,15.92-4.5.4-10.88,2.86-10.89,10.07C10.59,100,30,97.06,30,97.06l-1-2.39a4.87,4.87,0,0,0,1,.47c.46,6.5,12.51,7.58,27.71,6.91,10-.44,15.05-1.06,17.5-1.51.16.06.32.13.48.18.5.17,1,.3,1.5.43-5.61,3.73-8.92,10-6.37,15,1.63,3.21,3.28,3.7,6.29,3.67,7.15-.06,7.6-7.24,20-8.49,16.23-1.65,29.36,3.75,42.6-5.56C150.21,98.35,149.71,84.64,142.86,78.48Z"/><path class="b" d="M26,14.28c-.57,3-1.4,7.28.66,10,1.13,1.51,4,1.11,4.67-.46.55-1.31.28-2.65.37-4a23.25,23.25,0,0,1,.72-4.19C33.21,12.39,26.55,11.1,26,14.28Z"/><path class="b" d="M35.9,13.93a12.62,12.62,0,0,0,.2,10.82c.55,1.05,2.33,1.5,3.55,1.21A2.9,2.9,0,0,0,42,23.42c.39-2.63.51-5.23,1-7.86C43.64,11.66,37.61,10.2,35.9,13.93Z"/><path class="b" d="M46.62,13.61c-.85,2.77-1.37,6.66,0,9.35.6,1.19,3.24,1.91,4.1.41,1.52-2.66,1.93-6.21,2.23-9.1S47.44,10.93,46.62,13.61Z"/><path class="b" d="M90.36,28.1a36.66,36.66,0,0,0-.55,3.75,45.08,45.08,0,0,1-1.36,5.53c-.69,2.35-2.56,6.21,0,8.06,3.15,2.31,6.29-3.51,7.29-5.86,1.4-3.24,2.81-8.17,1.73-11.81C95,27.85,92.6,28,90.36,28.1Z"/><path class="b" d="M106.6,27.92A4.24,4.24,0,0,0,105,31.13a32.17,32.17,0,0,1-1.07,5.94c-.55,2-1.24,3.91-.93,6a2.43,2.43,0,0,0,2.89,2.11c4.62-1.48,6-9,6.5-13.74a5,5,0,0,0-.17-1.87A20.49,20.49,0,0,0,106.6,27.92Z"/><path class="b" d="M118.14,36.57c-.38,3-2,5.81-2.19,8.82-.14,2,1.53,3.77,3.25,3.24,4.13-1.29,6.12-7.14,6.3-11.61C125.73,31.46,118.81,31.16,118.14,36.57Z"/><path class="b" d="M135.36,43.15c-.72-1-1.87-2.66-2.8-2.12-1.74,1-1.94,3.18-3.56,6.65-.79,1.71-2.4,3.67-2.26,5.66a2.78,2.78,0,0,0,2.62,2.76c2.58.2,4.76-2.74,5.83-4.9C136.46,48.63,137.18,45.58,135.36,43.15Z"/><path class="b" d="M93.55,102.94c-1.25-2.47-3-4.94-5.8-5.73a2.06,2.06,0,0,0-2.52,2.52c.68,2.14,1.88,2.24,3.14,5.85.74,2.12.75,4.67,2.42,6.26a2.64,2.64,0,0,0,4.1-.53C96.43,108.82,94.76,105.31,93.55,102.94Z"/><path class="b" d="M100.49,94.28c-2-.67-3.62,1.75-2.67,3.46a33.54,33.54,0,0,1,2.65,4.85,26.82,26.82,0,0,1,1.38,7.48c-.13,4.53,6.28,2.58,6.14-2C107.83,102.57,106.43,96.27,100.49,94.28Z"/><path class="b" d="M116,94.72c-1.24-.42-3.11-.49-3.25.6-.22,1.83,1.56,4.74,1.94,6.5a21.1,21.1,0,0,1,.5,5.77c-.23,4.25,6.6,4.3,6.64,0S120.74,96.35,116,94.72Z"/><path class="b" d="M131.11,96c-.77-.86-5.48-4.62-6.13-1.7-.4,1.77,1.69,4.12,2.16,5.68,1,3.24,1.42,6.84,1,8.92-.3,1.34.06-1.18,1.42-.53a3.83,3.83,0,0,0,2.57.33,3.32,3.32,0,0,0,2.45-3.21A15.56,15.56,0,0,0,131.11,96Z"/><path class="b" d="M145.7,97.7a10.48,10.48,0,0,0-4-6.84,7.06,7.06,0,0,0-3.37-1.39,4,4,0,0,0-1.68.22,1.8,1.8,0,0,0-.83.49c-.37.49-.39.5-.07,0a1,1,0,0,0-.48,1.18c-.11,1.29.92,2.71,1.64,3.64a16.13,16.13,0,0,1,3.38,8.56c.22,2.18,0-1,2.38-1.31S146,99.88,145.7,97.7Z"/><path class="c" d="M24.7,68.12a22,22,0,0,1-12.12-3.85,27.2,27.2,0,0,1-8.64-9.49A32,32,0,0,1,.18,42.61a34.66,34.66,0,0,1-.07-6.36,45.42,45.42,0,0,1,1-6.19A83.59,83.59,0,0,1,9.66,7.13a37.13,37.13,0,0,1,3.5-5.32c.19-.23.37-.45.63-.72a3.46,3.46,0,0,1,.47-.44A3,3,0,0,1,17,.13a4.45,4.45,0,0,1,1.11.48,13,13,0,0,1,2.95,2.06,29.61,29.61,0,0,1,7.27,10.55L26.14,12h0c2.15-.36,4.18-.57,6.27-.74s4.16-.25,6.24-.27,4.17,0,6.26.18,4.18.39,6.26.69l-1.77.61h0c2.72-3,5.53-5.91,8.56-8.71.77-.7,1.54-1.39,2.4-2.06l.32-.26.16-.12A4.5,4.5,0,0,1,61.27,1a3.38,3.38,0,0,1,2-.38A4.79,4.79,0,0,1,65.7,1.74a13.28,13.28,0,0,1,2.4,2.68,31.09,31.09,0,0,1,1.72,2.74A66.81,66.81,0,0,1,74.68,18.6a76.89,76.89,0,0,1,2.92,12,45.14,45.14,0,0,1,.3,12.57,32,32,0,0,1-4,12.1A26.06,26.06,0,0,1,65,64.54a21.91,21.91,0,0,1-12.27,3.37,1.29,1.29,0,0,1-.1-2.57h0a23.82,23.82,0,0,0,17.84-12,27.86,27.86,0,0,0,3.33-10.66,41.36,41.36,0,0,0-.44-11.41,73.32,73.32,0,0,0-2.79-11.34A61.69,61.69,0,0,0,66.06,9.27c-.47-.82-1-1.62-1.48-2.35A9.11,9.11,0,0,0,63,5.12c-.22-.2-.47-.26-.23-.2a1,1,0,0,0,.54-.12.18.18,0,0,0,.1-.07l-.13.11L63,5.05c-.72.55-1.46,1.18-2.18,1.83-2.91,2.6-5.72,5.46-8.52,8.25h0a2,2,0,0,1-1.72.61h0c-1.95-.28-3.91-.54-5.9-.65s-4-.19-6-.17-4,.1-6,.26-4,.38-5.88.68h-.41a1.91,1.91,0,0,1-1.8-1.27,22.88,22.88,0,0,0-6.1-9,7.1,7.1,0,0,0-2-1.32c-.27-.08-.56.12,0,.06a1,1,0,0,0,.34-.18.34.34,0,0,0-.09.06,2.37,2.37,0,0,0-.37.39,34.34,34.34,0,0,0-3,4.68A79.34,79.34,0,0,0,5.31,31a45.41,45.41,0,0,0-.88,5.62,30.7,30.7,0,0,0,0,5.59A27.74,27.74,0,0,0,7.64,52.74a23,23,0,0,0,7.26,8.09A30.48,30.48,0,0,0,25,65.1h0a1.53,1.53,0,0,1-.35,3Z"/><path class="c" d="M25.57,49.7c-.07-.17,0-.11.14-.09a3.36,3.36,0,0,0,.5.12,8,8,0,0,0,1.28.19,7.25,7.25,0,0,0,2.71-.29,5.4,5.4,0,0,0,3.63-3.33h0a2,2,0,0,1,3.61-.14l0,.1a7.79,7.79,0,0,0,1.69,2.28A6.51,6.51,0,0,0,41.64,50a7.87,7.87,0,0,0,2.94.34,12.75,12.75,0,0,0,3-.66l.08,0a1.73,1.73,0,0,1,1.49,3.1A9.91,9.91,0,0,1,45,54.21a11.4,11.4,0,0,1-4.53-.42,10,10,0,0,1-4-2.32,10.3,10.3,0,0,1-1.49-1.76,10.68,10.68,0,0,1-1.1-2.11l3.66-.05h0a9,9,0,0,1-6.09,6.05,11.75,11.75,0,0,1-4.24.46A8.5,8.5,0,0,1,25,53.61a6.34,6.34,0,0,1-1.13-.53,3.83,3.83,0,0,1-1.24-1.16,1.84,1.84,0,1,1,2.93-2.22Z"/><path class="c" d="M16.16,37.31a9.63,9.63,0,0,1,2.46-1A11.3,11.3,0,0,1,21.18,36a12.92,12.92,0,0,1,2.5.22,11.54,11.54,0,0,1,2.48.75,2.31,2.31,0,0,1-1.3,4.41l-.37-.07c-.37-.06-1-.18-1.56-.23A10.12,10.12,0,0,0,21.29,41a7.93,7.93,0,0,0-1.56.17,10,10,0,0,0-1.45.4l-.29.09a2.38,2.38,0,0,1-1.83-4.38Z"/><path class="c" d="M45.88,37.24a8.23,8.23,0,0,1,3-1.39A12.63,12.63,0,0,1,57.57,37a2.32,2.32,0,0,1-1.74,4.27l-.2-.05a15.14,15.14,0,0,0-3.87-.64,8.59,8.59,0,0,0-3.43.48l-.27.11a2.26,2.26,0,0,1-2.18-3.9Z"/><path class="c" d="M33.11,90.24a2.12,2.12,0,0,1-.88-.19,24.93,24.93,0,0,1-15-24.63,2.07,2.07,0,1,1,4.13.32A20.84,20.84,0,0,0,34,86.29a2.07,2.07,0,0,1-.87,3.95Z"/><path class="c" d="M54.77,85.53c-3.34.73-6.58.67-9.77,1a25.57,25.57,0,0,0-8.84,2.48,8.47,8.47,0,0,0-3,2.59,6.26,6.26,0,0,0-.77,1.68A4.6,4.6,0,0,0,32.18,95a3.15,3.15,0,0,0,1.66,2.43,13.58,13.58,0,0,0,4,1.55,50.23,50.23,0,0,0,9.56,1.1c3.28.1,6.6,0,9.92-.08s6.66-.31,10-.57c1.65-.14,3.3-.29,4.92-.49.81-.1,1.62-.21,2.4-.34l1.15-.22.52-.12.23-.06s.2-.08,0,0a2,2,0,1,1,1.76,3.57,4.72,4.72,0,0,1-.58.22l-.38.11-.7.17c-.45.1-.89.18-1.33.26q-1.29.22-2.58.39c-1.7.22-3.4.38-5.09.53-3.38.28-6.75.48-10.13.64s-6.79.23-10.21.14a52.9,52.9,0,0,1-10.43-1.13,17.42,17.42,0,0,1-5.33-2.08,8.45,8.45,0,0,1-2.44-2.28,7,7,0,0,1-1.22-3.38,8.64,8.64,0,0,1,.37-3.27,10.32,10.32,0,0,1,1.33-2.88,12.73,12.73,0,0,1,4.51-4,28,28,0,0,1,10.47-2.8,25.8,25.8,0,0,1,10.35.66,1.25,1.25,0,0,1-.12,2.41Z"/><path class="c" d="M22.94,99.65c-4.26,0-9.28-.6-12.09-3a6.44,6.44,0,0,1-2.31-5A11.1,11.1,0,0,1,12,83.28c3.38-3.18,8.41-4.07,11.69-3.87a2.07,2.07,0,0,1-.25,4.14c-2.57-.16-6.35.64-8.6,2.75a6.89,6.89,0,0,0-2.15,5.29,2.34,2.34,0,0,0,.87,1.9C16.41,96,25,95.73,29.69,95a2.07,2.07,0,0,1,.62,4.1A52.37,52.37,0,0,1,22.94,99.65Z"/><path class="c" d="M134.17,90.68c1.24-2.3,2.92-4,4.09-5.71a11.12,11.12,0,0,0,1.32-2.68,32.09,32.09,0,0,0,.89-3.23,37.18,37.18,0,0,0,.35-13.64,44.71,44.71,0,0,0-11.76-24.53,34.79,34.79,0,0,0-11.16-7.73,49.05,49.05,0,0,0-13.42-3.3,52.44,52.44,0,0,0-13.88.27,46.84,46.84,0,0,0-6.75,1.55c-1.1.35-2.19.73-3.24,1.16a26.92,26.92,0,0,0-3,1.41l-.08,0a2.08,2.08,0,1,1-2.05-3.61h0A31.58,31.58,0,0,1,79.05,29c1.17-.48,2.36-.9,3.57-1.27A51.7,51.7,0,0,1,90,26a56.94,56.94,0,0,1,15-.29,53,53,0,0,1,14.6,3.61A39,39,0,0,1,132,38a45.22,45.22,0,0,1,8.55,12.44,50.73,50.73,0,0,1,4.35,14.39A44.09,44.09,0,0,1,144.7,80a29.27,29.27,0,0,1-1,3.74,13.21,13.21,0,0,1-2,3.7,18.6,18.6,0,0,1-5.79,4.84l0,0a1.18,1.18,0,0,1-1.61-.45A1.21,1.21,0,0,1,134.17,90.68Z"/><path class="c" d="M108.28,53.39a24.43,24.43,0,0,0-11.92,2.66,16.58,16.58,0,0,0-4.68,3.6,15.73,15.73,0,0,0-3,5,20,20,0,0,0-1.13,5.88,17.22,17.22,0,0,0,.68,5.84A14.91,14.91,0,0,0,91,81.45a15.5,15.5,0,0,0,2.09,2c.38.31.78.6,1.18.87a10.3,10.3,0,0,0,1.15.68l.17.09a2.06,2.06,0,0,1-.8,3.89h0a57.32,57.32,0,0,0-5.88.91,34.12,34.12,0,0,0-5.59,1.62,13.25,13.25,0,0,0-2.38,1.21,4.15,4.15,0,0,0-1.41,1.41,1.31,1.31,0,0,0-.11.29,2.61,2.61,0,0,0-.08.5,2.84,2.84,0,0,0,0,.93,2,2,0,0,0,.86,1.28,2.07,2.07,0,0,1-2.51,3.3,6.17,6.17,0,0,1-2.42-3.8,6.82,6.82,0,0,1-.07-2.15,6.12,6.12,0,0,1,.17-1,4.87,4.87,0,0,1,.43-1.16,7.93,7.93,0,0,1,2.82-3,17.28,17.28,0,0,1,3.13-1.62,39,39,0,0,1,6.29-1.83,60.75,60.75,0,0,1,6.37-1h0l-.63,4A15.36,15.36,0,0,1,92,87.94a17.24,17.24,0,0,1-1.57-1.06,19.74,19.74,0,0,1-2.76-2.57A18.14,18.14,0,0,1,84,77.73a21,21,0,0,1-.88-7.4,23.54,23.54,0,0,1,1.49-7.21,19.26,19.26,0,0,1,4-6.35,20.38,20.38,0,0,1,6-4.37,19.88,19.88,0,0,1,14.16-1.25,1.15,1.15,0,0,1-.37,2.24Z"/><path class="c" d="M76.94,121.87c-3.49,0-5.92-.83-8-4.81-3.09-6,.53-14,8.4-18.46,10.35-5.88,21.82-6,37.69-6.27l2.67,0c15.14-.23,18.85-5.32,18.89-5.37a2.09,2.09,0,0,1,2.85-.58,2.06,2.06,0,0,1,.64,2.81c-.45.71-4.87,7-22.32,7.29l-2.67,0c-15.26.22-26.28.37-35.7,5.73-5.1,2.89-9,8.54-6.76,13,1.18,2.32,1.95,2.56,4.43,2.54s3.89-1.11,6-2.75a23.61,23.61,0,0,1,13.78-5.73,103.14,103.14,0,0,1,15.38-.13c9.62.42,17.92.79,26.24-5.06a16.47,16.47,0,0,0,7.22-12.62A14.17,14.17,0,0,0,141.47,80a2.07,2.07,0,1,1,2.77-3.09,18.37,18.37,0,0,1,5.62,14.74,20.52,20.52,0,0,1-9,15.76c-9.48,6.66-18.86,6.24-28.8,5.81a101.69,101.69,0,0,0-14.78.11,19.6,19.6,0,0,0-11.65,4.87c-2.26,1.77-4.6,3.6-8.5,3.64Z"/></svg>