<svg xmlns="http://www.w3.org/2000/svg" width="177.7" height="139.67" viewBox="0 0 177.7 139.67"><defs><style>.a{fill:#ffc364;}.b{fill:#db8b49;}.c{fill:#4f2909;}</style></defs><path class="a" d="M173,24c-3.28-1.53-16.22,4.58-16.22,4.58-7.09-6.07-18.37-11.49-18.37-11.49.79-1.85.93-13.89-1.54-14.94S121.55,6,109.77,17.41a36.65,36.65,0,0,0-9.18,13.66l0-.35c-5.58-8-18.11-14.23-28.3-10.3-12,4.64-7.14,17.6,1.48,17.06C81.09,37,94.47,47.34,95.2,60.79l0,1c-.13.48-.26,1-.4,1.44a41.12,41.12,0,0,0-8.4-.23l.74-.55c-4-8.87-14.84-12.05-23.74-7.45-9.27,4.78-14,16.84-15.2,22.81,0,0-7.94-9.87-15.48-10.61-4.4-.44-6.55,2-6.28,5.72h-.3l0-.14C12.79,57.52,1.09,65.86,2,72c.77,4.93,4.86,6.34,9.54,10.57a40.1,40.1,0,0,1,8.2,9.7l1-3.09c.25.63.51,1.26.8,1.89a7.47,7.47,0,0,0-.88.63C15.24,96.22,22.63,107,35.47,114.1c8,9.45,16,15.2,24,18.57,27.86,11.69,49.8.45,62.09-10,20.52-17.52,25.54-36.11,26.24-44.32l-.54.17.21-.39c.44-.09.85-.17,1.22-.26,7.44-1.76,15.13-7.86,19.15-14.69C176.26,48.87,178.09,26.35,173,24Z"/><path class="b" d="M139.87,19.72A13.14,13.14,0,0,0,135,25.17c-.77,1.57-1.64,6,1.35,6,1.76-.05,3-1.81,4-3.13s2.16-2.35,3.2-3.6C145.59,21.86,143,18,139.87,19.72Z"/><path class="b" d="M148.89,25a54,54,0,0,0-4.21,5.86c-1.11,1.84-1.84,4.77.64,5.8,2,.84,4-1.39,5.07-2.81,1.2-1.64,2.46-3.26,3.53-5C155.8,25.88,151.21,22.14,148.89,25Z"/><path class="b" d="M140.14,96.51c-2.31-1.14-4.61-2.33-6.92-3.44a33.34,33.34,0,0,0-6.89-2.28c-1-.26-2.26,1-1.52,2A21.45,21.45,0,0,0,129.76,98a49.61,49.61,0,0,0,7.08,4.14C140.6,104,143.91,98.39,140.14,96.51Z"/><path class="b" d="M132.39,109.09c-2.44-1.44-4.87-2.8-7.26-4.34a19.83,19.83,0,0,0-7-3.26,1.09,1.09,0,0,0-1.37,1c.48,5.9,6.94,10.66,12,12.8C132.89,117.08,136.52,111.53,132.39,109.09Z"/><path class="b" d="M120.14,122.39c-1.21-2.18-3.59-3.72-5.24-5.59s-3.11-4-5.34-5a2.39,2.39,0,0,0-3.54,2c-.09,3,1.8,5.54,3.58,7.73s3.9,4.8,6.68,5.84S121.49,124.81,120.14,122.39Z"/><path class="b" d="M105,128.76c-1.69-1.9-3.53-3.55-5.07-5.6a17.56,17.56,0,0,0-2.24-2.56c-.79-.71-1.82-.81-2.55-1.37s-1.43.19-1.48.85c0-.25-.23.55-.33.84a4.31,4.31,0,0,0-.11,1.89A10,10,0,0,0,94.84,127a24.71,24.71,0,0,0,6.17,6.87C104.17,136.12,107.27,131.39,105,128.76Z"/><path class="b" d="M87.8,133.11c-1.24-2.2-2.08-4.6-3.35-6.79-.61-1-2.06-3.52-3.65-2.59-1.76,1-1.44,3.71-1.18,5.44a24.83,24.83,0,0,0,2.64,7.18C84.08,140,89.86,136.74,87.8,133.11Z"/><path class="b" d="M71.94,130.18a5.18,5.18,0,0,0-1.29-2.88v-.09c-.14-.8-1.24-.79-1.62-.21l0,0c-1.44.57-1.92,2.68-1.82,4,.13,2,.48,4.4,2.36,5.46,1.68.95,3.26-.3,3.49-2C73.21,133.13,72.23,131.57,71.94,130.18Z"/><path class="c" d="M103.28,57.33a22.41,22.41,0,0,1-5.73-10.58,28,28,0,0,1-.74-6,29.17,29.17,0,0,1,.66-6c1.71-8,6.59-14.82,12.34-20a74.44,74.44,0,0,1,9.11-7.22A60.75,60.75,0,0,1,129.18,1.8a23.7,23.7,0,0,1,6-1.75,5.32,5.32,0,0,1,2.26.16,3.19,3.19,0,0,1,.84.43,3.53,3.53,0,0,1,.59.55,4.89,4.89,0,0,1,.66,1,11.79,11.79,0,0,1,.94,3.28,38.07,38.07,0,0,1,.43,6c0,1,0,2-.11,3,0,.5-.09,1-.16,1.52,0,.27-.08.53-.14.82a4.92,4.92,0,0,1-.31,1.06h0l-.92-2.45c1.68.83,3.29,1.67,4.9,2.56s3.2,1.81,4.78,2.76a74,74,0,0,1,9.1,6.44l-2-.27a70.58,70.58,0,0,1,12.28-4.55,14.55,14.55,0,0,1,3.66-.45,6.89,6.89,0,0,1,1.18.16,4,4,0,0,1,1.31.6,5.42,5.42,0,0,1,1.6,1.8A11.25,11.25,0,0,1,177.24,28a23.83,23.83,0,0,1,.41,3.41,54.9,54.9,0,0,1-1.11,13.1A69.56,69.56,0,0,1,172.88,57,55.62,55.62,0,0,1,170.07,63a35.3,35.3,0,0,1-3.77,5.56A36.43,36.43,0,0,1,156,77.05a25.63,25.63,0,0,1-13.15,3.23,23.9,23.9,0,0,1-6.72-1.3,26.67,26.67,0,0,1-6-3.07,1.47,1.47,0,0,1,1.56-2.49A22.78,22.78,0,0,0,143,76.63a20.2,20.2,0,0,0,5.76-.78,27.4,27.4,0,0,0,5.42-2.26,33.9,33.9,0,0,0,9.3-7.48,27.94,27.94,0,0,0,3.41-4.91,49.27,49.27,0,0,0,2.6-5.55,65.72,65.72,0,0,0,3.43-11.86,51.33,51.33,0,0,0,1-12.18,19.19,19.19,0,0,0-.35-2.89,8.2,8.2,0,0,0-.8-2.41,2,2,0,0,0-.48-.58c-.06-.05-.07,0-.12-.05a2.51,2.51,0,0,0-.39-.05,11.29,11.29,0,0,0-2.64.35,68.46,68.46,0,0,0-11.52,4.3h0a1.91,1.91,0,0,1-2-.28,70.46,70.46,0,0,0-8.62-6.08c-1.52-.92-3.06-1.82-4.62-2.68s-3.16-1.69-4.72-2.46a1.82,1.82,0,0,1-.93-2.45h0c0,.05,0-.14.06-.3s.06-.38.09-.58c0-.42.08-.86.1-1.3q.08-1.34.06-2.7a34.22,34.22,0,0,0-.42-5.32A8.34,8.34,0,0,0,135.94,4a.83.83,0,0,0-.11-.18.3.3,0,0,0,.08.07.86.86,0,0,0,.21.11c.15,0-.24,0-.55,0a20,20,0,0,0-4.86,1.46,65.5,65.5,0,0,0-18.23,12.09,51.69,51.69,0,0,0-3.82,3.88,37,37,0,0,0-3.23,4.29,28.37,28.37,0,0,0-4,9.76,27,27,0,0,0,3.94,20.09l0,0a1.37,1.37,0,0,1-2.1,1.73Z"/><path class="c" d="M114.37,73.69a53.09,53.09,0,0,0-10.4-6,35.47,35.47,0,0,0-5.68-1.83A39.29,39.29,0,0,0,92.38,65a42.76,42.76,0,0,0-6,0,47.82,47.82,0,0,0-6,.87,34.11,34.11,0,0,0-5.69,1.75A15.33,15.33,0,0,0,70,70.5a5.32,5.32,0,0,0-1.85,4.15A6.62,6.62,0,0,0,68.72,77a5.4,5.4,0,0,0,1.4,1.85,10.69,10.69,0,0,0,4.82,2.1,29.88,29.88,0,0,0,5.89.54c1,0,2,0,3,0s2.2-.05,3.31,0a25.39,25.39,0,0,1,6.63,1.14A22.11,22.11,0,0,1,100,85.49a17.15,17.15,0,0,1,2.65,2.25,15,15,0,0,1,1.14,1.35,10.59,10.59,0,0,1,1,1.64,1.48,1.48,0,0,1-2.61,1.4L102,92a10.66,10.66,0,0,0-.72-1c-.3-.34-.62-.68-.95-1a14,14,0,0,0-2.24-1.71A19.34,19.34,0,0,0,92.82,86a25.56,25.56,0,0,0-5.78-.8c-1,0-1.94,0-3,.07s-2.16.09-3.25.07a33.57,33.57,0,0,1-6.64-.65,14.3,14.3,0,0,1-6.57-3,9.47,9.47,0,0,1-2.34-3.15,10.08,10.08,0,0,1-.91-3.76,8.46,8.46,0,0,1,.78-3.93,10.21,10.21,0,0,1,2.26-3.1,20.22,20.22,0,0,1,5.9-3.68,37.12,37.12,0,0,1,6.31-2A45.31,45.31,0,0,1,92.67,61a39.2,39.2,0,0,1,12.83,3.05,31.6,31.6,0,0,1,10.85,7.4,1.5,1.5,0,0,1-2,2.25Z"/><path class="c" d="M99.22,31.72a27,27,0,0,0-8.17-7.11,25.43,25.43,0,0,0-10.23-3.36,16.18,16.18,0,0,0-10,2.15,7.86,7.86,0,0,0-3.09,3.38,5.94,5.94,0,0,0-.26,4.27,6.47,6.47,0,0,0,2.62,3.49,5.86,5.86,0,0,0,2,.83,6.62,6.62,0,0,0,1.09.13l1.5,0a16.48,16.48,0,0,1,6.38,1.81,27,27,0,0,1,5.27,3.43,30.5,30.5,0,0,1,7.76,9.64,23.58,23.58,0,0,1,2.59,12.12,1.45,1.45,0,0,1-2.9,0v0c-.21-7.29-4.28-14.09-10-18.63a23.71,23.71,0,0,0-4.52-2.92,12.58,12.58,0,0,0-4.78-1.39l-1.43,0a11,11,0,0,1-1.81-.2,10.09,10.09,0,0,1-3.38-1.38,10.47,10.47,0,0,1-4.29-5.65A10,10,0,0,1,64,25.11,11.88,11.88,0,0,1,68.7,20a20.2,20.2,0,0,1,12.48-2.64,28.79,28.79,0,0,1,11.79,4,28.21,28.21,0,0,1,9.09,8.41,1.73,1.73,0,0,1-2.82,2Z"/><path class="c" d="M35.89,112.35a84.71,84.71,0,0,0,13.57,12.42,58.25,58.25,0,0,0,7.79,4.68,64.71,64.71,0,0,0,8.47,3.38,56.15,56.15,0,0,0,17.92,2.78,53.47,53.47,0,0,0,17.77-3.36,63.08,63.08,0,0,0,15.9-8.83,88.11,88.11,0,0,0,13.3-12.68A74.42,74.42,0,0,0,140.7,95.45,59.92,59.92,0,0,0,144.08,87c.9-2.91,1.53-5.85,2.26-8.78l0,0a1.49,1.49,0,0,1,2.94.3,28.88,28.88,0,0,1-1.55,9.66,61.63,61.63,0,0,1-3.54,9,78.07,78.07,0,0,1-10.53,16.18A92,92,0,0,1,119.8,126.7a64.62,64.62,0,0,1-17,9.41,57.31,57.31,0,0,1-19.14,3.55,60,60,0,0,1-19.19-3,68,68,0,0,1-9-3.63,57.28,57.28,0,0,1-8.28-5.15,68.54,68.54,0,0,1-13.55-13.67,1.45,1.45,0,0,1,2.24-1.84Z"/><path class="c" d="M42.92,96.24a66.42,66.42,0,0,1-11.29-9.73A37.52,37.52,0,0,1,27,80.45a17.11,17.11,0,0,1-2.6-7.68,7.7,7.7,0,0,1,1.13-4.64,6.55,6.55,0,0,1,4.2-2.77A12.93,12.93,0,0,1,38,66.81a28.67,28.67,0,0,1,6.31,4.43,42.85,42.85,0,0,1,5.13,5.54h0l-2.89.7A42.59,42.59,0,0,1,51.83,63.9,27.78,27.78,0,0,1,62.32,53.39a20,20,0,0,1,15-1.59,18.37,18.37,0,0,1,6.77,3.73,17.33,17.33,0,0,1,4.46,6.27,1.58,1.58,0,0,1-2.89,1.29,14.58,14.58,0,0,0-9.37-7.7,16.64,16.64,0,0,0-12.19,1.39A25.16,25.16,0,0,0,55,65.84a42.91,42.91,0,0,0-5.21,12.3l0,.09a1.63,1.63,0,0,1-2.86.61h0a39.12,39.12,0,0,0-10.6-8.51,12.86,12.86,0,0,0-2.94-1,7.34,7.34,0,0,0-2.79-.07,2.57,2.57,0,0,0-1.71,1.07,3.79,3.79,0,0,0-.49,2.29,13.93,13.93,0,0,0,2,5.89A32.74,32.74,0,0,0,34.48,84,66.4,66.4,0,0,0,44.89,93.3l.07,0a1.77,1.77,0,0,1-2,2.89Z"/><path class="c" d="M121,48.49a6,6,0,0,0,3.83,1.36,8.72,8.72,0,0,0,4.32-1.15c1.61-.18,2.78.51,2.67,2.14h0a8.66,8.66,0,0,0-.15,1,7.93,7.93,0,0,0,0,1.09,6.21,6.21,0,0,0,.47,2,5.47,5.47,0,0,0,1.13,1.71c.49.51,1.05,1,1.62,1.57l.09.09a1.77,1.77,0,0,1-1.83,2.91,6.77,6.77,0,0,1-2.77-1.85,9.56,9.56,0,0,1-1.89-2.94,9.48,9.48,0,0,1-.52-5.1,8.28,8.28,0,0,1,.46-1.73h0l2.66,2.14a11.6,11.6,0,0,1-6.3,1.77,9.7,9.7,0,0,1-3.36-.63,7.25,7.25,0,0,1-2.89-2.06A1.71,1.71,0,0,1,121,48.43Z"/><path class="c" d="M123.84,38.2a2.91,2.91,0,0,1-4,.84,2.89,2.89,0,0,1,0-4.06,2.89,2.89,0,0,1,4-.85A2.91,2.91,0,0,1,123.84,38.2Z"/><path class="c" d="M121.28,41.5a4.2,4.2,0,0,1-2.65-.91,4.86,4.86,0,0,1-.36-6.85,4.59,4.59,0,1,1,7.12,5.7h0A5.35,5.35,0,0,1,121.28,41.5Zm2.56-3.3h0Zm-1.47-2.57a1.43,1.43,0,0,0-1,.59c-.44.55-.42,1.15-.26,1.27s.75,0,1.19-.53.42-1.15.26-1.28A.3.3,0,0,0,122.37,35.63Z"/><path class="c" d="M149.41,55.6a2.63,2.63,0,1,1-.26-4.06A2.91,2.91,0,0,1,149.41,55.6Z"/><path class="c" d="M146.8,59a4.21,4.21,0,0,1-2.48-.79A4.36,4.36,0,0,1,142.56,55a5.46,5.46,0,0,1,1.06-3.53,4.59,4.59,0,1,1,7.4,5.33h0a5.43,5.43,0,0,1-3,2.12A4.5,4.5,0,0,1,146.8,59Zm2.61-3.43h0Zm-1.57-2.49a1.41,1.41,0,0,0-1,.63,1.54,1.54,0,0,0-.31,1,.49.49,0,0,0,.12.33.52.52,0,0,0,.35,0,1.59,1.59,0,0,0,.81-.6c.41-.58.36-1.17.19-1.29A.22.22,0,0,0,147.84,53.11Z"/><path class="c" d="M71.58,84a18.13,18.13,0,0,0-13.24-.66,16.35,16.35,0,0,0-5.66,3.55,25.92,25.92,0,0,0-4.32,5.46c-.3.5-.57,1-.87,1.57a12,12,0,0,1-1.16,1.92A3.54,3.54,0,0,1,44.73,97a3.46,3.46,0,0,1-2,.06,12,12,0,0,1-2.11-.78c-2.35-1.08-4.52-2.15-6.77-3a22.82,22.82,0,0,0-6.7-1.62A9.32,9.32,0,0,0,24.1,92a6,6,0,0,0-2.4,1.39,3,3,0,0,0-.89,2.1,7.43,7.43,0,0,0,.61,2.85,20.4,20.4,0,0,0,3.83,5.62,44.78,44.78,0,0,0,11.44,8.66c4.28,2.29,8.76,4.3,13.18,4a12.62,12.62,0,0,0,6.13-2,16.23,16.23,0,0,0,2.61-2.13c.41-.4.8-.82,1.21-1.28l.64-.71a6.53,6.53,0,0,1,1-1h0a1.78,1.78,0,0,1,2.49.3l0,0,.22.29c.74,1,1.43,2,2.23,3S68,115,68.88,115.88s1.76,1.78,2.7,2.63,2,1.66,2.9,2.38l.09.07a1.28,1.28,0,0,1-1.21,2.23,19.71,19.71,0,0,1-3.84-1.93,23.76,23.76,0,0,1-3.38-2.55A22.77,22.77,0,0,1,60.9,112l2.72.61h0l-.95,1.05c-.43.48-.89,1-1.37,1.45a20.49,20.49,0,0,1-3.21,2.62,16.52,16.52,0,0,1-8,2.66A21.22,21.22,0,0,1,42,119.19a37.8,37.8,0,0,1-3.66-1.5c-1.17-.54-2.34-1.11-3.47-1.74a48.92,48.92,0,0,1-12.43-9.43,24,24,0,0,1-4.55-6.77A11,11,0,0,1,17,95.3a6.93,6.93,0,0,1,2-4.65,9.82,9.82,0,0,1,4-2.36,12.87,12.87,0,0,1,4.36-.47,26.06,26.06,0,0,1,7.87,1.86c2.44.92,4.78,2.08,7,3.08a10.5,10.5,0,0,0,1.4.55c.1,0,.06,0-.13,0s-.22.15-.13,0a10.85,10.85,0,0,0,.76-1.32c.29-.55.61-1.14,1-1.71a29.74,29.74,0,0,1,5-6.3,20.24,20.24,0,0,1,7-4.37,21.89,21.89,0,0,1,16.1.75A1.92,1.92,0,0,1,71.6,84h0Z"/><path class="c" d="M19.78,94.2a2,2,0,0,1-1.75-1A38.79,38.79,0,0,0,10.25,84c-1.26-1.13-2.46-2-3.62-2.93C3.48,78.66.75,76.58.08,72.25c-.54-3.48,1.77-7.17,5.62-9C8.16,62.14,17,59.34,27.64,71.48a2,2,0,1,1-3,2.61C15.85,64,9.21,66,7.38,66.88,4.88,68,3.77,70.2,4,71.64c.41,2.64,1.92,3.89,5,6.26,1.17.89,2.5,1.9,3.88,3.15a42.08,42.08,0,0,1,8.62,10.24,2,2,0,0,1-1.75,2.91Z"/></svg>