<svg xmlns="http://www.w3.org/2000/svg" xmlns:xlink="http://www.w3.org/1999/xlink" viewBox="0 0 358.27 358.87"><defs><style>.cls-1{mask:url(#mask);filter:url(#luminosity-noclip-4);}.cls-2,.cls-4,.cls-6{mix-blend-mode:multiply;}.cls-2{fill:url(#linear-gradient);}.cls-3{mask:url(#mask-2);filter:url(#luminosity-noclip-5);}.cls-4{fill:url(#linear-gradient-2);}.cls-5{mask:url(#mask-3);filter:url(#luminosity-noclip-6);}.cls-6{fill:url(#linear-gradient-3);}.cls-7{fill:#ffff4c;opacity:0.18;}.cls-8{fill:url(#linear-gradient-4);}.cls-9{fill:url(#linear-gradient-5);}.cls-10{fill:url(#linear-gradient-6);}.cls-11{mask:url(#mask-4);}.cls-12{opacity:0.38;fill:url(#linear-gradient-7);}.cls-13{mask:url(#mask-5);}.cls-14{opacity:0.93;fill:url(#linear-gradient-8);}.cls-15{mask:url(#mask-6);}.cls-16{opacity:0.4;fill:url(#linear-gradient-9);}.cls-17{filter:url(#luminosity-noclip-3);}.cls-18{filter:url(#luminosity-noclip-2);}.cls-19{filter:url(#luminosity-noclip);}</style><filter id="luminosity-noclip" x="33.79" y="-8164.42" width="297.9" height="32766" filterUnits="userSpaceOnUse" color-interpolation-filters="sRGB"><feFlood flood-color="#fff" result="bg"/><feBlend in="SourceGraphic" in2="bg"/></filter><mask id="mask" x="33.79" y="-8164.42" width="297.9" height="32766" maskUnits="userSpaceOnUse"><g class="cls-19"/></mask><linearGradient id="linear-gradient" x1="95.5" y1="63.25" x2="297.62" y2="332.07" gradientUnits="userSpaceOnUse"><stop offset="0.21" stop-color="#fff"/><stop offset="1"/></linearGradient><filter id="luminosity-noclip-2" x="40.28" y="-8164.42" width="106.78" height="32766" filterUnits="userSpaceOnUse" color-interpolation-filters="sRGB"><feFlood flood-color="#fff" result="bg"/><feBlend in="SourceGraphic" in2="bg"/></filter><mask id="mask-2" x="40.28" y="-8164.42" width="106.78" height="32766" maskUnits="userSpaceOnUse"><g class="cls-18"/></mask><linearGradient id="linear-gradient-2" x1="68.83" y1="104.08" x2="109.3" y2="205.25" gradientUnits="userSpaceOnUse"><stop offset="0.01" stop-color="#fff"/><stop offset="1"/></linearGradient><filter id="luminosity-noclip-3" x="116.77" y="-8164.42" width="45.94" height="32766" filterUnits="userSpaceOnUse" color-interpolation-filters="sRGB"><feFlood flood-color="#fff" result="bg"/><feBlend in="SourceGraphic" in2="bg"/></filter><mask id="mask-3" x="116.77" y="-8164.42" width="45.94" height="32766" maskUnits="userSpaceOnUse"><g class="cls-17"/></mask><linearGradient id="linear-gradient-3" x1="-59.5" y1="275.56" x2="-41.91" y2="319.52" gradientTransform="matrix(1.12, 0, 0, 1, 193.26, -53.69)" xlink:href="#linear-gradient-2"/><linearGradient id="linear-gradient-4" x1="147.64" y1="-52.85" x2="468.98" y2="272.08" gradientUnits="userSpaceOnUse"><stop offset="0" stop-color="#ffd862"/><stop offset="1" stop-color="#b41f42"/></linearGradient><linearGradient id="linear-gradient-5" x1="13.38" y1="36.13" x2="329.95" y2="309.78" gradientUnits="userSpaceOnUse"><stop offset="0.16" stop-color="#ffd845"/><stop offset="0.51" stop-color="#d07036"/><stop offset="1" stop-color="#a30e27"/></linearGradient><linearGradient id="linear-gradient-6" x1="42.45" y1="54.68" x2="278.7" y2="272.52" gradientUnits="userSpaceOnUse"><stop offset="0.07" stop-color="#ffff4c"/><stop offset="0.93" stop-color="#cc4022"/></linearGradient><filter id="luminosity-noclip-4" x="33.79" y="26.71" width="297.9" height="305.46" filterUnits="userSpaceOnUse" color-interpolation-filters="sRGB"><feFlood flood-color="#fff" result="bg"/><feBlend in="SourceGraphic" in2="bg"/></filter><mask id="mask-4" x="33.79" y="26.71" width="297.9" height="305.46" maskUnits="userSpaceOnUse"><g class="cls-1"><path class="cls-2" d="M329.36,204.72h.07A152.27,152.27,0,0,1,318,242.51c-1.46,3.13-3.08,6.26-4.75,9.36v.07a151.25,151.25,0,0,1-33.05,41.8A122.93,122.93,0,0,1,270,302a150.23,150.23,0,0,1-37,20.38,3.52,3.52,0,0,1-.6.2,145.39,145.39,0,0,1-15.36,4.8,153,153,0,0,1-35,4.76c-1,.08-1.94.08-2.89.08a150.54,150.54,0,0,1-38.36-4.92A147.56,147.56,0,0,1,117.24,319c-4.12-2.06-8-4-11.4-5.75-.55-.28-1.07-.52-1.54-.75,0,0-.08-.08-.12-.08-7.6-3.85-12.87-6.55-14-7.14.68.28,2.69,1.07,5.9,2.18,2.73.91,6.34,2.06,10.69,3.21A191.32,191.32,0,0,0,150,316.78c31.79.87,72.49-6,112.67-35.17,18-13.09,32.42-31.77,41.69-53a137.72,137.72,0,0,0,11.32-46.4,127.43,127.43,0,0,0-.12-18.12,114.53,114.53,0,0,0-23.48-61.66,124.62,124.62,0,0,0-32.06-29q-3-2-6.3-3.81a166,166,0,0,0-25.61-11.93,137.25,137.25,0,0,0-20-5.71,135,135,0,0,0-57.57.55c-2.57.6-5.1,1.23-7.64,1.94A178.26,178.26,0,0,0,93.17,77.9a237.36,237.36,0,0,0-30,23.6,274.8,274.8,0,0,0-29.41,31.8A154,154,0,0,1,51.72,95.51c.91-1.43,1.86-2.82,2.85-4.21v-.07c.4-.52.75-1.08,1.15-1.59s.75-1.07,1.15-1.59C57.66,87,58.45,86,59.32,85a132.17,132.17,0,0,1,10.3-11.78C71,71.75,72.35,70.37,73.73,69c2.81-2.74,5.78-5.32,8.75-7.81,1.55-1.31,3-2.42,4.67-3.65,2-1.51,4-3,6-4.36A150.45,150.45,0,0,1,109,43.68c1.07-.56,2.17-1.11,3.28-1.67,3-1.42,6-2.73,9.07-4a122.07,122.07,0,0,1,16.82-5.75c3.61-1,7.21-1.9,11-2.66s7.48-1.35,11.24-1.82a104.85,104.85,0,0,1,10.61-1s-.12,0-.16.08H171c2.65-.08,5.43-.16,8.16-.16a147,147,0,0,1,23.39,1.86.29.29,0,0,1,.24.08l-.24-.24a136.58,136.58,0,0,1,23.08,5.47c2.5.72,4.91,1.63,7.33,2.5,4.63,1.79,9.3,3.77,13.81,5.95v.08a154.07,154.07,0,0,1,37.89,26.77c.87.79,1.66,1.58,2.49,2.42a134.76,134.76,0,0,1,12,13.6,6.67,6.67,0,0,1,1.15,1.43c1.74,2.26,3.36,4.44,4.91,6.86v.07a147.74,147.74,0,0,1,20,42.24,142.86,142.86,0,0,1,5.22,25,128.14,128.14,0,0,1,1.15,18v.08a3.46,3.46,0,0,0,.08.4A144.56,144.56,0,0,1,329.36,204.72Z"/></g></mask><linearGradient id="linear-gradient-7" x1="95.5" y1="63.25" x2="297.62" y2="332.07" gradientUnits="userSpaceOnUse"><stop offset="0.21" stop-color="#ffff4c"/><stop offset="1" stop-color="#f6ff3b"/></linearGradient><filter id="luminosity-noclip-5" x="40.28" y="109.15" width="106.78" height="114.08" filterUnits="userSpaceOnUse" color-interpolation-filters="sRGB"><feFlood flood-color="#fff" result="bg"/><feBlend in="SourceGraphic" in2="bg"/></filter><mask id="mask-5" x="40.28" y="109.15" width="106.78" height="114.08" maskUnits="userSpaceOnUse"><g class="cls-3"><ellipse class="cls-4" cx="93.67" cy="166.19" rx="53.39" ry="57.04"/></g></mask><linearGradient id="linear-gradient-8" x1="68.83" y1="104.08" x2="109.3" y2="205.25" gradientUnits="userSpaceOnUse"><stop offset="0.01" stop-color="#ffff95"/><stop offset="1" stop-color="#f6ff3b"/></linearGradient><filter id="luminosity-noclip-6" x="116.77" y="225.71" width="45.94" height="46.75" filterUnits="userSpaceOnUse" color-interpolation-filters="sRGB"><feFlood flood-color="#fff" result="bg"/><feBlend in="SourceGraphic" in2="bg"/></filter><mask id="mask-6" x="116.77" y="225.71" width="45.94" height="46.75" maskUnits="userSpaceOnUse"><g class="cls-5"><ellipse class="cls-6" cx="139.74" cy="249.08" rx="20.66" ry="25.43" transform="matrix(0.74, -0.68, 0.68, 0.74, -131.69, 160.22)"/></g></mask><linearGradient id="linear-gradient-9" x1="-59.5" y1="275.56" x2="-41.91" y2="319.52" gradientTransform="matrix(1.12, 0, 0, 1, 193.26, -53.69)" gradientUnits="userSpaceOnUse"><stop offset="0.01" stop-color="#ffd166"/><stop offset="1" stop-color="#f6ff3b"/></linearGradient></defs><g id="Layer_2" data-name="Layer 2"><g id="Ñëîé_1" data-name="Ñëîé 1"><ellipse class="cls-7" cx="179.14" cy="179.44" rx="179.14" ry="179.44"/><path class="cls-8" d="M272.78,87.83q10.79-2.82,21.14-5.12a152.9,152.9,0,0,0-13.19-15.12c-.81-.81-1.67-1.59-2.5-2.39-3.91,1-7.75,1.82-11.73,2.87C271.54,73.34,274.07,81,272.78,87.83Z"/><path class="cls-9" d="M331.69,179.34a3.46,3.46,0,0,1-.08-.4v-.08a128.14,128.14,0,0,0-1.15-18,142.86,142.86,0,0,0-5.22-25,147.74,147.74,0,0,0-20-42.24v-.07h-.08c-1.55-2.34-3.17-4.6-4.83-6.75v-.11a6.67,6.67,0,0,0-1.15-1.43,134.76,134.76,0,0,0-12-13.6c-.83-.84-1.62-1.63-2.49-2.42a154.07,154.07,0,0,0-37.89-26.77h-.08c-4.43-2.18-9.1-4.16-13.73-5.95-2.42-.87-4.91-1.78-7.33-2.58a141.41,141.41,0,0,0-22.84-5.23.29.29,0,0,0-.24-.08,147,147,0,0,0-23.39-1.86c-2.73,0-5.51.08-8.16.16h-.16c-3.52.15-7,.59-10.45,1-3.76.47-7.56,1-11.24,1.74s-7.4,1.63-11,2.66A122.07,122.07,0,0,0,121.32,38c-3,1.27-6.1,2.58-9.07,4-1.11.56-2.21,1.11-3.28,1.67a150.45,150.45,0,0,0-15.8,9.52c-2.06,1.38-4,2.85-6,4.36-1.62,1.23-3.12,2.34-4.67,3.65-3,2.49-5.94,5.15-8.75,7.81-1.38,1.35-2.73,2.73-4.11,4.16A132.17,132.17,0,0,0,59.32,85c-.87,1-1.66,2-2.45,3.09-.4.52-.75,1-1.15,1.59s-.75,1.07-1.15,1.59v.07c-1,1.39-1.94,2.78-2.85,4.21A154,154,0,0,0,33.79,133.3c-.2.51-.36,1.07-.52,1.58-.47,1.63-1,3.41-1.46,5.08V140a150.71,150.71,0,0,0-5.15,39.22v.43c0,.88,0,1.75.08,2.66v.08a172.2,172.2,0,0,0,1.63,20.38c.07.24.15.48.23.72.56,3.53,1.23,7,2.1,10.47a139.15,139.15,0,0,0,11.72,32.87c1.7,3.61,3.64,7.06,5.66,10.47v.08A145.66,145.66,0,0,0,67.91,284c1.15,1.15,2.18,2.1,3.25,3.13,1.58,1.7,3.29,3.33,5,4.84A131.84,131.84,0,0,0,87,301.08l1.9,1.42c.59.48,1.18,1,1.82,1.39h.08c1.3.87,2.57,1.79,3.88,2.58.47.36,1,.67,1.42,1,.71.48,1.47,1,2.18,1.43,1.9,1.19,3.92,2.42,5.94,3.53,0,0,.08,0,.12.08.51.27,1,.55,1.5.83,3.72,2.06,7.56,4,11.44,5.67a147.56,147.56,0,0,0,23.56,8.25,150.54,150.54,0,0,0,38.36,4.92c1,0,1.9,0,2.89-.08a153,153,0,0,0,35-4.76,145.39,145.39,0,0,0,15.36-4.8,3.52,3.52,0,0,0,.6-.2A150.23,150.23,0,0,0,270,302a122.93,122.93,0,0,0,10.14-8.21,151.25,151.25,0,0,0,33.05-41.8v-.07c1.67-3.1,3.29-6.23,4.75-9.36a152.27,152.27,0,0,0,11.48-37.79h-.07A144.56,144.56,0,0,0,331.69,179.34Zm-.71-.08a.29.29,0,0,0,.24-.08c-.4.28-.76.51-1.07.75a8.07,8.07,0,0,1,.75-.59Z"/><path class="cls-10" d="M330.46,160.82c-3.28,2.73-7,4.6-10.61,4.36a13.64,13.64,0,0,1-4.31-1.07c-11.36-4.72-18.21-23.71-21.73-33.47-3.05-8.64-4.91-18.64-2.42-27.16a6.85,6.85,0,0,0,.67-1,3.33,3.33,0,0,0,.56-1.55,25.34,25.34,0,0,1,12.55-7.41h.08c-1.55-2.42-3.17-4.6-4.91-6.86a6.67,6.67,0,0,0-1.15-1.43,51,51,0,0,1-7.88,5.55,16,16,0,0,1-3.05,1.62c-5.38-2.49-13.5-11.14-16.07-13.12-6.53-5.31-11.6-12.1-17.06-18.64-3.13-3.69-6.42-7.57-7.8-12.29a14.8,14.8,0,0,1-.56-5.91v-.08c-4.51-2.18-9.18-4.16-13.81-5.95-2.42-.87-4.83-1.78-7.33-2.5a136.58,136.58,0,0,0-23.08-5.47l.24.24c6,4.52,11.88,10.07,10.45,15.39a18.76,18.76,0,0,1-5.14,8c-3,3-6.81,5.63-9.66,8-6.73,5.31-15.05,9.36-23.72,9.51-10.49.32-19.24-8-24.19-16.93a4.66,4.66,0,0,1-.27-.47c-1.9-3.61-2.06-6.94.75-10.08a64.41,64.41,0,0,1,19.83-15.14s.12,0,.16-.08a104.85,104.85,0,0,0-10.61,1c-3.76.47-7.56,1-11.24,1.82s-7.4,1.63-11,2.66A122.07,122.07,0,0,0,121.32,38c-3,1.27-6.1,2.58-9.07,4-1.11.56-2.21,1.11-3.28,1.67a150.45,150.45,0,0,0-15.8,9.52c-2.06,1.38-4,2.85-6,4.36-1.62,1.23-3.12,2.34-4.67,3.65-3,2.49-5.94,5.07-8.75,7.81-1.38,1.35-2.73,2.73-4.11,4.16A132.17,132.17,0,0,0,59.32,85c-.87,1-1.66,2-2.45,3.09-.4.52-.75,1-1.15,1.59S55,90.71,54.57,91.3a81.32,81.32,0,0,1,6.61,7.42c.72.91,1.39,1.82,2,2.78a55.81,55.81,0,0,1,7.72,16.41A53.09,53.09,0,0,1,73.06,129a31.29,31.29,0,0,1-1.35,14c-2.89,7.42-9.5,12.57-16,17.09-4.27,3-9.9,5.87-14.33,3.3-3.29-2-4.36-6.11-5.31-9.84A85.51,85.51,0,0,0,31.81,140a150.71,150.71,0,0,0-5.15,39.22v.43c0,.88,0,1.75.08,2.66A36.57,36.57,0,0,1,42,191a107.52,107.52,0,0,1,6.22,17.8c3.68,13.76,9.54,29.7-5.82,38.11,1.7,3.61,3.64,7.06,5.66,10.47A20.7,20.7,0,0,1,51,247.9c.08-.16.24-.4.32-.56,2.33-3.64,6.65-9.83,10.61-10.78,4.91-1.31,9.34,2.66,12.55,6.5,6.33,7.66,14.13,16.85,15.83,27C91.75,279,84.18,286.8,76.15,292A131.84,131.84,0,0,0,87,301.08l1.9,1.42c.63.48,1.26.92,1.9,1.39,1.3.87,2.57,1.79,3.88,2.58.47.36,1,.67,1.42,1,.71.48,1.47,1,2.18,1.43,1.9,1.19,3.92,2.42,5.94,3.53,0,0,.08,0,.12.08.51.27,1,.55,1.5.83,0,0,0,0,0-.08a20.28,20.28,0,0,1,.91-2.58,22.39,22.39,0,0,1,4.67-7A20.73,20.73,0,0,1,123.1,298c4.83-.75,6.57.64,10.29,3.22,6.38,4.52,12.67,8.84,16.59,15.54a27.68,27.68,0,0,1,1.9,3.77,4.77,4.77,0,0,1,.4,2.89c-.48,1.94-2.73,2.58-4.67,2.94a67.09,67.09,0,0,1-6.73.71A149.45,149.45,0,0,0,179.16,332h2.89c-1-1.71-2.66-3.06-2.73-4.92,0-2.42,2.49-3.89,4.67-4.68a38,38,0,0,1,33.09,4.76,135.85,135.85,0,0,0,15.64-4.84l.4-.16a.24.24,0,0,1,0-.16c-3.25-8.64,1.34-19.7,9.81-24a23.82,23.82,0,0,1,17-1.35,27.2,27.2,0,0,1,4.19,1.51c.64.32,3.13,1.83,5.94,3.69,3.45-2.58,6.93-5.31,10.22-8.29-1.11-1.62-2.1-3.29-3.13-4.92a16.08,16.08,0,0,1-2.5-5.71,10.39,10.39,0,0,1,1.19-6,30.06,30.06,0,0,1,3.64-5.28c3.69-4.48,7.64-8.76,11.72-12.88,4.75-4.84,10.69-9.56,17.38-8.69a9.74,9.74,0,0,1,4.67,1.79c1.67-3.1,3.29-6.23,4.75-9.36-4.35-2.74-9.1-4.92-11.91-9a12.09,12.09,0,0,1-1.7-4.84c-.76-4.44-.6-10.59-.56-17v-.2c.44-3.89,1-7.74,1.51-11.58a37.21,37.21,0,0,1,1.14-5.95A20,20,0,0,1,311,186a18.71,18.71,0,0,1,2.05-1.94,25.9,25.9,0,0,1,2.58-1.83,17.76,17.76,0,0,1,2.57-1.23c2.1-.79,4.47-.59,6.65-.79,1.31-.08,4.95,0,6-.87l.08-.08a2.76,2.76,0,0,1,.63-.4A128.14,128.14,0,0,0,330.46,160.82Zm-30.08,46.35c.47,2.19.91,4.45,1.26,6.71V214c0,2.49-.12,5-.31,7.41-.6,7-2,13.32-3.88,17.37a39.23,39.23,0,0,1-3.49,5.67,103.34,103.34,0,0,1-9.62,10.83c-5.9,5.86-11.6,11.77-17.46,17.72-2.17,2.18-5.89,4.52-7.95,2.1-1-1.15-1-2.73-1-4.28.59-9.68,1.3-19.35,2.25-29.07.56-6.86,1.31-13.8,2.1-20.62a15.12,15.12,0,0,1,.64-3.72,6.29,6.29,0,0,1,.91-2.11,13.57,13.57,0,0,1,4.07-3.84c7-4.84,15-10.55,23.64-11.18a7.41,7.41,0,0,1,3.64.31A8.78,8.78,0,0,1,300.38,207.17Zm-196.2-64.51c-3.41-.16-5.62-1.67-8.67-2.82-2.77-1.07-5.9-1.19-8.75-2.34-5.15-2-6.42-9.36-6.57-16-.08-3.17.08-6.19.23-8.33.56-9.63,3-17.25,13.82-14.59,7.6,1.9,22.21,3.41,27.67,9.4a10.49,10.49,0,0,1,1.59,2.18c3.68,6.34,1.42,15.5-1.59,21.41C118.43,138.65,112.25,143,104.18,142.66Zm17.1,46.51a26.63,26.63,0,0,1-1.86,7.58,28.54,28.54,0,0,0-5.11.91c-2.85.79-5.86,1.7-8.75,1a13.26,13.26,0,0,1-5.07-3.29c-4.39-4.21-7.83-9.4-11.16-14.56-3.48-5.47-15.72-18.51-10.61-25.65a15.1,15.1,0,0,1,4.71-3.57c5.47-3,8.51-5.2,14.93-2.42C111.94,155.19,122.62,174.42,121.28,189.17Zm4.35-53.45c.76-4.36,1.9-10,5.47-13.13,5.62-4.92,12.15,2.66,16.86,6.23a33.63,33.63,0,0,1,8,7.53c3.56,5.08,3.44,11.14,2.06,16.85-1.82,7.9-3.68,15.83-5.55,23.72-1,4.28-2.05,8.76-4.75,12.25A11.34,11.34,0,0,1,146,190.6a25.76,25.76,0,0,1-6.73-.71c-11.56-2.9-13.66-14.6-14.53-24.95C124.05,155.31,123.85,145.27,125.63,135.72Zm6,70c4-6.11,13.18-7.26,20.07-6.74,8.2.55,13.46,6.74,16.23,14.31,2.5,6.54,3.05,13.6,4.56,20.38.63,3.3,1.58,6.43,2.49,9.56-7.32,4.36-15.44,7.53-23.75,6.62-10.49-1.19-16.75-9-17.54-18.79C133,222.56,126.35,214.07,131.65,205.71Zm39.67,3.57c-1.15-4.13-2.14-8.33-3.09-12.46-2-8.72-3.92-17.48-4.12-26.37a34,34,0,0,1,8.75-11.26c7.29-6,16.39-9.28,25.5-11.5,5.38-1.27,11-2.26,16.43-1.54,10.72,1.27,15.71,7.77,17.14,18,1.66,12,5.14,34-6.1,42.39-3.56,2.58-7.76,4.08-11.91,5.43-6.73,2.26-13.5,4.56-20.47,5.48a26.55,26.55,0,0,1-10-.12C178.64,216.14,174.64,213,171.32,209.28Zm28.11,17.21c9.54-6.78,38.83-18.13,47.46-5.16a22,22,0,0,1,1.63,3c2.69,6.31,2.65,14.28,1.62,22.13-.75,6.11-2.06,12.18-2.89,17A116.33,116.33,0,0,1,244.87,277c-1,3.76-2.49,7.57-5.1,10.46-5.07,5.64-13.19,7.14-20.71,7.58-6.61.44-11.4-1.94-15.24-7.42-3.64-5.15-5.82-11.18-8-17.13a6.48,6.48,0,0,1-.23-.63c-2-5.2-3.88-10.47-5.82-15.67a19,19,0,0,1-1.07-3.92C186.6,240.56,190.8,232.59,199.43,226.49Zm93.62-62.7c1.07,4.92,1.94,10.19.08,14.91-2.93,7.42-11.24,11.19-17.34,15.47-6.33,4.44-14.41,8.68-21.14,2.34a20.25,20.25,0,0,1-4.08-5.67c-8.59-16.7-15.63-46.83-.27-61.23a44.86,44.86,0,0,1,11.4-8.13,34.38,34.38,0,0,1,7.32-2.3,36.3,36.3,0,0,1,13,12.06C288.3,140.87,290.72,152.61,293.05,163.79ZM206.83,75.56c1.23-4.76,5.34-8.41,10.73-12a49.14,49.14,0,0,1,10.53-5.87,19.29,19.29,0,0,1,7.48-1.39c5.7.12,11,3.17,15.36,6.9A49.66,49.66,0,0,1,260,73.46a51.88,51.88,0,0,1,8.23,20.14,33.55,33.55,0,0,1,.52,7.42c0,.55-.08,1.11-.16,1.63a49.29,49.29,0,0,1-6.85,6.54c-4.83,3.92-10.1,7.73-16.15,9.44-10.38,2.85-18.41-2.22-24.47-10.35a107.55,107.55,0,0,1-13.18-23A15.08,15.08,0,0,1,206.83,75.56Zm-38.08,9.68c8.74-7.26,19-10.23,29.33,1,7.68,8.33,17.22,21.65,16.71,33.78-.36,7.46-8,15.11-14.45,18.17-5.11,2.41-10.73,3.37-16.31,4.2-4.56.63-9.66,1.07-13.31-1.71-3.24-2.49-4.31-6.86-5.74-10.7a41.15,41.15,0,0,0-5.22-9.32c-2.5-3.41-5.54-6.58-7-10.55C149.74,101.42,162.77,90.23,168.75,85.24ZM91.11,73.94c-.51-2.42.36-4.92,1.35-7.14a58.66,58.66,0,0,1,14.65-20.27c4.07-3.56,9.38-6.1,14.8-5.82,8,.51,14.37,6.78,19.88,12.61.35.39.75.79,1.1,1.18,8.59,9,18.14,17.89,8.83,30.38-3.32,4.6-8.47,12.21-14.21,13.72-6.77,1.82-14.89-3.49-20.23-6.5-6.61-3.69-13.74-6.51-20.07-10.75a20.94,20.94,0,0,1-4-3.45A8.19,8.19,0,0,1,91.11,73.94ZM68.75,226.41c-5.27.12-8.83-6.35-10.73-10.35-4.44-9.48-10.61-22.45-10.89-34.22,1.19-3.57,3.33-5.91,6-8.77,5-5.47,11.8-14.83,19-6.34,7.52,8.84,14.29,19.19,16.35,30.73.71,4.12.71,8.6-1.35,12.33C83.71,215.62,76.39,226.13,68.75,226.41ZM84.86,238.5a20.52,20.52,0,0,1-1.59-7.77c.16-4.48,3-5.67,5.78-8.25,6.26-5.87,12.59-13.56,21.1-13.28,14.41.43,24.15,25.53,14.34,35.81a31.6,31.6,0,0,1-4.12,3.33c-5.78,3.84-12.31,8-19.08,10.78C92.89,256.19,87.91,247.15,84.86,238.5Zm41.84,50a33.65,33.65,0,0,0-13,1.62,3.72,3.72,0,0,0-.48-.43A75.46,75.46,0,0,1,102,278.12c-10.73-13.88,6.17-20.62,17.77-22.41a83.53,83.53,0,0,1,33.46,1.63c3.2.87,6.33,2,9.46,2.81,1.54.32,3,.64,4.43.88a24.85,24.85,0,0,0,4.12.31,65.53,65.53,0,0,1,14.61,38.19c.08,2.18,0,4.52-1.11,6.38-1.7,2.58-4.83,3.37-7.8,4.09-5,1.15-10.13,2.34-15.12,1.31C146.89,308.06,142.38,289.77,126.7,288.51Z"/><g class="cls-11"><path class="cls-12" d="M329.36,204.72h.07A152.27,152.27,0,0,1,318,242.51c-1.46,3.13-3.08,6.26-4.75,9.36v.07a151.25,151.25,0,0,1-33.05,41.8A122.93,122.93,0,0,1,270,302a150.23,150.23,0,0,1-37,20.38,3.52,3.52,0,0,1-.6.2,145.39,145.39,0,0,1-15.36,4.8,153,153,0,0,1-35,4.76c-1,.08-1.94.08-2.89.08a150.54,150.54,0,0,1-38.36-4.92A147.56,147.56,0,0,1,117.24,319c-4.12-2.06-8-4-11.4-5.75-.55-.28-1.07-.52-1.54-.75,0,0-.08-.08-.12-.08-7.6-3.85-12.87-6.55-14-7.14.68.28,2.69,1.07,5.9,2.18,2.73.91,6.34,2.06,10.69,3.21A191.32,191.32,0,0,0,150,316.78c31.79.87,72.49-6,112.67-35.17,18-13.09,32.42-31.77,41.69-53a137.72,137.72,0,0,0,11.32-46.4,127.43,127.43,0,0,0-.12-18.12,114.53,114.53,0,0,0-23.48-61.66,124.62,124.62,0,0,0-32.06-29q-3-2-6.3-3.81a166,166,0,0,0-25.61-11.93,137.25,137.25,0,0,0-20-5.71,135,135,0,0,0-57.57.55c-2.57.6-5.1,1.23-7.64,1.94A178.26,178.26,0,0,0,93.17,77.9a237.36,237.36,0,0,0-30,23.6,274.8,274.8,0,0,0-29.41,31.8A154,154,0,0,1,51.72,95.51c.91-1.43,1.86-2.82,2.85-4.21v-.07c.4-.52.75-1.08,1.15-1.59s.75-1.07,1.15-1.59C57.66,87,58.45,86,59.32,85a132.17,132.17,0,0,1,10.3-11.78C71,71.75,72.35,70.37,73.73,69c2.81-2.74,5.78-5.32,8.75-7.81,1.55-1.31,3-2.42,4.67-3.65,2-1.51,4-3,6-4.36A150.45,150.45,0,0,1,109,43.68c1.07-.56,2.17-1.11,3.28-1.67,3-1.42,6-2.73,9.07-4a122.07,122.07,0,0,1,16.82-5.75c3.61-1,7.21-1.9,11-2.66s7.48-1.35,11.24-1.82a104.85,104.85,0,0,1,10.61-1s-.12,0-.16.08H171c2.65-.08,5.43-.16,8.16-.16a147,147,0,0,1,23.39,1.86.29.29,0,0,1,.24.08l-.24-.24a136.58,136.58,0,0,1,23.08,5.47c2.5.72,4.91,1.63,7.33,2.5,4.63,1.79,9.3,3.77,13.81,5.95v.08a154.07,154.07,0,0,1,37.89,26.77c.87.79,1.66,1.58,2.49,2.42a134.76,134.76,0,0,1,12,13.6,6.67,6.67,0,0,1,1.15,1.43c1.74,2.26,3.36,4.44,4.91,6.86v.07a147.74,147.74,0,0,1,20,42.24,142.86,142.86,0,0,1,5.22,25,128.14,128.14,0,0,1,1.15,18v.08a3.46,3.46,0,0,0,.08.4A144.56,144.56,0,0,1,329.36,204.72Z"/></g><g class="cls-13"><ellipse class="cls-14" cx="93.67" cy="166.19" rx="53.39" ry="57.04"/></g><g class="cls-15"><ellipse class="cls-16" cx="139.74" cy="249.08" rx="20.66" ry="25.43" transform="matrix(0.74, -0.68, 0.68, 0.74, -131.69, 160.22)"/></g></g></g></svg>