<svg xmlns="http://www.w3.org/2000/svg" xmlns:xlink="http://www.w3.org/1999/xlink" viewBox="0 0 377.02 350.38"><defs><style>.cls-1{mask:url(#mask);filter:url(#luminosity-noclip-3);}.cls-2,.cls-4{mix-blend-mode:multiply;}.cls-2{fill:url(#linear-gradient);}.cls-3{mask:url(#mask-2);filter:url(#luminosity-noclip-4);}.cls-4{fill:url(#linear-gradient-2);}.cls-5{fill:#db007f;opacity:0.16;}.cls-6{fill:url(#linear-gradient-3);}.cls-7,.cls-8,.cls-9{opacity:0.81;}.cls-7{fill:url(#linear-gradient-4);}.cls-8{fill:url(#linear-gradient-5);}.cls-9{fill:url(#linear-gradient-6);}.cls-10{fill:url(#linear-gradient-7);}.cls-11{mask:url(#mask-3);}.cls-12{opacity:0.35;fill:url(#linear-gradient-8);}.cls-13{mask:url(#mask-4);}.cls-14{opacity:0.5;fill:url(#linear-gradient-9);}.cls-15{filter:url(#luminosity-noclip-2);}.cls-16{filter:url(#luminosity-noclip);}</style><filter id="luminosity-noclip" x="52.22" y="-8584.56" width="264.73" height="32766" filterUnits="userSpaceOnUse" color-interpolation-filters="sRGB"><feFlood flood-color="#fff" result="bg"/><feBlend in="SourceGraphic" in2="bg"/></filter><mask id="mask" x="52.22" y="-8584.56" width="264.73" height="32766" maskUnits="userSpaceOnUse"><g class="cls-16"/></mask><linearGradient id="linear-gradient" x1="52.22" y1="229.38" x2="316.95" y2="229.38" gradientUnits="userSpaceOnUse"><stop offset="0" stop-color="#666"/><stop offset="1" stop-color="#fff"/></linearGradient><filter id="luminosity-noclip-2" x="177.89" y="-8584.56" width="103.92" height="32766" filterUnits="userSpaceOnUse" color-interpolation-filters="sRGB"><feFlood flood-color="#fff" result="bg"/><feBlend in="SourceGraphic" in2="bg"/></filter><mask id="mask-2" x="177.89" y="-8584.56" width="103.92" height="32766" maskUnits="userSpaceOnUse"><g class="cls-15"/></mask><linearGradient id="linear-gradient-2" x1="1786.83" y1="279.85" x2="1891.87" y2="279.85" gradientTransform="matrix(0, -1, 1.17, 0, -90.4, 1930.73)" gradientUnits="userSpaceOnUse"><stop offset="0"/><stop offset="1" stop-color="#fff"/></linearGradient><linearGradient id="linear-gradient-3" x1="300.73" y1="48.68" x2="95.52" y2="311.89" gradientUnits="userSpaceOnUse"><stop offset="0" stop-color="#ee224f"/><stop offset="1" stop-color="#520c97"/></linearGradient><linearGradient id="linear-gradient-4" x1="262.19" y1="3.35" x2="36.42" y2="212.39" gradientUnits="userSpaceOnUse"><stop offset="0" stop-color="#cf2259"/><stop offset="1" stop-color="#4d0c5e"/></linearGradient><linearGradient id="linear-gradient-5" x1="352.37" y1="97.07" x2="42.9" y2="266.9" gradientUnits="userSpaceOnUse"><stop offset="0" stop-color="#bd0b63"/><stop offset="1" stop-color="#3b0c54"/></linearGradient><linearGradient id="linear-gradient-6" x1="341.22" y1="225.8" x2="133.83" y2="339.61" gradientUnits="userSpaceOnUse"><stop offset="0" stop-color="#a40b72"/><stop offset="1" stop-color="#340c4f"/></linearGradient><linearGradient id="linear-gradient-7" x1="298.71" y1="-413.62" x2="238.3" y2="-380.46" gradientTransform="matrix(0.92, -0.39, 0.39, 0.92, -63.01, 513.69)" gradientUnits="userSpaceOnUse"><stop offset="0" stop-color="#e02263"/><stop offset="1" stop-color="#4d0c88"/></linearGradient><filter id="luminosity-noclip-3" x="52.22" y="133.45" width="264.73" height="191.85" filterUnits="userSpaceOnUse" color-interpolation-filters="sRGB"><feFlood flood-color="#fff" result="bg"/><feBlend in="SourceGraphic" in2="bg"/></filter><mask id="mask-3" x="52.22" y="133.45" width="264.73" height="191.85" maskUnits="userSpaceOnUse"><g class="cls-1"><path class="cls-2" d="M317,271.57A148,148,0,0,1,300,288.78h-.08a148.59,148.59,0,0,1-97.82,36.52,155.81,155.81,0,0,1-22.45-1.7A149.16,149.16,0,0,1,79.9,262a149,149,0,0,1-27.68-86.8,140,140,0,0,1,1.27-19.27,141.48,141.48,0,0,1,4.63-22.49c.4,6.82,1.31,13.68,2.1,20,3.21,25.3,10.65,50.28,24.19,72,23.55,37.75,68.76,64.12,112.39,55.6,15.64-3.06,30.13-10.19,45.25-15.19a170,170,0,0,1,31.08-7.14c14.25-1.9,30.44-1.31,40.65,8.88A22.39,22.39,0,0,1,317,271.57Z"/></g></mask><linearGradient id="linear-gradient-8" x1="52.22" y1="229.38" x2="316.95" y2="229.38" gradientUnits="userSpaceOnUse"><stop offset="0" stop-color="#aa107c"/><stop offset="1" stop-color="#ff1c54"/></linearGradient><filter id="luminosity-noclip-4" x="177.89" y="42.75" width="103.92" height="94.6" filterUnits="userSpaceOnUse" color-interpolation-filters="sRGB"><feFlood flood-color="#fff" result="bg"/><feBlend in="SourceGraphic" in2="bg"/></filter><mask id="mask-4" x="177.89" y="42.75" width="103.92" height="94.6" maskUnits="userSpaceOnUse"><g class="cls-3"><ellipse class="cls-4" cx="229.85" cy="90.04" rx="46.65" ry="52.52" transform="translate(70.85 278.88) rotate(-71.29)"/></g></mask><linearGradient id="linear-gradient-9" x1="1786.83" y1="279.85" x2="1891.87" y2="279.85" gradientTransform="matrix(0, -1, 1.17, 0, -90.4, 1930.73)" gradientUnits="userSpaceOnUse"><stop offset="0" stop-color="#aa107c"/><stop offset="1" stop-color="#ffab9a"/></linearGradient></defs><g id="Layer_2" data-name="Layer 2"><g id="Ñëîé_1" data-name="Ñëîé 1"><ellipse class="cls-5" cx="202.12" cy="175.19" rx="174.9" ry="175.19"/><path class="cls-6" d="M352,175.21a150.37,150.37,0,0,1-52,113.57h-.08a148.59,148.59,0,0,1-97.82,36.52,155.81,155.81,0,0,1-22.45-1.7A149.16,149.16,0,0,1,79.9,262a149,149,0,0,1-27.68-86.8,140,140,0,0,1,1.27-19.27,141.48,141.48,0,0,1,4.63-22.49s0-.12,0-.15a150.81,150.81,0,0,1,67.42-87.13,144.08,144.08,0,0,1,28.78-13.28,150.23,150.23,0,0,1,92.56-1A150.72,150.72,0,0,1,297.2,59.14c2.85,2.34,5.62,4.84,8.27,7.46A150.13,150.13,0,0,1,352,175.21Z"/><path class="cls-7" d="M297.19,59.15c-7.22-.53-14.45-.87-21.67-1.07-10.43-.2-22.26.54-29.08,8.44C240,74,240.29,84.8,239.89,94.65s-2.81,21.29-11.77,25.44c-7.42,3.49-16.31.2-23.26-4.15-15.18-9.37-23.14-15.4-34.1,2.61-6.35,10.52-11.5,21.77-18.25,32.08s-15.45,19.76-26.68,24.65-25.4,4.55-34.76-3.42c-7.36-6.23-10.83-16.07-11.23-25.72s1.87-19.08,4.34-28.39c1.54-5.76,3-12.52-.67-17.14-2.14-2.75-5.28-3.89-8.89-4.29a149.11,149.11,0,0,1,50.95-50.16,97.12,97.12,0,0,0-7,38.51c.2,7.43,1.33,15.13,5.41,21.36s11.57,10.58,18.85,9.11c9.63-2,14.58-12.52,17.39-22S166,73,174.64,68.39a9.78,9.78,0,0,1,6.22-1.27c3.14.54,5.34,3.15,7.68,5.29,7.36,6.7,24.41,10.25,26.81-3,.67-3.75.27-7.64,1.14-11.32a16.67,16.67,0,0,1,11.57-11.92c3.27-.87,6.82-.67,10.16-1.27s6.95-2.14,8.36-5.29a10.93,10.93,0,0,0,.6-5.49c-.07-.74-.2-1.48-.27-2.21A150.18,150.18,0,0,1,297.19,59.15Z"/><path class="cls-8" d="M346.73,135.7a15.91,15.91,0,0,1-3,0c-6.15-.61-11-5.16-16.38-8.31-19-11-19.32,11.72-18.12,27.66.33,4.29.74,8,1,10.58a120.73,120.73,0,0,1-6,50c-3.27,9.71-9,20-18.78,22.84-8.56,2.41-17.72-1.61-24.61-7.24-14.51-11.72-24.53-31.07-42.85-34.42a29,29,0,0,0-29.29,13.06c-4.14,6.76-5.28,14.87-7.88,22.37s-7.36,15.2-15.05,17.08c-10,2.47-19.25-5.7-26.61-12.86s-17.58-14.74-27.14-10.78c-4.48,1.87-7.62,6-10.56,9.84-5.28,7-10.63,14.06-16,21.09A19.75,19.75,0,0,1,79.9,262a149.08,149.08,0,0,1-27.68-86.79,140.89,140.89,0,0,1,1.27-19.29,184.55,184.55,0,0,0,15.31,36.3c3.35,6,7.22,12,13.17,15.27s12.91,3.41,19.59,3.21c16-.47,29.75-5.22,44.8-10.31,14.37-4.89,21.12-12,30.15-24.38,6.89-9.37,16.71-18.95,28.28-17.54,11.23,1.4,18.52,12.52,28.68,17.41,13.77,6.63,27.28-.2,36-11.39,15.44-19.89,10.83-46.2,20.12-68.84,3.08-7.5,8.29-21.63,15.85-29.06A148.46,148.46,0,0,1,346.73,135.7Z"/><path class="cls-9" d="M335.83,242.91A148.19,148.19,0,0,1,300,288.79h-.06a148.17,148.17,0,0,1-24.67,17.41l-1.54-.4c-15-4.22-30.82-20.16-47.54-13.46-11.9,4.68-14.3,20.76-27.34,24.24-3.34.94-6.82.8-10.16,1.61a18.48,18.48,0,0,0-9,5.42,148.53,148.53,0,0,1-33.89-9.31,16.47,16.47,0,0,1,2.8-5.36c9-11.11,28.15-6.09,39.11-15.26s8-26.52,17.39-36.3c17.91-18.69,46.13,15.4,62.17,21.83A34,34,0,0,0,279.47,282c10.43-.13,19-8.1,25.54-16.2s12.77-17.21,22.33-21.37A17.79,17.79,0,0,1,335.83,242.91Z"/><ellipse class="cls-10" cx="29.25" cy="42.06" rx="29.24" ry="29.29" transform="translate(-0.07 0.05) rotate(-0.1)"/><g class="cls-11"><path class="cls-12" d="M317,271.57A148,148,0,0,1,300,288.78h-.08a148.59,148.59,0,0,1-97.82,36.52,155.81,155.81,0,0,1-22.45-1.7A149.16,149.16,0,0,1,79.9,262a149,149,0,0,1-27.68-86.8,140,140,0,0,1,1.27-19.27,141.48,141.48,0,0,1,4.63-22.49c.4,6.82,1.31,13.68,2.1,20,3.21,25.3,10.65,50.28,24.19,72,23.55,37.75,68.76,64.12,112.39,55.6,15.64-3.06,30.13-10.19,45.25-15.19a170,170,0,0,1,31.08-7.14c14.25-1.9,30.44-1.31,40.65,8.88A22.39,22.39,0,0,1,317,271.57Z"/></g><g class="cls-13"><ellipse class="cls-14" cx="229.85" cy="90.04" rx="46.65" ry="52.52" transform="translate(70.85 278.88) rotate(-71.29)"/></g></g></g></svg>