<svg xmlns="http://www.w3.org/2000/svg" xmlns:xlink="http://www.w3.org/1999/xlink" viewBox="0 0 395.53 396.19"><defs><style>.cls-1{mask:url(#mask);filter:url(#luminosity-noclip-4);}.cls-2,.cls-4,.cls-6{mix-blend-mode:multiply;}.cls-2{fill:url(#linear-gradient);}.cls-3{mask:url(#mask-2);filter:url(#luminosity-noclip-5);}.cls-4{fill:url(#linear-gradient-2);}.cls-5{mask:url(#mask-3);filter:url(#luminosity-noclip-6);}.cls-6{fill:url(#linear-gradient-3);}.cls-7{fill:#fde03d;opacity:0.18;}.cls-8{fill:url(#linear-gradient-4);}.cls-9{mask:url(#mask-4);}.cls-10{opacity:0.6;fill:url(#linear-gradient-5);}.cls-11{mask:url(#mask-5);}.cls-12{fill:url(#linear-gradient-6);}.cls-13{fill:#fffc83;}.cls-14{mask:url(#mask-6);}.cls-15{fill:url(#linear-gradient-7);}.cls-16{filter:url(#luminosity-noclip-3);}.cls-17{filter:url(#luminosity-noclip-2);}.cls-18{filter:url(#luminosity-noclip);}</style><filter id="luminosity-noclip" x="51.41" y="-8189.54" width="274.29" height="32766" filterUnits="userSpaceOnUse" color-interpolation-filters="sRGB"><feFlood flood-color="#fff" result="bg"/><feBlend in="SourceGraphic" in2="bg"/></filter><mask id="mask" x="51.41" y="-8189.54" width="274.29" height="32766" maskUnits="userSpaceOnUse"><g class="cls-18"/></mask><linearGradient id="linear-gradient" x1="51.41" y1="240.26" x2="325.69" y2="240.26" gradientUnits="userSpaceOnUse"><stop offset="0" stop-color="#fff"/><stop offset="1"/></linearGradient><filter id="luminosity-noclip-2" x="110.08" y="-8189.54" width="234.05" height="32766" filterUnits="userSpaceOnUse" color-interpolation-filters="sRGB"><feFlood flood-color="#fff" result="bg"/><feBlend in="SourceGraphic" in2="bg"/></filter><mask id="mask-2" x="110.08" y="-8189.54" width="234.05" height="32766" maskUnits="userSpaceOnUse"><g class="cls-17"/></mask><linearGradient id="linear-gradient-2" x1="130.58" y1="51.8" x2="370.86" y2="220.06" xlink:href="#linear-gradient"/><filter id="luminosity-noclip-3" x="90.97" y="-8189.54" width="70.99" height="32766" filterUnits="userSpaceOnUse" color-interpolation-filters="sRGB"><feFlood flood-color="#fff" result="bg"/><feBlend in="SourceGraphic" in2="bg"/></filter><mask id="mask-3" x="90.97" y="-8189.54" width="70.99" height="32766" maskUnits="userSpaceOnUse"><g class="cls-16"/></mask><linearGradient id="linear-gradient-3" x1="97.19" y1="183.18" x2="157.67" y2="225.53" xlink:href="#linear-gradient"/><linearGradient id="linear-gradient-4" x1="89.24" y1="57.56" x2="339.13" y2="381.13" gradientUnits="userSpaceOnUse"><stop offset="0" stop-color="#ffff4c"/><stop offset="1" stop-color="#c84245"/></linearGradient><filter id="luminosity-noclip-4" x="51.41" y="135.8" width="274.29" height="208.91" filterUnits="userSpaceOnUse" color-interpolation-filters="sRGB"><feFlood flood-color="#fff" result="bg"/><feBlend in="SourceGraphic" in2="bg"/></filter><mask id="mask-4" x="51.41" y="135.8" width="274.29" height="208.91" maskUnits="userSpaceOnUse"><g class="cls-1"><path class="cls-2" d="M325.69,269.32a146.17,146.17,0,0,1-109.62,74.23c-80.16,10.11-153.4-46.79-163.5-127.09A146,146,0,0,1,65.28,135.8a189.65,189.65,0,0,0,5.54,84.9c9.11,30.14,32.07,62.93,60.42,76.61C215.36,338,282.27,305.64,325.69,269.32Z"/></g></mask><linearGradient id="linear-gradient-5" x1="51.41" y1="240.26" x2="325.69" y2="240.26" gradientUnits="userSpaceOnUse"><stop offset="0" stop-color="#ffff95"/><stop offset="1" stop-color="#fccb3f"/></linearGradient><filter id="luminosity-noclip-5" x="110.08" y="51.47" width="234.05" height="208.6" filterUnits="userSpaceOnUse" color-interpolation-filters="sRGB"><feFlood flood-color="#fff" result="bg"/><feBlend in="SourceGraphic" in2="bg"/></filter><mask id="mask-5" x="110.08" y="51.47" width="234.05" height="208.6" maskUnits="userSpaceOnUse"><g class="cls-3"><path class="cls-4" d="M330.4,260.08c1.11-21.06,1-42.15-3.56-62.66-4-18.28-12.11-36.32-24.58-50.48a78.12,78.12,0,0,0-7.84-7.81c-17-14.95-43.55-20.06-65.72-18.95-18,.87-35.63,5.83-52.25,12.69s-37.61,8.56-51.19-6.11c-10.85-11.78-17.1-22.29-14.65-39a47.77,47.77,0,0,1,2.22-9.08,145.43,145.43,0,0,1,66.62-26.05C259.62,42.49,332.86,99.4,343,179.74A145.77,145.77,0,0,1,330.4,260.08Z"/></g></mask><linearGradient id="linear-gradient-6" x1="130.58" y1="51.8" x2="370.86" y2="220.06" xlink:href="#linear-gradient-5"/><filter id="luminosity-noclip-6" x="90.97" y="168.13" width="70.99" height="71.11" filterUnits="userSpaceOnUse" color-interpolation-filters="sRGB"><feFlood flood-color="#fff" result="bg"/><feBlend in="SourceGraphic" in2="bg"/></filter><mask id="mask-6" x="90.97" y="168.13" width="70.99" height="71.11" maskUnits="userSpaceOnUse"><g class="cls-5"><ellipse class="cls-6" cx="126.47" cy="203.68" rx="35.5" ry="35.56"/></g></mask><linearGradient id="linear-gradient-7" x1="97.19" y1="183.18" x2="157.67" y2="225.53" xlink:href="#linear-gradient-5"/></defs><g id="Layer_2" data-name="Layer 2"><g id="Ñëîé_1" data-name="Ñëîé 1"><ellipse class="cls-7" cx="197.76" cy="198.09" rx="197.76" ry="198.09"/><ellipse class="cls-7" cx="197.76" cy="198.09" rx="169.97" ry="170.26"/><path class="cls-8" d="M330.4,260.08c-1.46,3.13-3,6.22-4.71,9.24a146.17,146.17,0,0,1-109.62,74.23c-80.16,10.11-153.4-46.79-163.5-127.09A146.47,146.47,0,0,1,179.45,52.65C259.62,42.49,332.86,99.4,343,179.74A145.77,145.77,0,0,1,330.4,260.08Z"/><g class="cls-9"><path class="cls-10" d="M325.69,269.32a146.17,146.17,0,0,1-109.62,74.23c-80.16,10.11-153.4-46.79-163.5-127.09A146,146,0,0,1,65.28,135.8a189.65,189.65,0,0,0,5.54,84.9c9.11,30.14,32.07,62.93,60.42,76.61C215.36,338,282.27,305.64,325.69,269.32Z"/></g><g class="cls-11"><path class="cls-12" d="M330.4,260.08c1.11-21.06,1-42.15-3.56-62.66-4-18.28-12.11-36.32-24.58-50.48a78.12,78.12,0,0,0-7.84-7.81c-17-14.95-43.55-20.06-65.72-18.95-18,.87-35.63,5.83-52.25,12.69s-37.61,8.56-51.19-6.11c-10.85-11.78-17.1-22.29-14.65-39a47.77,47.77,0,0,1,2.22-9.08,145.43,145.43,0,0,1,66.62-26.05C259.62,42.49,332.86,99.4,343,179.74A145.77,145.77,0,0,1,330.4,260.08Z"/></g><path class="cls-13" d="M68.31,266.56C57,274.74,53.8,278.11,50.15,282.73a64.76,64.76,0,0,0,9.1-.6c30.56-3.87,89.88-24.81,151.14-53.38,81-37.77,132.92-73.21,144.52-87.85a64.88,64.88,0,0,0-9.11.6,122.31,122.31,0,0,0-12.13,2.11c-2.59-6.09-5.2-11.57-8.72-18.12a158.21,158.21,0,0,1,18.4-3.45c7.18-.91,26.27-3.32,32.08,9.18,15,32.22-116.21,96.42-156.77,115.32-63.92,29.8-124.06,50.89-156.95,55-7.19.91-26.28,3.32-32.08-9.17-5.39-11.61,1.93-23.7,30.55-44.23C62.41,253.94,65.76,261.51,68.31,266.56Z"/><g class="cls-14"><ellipse class="cls-15" cx="126.47" cy="203.68" rx="35.5" ry="35.56"/></g></g></g></svg>