<svg xmlns="http://www.w3.org/2000/svg" xmlns:xlink="http://www.w3.org/1999/xlink" viewBox="0 0 388.3 388.95"><defs><style>.cls-1{mask:url(#mask);filter:url(#luminosity-noclip-4);}.cls-2,.cls-4,.cls-6{mix-blend-mode:multiply;}.cls-2{fill:url(#linear-gradient);}.cls-3{mask:url(#mask-2);filter:url(#luminosity-noclip-5);}.cls-4{fill:url(#linear-gradient-2);}.cls-5{mask:url(#mask-3);filter:url(#luminosity-noclip-6);}.cls-6{fill:url(#linear-gradient-3);}.cls-7{fill:#ff71b2;opacity:0.14;}.cls-8{fill:url(#linear-gradient-4);}.cls-9{fill:url(#linear-gradient-5);}.cls-10{fill:url(#linear-gradient-6);}.cls-11{fill:url(#linear-gradient-7);}.cls-12{mask:url(#mask-4);}.cls-13{opacity:0.47;fill:url(#linear-gradient-8);}.cls-14{mask:url(#mask-5);}.cls-15{opacity:0.37;fill:url(#linear-gradient-9);}.cls-16{mask:url(#mask-6);}.cls-17{opacity:0.69;fill:url(#linear-gradient-10);}.cls-18{filter:url(#luminosity-noclip-3);}.cls-19{filter:url(#luminosity-noclip-2);}.cls-20{filter:url(#luminosity-noclip);}</style><filter id="luminosity-noclip" x="90.73" y="-8182.32" width="258.57" height="32766" filterUnits="userSpaceOnUse" color-interpolation-filters="sRGB"><feFlood flood-color="#fff" result="bg"/><feBlend in="SourceGraphic" in2="bg"/></filter><mask id="mask" x="90.73" y="-8182.32" width="258.57" height="32766" maskUnits="userSpaceOnUse"><g class="cls-20"/></mask><linearGradient id="linear-gradient" x1="90.73" y1="175" x2="349.3" y2="175" gradientUnits="userSpaceOnUse"><stop offset="0" stop-color="#fff"/><stop offset="1"/></linearGradient><filter id="luminosity-noclip-2" x="39" y="-8182.32" width="258.04" height="32766" filterUnits="userSpaceOnUse" color-interpolation-filters="sRGB"><feFlood flood-color="#fff" result="bg"/><feBlend in="SourceGraphic" in2="bg"/></filter><mask id="mask-2" x="39" y="-8182.32" width="258.04" height="32766" maskUnits="userSpaceOnUse"><g class="cls-19"/></mask><linearGradient id="linear-gradient-2" x1="39" y1="235.97" x2="297.04" y2="235.97" gradientUnits="userSpaceOnUse"><stop offset="0" stop-color="#999"/><stop offset="1" stop-color="#fff"/></linearGradient><filter id="luminosity-noclip-3" x="110.23" y="-8182.32" width="83.92" height="32766" filterUnits="userSpaceOnUse" color-interpolation-filters="sRGB"><feFlood flood-color="#fff" result="bg"/><feBlend in="SourceGraphic" in2="bg"/></filter><mask id="mask-3" x="110.23" y="-8182.32" width="83.92" height="32766" maskUnits="userSpaceOnUse"><g class="cls-18"/></mask><linearGradient id="linear-gradient-3" x1="120.82" y1="162.76" x2="175.53" y2="218.07" xlink:href="#linear-gradient"/><linearGradient id="linear-gradient-4" x1="35.78" y1="32.65" x2="362.74" y2="363.26" gradientUnits="userSpaceOnUse"><stop offset="0.11" stop-color="#efff67"/><stop offset="0.46" stop-color="#ff5ea7"/><stop offset="1" stop-color="#c21e43"/></linearGradient><linearGradient id="linear-gradient-5" x1="72.23" y1="100.8" x2="277.67" y2="309.06" gradientUnits="userSpaceOnUse"><stop offset="0.06" stop-color="#efb374"/><stop offset="0.44" stop-color="#eb4786"/><stop offset="1" stop-color="#bd1e63"/></linearGradient><linearGradient id="linear-gradient-6" x1="57.8" y1="114.67" x2="263.53" y2="323.23" xlink:href="#linear-gradient-5"/><linearGradient id="linear-gradient-7" x1="83.19" y1="89.46" x2="288.96" y2="298.06" xlink:href="#linear-gradient-5"/><filter id="luminosity-noclip-4" x="90.73" y="37.4" width="258.57" height="275.2" filterUnits="userSpaceOnUse" color-interpolation-filters="sRGB"><feFlood flood-color="#fff" result="bg"/><feBlend in="SourceGraphic" in2="bg"/></filter><mask id="mask-4" x="90.73" y="37.4" width="258.57" height="275.2" maskUnits="userSpaceOnUse"><g class="cls-1"><path class="cls-2" d="M349.3,192.73A155.1,155.1,0,0,1,297,309.07c-1.35,1.19-2.73,2.38-4.12,3.53,25.22-47.15,60.33-141.13-2.29-196.84C270.08,97.52,239,91.92,212.16,98c-18,4.05-33.69,14.87-50.67,22.21s-37.69,10.9-53.17.79c-11.72-7.69-18-22.21-17.58-36.24a55.77,55.77,0,0,1,.91-8.61,154.36,154.36,0,0,1,99.57-38.7c.95,0,1.94,0,2.93,0,1.5,0,2.93,0,4.35.12a149.86,149.86,0,0,1,40,6.34c2.89.84,5.74,1.75,8.55,2.82A155.39,155.39,0,0,1,349.3,192.73Z"/></g></mask><linearGradient id="linear-gradient-8" x1="90.73" y1="175" x2="349.3" y2="175" gradientUnits="userSpaceOnUse"><stop offset="0" stop-color="#ffffae"/><stop offset="1" stop-color="#9cffff"/></linearGradient><filter id="luminosity-noclip-5" x="39" y="123.81" width="258.04" height="224.33" filterUnits="userSpaceOnUse" color-interpolation-filters="sRGB"><feFlood flood-color="#fff" result="bg"/><feBlend in="SourceGraphic" in2="bg"/></filter><mask id="mask-5" x="39" y="123.81" width="258.04" height="224.33" maskUnits="userSpaceOnUse"><g class="cls-3"><path class="cls-4" d="M297,309.07a154.49,154.49,0,0,1-102.89,39.06A152.5,152.5,0,0,1,157,343.61a154.55,154.55,0,0,1-79-47.82,137.9,137.9,0,0,1-10.69-13.52c-1.23-1.79-2.5-3.53-3.64-5.36-.72-1.07-1.39-2.1-2-3.21q-1.9-3.15-3.68-6.42a150.52,150.52,0,0,1-11.13-25.62,153.84,153.84,0,0,1-7.4-37.43c-.32-3.77-.44-7.66-.44-11.5a154.72,154.72,0,0,1,16.08-68.92c-1.35,8-3,16.06-3.13,23.67a154.36,154.36,0,0,0,23.24,83.63c28.3,45.45,79.77,73.48,132.74,81.06C237.58,316.41,267.62,314.78,297,309.07Z"/></g></mask><linearGradient id="linear-gradient-9" x1="39" y1="235.97" x2="297.04" y2="235.97" gradientUnits="userSpaceOnUse"><stop offset="0" stop-color="#e9256d"/><stop offset="1" stop-color="#562343"/></linearGradient><filter id="luminosity-noclip-6" x="110.23" y="152.44" width="83.92" height="84.06" filterUnits="userSpaceOnUse" color-interpolation-filters="sRGB"><feFlood flood-color="#fff" result="bg"/><feBlend in="SourceGraphic" in2="bg"/></filter><mask id="mask-6" x="110.23" y="152.44" width="83.92" height="84.06" maskUnits="userSpaceOnUse"><g class="cls-5"><ellipse class="cls-6" cx="152.19" cy="194.47" rx="41.96" ry="42.03"/></g></mask><linearGradient id="linear-gradient-10" x1="120.82" y1="162.76" x2="175.53" y2="218.07" gradientUnits="userSpaceOnUse"><stop offset="0" stop-color="#ffc"/><stop offset="1" stop-color="#ff7f9c"/></linearGradient></defs><g id="Layer_2" data-name="Layer 2"><g id="Ñëîé_1" data-name="Ñëîé 1"><ellipse class="cls-7" cx="194.15" cy="192.77" rx="178.81" ry="179.11"/><ellipse class="cls-7" cx="194.15" cy="194.47" rx="194.15" ry="194.47"/><path class="cls-8" d="M349.3,192.73A155.1,155.1,0,0,1,297,309.07c-1.35,1.19-2.73,2.38-4.12,3.53a154.35,154.35,0,0,1-98.77,35.53A152.5,152.5,0,0,1,157,343.61a154.55,154.55,0,0,1-79-47.82,137.9,137.9,0,0,1-10.69-13.52c-1.23-1.79-2.5-3.53-3.64-5.36-.72-1.07-1.39-2.1-2-3.21q-1.9-3.15-3.68-6.42a150.52,150.52,0,0,1-11.13-25.62,153.84,153.84,0,0,1-7.4-37.43c-.32-3.77-.44-7.66-.44-11.5A155.24,155.24,0,0,1,191.22,37.44c.95,0,1.94,0,2.93,0,1.5,0,2.93,0,4.35.12a149.86,149.86,0,0,1,40,6.34c2.89.84,5.74,1.75,8.55,2.82A155.39,155.39,0,0,1,349.3,192.73Z"/><path class="cls-9" d="M157,343.63a154.52,154.52,0,0,1-79-47.84,154.62,154.62,0,0,0,61.39,9.08c86-4.57,152-78.16,147.45-164.23-.26-4.44-.65-8.75-1.3-13.07A164.77,164.77,0,0,1,295,174.23C299.44,258.67,238.83,331.41,157,343.63Z"/><path class="cls-10" d="M130.07,181.88c-19.77,29.08-53.82,49.8-68,55.68-4.89,2-10.05,3.86-15.27,4.12a154.45,154.45,0,0,1-7.37-37.45,6.2,6.2,0,0,0,2,.65c27.2,3.92,85.6-43.72,100.34-98,2.74-9.94.2-18-4.37-22.16a18.19,18.19,0,0,0-12.46-5c-23.13.81-39.15,27.31-44.89,46.33-1.5,5-2.67,10.13-1.89,15.23s3.91,10.06,8.74,11.69a9.84,9.84,0,0,0,9.53-2c-4.64,6.34-13.64,9.61-21.14,6.93A12.44,12.44,0,0,1,70,154.56c-2.48-2.68-3.26-6.47-3.52-10.13-1-17.12,8.57-33,19.05-46.53a82.88,82.88,0,0,1,38.95-28.29c8-2.94,17.55-3.4,25,.84,6.07,3.53,10,10.2,11.42,17.13S164.59,130.91,130.07,181.88Z"/><path class="cls-11" d="M255.73,102c0,99.66-80.64,180.44-180.14,180.44-2.8,0-5.54-.07-8.28-.2-2-2.81-3.92-5.62-5.68-8.56C146,262.2,211,189.66,211,102a171,171,0,0,0-12.46-64.5,151.06,151.06,0,0,1,48.54,9.15A178.57,178.57,0,0,1,255.73,102Z"/><g class="cls-12"><path class="cls-13" d="M349.3,192.73A155.1,155.1,0,0,1,297,309.07c-1.35,1.19-2.73,2.38-4.12,3.53,25.22-47.15,60.33-141.13-2.29-196.84C270.08,97.52,239,91.92,212.16,98c-18,4.05-33.69,14.87-50.67,22.21s-37.69,10.9-53.17.79c-11.72-7.69-18-22.21-17.58-36.24a55.77,55.77,0,0,1,.91-8.61,154.36,154.36,0,0,1,99.57-38.7c.95,0,1.94,0,2.93,0,1.5,0,2.93,0,4.35.12a149.86,149.86,0,0,1,40,6.34c2.89.84,5.74,1.75,8.55,2.82A155.39,155.39,0,0,1,349.3,192.73Z"/></g><g class="cls-14"><path class="cls-15" d="M297,309.07a154.49,154.49,0,0,1-102.89,39.06A152.5,152.5,0,0,1,157,343.61a154.55,154.55,0,0,1-79-47.82,137.9,137.9,0,0,1-10.69-13.52c-1.23-1.79-2.5-3.53-3.64-5.36-.72-1.07-1.39-2.1-2-3.21q-1.9-3.15-3.68-6.42a150.52,150.52,0,0,1-11.13-25.62,153.84,153.84,0,0,1-7.4-37.43c-.32-3.77-.44-7.66-.44-11.5a154.72,154.72,0,0,1,16.08-68.92c-1.35,8-3,16.06-3.13,23.67a154.36,154.36,0,0,0,23.24,83.63c28.3,45.45,79.77,73.48,132.74,81.06C237.58,316.41,267.62,314.78,297,309.07Z"/></g><g class="cls-16"><ellipse class="cls-17" cx="152.19" cy="194.47" rx="41.96" ry="42.03"/></g></g></g></svg>