<svg xmlns="http://www.w3.org/2000/svg" xmlns:xlink="http://www.w3.org/1999/xlink" viewBox="0 0 471.21 305.11"><defs><style>.cls-1{mask:url(#mask);filter:url(#luminosity-noclip-4);}.cls-2,.cls-4,.cls-6{mix-blend-mode:multiply;}.cls-2{fill:url(#linear-gradient);}.cls-3{mask:url(#mask-2);filter:url(#luminosity-noclip-5);}.cls-4{fill:url(#linear-gradient-2);}.cls-5{mask:url(#mask-3);filter:url(#luminosity-noclip-6);}.cls-6{fill:url(#linear-gradient-3);}.cls-7{fill:url(#linear-gradient-4);}.cls-8{opacity:0.59;fill:url(#linear-gradient-5);}.cls-9{fill:url(#linear-gradient-6);}.cls-10{fill:url(#linear-gradient-7);}.cls-11{mask:url(#mask-4);}.cls-12{opacity:0.3;fill:url(#linear-gradient-8);}.cls-13{mask:url(#mask-5);}.cls-14{fill:url(#linear-gradient-9);}.cls-15{mask:url(#mask-6);}.cls-16{fill:url(#linear-gradient-10);}.cls-17{filter:url(#luminosity-noclip-3);}.cls-18{filter:url(#luminosity-noclip-2);}.cls-19{filter:url(#luminosity-noclip);}</style><filter id="luminosity-noclip" x="71.45" y="-8958.5" width="180.88" height="32766" filterUnits="userSpaceOnUse" color-interpolation-filters="sRGB"><feFlood flood-color="#fff" result="bg"/><feBlend in="SourceGraphic" in2="bg"/></filter><mask id="mask" x="71.45" y="-8958.5" width="180.88" height="32766" maskUnits="userSpaceOnUse"><g class="cls-19"/></mask><linearGradient id="linear-gradient" x1="120.5" y1="203.12" x2="184.09" y2="-7.17" gradientUnits="userSpaceOnUse"><stop offset="0" stop-color="#fff"/><stop offset="1"/></linearGradient><filter id="luminosity-noclip-2" x="148.88" y="-8958.5" width="53.33" height="32766" filterUnits="userSpaceOnUse" color-interpolation-filters="sRGB"><feFlood flood-color="#fff" result="bg"/><feBlend in="SourceGraphic" in2="bg"/></filter><mask id="mask-2" x="148.88" y="-8958.5" width="53.33" height="32766" maskUnits="userSpaceOnUse"><g class="cls-18"/></mask><linearGradient id="linear-gradient-2" x1="168.32" y1="136.06" x2="182.6" y2="88.82" xlink:href="#linear-gradient"/><filter id="luminosity-noclip-3" x="170.21" y="-8958.5" width="24.67" height="32766" filterUnits="userSpaceOnUse" color-interpolation-filters="sRGB"><feFlood flood-color="#fff" result="bg"/><feBlend in="SourceGraphic" in2="bg"/></filter><mask id="mask-3" x="170.21" y="-8958.5" width="24.67" height="32766" maskUnits="userSpaceOnUse"><g class="cls-17"/></mask><linearGradient id="linear-gradient-3" x1="179.2" y1="68.57" x2="185.81" y2="46.72" xlink:href="#linear-gradient"/><linearGradient id="linear-gradient-4" x1="68.29" y1="-4.68" x2="389.32" y2="319.95" gradientUnits="userSpaceOnUse"><stop offset="0.05" stop-color="#c161ff"/><stop offset="0.46" stop-color="#594cc5"/><stop offset="1" stop-color="#0043ac"/></linearGradient><linearGradient id="linear-gradient-5" x1="361.66" y1="268.36" x2="113.29" y2="53.54" xlink:href="#linear-gradient-4"/><linearGradient id="linear-gradient-6" x1="264.91" y1="239.35" x2="192.88" y2="177.05" gradientUnits="userSpaceOnUse"><stop offset="0" stop-color="#594cc5"/><stop offset="1" stop-color="#0043ac"/></linearGradient><linearGradient id="linear-gradient-7" x1="-2.03" y1="251" x2="476.07" y2="68.96" gradientUnits="userSpaceOnUse"><stop offset="0" stop-color="#ffe7ff"/><stop offset="1" stop-color="#00f7fa"/></linearGradient><filter id="luminosity-noclip-4" x="71.45" y="0" width="180.88" height="208.45" filterUnits="userSpaceOnUse" color-interpolation-filters="sRGB"><feFlood flood-color="#fff" result="bg"/><feBlend in="SourceGraphic" in2="bg"/></filter><mask id="mask-4" x="71.45" y="0" width="180.88" height="208.45" maskUnits="userSpaceOnUse"><g class="cls-1"><path class="cls-2" d="M252.33,2.68a131.68,131.68,0,0,0-28.8,10.86A94,94,0,0,0,204,26.68c-14.08,12.67-22.68,30.58-26.4,49.17s-2.8,37.78,0,56.49c1.28,8.45,2.88,16.95,2.44,25.48-2.32,41.59-55.28,63.47-89.36,42.63a56.8,56.8,0,0,1-15.52-14.66,153.18,153.18,0,0,1-3.16-22c-.32-3.72-.48-7.49-.48-11.26A152.43,152.43,0,0,1,220.93,0c1,0,1.92,0,2.88,0,1.44,0,2.88,0,4.28.12A146.43,146.43,0,0,1,252.33,2.68Z"/></g></mask><linearGradient id="linear-gradient-8" x1="120.5" y1="203.12" x2="184.09" y2="-7.17" gradientUnits="userSpaceOnUse"><stop offset="0" stop-color="#c995ff"/><stop offset="1" stop-color="#9cffff"/></linearGradient><filter id="luminosity-noclip-5" x="148.88" y="85.46" width="53.33" height="53.42" filterUnits="userSpaceOnUse" color-interpolation-filters="sRGB"><feFlood flood-color="#fff" result="bg"/><feBlend in="SourceGraphic" in2="bg"/></filter><mask id="mask-5" x="148.88" y="85.46" width="53.33" height="53.42" maskUnits="userSpaceOnUse"><g class="cls-3"><ellipse class="cls-4" cx="175.54" cy="112.17" rx="26.67" ry="26.71"/></g></mask><linearGradient id="linear-gradient-9" x1="168.32" y1="136.06" x2="182.6" y2="88.82" xlink:href="#linear-gradient-8"/><filter id="luminosity-noclip-6" x="170.21" y="45.17" width="24.67" height="24.71" filterUnits="userSpaceOnUse" color-interpolation-filters="sRGB"><feFlood flood-color="#fff" result="bg"/><feBlend in="SourceGraphic" in2="bg"/></filter><mask id="mask-6" x="170.21" y="45.17" width="24.67" height="24.71" maskUnits="userSpaceOnUse"><g class="cls-5"><ellipse class="cls-6" cx="182.54" cy="57.52" rx="12.33" ry="12.35"/></g></mask><linearGradient id="linear-gradient-10" x1="179.2" y1="68.57" x2="185.81" y2="46.72" xlink:href="#linear-gradient-8"/></defs><g id="Layer_2" data-name="Layer 2"><g id="Ñëîé_1" data-name="Ñëîé 1"><path class="cls-7" d="M376.13,152.53c0,84.3-68.24,152.58-152.32,152.58a151.85,151.85,0,0,1-36.48-4.45,143.62,143.62,0,0,1-24.88-8.49,151.19,151.19,0,0,1-52.68-38.47,143,143,0,0,1-10.52-13.26c-1.2-1.76-2.4-3.49-3.56-5.29-.72-1-1.36-2-2-3.12-1.2-2.09-2.44-4.17-3.6-6.29a150,150,0,0,1-10.92-25.17,148.17,148.17,0,0,1-4.08-14.78,153.18,153.18,0,0,1-3.16-22c-.32-3.72-.48-7.49-.48-11.26A152.43,152.43,0,0,1,220.93,0c1,0,1.92,0,2.88,0,1.44,0,2.88,0,4.28.12a146.43,146.43,0,0,1,24.24,2.56,139.64,139.64,0,0,1,15,3.65c2.8.84,5.64,1.76,8.36,2.77a152.8,152.8,0,0,1,100.4,143.43Z"/><path class="cls-8" d="M376.13,152.53c0,84.3-68.24,152.58-152.32,152.58a151.85,151.85,0,0,1-36.48-4.45,143.62,143.62,0,0,1-24.88-8.49c26.12-1.89,51.88-6.69,73.92-20.28,19.44-11.94,34.44-30.09,44.28-50.8a141,141,0,0,0,10.52-30.57c7-31.58,4.08-64.91,12.88-96,3.36-11.9,8.6-23.6,17.48-32.18a42.05,42.05,0,0,1,17-10A151.93,151.93,0,0,1,376.13,152.53Z"/><ellipse class="cls-9" cx="243.75" cy="221.05" rx="19.96" ry="19.99"/><path class="cls-10" d="M469.37,66.55c-10.95-29.37-64.08-37.7-140.48-24.42A136.25,136.25,0,0,1,345.43,60.7c36.71-2.85,55.11,3.25,60.62,18,10.8,29-59.76,82.18-157.56,118.72S62.61,240.12,51.81,211.11c-4.51-12.07.8-24.38,20.58-41.87-.68-8-.77-17.11-.69-25.28-53.85,36.31-79.43,71-69.65,97.24,16.12,43.27,133.8,39.23,262.84-9S485.49,109.82,469.37,66.55Z"/><g class="cls-11"><path class="cls-12" d="M252.33,2.68a131.68,131.68,0,0,0-28.8,10.86A94,94,0,0,0,204,26.68c-14.08,12.67-22.68,30.58-26.4,49.17s-2.8,37.78,0,56.49c1.28,8.45,2.88,16.95,2.44,25.48-2.32,41.59-55.28,63.47-89.36,42.63a56.8,56.8,0,0,1-15.52-14.66,153.18,153.18,0,0,1-3.16-22c-.32-3.72-.48-7.49-.48-11.26A152.43,152.43,0,0,1,220.93,0c1,0,1.92,0,2.88,0,1.44,0,2.88,0,4.28.12A146.43,146.43,0,0,1,252.33,2.68Z"/></g><g class="cls-13"><ellipse class="cls-14" cx="175.54" cy="112.17" rx="26.67" ry="26.71"/></g><g class="cls-15"><ellipse class="cls-16" cx="182.54" cy="57.52" rx="12.33" ry="12.35"/></g></g></g></svg>