<svg xmlns="http://www.w3.org/2000/svg" xmlns:xlink="http://www.w3.org/1999/xlink" viewBox="0 0 426.68 394.7"><defs><style>.cls-1{fill:#00fafc;opacity:0.12;}.cls-2{fill:url(#linear-gradient);}.cls-3{fill:url(#linear-gradient-2);}.cls-4{fill:url(#linear-gradient-3);}.cls-5{fill:url(#linear-gradient-4);}.cls-6{fill:url(#linear-gradient-5);}.cls-7{fill:url(#linear-gradient-6);}.cls-8{fill:url(#linear-gradient-7);}.cls-9{fill:url(#linear-gradient-8);}.cls-10{fill:url(#linear-gradient-9);}.cls-11{fill:none;}.cls-12{fill:url(#linear-gradient-10);}.cls-13{fill:url(#linear-gradient-11);}.cls-14{fill:url(#linear-gradient-12);}.cls-15{fill:url(#linear-gradient-13);}.cls-16{fill:url(#linear-gradient-14);}.cls-17{fill:url(#linear-gradient-15);}.cls-18{fill:url(#linear-gradient-16);}.cls-19{fill:url(#linear-gradient-17);}.cls-20{fill:url(#linear-gradient-18);}.cls-21{fill:url(#linear-gradient-19);}.cls-22{fill:url(#linear-gradient-20);}.cls-23{fill:url(#linear-gradient-21);}.cls-24{fill:url(#linear-gradient-22);}.cls-25{fill:url(#linear-gradient-23);}.cls-26{fill:url(#linear-gradient-24);}.cls-27{fill:url(#linear-gradient-25);}.cls-28{fill:url(#linear-gradient-26);}.cls-29{fill:url(#linear-gradient-27);}.cls-30{fill:url(#linear-gradient-28);}.cls-31{fill:url(#linear-gradient-29);}.cls-32{fill:url(#linear-gradient-30);}.cls-33{fill:url(#linear-gradient-31);}.cls-34{fill:url(#linear-gradient-32);}.cls-35{fill:url(#linear-gradient-33);}</style><linearGradient id="linear-gradient" x1="313.13" y1="72.15" x2="132.08" y2="333.4" gradientUnits="userSpaceOnUse"><stop offset="0.08" stop-color="#8ff"/><stop offset="0.56" stop-color="#18c5e0"/><stop offset="1" stop-color="#437dff"/></linearGradient><linearGradient id="linear-gradient-2" x1="230.98" y1="51.48" x2="87.16" y2="130.52" gradientUnits="userSpaceOnUse"><stop offset="0.03" stop-color="#00ace5"/><stop offset="0.5" stop-color="#0087bc"/><stop offset="1" stop-color="#474fb0"/></linearGradient><linearGradient id="linear-gradient-3" x1="230.52" y1="36.84" x2="81.94" y2="118.47" gradientUnits="userSpaceOnUse"><stop offset="0.03" stop-color="#5effbb"/><stop offset="0.21" stop-color="#33c9e2"/><stop offset="0.84" stop-color="#007cd6"/></linearGradient><linearGradient id="linear-gradient-4" x1="234.42" y1="123.52" x2="60.84" y2="175.34" gradientUnits="userSpaceOnUse"><stop offset="0" stop-color="#0087bc"/><stop offset="1" stop-color="#474fb0"/></linearGradient><linearGradient id="linear-gradient-5" x1="341.12" y1="100.37" x2="66.44" y2="238.15" xlink:href="#linear-gradient-2"/><linearGradient id="linear-gradient-6" x1="306.59" y1="72.38" x2="49.62" y2="200.65" xlink:href="#linear-gradient-3"/><linearGradient id="linear-gradient-7" x1="318.97" y1="118.28" x2="194.69" y2="309.69" gradientUnits="userSpaceOnUse"><stop offset="0.02" stop-color="#00ce89"/><stop offset="0.2" stop-color="#09bbfd"/><stop offset="1" stop-color="#0046bb"/></linearGradient><linearGradient id="linear-gradient-8" x1="357.08" y1="115.5" x2="71.17" y2="261.91" xlink:href="#linear-gradient-7"/><linearGradient id="linear-gradient-9" x1="393.24" y1="150.23" x2="75.81" y2="299.22" xlink:href="#linear-gradient-3"/><linearGradient id="linear-gradient-10" x1="348.46" y1="297.16" x2="208.53" y2="363.39" xlink:href="#linear-gradient-4"/><linearGradient id="linear-gradient-11" x1="345.88" y1="308.43" x2="224.96" y2="367.16" gradientUnits="userSpaceOnUse"><stop offset="0" stop-color="#33eaff"/><stop offset="1" stop-color="#007cb3"/></linearGradient><linearGradient id="linear-gradient-12" x1="386.99" y1="221.22" x2="138.8" y2="346.17" xlink:href="#linear-gradient-7"/><linearGradient id="linear-gradient-13" x1="385.39" y1="237.71" x2="154.47" y2="359.79" xlink:href="#linear-gradient-3"/><linearGradient id="linear-gradient-14" x1="348.03" y1="297.24" x2="208.1" y2="363.46" xlink:href="#linear-gradient-4"/><linearGradient id="linear-gradient-15" x1="345.45" y1="308.51" x2="224.52" y2="367.24" xlink:href="#linear-gradient-3"/><linearGradient id="linear-gradient-16" x1="-438.35" y1="-315.02" x2="-407.41" y2="-340.13" gradientTransform="translate(-450.91 329.93) rotate(116.24)" xlink:href="#linear-gradient-3"/><linearGradient id="linear-gradient-17" x1="-495.78" y1="-317.06" x2="-488.19" y2="-323.22" gradientTransform="translate(-450.91 329.93) rotate(116.24)" xlink:href="#linear-gradient-3"/><linearGradient id="linear-gradient-18" x1="-639.19" y1="-562.38" x2="-631.6" y2="-568.54" gradientTransform="translate(-450.91 329.93) rotate(116.24)" xlink:href="#linear-gradient-3"/><linearGradient id="linear-gradient-19" x1="-589.04" y1="-601.77" x2="-581.45" y2="-607.92" gradientTransform="translate(-450.91 329.93) rotate(116.24)" xlink:href="#linear-gradient-3"/><linearGradient id="linear-gradient-20" x1="-642.54" y1="-655.66" x2="-634.95" y2="-661.82" gradientTransform="translate(-450.91 329.93) rotate(116.24)" xlink:href="#linear-gradient-3"/><linearGradient id="linear-gradient-21" x1="-623.91" y1="-608.11" x2="-620.12" y2="-611.18" gradientTransform="translate(-450.91 329.93) rotate(116.24)" xlink:href="#linear-gradient-3"/><linearGradient id="linear-gradient-22" x1="-608.9" y1="-657.06" x2="-605.11" y2="-660.14" gradientTransform="translate(-450.91 329.93) rotate(116.24)" xlink:href="#linear-gradient-3"/><linearGradient id="linear-gradient-23" x1="-555.77" y1="-658.87" x2="-551.98" y2="-661.94" gradientTransform="translate(-450.91 329.93) rotate(116.24)" xlink:href="#linear-gradient-3"/><linearGradient id="linear-gradient-24" x1="-627.96" y1="-527.7" x2="-624.17" y2="-530.77" gradientTransform="translate(-450.91 329.93) rotate(116.24)" xlink:href="#linear-gradient-3"/><linearGradient id="linear-gradient-25" x1="-508.74" y1="-711.3" x2="-504.95" y2="-714.37" gradientTransform="translate(-450.91 329.93) rotate(116.24)" xlink:href="#linear-gradient-3"/><linearGradient id="linear-gradient-26" x1="-302.38" y1="521.97" x2="-294.8" y2="515.81" gradientTransform="matrix(0.51, -0.86, 0.86, 0.51, -208.93, -141.38)" xlink:href="#linear-gradient-3"/><linearGradient id="linear-gradient-27" x1="-252.24" y1="482.58" x2="-244.65" y2="476.42" gradientTransform="matrix(0.51, -0.86, 0.86, 0.51, -208.93, -141.38)" xlink:href="#linear-gradient-3"/><linearGradient id="linear-gradient-28" x1="-305.73" y1="428.68" x2="-298.14" y2="422.52" gradientTransform="matrix(0.51, -0.86, 0.86, 0.51, -208.93, -141.38)" xlink:href="#linear-gradient-3"/><linearGradient id="linear-gradient-29" x1="-287.1" y1="476.24" x2="-283.32" y2="473.17" gradientTransform="matrix(0.51, -0.86, 0.86, 0.51, -208.93, -141.38)" xlink:href="#linear-gradient-3"/><linearGradient id="linear-gradient-30" x1="-272.09" y1="427.28" x2="-268.31" y2="424.2" gradientTransform="matrix(0.51, -0.86, 0.86, 0.51, -208.93, -141.38)" xlink:href="#linear-gradient-3"/><linearGradient id="linear-gradient-31" x1="-218.96" y1="425.47" x2="-215.18" y2="422.39" gradientTransform="matrix(0.51, -0.86, 0.86, 0.51, -208.93, -141.38)" xlink:href="#linear-gradient-3"/><linearGradient id="linear-gradient-32" x1="-291.16" y1="556.66" x2="-287.37" y2="553.59" gradientTransform="matrix(0.51, -0.86, 0.86, 0.51, -208.93, -141.38)" xlink:href="#linear-gradient-3"/><linearGradient id="linear-gradient-33" x1="-171.93" y1="373.03" x2="-168.15" y2="369.95" gradientTransform="matrix(0.51, -0.86, 0.86, 0.51, -208.93, -141.38)" xlink:href="#linear-gradient-3"/></defs><g id="Layer_2" data-name="Layer 2"><g id="Ñëîé_1" data-name="Ñëîé 1"><ellipse class="cls-1" cx="220.14" cy="206.34" rx="188.04" ry="188.36"/><ellipse class="cls-2" cx="220.14" cy="206.34" rx="145.31" ry="145.55"/><path class="cls-3" d="M154.15,96.38c-34.87,17.74-65.28,21.34-66.93,21.18l14.18,4.86s35-5.85,66.19-23.18c33.78-18.78,49.63-38.42,49.63-38.42L221.08,48C219.74,49.74,203.21,71.33,154.15,96.38Z"/><path class="cls-4" d="M219,47.93A159.19,159.19,0,0,0,87.22,117.56c1.65.16,32.06-3.44,66.93-21.18,49.06-25,65.59-46.64,66.93-48.37A18.78,18.78,0,0,0,219,47.93Z"/><path class="cls-5" d="M221.91,117.3s-41.46,29.9-97.65,41.37c-28.68,5.88-47.41,5.49-54.93,4.94l10,6.52s48.64,1.59,103.73-24.3a281.52,281.52,0,0,0,42.5-29.24Z"/><path class="cls-6" d="M211,175.11c-70,37-145.55,47.77-148.77,48.4L76.43,228s81.45-17,136-46.52c80.1-43.3,110.41-78.15,110.41-78.15l3.39-11.82S287.76,134.53,211,175.11Z"/><path class="cls-7" d="M235.07,52.93c-.78,1.72-14.89,29.83-57.52,54.08C126.06,136.37,85.16,132.76,83,132.52a160,160,0,0,0-13.71,31.09c7.52.55,26.25.94,54.93-4.94,56.19-11.47,97.65-41.37,97.65-41.37l3.68-.71a281.52,281.52,0,0,1-42.5,29.24c-15.71,8.88-34.62,17.6-54.91,22.65-38.24,9.42-55.8,10.2-62.69,9.89A155.86,155.86,0,0,0,61.8,212.2q0,5.78.47,11.31c3.22-.63,78.79-11.43,148.77-48.4,76.72-40.58,115.18-83.56,115.18-83.56A158.51,158.51,0,0,0,235.07,52.93Z"/><path class="cls-8" d="M370.9,152l-14.28,4.3S324.43,185.49,273,214.83c-39.07,22.28-98.09,43.19-124.27,52,2.19-.11,61.35-3.36,143.66-52.3C355.49,177,370.9,152,370.9,152Z"/><path class="cls-9" d="M342.83,109l-10.68,4.65s-45.81,45.8-108,78.75S79,241.22,79,241.22L65.77,249c2.94-.3,88.47-10.93,163.3-51.36C313.51,152,342.83,109,342.83,109Z"/><path class="cls-10" d="M370.9,152s-15.41,25-78.54,62.51c-82.31,48.94-141.47,52.19-143.66,52.3h-.2s49.1-16.06,117.5-53.73c48.36-26.64,99.44-73.71,99.44-73.71A154.92,154.92,0,0,0,342.83,109s-29.32,43-113.76,88.64C154.24,238.05,68.71,248.68,65.77,249c6.5,28.39,20,53.24,40.47,73.21,3.16-.6,59.69-.45,152.83-44.08,87.18-40.83,122.16-87.24,122.16-87.24C379.29,177.24,376.39,164.22,370.9,152Z"/><path class="cls-11" d="M341,294.72l-7.59,9.22A67.56,67.56,0,0,0,341,294.72Z"/><path class="cls-12" d="M333.36,303.94l7.59-9.22-4.12-2.83a409.85,409.85,0,0,1-60.27,35.28c-34.64,16.43-59.68,24.62-59.68,24.62v5.4s28.74-.52,65.66-18.05C309.17,326.5,325,312.75,333.36,303.94Z"/><path class="cls-13" d="M333.36,303.94c-8.34,8.81-24.19,22.56-50.82,35.2-36.92,17.53-65.66,18.05-65.66,18.05s38.42,8.48,74.39-6.31C330.42,334.79,341,294.72,341,294.72A67.56,67.56,0,0,1,333.36,303.94Z"/><path class="cls-14" d="M378.36,216.7l-13.79,5.7c-13.59,12-40.16,38.74-99.13,67.73-54.4,26.75-99,34.9-122,39.87l-7-4.65-8.65,13.81s66.34.1,143.38-37.67C347.3,264.18,375.93,219.14,378.36,216.7Z"/><path class="cls-15" d="M271.2,301.49c-77,37.77-143.38,37.67-143.38,37.67,16.3,11.46,32.2,17,52.26,21.66,0,0,48.9-8.24,103.1-34.59,57-27.69,81.39-58.66,85.46-62.58a155.81,155.81,0,0,0,9.72-46.95C375.93,219.14,347.3,264.18,271.2,301.49Z"/><path class="cls-11" d="M340.51,294.8,332.93,304A67.85,67.85,0,0,0,340.51,294.8Z"/><path class="cls-16" d="M332.93,304l7.58-9.22L336.39,292a409.85,409.85,0,0,1-60.27,35.28c-34.64,16.43-59.68,24.62-59.68,24.62v5.4s28.75-.52,65.67-18C308.73,326.58,324.59,312.83,332.93,304Z"/><path class="cls-17" d="M332.93,304c-8.34,8.81-24.2,22.56-50.82,35.2-36.92,17.53-65.67,18-65.67,18s38.42,8.48,74.39-6.31c39.15-16.09,49.68-56.16,49.68-56.16A67.85,67.85,0,0,1,332.93,304Z"/><ellipse class="cls-18" cx="29.63" cy="94.33" rx="17.83" ry="17.86"/><path class="cls-19" d="M51.77,33.81a4.38,4.38,0,1,1,5.85-2A4.38,4.38,0,0,1,51.77,33.81Z"/><path class="cls-20" d="M335.22,13.63a4.38,4.38,0,1,1,5.86-2A4.39,4.39,0,0,1,335.22,13.63Z"/><path class="cls-21" d="M348.38,76a4.38,4.38,0,1,1,5.85-2A4.37,4.37,0,0,1,348.38,76Z"/><path class="cls-22" d="M420.38,51.86a4.37,4.37,0,1,1,5.85-2A4.37,4.37,0,0,1,420.38,51.86Z"/><path class="cls-23" d="M369.94,43.33a2.18,2.18,0,1,1,2.92-1A2.19,2.19,0,0,1,369.94,43.33Z"/><path class="cls-24" d="M407.22,78.43a2.18,2.18,0,1,1,2.92-1A2.19,2.19,0,0,1,407.22,78.43Z"/><path class="cls-25" d="M385.35,126.89a2.18,2.18,0,1,1,2.92-1A2.19,2.19,0,0,1,385.35,126.89Z"/><path class="cls-26" d="M299.6,4.15a2.2,2.2,0,0,1-1-2.93,2.18,2.18,0,1,1,1,2.93Z"/><path class="cls-27" d="M411.58,192.26a2.2,2.2,0,0,1-1-2.93,2.18,2.18,0,1,1,1,2.93Z"/><path class="cls-28" d="M88.66,375.87a4.38,4.38,0,1,1-6,1.55A4.37,4.37,0,0,1,88.66,375.87Z"/><path class="cls-29" d="M80.19,312.66a4.38,4.38,0,1,1-6,1.55A4.39,4.39,0,0,1,80.19,312.66Z"/><path class="cls-30" d="M6.59,331.37a4.38,4.38,0,1,1-6,1.54A4.38,4.38,0,0,1,6.59,331.37Z"/><path class="cls-31" d="M56.26,343.65a2.19,2.19,0,1,1-3,.77A2.19,2.19,0,0,1,56.26,343.65Z"/><path class="cls-32" d="M21.7,305.85a2.19,2.19,0,1,1-3,.78A2.2,2.2,0,0,1,21.7,305.85Z"/><path class="cls-33" d="M47.13,259.17a2.18,2.18,0,1,1-3,.77A2.19,2.19,0,0,1,47.13,259.17Z"/><path class="cls-34" d="M123.47,388a2.18,2.18,0,1,1-3,.77A2.18,2.18,0,0,1,123.47,388Z"/><path class="cls-35" d="M25.84,192a2.19,2.19,0,0,1-2.22,3.77A2.19,2.19,0,0,1,25.84,192Z"/></g></g></svg>