<svg xmlns="http://www.w3.org/2000/svg" xmlns:xlink="http://www.w3.org/1999/xlink" viewBox="0 0 414.37 415.07"><defs><style>.cls-1{mask:url(#mask);filter:url(#luminosity-noclip-2);}.cls-2{mix-blend-mode:multiply;fill:url(#linear-gradient);}.cls-3{fill:url(#linear-gradient-2);}.cls-4{fill:url(#linear-gradient-3);}.cls-5{fill:url(#linear-gradient-4);}.cls-6{fill:url(#linear-gradient-5);}.cls-7{fill:url(#linear-gradient-6);}.cls-8{fill:url(#linear-gradient-7);}.cls-9{fill:url(#linear-gradient-8);}.cls-10{fill:url(#linear-gradient-9);}.cls-11{fill:url(#linear-gradient-10);}.cls-12{fill:url(#linear-gradient-11);}.cls-13{fill:url(#linear-gradient-12);}.cls-14{fill:url(#linear-gradient-13);}.cls-15{fill:url(#linear-gradient-14);}.cls-16{fill:url(#linear-gradient-15);}.cls-17{fill:url(#linear-gradient-16);}.cls-18{fill:url(#linear-gradient-17);}.cls-19{fill:url(#linear-gradient-18);}.cls-20{fill:url(#linear-gradient-19);}.cls-21{fill:url(#linear-gradient-20);}.cls-22{opacity:0.34;fill:url(#linear-gradient-21);}.cls-23{mask:url(#mask-2);}.cls-24{opacity:0.47;fill:url(#linear-gradient-22);}.cls-25{fill:#ffb865;opacity:0.12;}.cls-26{filter:url(#luminosity-noclip);}</style><filter id="luminosity-noclip" x="180.73" y="-9016.36" width="105.5" height="32766" filterUnits="userSpaceOnUse" color-interpolation-filters="sRGB"><feFlood flood-color="#fff" result="bg"/><feBlend in="SourceGraphic" in2="bg"/></filter><mask id="mask" x="180.73" y="-9016.36" width="105.5" height="32766" maskUnits="userSpaceOnUse"><g class="cls-26"/></mask><linearGradient id="linear-gradient" x1="203.38" y1="87.01" x2="259.24" y2="163.22" gradientUnits="userSpaceOnUse"><stop offset="0" stop-color="#fff"/><stop offset="1"/></linearGradient><linearGradient id="linear-gradient-2" x1="46.33" y1="297.74" x2="359.85" y2="122.89" gradientUnits="userSpaceOnUse"><stop offset="0" stop-color="#ff70db"/><stop offset="1" stop-color="#ffe25c"/></linearGradient><linearGradient id="linear-gradient-3" x1="23.5" y1="210.64" x2="316.68" y2="80.56" gradientUnits="userSpaceOnUse"><stop offset="0" stop-color="#ff4aa4"/><stop offset="1" stop-color="#ffb84d"/></linearGradient><linearGradient id="linear-gradient-4" x1="41.1" y1="250.34" x2="334.2" y2="120.3" xlink:href="#linear-gradient-3"/><linearGradient id="linear-gradient-5" x1="55.74" y1="283.36" x2="348.78" y2="153.34" xlink:href="#linear-gradient-3"/><linearGradient id="linear-gradient-6" x1="49.26" y1="268.77" x2="342.44" y2="138.7" xlink:href="#linear-gradient-3"/><linearGradient id="linear-gradient-7" x1="16.61" y1="195.01" x2="309.66" y2="64.99" xlink:href="#linear-gradient-3"/><linearGradient id="linear-gradient-8" x1="65.45" y1="305.27" x2="358.52" y2="175.23" xlink:href="#linear-gradient-3"/><linearGradient id="linear-gradient-9" x1="34.86" y1="236.33" x2="327.99" y2="106.28" xlink:href="#linear-gradient-3"/><linearGradient id="linear-gradient-10" x1="42.04" y1="252.49" x2="335.14" y2="122.45" xlink:href="#linear-gradient-3"/><linearGradient id="linear-gradient-11" x1="59.34" y1="291.39" x2="352.37" y2="161.37" xlink:href="#linear-gradient-3"/><linearGradient id="linear-gradient-12" x1="82.22" y1="343.3" x2="375.37" y2="213.23" xlink:href="#linear-gradient-3"/><linearGradient id="linear-gradient-13" x1="79.76" y1="337.56" x2="372.83" y2="207.52" xlink:href="#linear-gradient-3"/><linearGradient id="linear-gradient-14" x1="83.03" y1="344.94" x2="376.07" y2="214.92" xlink:href="#linear-gradient-3"/><linearGradient id="linear-gradient-15" x1="21.05" y1="205.1" x2="314.16" y2="75.05" xlink:href="#linear-gradient-3"/><linearGradient id="linear-gradient-16" x1="91.45" y1="363.96" x2="384.51" y2="233.93" xlink:href="#linear-gradient-3"/><linearGradient id="linear-gradient-17" x1="33.63" y1="233.49" x2="326.74" y2="103.44" xlink:href="#linear-gradient-3"/><linearGradient id="linear-gradient-18" x1="62.83" y1="299.32" x2="355.88" y2="169.3" xlink:href="#linear-gradient-3"/><linearGradient id="linear-gradient-19" x1="94.79" y1="371.56" x2="387.91" y2="241.5" xlink:href="#linear-gradient-3"/><linearGradient id="linear-gradient-20" x1="43.97" y1="256.79" x2="337.05" y2="126.76" xlink:href="#linear-gradient-3"/><linearGradient id="linear-gradient-21" x1="331.57" y1="312.3" x2="77.42" y2="125.19" gradientUnits="userSpaceOnUse"><stop offset="0" stop-color="#ff9768"/><stop offset="1" stop-color="#ec4c7d"/></linearGradient><filter id="luminosity-noclip-2" x="180.73" y="81.57" width="105.5" height="89.92" filterUnits="userSpaceOnUse" color-interpolation-filters="sRGB"><feFlood flood-color="#fff" result="bg"/><feBlend in="SourceGraphic" in2="bg"/></filter><mask id="mask-2" x="180.73" y="81.57" width="105.5" height="89.92" maskUnits="userSpaceOnUse"><g class="cls-1"><path class="cls-2" d="M282.67,115.63A56.12,56.12,0,0,0,250.55,85a58.11,58.11,0,0,0-44.4,2.14,47.86,47.86,0,0,0-16.22,12.2,40.07,40.07,0,0,0-6.64,11.21c-6.1,15.66-1,35,12.07,45.58A59,59,0,0,0,207,163.19c14.71,7.05,31.69,10.7,47.47,6.56s29.75-17.33,31.55-33.56A41.92,41.92,0,0,0,282.67,115.63Z"/></g></mask><linearGradient id="linear-gradient-22" x1="203.38" y1="87.01" x2="259.24" y2="163.22" gradientUnits="userSpaceOnUse"><stop offset="0" stop-color="#ffffae"/><stop offset="1" stop-color="#9cffff"/></linearGradient></defs><g id="Layer_2" data-name="Layer 2"><g id="Ñëîé_1" data-name="Ñëîé 1"><path class="cls-3" d="M354.55,241.36a143.84,143.84,0,0,1-9,28.21.2.2,0,0,1,0,.12,125.31,125.31,0,0,1-6,12.14,152.16,152.16,0,0,1-230,46.12c-2.56-2-5.08-4.21-7.48-6.45a121.74,121.74,0,0,1-10.56-10.74c-.52-.52-1-1-1.44-1.6-.68-.8-1.4-1.56-2-2.45a108.13,108.13,0,0,1-7.16-9.29,143.24,143.24,0,0,1-9-14.15c-1.36-2.44-2.68-5-3.84-7.53-.2-.4-.4-.76-.56-1.16-2-4.13-3.8-8.49-5.4-12.9A159,159,0,0,1,57,244.77c-.32-1.36-.6-2.68-.88-4.05v0A123.52,123.52,0,0,1,54,228.06c-.4-3.24-.68-6.45-.84-9.65-.08-.84-.08-1.69-.12-2.53a144.94,144.94,0,0,1,3.84-41.67c.76-3.48,1.72-7,2.8-10.41A151.44,151.44,0,0,1,67.75,143,153.27,153.27,0,0,1,109.55,90c2.48-2,5-3.92,7.64-5.77A152.61,152.61,0,0,1,169.67,60.3a151,151,0,0,1,75.72,1.21l3.64,1a121.19,121.19,0,0,1,14.52,5.21c.84.32,1.64.72,2.48,1.08a149.6,149.6,0,0,1,49.12,34c1,1,2,2,2.84,3,2.28,2.4,4.4,4.89,6.44,7.45,2.44,3,4.8,6.17,7,9.42.48.64.92,1.28,1.36,1.92a154.61,154.61,0,0,1,21.12,48.68l.16.72c.76,3.37,1.4,6.69,2,10.06a114.09,114.09,0,0,1,1.52,12.74c.12,1.64.28,3.29.32,4.89A147.15,147.15,0,0,1,354.55,241.36Z"/><path class="cls-4" d="M99.67,223.86a5.9,5.9,0,0,1-3,2.28c-5.36,2.2-11.4,1.52-17.08.44a127.63,127.63,0,0,1-26.48-8.17c-.08-.84-.08-1.69-.12-2.53a144.94,144.94,0,0,1,3.84-41.67c.76-3.48,1.72-7,2.8-10.41A151.44,151.44,0,0,1,67.75,143a31.39,31.39,0,0,1,4.32,5.25,181.62,181.62,0,0,1,27.92,71C100.23,220.81,100.43,222.49,99.67,223.86Z"/><path class="cls-5" d="M122.43,182.65c-11.46.54-21.23.38-19,13.93,1.52,9.34,5.75,18,8.38,27a13.16,13.16,0,0,0,1.72,4.08c5.11,7,22.26,13,30.84,12.09,16-1.77,17.52-24.35,21.16-36.29C170.41,187.39,130.72,182.26,122.43,182.65Z"/><path class="cls-6" d="M101.71,267.57c.7,2.33,1.45,4.76,3.17,6.48,3.38,3.38,8.91,2.72,13.6,1.82,9.53-1.87,21.77-1.46,28.58-9.46,2.08-2.44.33-6.17-1.65-8.69A56.49,56.49,0,0,0,109.23,237c-2.55-.35-5.25-.51-7.63.5C92.83,241.21,99.81,261.18,101.71,267.57Z"/><path class="cls-7" d="M91.27,275.14c-5,3.49-14.28,2.61-23.2.6-.2-.4-.4-.76-.56-1.16-2-4.13-3.8-8.49-5.4-12.9A159,159,0,0,1,57,244.77c-.32-1.36-.6-2.68-.88-4.05,8-4,16.12-7.37,25.52-6.85a11.07,11.07,0,0,1,5.32,1.36c2.12,1.33,3.2,3.77,4.08,6.13C94,249.46,100.51,268.81,91.27,275.14Z"/><path class="cls-8" d="M104.72,138.43c-2.43.07-4.9.28-7.45.52-1.65.16-3.43.45-4.55,1.67a6.32,6.32,0,0,0-1.25,4.29c0,7.41,3.28,14.38,6.53,21,1,2.06,2.14,4.25,4.14,5.38a9.8,9.8,0,0,0,4.67,1c7.86.09,18.08-3,24.06-8.51,11.39-10.46.6-17.81-10-22.54A35.61,35.61,0,0,0,104.72,138.43Z"/><path class="cls-9" d="M171.54,255.78c4.64,4.46,13.05,8.6,16.24,8.51,11.18-.32,22.66-26.18,11.59-29.18-6.54-1.77-22.87,6.74-28,10.79-1.32,1-2.67,2.27-3,3.92C168.05,251.62,169.4,253.73,171.54,255.78Z"/><path class="cls-10" d="M292.26,110.32a10.56,10.56,0,0,0-2.26-4.21,9.56,9.56,0,0,0-8.11-2.58,18.07,18.07,0,0,0-8,3.45c-7.08,5-11.89,12.53-16.51,19.86-1.5,2.37-3.05,4.86-3.34,7.66-.71,6.85,6.12,10,11.37,12.23A43.57,43.57,0,0,0,279,149.52c2.93.23,6.22.24,8.4-1.74a10.37,10.37,0,0,0,2.32-3.68,52.48,52.48,0,0,0,3.08-31.42C292.68,111.89,292.5,111.1,292.26,110.32Z"/><path class="cls-11" d="M331.39,122.69a53,53,0,0,1-11.64,30.57,3.46,3.46,0,0,1-2.4,1.64,3.7,3.7,0,0,1-2.2-.92c-8.76-6.45-15.16-17.59-14.6-28.65a20.52,20.52,0,0,1,7-14.34,24.09,24.09,0,0,1,2.88-2,24.93,24.93,0,0,1,7.52-3.12c2.28,2.4,4.4,4.89,6.44,7.45C326.87,116.32,329.23,119.44,331.39,122.69Z"/><path class="cls-12" d="M287.13,167.06c-1,.41-2,.83-2.91,1.27-4.85,2.24-10.37,5.35-11,10.66-.37,3.26,1.39,6.48,3.85,8.63a26.42,26.42,0,0,0,8.65,4.53,127.06,127.06,0,0,0,32.11,7A4.75,4.75,0,0,0,320,199a4.81,4.81,0,0,0,1.76-1.35A96.21,96.21,0,0,0,336,177.93a6.5,6.5,0,0,0,1-3,6,6,0,0,0-2.16-4C321.81,158,302.47,160.68,287.13,167.06Z"/><path class="cls-13" d="M291.89,213.42c-5.61,1.87-5.42,6-5.21,15.55a127.6,127.6,0,0,1,.07,13.69c-1,11.36-6.47,21.78-9.44,32.79a7.79,7.79,0,0,0-.23,4.62c.74,2.05,2.95,3.15,5,3.78,7.22,2.19,15.2,1.12,22-2.12,19.44-9.23,39.7-36.43,38.92-58.53-.09-2.54-.55-5.21-2.19-7.15-2.25-2.67-6.06-3.27-9.53-3.6a183.76,183.76,0,0,0-32.67-.18A30.07,30.07,0,0,0,291.89,213.42Z"/><path class="cls-14" d="M136,345.18A152.73,152.73,0,0,1,109.55,328c-2.56-2-5.08-4.21-7.48-6.45a121.74,121.74,0,0,1-10.56-10.74,48.66,48.66,0,0,1,7.6-10.86c5.72-6.17,13.48-10.7,21.88-11.58,2.48-.24,5.24-.12,7.16,1.49a10.6,10.6,0,0,1,2.52,3.68C138.31,309.8,137,327.63,136,345.18Z"/><path class="cls-15" d="M202.06,287.56l-22-5.93a4.8,4.8,0,0,0-1.64-.24c-1.3.1-2.28,1.18-3.12,2.18-2,2.46-11.29,9.57-11.2,12.77.48,13.09,29.81,15.61,39.05,16.73q1.88-8.69,3.74-17.38c.43-2,.8-4.25-.41-5.88-.95-1.28-2.6-1.77-4.14-2.19Z"/><path class="cls-16" d="M209.13,135.76c4.83-4.62,12.77-15.58,8.81-22.06s-14.39-6.86-18-.47A41.67,41.67,0,0,0,195.59,125a5.21,5.21,0,0,0,0,3,5.3,5.3,0,0,0,1.5,1.9,41.42,41.42,0,0,0,9,6.2,2.79,2.79,0,0,0,2.06.43A2.92,2.92,0,0,0,209.13,135.76Z"/><path class="cls-17" d="M266.72,293c1.26-3.28-.63-6.86-2.45-9.87-1.26-2.09-2.71-4.33-5-5.12-3-1-6.14.76-8.63,2.67-4.62,3.56-10.13,5-8.67,11.71,1,4.44,6.2,8.22,9.06,11.46a3.22,3.22,0,0,0,2.36,1.42,3.14,3.14,0,0,0,1.66-.84q4.54-3.58,8.74-7.59A11.21,11.21,0,0,0,266.72,293Z"/><path class="cls-18" d="M161.84,179.44a4.93,4.93,0,0,0,2,1.35c6.5,2.36,13.64-8.46,6.5-12.39C164.29,165.08,157.57,174.61,161.84,179.44Z"/><path class="cls-19" d="M262.78,207.17c.42,1.92,2.21,3.16,3.6,4.56a11.4,11.4,0,0,0,1.68,1.58,5.26,5.26,0,0,0,5.61-.23,11.53,11.53,0,0,0,3.73-4.55c.88-1.68,1.56-3.82.51-5.41s-3-1.74-4.69-1.9c-2.34-.2-4.78-.4-7,.47S262.27,204.87,262.78,207.17Z"/><path class="cls-20" d="M179.12,344.66a4.43,4.43,0,0,0,2.08-1.41l7.39-7.49a14.11,14.11,0,0,0,3.22-4.25,4.73,4.73,0,0,0-.65-5,6.92,6.92,0,0,0-1.85-1.2c-2.66-1.36-5.56-2.75-8.49-2.23-4.14.72-6.77,5.07-7.25,9.24a17,17,0,0,0,1.84,9.77C176.17,343.48,177.52,345,179.12,344.66Z"/><path class="cls-21" d="M226.62,173.05c.39,2.3,2.85,3.58,5.08,4.25,2,.59,4.23.95,5.93-.2s2.21-3.43,2.56-5.47a5.48,5.48,0,0,0-.12-3.31c-1-2.14-4.1-2-6.43-1.46a13.21,13.21,0,0,0-4.83,1.78A4.73,4.73,0,0,0,226.62,173.05Z"/><path class="cls-22" d="M354.55,241.36a143.84,143.84,0,0,1-9,28.21.2.2,0,0,1,0,.12,125.31,125.31,0,0,1-6,12.14,152.16,152.16,0,0,1-230,46.12c-2.56-2-5.08-4.21-7.48-6.45a121.74,121.74,0,0,1-10.56-10.74c-.52-.52-1-1-1.44-1.6-.68-.8-1.4-1.56-2-2.45a108.13,108.13,0,0,1-7.16-9.29,143.24,143.24,0,0,1-9-14.15c-1.36-2.44-2.68-5-3.84-7.53-.2-.4-.4-.76-.56-1.16-2-4.13-3.8-8.49-5.4-12.9A159,159,0,0,1,57,244.77c-.32-1.36-.6-2.68-.88-4.05v0A123.52,123.52,0,0,1,54,228.06c-.4-3.24-.68-6.45-.84-9.65-.08-.84-.08-1.69-.12-2.53a144.94,144.94,0,0,1,3.84-41.67c.76-3.48,1.72-7,2.8-10.41A151.44,151.44,0,0,1,67.75,143,153.27,153.27,0,0,1,109.55,90c2.48-2,5-3.92,7.64-5.77-71.69,93.67-39,175-5.36,219.48,15.11,20,40.73,35.4,65.48,39.11C262.69,355.58,365.27,283,342,140.68a153.65,153.65,0,0,1,11.88,32.61l.16.72c.76,3.37,1.4,6.69,2,10.06a114.09,114.09,0,0,1,1.52,12.74c.12,1.64.28,3.29.32,4.89A147.15,147.15,0,0,1,354.55,241.36Z"/><g class="cls-23"><path class="cls-24" d="M282.67,115.63A56.12,56.12,0,0,0,250.55,85a58.11,58.11,0,0,0-44.4,2.14,47.86,47.86,0,0,0-16.22,12.2,40.07,40.07,0,0,0-6.64,11.21c-6.1,15.66-1,35,12.07,45.58A59,59,0,0,0,207,163.19c14.71,7.05,31.69,10.7,47.47,6.56s29.75-17.33,31.55-33.56A41.92,41.92,0,0,0,282.67,115.63Z"/></g><ellipse class="cls-25" cx="207.19" cy="207.53" rx="207.19" ry="207.53"/><ellipse class="cls-25" cx="205.43" cy="207.53" rx="179.04" ry="179.34"/></g></g></svg>