<svg xmlns="http://www.w3.org/2000/svg" xmlns:xlink="http://www.w3.org/1999/xlink" viewBox="0 0 391.82 392.47"><defs><style>.cls-1{mask:url(#mask);filter:url(#luminosity-noclip-3);}.cls-2,.cls-4{mix-blend-mode:multiply;}.cls-2{fill:url(#linear-gradient);}.cls-3{mask:url(#mask-2);filter:url(#luminosity-noclip-4);}.cls-4{fill:url(#linear-gradient-2);}.cls-5,.cls-6{opacity:0.16;}.cls-5{fill:url(#linear-gradient-3);}.cls-6{fill:url(#linear-gradient-4);}.cls-7{fill:url(#linear-gradient-5);}.cls-8{fill:url(#linear-gradient-6);}.cls-9{fill:url(#linear-gradient-7);}.cls-10{fill:url(#linear-gradient-8);}.cls-11{fill:url(#linear-gradient-9);}.cls-12{fill:url(#linear-gradient-10);}.cls-13{fill:url(#linear-gradient-11);}.cls-14{fill:url(#linear-gradient-12);}.cls-15{fill:url(#linear-gradient-13);}.cls-16{fill:url(#linear-gradient-14);}.cls-17{opacity:0.66;fill:url(#linear-gradient-15);}.cls-18{fill:url(#linear-gradient-16);}.cls-19{fill:url(#linear-gradient-17);}.cls-20{fill:url(#linear-gradient-18);}.cls-21{fill:url(#linear-gradient-19);}.cls-22{fill:url(#linear-gradient-20);}.cls-23{fill:url(#linear-gradient-21);}.cls-24{fill:url(#linear-gradient-22);}.cls-25{fill:url(#linear-gradient-23);}.cls-26{mask:url(#mask-3);}.cls-27{opacity:0.27;fill:url(#linear-gradient-24);}.cls-28{mask:url(#mask-4);}.cls-29{opacity:0.51;fill:url(#linear-gradient-25);}.cls-30{filter:url(#luminosity-noclip-2);}.cls-31{filter:url(#luminosity-noclip);}</style><filter id="luminosity-noclip" x="78.42" y="-7764.31" width="266.4" height="32766" filterUnits="userSpaceOnUse" color-interpolation-filters="sRGB"><feFlood flood-color="#fff" result="bg"/><feBlend in="SourceGraphic" in2="bg"/></filter><mask id="mask" x="78.42" y="-7764.31" width="266.4" height="32766" maskUnits="userSpaceOnUse"><g class="cls-31"/></mask><linearGradient id="linear-gradient" x1="125.85" y1="75.73" x2="338.43" y2="263.86" gradientUnits="userSpaceOnUse"><stop offset="0" stop-color="#fff"/><stop offset="1" stop-color="#4d4d4d"/></linearGradient><filter id="luminosity-noclip-2" x="77.29" y="-7764.31" width="72" height="32766" filterUnits="userSpaceOnUse" color-interpolation-filters="sRGB"><feFlood flood-color="#fff" result="bg"/><feBlend in="SourceGraphic" in2="bg"/></filter><mask id="mask-2" x="77.29" y="-7764.31" width="72" height="32766" maskUnits="userSpaceOnUse"><g class="cls-30"/></mask><linearGradient id="linear-gradient-2" x1="-216.88" y1="127.28" x2="-191.51" y2="213.11" gradientTransform="translate(317.02 54.67) rotate(-0.18)" gradientUnits="userSpaceOnUse"><stop offset="0" stop-color="#fff"/><stop offset="1"/></linearGradient><linearGradient id="linear-gradient-3" x1="302.27" y1="475.13" x2="-127.32" y2="-651.34" gradientUnits="userSpaceOnUse"><stop offset="0" stop-color="#fd3cc9"/><stop offset="0.89" stop-color="#d635c5"/></linearGradient><linearGradient id="linear-gradient-4" x1="286.85" y1="434.7" x2="-80.46" y2="-528.46" xlink:href="#linear-gradient-3"/><linearGradient id="linear-gradient-5" x1="309.86" y1="310.07" x2="83.38" y2="83.59" gradientUnits="userSpaceOnUse"><stop offset="0.08" stop-color="#7a29bb"/><stop offset="0.54" stop-color="#e73fc7"/><stop offset="1" stop-color="#fffc87"/></linearGradient><linearGradient id="linear-gradient-6" x1="95.22" y1="161.06" x2="115.9" y2="90.18" gradientUnits="userSpaceOnUse"><stop offset="0" stop-color="#ff6fb9"/><stop offset="1" stop-color="#ffc29a"/></linearGradient><linearGradient id="linear-gradient-7" x1="95.07" y1="161.02" x2="115.74" y2="90.13" gradientUnits="userSpaceOnUse"><stop offset="0" stop-color="#ff5097"/><stop offset="1" stop-color="#ffab7c"/></linearGradient><linearGradient id="linear-gradient-8" x1="150.29" y1="101.11" x2="160.34" y2="76.78" xlink:href="#linear-gradient-6"/><linearGradient id="linear-gradient-9" x1="150.28" y1="101.1" x2="160.33" y2="76.78" xlink:href="#linear-gradient-7"/><linearGradient id="linear-gradient-10" x1="74.8" y1="220.7" x2="74.55" y2="189.05" gradientUnits="userSpaceOnUse"><stop offset="0" stop-color="#ff3dca"/><stop offset="1" stop-color="#ffa179"/></linearGradient><linearGradient id="linear-gradient-11" x1="73.98" y1="211.53" x2="73.72" y2="179.87" gradientUnits="userSpaceOnUse"><stop offset="0" stop-color="#cf4086"/><stop offset="1" stop-color="#ff907c"/></linearGradient><linearGradient id="linear-gradient-12" x1="286.26" y1="143.38" x2="249.21" y2="91.23" gradientUnits="userSpaceOnUse"><stop offset="0.08" stop-color="#9b29bf"/><stop offset="1" stop-color="#ec38c7"/></linearGradient><linearGradient id="linear-gradient-13" x1="286.26" y1="143.37" x2="249.22" y2="91.24" gradientUnits="userSpaceOnUse"><stop offset="0" stop-color="#7f208d"/><stop offset="0.89" stop-color="#d635c5"/></linearGradient><linearGradient id="linear-gradient-14" x1="246.53" y1="172.63" x2="224.7" y2="115.38" gradientUnits="userSpaceOnUse"><stop offset="0.08" stop-color="#af2dc1"/><stop offset="1" stop-color="#ff46c8"/></linearGradient><linearGradient id="linear-gradient-15" x1="246.53" y1="172.63" x2="224.7" y2="115.39" gradientUnits="userSpaceOnUse"><stop offset="0" stop-color="#741f9a"/><stop offset="0.89" stop-color="#d635c5"/></linearGradient><linearGradient id="linear-gradient-16" x1="199.94" y1="282.32" x2="138.41" y2="135.86" gradientUnits="userSpaceOnUse"><stop offset="0" stop-color="#a22ac0"/><stop offset="0.89" stop-color="#d635c5"/></linearGradient><linearGradient id="linear-gradient-17" x1="199.94" y1="282.32" x2="138.41" y2="135.88" gradientUnits="userSpaceOnUse"><stop offset="0" stop-color="#86199a"/><stop offset="0.89" stop-color="#d635c5"/></linearGradient><linearGradient id="linear-gradient-18" x1="116.25" y1="296.19" x2="111.22" y2="244.06" gradientUnits="userSpaceOnUse"><stop offset="0.08" stop-color="#aa2cc1"/><stop offset="1" stop-color="#ff3dc9"/></linearGradient><linearGradient id="linear-gradient-19" x1="116.25" y1="296.19" x2="111.22" y2="244.06" gradientUnits="userSpaceOnUse"><stop offset="0" stop-color="#862a9a"/><stop offset="0.89" stop-color="#d635c5"/></linearGradient><linearGradient id="linear-gradient-20" x1="247.74" y1="322.8" x2="266.26" y2="216.39" gradientUnits="userSpaceOnUse"><stop offset="0" stop-color="#72279d"/><stop offset="1" stop-color="#8e27be"/></linearGradient><linearGradient id="linear-gradient-21" x1="250.7" y1="322.89" x2="253.83" y2="214.91" gradientUnits="userSpaceOnUse"><stop offset="0" stop-color="#5e1676"/><stop offset="0.89" stop-color="#9635c3"/></linearGradient><linearGradient id="linear-gradient-22" x1="312.22" y1="244.51" x2="275.52" y2="190.41" gradientUnits="userSpaceOnUse"><stop offset="0" stop-color="#7227b1"/><stop offset="0.88" stop-color="#a627bf"/></linearGradient><linearGradient id="linear-gradient-23" x1="307.02" y1="236.86" x2="270.33" y2="182.76" gradientUnits="userSpaceOnUse"><stop offset="0" stop-color="#701d8e"/><stop offset="0.89" stop-color="#a235b1"/></linearGradient><filter id="luminosity-noclip-3" x="78.42" y="46.98" width="266.4" height="285.31" filterUnits="userSpaceOnUse" color-interpolation-filters="sRGB"><feFlood flood-color="#fff" result="bg"/><feBlend in="SourceGraphic" in2="bg"/></filter><mask id="mask-3" x="78.42" y="46.98" width="266.4" height="285.31" maskUnits="userSpaceOnUse"><g class="cls-1"><path class="cls-2" d="M344.82,196.14a149.24,149.24,0,0,1-88,136.15c48.33-42.14,91.29-99,54.76-191.83C295.27,98.94,248.76,66.88,202,96.94c-25.94,16.64-52.45,59.06-86.12,58.53-14.58-.24-27.86-10.77-33.6-24.19a45.47,45.47,0,0,1-2.81-28.18A148.6,148.6,0,0,1,195.91,47C278.16,47,344.82,113.75,344.82,196.14Z"/></g></mask><linearGradient id="linear-gradient-24" x1="125.85" y1="75.73" x2="338.43" y2="263.86" gradientUnits="userSpaceOnUse"><stop offset="0" stop-color="#ffeaff"/><stop offset="1" stop-color="#ffe0ff"/></linearGradient><filter id="luminosity-noclip-4" x="77.29" y="184.07" width="72" height="82.43" filterUnits="userSpaceOnUse" color-interpolation-filters="sRGB"><feFlood flood-color="#fff" result="bg"/><feBlend in="SourceGraphic" in2="bg"/></filter><mask id="mask-4" x="77.29" y="184.07" width="72" height="82.43" maskUnits="userSpaceOnUse"><g class="cls-3"><ellipse class="cls-4" cx="113.29" cy="225.28" rx="34.74" ry="42.26" transform="translate(-78.94 62.08) rotate(-22.97)"/></g></mask><linearGradient id="linear-gradient-25" x1="-216.88" y1="127.28" x2="-191.51" y2="213.11" gradientTransform="translate(317.02 54.67) rotate(-0.18)" xlink:href="#linear-gradient-24"/></defs><g id="Layer_2" data-name="Layer 2"><g id="Ñëîé_1" data-name="Ñëîé 1"><ellipse class="cls-5" cx="195.91" cy="196.24" rx="195.91" ry="196.24"/><ellipse class="cls-6" cx="195.91" cy="196.24" rx="167.51" ry="167.79"/><path class="cls-7" d="M344.82,196.14A148.85,148.85,0,0,1,195.91,345.3C113.7,345.3,47,278.49,47,196.14A149,149,0,0,1,195.91,47C278.16,47,344.82,113.75,344.82,196.14Z"/><path class="cls-8" d="M95.59,152c11.31,1.71,23.87-23.58,27.89-31.59a18.42,18.42,0,0,0,2.28-6.81,7,7,0,0,0-2.7-6.35c-2.36-1.55-5.47-1-8.2-.23q-2.6.69-5.18,1.47c-7.43,2.26-15.23,5.52-19.2,12.2C86.6,127.23,84.4,150.33,95.59,152Z"/><path class="cls-9" d="M98.21,126.6c6.23-9.37,16.8-13,27.54-13.2a6.92,6.92,0,0,0-2.69-6.13c-2.36-1.55-5.47-1-8.2-.23q-2.6.69-5.18,1.47c-7.43,2.26-15.23,5.52-19.2,12.2-3.77,6.35-5.93,28.32,4.26,31.07C92.59,143.32,93.72,133.36,98.21,126.6Z"/><path class="cls-10" d="M165.59,88.13a3.5,3.5,0,0,0-.52-.5,7.77,7.77,0,0,0-3.2-1.3c-5.91-1.36-12.63-1.17-17.4,2.58-1.31,1-2.52,2.7-1.92,4.27A4.08,4.08,0,0,0,144.28,95c2,1.26,5,2.81,7.39,2.82a14,14,0,0,0,4.52-1c2.48-.86,4.75-2.36,7.16-3.47,1.25-.58,2.63-1.31,3-2.64A2.91,2.91,0,0,0,165.59,88.13Z"/><path class="cls-11" d="M143.1,94a10.3,10.3,0,0,1,5.44-3.06,38.43,38.43,0,0,1,17.62.11,1.58,1.58,0,0,0,.16-.35,2.91,2.91,0,0,0-.73-2.56,3.5,3.5,0,0,0-.52-.5,7.77,7.77,0,0,0-3.2-1.3c-5.91-1.36-12.63-1.17-17.4,2.58-1.31,1-2.52,2.7-1.92,4.27A2.48,2.48,0,0,0,143.1,94Z"/><path class="cls-12" d="M69,209.64c1.74,3.49,4,6.92,7.33,8.93a3.27,3.27,0,0,0,1.87.6c1.37-.1,2.17-1.57,2.61-2.88A30.09,30.09,0,0,0,82,211.45a18,18,0,0,0-.37-8.53,9.89,9.89,0,0,0-5.54-6.22,6.87,6.87,0,0,0-7.78,1.94,7.53,7.53,0,0,0-1.24,5.53A17.46,17.46,0,0,0,69,209.64Z"/><path class="cls-13" d="M73.44,213.67c-1.68-3.9-2.6-8.54,1.54-11.33A8.85,8.85,0,0,1,80.8,201a9.37,9.37,0,0,0-4.69-4.29,6.87,6.87,0,0,0-7.78,1.94,7.53,7.53,0,0,0-1.24,5.53,17.46,17.46,0,0,0,1.9,5.47,22.57,22.57,0,0,0,6.07,8C74.51,216.27,74,214.93,73.44,213.67Z"/><path class="cls-14" d="M235.07,109.65a10.86,10.86,0,0,0-.4,1.22c-1.64,6.35,2.64,12.65,7.2,17.35,14,14.44,37.82,11.64,54.45,2.93,3.93-2.07,8-5.68,7.36-10.09-.44-3.12-3.12-5.38-5.7-7.17a78.14,78.14,0,0,0-42.54-13.71c-4.21-.08-8.52.2-12.4,1.83A14.4,14.4,0,0,0,235.07,109.65Z"/><path class="cls-15" d="M303.68,121.06c-.44-3.12-3.12-5.38-5.7-7.17-2-1.35-4-2.57-6.07-3.73.56,6.24-1.94,12.57-7.86,16.08a35.35,35.35,0,0,1-30.93,2c-8-3.3-13.28-9.7-18.63-16.09-.85,5.92,3.11,11.72,7.38,16.12,14,14.44,37.82,11.64,54.45,2.93C300.25,129.08,304.32,125.47,303.68,121.06Z"/><path class="cls-16" d="M243.69,167.66c10.32-.7,10.39-14.24,2.3-19.15-5.25-3.18-17.39-4.31-17.55,4.47-.05,3.15,1.6,6.1,3.58,8.55,2.53,3.14,6,5.89,10,6.13A13.44,13.44,0,0,0,243.69,167.66Z"/><path class="cls-17" d="M247.4,149.53a8.37,8.37,0,0,1,.09,8.87c-2.62,4-8.37,4-12.13,1.73a18.53,18.53,0,0,1-6.88-7.52c0,.12,0,.24,0,.37-.05,3.15,1.6,6.1,3.58,8.55,2.53,3.14,6,5.89,10,6.13a13.44,13.44,0,0,0,1.68,0C253.37,167,254,155.06,247.4,149.53Z"/><path class="cls-18" d="M136.54,240.39A122.73,122.73,0,0,0,189,272.85c3.86,1.19,7.94,2.19,11.91,1.44a18.86,18.86,0,0,0,7.73-3.7c9.73-7.38,13.88-20.06,15.27-32.2,1.28-11.15-.15-18.56-10.26-24.47-19.14-11.21-42.51-10.85-63.1-3.63-5.51,1.93-11,4.52-14.82,9s-5.54,11.07-2.89,16.28A21.49,21.49,0,0,0,136.54,240.39Z"/><path class="cls-19" d="M213.61,213.92a60.17,60.17,0,0,0-6.15-3.12c8.7,9.18,9.72,23.87,3,36-11.08,20-26.93,11-44.54,1.86-13-6.72-24.67-14.39-32.62-25.78-2,4-2.51,8.74-.51,12.68a21.49,21.49,0,0,0,3.74,4.87A122.73,122.73,0,0,0,189,272.85c3.86,1.19,7.94,2.19,11.91,1.44a19,19,0,0,0,7.74-3.7c9.72-7.38,13.87-20.06,15.26-32.2C225.15,227.24,223.72,219.83,213.61,213.92Z"/><path class="cls-20" d="M110.33,297c4.48,2.73,9.9,3.38,14.08-1.09a13.83,13.83,0,0,0,2.84-5.13,14.09,14.09,0,0,0,.62-7.91c-1.06-4.13-4.77-6.16-8.82-6.24a25.33,25.33,0,0,0-10.13,1.93c-3.33,1.39-6.7,4.12-6.65,7.74a9.14,9.14,0,0,0,2,4.94A20.92,20.92,0,0,0,110.33,297Z"/><path class="cls-21" d="M127.87,282.87a7.64,7.64,0,0,0-2.43-4c0,.1.07.18.08.28.71,4.31-.51,9.81-4.76,12-5.75,2.95-14.75-.23-18.38-5.92a5.91,5.91,0,0,0-.11,1,9.14,9.14,0,0,0,2,4.94,20.92,20.92,0,0,0,6.11,5.76c4.48,2.73,9.9,3.38,14.08-1.09a13.83,13.83,0,0,0,2.84-5.13A14.09,14.09,0,0,0,127.87,282.87Z"/><path class="cls-22" d="M230.92,323.88c1.06,1.54,3.13,2.15,6.69,1.12,13.25-3.86,20.45-15.07,28-25.65a54.13,54.13,0,0,0,6-9.78,10,10,0,0,0,1-4.73c-.72-8.46-13.71-5.76-18.09-2.68-3.19,2.24-5.67,5.31-8.17,8.29-4,4.79-8.22,9.46-11.48,14.79C232.3,309.33,228.14,319.82,230.92,323.88Z"/><path class="cls-23" d="M243.27,317.52c-8.62,1.84-10.12-4.4-9-11.32-2.51,4.56-6,13.89-3.35,17.68,1.06,1.54,3.13,2.15,6.69,1.12,13.25-3.86,20.45-15.07,28-25.65a54.13,54.13,0,0,0,6-9.78,10,10,0,0,0,1-4.73,5.66,5.66,0,0,0-1.26-3.18C269.41,286.15,251.28,315.82,243.27,317.52Z"/><path class="cls-24" d="M283,244.91c2.19,3.18,5.18,6.38,9,6.52,3.19.12,6.05-1.92,8.43-4.07a58.06,58.06,0,0,0,15.08-21.74c2.4-6.07,3.66-13.27.39-18.92a20.38,20.38,0,0,0-6.58-6.45,41.53,41.53,0,0,0-19.5-6.72,17.13,17.13,0,0,0-8.81,1.19c-6,2.9-8,10.53-8.08,17.22A57.22,57.22,0,0,0,283,244.91Z"/><path class="cls-25" d="M316,206.7a20.38,20.38,0,0,0-6.58-6.45c-.45-.29-.94-.52-1.39-.8a37.82,37.82,0,0,1,2.91,11.77c.67,9.73-5.71,24.39-17.67,23.47-13-1-17.74-15.77-19.45-29.38a31.93,31.93,0,0,0-.79,6.63,57.22,57.22,0,0,0,10,33c2.19,3.18,5.18,6.38,9,6.52,3.19.12,6.05-1.92,8.43-4.07a58.06,58.06,0,0,0,15.08-21.74C318,219.55,319.25,212.35,316,206.7Z"/><g class="cls-26"><path class="cls-27" d="M344.82,196.14a149.24,149.24,0,0,1-88,136.15c48.33-42.14,91.29-99,54.76-191.83C295.27,98.94,248.76,66.88,202,96.94c-25.94,16.64-52.45,59.06-86.12,58.53-14.58-.24-27.86-10.77-33.6-24.19a45.47,45.47,0,0,1-2.81-28.18A148.6,148.6,0,0,1,195.91,47C278.16,47,344.82,113.75,344.82,196.14Z"/></g><g class="cls-28"><ellipse class="cls-29" cx="113.29" cy="225.28" rx="34.74" ry="42.26" transform="translate(-78.94 62.08) rotate(-22.97)"/></g></g></g></svg>