<svg xmlns="http://www.w3.org/2000/svg" xmlns:xlink="http://www.w3.org/1999/xlink" viewBox="0 0 310.36 310.88"><defs><style>.cls-1{fill:url(#linear-gradient);}.cls-2{fill:url(#linear-gradient-2);}.cls-3{opacity:0.72;fill:url(#linear-gradient-3);}.cls-10,.cls-18,.cls-4,.cls-8{opacity:0.7;}.cls-4{fill:url(#linear-gradient-4);}.cls-5{fill:url(#linear-gradient-5);}.cls-12,.cls-20,.cls-6{opacity:0.57;}.cls-6{fill:url(#linear-gradient-6);}.cls-13,.cls-7{opacity:0.74;}.cls-7{fill:url(#linear-gradient-7);}.cls-8{fill:url(#linear-gradient-8);}.cls-9{fill:url(#linear-gradient-9);}.cls-10{fill:url(#linear-gradient-10);}.cls-11{fill:url(#linear-gradient-11);}.cls-12{fill:url(#linear-gradient-12);}.cls-13{fill:url(#linear-gradient-13);}.cls-14{fill:url(#linear-gradient-14);}.cls-15{fill:url(#linear-gradient-15);}.cls-16{opacity:0.8;fill:url(#linear-gradient-16);}.cls-17{fill:url(#linear-gradient-17);}.cls-18{fill:url(#linear-gradient-18);}.cls-19{fill:url(#linear-gradient-19);}.cls-20{fill:url(#linear-gradient-20);}.cls-21{fill:url(#linear-gradient-21);}</style><linearGradient id="linear-gradient" x1="268.44" y1="17.25" x2="29.92" y2="308.04" gradientUnits="userSpaceOnUse"><stop offset="0.03" stop-color="#79ff1d"/><stop offset="0.43" stop-color="#79e072"/><stop offset="1" stop-color="#406bc7"/></linearGradient><linearGradient id="linear-gradient-2" x1="284.62" y1="-137.22" x2="-79.14" y2="292.09" gradientUnits="userSpaceOnUse"><stop offset="0" stop-color="#56c77e"/><stop offset="1" stop-color="#366d7f"/></linearGradient><linearGradient id="linear-gradient-3" x1="284.68" y1="-137.29" x2="-79.16" y2="292.12" gradientUnits="userSpaceOnUse"><stop offset="0" stop-color="#56b37e"/><stop offset="0.81" stop-color="#365258"/></linearGradient><linearGradient id="linear-gradient-4" x1="212.56" y1="-106.83" x2="-186.96" y2="364.68" gradientUnits="userSpaceOnUse"><stop offset="0" stop-color="#56b37e"/><stop offset="1" stop-color="#514f88"/></linearGradient><linearGradient id="linear-gradient-5" x1="262.96" y1="-166.31" x2="-136.56" y2="305.2" gradientUnits="userSpaceOnUse"><stop offset="0" stop-color="#56b37e"/><stop offset="0.81" stop-color="#436952"/></linearGradient><linearGradient id="linear-gradient-6" x1="384.33" y1="-200.11" x2="-24.81" y2="282.76" xlink:href="#linear-gradient-4"/><linearGradient id="linear-gradient-7" x1="384.33" y1="-200.11" x2="-24.81" y2="282.76" gradientUnits="userSpaceOnUse"><stop offset="0" stop-color="#56b37e"/><stop offset="0.84" stop-color="#485372"/></linearGradient><linearGradient id="linear-gradient-8" x1="312.58" y1="-58.31" x2="-12.39" y2="325.23" gradientUnits="userSpaceOnUse"><stop offset="0" stop-color="#56b37e"/><stop offset="1" stop-color="#517274"/></linearGradient><linearGradient id="linear-gradient-9" x1="312.57" y1="-58.29" x2="-12.38" y2="325.21" gradientUnits="userSpaceOnUse"><stop offset="0" stop-color="#56b37e"/><stop offset="0.81" stop-color="#45615e"/></linearGradient><linearGradient id="linear-gradient-10" x1="318.87" y1="33.68" x2="-14.78" y2="427.47" gradientUnits="userSpaceOnUse"><stop offset="0" stop-color="#4cb85e"/><stop offset="1" stop-color="#51796a"/></linearGradient><linearGradient id="linear-gradient-11" x1="351.91" y1="-5.31" x2="18.26" y2="388.47" gradientUnits="userSpaceOnUse"><stop offset="0" stop-color="#56c05b"/><stop offset="0.81" stop-color="#458160"/></linearGradient><linearGradient id="linear-gradient-12" x1="486.59" y1="-187.36" x2="-28.7" y2="420.79" xlink:href="#linear-gradient-4"/><linearGradient id="linear-gradient-13" x1="486.59" y1="-187.36" x2="-28.7" y2="420.79" gradientUnits="userSpaceOnUse"><stop offset="0" stop-color="#56b37e"/><stop offset="0.81" stop-color="#455b5e"/></linearGradient><linearGradient id="linear-gradient-14" x1="307.53" y1="175.83" x2="-23.56" y2="566.58" gradientTransform="translate(3.7 -123.52) rotate(-8)" gradientUnits="userSpaceOnUse"><stop offset="0" stop-color="#56d46a"/><stop offset="1" stop-color="#518d5e"/></linearGradient><linearGradient id="linear-gradient-15" x1="336.02" y1="142.21" x2="4.93" y2="532.96" gradientTransform="translate(3.7 -123.52) rotate(-8)" gradientUnits="userSpaceOnUse"><stop offset="0" stop-color="#56b37e"/><stop offset="0.81" stop-color="#456d59"/></linearGradient><linearGradient id="linear-gradient-16" x1="261.58" y1="-21.49" x2="-78.82" y2="380.25" gradientUnits="userSpaceOnUse"><stop offset="0" stop-color="#56bb6b"/><stop offset="1" stop-color="#396847"/></linearGradient><linearGradient id="linear-gradient-17" x1="288.04" y1="-52.72" x2="-57.63" y2="355.25" gradientUnits="userSpaceOnUse"><stop offset="0" stop-color="#56b37e"/><stop offset="0.81" stop-color="#2e7242"/></linearGradient><linearGradient id="linear-gradient-18" x1="385.33" y1="48.23" x2="98.26" y2="387.03" xlink:href="#linear-gradient-4"/><linearGradient id="linear-gradient-19" x1="404.54" y1="18.04" x2="117.47" y2="356.84" gradientUnits="userSpaceOnUse"><stop offset="0" stop-color="#56b37e"/><stop offset="0.81" stop-color="#456f63"/></linearGradient><linearGradient id="linear-gradient-20" x1="317.07" y1="47.05" x2="74.93" y2="332.82" xlink:href="#linear-gradient-4"/><linearGradient id="linear-gradient-21" x1="317.07" y1="47.05" x2="74.93" y2="332.82" gradientUnits="userSpaceOnUse"><stop offset="0" stop-color="#56b37e"/><stop offset="0.84" stop-color="#484f6d"/></linearGradient></defs><g id="Layer_2" data-name="Layer 2"><g id="Ñëîé_1" data-name="Ñëîé 1"><path class="cls-1" d="M310.36,155.44v.73a146.52,146.52,0,0,1-2.78,28.38c-.08.58-.22,1.17-.37,1.83-.73,4-1.68,7.92-2.78,11.8-1,3.6-2.2,7.19-3.52,10.71A151,151,0,0,1,287.23,237a.53.53,0,0,0-.15.3c-2.42,3.88-5,7.69-7.76,11.36h-.15a154.24,154.24,0,0,1-44.5,40.11,150.39,150.39,0,0,1-38.57,16.57,140.15,140.15,0,0,1-16.55,3.52,149.05,149.05,0,0,1-24.37,2h-1.47a153.22,153.22,0,0,1-68.36-16.65,155.35,155.35,0,0,1-59-52.2,6.55,6.55,0,0,1-.58-.95A149.32,149.32,0,0,1,6.15,198.62a11.11,11.11,0,0,1-.51-1.54A156.61,156.61,0,0,1,1,173.33a145.4,145.4,0,0,1-1-17.89,135.64,135.64,0,0,1,1-17.23A154.55,154.55,0,0,1,60.1,32.63,143.63,143.63,0,0,1,77.3,20.9c2.27-1.25,4.61-2.57,7-3.74.51-.22,1-.52,1.46-.74a146.52,146.52,0,0,1,18.45-7.91A155.58,155.58,0,0,1,137.9,1,148.88,148.88,0,0,1,155.18,0a153.16,153.16,0,0,1,74.51,19.14,133.32,133.32,0,0,1,16.47,10.48,149.41,149.41,0,0,1,36.09,36.73c2.34,3.23,4.54,6.68,6.66,10.2a154.8,154.8,0,0,1,11,22.8A156.43,156.43,0,0,1,310.36,155.44Z"/><path class="cls-2" d="M72.41,69.64c-8.06,0-15.65,2.73-22.39,7a77.93,77.93,0,0,0-9.34,7.14c-3.14,2.73-5.71,7.09-8,1.45L28.17,74.1l-1.61,0c-1.3,3-.53,6.46.42,9.6s2.08,6.4,1.4,9.6a27.88,27.88,0,0,1-7.07-1.28,2.71,2.71,0,0,0-1.55-.19c-1,.31-1.25,1.75-.78,2.72a18.83,18.83,0,0,0,2,2.52c3,4.26-2,8.44-4.14,11.7a35.31,35.31,0,0,0-5.66,13.64A22.08,22.08,0,0,0,15,138.73c4.05,5.82,7.12,8.75,7.6,16.3.27,4.35.6,9.1,3.55,12.31a1.65,1.65,0,0,0,1.16.67,16.57,16.57,0,0,1,2.66-7.25,12,12,0,0,1,3.72-4.26c4-2.46,9.91,2.84,13.91,4.22a55.7,55.7,0,0,0,16.09,3.21c5.94.21,12.45-.88,17.62-4,2.23-1.33,3.33-2.79,6-3.26a17.55,17.55,0,0,1,9.64,1.35c3.14,1.36,5.86,3.58,9,4.85a3.88,3.88,0,0,0,2.68.32c2.11-.72,1.93-3.78,1.07-5.85a27.79,27.79,0,0,0-6.88-9.82c-1.66-1.52-3.71-3.71-2.56-5.66s4.1-1.26,6.09-2.26a3.89,3.89,0,0,0,1.62-5.08c-.64-1.21-1.86-2-2.82-2.93-3.38-3.39-2.9-9.94-3.5-14.38-1-7.09-4.54-14.44-4.25-21.56s3.8-14.38,8-20.12c4.72-6.46,10.75-11.82,16.81-17-2.2-.71-4.46.77-6.2,2.29C110,66,105,72.63,98.19,76.69a6.29,6.29,0,0,1-3.14,1.1A2.49,2.49,0,0,1,92.53,76a3.67,3.67,0,0,1,1-2.64c4.42-6.21,9.91-11.88,12.38-19.1-4.35,2.15-6.74,6.85-10.22,10.23C88.74,71.16,81,69.64,72.41,69.64Z"/><path class="cls-3" d="M102.79,147.55c-1.66-1.52-3.7-3.71-2.56-5.66s4.1-1.26,6.09-2.26a3.89,3.89,0,0,0,1.62-5.08c-.64-1.21-1.86-2-2.82-2.93a9.16,9.16,0,0,1-2.1-3.94A61.55,61.55,0,0,1,99,136c-5.57,9.14-16.31,17.24-27,18.85-18.29,2.75-36.48.22-48.29-15.48-15.12-20.12,4.42-42.66,20.44-54,8.42-5.94,17.27-9.84,26.37-14.51.71-.36,1.29-.84,2-1.25-8.06,0-15.65,2.73-22.39,7a77.93,77.93,0,0,0-9.34,7.14c-3.14,2.73-5.71,7.09-8,1.45L28.17,74.1l-1.61,0c-1.3,3-.53,6.46.42,9.6s2.08,6.4,1.4,9.6a27.88,27.88,0,0,1-7.07-1.28,2.71,2.71,0,0,0-1.55-.19c-1,.31-1.25,1.75-.78,2.72a18.83,18.83,0,0,0,2,2.52c3,4.26-2,8.44-4.14,11.7a35.31,35.31,0,0,0-5.66,13.64A22.08,22.08,0,0,0,15,138.73c4.05,5.82,7.12,8.75,7.6,16.3.27,4.35.6,9.1,3.55,12.31a1.65,1.65,0,0,0,1.16.67,16.57,16.57,0,0,1,2.66-7.25,12,12,0,0,1,3.72-4.26c4-2.46,9.91,2.84,13.91,4.22a55.7,55.7,0,0,0,16.09,3.21c5.94.21,12.45-.88,17.62-4,2.23-1.33,3.33-2.79,6-3.26a17.46,17.46,0,0,1,9.64,1.35c3.14,1.36,5.86,3.58,9,4.85a3.93,3.93,0,0,0,2.68.32c2.11-.72,1.93-3.78,1.07-5.85A27.79,27.79,0,0,0,102.79,147.55Z"/><path class="cls-4" d="M137.88.93a71.67,71.67,0,0,1-5.84,17,32.36,32.36,0,0,1-13.28,14c-5.66,3-11.51,2.57-17.24,6a4.38,4.38,0,0,0-1.21,1c-.69.9-.57,2.17-.9,3.26s-1.79,2-2.54,1.18c-.58-2-1.17-4-1.75-6.06a1.75,1.75,0,0,0-.58-1,1.53,1.53,0,0,0-1.63.27c-1.4,1-2.28,2.55-3.4,3.86s-2.76,2.45-4.44,2.1l1.11-8.71c-4-.52-7.72,1.89-10.83,4.43a77.55,77.55,0,0,0-16.07,18c-.6.92-1.84,2-2.59,1.16a61.09,61.09,0,0,1,9.94-16.13C69.52,38,78.89,32.76,80.12,29c.89-2.75-3.07-5-2.61-7.28s6-4.18,8.14-5.26a152.77,152.77,0,0,1,18.49-7.88A156.23,156.23,0,0,1,137.88.93Z"/><path class="cls-5" d="M134.4,1.42c-1.64,15-15.64,30.57-35.11,31.31-8.64.33-16-6.14-17.85-14.39-1.91.94-3.68,2.07-3.93,3.33C77.05,24,81,26.2,80.12,29c-1.23,3.81-10.6,9-13.49,12.4a61.09,61.09,0,0,0-9.94,16.13c.75.8,2-.24,2.59-1.16a77.55,77.55,0,0,1,16.07-18c3.11-2.54,6.85-4.95,10.83-4.43l-1.11,8.71c1.68.35,3.32-.79,4.44-2.1s2-2.87,3.4-3.86a1.53,1.53,0,0,1,1.63-.27,1.75,1.75,0,0,1,.58,1l1.75,6.06c.75.85,2.2-.09,2.54-1.18s.21-2.36.9-3.26a4.21,4.21,0,0,1,1.21-1c5.73-3.46,11.58-3,17.24-6a32.36,32.36,0,0,0,13.28-14,71.67,71.67,0,0,0,5.84-17C136.71,1.06,135.57,1.26,134.4,1.42Z"/><path class="cls-6" d="M43,231.92a4.87,4.87,0,0,0-.06,5.13,17.52,17.52,0,0,0,2.76,3.33,18.68,18.68,0,0,1,2.15,2.87,1.61,1.61,0,0,1,.32,1.35c-.29.73-1.36.65-2.09.36a16.28,16.28,0,0,1-6.13-4.8c-2.48-2.92-2.9-1.73-5.42-.66-1.08.46-7.9,2.84-8.75,1.57A140.05,140.05,0,0,1,17.42,227,143.67,143.67,0,0,1,6.12,198.6c-.5-1.79,11.51-5.65,12.89-5.88,4.47-.73,10.37,2.29,13.9-1.4,1.46-1.52,2.34-3.5,3.58-5.2s3.1-3.22,5.2-3.09c.21,4.24-4.57,7.37-4.71,11.62,2.1.15,3.87-1.46,5.36-3l5.48-5.53c2.61-2.63,5.36-5.35,8.89-6.49.76-.24,1.77-.32,2.17.37s-.29,1.66-.94,2.26c-4.37,4-7.85,8.91-11.29,13.76a15.82,15.82,0,0,0-2.51,4.5c-1.45,4.83,2.85,9.77,3.43,14.52a23.7,23.7,0,0,1-2.41,13.21C44.49,229.62,43.6,230.75,43,231.92Z"/><path class="cls-7" d="M46.65,196.06c3.44-4.85,6.92-9.74,11.29-13.76.65-.6,1.38-1.5.94-2.26s-1.41-.61-2.17-.37c-3.53,1.14-6.28,3.86-8.89,6.49l-5.48,5.53c-1.49,1.5-3.26,3.11-5.36,3,.14-4.25,4.92-7.38,4.71-11.62-2.1-.13-4,1.39-5.2,3.09s-2.12,3.68-3.58,5.2c-3.53,3.69-9.43.67-13.9,1.4-1.38.23-13.39,4.09-12.89,5.88.21.74.52,1.44.74,2.18A17.92,17.92,0,0,1,23,197.36c10.5,3.1,17.95,12.61,17.4,23.78C40,230.3,33.62,238,24.58,239.23c.4.6.76,1.24,1.17,1.84.85,1.27,7.67-1.11,8.75-1.57,2.52-1.07,2.94-2.26,5.42.66a16.28,16.28,0,0,0,6.13,4.8c.73.29,1.8.37,2.09-.36a1.61,1.61,0,0,0-.32-1.35,18.68,18.68,0,0,0-2.15-2.87,17.52,17.52,0,0,1-2.76-3.33,4.87,4.87,0,0,1,.06-5.13c.63-1.17,1.52-2.3,2.19-3.63a23.72,23.72,0,0,0,2.41-13.22c-.58-4.74-4.88-9.68-3.43-14.51A15.82,15.82,0,0,1,46.65,196.06Z"/><path class="cls-8" d="M143,109.51a1.86,1.86,0,0,1-2,.23,5.09,5.09,0,0,1-1.79-1.89L128.84,92a1.67,1.67,0,0,0-1-.87c-1-.17-1.36,1.24-1.18,2.21.67,3.72,3.25,6.74,5,10.07a25.33,25.33,0,0,1,2.81,14.77c-.53,4.73-3.1,8.74-3.63,13.48-1.24,11,4.57,17.48,13,23.38a24.09,24.09,0,0,0,6.21,3.49A8.19,8.19,0,0,0,157,158c1.05-.68,1.87-1.66,2.88-2.38,5.4-3.85,13.77-1.64,17.75,3.12.94,1.13,3.12,5,4.85,5,3.58-.07-1-7.85-.85-9.93.15-2.93,2.76-5.37,4.33-7.65,2-2.87,4.52-5.92,5.29-9.39.6-2.7-1.54-6.49.19-8.63,1-1.22,2.48-1.89,3.7-2.88,1-.79,1.84-2.11,1.32-3.26l-7.2,2.36c-1.1.36-2.68.5-3-.6a2,2,0,0,1,.44-1.67c3.06-4.45,9.62-4.62,13.93-7.88.77-.58,1.52-1.64,1-2.43a1.91,1.91,0,0,0-1.7-.56c-3.74.17-7,2.56-10.45,3.93a20.06,20.06,0,0,1-12.39.71c-3.65-1-7.25-2-10.89-3-6.51-1.7-15.84-1.58-19.49-8.45l-4.88-9.18c-.51-1-1.41-2.1-2.44-1.74-1.19.42-.92,2.16-.44,3.33a124.17,124.17,0,0,1,4.39,12.4A1.21,1.21,0,0,1,143,109.51Z"/><path class="cls-9" d="M189.27,124.28a6.17,6.17,0,0,1-.65.16c.62,13.28-7.55,27.05-24.67,27.05-26.21,0-31.55-32.21-16.18-45.57a10.58,10.58,0,0,1-1.12-1.57l-4.88-9.18c-.51-1-1.41-2.11-2.44-1.74-1.19.42-.92,2.16-.44,3.33a124.17,124.17,0,0,1,4.39,12.4,1.21,1.21,0,0,1-.24.35,1.86,1.86,0,0,1-2,.23,5.09,5.09,0,0,1-1.79-1.89L128.84,92a1.67,1.67,0,0,0-1-.87c-1-.17-1.36,1.24-1.18,2.21.67,3.72,3.25,6.74,5,10.07a25.33,25.33,0,0,1,2.81,14.77c-.53,4.73-3.1,8.74-3.63,13.48-1.24,11,4.57,17.48,13,23.38a24.09,24.09,0,0,0,6.21,3.49A8.19,8.19,0,0,0,157,158c1.05-.68,1.87-1.66,2.88-2.38,5.4-3.85,13.77-1.64,17.75,3.12.94,1.13,3.12,5,4.85,5,3.58-.07-1-7.85-.85-9.93.15-2.93,2.76-5.37,4.33-7.65,2-2.87,4.52-5.92,5.29-9.39.6-2.7-1.54-6.49.19-8.63,1-1.22,2.48-1.89,3.7-2.88,1-.79,1.84-2.11,1.32-3.26Z"/><path class="cls-10" d="M300,99.34c-2.64,1.7-5.64,1.91-7.23,4.71s-.13,6.77-1.63,9.82c-.79,1.62-3.26,2.7-4.29,1.22a3.4,3.4,0,0,1-.42-2l-.09-8.35c-2.25-.57-4.26,1.7-4.93,3.92s-.66,4.71-1.91,6.66a2.82,2.82,0,0,1-2.77,1.52c-1.46-.34-1.88-2.22-1.84-3.72.12-4.43,1.79-8.44,3-12.63-7-2.47-12.44-8.28-12.44-16.18,0-5.08,5.49-11.3,1.77-15.7-1.64-1.93-3.71-3.47-5.35-5.4s-2.89-4.47-2.38-6.95c2.34-.58,4.15,1.91,5.48,3.92a64,64,0,0,0,5.25,6.59,7.94,7.94,0,0,0,3.07,2.49c1.68.61,8.16-4.2,9-3,2.36,3.27,4.55,6.7,6.63,10.2A154.54,154.54,0,0,1,300,99.34Z"/><path class="cls-11" d="M289.15,100.89c-18.6,0-24.48-27.38-6.51-33.95-.14-.2-.25-.42-.39-.61-.88-1.22-7.36,3.59-9,3a7.94,7.94,0,0,1-3.07-2.49,64,64,0,0,1-5.25-6.59c-1.33-2-3.14-4.5-5.48-3.92-.51,2.48.73,5,2.38,6.95s3.71,3.47,5.35,5.4c3.72,4.4-1.77,10.62-1.77,15.7,0,7.9,5.45,13.71,12.44,16.18-1.17,4.19-2.84,8.2-3,12.63,0,1.5.38,3.38,1.84,3.72a2.82,2.82,0,0,0,2.77-1.52c1.25-2,1.25-4.43,1.91-6.66s2.68-4.49,4.93-3.92l.09,8.35a3.4,3.4,0,0,0,.42,2c1,1.48,3.5.4,4.29-1.22,1.5-3.05,0-6.89,1.63-9.82s4.59-3,7.23-4.71c-.11-.27-.24-.53-.35-.8C298,99,291.05,100.89,289.15,100.89Z"/><path class="cls-12" d="M79.26,186c-4.49,5-4.11,12.23-2.52,18.28,1.08,4.1,3.75,7.76,4.8,11.75.92,3.54-.94,6.16-3.34,8.82l-7.38,8.21c-2,2.29-4.2,4.77-4.59,7.82,3.09-.33,5.79-2.27,8-4.5s4-4.81,6.27-6.93c1.17-1.08,3.22-2,4.15-.67.82,1.13-.19,2.65-1.15,3.66L69.15,247.54c-2.11,2.22-4.37,4.86-4.05,7.91,3.36.11,6.15-2.43,8.53-4.8l13.28-13.19a12.31,12.31,0,0,1,4.22-3.14c4.78-1.77,10.58,6.7,14,9.35a69.5,69.5,0,0,0,15.64,9.47,106.36,106.36,0,0,0,21.46,6.76c2.88.56,5.95.44,8.67,1.36,3.22,1.1,6.09,3.8,8.55,6.06a6.51,6.51,0,0,0,2.94,1.86c1.16.22,2.58-.51,2.62-1.69.08-2.07-3.74-3.32-2.75-5.14,2.15-.14,4,1.34,5.66,2.74l9.6,8.2c2.06,1.76,4.56,3.64,7.19,3,.68-1-.23-2.37-1.09-3.26l-8.06-8.42a6.38,6.38,0,0,1-1.66-2.37,2.2,2.2,0,0,1,.79-2.58c1.26-.72,2.71.47,3.78,1.45s2.94,1.77,3.79.59c.54-2-1-3.94-2.31-5.56-2.88-3.52-1.62-6.12-1-10.08,1.21-7.85-2.25-15.53-6.73-21.78-4.87-6.79-14.44-10.8-11.39-20.4,1.2-3.77,3.65-7,5.87-10.25,1.58-2.35,8.07-17.16.47-12-3.42,2.31-5.17,7-7.45,10.33-2.54,3.67-6,7.18-10.36,7.9,3.15-10.57,12.89-18.53,14.7-29.41-1.66-.52-3.25.9-4.39,2.22A113.9,113.9,0,0,0,149.79,186c-1.47,2.34-2.91,4.79-5,6.55-5.15,4.22-11.42,2.15-16.89-.07-7-2.83-13.73-5.93-20.92-8.12C98.64,181.79,86.08,178.52,79.26,186Z"/><path class="cls-13" d="M183.58,273.07l-8.06-8.42a6.38,6.38,0,0,1-1.66-2.37,2.2,2.2,0,0,1,.79-2.58c1.26-.72,2.71.47,3.78,1.45s2.94,1.77,3.79.59c.54-2-1-3.94-2.31-5.56-2.88-3.52-1.62-6.12-1-10.08,1.21-7.86-2.25-15.53-6.73-21.78-4.87-6.79-14.45-10.8-11.39-20.4,1.2-3.77,3.65-7,5.87-10.25,1.58-2.35,8.07-17.16.47-12-3.42,2.31-5.17,7-7.45,10.33-2.54,3.67-6,7.18-10.36,7.9,3.15-10.57,12.89-18.53,14.7-29.41-1.66-.52-3.25.9-4.39,2.22A113.9,113.9,0,0,0,149.79,186c-1.47,2.34-2.91,4.79-5,6.55-5.14,4.22-11.41,2.15-16.88-.07-7-2.83-13.73-5.93-20.92-8.12-8.3-2.53-20.86-5.8-27.68,1.69-4.49,5-4.11,12.23-2.52,18.28,1.08,4.1,3.75,7.76,4.8,11.75.92,3.54-.94,6.16-3.34,8.82l-7.38,8.21c-2,2.29-4.2,4.77-4.59,7.82,3.09-.33,5.79-2.27,8-4.5s4-4.81,6.27-6.93c1.17-1.08,3.22-2,4.15-.67.82,1.13-.19,2.65-1.15,3.66L69.15,247.54c-2.11,2.22-4.37,4.86-4.05,7.91,3.36.11,6.15-2.43,8.53-4.8l13.28-13.19a12.31,12.31,0,0,1,4.22-3.14c4.78-1.77,10.58,6.7,14,9.35a69.5,69.5,0,0,0,15.64,9.47,106.36,106.36,0,0,0,21.46,6.76c2.88.56,5.95.44,8.67,1.36,3.22,1.1,6.09,3.8,8.55,6.06a6.51,6.51,0,0,0,2.94,1.86c1.16.22,2.58-.51,2.62-1.69.08-2.07-3.74-3.32-2.75-5.14,2.15-.14,4,1.34,5.66,2.74l9.6,8.2c2.06,1.76,4.56,3.64,7.19,3C185.35,275.29,184.44,274,183.58,273.07ZM142.3,251.39c-8.81-4.74-33.68-13.52-54.85-39.06-15.1-18.2-1.43-32.83,29.85-20.5,21.12,8.32,32.81,13.61,46.86,26.82C179.75,233.31,160.21,261,142.3,251.39Z"/><path class="cls-14" d="M203.77,171.78c2.34,3.31,5.43,3.8,8.62,5.73,4.43,2.68,3.42,5.34,4.62,10.72.74,3.33,2.3,6.71,5.23,8.46a2.12,2.12,0,0,0,1.46.38c1-.21,1.3-1.52,1.32-2.56a48.39,48.39,0,0,0-1.13-11.7c-.3-1.36-.44-3.19.83-3.75s2.68,1.12,3.28,2.55l1.45,3.49c.65,1.57,1.69,3.41,3.39,3.37,1.45,0,2.49-1.55,2.62-3a15.21,15.21,0,0,0-.69-4.3,5.07,5.07,0,0,1,.56-4.2A82.46,82.46,0,0,0,259,167.43c9.8-5.87,24.88-19.78,21.46-33-1.74-6.73-7.33-6.28-12.54-8.72a23.62,23.62,0,0,1-11.16-11.52,29.54,29.54,0,0,1-1.67-13.59,52.84,52.84,0,0,1,1-7,28.3,28.3,0,0,0-5.45,12.1c-.86,4.57-.57,9.31-1.6,13.84-2,8.64-8.52,11.14-15.74,14.12A102.37,102.37,0,0,0,218,141.34C206.21,148.68,198.93,164.92,203.77,171.78Z"/><path class="cls-15" d="M280.47,134.42c-1.74-6.73-7.33-6.28-12.54-8.72a23.62,23.62,0,0,1-11.16-11.52,29.54,29.54,0,0,1-1.67-13.59,52.84,52.84,0,0,1,1-7,28.3,28.3,0,0,0-5.45,12.1c-.86,4.57-.57,9.31-1.6,13.84-2,8.64-8.52,11.14-15.74,14.12A102.37,102.37,0,0,0,218,141.34c-11.75,7.34-19,23.58-14.19,30.44,2.34,3.31,5.43,3.8,8.62,5.73,4.43,2.68,3.42,5.34,4.62,10.72.74,3.33,2.3,6.71,5.23,8.46a2.12,2.12,0,0,0,1.46.38c1-.21,1.3-1.52,1.32-2.56a48.52,48.52,0,0,0-1.13-11.71c-.3-1.35-.44-3.18.83-3.74s2.68,1.12,3.28,2.55l1.45,3.49c.65,1.57,1.69,3.41,3.39,3.37,1.45,0,2.49-1.55,2.62-3a15.21,15.21,0,0,0-.69-4.3,5.07,5.07,0,0,1,.56-4.2A82.46,82.46,0,0,0,259,167.43C268.81,161.56,283.89,147.65,280.47,134.42Zm-13.59,23.79c-5.29,6.24-26.3,13.7-30.8,15-9.6,2.7-22.83,1.65-25.47-7.94s4.91-18.89,13.58-23.83c7.77-4.43,30.46-16.71,38.12-12.22C270.2,133.82,277.46,145.74,266.88,158.21Z"/><path class="cls-16" d="M170.87,24.21a10.91,10.91,0,0,1-4.71-3,7.39,7.39,0,0,1-1-2.12q-2.29-6.63-4.6-13.26a3.55,3.55,0,0,0-2.17.57c-1,5,2.7,10.12,1.61,15.12-.16.7-.65,1.54-1.35,1.39a1.44,1.44,0,0,1-.77-.57,35.47,35.47,0,0,1-4.5-6.69,6,6,0,0,0-1.34-2,1.79,1.79,0,0,0-2.19-.18c-.75.61-.6,1.77-.37,2.71.63,2.65,3.44,9,2.68,11.51-.63,2.1-4.79,4.4-6.24,6.31-6.11,8-5.3,18.59-12.21,26.21-3.53,3.88-7.79,7-11.59,10.63A63,63,0,0,0,109,88.76c6.69-7.4,14.76-13.86,24.22-17C148,66.8,151.6,79.53,161.52,87.29A60.24,60.24,0,0,0,194.9,99.64c8.08.51,15-3,21,3.84a80.75,80.75,0,0,1,5.66,8,13.14,13.14,0,0,0,2.8,3.23,3.25,3.25,0,0,0,2.95.75,2.76,2.76,0,0,0,1.56-2.71,7.86,7.86,0,0,0-1-3.17q-2-4.08-3.91-8.17a5.33,5.33,0,0,1-.67-2.17c0-3.76,4.83-4.49,6.91-6.52,3.41-3.33,3.65-7.1,1.14-11.19-1.8-2.92-4.42-5.48-5.16-8.83l8.68,9.53c1.37,1.51,2.86,3.08,4.82,3.62,8.78,2.42,11.84-18,10.93-23.3-1.11-6.47-3.91-12.79-9.25-16.84-3.77-2.86-15-7.82-19.42-4.36-1.45,1.14-2.33,2.87-3.66,4.15s-3.58,2-5,.79-.91-3.76-1.87-5.47-3.42-2.27-5.29-1.55A8.64,8.64,0,0,0,202,43.44c-.95,1.77-1.59,3.7-2.56,5.45a15.94,15.94,0,0,1-2.3,3.17c-1,1-2.44,2-3.74,1.45-1.51-.67-1.56-2.77-1.37-4.41q.45-3.78.89-7.56C194.54,27.56,180.66,28,170.87,24.21Z"/><path class="cls-17" d="M234.27,66.1C228.76,62,224,56,224,49.9q-.06,9.35-.83,18.66a31.57,31.57,0,0,0-17.57-5.86c3.48,1.24,7.07,2.57,9.71,5.15,7,6.91.36,13.66-5.92,17.53s-13.81,4.9-21.16,3.91C165,86.17,139.51,63.38,153,38.83c5.09-9.25,16-11.45,24.81-6,3.71,2.32,7.8,6.6,8.74,11,1.37,6.47-2.14,16.08-5.45,21.53a91.62,91.62,0,0,0,8.48-12.2c2.35-3.94,2.74-7.07,3.28-11.69,1.65-14-12.23-13.52-22-17.33a10.91,10.91,0,0,1-4.71-3,7.39,7.39,0,0,1-1-2.12q-2.29-6.63-4.6-13.26a3.55,3.55,0,0,0-2.17.57c-1,5,2.7,10.12,1.61,15.12-.16.7-.65,1.54-1.35,1.39a1.44,1.44,0,0,1-.77-.57,35.47,35.47,0,0,1-4.5-6.69,6,6,0,0,0-1.34-2,1.79,1.79,0,0,0-2.19-.18c-.75.61-.6,1.77-.37,2.71.63,2.65,3.44,9,2.68,11.51-.63,2.1-4.79,4.4-6.25,6.31-6.1,8-5.29,18.58-12.2,26.21-3.53,3.88-7.79,7-11.59,10.63A62.9,62.9,0,0,0,109,88.76c6.69-7.4,14.76-13.86,24.22-17C148,66.8,151.6,79.53,161.52,87.29A60.24,60.24,0,0,0,194.9,99.64c8.08.51,15-3,21,3.84a80.75,80.75,0,0,1,5.66,8,13.14,13.14,0,0,0,2.8,3.23,3.25,3.25,0,0,0,2.95.75,2.76,2.76,0,0,0,1.56-2.71,7.86,7.86,0,0,0-1-3.17q-2-4.09-3.91-8.17a5.33,5.33,0,0,1-.67-2.17c0-3.76,4.83-4.49,6.91-6.52,3.41-3.33,3.65-7.1,1.14-11.19-1.8-2.92-4.42-5.48-5.16-8.83l8.68,9.53c1.37,1.51,2.86,3.08,4.82,3.62,4.75,1.31,7.45-4.16,8.76-7.77.63-1.75,1.79-7.24,1.79-7.24s-6,.15-7.58-.34A30,30,0,0,1,234.27,66.1Z"/><path class="cls-18" d="M307.21,186.37a119,119,0,0,1-2.81,11.83,153.24,153.24,0,0,1-25.19,50.53,155.89,155.89,0,0,1-44.54,40.11c-3.73-4-6-9.23-10-12.64-5.37-4.52-11.94-7.75-17.36-12.36-3.72-3.17-7.54-7.18-7.41-12.07,6,.34,9.65,8,15.68,8.44,1.19-2.3-.14-5.06-1.63-7.17-5.77-8.12-14.38-13.93-19.89-22.22a37.89,37.89,0,0,1-6-25.41l2.86,8.07c1.6,4.52,3.24,9.1,6,13s6.86,7.13,11.6,7.74c7.78,1,11.68-5.25,14.55-11.23a67.13,67.13,0,0,1,12.59-18.28c9.83-10,21.27-15.19,34.49-18.37,12.51-3,19.69-17.62,20.86-29.57.4-4.06.36-8.4,2.57-11.82a1.51,1.51,0,0,1,.78-.7c.78-.22,1.35.72,1.56,1.5,2.44,8.86-2.43,18-3.12,27.15a2.72,2.72,0,0,0,.32,1.85,1.9,1.9,0,0,0,2.44.29A5,5,0,0,0,297.2,173a30.53,30.53,0,0,0,2.55-6.62c.64-.93,2.24-.53,2.81.45a5.21,5.21,0,0,1,.28,3.32q-1,7.23-2,14.48C300.8,184.75,306.76,186.25,307.21,186.37Z"/><path class="cls-19" d="M262.14,198.4a71.06,71.06,0,0,1,43.88-7c.39-1.68.88-3.32,1.19-5-.45-.12-6.41-1.62-6.39-1.76q1-7.25,2-14.48a5.21,5.21,0,0,0-.28-3.32c-.57-1-2.17-1.38-2.81-.45A30.53,30.53,0,0,1,297.2,173a5,5,0,0,1-1.68,2.07,1.9,1.9,0,0,1-2.44-.29,2.72,2.72,0,0,1-.32-1.85c.7-9.17,5.56-18.29,3.12-27.15-.21-.78-.78-1.72-1.56-1.5a1.51,1.51,0,0,0-.78.7c-2.21,3.42-2.17,7.76-2.57,11.82-1.17,11.95-8.35,26.55-20.86,29.57-13.22,3.18-24.66,8.37-34.49,18.37A67.13,67.13,0,0,0,223,223c-2.87,6-6.77,12.25-14.55,11.23-4.74-.61-8.83-3.84-11.6-7.74s-4.4-8.49-6-13L188,205.41a37.89,37.89,0,0,0,6,25.41c5.51,8.29,14.12,14.1,19.89,22.22,1.49,2.11,2.82,4.87,1.63,7.17-6-.43-9.64-8.1-15.68-8.44-.13,4.89,3.69,8.9,7.41,12.07,5.42,4.61,12,7.84,17.35,12.36,3.69,3.11,6,7.74,9.17,11.54C233.09,284.91,234.4,212.58,262.14,198.4Z"/><path class="cls-20" d="M153.74,310.86a153.41,153.41,0,0,1-68.38-16.61c-.53-.27,8.5-12.08,8.6-13.94.12-2.25-2.26-3.69-4.26-4.72a29.57,29.57,0,0,1-8.31-6,15,15,0,0,1-4.18-9.19c0-1,.32-2.37,1.35-2.41.72,0,1.25.64,1.67,1.24a38.83,38.83,0,0,0,17.32,13.61c0-4.29-5.39-6.66-6.5-10.8-.27-1-.11-2.32.85-2.71s1.87.35,2.59,1c4.37,4.09,9.35,9.78,15.57,10.86s11.85-.08,18,1.9c8.8,2.81,20.17,8.6,25.47,16.6C156.22,293.63,155.15,303.15,153.74,310.86Z"/><path class="cls-21" d="M153.57,289.74c-5.3-8-16.67-13.79-25.47-16.6-6.19-2-12-.85-18-1.9s-11.2-6.77-15.57-10.86c-.72-.67-1.68-1.38-2.59-1s-1.12,1.71-.85,2.71c1.11,4.14,6.55,6.51,6.5,10.8a38.83,38.83,0,0,1-17.32-13.61c-.42-.6-1-1.27-1.67-1.24-1,0-1.4,1.38-1.35,2.41a15,15,0,0,0,4.18,9.19,29.57,29.57,0,0,0,8.31,6c2,1,4.38,2.47,4.26,4.72-.1,1.86-9.13,13.67-8.6,13.94s1.08.49,1.61.76a16.61,16.61,0,0,1,7-7.51c15.73-8.48,42.45-13.42,51.88,6.88a21,21,0,0,1,1,16.22c2.28.12,4.57.24,6.87.26C155.15,303.15,156.22,293.63,153.57,289.74Z"/></g></g></svg>