<svg xmlns="http://www.w3.org/2000/svg" xmlns:xlink="http://www.w3.org/1999/xlink" viewBox="0 0 354.19 354.78"><defs><style>.cls-1{mask:url(#mask);filter:url(#luminosity-noclip-3);}.cls-2,.cls-4{mix-blend-mode:multiply;}.cls-2{fill:url(#linear-gradient);}.cls-3{mask:url(#mask-2);filter:url(#luminosity-noclip-4);}.cls-4{fill:url(#linear-gradient-2);}.cls-5{fill:#8deaff;opacity:0.13;}.cls-6{fill:url(#linear-gradient-3);}.cls-7{fill:#fff;}.cls-8{fill:url(#linear-gradient-4);}.cls-9{fill:url(#linear-gradient-5);}.cls-10{fill:url(#linear-gradient-6);}.cls-11{fill:url(#linear-gradient-7);}.cls-12{mask:url(#mask-3);}.cls-13{opacity:0.34;fill:url(#linear-gradient-8);}.cls-14{mask:url(#mask-4);}.cls-15{opacity:0.47;fill:url(#linear-gradient-9);}.cls-16{filter:url(#luminosity-noclip-2);}.cls-17{filter:url(#luminosity-noclip);}</style><filter id="luminosity-noclip" x="26.79" y="-8155.99" width="300.6" height="32766" filterUnits="userSpaceOnUse" color-interpolation-filters="sRGB"><feFlood flood-color="#fff" result="bg"/><feBlend in="SourceGraphic" in2="bg"/></filter><mask id="mask" x="26.79" y="-8155.99" width="300.6" height="32766" maskUnits="userSpaceOnUse"><g class="cls-17"/></mask><linearGradient id="linear-gradient" x1="91.54" y1="52.17" x2="238.5" y2="267.28" gradientUnits="userSpaceOnUse"><stop offset="0.08" stop-color="#fff"/><stop offset="0.95"/></linearGradient><filter id="luminosity-noclip-2" x="83.25" y="-8155.99" width="90.76" height="32766" filterUnits="userSpaceOnUse" color-interpolation-filters="sRGB"><feFlood flood-color="#fff" result="bg"/><feBlend in="SourceGraphic" in2="bg"/></filter><mask id="mask-2" x="83.25" y="-8155.99" width="90.76" height="32766" maskUnits="userSpaceOnUse"><g class="cls-16"/></mask><linearGradient id="linear-gradient-2" x1="102.76" y1="122.38" x2="153.33" y2="196.39" gradientUnits="userSpaceOnUse"><stop offset="0" stop-color="#fff"/><stop offset="1"/></linearGradient><linearGradient id="linear-gradient-3" x1="16.34" y1="69.89" x2="355.53" y2="296.78" gradientUnits="userSpaceOnUse"><stop offset="0.14" stop-color="#f59bff"/><stop offset="0.59" stop-color="#17b7de"/><stop offset="0.95" stop-color="#0063a5"/></linearGradient><linearGradient id="linear-gradient-4" x1="113.09" y1="25.85" x2="349.99" y2="226.27" gradientUnits="userSpaceOnUse"><stop offset="0.05" stop-color="#c161ff"/><stop offset="0.46" stop-color="#594cc5"/><stop offset="1" stop-color="#0043ac"/></linearGradient><linearGradient id="linear-gradient-5" x1="56.14" y1="93.29" x2="293.11" y2="293.76" xlink:href="#linear-gradient-4"/><linearGradient id="linear-gradient-6" x1="19.98" y1="136.16" x2="244.22" y2="325.87" xlink:href="#linear-gradient-4"/><linearGradient id="linear-gradient-7" x1="-5.69" y1="166.54" x2="231.16" y2="366.91" xlink:href="#linear-gradient-4"/><filter id="luminosity-noclip-3" x="26.79" y="26.83" width="300.6" height="299.38" filterUnits="userSpaceOnUse" color-interpolation-filters="sRGB"><feFlood flood-color="#fff" result="bg"/><feBlend in="SourceGraphic" in2="bg"/></filter><mask id="mask-3" x="26.79" y="26.83" width="300.6" height="299.38" maskUnits="userSpaceOnUse"><g class="cls-1"><path class="cls-2" d="M324.56,206.28c-.63,3.23-1.33,6.39-2.19,9.5a191.89,191.89,0,0,0-14.08-80.43c-14-33.93-38.94-64.36-72.4-79.4-12.31-5.53-25.46-8.9-38.65-11.58-15.79-3.15-32.12-5.45-47.84-2.08C66.68,60,36.32,150.91,46.84,205.69c10.12,52.56,59.5,97.47,107.78,120.52-2.11-.3-4.26-.67-6.37-1.08-4.56-.92-9-2-13.42-3.26A150.47,150.47,0,0,1,29.63,148.53a146.93,146.93,0,0,1,12.56-37.38c29.13-59.72,95.57-94.88,163.75-81.48A150.45,150.45,0,0,1,324.56,206.28Z"/></g></mask><linearGradient id="linear-gradient-8" x1="91.54" y1="52.17" x2="238.5" y2="267.28" gradientUnits="userSpaceOnUse"><stop offset="0.08" stop-color="#fff"/><stop offset="0.95" stop-color="#0099cb"/></linearGradient><filter id="luminosity-noclip-4" x="83.25" y="114.79" width="90.76" height="90.91" filterUnits="userSpaceOnUse" color-interpolation-filters="sRGB"><feFlood flood-color="#fff" result="bg"/><feBlend in="SourceGraphic" in2="bg"/></filter><mask id="mask-4" x="83.25" y="114.79" width="90.76" height="90.91" maskUnits="userSpaceOnUse"><g class="cls-3"><ellipse class="cls-4" cx="128.63" cy="160.24" rx="45.38" ry="45.45"/></g></mask><linearGradient id="linear-gradient-9" x1="102.76" y1="122.38" x2="153.33" y2="196.39" gradientUnits="userSpaceOnUse"><stop offset="0" stop-color="#ffe0ff"/><stop offset="1" stop-color="#9cffff"/></linearGradient></defs><g id="Layer_2" data-name="Layer 2"><g id="Ñëîé_1" data-name="Ñëîé 1"><ellipse class="cls-5" cx="177.09" cy="177.39" rx="177.09" ry="177.39"/><path class="cls-6" d="M324.56,206.28c-.63,3.23-1.33,6.39-2.19,9.5A150.1,150.1,0,0,1,154.62,326.21c-2.11-.3-4.26-.67-6.37-1.08-4.56-.92-9-2-13.42-3.26A150.47,150.47,0,0,1,29.63,148.53a146.93,146.93,0,0,1,12.56-37.38c29.13-59.72,95.57-94.88,163.75-81.48A150.45,150.45,0,0,1,324.56,206.28Z"/><path class="cls-7" d="M166.69,308.19c-.6.2-1.2.44-1.78.69-3.69,1.58-7,3.87-10.71,5.49a29.92,29.92,0,0,0-6,3c-1.78,1.33-3.16,3.5-2.82,5.7.54,3.48,4.67,5,8.12,5.59,20.83,3.82,43,2,63.58-2.59,19.43-4.32,38.39-12.35,53.58-25.45,1.9-1.63,3.81-3.46,4.53-5.85s-.24-5.48-2.63-6.24a7.3,7.3,0,0,0-3.62.11l-19.8,3.93c-2.35.47-4.84.92-7.08.09-1.88-.7-3.33-2.22-5.09-3.16-4.71-2.52-10.85-.63-15.54-3.17a8.17,8.17,0,0,0-2.34-1.09,6.22,6.22,0,0,0-3.09.6c-5.07,1.81-10.65,2-15.55,4.27s-9.1,7.73-7.23,12.79a7.72,7.72,0,0,1,.86,2.83,4.14,4.14,0,0,1-1,2.21c-5.4,7.15-10.38,2.31-16.56,0A14.7,14.7,0,0,0,166.69,308.19Z"/><path class="cls-8" d="M316.06,165.13A35.31,35.31,0,0,1,291.71,191c-2.85.75-5.83,1.2-8.11,3-3.83,3-4.35,8.47-4.52,13.28-.23,4.46-.4,9,.75,13.34.62,2.57,1.71,5.09,2.17,7.73,1.31,8.3-4.23,16-9.49,22.55a8,8,0,0,1-3.6,3.15c-2.57,1-5.49-.8-6.92-3.15s-1.82-5.21-2.45-7.9c-3.38-14.43-14.35-25.65-24.86-36.07-2.52-2.51-5.38-5.21-9-5.49-3.37-.29-7.08,1.6-9.94-.17s-2.69-6.19-3-9.73c-.75-8.71-7.15-16.15-7.83-24.91-.8-9.62,5.77-18.6,14.06-23.53s18-6.64,27.49-8.3l19.37-3.26c3-.52,6.06-1.09,8.34-3.09a10.43,10.43,0,0,0,3.15-6.53c2.34-19.69-34.12-19.52-42.75-8.13-2.75,3.55-3.6,8.19-5.55,12.2s-6,7.84-10.4,7c-2.74-.57-4.8-2.75-7.08-4.29-6.29-4.24-9.49,2.46-15.44,3.2-3.37.46-6.68-1.71-8.28-4.75a14.32,14.32,0,0,1-.8-9.9c.8-3.32,2.46-6.47,2.57-9.85s-1.94-7.33-5.37-7.44a9,9,0,0,1-3.78,6c-2.4-2.12-6.34-1.09-8.8,1s-4.28,4.87-7,6.7-6.86,2.18-8.63-.51a6.18,6.18,0,0,1-.8-3.9c.52-6.18,6.17-10.42,9.77-15.51,4.86-6.93,6.41-16.37,13.21-21.35,6.4-4.7,14.68-3.61,22.11-3.9,9.15-.34,10.75-3,17.38-8.47a190.88,190.88,0,0,1,25.6-17.69A150.35,150.35,0,0,1,314,115.21a55.45,55.45,0,0,1-4.23,10.13c-1.32,2.29-3,4.46-4,7a13.54,13.54,0,0,0,1.37,11.91c2.23,3.44,6.06,5.78,8,9.45C317,157.11,316.86,161.29,316.06,165.13Z"/><path class="cls-9" d="M110.32,103.55c.5-.08,1-.15,1.51-.2a28.1,28.1,0,0,1,9.76.59c2.15.51,4.55,1.62,5,3.79.57,2.76-2.32,4.82-4,7-3.75,4.89-2.1,12.14-4.82,17.67-3.33,6.75-10.92,7.45-15.79,12.29-4.48,4.44-4.22,11.08-7.28,16.19-3.3,5.51-7.34,6.39-10.87,1.41-4.5-6.33-5-11.2-1.71-18.17,2-4.2,3.47-8.95,2.29-13.44s-4.7-7.77-6-12.1C73.81,103.57,90,104.25,99.71,104.88,103.28,105.12,106.78,104.12,110.32,103.55Z"/><path class="cls-10" d="M77.09,236.47a5.51,5.51,0,0,1-5.46,1.08,16.43,16.43,0,0,1-5-2.92L57.8,228c-7.86-5.93-17.5-7-26-12.13a149.83,149.83,0,0,1-2.18-67.33,147.88,147.88,0,0,1,12.58-37.38c1.65-.74,3.43-1.37,5.14-1.94,4.8-1.66,10.52-4.87,15.77-4.3,10.46,1.2,4.06,12.42,1.6,18.38-1.54,3.78-3.14,7.73-2.62,11.79s3,7.44,4.4,11.22c2.48,6.85,1.24,14.24,2.72,21.26,1.72,8.15,4.59,9.58,11.48,12.84a9,9,0,0,1,5.15,8.14,7.84,7.84,0,0,1-6,7.31,15.74,15.74,0,0,1-4.39,0c-5.21-.45-12.31-.41-15,4.92-2.48,4.89-1.47,13.41.94,18,2.79,5.27,7.48,9.22,12,13.06C74.93,233.1,76.54,234.53,77.09,236.47Z"/><path class="cls-11" d="M136.72,271.89c-1.43,7.56,2.05,15.29,1.25,23s-5.88,14.94-4.23,22.44c.29,1.55.92,3,1.09,4.58a149.64,149.64,0,0,1-78-54.27v-.11c.17-4.41,1.83-9,.34-13.17-1.2-3.21-4.23-5.84-4.23-9.28.06-3.83,4.06-6.58,7.83-6.75s7.43,1.49,10.92,2.92a98.46,98.46,0,0,0,25.2,6.47,16.53,16.53,0,0,0,5.83-.12c5.89-1.43,8.69-7.95,13.2-12a17.48,17.48,0,0,1,28.81,15.8C143.57,258.67,138,264.62,136.72,271.89Z"/><g class="cls-12"><path class="cls-13" d="M324.56,206.28c-.63,3.23-1.33,6.39-2.19,9.5a191.89,191.89,0,0,0-14.08-80.43c-14-33.93-38.94-64.36-72.4-79.4-12.31-5.53-25.46-8.9-38.65-11.58-15.79-3.15-32.12-5.45-47.84-2.08C66.68,60,36.32,150.91,46.84,205.69c10.12,52.56,59.5,97.47,107.78,120.52-2.11-.3-4.26-.67-6.37-1.08-4.56-.92-9-2-13.42-3.26A150.47,150.47,0,0,1,29.63,148.53a146.93,146.93,0,0,1,12.56-37.38c29.13-59.72,95.57-94.88,163.75-81.48A150.45,150.45,0,0,1,324.56,206.28Z"/></g><g class="cls-14"><ellipse class="cls-15" cx="128.63" cy="160.24" rx="45.38" ry="45.45"/></g><path class="cls-7" d="M102.56,72.45a71,71,0,0,0,8.5,7.5c3.52,2.56,7.6,4.66,12,4.75,6.48.14,12.15-4.07,17.24-8.08,2.34-1.85,4.81-3.88,5.66-6.74.35-1.16.39-2.39.69-3.57,1-3.82,4.47-6.59,8.23-7.77s7.78-1,11.72-.9l11.69.43a16,16,0,0,0,6.47-.65c3.93-1.55,5.93-5.81,7.85-9.58,3.42-6.73,8.31-15.71,15.57-17.71-20-10.77-57.53-8.6-81.47-.72-23,7.57-41.4,23-55.81,42.51-1.92,2.59-3.78,5.43-4.1,8.64-.57,5.63,2.77,7.75,7.79,5.75,2.35-.94,3.65-3,5.83-4,2.6-1.12,5.93.06,8.2-2a10.2,10.2,0,0,0,1.87-3,15.55,15.55,0,0,1,9.23-7.74C100.63,70.49,101.59,71.48,102.56,72.45Z"/></g></g></svg>