<svg xmlns="http://www.w3.org/2000/svg" xmlns:xlink="http://www.w3.org/1999/xlink" viewBox="0 0 430.5 411.45"><defs><style>.cls-1{fill:#8dfaff;opacity:0.13;}.cls-2{fill:url(#linear-gradient);}.cls-3{fill:url(#linear-gradient-2);}.cls-4{fill:url(#linear-gradient-3);}.cls-5{fill:url(#linear-gradient-4);}.cls-6{fill:url(#linear-gradient-5);}.cls-7{fill:url(#linear-gradient-6);}.cls-8{fill:url(#linear-gradient-7);}.cls-9{fill:url(#linear-gradient-8);}.cls-10{fill:url(#linear-gradient-9);}.cls-11{fill:url(#linear-gradient-10);}.cls-12{fill:url(#linear-gradient-11);}.cls-13{fill:url(#linear-gradient-12);}.cls-14{fill:url(#linear-gradient-13);}.cls-15{fill:url(#linear-gradient-14);}.cls-16{fill:url(#linear-gradient-15);}.cls-17{fill:url(#linear-gradient-16);}.cls-18,.cls-22{opacity:0.81;}.cls-18{fill:url(#linear-gradient-17);}.cls-19{fill:url(#linear-gradient-18);}.cls-20{opacity:0.84;fill:url(#linear-gradient-19);}.cls-21{fill:url(#linear-gradient-20);}.cls-22{fill:url(#linear-gradient-21);}</style><linearGradient id="linear-gradient" x1="213.87" y1="44.47" x2="217.67" y2="263.93" gradientUnits="userSpaceOnUse"><stop offset="0" stop-color="#7ae7ff"/><stop offset="1" stop-color="#0087d2"/></linearGradient><linearGradient id="linear-gradient-2" x1="195.52" y1="113.22" x2="241.94" y2="293.64" xlink:href="#linear-gradient"/><linearGradient id="linear-gradient-3" x1="205.25" y1="175.61" x2="261.96" y2="313.8" xlink:href="#linear-gradient"/><linearGradient id="linear-gradient-4" x1="216.92" y1="-8.24" x2="33.91" y2="304.71" gradientUnits="userSpaceOnUse"><stop offset="0" stop-color="#7ae2f3"/><stop offset="1" stop-color="#0060d3"/></linearGradient><linearGradient id="linear-gradient-5" x1="216.52" y1="-8.47" x2="33.52" y2="304.47" gradientUnits="userSpaceOnUse"><stop offset="0" stop-color="#7ad6f3"/><stop offset="1" stop-color="#0045b4"/></linearGradient><linearGradient id="linear-gradient-6" x1="233.38" y1="6.62" x2="50.35" y2="319.61" xlink:href="#linear-gradient-4"/><linearGradient id="linear-gradient-7" x1="233.15" y1="6.5" x2="50.15" y2="319.45" xlink:href="#linear-gradient-5"/><linearGradient id="linear-gradient-8" x1="151.79" y1="182.7" x2="120.37" y2="276.42" gradientUnits="userSpaceOnUse"><stop offset="0" stop-color="#7ae7ff"/><stop offset="1" stop-color="#0082c8"/></linearGradient><linearGradient id="linear-gradient-9" x1="151.72" y1="182.65" x2="120.29" y2="276.39" gradientUnits="userSpaceOnUse"><stop offset="0" stop-color="#63e0f8"/><stop offset="1" stop-color="#0074c2"/></linearGradient><linearGradient id="linear-gradient-10" x1="187.27" y1="224.32" x2="166.15" y2="273.61" xlink:href="#linear-gradient"/><linearGradient id="linear-gradient-11" x1="186.41" y1="223.93" x2="165.28" y2="273.23" xlink:href="#linear-gradient-9"/><linearGradient id="linear-gradient-12" x1="277.46" y1="314.15" x2="309.72" y2="314.15" gradientUnits="userSpaceOnUse"><stop offset="0" stop-color="#9bc4fc"/><stop offset="0.99" stop-color="#6188fd"/></linearGradient><linearGradient id="linear-gradient-13" x1="236.19" y1="338.31" x2="264.72" y2="338.31" xlink:href="#linear-gradient-12"/><linearGradient id="linear-gradient-14" x1="317.31" y1="287.15" x2="336.82" y2="287.15" xlink:href="#linear-gradient-12"/><linearGradient id="linear-gradient-15" x1="221.42" y1="237.04" x2="289.95" y2="346.25" xlink:href="#linear-gradient"/><linearGradient id="linear-gradient-16" x1="292.08" y1="248.06" x2="285.23" y2="334.1" gradientUnits="userSpaceOnUse"><stop offset="0" stop-color="#3ba4ff"/><stop offset="1" stop-color="#0070b3"/></linearGradient><linearGradient id="linear-gradient-17" x1="292.35" y1="248.09" x2="285.49" y2="334.12" gradientUnits="userSpaceOnUse"><stop offset="0" stop-color="#3b9aff"/><stop offset="1" stop-color="#0055a6"/></linearGradient><linearGradient id="linear-gradient-18" x1="263.15" y1="298.39" x2="251.96" y2="344.97" xlink:href="#linear-gradient-16"/><linearGradient id="linear-gradient-19" x1="263.15" y1="298.39" x2="251.96" y2="344.97" xlink:href="#linear-gradient-17"/><linearGradient id="linear-gradient-20" x1="322.53" y1="261.86" x2="322.53" y2="298.74" xlink:href="#linear-gradient-16"/><linearGradient id="linear-gradient-21" x1="323.16" y1="261.86" x2="323.16" y2="298.74" xlink:href="#linear-gradient-17"/></defs><g id="Layer_2" data-name="Layer 2"><g id="Ñëîé_1" data-name="Ñëîé 1"><path class="cls-1" d="M299.67,377.56c-19.95-3.65-40.3-9.13-54.44,12-3.87,5.78-5.86,13-11.1,17.54-8.24,7.16-21.46,4.79-30.19-1.74s-14.43-16.24-21.19-24.81c-22.95-29.11-60.52-45.61-97.37-42.92C57,339.68,32.29,324.21,38,292.45c2.35-13,8.6-24.91,13.45-37.21s8.32-25.9,4.84-38.65c-5.48-20.08-27.23-34.71-26.51-55.51.43-12.61,9.4-23.35,19.4-31s21.49-13.41,30.6-22.13C94,94.33,90.79,77.73,97.07,60.83a67.78,67.78,0,0,1,36.75-38.62c22.09-9.24,47-4,66.23,9.31,11.24,7.79,22.12,17,35.41,20.17,10.26,2.48,21,1.14,31.38-1,22.93-4.84,45.3-13.76,68.73-13.84s49.36,12,55.32,34.7c6.7,25.48-13.42,55.37,1,77.43,8.6,13.18,26.56,22.15,17.47,40.54-2.72,5.51-6.79,10.33-9,16.08-4,10.51-1,22.43,3.93,32.54s11.7,19.27,15.9,29.69,5.44,23-.64,32.43c-15.09,23.43-55.1,5.32-66.66,30.74-4.58,10.08-1,22.2-5.73,32.4S331,378.91,319.93,379.5C313.4,379.85,306.56,378.81,299.67,377.56Z"/><path class="cls-1" d="M160.66,381.93c-13-15.64-25-32.94-49.4-25.87-6.67,1.93-12.81,6.17-19.76,6.29-10.9.18-19.51-10.14-22-20.77s-.64-21.73-.32-32.65c1.09-37.07-17.11-73.9-47.07-95.55-23-16.67-32.08-44.44-7.31-65.08,10.14-8.46,22.58-13.55,34.17-19.85S72,114,77.47,102C86.15,83,78.88,57.83,92.77,42.36,101.19,33,115,30.52,127.53,31.08s25.07,3.56,37.64,2.74c19.62-1.28,27.8-16.07,43.45-25a67.55,67.55,0,0,1,52.93-5.93c22.86,7.13,38.59,27.21,44.77,49.77,3.62,13.2,6.07,27.23,14.19,38.24,6.28,8.5,15.41,14.42,24.72,19.4,20.67,11.05,43.54,18.62,61.54,33.64s30.12,41,20.13,62.19c-11.23,23.84-45.82,33.79-48.94,60-1.87,15.63,6.13,34.06-12.62,42.3-5.62,2.47-11.84,3.54-17.19,6.54-9.79,5.5-15.16,16.56-17.87,27.46s-3.4,22.3-6.87,33-10.57,21.11-21.29,24.43c-26.59,8.25-45.63-31.39-70.8-19.35-10,4.77-15,16.35-25.17,21.14s-22.36,1.51-31.22-5.16C169.71,392.52,165.13,387.32,160.66,381.93Z"/><path class="cls-2" d="M369.17,207.8c0,84.35-68.26,152.72-152.47,152.72S64.23,292.15,64.23,207.8c0-81.42,66.07-148.91,146.18-153.22,7.53-.41,15.69-.6,22.76,2.42,6.4,2.74,10.27,8.66,16.39,11.72,8.81,4.4,19.33-.06,29.15.54,10.37.63,19.44,6.88,27.91,12.9,10.16,7.23,19.63,15.94,29,24.42C349,118.74,355.88,136,360,153.25,364.34,171.33,369.17,189,369.17,207.8Z"/><path class="cls-3" d="M369.17,207.8c0,84.35-68.26,152.72-152.47,152.72S69,292,64.23,207.8c-.87-15.26,1.91-30.46,6.75-46.5,3.49-11.57.91-22.94,11.15-31.78,9.51-8.2,24.11-6.64,35.63-1.67s21.81,12.8,33.85,16.32C182.51,153.22,216,132,247.17,140c7.3,1.89,14.15,5.33,21.49,7.08a48.65,48.65,0,0,0,27.78-1.6c8.27-3,15.54-8.21,23.26-12.45s16.41-7.61,25.14-6.47c6,.79,12.06,4.28,15.17,9.56,3.58,6.08.41,12.35.9,19,.38,5.24,2.1,10.4,3.26,15.51C366.94,182.85,369.17,195.24,369.17,207.8Z"/><path class="cls-4" d="M369.17,207.8c0,84.35-68.26,152.72-152.47,152.72C155.84,360.52,99.47,323,76,266.69c-4.92-11.79-8.78-23.35-10.75-38-1-7.44-.2-11.45-1.19-14.92-1.71-6-4-12-3.31-18.32,1.3-12.89,16.06-21.25,28.83-19.25,7.68,1.21,14.59,5.17,21.61,8.51a143.85,143.85,0,0,0,39.47,12.21c10.06,1.58,20.47,2.07,30.33-.44,29.15-7.43,54.15-36.55,86.59-27.09,8.57,2.5,16.28,7.63,25,9.5,11.41,2.45,23.35-1,33.78-6.19,6.13-3.07,12-6.81,18.52-8.92s14.07-2.39,19.88,1.25c6.21,3.88,7.26,10.2,5.7,16.67C368.35,190.47,369.17,198.54,369.17,207.8Z"/><path class="cls-5" d="M173.64,89c-12.35-5.14-26.79-.3-37.68,7.48a34.44,34.44,0,0,0-7.8,7.24c-2.06,2.77-3.49,6.27-2.77,9.64.91,4.21,5,7.14,9.24,7.92s8.57-.15,12.74-1.22c6.51-1.67,13-3.7,18.68-7.39s10.3-9.27,11.6-15.88c.37-1.86.42-3.93-.67-5.48A7.44,7.44,0,0,0,173.64,89Z"/><path class="cls-6" d="M148.17,98.63c2.62-1,18.11-6.78,29.32-1.19.06-.23.12-.46.16-.69.37-1.86.42-3.93-.67-5.48A7.44,7.44,0,0,0,173.64,89c-12.35-5.14-26.79-.3-37.68,7.48a34.44,34.44,0,0,0-7.8,7.24c-2.06,2.77-3.49,6.27-2.77,9.64a9.07,9.07,0,0,0,2.6,4.55C129,108.29,144.83,100,148.17,98.63Z"/><path class="cls-7" d="M181.89,80.16a7.54,7.54,0,0,0,1,1.33c5,5.46,22.78,2.6,20.13-6.94C199.64,62.43,176.73,71.29,181.89,80.16Z"/><path class="cls-8" d="M189.17,73.56c2.41-.85,4.93-.54,7.38-.19A11.22,11.22,0,0,1,203.24,77a6.51,6.51,0,0,0-.24-2.47c-3.36-12.12-26.27-3.26-21.11,5.61a6.51,6.51,0,0,0,.5.75A10.06,10.06,0,0,1,189.17,73.56Z"/><path class="cls-9" d="M108.5,250l-.14.28c-3.27,6.55-3.5,17.26,3.36,21.62,9.49,6,25.8,2,31.85-6.76a31.05,31.05,0,0,0,4.72-9.52c2.65-10.11-3.07-20.9-13.69-21.67S113.22,240.86,108.5,250Z"/><path class="cls-10" d="M142.06,263.71c-5.86,4.13-15.09,7.2-21.68,2.68-7.75-5.3-9.17-15.86-4.41-23.75a29.52,29.52,0,0,1,3.16-4.28A31.62,31.62,0,0,0,108.5,250l-.14.28c-3.27,6.55-3.5,17.26,3.36,21.62,9.49,6,25.8,2,31.85-6.76a38.87,38.87,0,0,0,3.25-5.53A31.6,31.6,0,0,1,142.06,263.71Z"/><path class="cls-11" d="M174.17,272a17.48,17.48,0,0,0,5.26-3.6c2.6-2.6,4-6.74,2.47-10.07-1.8-3.79-6.66-5.09-10.82-4.6-5.89.68-10.65,3.4-12.15,9.33-1.07,4.19.08,9.54,5,10.29A18.44,18.44,0,0,0,174.17,272Z"/><path class="cls-12" d="M167.56,270c-6.55-3.6-4.57-10.53-.44-15.37a11.59,11.59,0,0,0-8.19,8.48c-1.07,4.19.08,9.54,5,10.29a18.44,18.44,0,0,0,10.2-1.35,18,18,0,0,0,3.36-2C174.29,271.2,170.62,271.65,167.56,270Z"/><path class="cls-13" d="M280,337.14c5.87,1,11.92-1.6,16.27-5.68s7.23-9.44,9.77-14.84a35.57,35.57,0,0,0,3.59-10.78c1.13-9.4-6.86-18.31-15.92-13.62-7.94,4.1-10.74,17-13.89,24.47C277.06,323.22,276.25,331.12,280,337.14Z"/><path class="cls-14" d="M237,346.1a6.19,6.19,0,0,0,4.26,2.17c7.41,1.19,26.28-5.23,23.13-15.72C260.64,320.16,231,337.35,237,346.1Z"/><path class="cls-15" d="M325.67,295a13,13,0,0,0,10.9-9.39c.37-1.42.43-3.1-.55-4.19a4.7,4.7,0,0,0-1.52-1c-10.14-5-24.09,8.28-13.27,13.94A7.84,7.84,0,0,0,325.67,295Z"/><path class="cls-16" d="M366.35,202.49c3.84,1.7,12.67,12,6.49,26.37-2.07,4.82-6.6,12-8.17,17.08-2.65,8.55-6,18.67-9.85,27a152.23,152.23,0,0,1-230.9,56.44c-7.81-6-15.34-6.31-22.65-15.21-5.13-6.26-4.65-16.95,2.17-21.44,7.75-5.12,18.44-5.23,27.18-3.64,11,2,21.08,7.71,32.13,9.29a44.57,44.57,0,0,0,36-11.21c9.5-8.77,15.13-21.67,26.21-28.3,15.52-9.3,36.66-3.34,52.32-12.39,9.64-5.58,14.36-15.35,21.4-23.46,7.29-8.39,18.52-16,28.59-20.59A47.48,47.48,0,0,1,366.35,202.49Z"/><path class="cls-17" d="M277.36,332.31a7.11,7.11,0,0,0,5.05-1.29c8.14-5.12,12.89-11.24,17.7-19.57,1.93-3.34,3.93-7,3.53-10.81-.63-6-7.33-10-13.29-9.2s-10.88,5.2-14.1,10.27C272.24,308,264.78,330.1,277.36,332.31Z"/><path class="cls-18" d="M303.64,300.64a10,10,0,0,0-4.85-7.26c2.13,6.11-2,12-5.2,18-2.36,4.36-13.53,20-23,13.34.6,3.86,2.56,6.83,6.77,7.57a7.11,7.11,0,0,0,5.05-1.29c8.14-5.12,12.89-11.24,17.7-19.57C302,308.11,304,304.48,303.64,300.64Z"/><path class="cls-19" d="M255.4,330.08a17.57,17.57,0,0,0-11.74,6.76c-3,4.21-.57,7.84,4.5,8.14a21.49,21.49,0,0,0,8.22-.87c3.43-1.17,8.92-5,8.56-9.09a5.64,5.64,0,0,0-3.46-4.4,10.93,10.93,0,0,0-5.76-.59Z"/><path class="cls-20" d="M264.94,335a5.2,5.2,0,0,0-1.92-3.44,12,12,0,0,1-11.72,9.89A11.84,11.84,0,0,1,243,338c-1.82,3.7.59,6.71,5.19,7a21.49,21.49,0,0,0,8.22-.87C259.81,342.94,265.3,339.14,264.94,335Z"/><path class="cls-21" d="M315.59,294.92c1.84,3.54,5.43,5.5,9.54,2.05,3.82-3.21,8-11.63,4.05-16.29-2.63-3.08-8.74-2.47-11.47.13a12.45,12.45,0,0,0-2.12,14.11Z"/><path class="cls-22" d="M329.18,280.68a5.9,5.9,0,0,0-3.19-1.83,6.1,6.1,0,0,1,.93,2.23,14,14,0,0,1,.41,3.61,12,12,0,0,1-1.32,5,9.61,9.61,0,0,1-6.07,4.82,12.31,12.31,0,0,1-4.4.28l0,.09c1.84,3.54,5.43,5.5,9.54,2.05C329,293.76,333.15,285.34,329.18,280.68Z"/></g></g></svg>