<svg xmlns="http://www.w3.org/2000/svg" xmlns:xlink="http://www.w3.org/1999/xlink" viewBox="0 0 449.5 398.19"><defs><style>.cls-1{fill:#ed74ea;opacity:0.1;}.cls-2{fill:url(#linear-gradient);}.cls-3{fill:#fff;opacity:0.81;}.cls-4{fill:url(#linear-gradient-2);}.cls-5{fill:url(#linear-gradient-3);}.cls-6{fill:url(#linear-gradient-4);}.cls-7{fill:url(#linear-gradient-5);}.cls-8{fill:url(#linear-gradient-6);}.cls-9{fill:url(#linear-gradient-7);}.cls-10{fill:url(#linear-gradient-8);}.cls-11{fill:url(#linear-gradient-9);}.cls-12{fill:url(#linear-gradient-10);}.cls-13{fill:url(#linear-gradient-11);}.cls-14{fill:url(#linear-gradient-12);}.cls-15{fill:url(#linear-gradient-13);}.cls-16{fill:url(#linear-gradient-14);}.cls-17{fill:url(#linear-gradient-15);}.cls-18{fill:url(#linear-gradient-16);}.cls-19{fill:url(#linear-gradient-17);}.cls-20{fill:url(#linear-gradient-18);}.cls-21{fill:url(#linear-gradient-19);}.cls-22{fill:url(#linear-gradient-20);}.cls-23{fill:url(#linear-gradient-21);}.cls-24{fill:url(#linear-gradient-22);}.cls-25{fill:url(#linear-gradient-23);}.cls-26{fill:url(#linear-gradient-24);}.cls-27{fill:url(#linear-gradient-25);}.cls-28{fill:url(#linear-gradient-26);}.cls-29{fill:url(#linear-gradient-27);}.cls-30{fill:url(#linear-gradient-28);}.cls-31{fill:url(#linear-gradient-29);}.cls-32{fill:url(#linear-gradient-30);}.cls-33{fill:url(#linear-gradient-31);}.cls-34{fill:url(#linear-gradient-32);}.cls-35{fill:url(#linear-gradient-33);}.cls-36{fill:url(#linear-gradient-34);}.cls-37{fill:url(#linear-gradient-35);}.cls-38{fill:url(#linear-gradient-36);}.cls-39{fill:url(#linear-gradient-37);}.cls-40{fill:url(#linear-gradient-38);}.cls-41,.cls-42,.cls-43{opacity:0.7;}.cls-41{fill:url(#linear-gradient-39);}.cls-42{fill:url(#linear-gradient-40);}.cls-43{fill:url(#linear-gradient-41);}.cls-44{fill:url(#linear-gradient-42);}.cls-45{fill:url(#linear-gradient-43);}.cls-46{fill:url(#linear-gradient-44);}</style><linearGradient id="linear-gradient" x1="106" y1="80.07" x2="329.27" y2="305.84" gradientUnits="userSpaceOnUse"><stop offset="0" stop-color="#fff"/><stop offset="0.5" stop-color="#ca41ff"/><stop offset="1" stop-color="#97003d"/></linearGradient><linearGradient id="linear-gradient-2" x1="912.19" y1="444.19" x2="851.47" y2="587.03" gradientTransform="translate(55.88 -921.75) rotate(55.91)" gradientUnits="userSpaceOnUse"><stop offset="0" stop-color="#edf1e2"/><stop offset="1" stop-color="#a800a0"/></linearGradient><linearGradient id="linear-gradient-3" x1="705.53" y1="570.65" x2="644.79" y2="713.53" gradientTransform="matrix(0.75, 0.67, -0.58, 0.64, -6.49, -742.7)" xlink:href="#linear-gradient-2"/><linearGradient id="linear-gradient-4" x1="-246.21" y1="-433.38" x2="-412.34" y2="-537.26" gradientTransform="matrix(0.53, -0.6, 0.75, 0.67, 701.67, 409.26)" gradientUnits="userSpaceOnUse"><stop offset="0" stop-color="#720077"/><stop offset="1" stop-color="#ad00b0"/></linearGradient><linearGradient id="linear-gradient-5" x1="255.82" y1="353.61" x2="89.63" y2="249.69" gradientTransform="matrix(1, 0, 0, 1, 0, 0)" xlink:href="#linear-gradient-4"/><linearGradient id="linear-gradient-6" x1="719.94" y1="660.97" x2="553.59" y2="556.95" gradientTransform="matrix(0.85, 0.53, -0.53, 0.85, -62.43, -533.51)" xlink:href="#linear-gradient-4"/><linearGradient id="linear-gradient-7" x1="267.52" y1="334.87" x2="101.33" y2="230.95" gradientTransform="matrix(1, 0, 0, 1, 0, 0)" xlink:href="#linear-gradient-4"/><linearGradient id="linear-gradient-8" x1="116.06" y1="132.94" x2="98.87" y2="275.43" gradientUnits="userSpaceOnUse"><stop offset="0" stop-color="#fff"/><stop offset="1" stop-color="#ca39f7"/></linearGradient><linearGradient id="linear-gradient-9" x1="436.12" y1="508.99" x2="269.87" y2="405.04" gradientTransform="translate(-64.11 -223.64) rotate(13.67)" xlink:href="#linear-gradient-4"/><linearGradient id="linear-gradient-10" x1="699.31" y1="-1263.85" x2="762.73" y2="-1333.89" gradientTransform="matrix(-0.63, -0.97, 0.84, -0.55, 1824.34, 296.9)" gradientUnits="userSpaceOnUse"><stop offset="0" stop-color="#690055"/><stop offset="1" stop-color="#70009a"/></linearGradient><linearGradient id="linear-gradient-11" x1="716.29" y1="-1248.47" x2="779.72" y2="-1318.51" xlink:href="#linear-gradient-10"/><linearGradient id="linear-gradient-12" x1="689.13" y1="-1273.07" x2="752.55" y2="-1343.11" xlink:href="#linear-gradient-10"/><linearGradient id="linear-gradient-13" x1="702.67" y1="-1260.81" x2="766.09" y2="-1330.85" xlink:href="#linear-gradient-10"/><linearGradient id="linear-gradient-14" x1="157.46" y1="87.05" x2="1192.31" y2="792.32" gradientTransform="translate(-30.85 -81.96) rotate(5.03)" xlink:href="#linear-gradient-4"/><linearGradient id="linear-gradient-15" x1="263.79" y1="165.37" x2="901.4" y2="599.9" gradientTransform="translate(-30.85 -81.96) rotate(5.03)" xlink:href="#linear-gradient-4"/><linearGradient id="linear-gradient-16" x1="255.29" y1="207.75" x2="764.5" y2="554.78" gradientTransform="translate(-30.85 -81.96) rotate(5.03)" xlink:href="#linear-gradient-4"/><linearGradient id="linear-gradient-17" x1="274.23" y1="186.1" x2="720.29" y2="490.1" gradientTransform="translate(-30.85 -81.96) rotate(5.03)" xlink:href="#linear-gradient-4"/><linearGradient id="linear-gradient-18" x1="297.97" y1="226.56" x2="756.3" y2="538.92" gradientTransform="translate(-30.85 -81.96) rotate(5.03)" xlink:href="#linear-gradient-4"/><linearGradient id="linear-gradient-19" x1="324.26" y1="157.75" x2="677.34" y2="398.37" gradientTransform="translate(-30.85 -81.96) rotate(5.03)" xlink:href="#linear-gradient-4"/><linearGradient id="linear-gradient-20" x1="5.49" y1="-51.25" x2="966.58" y2="603.74" xlink:href="#linear-gradient-8"/><linearGradient id="linear-gradient-21" x1="150.23" y1="132.6" x2="262.82" y2="117.55" gradientTransform="matrix(1, 0, 0, 1, 0, 0)" xlink:href="#linear-gradient-2"/><linearGradient id="linear-gradient-22" x1="78.24" y1="133.72" x2="258.83" y2="47.58" gradientTransform="matrix(1, 0, 0, 1, 0, 0)" xlink:href="#linear-gradient-2"/><linearGradient id="linear-gradient-23" x1="72.17" y1="26.65" x2="654.8" y2="423.73" xlink:href="#linear-gradient-8"/><linearGradient id="linear-gradient-24" x1="85.78" y1="84.01" x2="667.9" y2="480.74" xlink:href="#linear-gradient-8"/><linearGradient id="linear-gradient-25" x1="201.25" y1="171.51" x2="313.41" y2="264.04" xlink:href="#linear-gradient-8"/><linearGradient id="linear-gradient-26" x1="277.96" y1="201.7" x2="211.48" y2="160.85" gradientTransform="matrix(1, 0, 0, 1, 0, 0)" xlink:href="#linear-gradient-4"/><linearGradient id="linear-gradient-27" x1="162.06" y1="219.09" x2="274.22" y2="311.63" xlink:href="#linear-gradient-8"/><linearGradient id="linear-gradient-28" x1="241.15" y1="185.27" x2="457.37" y2="332.63" xlink:href="#linear-gradient-8"/><linearGradient id="linear-gradient-29" x1="48.58" y1="69.61" x2="1043.81" y2="747.87" xlink:href="#linear-gradient-8"/><linearGradient id="linear-gradient-30" x1="89.09" y1="88.93" x2="659.44" y2="477.64" xlink:href="#linear-gradient-8"/><linearGradient id="linear-gradient-31" x1="189.54" y1="-1575.21" x2="760.75" y2="-1185.92" gradientTransform="translate(1542.86 344.2) rotate(-106.83)" xlink:href="#linear-gradient-2"/><linearGradient id="linear-gradient-32" x1="1761.58" y1="-1165.8" x2="2304.18" y2="-796.01" gradientTransform="matrix(-0.61, -0.13, 0.2, -0.98, 1528.78, -670.9)" xlink:href="#linear-gradient-8"/><linearGradient id="linear-gradient-33" x1="1725.66" y1="-1817.8" x2="2268.29" y2="-1447.99" gradientTransform="matrix(-0.61, -0.13, 0.1, -0.49, 1489.57, -480.62)" xlink:href="#linear-gradient-8"/><linearGradient id="linear-gradient-34" x1="119.04" y1="-13.77" x2="944.36" y2="548.71" xlink:href="#linear-gradient-8"/><linearGradient id="linear-gradient-35" x1="267.08" y1="219.44" x2="200.59" y2="178.6" gradientTransform="matrix(1, 0, 0, 1, 0, 0)" xlink:href="#linear-gradient-4"/><linearGradient id="linear-gradient-36" x1="1846.12" y1="-1549.81" x2="2388.56" y2="-1180.13" gradientTransform="matrix(-0.62, 0.01, 0, -0.5, 1458.09, -602.14)" xlink:href="#linear-gradient-8"/><linearGradient id="linear-gradient-37" x1="177.42" y1="200.44" x2="289.58" y2="292.98" xlink:href="#linear-gradient-8"/><linearGradient id="linear-gradient-38" x1="95.86" y1="135.68" x2="152.49" y2="247.89" gradientTransform="matrix(1, 0, 0, 1, 0, 0)" xlink:href="#linear-gradient-2"/><linearGradient id="linear-gradient-39" x1="210.38" y1="293.09" x2="340.43" y2="228.67" xlink:href="#linear-gradient-8"/><linearGradient id="linear-gradient-40" x1="166.48" y1="347.42" x2="238.16" y2="311.92" xlink:href="#linear-gradient-8"/><linearGradient id="linear-gradient-41" x1="404.3" y1="-1077.04" x2="493.2" y2="-1121.07" gradientTransform="matrix(-0.11, -0.9, 0.94, -0.22, 1399.41, 333.5)" xlink:href="#linear-gradient-8"/><linearGradient id="linear-gradient-42" x1="-175.55" y1="-565.63" x2="370.11" y2="-193.75" gradientTransform="matrix(0.69, -0.72, 0.72, 0.69, 556.11, 532.34)" xlink:href="#linear-gradient-8"/><linearGradient id="linear-gradient-43" x1="-90.31" y1="20.29" x2="357.44" y2="325.44" gradientTransform="translate(74.03 139.13) rotate(-9.22)" xlink:href="#linear-gradient-8"/><linearGradient id="linear-gradient-44" x1="465.94" y1="428.61" x2="1038.79" y2="579.36" gradientTransform="matrix(0.7, 0.54, -0.61, 0.79, 16.24, -577.15)" gradientUnits="userSpaceOnUse"><stop offset="0" stop-color="#fff"/><stop offset="1" stop-color="#e600ad"/></linearGradient></defs><g id="Layer_2" data-name="Layer 2"><g id="Ñëîé_1" data-name="Ñëîé 1"><ellipse class="cls-1" cx="224.23" cy="199.1" rx="198.76" ry="199.1"/><ellipse class="cls-1" cx="224.23" cy="199.1" rx="170.45" ry="170.74"/><path class="cls-2" d="M372.76,200.12c0,81.89-66.25,148.31-148.06,148.31S76.7,282,76.7,200.12,143,51.82,224.7,51.82a145.84,145.84,0,0,1,34.43,4A148.24,148.24,0,0,1,372.76,200.12Z"/><path class="cls-3" d="M120.43,164.15c-2.92,4.84-7,7.74-9.09,6.47s-1.42-6.23,1.5-11.07,7-7.74,9.09-6.47S123.36,159.3,120.43,164.15Z"/><path class="cls-4" d="M139.36,98.48c-4.68,3.18-9.59,4.1-11,2.07s1.3-6.25,6-9.42,9.59-4.1,11-2.07S144,95.31,139.36,98.48Z"/><path class="cls-5" d="M141.16,117.49c-2.1,2.35-4.75,3.4-5.93,2.34s-.43-3.81,1.67-6.16,4.75-3.4,5.93-2.35S143.26,115.14,141.16,117.49Z"/><path class="cls-6" d="M137.29,280.37c9.21,8.26,13.51,18.49,9.61,22.85s-14.53,1.22-23.74-7-13.51-18.48-9.61-22.85S128.07,272.12,137.29,280.37Z"/><path class="cls-7" d="M196.41,308.43c0,3.45-5.75,6.24-12.84,6.24s-12.84-2.79-12.84-6.24,5.75-6.24,12.84-6.24S196.41,305,196.41,308.43Z"/><path class="cls-8" d="M162.85,322.6c-1.3,2.1-5.54,1.83-9.47-.62s-6-6.13-4.74-8.23,5.55-1.83,9.47.62S164.16,320.5,162.85,322.6Z"/><path class="cls-9" d="M198.35,287c0,2.59-3.31,4.68-7.39,4.68s-7.39-2.09-7.39-4.68,3.31-4.67,7.39-4.67S198.35,284.41,198.35,287Z"/><path class="cls-10" d="M123.15,132.08c-5,8.3-12,13.29-15.57,11.1s-2.42-10.66,2.56-19,12-13.29,15.56-11.11a.2.2,0,0,1,.13.07C129.25,115.56,128.07,123.91,123.15,132.08Z"/><path class="cls-11" d="M170.47,296.54c-.58,2.41-5,3.4-9.85,2.21s-8.32-4.09-7.73-6.49,5-3.4,9.85-2.22S171.05,294.13,170.47,296.54Z"/><path class="cls-12" d="M301.28,302.76c10.73-7.06,21.21-10.07,23.39-6.74s-4.75,11.76-15.49,18.81-21.22,10.06-23.4,6.73S290.54,309.81,301.28,302.76Z"/><path class="cls-13" d="M304.22,280.33c6.81-4.47,13.32-6.58,14.55-4.7s-3.3,7-10.11,11.49-13.32,6.57-14.54,4.7S297.41,284.8,304.22,280.33Z"/><path class="cls-14" d="M269.9,312.58c4.4-2.9,9.07-3.55,10.44-1.47s-1.1,6.12-5.51,9-9.07,3.55-10.44,1.46S265.49,315.47,269.9,312.58Z"/><path class="cls-15" d="M268.73,291.77c4.8-3.16,9.92-3.86,11.42-1.57s-1.18,6.71-6,9.87-9.92,3.86-11.42,1.57S263.92,294.93,268.73,291.77Z"/><path class="cls-16" d="M347.21,199.82c-1.2,13.69-5.87,24.45-10.43,24.05s-7.29-11.82-6.09-25.5,5.88-24.45,10.44-24.05S348.41,186.14,347.21,199.82Z"/><path class="cls-17" d="M358.78,217.6c-.73,8.29-3.75,14.8-6.75,14.53s-4.83-7.2-4.11-15.49,3.75-14.8,6.75-14.53S359.5,209.31,358.78,217.6Z"/><path class="cls-18" d="M309.06,235.78c-.57,6.43,1.1,11.83,3.72,12.07s5.21-4.8,5.77-11.24-1.1-11.83-3.72-12.06S309.62,229.34,309.06,235.78Z"/><path class="cls-19" d="M325.66,205.68c-.48,5.43-2.9,9.65-5.42,9.43s-4.16-4.8-3.69-10.24,2.91-9.65,5.42-9.43S326.14,200.24,325.66,205.68Z"/><path class="cls-20" d="M348.52,250.21c-.49,5.58-3,9.91-5.58,9.68s-4.29-4.93-3.8-10.51,3-9.91,5.57-9.68S349,244.63,348.52,250.21Z"/><path class="cls-21" d="M357.87,165.56c-.34,3.89-2.52,6.87-4.88,6.66s-4-3.52-3.64-7.41,2.52-6.86,4.88-6.65S358.22,161.68,357.87,165.56Z"/><ellipse class="cls-22" cx="224.23" cy="97.82" rx="16.86" ry="7.02"/><path class="cls-23" d="M255.62,120.38c0,3.71-6.27,6.72-14,6.72s-14-3-14-6.72,6.27-6.71,14-6.71S255.62,116.68,255.62,120.38Z"/><path class="cls-24" d="M203.34,79.18c.86,3.95-7.3,9.08-18.22,11.46s-20.47,1.09-21.33-2.86S171.1,78.7,182,76.33,202.49,75.23,203.34,79.18Z"/><path class="cls-25" d="M215.15,117c0,1.85-4.64,3.35-10.37,3.35s-10.38-1.5-10.38-3.35,4.64-3.36,10.38-3.36S215.15,115.17,215.15,117Z"/><path class="cls-26" d="M228,174.31c0,3.44-4.35,6.23-9.72,6.23s-9.73-2.79-9.73-6.23,4.35-6.24,9.73-6.24S228,170.86,228,174.31Z"/><path class="cls-27" d="M262.32,214.43c0,2.41-4.05,4.36-9.06,4.36s-9-1.95-9-4.36,4-4.36,9-4.36S262.32,212,262.32,214.43Z"/><path class="cls-28" d="M251,181c0,1.79-3,3.24-6.74,3.24s-6.75-1.45-6.75-3.24,3-3.24,6.75-3.24S251,179.17,251,181Z"/><path class="cls-29" d="M218.27,259.9c0,1.79-3,3.24-6.75,3.24s-6.74-1.45-6.74-3.24,3-3.24,6.74-3.24S218.27,258.11,218.27,259.9Z"/><path class="cls-30" d="M293.14,220.48c-1.94,3.2-4.72,5-6.25,4.11a1.21,1.21,0,0,1-.28-.21c-1.18-1.25-.84-4.32,1-7.24,1.95-3.2,4.73-5.08,6.26-4.11S295,217.28,293.14,220.48Z"/><ellipse class="cls-31" cx="183.57" cy="161.6" rx="17.12" ry="8.84"/><path class="cls-32" d="M176.26,141.65c0,2.8-4.4,5.06-9.81,5.06s-9.82-2.26-9.82-5.06,4.4-5.06,9.82-5.06S176.26,138.85,176.26,141.65Z"/><path class="cls-33" d="M109.27,189.69c2.67-.81,6.11,2.74,7.68,7.94s.67,10.06-2,10.87-6.11-2.74-7.68-7.94S106.59,190.5,109.27,189.69Z"/><path class="cls-34" d="M178.72,186.29c.55-2.61,3.53-4.18,6.66-3.53s5.24,3.3,4.69,5.91-3.52,4.18-6.66,3.52S178.18,188.89,178.72,186.29Z"/><path class="cls-35" d="M208.76,154.23c.27-1.3,3-1.83,6.17-1.17s5.45,2.25,5.18,3.55-3,1.82-6.17,1.16S208.49,155.53,208.76,154.23Z"/><path class="cls-36" d="M245.25,62.79v.13l-.07.56c-.81,3-7,5.18-14.38,5-7.84-.19-14.13-3.06-14.13-6.24v-.06c.12-3.3,6.6-5.8,14.44-5.55S245.25,59.55,245.25,62.79Z"/><path class="cls-37" d="M222.2,195.48c0-1.33,2.57-2.43,5.77-2.46s5.81,1,5.82,2.36-2.57,2.43-5.78,2.46S222.21,196.81,222.2,195.48Z"/><path class="cls-38" d="M266.57,158.11c0-1.33,2.57-2.43,5.77-2.46s5.81,1,5.82,2.36-2.57,2.43-5.77,2.46S266.58,159.44,266.57,158.11Z"/><path class="cls-39" d="M241.09,244.63c0,2.73-4.53,4.94-10.11,4.94s-10.12-2.21-10.12-4.94,4.53-4.94,10.12-4.94S241.09,241.9,241.09,244.63Z"/><path class="cls-40" d="M150.43,224.13c6.42,7.91,8.46,16.89,4.57,20.05s-12.25-.68-18.66-8.59-8.45-16.89-4.56-20.06S144,216.22,150.43,224.13Z"/><path class="cls-41" d="M272.78,252.07c8.76-5.18,17.93-5.87,20.47-1.54s-2.49,12-11.25,17.2-17.93,5.87-20.48,1.55S264,257.25,272.78,252.07Z"/><path class="cls-42" d="M214.45,329.46v.07c-.14,3.41-5.15,6-11.26,5.78s-10.78-3.06-10.78-6.41v-.14c.07-3.41,5.14-6.05,11.19-5.85S214.45,326.05,214.45,329.46Z"/><path class="cls-43" d="M309.1,175c-4-4.63-5.08-10.2-2.48-12.43s7.93-.29,11.89,4.35,5.07,10.2,2.47,12.43S313.06,179.59,309.1,175Z"/><path class="cls-44" d="M177.79,231.87c4.65,4.48,6.56,10,4.27,12.43s-7.91.69-12.56-3.78-6.56-10-4.27-12.42S173.14,227.4,177.79,231.87Z"/><path class="cls-45" d="M105.31,225c.78,4.82-1,9.12-4,9.61s-6.08-3-6.87-7.83,1-9.12,4-9.61S104.53,220.15,105.31,225Z"/><path class="cls-46" d="M395.75,313.2c-13.38-12.69-26.26-24.34-42.9-38.75-.61,1-1.81,3-1.81,3,16.51,14.3,29,25.65,42.32,38.24,57.15,54.18,53.05,63.25,52.4,64.1s-2,.91-3.07.91c-23.28,0-124.16-64-234.65-148.87C77.78,131.83-4.2,50.61,3.7,40.29c.57-.74,2-.9,3.06-.9,14.22,0,53.49,21.29,110.09,59.18L119.33,96C61.48,57.2,21.8,35.91,6.76,35.91c-2.71,0-4.66.76-5.82,2.26-12.21,16,96.49,113.14,205,196.46,112.85,86.68,212.43,149.6,236.77,149.6,2.72,0,4.67-.77,5.83-2.28C454,374.75,436.28,351.62,395.75,313.2Z"/></g></g></svg>