<svg xmlns="http://www.w3.org/2000/svg" xmlns:xlink="http://www.w3.org/1999/xlink" viewBox="0 0 472.83 294.46"><defs><style>.cls-1{fill:url(#linear-gradient);}.cls-2{fill:url(#linear-gradient-2);}.cls-3{fill:url(#linear-gradient-3);}.cls-4{fill:url(#linear-gradient-4);}.cls-5{fill:url(#linear-gradient-5);}.cls-6{fill:url(#linear-gradient-6);}</style><linearGradient id="linear-gradient" x1="116.12" y1="244.84" x2="370.98" y2="38" gradientUnits="userSpaceOnUse"><stop offset="0.06" stop-color="#ffdf2e"/><stop offset="0.67" stop-color="#00b36b"/><stop offset="1" stop-color="#0057f9"/></linearGradient><linearGradient id="linear-gradient-2" x1="136.38" y1="264.43" x2="343.47" y2="43.84" gradientUnits="userSpaceOnUse"><stop offset="0.06" stop-color="#ffc224"/><stop offset="0.52" stop-color="#00904a"/><stop offset="1" stop-color="#0057a9"/></linearGradient><linearGradient id="linear-gradient-3" x1="145.12" y1="272.54" x2="352.21" y2="51.95" xlink:href="#linear-gradient-2"/><linearGradient id="linear-gradient-4" x1="131.81" y1="259.89" x2="338.81" y2="39.39" xlink:href="#linear-gradient-2"/><linearGradient id="linear-gradient-5" x1="102.85" y1="232.51" x2="309.79" y2="12.07" xlink:href="#linear-gradient-2"/><linearGradient id="linear-gradient-6" x1="-28.19" y1="118.18" x2="464.27" y2="118.18" gradientTransform="matrix(0.99, 0.1, -0.1, 0.99, 31.77, 7.14)" gradientUnits="userSpaceOnUse"><stop offset="0" stop-color="#6ce3ff"/><stop offset="0.5" stop-color="#f0ff6f"/><stop offset="1" stop-color="#00cb52"/></linearGradient></defs><g id="Layer_2" data-name="Layer 2"><g id="Ñëîé_1" data-name="Ñëîé 1"><path class="cls-1" d="M363.34,221.31v0a146.43,146.43,0,0,1-37,42.35,135.5,135.5,0,0,1-11.84,8.21A141.62,141.62,0,0,1,297.86,281,147.24,147.24,0,0,1,89.46,152,147.57,147.57,0,0,1,144.38,32.39,143,143,0,0,1,159.9,21.53a149.07,149.07,0,0,1,15-8,146.82,146.82,0,0,1,195,72.16c1.92,4.21,3.64,8.49,5.16,12.78A147.14,147.14,0,0,1,363.34,221.31Z"/><path class="cls-2" d="M223.1,241.74,200.3,256a131.43,131.43,0,0,0,8-11.69c.76-1.29,1.56-2.73,1.28-4.21a6.28,6.28,0,0,0-2.72-3.33,109.48,109.48,0,0,0-51.44-20.55,169.48,169.48,0,0,0-1.64,30.21c.28,9.17,1.6,18.75,6.16,26.52a144.92,144.92,0,0,1-25.76-19.91c-.12-.56-.2-1.08-.28-1.64a324,324,0,0,1-3.68-50.17c29.12,2.45,59.56,7.58,82.32,25.93C217.3,231,221.82,235.77,223.1,241.74Z"/><path class="cls-3" d="M314.5,271.91A141.62,141.62,0,0,1,297.86,281a145.9,145.9,0,0,1-64.24,13.46A215.19,215.19,0,0,0,250.5,274c2.24-3.12,4.48-6.41,5.12-10.21s-.36-7.62-1.48-11.3a188.34,188.34,0,0,0-36.6-67.07c-2.56-3-5.28-6-8.8-7.74a28.38,28.38,0,0,0-9.28-2.4c-30.28-4-60.8,1.68-89.6,11-4.6,1.52-9.2,3.12-13.76,4.77a145.19,145.19,0,0,1-6.64-39c1.36-.28,2.76-.52,4.12-.72,9.8-1.48,19.8-1.32,29.72-1.48,24.56-.44,49-3.05,73.44-5.69l16.88-1.8c5.2-.57,12.56-2.77,17.64-1.85,8.88,1.56,13.24,11.46,18,18,5.72,7.82,9.56,16.91,13.92,25.56,9.8,19.56,19.92,39.07,33.24,56.5,5,6.57,10.56,12.86,14.32,20.27A37.14,37.14,0,0,1,314.5,271.91Z"/><path class="cls-4" d="M363.34,221.31v0a146.43,146.43,0,0,1-37,42.35q-.24-67.86-.56-135.71c0-2.24-.08-4.65-1.32-6.57a11.7,11.7,0,0,0-4.44-3.49c-22.16-11.74-47.28-16.74-72.16-19.79-51-6.21-103.56-4.73-153,9.3a146.64,146.64,0,0,1,20.36-43.6c33.16,3.29,66.76,1.89,100,5C255.06,72.46,294,82.48,332.7,92.45c6.84,1.81,13.76,3.57,20.12,6.73,2.52,1.25,5,2.81,6.56,5.17s1.84,5.49,2.08,8.38A855.31,855.31,0,0,1,363.34,221.31Z"/><path class="cls-5" d="M375,98.46a133.32,133.32,0,0,0-12.76-7.17c-7.52-3.65-15.32-6.61-22.76-10.34-7.24-3.6-14.12-7.89-21-12.18q-25-15.61-50.08-31.25c-.68-.44-1.36-.88-2.08-1.28-6.2-3.89-12.52-7.81-19.6-9.82-8.56-2.4-17.6-1.8-26.48-1.16q-38,2.94-75.88,7.13A143,143,0,0,1,159.9,21.53h.2c10.12-.2,20.24-.88,30.28-1.76,19.88-1.76,39.92-5.53,59.84-4,5.44.45,10.52,2.69,15.48,4.93l25.76,11.54c19.16,8.58,38.32,17.19,57.12,26.41,2.72,1.32,5.4,2.68,8.08,4a146,146,0,0,1,13.2,23C371.78,89.89,373.5,94.17,375,98.46Z"/><path class="cls-6" d="M264.9,90C180.08,47.56,98.77,18.22,52.71,13.42c-9.81-1-39.66-4.14-50.13,16.9-14.38,28.83,33.62,71.38,87,107a210.42,210.42,0,0,1,8.3-39.46C66.5,76.11,49,60,40.73,49.51c2.19,0,4.9.17,8.17.51,41.34,4.31,119.68,32.92,199.59,72.89C356.21,176.79,415.85,224.33,432,245c-2.2,0-4.9-.17-8.18-.51-16.75-1.75-38.31-7.13-64.87-16-6.09,8.95-24.85,29.21-26.6,30.3,35.68,12.76,65.14,20,87.67,22.31,9.8,1,39.65,4.13,50.13-16.9C496.63,211,319.75,117.42,264.9,90Z"/></g></g></svg>