<svg xmlns="http://www.w3.org/2000/svg" xmlns:xlink="http://www.w3.org/1999/xlink" viewBox="0 0 428.4 358.13"><defs><style>.cls-1{mask:url(#mask);filter:url(#luminosity-noclip-2);}.cls-2{mix-blend-mode:multiply;fill:url(#linear-gradient);}.cls-3{fill:url(#linear-gradient-2);}.cls-4{fill:url(#linear-gradient-3);}.cls-5{fill:url(#linear-gradient-4);}.cls-6{fill:url(#linear-gradient-5);}.cls-11,.cls-12,.cls-14,.cls-15,.cls-16,.cls-7{opacity:0.62;}.cls-7{fill:url(#linear-gradient-6);}.cls-13,.cls-8{opacity:0.48;}.cls-8{fill:url(#linear-gradient-7);}.cls-9{fill:url(#linear-gradient-8);}.cls-10{fill:url(#linear-gradient-9);}.cls-11{fill:url(#linear-gradient-10);}.cls-12{fill:url(#linear-gradient-11);}.cls-13{fill:url(#linear-gradient-12);}.cls-14{fill:url(#linear-gradient-13);}.cls-15{fill:url(#linear-gradient-14);}.cls-16{fill:url(#linear-gradient-15);}.cls-17{mask:url(#mask-2);}.cls-18{opacity:0.47;fill:url(#linear-gradient-16);}.cls-19{fill:url(#linear-gradient-17);}.cls-20,.cls-21{fill:#f3ffae;}.cls-20{opacity:0.78;}.cls-21{opacity:0.87;}.cls-22{fill:#aee175;opacity:0.77;}.cls-23{filter:url(#luminosity-noclip);}</style><filter id="luminosity-noclip" x="53.59" y="-7770.32" width="303.3" height="32766" filterUnits="userSpaceOnUse" color-interpolation-filters="sRGB"><feFlood flood-color="#fff" result="bg"/><feBlend in="SourceGraphic" in2="bg"/></filter><mask id="mask" x="53.59" y="-7770.32" width="303.3" height="32766" maskUnits="userSpaceOnUse"><g class="cls-23"/></mask><linearGradient id="linear-gradient" x1="53.59" y1="209.26" x2="356.88" y2="209.26" gradientUnits="userSpaceOnUse"><stop offset="0" stop-color="#fff"/><stop offset="1"/></linearGradient><linearGradient id="linear-gradient-2" x1="256.23" y1="16.53" x2="289.24" y2="16.53" gradientUnits="userSpaceOnUse"><stop offset="0.03" stop-color="#efff69"/><stop offset="0.69" stop-color="#b5dc7d"/><stop offset="0.99" stop-color="#38997a"/></linearGradient><linearGradient id="linear-gradient-3" x1="309.93" y1="38.53" x2="323.76" y2="38.53" xlink:href="#linear-gradient-2"/><linearGradient id="linear-gradient-4" x1="103.22" y1="100.37" x2="349.14" y2="349.04" gradientUnits="userSpaceOnUse"><stop offset="0" stop-color="#f5fc64"/><stop offset="1" stop-color="#0063ed"/></linearGradient><linearGradient id="linear-gradient-5" x1="103.27" y1="100.53" x2="349.07" y2="349.07" gradientUnits="userSpaceOnUse"><stop offset="0" stop-color="#d1d94f"/><stop offset="1" stop-color="#00577c"/></linearGradient><linearGradient id="linear-gradient-6" x1="457.3" y1="36.08" x2="37.78" y2="327.99" xlink:href="#linear-gradient-5"/><linearGradient id="linear-gradient-7" x1="252.57" y1="466.91" x2="313.93" y2="173.25" gradientUnits="userSpaceOnUse"><stop offset="0" stop-color="#48724b"/><stop offset="0.9" stop-color="#004131"/></linearGradient><linearGradient id="linear-gradient-8" x1="141.69" y1="157.47" x2="366.95" y2="99.27" xlink:href="#linear-gradient-5"/><linearGradient id="linear-gradient-9" x1="83.53" y1="164.73" x2="293.59" y2="198.62" xlink:href="#linear-gradient-5"/><linearGradient id="linear-gradient-10" x1="39.68" y1="151.41" x2="165.04" y2="320.04" gradientUnits="userSpaceOnUse"><stop offset="0" stop-color="#debe36"/><stop offset="1" stop-color="#0052bb"/></linearGradient><linearGradient id="linear-gradient-11" x1="304.76" y1="60.24" x2="223.62" y2="136.36" xlink:href="#linear-gradient-5"/><linearGradient id="linear-gradient-12" x1="-39.93" y1="296.86" x2="213.27" y2="296.86" gradientUnits="userSpaceOnUse"><stop offset="0" stop-color="#48b34b"/><stop offset="1" stop-color="#00483b"/></linearGradient><linearGradient id="linear-gradient-13" x1="234.27" y1="64.9" x2="161.64" y2="187.02" gradientUnits="userSpaceOnUse"><stop offset="0" stop-color="#ebd836"/><stop offset="1" stop-color="#5ea459"/></linearGradient><linearGradient id="linear-gradient-14" x1="129.46" y1="48.71" x2="100.96" y2="230.06" xlink:href="#linear-gradient-13"/><linearGradient id="linear-gradient-15" x1="139.73" y1="88.38" x2="232.27" y2="88.38" xlink:href="#linear-gradient-13"/><filter id="luminosity-noclip-2" x="53.59" y="63.07" width="303.3" height="292.39" filterUnits="userSpaceOnUse" color-interpolation-filters="sRGB"><feFlood flood-color="#fff" result="bg"/><feBlend in="SourceGraphic" in2="bg"/></filter><mask id="mask-2" x="53.59" y="63.07" width="303.3" height="292.39" maskUnits="userSpaceOnUse"><g class="cls-1"><path class="cls-2" d="M356.88,203.55c0,83.87-67.84,151.9-151.64,151.9A152,152,0,0,1,147.5,63.07a55.41,55.41,0,0,1,30.69,28c9.95,20.33,7.06,46.26-7.07,63.89-8.86,11.07-21.27,18.57-33.49,25.73S112.84,195,103.47,205.66C63,251.49,117.53,312.17,161.52,327.58a152.66,152.66,0,0,0,63.82,7.7c18-1.72,40.75-6.92,55.58-17.44,61.33-43.44,70.89-104.2,68.9-160.27A151.55,151.55,0,0,1,356.88,203.55Z"/></g></mask><linearGradient id="linear-gradient-16" x1="53.59" y1="209.26" x2="356.88" y2="209.26" gradientUnits="userSpaceOnUse"><stop offset="0" stop-color="#ffffef"/><stop offset="1" stop-color="#ffffb0"/></linearGradient><linearGradient id="linear-gradient-17" x1="-14.86" y1="206.62" x2="419.53" y2="206.62" gradientTransform="translate(7.12 8.87) rotate(-1.44)" xlink:href="#linear-gradient-2"/></defs><g id="Layer_2" data-name="Layer 2"><g id="Ñëîé_1" data-name="Ñëîé 1"><ellipse class="cls-3" cx="272.73" cy="16.53" rx="16.5" ry="16.53"/><ellipse class="cls-4" cx="316.85" cy="38.53" rx="6.91" ry="6.92"/><path class="cls-5" d="M356.88,203.55c0,83.87-67.84,151.9-151.64,151.9a152.08,152.08,0,1,1,151.64-151.9Z"/><path class="cls-6" d="M289.25,161.93c-5.66,34.29-7.27,70.88-29,99.61-19.87,26.32-56.72,34.71-87.7,25.6-19.23-5.65-36.28-14.62-53.59-24.62-3.25-1.87-44.91-22.48-60.4-20.31,17.07,65.17,76.26,113.24,146.67,113.24,83.75,0,151.64-68,151.64-151.89a151.49,151.49,0,0,0-39.48-102.23C302,114.75,293.71,134.87,289.25,161.93Z"/><path class="cls-7" d="M158.78,264.1a135,135,0,0,0,43.31-.05c23.52-3.88,43.14-21.75,53.67-43.17,17.49-35.57,2.05-82.7,34.23-111.11-12.66,11.17-21.79,20-25.36,37s-8.57,33.84-18.2,48.18-24.47,25.9-41.55,28.32c-18.6,2.64-36.37-5.39-54.16-9.35-13.53-3-38.52-5.85-42.2,13.32-1.41,7.32,3.28,14.54,9,19.32C128.79,256,143.45,261.54,158.78,264.1Z"/><path class="cls-8" d="M322.74,178.89c-11.9.14-20.32,10.36-24.34,21.93-4.41,12.72-7.65,25.83-12.4,38.42-8.17,21.6-21,38.77-42.25,48.48,4.33-2,10.07-1.93,14.67-3.88a71.2,71.2,0,0,0,13.13-7.76c8.66-6.08,14.07-13.87,20.54-22.13,3.53-4.49,7.69-8.86,13.14-10.55s12.38.25,14.58,5.52a14.88,14.88,0,0,1,.93,5.39c.39,14.88-7.33,28.42-17.67,38.62-11.75,11.59-26.74,19.2-41.46,26.62a152,152,0,0,0,44.95-20.89c10.36-7.07,20-15.6,26.57-26.28,13.09-21.2,21.12-54.3,11.31-78.24C340.85,185.37,332.47,178.77,322.74,178.89Z"/><path class="cls-9" d="M299.42,84.29q-2.49,1.83-4.78,3.84a110.74,110.74,0,0,0-10,9.58,84.7,84.7,0,0,0-18.82,32.77c-6.05,20.18-11.41,50-36.47,54-16.14,2.61-35.2-8.18-32.78-26.39,1-7.47,5.1-14.18,9.69-20s9.95-11.37,14-17.7c4.65-7.21,7.52-15.39,12.5-22.35,6.76-9.52,17-16.1,27.8-20.32,2.81-1.08,5.61-2,8.48-2.87,4-1.21,8-2.17,12.12-3.07.7.39,1.4.83,2.1,1.28-3.19,1.15-6.37,2.37-9.56,3.71a117.52,117.52,0,0,0-21,11.17c-1.09.71-2.11,1.47-3.19,2.24-13.2,10-23.72,24.72-25.13,41.26-.32,4.6,0,9.39,2.3,13.42s6.7,7,11.22,6.45c9.38-1,13.52-12.65,17.09-19.87,4.66-9.26,8.61-19,14.73-27.46a66.7,66.7,0,0,1,20.6-18.53,60.66,60.66,0,0,1,6.44-3.25Z"/><path class="cls-10" d="M151,185.56c-.6.86-1.78,1.51-3.77,1.8-2.43.35-5-.22-7.31.57-4.86,1.65-5.94,8.67-3.17,13s7.92,6.43,12.85,7.84a177.07,177.07,0,0,0,21.7,4.27c9.29,1.42,18.75,2.85,28,1.46,13.5-2,25.47-9.8,35.9-18.62-10.71,5.86-20,11.49-32,14.08-8.78,1.92-20.54,1.51-28.7-2.26s-14.07-13.61-10.76-22a9.86,9.86,0,0,1,3.25-4.42c4.22-3,10.19-.89,14.34,2.2s7.43,6.83,11.55,9.71c11.75,8.25,29.14,7.19,39.81-2.43-3.37,3-17.08,1.24-21.1.2-6.56-1.71-12.7-6.37-17.6-10.89-12.14-11.21-21.24-26.37-36-34.51-5.91-3.26-14.72-6.81-21.57-5.2-7.13,1.67-10.69,8.13-8.26,15.07,1.82,5.19,6,9.11,10.08,12.8l8.08,7.37C148.88,177.89,152.88,182.81,151,185.56Z"/><path class="cls-11" d="M111.17,253.05c-7.52-7.21-17.79-7.34-27-10.79-5.67-2.11-11.35-4.34-17.09-6.58v-.06c-3.57-1.35-7.2-2.75-10.84-4.16A152.26,152.26,0,0,1,66.47,142.1a9.36,9.36,0,0,1,3.51-.83c4.33-.06,8,3,10.07,7A14.69,14.69,0,0,1,81.71,153c1,5.94-.51,12-1.34,18s-.64,12.65,3.19,17.31c1.59,2,3.83,3.51,5,5.81a15.23,15.23,0,0,1,1.08,4.47c.83,6.52.58,13.16,1.92,19.55s4.65,13,10.52,15.9c-6.32-1.34-11.1-6.51-14.67-11.94-2.55-3.9-4.78-8.18-7.59-11.95-3.7-4.85-6.89-3.57-7.59,2.69-.12.7-.12,1.47-.19,2.17a25.35,25.35,0,0,0,12.56,22c3.13,1.79,6.7,2.88,10.08,4.28A48.32,48.32,0,0,1,111.17,253.05Z"/><path class="cls-12" d="M289.09,76.76a30,30,0,0,0-9.5,2.81,72.7,72.7,0,0,0-8.8,4.72c-7.27,4.22-14.67,8.56-20.66,14.57s-10.4,14-10.4,22.48a6.83,6.83,0,0,0,1.28,4.47c1.66,1.92,4.84,1.73,6.88.32s3.38-3.77,4.6-6c6.95-12.78,15.36-25.55,27.93-33,2.23-1.28,4.52-2.43,6.82-3.51a55.19,55.19,0,0,0,6.25-3.52c.06-.06.19-.13.25-.19Z"/><path class="cls-13" d="M226.66,328.75c-3.38,4-8.16,6.45-13.07,8.05-23.53,7.85-49.17-3.39-63.84-22.23-12.43-16-23.34-32.58-41.38-42.93-10.21-5.87-22.26-9.07-33.86-7.28-.9.13-1.79.32-2.68.51a17,17,0,0,0-4.47,1.6,60.62,60.62,0,0,1-3.12-7.28,3.64,3.64,0,0,1,.64-1.09,10.59,10.59,0,0,1,6.44-3.39c4.78-.89,10.52.26,14.66.84,8.42,1.08,16.65,6.51,23.66,11.05,15.37,9.9,29.15,22.35,45.79,30.15a91.61,91.61,0,0,0,44.19,8.49c5.61-.38,11.29-1.21,16.84-.32s11.09,4,13.2,9.26C231.51,319,230,324.72,226.66,328.75Z"/><path class="cls-14" d="M209.13,104.78c-3.48-1.27-7.55.24-10.55,2.52-5.58,4.22-8.91,10.81-10.93,17.51a62.87,62.87,0,0,0,.79,38.35c-1.11-13.42,7.91-21,15.75-30.31,4.56-5.42,11-12.61,10.36-20.2a9.21,9.21,0,0,0-4.73-7.58C209.59,105,209.36,104.87,209.13,104.78Z"/><path class="cls-15" d="M152.69,60.79a81.13,81.13,0,0,0-19.13,19.74,73.07,73.07,0,0,0-6.64,11.75c-5.61,12.2-7.9,25.49-7.71,39.15a59.41,59.41,0,0,0,.7,8.18c2.1,13.48,7.78,27.08,5.36,40.43-3,16-22,21.53-29.78,5.56-4.41-9-6.06-19.16-6.32-29.13a109.9,109.9,0,0,1,3.25-29.19,114,114,0,0,1,24-47.14A150.73,150.73,0,0,1,152.69,60.79Z"/><path class="cls-16" d="M223.85,52.55A55.47,55.47,0,0,0,205,64.49a39.59,39.59,0,0,0-3.89,4.09c-4.27,5.11-7.72,11-12.82,15.2S175.71,90.43,170,87.1c-4-2.36-6.31-7-6.5-11.62a11,11,0,0,1,.06-2.56,28.24,28.24,0,0,1,3.32-10.73c1.14-2.23,2.55-4.47,3.76-6.77-3.7.83-7.33,1.85-11,2.94A86.89,86.89,0,0,1,153.64,72c-1.21,2.23-2.48,4.4-3.76,6.64-5.29,9.2-10.46,18.78-10.14,29.57a18.89,18.89,0,0,0,2.42,9.14c2.94,4.66,8.74,7,14.23,6.9s10.77-2.3,15.49-5.11c18.37-10.93,30.93-28.94,42.54-46.38a77.65,77.65,0,0,1,6.24-8.37,53.34,53.34,0,0,1,11.61-10.53Z"/><g class="cls-17"><path class="cls-18" d="M356.88,203.55c0,83.87-67.84,151.9-151.64,151.9A152,152,0,0,1,147.5,63.07a55.41,55.41,0,0,1,30.69,28c9.95,20.33,7.06,46.26-7.07,63.89-8.86,11.07-21.27,18.57-33.49,25.73S112.84,195,103.47,205.66C63,251.49,117.53,312.17,161.52,327.58a152.66,152.66,0,0,0,63.82,7.7c18-1.72,40.75-6.92,55.58-17.44,61.33-43.44,70.89-104.2,68.9-160.27A151.55,151.55,0,0,1,356.88,203.55Z"/></g><path class="cls-19" d="M380.82,86.71c2.7,1,4.37,3.77,4.83,6.6,1.45,8.85-6.1,16.69-14,20.83s-17.06,6.38-23.7,12.39c-8,7.29-10.8,18.54-15.35,28.39a77.83,77.83,0,0,1-34,35.89c-14.48,7.67-31.1,10.57-45.61,18.18-15.08,7.89-27.15,20.45-38.47,33.19-11.13,12.51-20,18.88-36.44,20.56-18.5,1.89-38.5,4-56.65,8.11-22,5-41.91,16.59-62.27,26.43-4.79,2.31-9.76,4.57-15.07,4.83s-11.07-1.9-13.61-6.57c-4.55-8.38,3.13-18,10.16-24.38l13.06-11.92A92.44,92.44,0,0,0,1,311.28c-1.2,3.05-1.81,7.33,1.08,8.85,1.5.79,3.31.4,5,.17,11.5-1.54,23.36,7.46,25,18.95.89,6.2-.24,13.93,5,17.41,9.23,6.21,23.56-9,29.39-15.1,9.47-10,15.24-19.07,30-21.47,13-2.12,26.31.86,39.37,2.88s27,3,38.94-2.79c14.49-7,22.85-22.36,35.06-32.87,17.29-14.89,41-19.13,63-24.83s45.57-15,56.54-35c8.88-16.19,7.83-36.66,17.74-52.24,7.83-12.29,21-19.3,33.18-26.45,9-5.29,29-13.93,30.14-25.63.56-5.65-2.18-11.25-1.58-16.89.57-5.34,4-9.89,7.67-13.81s7.74-7.6,10.12-12.41,2.6-11.19-1.13-15c-4.66-4.81-12.59-3.41-18.95-1.33-8.37,2.75-16.57,6.1-25.2,7.87C368.5,74.21,355.92,70,343,72.79c-13.58,3-15.94,11.9-22.85,21.71C331.06,84.24,371.39,83.39,380.82,86.71Z"/><path class="cls-20" d="M191.9,278.11c-2.77-1.18-6.46,2-8.33,3.57-7.14,6.13-13.11,11.12-22.34,13.63-11.34,3.1-23.65.85-34.91,4.24-3,.92-10.93,5.77-6.44,9,3,2.19,10.22,2.37,13.87,3a91.19,91.19,0,0,0,16.15,1.56c11,0,22.33-2.95,30.57-10.23a54.92,54.92,0,0,0,11.62-15.72c1.1-2.18,3-5.69,1.23-7.95A3.52,3.52,0,0,0,191.9,278.11Z"/><path class="cls-21" d="M301,238.11a9.93,9.93,0,0,0-3.47-2.26c-5.95-2.58-15.2-.16-21.11,1.63-6.46,2-16.52,5.85-20.63,11.59-4.78,6.68,5.35,7.34,9.23,6.53l20.34-4.28C290.34,250.28,305.9,243.57,301,238.11Z"/><path class="cls-21" d="M321.94,209.49a12.17,12.17,0,0,0-4.9.33A17.26,17.26,0,0,0,305,220.44c-1.17,3-3.89,10.71-.41,13,5.6,3.7,15.27-7.39,18-11C326.1,217.58,327.47,210.51,321.94,209.49Z"/><path class="cls-22" d="M398.16,111.31c-2.29,1-4.71,4.84-6.49,7.37a32.3,32.3,0,0,1-9.39,8.53l-9.47,6.18c-7,4.57-15.53,14.46-1.68,11.78,6-1.16,12.27-4.43,17.52-7.49,4.1-2.38,8.15-5.05,11-8.81s4.46-8.8,3.09-13.34C401.53,111.38,399.88,110.55,398.16,111.31Z"/></g></g></svg>