<svg xmlns="http://www.w3.org/2000/svg" xmlns:xlink="http://www.w3.org/1999/xlink" viewBox="0 0 379.09 379.72"><defs><style>.cls-1{mask:url(#mask);filter:url(#luminosity-noclip-4);}.cls-2,.cls-4,.cls-6{mix-blend-mode:multiply;}.cls-2{fill:url(#linear-gradient);}.cls-3{mask:url(#mask-2);filter:url(#luminosity-noclip-5);}.cls-4{fill:url(#linear-gradient-2);}.cls-5{mask:url(#mask-3);filter:url(#luminosity-noclip-6);}.cls-6{fill:url(#linear-gradient-3);}.cls-7{fill:#bff941;opacity:0.1;}.cls-8{fill:url(#linear-gradient-4);}.cls-9{fill:url(#linear-gradient-5);}.cls-10{fill:url(#linear-gradient-6);}.cls-11{fill:url(#linear-gradient-7);}.cls-12{fill:url(#linear-gradient-8);}.cls-13{mask:url(#mask-4);}.cls-14{opacity:0.59;fill:url(#linear-gradient-9);}.cls-15{mask:url(#mask-5);}.cls-16{opacity:0.47;fill:url(#linear-gradient-10);}.cls-17{mask:url(#mask-6);}.cls-18{opacity:0.65;fill:url(#linear-gradient-11);}.cls-19{filter:url(#luminosity-noclip-3);}.cls-20{filter:url(#luminosity-noclip-2);}.cls-21{filter:url(#luminosity-noclip);}</style><filter id="luminosity-noclip" x="66.45" y="-7750.88" width="270.91" height="32766" filterUnits="userSpaceOnUse" color-interpolation-filters="sRGB"><feFlood flood-color="#fff" result="bg"/><feBlend in="SourceGraphic" in2="bg"/></filter><mask id="mask" x="66.45" y="-7750.88" width="270.91" height="32766" maskUnits="userSpaceOnUse"><g class="cls-21"/></mask><linearGradient id="linear-gradient" x1="66.45" y1="181.12" x2="337.36" y2="181.12" gradientUnits="userSpaceOnUse"><stop offset="0" stop-color="#fff"/><stop offset="1"/></linearGradient><filter id="luminosity-noclip-2" x="44.5" y="-7750.88" width="191.7" height="32766" filterUnits="userSpaceOnUse" color-interpolation-filters="sRGB"><feFlood flood-color="#fff" result="bg"/><feBlend in="SourceGraphic" in2="bg"/></filter><mask id="mask-2" x="44.5" y="-7750.88" width="191.7" height="32766" maskUnits="userSpaceOnUse"><g class="cls-20"/></mask><linearGradient id="linear-gradient-2" x1="242.49" y1="346.25" x2="17.17" y2="192.79" xlink:href="#linear-gradient"/><filter id="luminosity-noclip-3" x="193.58" y="-7750.88" width="85.24" height="32766" filterUnits="userSpaceOnUse" color-interpolation-filters="sRGB"><feFlood flood-color="#fff" result="bg"/><feBlend in="SourceGraphic" in2="bg"/></filter><mask id="mask-3" x="193.58" y="-7750.88" width="85.24" height="32766" maskUnits="userSpaceOnUse"><g class="cls-19"/></mask><linearGradient id="linear-gradient-3" x1="203.08" y1="132.39" x2="257.86" y2="210.4" gradientTransform="translate(132.55 -98.45) rotate(32.31)" xlink:href="#linear-gradient"/><linearGradient id="linear-gradient-4" x1="38.66" y1="37.3" x2="350.15" y2="352.27" gradientUnits="userSpaceOnUse"><stop offset="0.15" stop-color="#ffdf2e"/><stop offset="0.59" stop-color="#00b7c7"/><stop offset="0.95" stop-color="#0057f9"/></linearGradient><linearGradient id="linear-gradient-5" x1="37.42" y1="40.11" x2="354.1" y2="199.67" gradientUnits="userSpaceOnUse"><stop offset="0.07" stop-color="#ffdf2e"/><stop offset="0.51" stop-color="#00a572"/><stop offset="0.95" stop-color="#0057d3"/></linearGradient><linearGradient id="linear-gradient-6" x1="10.32" y1="94.17" x2="326.83" y2="253.64" xlink:href="#linear-gradient-5"/><linearGradient id="linear-gradient-7" x1="1.15" y1="112.67" x2="317.57" y2="272.1" xlink:href="#linear-gradient-5"/><linearGradient id="linear-gradient-8" x1="2.55" y1="109.46" x2="319.12" y2="268.96" xlink:href="#linear-gradient-5"/><filter id="luminosity-noclip-4" x="66.45" y="41.85" width="270.91" height="278.53" filterUnits="userSpaceOnUse" color-interpolation-filters="sRGB"><feFlood flood-color="#fff" result="bg"/><feBlend in="SourceGraphic" in2="bg"/></filter><mask id="mask-4" x="66.45" y="41.85" width="270.91" height="278.53" maskUnits="userSpaceOnUse"><g class="cls-1"><path class="cls-2" d="M337.36,189.82a149.92,149.92,0,0,1-4.78,37.57,148.31,148.31,0,0,1-73.34,93c7.38-8.05,13-17.71,18.3-27.33,14.94-27.36,28.09-56.7,29.95-87.83s-9.46-64.61-35.1-82.35c-19-13.1-43.9-16.13-66.28-10.57-18.08,4.5-34.37,14-51.39,21.62-29.87,13.39-63.29,15.36-83.37-15.51A41.33,41.33,0,0,1,66.45,108c2-3.1,4.2-6.14,6.5-9.07a147.86,147.86,0,0,1,113.8-57c.91-.07,1.86-.07,2.78-.07,1.46,0,2.81,0,4.2.11,2.37.07,4.71.18,7.05.37a140.81,140.81,0,0,1,31,5.67c2.74.8,5.48,1.68,8.14,2.7a138.06,138.06,0,0,1,13.62,5.78,148.31,148.31,0,0,1,56.68,48,143.79,143.79,0,0,1,13.15,22.61A147.34,147.34,0,0,1,337.36,189.82Z"/></g></mask><linearGradient id="linear-gradient-9" x1="66.45" y1="181.12" x2="337.36" y2="181.12" gradientUnits="userSpaceOnUse"><stop offset="0" stop-color="#ffffb0"/><stop offset="1" stop-color="#ffffb0"/></linearGradient><filter id="luminosity-noclip-5" x="44.5" y="196.09" width="191.7" height="141.78" filterUnits="userSpaceOnUse" color-interpolation-filters="sRGB"><feFlood flood-color="#fff" result="bg"/><feBlend in="SourceGraphic" in2="bg"/></filter><mask id="mask-5" x="44.5" y="196.09" width="191.7" height="141.78" maskUnits="userSpaceOnUse"><g class="cls-3"><path class="cls-4" d="M236.2,330.3a146.07,146.07,0,0,1-46.67,7.57A149.49,149.49,0,0,1,157,334.25l-2.78-.66A147,147,0,0,1,89.5,298.8c-3.11-2.85-6.07-5.81-8.88-8.92-.62-.63-1.17-1.25-1.71-1.87a134.57,134.57,0,0,1-10.19-12.88c-1.17-1.68-2.38-3.36-3.47-5.12-.7-1-1.32-2-1.94-3-1.17-2-2.37-4.06-3.47-6.11a143.51,143.51,0,0,1-10.63-24.4,153.64,153.64,0,0,1-4.71-18A59.75,59.75,0,0,1,85.3,196.3a59.65,59.65,0,0,1,53.17,24.95c7.6,10.94,11.21,24,16.58,36.18C170.21,291.71,187.74,319.1,236.2,330.3Z"/></g></mask><linearGradient id="linear-gradient-10" x1="242.49" y1="346.25" x2="17.17" y2="192.79" gradientUnits="userSpaceOnUse"><stop offset="0" stop-color="#002568"/><stop offset="1" stop-color="#00296f"/></linearGradient><filter id="luminosity-noclip-6" x="193.58" y="131.51" width="85.24" height="96.11" filterUnits="userSpaceOnUse" color-interpolation-filters="sRGB"><feFlood flood-color="#fff" result="bg"/><feBlend in="SourceGraphic" in2="bg"/></filter><mask id="mask-6" x="193.58" y="131.51" width="85.24" height="96.11" maskUnits="userSpaceOnUse"><g class="cls-5"><ellipse class="cls-6" cx="236.2" cy="179.56" rx="38.58" ry="51.34" transform="translate(-59.4 154.05) rotate(-32.31)"/></g></mask><linearGradient id="linear-gradient-11" x1="203.08" y1="132.39" x2="257.86" y2="210.4" gradientTransform="translate(132.55 -98.45) rotate(32.31)" gradientUnits="userSpaceOnUse"><stop offset="0" stop-color="#ffffef"/><stop offset="1" stop-color="#ffffb0"/></linearGradient></defs><g id="Layer_2" data-name="Layer 2"><g id="Ñëîé_1" data-name="Ñëîé 1"><ellipse class="cls-7" cx="189.54" cy="189.86" rx="189.54" ry="189.86"/><ellipse class="cls-7" cx="189.54" cy="189.86" rx="172.66" ry="172.94"/><path class="cls-8" d="M337.36,189.82a149.92,149.92,0,0,1-4.78,37.57,148.31,148.31,0,0,1-73.34,93,143.48,143.48,0,0,1-23,9.91,146.07,146.07,0,0,1-46.67,7.57A149.49,149.49,0,0,1,157,334.25l-2.78-.66A147,147,0,0,1,89.5,298.8c-3.11-2.85-6.07-5.81-8.88-8.92-.62-.63-1.17-1.25-1.71-1.87a134.57,134.57,0,0,1-10.19-12.88c-1.17-1.68-2.38-3.36-3.47-5.12-.7-1-1.32-2-1.94-3-1.17-2-2.37-4.06-3.47-6.11a143.51,143.51,0,0,1-10.63-24.4,153.64,153.64,0,0,1-4.71-18,147.3,147.3,0,0,1-2.33-17.71c-.3-3.62-.44-7.28-.44-11,0-.73,0-1.46,0-2.19,0-3.48.19-6.91.51-10.32A146.67,146.67,0,0,1,66.45,108c2-3.1,4.2-6.14,6.5-9.07a147.86,147.86,0,0,1,113.8-57c.91-.07,1.86-.07,2.78-.07,1.46,0,2.81,0,4.2.11,2.37.07,4.71.18,7.05.37a140.81,140.81,0,0,1,31,5.67c2.74.8,5.48,1.68,8.14,2.7a138.06,138.06,0,0,1,13.62,5.78,148.31,148.31,0,0,1,56.68,48,143.79,143.79,0,0,1,13.15,22.61A147.34,147.34,0,0,1,337.36,189.82Z"/><path class="cls-9" d="M224.18,124.09c-4.38,3-10.22,4.83-12.38,9.73s.26,10.2.92,15.4c1,7.86-2.27,16-8,21.51s-13.63,8.41-21.51,8.78c1.57-1.43,3.17-2.82,4.74-4.24-5-1-10.08-1.94-15.12-1.18a16.47,16.47,0,0,0-10.19,5.35,10.31,10.31,0,0,0-1.82,3c1.24-8.67,5.37-13,13-16.17,6.31-2.6,13.44-7.35,12.71-14.12-.41-3.55-3-6.4-4.39-9.66-6.61-15,9.42-31.79,11.29-46.53,1.17-9.4-1.1-19.9-8.51-25.79-5-3.95-11.47-5.3-17.79-6.15a160.78,160.78,0,0,0-60.95,3.63,147.05,147.05,0,0,1,80.49-25.69c.91-.07,1.86-.07,2.78-.07,1.46,0,2.81,0,4.2.11,2.37.07,4.71.18,7.05.37,4.74,7.35,4.71,17.89,11.68,23.26,3,2.31,6.76,3.19,10.15,4.87C242.88,80.48,241.79,111.94,224.18,124.09Z"/><path class="cls-10" d="M310.26,104.44c-2.66,24.59-6.35,49.28-16.54,71.74-3.54,7.83-8.51,15.8-15.63,20.89-8.07,5.78-16,4.2-25.24,5.38a5.44,5.44,0,0,0-3.1,1.09c-1.39,1.25-1.13,3.62,0,5.09a11.5,11.5,0,0,0,4.6,3.11c-8.83,1.24-17.56-2.27-25.82-5.71a16.57,16.57,0,0,1-4.05,10.46,11.62,11.62,0,0,1-10.26,3.77,7.43,7.43,0,0,0,5.91-4.32,7.53,7.53,0,0,0-.76-7.28c-5.7-7.86-24.47-3.58-28.05,4.54-1.68,3.81-1.13,8.16-.84,12.29a78.4,78.4,0,0,1-8.55,41.05c-4.23,8.26-12.19,16.68-21.29,14.74a9.59,9.59,0,0,1,3.54,7.35c-12.49-3.51-24.94-7.06-37.43-10.57-5.29-1.54-10.92-3-16.25-1.61s-10,7-8.36,12.29a42.76,42.76,0,0,1-21.48,1.14c-.62-.63-1.17-1.25-1.71-1.87a134.57,134.57,0,0,1-10.19-12.88c-1.17-1.68-2.38-3.36-3.47-5.12-.7-1-1.32-2-1.94-3-1.17-2-2.37-4.06-3.47-6.11a143.51,143.51,0,0,1-10.63-24.4,147.74,147.74,0,0,1-7-35.67c-.3-3.62-.44-7.28-.44-11,0-.73,0-1.46,0-2.19a46.61,46.61,0,0,1,11.69,15.22A52.72,52.72,0,0,1,55.57,208c2.37,7.06,3.07,14.74,6.68,21.25A26.76,26.76,0,0,0,82.16,242.5a26.29,26.29,0,0,0-10.38-10.68c12.6-.77,22.9,9,33.6,15.77,7.85,4.94,16.84,8.41,26.12,8.52s18.84-3.58,24.61-10.83c4.89-6.18,7.09-14.78,13.77-18.95a12.8,12.8,0,0,0-1.1,15.84c2-8.12,4-16.2,6-24.32a43.19,43.19,0,0,1,3.5-10.32c5.59-10.24,18.37-14.19,30-14.71s23.56,1.36,34.92-1.35,22.46-12.14,21.66-23.78c-.77-10.68-11.07-19.6-9.54-30.21,1.46-10.1,13.26-16.68,13.7-26.89a51.62,51.62,0,0,1-1.9,20.45,35.25,35.25,0,0,0,7.16-29.12c-2.12-9.66-8.37-17.74-13.08-26.41a87.06,87.06,0,0,1-7.67-19A148.31,148.31,0,0,1,310.26,104.44Z"/><path class="cls-11" d="M337.36,189.82a149.92,149.92,0,0,1-4.78,37.57c-11,7.91-26.84,10.5-32.54,22.72-1.72,3.7-2.23,7.9-4.27,11.42-7.49,13-30.1,10.16-37,23.48-2.93,5.71-1.94,12.69-4.39,18.62a17.21,17.21,0,0,1-19.79,9.55,37.92,37.92,0,0,0,12.64,8.52c-14.17,3.29-30,8.05-44.52,8.6-10,.4-20-3.73-29.88-2-5.4.95-10.7,3.62-15.92,6l-2.78-.66A147,147,0,0,1,89.5,298.8a17.92,17.92,0,0,1,4,2c3,2,5.41,4.8,8.51,6.55,7.56,4.32,18.45.77,22-7.17,15.23,9.44,34.74,16.24,50.7,8.12,8.29-4.24,15.77-12.36,25-11.08-3.29.55-2.74,6.18.32,7.46s6.58-.25,9.5-1.86c3.87-2.09,7.85-4.47,10-8.31,5.11-9-2.27-19.86-3.29-30.18-1.42-14,11.54-27.51,25.42-27.11-7.05.22-12.2,8.35-13,15.74-.44,4,0,8.34,2.3,11.63,4.34,6.22,14.64,6.14,19.94.73s5.7-14.49,2.19-21.22a16.52,16.52,0,0,1,10.3,17.82c8-3.48,9.27-13.87,11.25-22.32,3.28-14.12,13.95-28.24,28.41-28.71-6.35.33-11.5,7.28-10,13.49,6.5,2.27,13.66-3.1,16-9.58s1.39-13.68.7-20.56c-1.39-14.27-.95-29.63,6.94-41.59,2.33-3.48,5.33-6.73,6.28-10.87.43-1.83-.15-8.89.36-14.74A147.34,147.34,0,0,1,337.36,189.82Z"/><path class="cls-12" d="M165.93,153.79c-4.09,5.53-10,9.4-14.57,14.49-5,5.56-8.51,12.8-8.65,20.3-.88-4.9-8.07-6-12.16-3.11-6.54,4.57-9.24,13.76-15.2,19.32-4.93,4.64-9.2,7.06-16.29,6.91-15.77-.37-31.37-11.74-39-25.09a7.78,7.78,0,0,0,.22,8c-8.77-1.39-15.82-8.78-18-17.27A147.31,147.31,0,0,1,73,98.88c-.87,5.12.59,10.57,5.19,12.66-8.66,2-16.69,8.16-19.21,16.68s2,19,10.44,21.58c3.51,1,7.23.74,10.81,1.36s7.34,2.67,8.22,6.22a17.94,17.94,0,0,1,.26,4,15.11,15.11,0,0,0,22.79,12.33c8.1-4.87,10.08-16,17.23-22.17a18.74,18.74,0,0,1,15.52-4.25c2.31.41,4.5,1.25,6.83,1.58,8,1,16.15-6,16.33-14C171.78,140,170,148.27,165.93,153.79Z"/><g class="cls-13"><path class="cls-14" d="M337.36,189.82a149.92,149.92,0,0,1-4.78,37.57,148.31,148.31,0,0,1-73.34,93c7.38-8.05,13-17.71,18.3-27.33,14.94-27.36,28.09-56.7,29.95-87.83s-9.46-64.61-35.1-82.35c-19-13.1-43.9-16.13-66.28-10.57-18.08,4.5-34.37,14-51.39,21.62-29.87,13.39-63.29,15.36-83.37-15.51A41.33,41.33,0,0,1,66.45,108c2-3.1,4.2-6.14,6.5-9.07a147.86,147.86,0,0,1,113.8-57c.91-.07,1.86-.07,2.78-.07,1.46,0,2.81,0,4.2.11,2.37.07,4.71.18,7.05.37a140.81,140.81,0,0,1,31,5.67c2.74.8,5.48,1.68,8.14,2.7a138.06,138.06,0,0,1,13.62,5.78,148.31,148.31,0,0,1,56.68,48,143.79,143.79,0,0,1,13.15,22.61A147.34,147.34,0,0,1,337.36,189.82Z"/></g><g class="cls-15"><path class="cls-16" d="M236.2,330.3a146.07,146.07,0,0,1-46.67,7.57A149.49,149.49,0,0,1,157,334.25l-2.78-.66A147,147,0,0,1,89.5,298.8c-3.11-2.85-6.07-5.81-8.88-8.92-.62-.63-1.17-1.25-1.71-1.87a134.57,134.57,0,0,1-10.19-12.88c-1.17-1.68-2.38-3.36-3.47-5.12-.7-1-1.32-2-1.94-3-1.17-2-2.37-4.06-3.47-6.11a143.51,143.51,0,0,1-10.63-24.4,153.64,153.64,0,0,1-4.71-18A59.75,59.75,0,0,1,85.3,196.3a59.65,59.65,0,0,1,53.17,24.95c7.6,10.94,11.21,24,16.58,36.18C170.21,291.71,187.74,319.1,236.2,330.3Z"/></g><g class="cls-17"><ellipse class="cls-18" cx="236.2" cy="179.56" rx="38.58" ry="51.34" transform="translate(-59.4 154.05) rotate(-32.31)"/></g></g></g></svg>