<svg xmlns="http://www.w3.org/2000/svg" xmlns:xlink="http://www.w3.org/1999/xlink" viewBox="0 0 355.86 356.45"><defs><style>.cls-1{mask:url(#mask);filter:url(#luminosity-noclip-4);}.cls-2,.cls-4,.cls-6{mix-blend-mode:multiply;}.cls-2{fill:url(#linear-gradient);}.cls-3{mask:url(#mask-2);filter:url(#luminosity-noclip-5);}.cls-4{fill:url(#linear-gradient-2);}.cls-5{mask:url(#mask-3);filter:url(#luminosity-noclip-6);}.cls-6{fill:url(#linear-gradient-3);}.cls-7{fill:#8ef;opacity:0.14;}.cls-8{fill:url(#linear-gradient-4);}.cls-9{fill:url(#linear-gradient-5);}.cls-10{fill:url(#linear-gradient-6);}.cls-11{fill:url(#linear-gradient-7);}.cls-12{fill:url(#linear-gradient-8);}.cls-13{fill:url(#linear-gradient-9);}.cls-14{fill:url(#linear-gradient-10);}.cls-15{mask:url(#mask-4);}.cls-16{opacity:0.34;fill:url(#linear-gradient-11);}.cls-17{mask:url(#mask-5);}.cls-18{opacity:0.41;fill:url(#linear-gradient-12);}.cls-19{mask:url(#mask-6);}.cls-20{opacity:0.33;fill:url(#linear-gradient-13);}.cls-21{filter:url(#luminosity-noclip-3);}.cls-22{filter:url(#luminosity-noclip-2);}.cls-23{filter:url(#luminosity-noclip);}</style><filter id="luminosity-noclip" x="26.55" y="-7742.56" width="272.42" height="32766" filterUnits="userSpaceOnUse" color-interpolation-filters="sRGB"><feFlood flood-color="#fff" result="bg"/><feBlend in="SourceGraphic" in2="bg"/></filter><mask id="mask" x="26.55" y="-7742.56" width="272.42" height="32766" maskUnits="userSpaceOnUse"><g class="cls-23"/></mask><linearGradient id="linear-gradient" x1="111.16" y1="35.97" x2="182.4" y2="308.76" gradientUnits="userSpaceOnUse"><stop offset="0.08" stop-color="#fff"/><stop offset="0.94"/></linearGradient><filter id="luminosity-noclip-2" x="205.2" y="-7742.56" width="93.77" height="32766" filterUnits="userSpaceOnUse" color-interpolation-filters="sRGB"><feFlood flood-color="#fff" result="bg"/><feBlend in="SourceGraphic" in2="bg"/></filter><mask id="mask-2" x="205.2" y="-7742.56" width="93.77" height="32766" maskUnits="userSpaceOnUse"><g class="cls-22"/></mask><linearGradient id="linear-gradient-2" x1="279.67" y1="66.34" x2="303.53" y2="157.74" gradientTransform="matrix(0, 1.05, -1, 0, 369.42, -90.49)" xlink:href="#linear-gradient"/><filter id="luminosity-noclip-3" x="161.99" y="-7742.56" width="35.5" height="32766" filterUnits="userSpaceOnUse" color-interpolation-filters="sRGB"><feFlood flood-color="#fff" result="bg"/><feBlend in="SourceGraphic" in2="bg"/></filter><mask id="mask-3" x="161.99" y="-7742.56" width="35.5" height="32766" maskUnits="userSpaceOnUse"><g class="cls-21"/></mask><linearGradient id="linear-gradient-3" x1="227.49" y1="158.44" x2="236.52" y2="193.04" gradientTransform="matrix(0, 1.05, -1, 0, 357.85, 22.98)" xlink:href="#linear-gradient"/><linearGradient id="linear-gradient-4" x1="288.42" y1="43.5" x2="55.76" y2="327.15" gradientUnits="userSpaceOnUse"><stop offset="0.03" stop-color="#ffd984"/><stop offset="0.34" stop-color="#39ccb8"/><stop offset="1" stop-color="#5659ca"/></linearGradient><linearGradient id="linear-gradient-5" x1="370.52" y1="122.63" x2="25" y2="260.23" gradientUnits="userSpaceOnUse"><stop offset="0.03" stop-color="#83dab1"/><stop offset="0.41" stop-color="#399aa4"/><stop offset="1" stop-color="#36449c"/></linearGradient><linearGradient id="linear-gradient-6" x1="390.03" y1="171.85" x2="44.67" y2="309.38" gradientUnits="userSpaceOnUse"><stop offset="0.03" stop-color="#83dab1"/><stop offset="0.41" stop-color="#39729f"/><stop offset="1" stop-color="#36449c"/></linearGradient><linearGradient id="linear-gradient-7" x1="315.25" y1="51.3" x2="4.87" y2="174.9" gradientUnits="userSpaceOnUse"><stop offset="0.03" stop-color="#ffd984"/><stop offset="0.45" stop-color="#39a498"/><stop offset="1" stop-color="#364bab"/></linearGradient><linearGradient id="linear-gradient-8" x1="274.68" y1="-49.93" x2="19.51" y2="207.01" gradientTransform="translate(-29.73 34.6) rotate(3.89)" gradientUnits="userSpaceOnUse"><stop offset="0" stop-color="#ffd984"/><stop offset="0.34" stop-color="#39b8a7"/><stop offset="0.86" stop-color="#5659ca"/></linearGradient><linearGradient id="linear-gradient-9" x1="339.95" y1="14.95" x2="84.78" y2="271.89" gradientTransform="translate(-29.73 34.6) rotate(3.89)" gradientUnits="userSpaceOnUse"><stop offset="0" stop-color="#ffd984"/><stop offset="0.3" stop-color="#39afa1"/><stop offset="1" stop-color="#454dbd"/></linearGradient><linearGradient id="linear-gradient-10" x1="371.89" y1="46.82" x2="116.78" y2="303.71" xlink:href="#linear-gradient-9"/><filter id="luminosity-noclip-4" x="26.55" y="28.03" width="272.42" height="301.82" filterUnits="userSpaceOnUse" color-interpolation-filters="sRGB"><feFlood flood-color="#fff" result="bg"/><feBlend in="SourceGraphic" in2="bg"/></filter><mask id="mask-4" x="26.55" y="28.03" width="272.42" height="301.82" maskUnits="userSpaceOnUse"><g class="cls-1"><path class="cls-2" d="M299,269.23c-2.06,2.72-4.22,5.37-6.42,7.94a.08.08,0,0,1-.08.08c-2.93,3.41-6.05,6.68-9.24,9.73A151,151,0,0,1,52,262.25q-2.74-4-5.17-8.3a123.51,123.51,0,0,1-7.67-15.25c-.44-1-.88-1.88-1.24-2.9a114,114,0,0,1-4-10.92,138.54,138.54,0,0,1-4.29-16.06c-.63-3.12-1.21-6.32-1.58-9.51-.66-4.52-1.1-9.19-1.32-13.82A155.42,155.42,0,0,1,26.87,168c.08-1.39.22-2.75.37-4.15A123.38,123.38,0,0,1,29,151.24a115.8,115.8,0,0,1,2.68-11.79,143.41,143.41,0,0,1,16-38.29c1.76-3,3.7-6.14,5.72-9a152.31,152.31,0,0,1,69.12-55A149.09,149.09,0,0,1,156.85,28c4.47,10.18,4.21,23.58-1.58,33.44-18.56,31.64-75,47.75-92.11,85.95-4.81,10.74-8.26,22.05-9.1,33.77a127.42,127.42,0,0,0,3.37,41.34c8.7,33.11,34,60.67,64.9,75.18s66.87,16.61,100.18,9.08A186.68,186.68,0,0,0,299,269.23Z"/></g></mask><linearGradient id="linear-gradient-11" x1="111.16" y1="35.97" x2="182.4" y2="308.76" gradientUnits="userSpaceOnUse"><stop offset="0.08" stop-color="#fff"/><stop offset="0.94" stop-color="#fff"/></linearGradient><filter id="luminosity-noclip-5" x="205.2" y="165.52" width="93.77" height="102.19" filterUnits="userSpaceOnUse" color-interpolation-filters="sRGB"><feFlood flood-color="#fff" result="bg"/><feBlend in="SourceGraphic" in2="bg"/></filter><mask id="mask-5" x="205.2" y="165.52" width="93.77" height="102.19" maskUnits="userSpaceOnUse"><g class="cls-3"><ellipse class="cls-4" cx="252.08" cy="216.62" rx="51.19" ry="46.76" transform="translate(-1.73 431.21) rotate(-80.89)"/></g></mask><linearGradient id="linear-gradient-12" x1="279.67" y1="66.34" x2="303.53" y2="157.74" gradientTransform="matrix(0, 1.05, -1, 0, 369.42, -90.49)" xlink:href="#linear-gradient-11"/><filter id="luminosity-noclip-6" x="161.99" y="247.23" width="35.5" height="38.68" filterUnits="userSpaceOnUse" color-interpolation-filters="sRGB"><feFlood flood-color="#fff" result="bg"/><feBlend in="SourceGraphic" in2="bg"/></filter><mask id="mask-6" x="161.99" y="247.23" width="35.5" height="38.68" maskUnits="userSpaceOnUse"><g class="cls-5"><ellipse class="cls-6" cx="179.74" cy="266.57" rx="19.38" ry="17.7" transform="translate(-111.94 401.82) rotate(-80.89)"/></g></mask><linearGradient id="linear-gradient-13" x1="227.49" y1="158.44" x2="236.52" y2="193.04" gradientTransform="matrix(0, 1.05, -1, 0, 357.85, 22.98)" xlink:href="#linear-gradient-11"/></defs><g id="Layer_2" data-name="Layer 2"><g id="Ñëîé_1" data-name="Ñëîé 1"><ellipse class="cls-7" cx="177.93" cy="178.23" rx="177.93" ry="178.23"/><path class="cls-8" d="M329,188.54l-.07.74c-.29,3.41-.66,6.76-1.1,10.1a118.41,118.41,0,0,1-2.31,12.49c-.37,1.58-.73,3.2-1.17,4.74a145.89,145.89,0,0,1-14.86,36.57A152.06,152.06,0,0,1,299,269.23c-2.06,2.72-4.22,5.37-6.42,7.94a.08.08,0,0,1-.08.08c-2.93,3.41-6.05,6.68-9.24,9.73A151,151,0,0,1,52,262.25q-2.74-4-5.17-8.3a123.51,123.51,0,0,1-7.67-15.25c-.44-1-.88-1.88-1.24-2.9a114,114,0,0,1-4-10.92,138.54,138.54,0,0,1-4.29-16.06c-.63-3.12-1.21-6.32-1.58-9.51-.66-4.52-1.1-9.19-1.32-13.82A155.42,155.42,0,0,1,26.87,168c.08-1.39.22-2.75.37-4.15A123.38,123.38,0,0,1,29,151.24a115.8,115.8,0,0,1,2.68-11.79,143.41,143.41,0,0,1,16-38.29c1.76-3,3.7-6.14,5.72-9a152.31,152.31,0,0,1,69.12-55A149.09,149.09,0,0,1,156.85,28a155.57,155.57,0,0,1,31.29-1.1,149.56,149.56,0,0,1,71.28,23.63c1,.62,2.13,1.36,3.12,2a116.22,116.22,0,0,1,12.21,9.22c.74.59,1.36,1.18,2,1.77a148.67,148.67,0,0,1,36.43,46.74A131.61,131.61,0,0,1,318.89,123c1.65,4.3,3.19,8.75,4.47,13.16A153.36,153.36,0,0,1,329,188.54Z"/><path class="cls-9" d="M329,188.53l-.08.73c-.29,3.42-.65,6.76-1.08,10.11a93.44,93.44,0,0,0-58.38-10.78c-74,10.87-145.14,45.67-190.36,44.66-19.45-.44-34.55-4.29-45.15-8.37a134.6,134.6,0,0,1-4.28-16.06c-.65-3.13-1.23-6.33-1.6-9.53,10.45,2.55,26.28,4.37,45.95.51,36.51-7.34,68.44-37.51,119.61-56.56s94.94-23.56,123.9-20.36c.51.08.94.08,1.38.15A151.93,151.93,0,0,1,329,188.53Z"/><path class="cls-10" d="M325.48,211.87c-.36,1.6-.72,3.2-1.16,4.73a149,149,0,0,1-31.79,60.56.07.07,0,0,1-.07.07,129,129,0,0,1-9.22,9.74c-21.19,10.11-51.39,16.43-80.93,14.33C141.2,296.93,82.19,279.48,52,262.25c-1.82-2.69-3.56-5.45-5.16-8.28a126,126,0,0,1-7.69-15.27S112.58,270,164.63,265.17c72.94-6.84,97-31.27,135-46.32C312.35,213.91,319.89,212.67,325.48,211.87Z"/><path class="cls-11" d="M276.78,63.56c-14.44,2.76-47.47,10.68-79.91,30-28,16.58-69.61,64.56-122.52,77a65.61,65.61,0,0,1-47.1-6.69A120.59,120.59,0,0,1,29,151.24c.72-4,1.59-7.93,2.68-11.78,6-.65,19.31-1.89,27.87-.58,11.33,1.89,74-30.83,115.7-51.77C207,71.19,245.79,58,262.56,52.58a117.11,117.11,0,0,1,12.19,9.23C275.47,62.39,276.13,63,276.78,63.56Z"/><path class="cls-12" d="M274.77,61.8c-18.29.53-61.54,6.83-115,47.86-55.37,42.54-91.93,56-118,48.87A32.77,32.77,0,0,1,29,151.26,149.35,149.35,0,0,1,53.34,92.1c4.44,7.91,12.5,15.71,26.82,15.05,21.23-1,64-14.2,107.19-35.94,31.84-16,58.58-19.84,72.06-20.7A139.76,139.76,0,0,1,274.77,61.8Z"/><path class="cls-13" d="M328.94,188.55l-.05.71a141.4,141.4,0,0,0-62.62-8.61C194.61,187.08,125.41,222,81.94,221.09c-25.11-.5-42.61-7.24-52.29-12.24a138.37,138.37,0,0,1-2.89-23.39c9.3,3.2,27,7,50.35,2.15C112.27,180.19,143,150,192.25,130.8S283.56,107,311.4,110.1c.63.05,1.27.16,1.83.2A151.1,151.1,0,0,1,328.94,188.55Z"/><path class="cls-14" d="M324.33,216.62a149.6,149.6,0,0,1-31.8,60.57.08.08,0,0,1-.08.07c-19.17,11.81-51.83,20.33-90.14,17.65C133.75,290.1,72.68,269.19,46.83,254a136.89,136.89,0,0,1-7.7-15.25c18.37,7.58,66.17,24.28,122.78,21,72.79-4.22,96.73-18,132.9-31.85C307.2,223.2,316.9,219.45,324.33,216.62Z"/><g class="cls-15"><path class="cls-16" d="M299,269.23c-2.06,2.72-4.22,5.37-6.42,7.94a.08.08,0,0,1-.08.08c-2.93,3.41-6.05,6.68-9.24,9.73A151,151,0,0,1,52,262.25q-2.74-4-5.17-8.3a123.51,123.51,0,0,1-7.67-15.25c-.44-1-.88-1.88-1.24-2.9a114,114,0,0,1-4-10.92,138.54,138.54,0,0,1-4.29-16.06c-.63-3.12-1.21-6.32-1.58-9.51-.66-4.52-1.1-9.19-1.32-13.82A155.42,155.42,0,0,1,26.87,168c.08-1.39.22-2.75.37-4.15A123.38,123.38,0,0,1,29,151.24a115.8,115.8,0,0,1,2.68-11.79,143.41,143.41,0,0,1,16-38.29c1.76-3,3.7-6.14,5.72-9a152.31,152.31,0,0,1,69.12-55A149.09,149.09,0,0,1,156.85,28c4.47,10.18,4.21,23.58-1.58,33.44-18.56,31.64-75,47.75-92.11,85.95-4.81,10.74-8.26,22.05-9.1,33.77a127.42,127.42,0,0,0,3.37,41.34c8.7,33.11,34,60.67,64.9,75.18s66.87,16.61,100.18,9.08A186.68,186.68,0,0,0,299,269.23Z"/></g><g class="cls-17"><ellipse class="cls-18" cx="252.08" cy="216.62" rx="51.19" ry="46.76" transform="translate(-1.73 431.21) rotate(-80.89)"/></g><g class="cls-19"><ellipse class="cls-20" cx="179.74" cy="266.57" rx="19.38" ry="17.7" transform="translate(-111.94 401.82) rotate(-80.89)"/></g></g></g></svg>