<svg xmlns="http://www.w3.org/2000/svg" xmlns:xlink="http://www.w3.org/1999/xlink" viewBox="0 0 313.14 313.6"><defs><style>.cls-1{mask:url(#mask);filter:url(#luminosity-noclip-3);}.cls-2,.cls-4{mix-blend-mode:multiply;}.cls-2{fill:url(#linear-gradient);}.cls-3{mask:url(#mask-2);filter:url(#luminosity-noclip-4);}.cls-4{fill:url(#linear-gradient-2);}.cls-5{fill:url(#linear-gradient-3);}.cls-6{fill:url(#linear-gradient-4);}.cls-7{fill:url(#linear-gradient-5);}.cls-8{fill:url(#linear-gradient-6);}.cls-9{fill:url(#linear-gradient-7);}.cls-10{fill:url(#linear-gradient-8);}.cls-11{fill:url(#linear-gradient-9);}.cls-12{fill:url(#linear-gradient-10);}.cls-13{fill:url(#linear-gradient-11);}.cls-14{fill:url(#linear-gradient-12);}.cls-15{fill:url(#linear-gradient-13);}.cls-16{fill:url(#linear-gradient-14);}.cls-17{fill:url(#linear-gradient-15);}.cls-18{mask:url(#mask-3);}.cls-19{opacity:0.22;fill:url(#linear-gradient-16);}.cls-20{mask:url(#mask-4);}.cls-21{opacity:0.35;fill:url(#linear-gradient-17);}.cls-22{filter:url(#luminosity-noclip-2);}.cls-23{filter:url(#luminosity-noclip);}</style><filter id="luminosity-noclip" x="0" y="-8974.52" width="244.84" height="32766" filterUnits="userSpaceOnUse" color-interpolation-filters="sRGB"><feFlood flood-color="#fff" result="bg"/><feBlend in="SourceGraphic" in2="bg"/></filter><mask id="mask" x="0" y="-8974.52" width="244.84" height="32766" maskUnits="userSpaceOnUse"><g class="cls-23"/></mask><linearGradient id="linear-gradient" x1="-17.38" y1="137.39" x2="210.98" y2="333.63" gradientUnits="userSpaceOnUse"><stop offset="0" stop-color="#999"/><stop offset="1"/></linearGradient><filter id="luminosity-noclip-2" x="104.88" y="-8974.52" width="208.26" height="32766" filterUnits="userSpaceOnUse" color-interpolation-filters="sRGB"><feFlood flood-color="#fff" result="bg"/><feBlend in="SourceGraphic" in2="bg"/></filter><mask id="mask-2" x="104.88" y="-8974.52" width="208.26" height="32766" maskUnits="userSpaceOnUse"><g class="cls-22"/></mask><linearGradient id="linear-gradient-2" x1="87.43" y1="-4.79" x2="325.89" y2="144.58" xlink:href="#linear-gradient"/><linearGradient id="linear-gradient-3" x1="272.39" y1="35.82" x2="37.1" y2="281.59" gradientUnits="userSpaceOnUse"><stop offset="0" stop-color="#a833ad"/><stop offset="0.96" stop-color="#3c0c38"/></linearGradient><linearGradient id="linear-gradient-4" x1="196.62" y1="-38.02" x2="-43.9" y2="190.86" gradientUnits="userSpaceOnUse"><stop offset="0.05" stop-color="#d34fde"/><stop offset="0.94" stop-color="#4c0c4b"/></linearGradient><linearGradient id="linear-gradient-5" x1="120.95" y1="4.1" x2="120.86" y2="4.19" gradientUnits="userSpaceOnUse"><stop offset="0" stop-color="#ae4fb3"/><stop offset="1" stop-color="#560c5c"/></linearGradient><linearGradient id="linear-gradient-6" x1="186.16" y1="-49.03" x2="-54.34" y2="179.83" xlink:href="#linear-gradient-4"/><linearGradient id="linear-gradient-7" x1="230.33" y1="-2.39" x2="-7.53" y2="223.95" xlink:href="#linear-gradient-4"/><linearGradient id="linear-gradient-8" x1="262.71" y1="31.54" x2="22.2" y2="260.41" xlink:href="#linear-gradient-4"/><linearGradient id="linear-gradient-9" x1="276.77" y1="46.35" x2="36.25" y2="275.22" xlink:href="#linear-gradient-4"/><linearGradient id="linear-gradient-10" x1="287.45" y1="57.58" x2="46.92" y2="286.45" xlink:href="#linear-gradient-4"/><linearGradient id="linear-gradient-11" x1="304.12" y1="75.11" x2="63.6" y2="303.99" xlink:href="#linear-gradient-4"/><linearGradient id="linear-gradient-12" x1="317.33" y1="89.03" x2="76.82" y2="317.9" xlink:href="#linear-gradient-4"/><linearGradient id="linear-gradient-13" x1="344.52" y1="117.65" x2="104" y2="346.52" xlink:href="#linear-gradient-4"/><linearGradient id="linear-gradient-14" x1="361.05" y1="135.08" x2="120.54" y2="363.93" xlink:href="#linear-gradient-4"/><linearGradient id="linear-gradient-15" x1="369.56" y1="144.03" x2="129.05" y2="372.89" xlink:href="#linear-gradient-4"/><filter id="luminosity-noclip-3" x="0" y="102.06" width="244.84" height="211.54" filterUnits="userSpaceOnUse" color-interpolation-filters="sRGB"><feFlood flood-color="#fff" result="bg"/><feBlend in="SourceGraphic" in2="bg"/></filter><mask id="mask-3" x="0" y="102.06" width="244.84" height="211.54" maskUnits="userSpaceOnUse"><g class="cls-1"><path class="cls-2" d="M244.84,286.24a154.3,154.3,0,0,1-51.05,22.81,125.84,125.84,0,0,1-17.18,3.22h-.07c-3.28.49-6.56.77-10,1s-6.64.35-10,.35h-.91A125.27,125.27,0,0,1,143,313H143a150.18,150.18,0,0,1-35.26-7.21A119.53,119.53,0,0,1,96,301.35a141.93,141.93,0,0,1-22.69-11.89,142.81,142.81,0,0,1-14.53-10.28c-3.21-2.59-6.28-5.25-9.22-8.12a73.57,73.57,0,0,1-5.37-5.24,150.11,150.11,0,0,1-15.86-19.31c-1.81-2.52-3.49-5-5.09-7.69a134.62,134.62,0,0,1-7.27-13.15c-.84-1.68-1.6-3.36-2.37-5.11a138.52,138.52,0,0,1-7.06-19.1,109.5,109.5,0,0,1-2.93-11.54A148.54,148.54,0,0,1,.21,164.81v-.07q-.21-4-.21-8c0-1.68,0-3.36.14-5a152.32,152.32,0,0,1,6.63-40.51v-.07c.91-3.07,1.89-6.15,3.08-9.09.28.14.56.35.83.49,20,12.94,28.78,37.63,33.11,61.21s5.72,48.12,16.48,69.39c15.08,29.94,46.86,48.76,79.61,55.61s66.76,3.29,99.94-1.75C241.49,286.73,243.17,286.52,244.84,286.24Z"/></g></mask><linearGradient id="linear-gradient-16" x1="-17.38" y1="137.39" x2="210.98" y2="333.63" gradientUnits="userSpaceOnUse"><stop offset="0" stop-color="#ff89ff"/><stop offset="1" stop-color="#fff"/></linearGradient><filter id="luminosity-noclip-4" x="104.88" y="0.58" width="208.26" height="198.52" filterUnits="userSpaceOnUse" color-interpolation-filters="sRGB"><feFlood flood-color="#fff" result="bg"/><feBlend in="SourceGraphic" in2="bg"/></filter><mask id="mask-4" x="104.88" y="0.58" width="208.26" height="198.52" maskUnits="userSpaceOnUse"><g class="cls-3"><path class="cls-4" d="M313.14,157.42a154.51,154.51,0,0,1-5.65,41.69c-.21-3.22-.56-6.37-.84-9.59-1.68-16.93-4.19-34.06-11.32-49.45-9.7-21.06-27.51-37.64-48-48.55s-43.3-16.37-66.28-19.1c-20.39-2.44-42.39-3.35-58.73-15.88-14.17-10.84-21-31-15.64-47.77A154.5,154.5,0,0,1,156.57.58,156.73,156.73,0,0,1,313.14,157.42Z"/></g></mask><linearGradient id="linear-gradient-17" x1="87.43" y1="-4.79" x2="325.89" y2="144.58" gradientUnits="userSpaceOnUse"><stop offset="0" stop-color="#ff8dff"/><stop offset="1" stop-color="#fff"/></linearGradient></defs><g id="Layer_2" data-name="Layer 2"><g id="Ñëîé_1" data-name="Ñëîé 1"><path class="cls-5" d="M313.14,156.76a152.7,152.7,0,0,1-.84,16.09v.07a122.48,122.48,0,0,1-2.23,14.48,143.89,143.89,0,0,1-5.45,20.43c-1.32,3.91-2.79,7.69-4.4,11.4h-.07c-.28.7-.56,1.4-.9,2.1a121.65,121.65,0,0,1-6.92,13.43A134,134,0,0,1,282.41,250a156.54,156.54,0,0,1-88.62,59,125.84,125.84,0,0,1-17.18,3.22h-.07c-3.28.49-6.56.77-10,1s-6.64.35-10,.35h-.91A125.27,125.27,0,0,1,143,313H143a150.18,150.18,0,0,1-35.26-7.21A119.53,119.53,0,0,1,96,301.35a141.93,141.93,0,0,1-22.69-11.89,142.81,142.81,0,0,1-14.53-10.28c-3.21-2.59-6.28-5.25-9.22-8.12a73.57,73.57,0,0,1-5.37-5.24,150.11,150.11,0,0,1-15.86-19.31c-1.81-2.52-3.49-5-5.09-7.69a134.62,134.62,0,0,1-7.27-13.15c-.84-1.68-1.6-3.36-2.37-5.11Q11.66,216.36,10,212c-.91-2.44-1.82-5-2.52-7.48a25.11,25.11,0,0,1-1-3,109.5,109.5,0,0,1-2.93-11.54A148.54,148.54,0,0,1,.21,164.81v-.07q-.21-4-.21-8c0-1.68,0-3.36.14-5a152.32,152.32,0,0,1,6.63-40.51v-.07c.91-3.07,1.89-6.15,3.08-9.09.77-2.1,1.6-4.2,2.44-6.3.07-.07.14-.14.14-.21a132.78,132.78,0,0,1,6.08-12.66v-.07A156.53,156.53,0,0,1,120.75,4.2c.14,0,.14-.07.14-.07H121l-.07.07A150,150,0,0,1,156.57,0a113.17,113.17,0,0,1,12,.56h.14a52.06,52.06,0,0,1,7.48.77h.06A113.78,113.78,0,0,1,191,3.92h.07a145.63,145.63,0,0,1,16.27,4.54A156.34,156.34,0,0,1,262,40.92c2.38,2.17,4.68,4.34,6.78,6.65a134.86,134.86,0,0,1,14.45,17.14c.84,1.11,1.68,2.23,2.45,3.42q2.19,3.15,4.19,6.51A144.88,144.88,0,0,1,297.78,89a141.36,141.36,0,0,1,7.61,19.17,75.78,75.78,0,0,1,2.44,8.18A146.6,146.6,0,0,1,312,138c.55,4.33.9,8.67,1,13.15C313.14,153,313.14,154.87,313.14,156.76Z"/><path class="cls-6" d="M191,3.92A308.29,308.29,0,0,0,.14,151.73a152.32,152.32,0,0,1,6.63-40.51v-.07c1.89-2.37,3.91-4.68,5.87-7,6.63-7.63,13.27-15.32,20.25-22.6,38.55-40.08,89.18-68,143.31-80.23h.06A113.78,113.78,0,0,1,191,3.92Z"/><polygon class="cls-7" points="120.95 4.13 120.89 4.2 120.89 4.13 120.95 4.13"/><path class="cls-8" d="M168.58.56C150.36,5,108.38,16.72,80.31,34.35,49.23,53.93,26.12,78.7,12.43,95.55a132.78,132.78,0,0,1,6.08-12.66v-.07c14.87-19.93,37.64-44.91,68-61.55C99.59,14.06,111,8.53,120.75,4.2h.14A150,150,0,0,1,156.57,0,113.17,113.17,0,0,1,168.58.56Z"/><path class="cls-9" d="M262,40.92c-25.42,5.67-79,20.78-130.8,55.47C83.87,128.29,35,180.83,10,212c-.91-2.44-1.82-5-2.52-7.48C19.9,183.41,37,155.85,51.82,138.72c35.33-41.07,66.13-68.56,68-70.24-2,1.12-39.25,22.74-72.7,62.05A487.85,487.85,0,0,0,3.56,189.92,148.54,148.54,0,0,1,.21,164.81v-.07C15.64,138.09,51.33,84.36,104.89,49.67,143.3,24.76,182.34,13.5,207.34,8.46A156.34,156.34,0,0,1,262,40.92Z"/><path class="cls-10" d="M283.25,64.71c-19.27,5.1-96.72,28-161,77.78-53.28,41.27-86.52,80.38-99,96.33a134.62,134.62,0,0,1-7.27-13.15C28,209.09,80.73,139.9,150.57,97.3c57.54-35,99.93-46.3,118.23-49.73A134.86,134.86,0,0,1,283.25,64.71Z"/><path class="cls-11" d="M289.89,74.64c-23.61,9.79-82.48,37.84-153.36,96.53-49.24,40.71-79,76.74-92.39,94.65a150.11,150.11,0,0,1-15.86-19.31c22-25.11,92.88-102.13,171.38-142.63,41.06-21.2,69.84-31.2,86-35.75Q287.89,71.28,289.89,74.64Z"/><path class="cls-12" d="M279.55,87.3c-3.63,1.82-61.59,31.2-116.62,80-48.33,42.81-88.62,92.05-104.2,111.92-3.21-2.59-6.28-5.25-9.22-8.12C67.25,248.19,114.46,192,179.69,146.83,254.76,94.79,277.46,87.86,279.55,87.3Z"/><path class="cls-13" d="M305.39,108.15c-17.46,3.91-62.15,16.57-110.13,50.92-46.51,33.37-105,94.58-108.52,98.35,2.58-3.49,39.59-52.6,96.3-99.19C236,114.79,283,94.72,297.78,89A141.36,141.36,0,0,1,305.39,108.15Z"/><path class="cls-14" d="M312,138c-16.07,6-71.1,28.33-125.43,70C138.41,245,106.08,287.22,96,301.35a141.93,141.93,0,0,1-22.69-11.89C86.53,271.27,124.66,222.17,174,185.3c64-47.77,117.32-64.63,133.8-69A146.6,146.6,0,0,1,312,138Z"/><path class="cls-15" d="M313.14,156.76a152.7,152.7,0,0,1-.84,16.09v.07a350,350,0,0,0-43.57,14.83c-33.38,13.64-63.06,36.24-65.3,38,2.38-1.19,41.62-20.78,66.83-28.34,18.58-5.45,31.85-8.46,39.81-10a143.89,143.89,0,0,1-5.45,20.43c-15.5,2.66-50.63,10.84-90.64,34.41C173.61,266,151.61,298.14,143,313H143a150.18,150.18,0,0,1-35.26-7.21c9.35-14.62,41.76-61.84,87.22-94.43C248,173.27,296.31,156.27,313,151.17,313.14,153,313.14,154.87,313.14,156.76Z"/><path class="cls-16" d="M300.15,219.23c-.28.7-.56,1.4-.9,2.1-49.06,14.57-100.56,38.83-132.69,91.92-3.28.21-6.64.35-10,.35h-.91c7.55-12.11,29.19-43.79,58.53-63C250.22,227.2,285,220.91,300.15,219.23Z"/><path class="cls-17" d="M292.33,234.76A134,134,0,0,1,282.41,250c-35.27,10.15-61,22.17-88.62,59a125.84,125.84,0,0,1-17.18,3.22C205.89,265.82,248.45,242,292.33,234.76Z"/><g class="cls-18"><path class="cls-19" d="M244.84,286.24a154.3,154.3,0,0,1-51.05,22.81,125.84,125.84,0,0,1-17.18,3.22h-.07c-3.28.49-6.56.77-10,1s-6.64.35-10,.35h-.91A125.27,125.27,0,0,1,143,313H143a150.18,150.18,0,0,1-35.26-7.21A119.53,119.53,0,0,1,96,301.35a141.93,141.93,0,0,1-22.69-11.89,142.81,142.81,0,0,1-14.53-10.28c-3.21-2.59-6.28-5.25-9.22-8.12a73.57,73.57,0,0,1-5.37-5.24,150.11,150.11,0,0,1-15.86-19.31c-1.81-2.52-3.49-5-5.09-7.69a134.62,134.62,0,0,1-7.27-13.15c-.84-1.68-1.6-3.36-2.37-5.11a138.52,138.52,0,0,1-7.06-19.1,109.5,109.5,0,0,1-2.93-11.54A148.54,148.54,0,0,1,.21,164.81v-.07q-.21-4-.21-8c0-1.68,0-3.36.14-5a152.32,152.32,0,0,1,6.63-40.51v-.07c.91-3.07,1.89-6.15,3.08-9.09.28.14.56.35.83.49,20,12.94,28.78,37.63,33.11,61.21s5.72,48.12,16.48,69.39c15.08,29.94,46.86,48.76,79.61,55.61s66.76,3.29,99.94-1.75C241.49,286.73,243.17,286.52,244.84,286.24Z"/></g><g class="cls-20"><path class="cls-21" d="M313.14,157.42a154.51,154.51,0,0,1-5.65,41.69c-.21-3.22-.56-6.37-.84-9.59-1.68-16.93-4.19-34.06-11.32-49.45-9.7-21.06-27.51-37.64-48-48.55s-43.3-16.37-66.28-19.1c-20.39-2.44-42.39-3.35-58.73-15.88-14.17-10.84-21-31-15.64-47.77A154.5,154.5,0,0,1,156.57.58,156.73,156.73,0,0,1,313.14,157.42Z"/></g></g></g></svg>