<svg xmlns="http://www.w3.org/2000/svg" xmlns:xlink="http://www.w3.org/1999/xlink" viewBox="0 0 383.25 383.89"><defs><style>.cls-1{mask:url(#mask);filter:url(#luminosity-noclip-3);}.cls-2,.cls-4{mix-blend-mode:multiply;}.cls-2{fill:url(#linear-gradient);}.cls-3{mask:url(#mask-2);filter:url(#luminosity-noclip-4);}.cls-4{fill:url(#linear-gradient-2);}.cls-5{fill:#ffb865;opacity:0.12;}.cls-6{fill:url(#linear-gradient-3);}.cls-7{mask:url(#mask-3);}.cls-26,.cls-8{opacity:0.35;}.cls-8{fill:url(#linear-gradient-4);}.cls-9{fill:url(#linear-gradient-5);}.cls-10{fill:url(#linear-gradient-6);}.cls-11{fill:url(#linear-gradient-7);}.cls-12{fill:url(#linear-gradient-8);}.cls-13{fill:url(#linear-gradient-9);}.cls-14{fill:url(#linear-gradient-10);}.cls-15{fill:url(#linear-gradient-11);}.cls-16{fill:url(#linear-gradient-12);}.cls-17{fill:url(#linear-gradient-13);}.cls-18{fill:url(#linear-gradient-14);}.cls-19{fill:url(#linear-gradient-15);}.cls-20{fill:url(#linear-gradient-16);}.cls-21{fill:url(#linear-gradient-17);}.cls-22{fill:url(#linear-gradient-18);}.cls-23{fill:url(#linear-gradient-19);}.cls-24{fill:url(#linear-gradient-20);}.cls-25{mask:url(#mask-4);}.cls-26{fill:url(#linear-gradient-21);}.cls-27{fill:url(#linear-gradient-22);}.cls-28{filter:url(#luminosity-noclip-2);}.cls-29{filter:url(#luminosity-noclip);}</style><filter id="luminosity-noclip" x="140.69" y="-8601.31" width="199.38" height="32766" filterUnits="userSpaceOnUse" color-interpolation-filters="sRGB"><feFlood flood-color="#fff" result="bg"/><feBlend in="SourceGraphic" in2="bg"/></filter><mask id="mask" x="140.69" y="-8601.31" width="199.38" height="32766" maskUnits="userSpaceOnUse"><g class="cls-29"/></mask><linearGradient id="linear-gradient" x1="168.49" y1="84.18" x2="339.89" y2="169.81" gradientUnits="userSpaceOnUse"><stop offset="0" stop-color="#ccc"/><stop offset="1" stop-color="#1a1a1a"/></linearGradient><filter id="luminosity-noclip-2" x="40.28" y="-8601.31" width="247.7" height="32766" filterUnits="userSpaceOnUse" color-interpolation-filters="sRGB"><feFlood flood-color="#fff" result="bg"/><feBlend in="SourceGraphic" in2="bg"/></filter><mask id="mask-2" x="40.28" y="-8601.31" width="247.7" height="32766" maskUnits="userSpaceOnUse"><g class="cls-28"/></mask><linearGradient id="linear-gradient-2" x1="32.2" y1="172.93" x2="250.17" y2="360.24" gradientUnits="userSpaceOnUse"><stop offset="0" stop-color="#b3b3b3"/><stop offset="1"/></linearGradient><linearGradient id="linear-gradient-3" x1="298.9" y1="86.29" x2="80.32" y2="304.87" gradientUnits="userSpaceOnUse"><stop offset="0" stop-color="#f6e379"/><stop offset="1" stop-color="#f65142"/></linearGradient><filter id="luminosity-noclip-3" x="140.69" y="44.89" width="199.38" height="190.06" filterUnits="userSpaceOnUse" color-interpolation-filters="sRGB"><feFlood flood-color="#fff" result="bg"/><feBlend in="SourceGraphic" in2="bg"/></filter><mask id="mask-3" x="140.69" y="44.89" width="199.38" height="190.06" maskUnits="userSpaceOnUse"><g class="cls-1"><path class="cls-2" d="M340.07,195A147.63,147.63,0,0,1,334.65,235c-.2-3.08-.53-6.09-.8-9.17-1.6-16.21-4-32.62-10.83-47.35-9.29-20.16-26.34-36-45.93-46.48s-41.45-15.67-63.45-18.28c-19.52-2.34-40.58-3.21-56.22-15.2-13.58-10.38-20.13-29.67-15-45.74a148,148,0,0,1,47.74-7.84A150,150,0,0,1,340.07,195Z"/></g></mask><linearGradient id="linear-gradient-4" x1="168.49" y1="84.18" x2="339.89" y2="169.81" gradientUnits="userSpaceOnUse"><stop offset="0" stop-color="#ffff9d"/><stop offset="1" stop-color="#fff"/></linearGradient><linearGradient id="linear-gradient-5" x1="320.89" y1="94.54" x2="108.94" y2="313.74" gradientUnits="userSpaceOnUse"><stop offset="0" stop-color="#f6c452"/><stop offset="1" stop-color="#c72c23"/></linearGradient><linearGradient id="linear-gradient-6" x1="222.28" y1="-0.95" x2="10.33" y2="218.25" xlink:href="#linear-gradient-5"/><linearGradient id="linear-gradient-7" x1="396.05" y1="167.45" x2="184.16" y2="386.58" xlink:href="#linear-gradient-5"/><linearGradient id="linear-gradient-8" x1="375.38" y1="147.44" x2="163.5" y2="366.57" xlink:href="#linear-gradient-5"/><linearGradient id="linear-gradient-9" x1="369.94" y1="142.17" x2="158.07" y2="361.29" xlink:href="#linear-gradient-5"/><linearGradient id="linear-gradient-10" x1="223.05" y1="-0.1" x2="11.18" y2="219.02" xlink:href="#linear-gradient-5"/><linearGradient id="linear-gradient-11" x1="321.34" y1="95.04" x2="109.37" y2="314.25" xlink:href="#linear-gradient-5"/><linearGradient id="linear-gradient-12" x1="329.34" y1="102.82" x2="117.44" y2="321.97" xlink:href="#linear-gradient-5"/><linearGradient id="linear-gradient-13" x1="263.62" y1="39.1" x2="51.66" y2="258.3" xlink:href="#linear-gradient-5"/><linearGradient id="linear-gradient-14" x1="266.23" y1="41.69" x2="54.3" y2="260.86" xlink:href="#linear-gradient-5"/><linearGradient id="linear-gradient-15" x1="247.75" y1="23.86" x2="35.91" y2="242.95" xlink:href="#linear-gradient-5"/><linearGradient id="linear-gradient-16" x1="318.19" y1="91.99" x2="106.12" y2="311.32" xlink:href="#linear-gradient-5"/><linearGradient id="linear-gradient-17" x1="250.2" y1="26.2" x2="38.39" y2="245.26" xlink:href="#linear-gradient-5"/><linearGradient id="linear-gradient-18" x1="280.71" y1="55.75" x2="68.83" y2="274.88" xlink:href="#linear-gradient-5"/><linearGradient id="linear-gradient-19" x1="333.23" y1="106.58" x2="121.32" y2="325.74" xlink:href="#linear-gradient-5"/><linearGradient id="linear-gradient-20" x1="203.43" y1="-19.16" x2="-8.5" y2="200.02" xlink:href="#linear-gradient-5"/><filter id="luminosity-noclip-4" x="40.28" y="153.12" width="247.7" height="192" filterUnits="userSpaceOnUse" color-interpolation-filters="sRGB"><feFlood flood-color="#fff" result="bg"/><feBlend in="SourceGraphic" in2="bg"/></filter><mask id="mask-4" x="40.28" y="153.12" width="247.7" height="192" maskUnits="userSpaceOnUse"><g class="cls-3"><path class="cls-4" d="M288,308.62a148.7,148.7,0,0,1-97.81,36.49c-82.77,0-149.9-67.17-149.9-150.07a150.06,150.06,0,0,1,5.95-41.92,30.86,30.86,0,0,1,5.42,2.54c18.72,10.78,27.81,32.75,32.83,53.84s7.42,43.26,18.11,62c15,26.39,44.66,41.93,74.62,46.61s60.57-.13,90.32-6.22A174.28,174.28,0,0,1,288,308.62Z"/></g></mask><linearGradient id="linear-gradient-21" x1="32.2" y1="172.93" x2="250.17" y2="360.24" gradientUnits="userSpaceOnUse"><stop offset="0" stop-color="#ff7"/><stop offset="1" stop-color="#fff"/></linearGradient><linearGradient id="linear-gradient-22" x1="308.6" y1="522.74" x2="55.01" y2="344.8" gradientTransform="matrix(1, 0.32, -0.36, 1.12, 161.76, -334.2)" gradientUnits="userSpaceOnUse"><stop offset="0" stop-color="#ff7044"/><stop offset="1" stop-color="#c60f33"/></linearGradient></defs><g id="Layer_2" data-name="Layer 2"><g id="Ñëîé_1" data-name="Ñëîé 1"><ellipse class="cls-5" cx="191.63" cy="191.95" rx="191.63" ry="191.95"/><ellipse class="cls-5" cx="191.63" cy="191.95" rx="168.7" ry="168.98"/><ellipse class="cls-6" cx="190.18" cy="195.02" rx="149.87" ry="150.12"/><g class="cls-7"><path class="cls-8" d="M340.07,195A147.63,147.63,0,0,1,334.65,235c-.2-3.08-.53-6.09-.8-9.17-1.6-16.21-4-32.62-10.83-47.35-9.29-20.16-26.34-36-45.93-46.48s-41.45-15.67-63.45-18.28c-19.52-2.34-40.58-3.21-56.22-15.2-13.58-10.38-20.13-29.67-15-45.74a148,148,0,0,1,47.74-7.84A150,150,0,0,1,340.07,195Z"/></g><path class="cls-9" d="M139.8,291.53c0,7.22-4.2,13.08-9.39,13.08S121,298.75,121,291.53s4.2-13.07,9.38-13.07S139.8,284.32,139.8,291.53Z"/><path class="cls-10" d="M68.94,162.49c0,3.61-2.1,6.54-4.7,6.54s-4.69-2.93-4.69-6.54,2.1-6.53,4.69-6.53S68.94,158.88,68.94,162.49Z"/><path class="cls-11" d="M273.69,300.69c-2.8,2.26-6.4,2.46-8,.44s-.67-5.5,2.14-7.76,6.4-2.46,8-.44S276.5,298.43,273.69,300.69Z"/><path class="cls-12" d="M212.5,325.91c-5.64,4.53-12.17,5.76-14.59,2.75s.17-9.15,5.81-13.69,12.16-5.77,14.59-2.75S218.13,321.37,212.5,325.91Z"/><path class="cls-13" d="M306.86,217.94c-4.73,3.24-10.45,3.1-12.78-.3s-.38-8.8,4.35-12,10.45-3.11,12.78.3S311.59,214.69,306.86,217.94Z"/><path class="cls-14" d="M147.38,77.27c3.55,2.79,4.81,7.13,2.81,9.69s-6.5,2.37-10.06-.42-4.81-7.12-2.81-9.68S143.83,74.49,147.38,77.27Z"/><path class="cls-15" d="M261.9,166c.68-3.92-1.6-9.22-4.72-10.72-5.23-2.52-7.4,2.86-6.54,7.11.63,3.15,2.77,8.65,7,8A4.94,4.94,0,0,0,261.9,166Z"/><path class="cls-16" d="M226.37,217.37a7.79,7.79,0,1,1-7.79-7.8A7.8,7.8,0,0,1,226.37,217.37Z"/><ellipse class="cls-17" cx="125.57" cy="181.87" rx="8.93" ry="12.84"/><path class="cls-18" d="M212.45,102.42c0,3.11-2.22,5.63-4.95,5.63s-4.95-2.52-4.95-5.63,2.22-5.63,4.95-5.63S212.45,99.31,212.45,102.42Z"/><path class="cls-19" d="M148.66,131.41c0,2-2.2,3.7-4.9,3.7s-4.91-1.66-4.91-3.7,2.2-3.71,4.91-3.71S148.66,129.36,148.66,131.41Z"/><path class="cls-20" d="M302,110.53c3.44,5.68,4.4,11.4,2.15,12.77s-6.87-2.13-10.31-7.82-4.4-11.39-2.15-12.76S298.51,104.84,302,110.53Z"/><path class="cls-21" d="M226.37,58.91c0,2.55-3.49,4.62-7.79,4.62s-7.79-2.07-7.79-4.62,3.49-4.63,7.79-4.63S226.37,56.35,226.37,58.91Z"/><path class="cls-22" d="M86.55,261.17A4.47,4.47,0,1,1,82.09,257,4.33,4.33,0,0,1,86.55,261.17Z"/><path class="cls-23" d="M183.49,266.05a4.47,4.47,0,1,1-4.46-4.88A4.68,4.68,0,0,1,183.49,266.05Z"/><path class="cls-24" d="M91.56,101.44c0,3.16-2.12,5.73-4.73,5.73s-4.74-2.57-4.74-5.73,2.12-5.74,4.74-5.74S91.56,98.27,91.56,101.44Z"/><g class="cls-25"><path class="cls-26" d="M288,308.62a148.7,148.7,0,0,1-97.81,36.49c-82.77,0-149.9-67.17-149.9-150.07a150.06,150.06,0,0,1,5.95-41.92,30.86,30.86,0,0,1,5.42,2.54c18.72,10.78,27.81,32.75,32.83,53.84s7.42,43.26,18.11,62c15,26.39,44.66,41.93,74.62,46.61s60.57-.13,90.32-6.22A174.28,174.28,0,0,1,288,308.62Z"/></g><path class="cls-27" d="M336.36,228.24c-1.52,6.14-4,14.25-5.9,19.71,12.55,6.85,16.21,9.87,20.52,14.1a66.77,66.77,0,0,1-9.33.55c-31.53,0-94.49-13.66-160.38-34.81-87.16-28-144.41-57.31-158.08-70.7a67.05,67.05,0,0,1,9.34-.55,122.63,122.63,0,0,1,12.59.58c1.85-6.52,3.81-12.42,6.55-19.54a166.32,166.32,0,0,0-19.14-1.13c-7.42,0-27.11,0-31.42,13.44-11.07,34.66,130.41,83,174,97C243.9,269,307.7,282.69,341.65,282.69c7.42,0,27.12,0,31.41-13.44C377.05,256.77,368.06,245.42,336.36,228.24Z"/></g></g></svg>