<svg xmlns="http://www.w3.org/2000/svg" xmlns:xlink="http://www.w3.org/1999/xlink" viewBox="0 0 418.15 418.84"><defs><style>.cls-1{fill:#fde03d;opacity:0.15;}.cls-2{fill:url(#linear-gradient);}.cls-3{fill:url(#linear-gradient-2);}.cls-4{fill:url(#linear-gradient-3);}.cls-5{fill:url(#linear-gradient-4);}.cls-6{fill:url(#linear-gradient-5);}.cls-7{fill:url(#linear-gradient-6);}.cls-8{fill:url(#linear-gradient-7);}.cls-9{fill:url(#linear-gradient-8);}.cls-10{fill:url(#linear-gradient-9);}.cls-11{fill:url(#linear-gradient-10);}.cls-12{fill:url(#linear-gradient-11);}.cls-13{fill:url(#linear-gradient-12);}.cls-14{fill:url(#linear-gradient-13);}</style><linearGradient id="linear-gradient" x1="209.97" y1="234.11" x2="-22.61" y2="517.66" gradientTransform="matrix(0.99, -0.15, 0.15, 0.99, 56.48, -140.8)" gradientUnits="userSpaceOnUse"><stop offset="0" stop-color="#d9c04a"/><stop offset="1" stop-color="#d98436"/></linearGradient><linearGradient id="linear-gradient-2" x1="132.75" y1="225.98" x2="-67.8" y2="470.47" gradientTransform="matrix(0.99, -0.15, 0.15, 0.99, 56.48, -140.8)" gradientUnits="userSpaceOnUse"><stop offset="0" stop-color="#d9ca60"/><stop offset="1" stop-color="#d9a54c"/></linearGradient><linearGradient id="linear-gradient-3" x1="233.27" y1="281.2" x2="123.66" y2="414.83" gradientTransform="matrix(0.99, -0.15, 0.15, 0.99, 56.48, -140.8)" gradientUnits="userSpaceOnUse"><stop offset="0" stop-color="#d9ca60"/><stop offset="1" stop-color="#d9b84c"/></linearGradient><linearGradient id="linear-gradient-4" x1="167.62" y1="373.44" x2="34.7" y2="535.49" xlink:href="#linear-gradient-2"/><linearGradient id="linear-gradient-5" x1="87.38" y1="241.19" x2="-98.3" y2="467.55" gradientTransform="matrix(0.99, -0.15, 0.15, 0.99, 56.48, -140.8)" gradientUnits="userSpaceOnUse"><stop offset="0" stop-color="#ecdd83"/><stop offset="1" stop-color="#d9ac4c"/></linearGradient><linearGradient id="linear-gradient-6" x1="136.47" y1="402.31" x2="30.12" y2="531.96" xlink:href="#linear-gradient-5"/><linearGradient id="linear-gradient-7" x1="228.9" y1="261.34" x2="88.75" y2="432.2" xlink:href="#linear-gradient-5"/><linearGradient id="linear-gradient-8" x1="209.89" y1="234.2" x2="-22.6" y2="517.64" gradientTransform="matrix(0.99, -0.15, 0.15, 0.99, 56.48, -140.8)" gradientUnits="userSpaceOnUse"><stop offset="0" stop-color="#d9c04a"/><stop offset="1" stop-color="#c66445"/></linearGradient><linearGradient id="linear-gradient-9" x1="132.79" y1="225.92" x2="-67.8" y2="470.48" gradientTransform="matrix(0.99, -0.15, 0.15, 0.99, 56.48, -140.8)" gradientUnits="userSpaceOnUse"><stop offset="0" stop-color="#d9ca60"/><stop offset="1" stop-color="#d9774f"/></linearGradient><linearGradient id="linear-gradient-10" x1="169.13" y1="374.68" x2="36.21" y2="536.73" xlink:href="#linear-gradient-9"/><linearGradient id="linear-gradient-11" x1="87.38" y1="241.19" x2="-98.3" y2="467.55" gradientTransform="matrix(0.99, -0.15, 0.15, 0.99, 56.48, -140.8)" gradientUnits="userSpaceOnUse"><stop offset="0" stop-color="#d9ca60"/><stop offset="1" stop-color="#d9986d"/></linearGradient><linearGradient id="linear-gradient-12" x1="136.45" y1="402.33" x2="30.12" y2="531.96" xlink:href="#linear-gradient-11"/><linearGradient id="linear-gradient-13" x1="331.6" y1="286.96" x2="191.46" y2="457.81" xlink:href="#linear-gradient-2"/></defs><g id="Layer_2" data-name="Layer 2"><g id="Ñëîé_1" data-name="Ñëîé 1"><ellipse class="cls-1" cx="209.07" cy="209.42" rx="209.07" ry="209.42"/><ellipse class="cls-1" cx="209.07" cy="209.42" rx="177.41" ry="177.71"/><path class="cls-2" d="M358.73,187.24l.09.66a148.92,148.92,0,0,1,1.44,27.7c-.15,4.34-.54,8.66-1.06,12.94a145.87,145.87,0,0,1-8.72,34.57,144.75,144.75,0,0,1-8.38,18.46.06.06,0,0,1-.05.07,156.31,156.31,0,0,1-19.23,27.62,150.37,150.37,0,0,1-91.56,50.11A143.21,143.21,0,0,1,207.75,361c-1.88,0-3.77,0-5.6-.08a152,152,0,0,1-35-5.8,156.23,156.23,0,0,1-56.92-30.84c-.92-.84-1.89-1.66-2.74-2.51a135.28,135.28,0,0,1-10.33-10.27A147.74,147.74,0,0,1,86.4,298.24a138.7,138.7,0,0,1-14.56-24.9c-.42-.73-.72-1.54-1.07-2.28A138.74,138.74,0,0,1,63,248.86a140.07,140.07,0,0,1-3.57-17.11,130.25,130.25,0,0,1-1.52-16.81A150,150,0,0,1,69,152a152.43,152.43,0,0,1,40.81-57A150.9,150.9,0,0,1,261.39,67.27a133,133,0,0,1,16,7l1.38.7a151.24,151.24,0,0,1,79.92,112.22Z"/><path class="cls-3" d="M200,73.55s-31.12,2.68-35.15,36.19c-3,25.15,16,32.06,11.23,62.21-5.27,33.33-41.5,37.56-54.55,55.25s19.43,42.19,14.67,68.27c-3.09,16.82-16.69,25-25.91,28.79-.92-.84-1.89-1.66-2.74-2.51a135.28,135.28,0,0,1-10.33-10.27A147.74,147.74,0,0,1,86.4,298.24a138.7,138.7,0,0,1-14.56-24.9c.53-18.52,1.44-39.45,3.23-51.95,3.68-26.4,52.92-90,52.92-90s.18-7.39,7.93-20.28a119.76,119.76,0,0,1,13.67-18.4C170.87,68.75,200,73.55,200,73.55Z"/><path class="cls-4" d="M244.62,129.29s44.52-4.34,53.8,22.42c13.68,39.43-68.71,38.35-68.71,38.35s52.38,35.17,79.07,31.21,48.38-39.52,31.27-70.43-49.48-47-65.66-43.47S244.62,129.29,244.62,129.29Z"/><path class="cls-5" d="M350.48,263.11a144.75,144.75,0,0,1-8.38,18.46.06.06,0,0,1-.05.07,156.31,156.31,0,0,1-19.23,27.62c-8.1-1-24-2.76-44.31-4.79-6.47-.62-13.38-1.3-20.64-2a50.25,50.25,0,0,0-9.55-.1c-30.07,2-40.75,29.12-44.55,48.17a101.19,101.19,0,0,0-1.62,10.34,152,152,0,0,1-35-5.8l-2.88-58.34c-1.8-14.58-3-20.48-3-20.48s-.72-1.11-1.81-3.14c-3.34-6.19-10.12-20.76-9.21-35.55,1.36-24,24.86-34.3,26.92-35.09-1.1,1.14-10.75,11-6.15,29.38,1.93,7.69,9.73,13.22,19.55,17.17,21.32,8.63,52,9.78,52,9.78s12.52,5,27.76,9.44c12,3.63,25.74,6.94,36.44,7.42C330.2,276.71,343.56,269.31,350.48,263.11Z"/><path class="cls-6" d="M108.27,218.4c-24,17.25-23.87,33.6-13.71,43.1s23.47,17.44,21.27,38.63a46,46,0,0,1-8.33,21.62,135.28,135.28,0,0,1-10.33-10.27A147.74,147.74,0,0,1,86.4,298.24a138.7,138.7,0,0,1-14.56-24.9c-.42-.73-.72-1.54-1.07-2.28A138.74,138.74,0,0,1,63,248.86a140.07,140.07,0,0,1-3.57-17.11,130.25,130.25,0,0,1-1.52-16.81A150,150,0,0,1,69,152a152.43,152.43,0,0,1,40.81-57,104.52,104.52,0,0,1,26.08,16.14c8.79,7.69,16.56,17.91,19.54,31C164.11,180.05,132.25,201.15,108.27,218.4Z"/><path class="cls-7" d="M278.51,304.47a42.51,42.51,0,0,1-4,11.24c-12.16,23.65-43.46,24.35-43.46,24.35s25.58-12.26,17.26-37.67c-.23-.7-.44-1.33-.73-2-4.9-12.59-19.5-11.09-26.06-7.87-10,5-18.65,18-20.16,34.09a63,63,0,0,0,2.4,24,70,70,0,0,0,4,10.42c-1.88,0-3.77,0-5.6-.08a152,152,0,0,1-35-5.8,146.48,146.48,0,0,1-32-13.5c.2-17.06,4.06-45.07,24.28-68.46.88-1,1.83-2,2.83-3.09,9.29-9.84,18.85-16.61,28.28-21,25.88-12.24,50.38-6.76,63.46,2.43a64.61,64.61,0,0,1,16.34,16.79C277.28,278.56,281.28,291.22,278.51,304.47Z"/><path class="cls-8" d="M358.73,187.24l.09.66a148.92,148.92,0,0,1,1.44,27.7c-.15,4.34-.54,8.66-1.06,12.94a85.32,85.32,0,0,1-13.1,10c-17.49,10.64-47.08,14.67-67.52-3.22s-36-30-58.59-28.94c-20.87,1-35.86,24.37-35.86,24.37s-.57-21.87,9.75-34.18c9.91-11.81,30.53-22.24,59.35-8.94.59.28,1.11.5,1.68.72,32.6,14.19,70.24,4.28,77.9-17.36,7.72-22.08-13.48-47.09-45.18-51.2-11.88-1.51-22.83,2.91-32.39,9.32-16,10.6-28.06,26.62-33.63,29.15-9,4-32.39-16.11-36.55-31.06s1.6-31,12-39.62c11.53-9.5,45.89,4.73,64,1.67,9.66-1.62,14.2-8.68,16.37-14.9l1.38.7a151.24,151.24,0,0,1,79.92,112.22Z"/><path class="cls-9" d="M241.94,275.26c-71.43,0-131-59.7-131-131.25a129,129,0,0,1,15.83-61.79A150.84,150.84,0,0,0,109.84,95,152.43,152.43,0,0,0,69,152a150,150,0,0,0-11.13,63,130.25,130.25,0,0,0,1.52,16.81A140.07,140.07,0,0,0,63,248.86a138.74,138.74,0,0,0,7.78,22.2c.35.74.65,1.55,1.07,2.28a138.7,138.7,0,0,0,14.56,24.9,147.74,147.74,0,0,0,10.77,13.24,135.28,135.28,0,0,0,10.33,10.27c.85.85,1.82,1.67,2.74,2.51a156.23,156.23,0,0,0,56.92,30.84,152,152,0,0,0,35,5.8c1.83.09,3.72.12,5.6.08a143.21,143.21,0,0,0,23.51-1.61,150.37,150.37,0,0,0,91.56-50.11,156.31,156.31,0,0,0,19.23-27.62.06.06,0,0,0,.05-.07,144.75,144.75,0,0,0,8.38-18.46,145.87,145.87,0,0,0,8.72-34.57c.52-4.28.91-8.6,1.06-12.94a142.15,142.15,0,0,0-.26-15.7C338.73,244.09,293.48,275.26,241.94,275.26Z"/><path class="cls-10" d="M121.48,227.2c3-4,7.17-7.34,11.9-10.47A130,130,0,0,1,111.43,154C96.76,175,77.33,205.18,75.07,221.39c-1.79,12.49-2.7,33.43-3.23,51.95a138.7,138.7,0,0,0,14.56,24.9,147.74,147.74,0,0,0,10.77,13.24,135.28,135.28,0,0,0,10.33,10.27c.85.85,1.82,1.67,2.74,2.51,9.22-3.74,22.82-12,25.91-28.79C140.91,269.39,108.37,244.85,121.48,227.2Z"/><path class="cls-11" d="M306.79,275.69c-8.75-.39-19.49-2.7-29.69-5.51a127.06,127.06,0,0,1-35.16,5.08c-35.41,0-67.88-14.7-91.65-38.2,0,.18,0,.35-.06.53-.91,14.79,5.87,29.36,9.21,35.55,1.09,2,1.81,3.14,1.81,3.14s1.23,5.9,3,20.48l2.88,58.34a152,152,0,0,0,35,5.8,101.19,101.19,0,0,1,1.62-10.34c3.8-19.05,14.48-46.13,44.55-48.17a50.25,50.25,0,0,1,9.55.1c7.26.68,14.17,1.36,20.64,2,20.28,2,36.21,3.8,44.31,4.79a156.31,156.31,0,0,0,19.23-27.62.06.06,0,0,0,.05-.07,144.75,144.75,0,0,0,8.38-18.46C343.56,269.31,330.2,276.71,306.79,275.69Z"/><path class="cls-12" d="M94.56,261.5c-10.16-9.5-10.27-25.85,13.71-43.1,5.8-4.17,12-8.58,18.09-13.38A127.19,127.19,0,0,1,119,99.57c-3.27-1.79-6.43-3.38-9.18-4.59A152.43,152.43,0,0,0,69,152a150,150,0,0,0-11.13,63,130.25,130.25,0,0,0,1.52,16.81A140.07,140.07,0,0,0,63,248.86a138.74,138.74,0,0,0,7.78,22.2c.35.74.65,1.55,1.07,2.28a138.7,138.7,0,0,0,14.56,24.9,147.74,147.74,0,0,0,10.77,13.24,135.28,135.28,0,0,0,10.33,10.27,46,46,0,0,0,8.33-21.62C118,278.94,104.71,271,94.56,261.5Z"/><path class="cls-13" d="M241.94,275.26a128.58,128.58,0,0,1-65.23-18,103.56,103.56,0,0,0-14.44,12.78c-1,1.06-2,2.05-2.83,3.09-20.22,23.39-24.08,51.4-24.28,68.46a146.48,146.48,0,0,0,32,13.5,152,152,0,0,0,35,5.8c1.83.09,3.72.12,5.6.08a70,70,0,0,1-4-10.42,63,63,0,0,1-2.4-24c1.51-16.1,10.14-29.13,20.16-34.09,6.56-3.22,21.16-4.72,26.06,7.87.29.69.5,1.32.73,2,8.32,25.41-17.26,37.67-17.26,37.67s31.3-.7,43.46-24.35a42.51,42.51,0,0,0,4-11.24c2.49-11.92-.53-23.36-6.2-33A127.29,127.29,0,0,1,241.94,275.26Z"/><path class="cls-14" d="M322.35,246.89a64.56,64.56,0,0,0,23.75-8.38,85.32,85.32,0,0,0,13.1-10c.52-4.28.91-8.6,1.06-12.94a142.15,142.15,0,0,0-.26-15.7A134,134,0,0,1,322.35,246.89Z"/></g></g></svg>