<svg xmlns="http://www.w3.org/2000/svg" xmlns:xlink="http://www.w3.org/1999/xlink" viewBox="0 0 300.95 301.44"><defs><style>.cls-1{mask:url(#mask);filter:url(#luminosity-noclip-3);}.cls-2,.cls-4{mix-blend-mode:multiply;}.cls-2{fill:url(#linear-gradient);}.cls-3{mask:url(#mask-2);filter:url(#luminosity-noclip-4);}.cls-4{fill:url(#linear-gradient-2);}.cls-5{fill:url(#linear-gradient-3);}.cls-6{fill:url(#linear-gradient-4);}.cls-7{fill:url(#linear-gradient-5);}.cls-8{fill:url(#linear-gradient-6);}.cls-9{fill:url(#linear-gradient-7);}.cls-10{mask:url(#mask-3);}.cls-11{fill:#fff;opacity:0.24;}.cls-12{mask:url(#mask-4);}.cls-13{fill:#fffc83;opacity:0.49;}.cls-14{fill:url(#linear-gradient-8);}.cls-15{fill:url(#linear-gradient-9);}.cls-16{fill:url(#linear-gradient-10);}.cls-17{fill:url(#linear-gradient-11);}.cls-18{fill:url(#linear-gradient-12);}.cls-19{fill:url(#linear-gradient-13);}.cls-20{fill:url(#linear-gradient-14);}.cls-21{fill:url(#linear-gradient-15);}.cls-22{fill:url(#linear-gradient-16);}.cls-23{fill:url(#linear-gradient-17);}.cls-24{fill:url(#linear-gradient-18);}.cls-25{fill:url(#linear-gradient-19);}.cls-26{filter:url(#luminosity-noclip-2);}.cls-27{filter:url(#luminosity-noclip);}</style><filter id="luminosity-noclip" x="0" y="-8557.02" width="270.33" height="32766" filterUnits="userSpaceOnUse" color-interpolation-filters="sRGB"><feFlood flood-color="#fff" result="bg"/><feBlend in="SourceGraphic" in2="bg"/></filter><mask id="mask" x="0" y="-8557.02" width="270.33" height="32766" maskUnits="userSpaceOnUse"><g class="cls-27"/></mask><linearGradient id="linear-gradient" x1="14.09" y1="240.84" x2="232.82" y2="428.8" gradientTransform="translate(-73.44 -70.39) rotate(-12.09)" gradientUnits="userSpaceOnUse"><stop offset="0" stop-color="#999"/><stop offset="1"/></linearGradient><filter id="luminosity-noclip-2" x="73.55" y="-8557.02" width="227.37" height="32766" filterUnits="userSpaceOnUse" color-interpolation-filters="sRGB"><feFlood flood-color="#fff" result="bg"/><feBlend in="SourceGraphic" in2="bg"/></filter><mask id="mask-2" x="73.55" y="-8557.02" width="227.37" height="32766" maskUnits="userSpaceOnUse"><g class="cls-26"/></mask><linearGradient id="linear-gradient-2" x1="150.89" y1="151.84" x2="322.89" y2="237.77" gradientTransform="translate(-73.44 -70.39) rotate(-12.09)" gradientUnits="userSpaceOnUse"><stop offset="0" stop-color="#999"/><stop offset="1" stop-color="#1a1a1a"/></linearGradient><linearGradient id="linear-gradient-3" x1="22.18" y1="263.12" x2="323.08" y2="263.12" gradientTransform="translate(-73.44 -70.39) rotate(-12.09)" gradientUnits="userSpaceOnUse"><stop offset="0" stop-color="#ffce33"/><stop offset="1" stop-color="#e45e33"/></linearGradient><linearGradient id="linear-gradient-4" x1="121.41" y1="316.3" x2="220.71" y2="228.12" gradientTransform="translate(-73.44 -70.39) rotate(-12.09)" gradientUnits="userSpaceOnUse"><stop offset="0" stop-color="#ffac33"/><stop offset="1" stop-color="#cc451d"/></linearGradient><linearGradient id="linear-gradient-5" x1="134.27" y1="299.28" x2="201.2" y2="247.67" gradientTransform="translate(-73.44 -70.39) rotate(-12.09)" gradientUnits="userSpaceOnUse"><stop offset="0" stop-color="#ffac33"/><stop offset="1" stop-color="#cf4310"/></linearGradient><linearGradient id="linear-gradient-6" x1="222.59" y1="399.01" x2="245.13" y2="373.15" xlink:href="#linear-gradient-4"/><linearGradient id="linear-gradient-7" x1="255.02" y1="421.94" x2="232.01" y2="380.02" gradientTransform="translate(-73.44 -70.39) rotate(-12.09)" gradientUnits="userSpaceOnUse"><stop offset="0" stop-color="#ffac33"/><stop offset="1" stop-color="#c93b1b"/></linearGradient><filter id="luminosity-noclip-3" x="0" y="139.77" width="270.33" height="161.5" filterUnits="userSpaceOnUse" color-interpolation-filters="sRGB"><feFlood flood-color="#fff" result="bg"/><feBlend in="SourceGraphic" in2="bg"/></filter><mask id="mask-3" x="0" y="139.77" width="270.33" height="161.5" maskUnits="userSpaceOnUse"><g class="cls-1"><path class="cls-2" d="M270.32,241.46A149.34,149.34,0,0,1,182,297.89C100.75,315.33,20.76,263.54,3.35,182.17a150.37,150.37,0,0,1-3-42.4,30.17,30.17,0,0,1,5.85,1.36c20.64,6.63,34.18,26.28,43.53,45.93s16.36,40.89,30.8,57c20.31,22.73,52.64,31.74,83,30S223,261.24,250.93,249A177.46,177.46,0,0,1,270.32,241.46Z"/></g></mask><filter id="luminosity-noclip-4" x="73.55" y="0.01" width="227.37" height="159.47" filterUnits="userSpaceOnUse" color-interpolation-filters="sRGB"><feFlood flood-color="#fff" result="bg"/><feBlend in="SourceGraphic" in2="bg"/></filter><mask id="mask-4" x="73.55" y="0.01" width="227.37" height="159.47" maskUnits="userSpaceOnUse"><g class="cls-3"><path class="cls-4" d="M297.58,119.17a148.44,148.44,0,0,1,3.07,40.31c-.85-3-1.81-5.87-2.72-8.83-5-15.57-10.78-31.17-20.57-44.19C264,88.63,243.94,76.65,222.52,70.52s-44-6.65-66.11-4.58c-19.65,1.81-40.51,5.4-58.38-3.07-15.5-7.33-26-24.88-24.3-41.74A148.62,148.62,0,0,1,118.94,3.38,150.5,150.5,0,0,1,297.58,119.17Z"/></g></mask><linearGradient id="linear-gradient-8" x1="37.42" y1="322.22" x2="151.89" y2="190.88" gradientTransform="translate(-73.44 -70.39) rotate(-12.09)" gradientUnits="userSpaceOnUse"><stop offset="0" stop-color="#ffbf33"/><stop offset="1" stop-color="#cc451d"/></linearGradient><linearGradient id="linear-gradient-9" x1="54.87" y1="302.23" x2="127.28" y2="219.15" gradientTransform="translate(-73.44 -70.39) rotate(-12.09)" gradientUnits="userSpaceOnUse"><stop offset="0" stop-color="#ffac33"/><stop offset="0.54" stop-color="#e57320"/><stop offset="1" stop-color="#cf4310"/></linearGradient><linearGradient id="linear-gradient-10" x1="119.88" y1="400.35" x2="175.19" y2="336.89" xlink:href="#linear-gradient-4"/><linearGradient id="linear-gradient-11" x1="127.73" y1="399.63" x2="155.2" y2="353.39" xlink:href="#linear-gradient-4"/><linearGradient id="linear-gradient-12" x1="241.49" y1="244.43" x2="282.75" y2="197.1" xlink:href="#linear-gradient-4"/><linearGradient id="linear-gradient-13" x1="209.03" y1="235.73" x2="290.35" y2="201.01" gradientTransform="translate(-73.44 -70.39) rotate(-12.09)" gradientUnits="userSpaceOnUse"><stop offset="0" stop-color="#ffac33"/><stop offset="1" stop-color="#c53410"/></linearGradient><linearGradient id="linear-gradient-14" x1="190.08" y1="154.59" x2="215.6" y2="125.3" xlink:href="#linear-gradient-4"/><linearGradient id="linear-gradient-15" x1="190.51" y1="171.74" x2="210.78" y2="127.63" xlink:href="#linear-gradient-5"/><linearGradient id="linear-gradient-16" x1="202.19" y1="386.98" x2="284.22" y2="292.87" xlink:href="#linear-gradient-4"/><linearGradient id="linear-gradient-17" x1="171.17" y1="348.17" x2="290.04" y2="303.69" gradientTransform="translate(-73.44 -70.39) rotate(-12.09)" gradientUnits="userSpaceOnUse"><stop offset="0" stop-color="#ff6d33"/><stop offset="1" stop-color="#cf3c10"/></linearGradient><linearGradient id="linear-gradient-18" x1="70.06" y1="175.21" x2="167.62" y2="179.81" xlink:href="#linear-gradient-4"/><linearGradient id="linear-gradient-19" x1="75.58" y1="210.74" x2="140.85" y2="160.16" xlink:href="#linear-gradient-5"/></defs><g id="Layer_2" data-name="Layer 2"><g id="Ñëîé_1" data-name="Ñëîé 1"><ellipse class="cls-5" cx="150.48" cy="150.72" rx="150.44" ry="150.69"/><path class="cls-6" d="M139.41,118.24c-15.2,9.72-18.77,31.33-8,48.26s31.86,22.78,47.07,13.06,18.77-31.33,8-48.26S154.61,108.52,139.41,118.24Z"/><path class="cls-7" d="M139.41,118.24c-8,5.15-12.72,13.65-13.85,23a27.43,27.43,0,0,1,26.91-18.35c22.74.68,39.05,27.23,31.7,48.29a38.89,38.89,0,0,1-2.73,6c12.56-10.52,15.06-30.15,5-45.87C175.69,114.37,154.61,108.52,139.41,118.24Z"/><path class="cls-8" d="M231.85,251c-7,5.84-10.5,13.24-7.78,16.52s10.62,1.21,17.64-4.64,10.5-13.24,7.78-16.52S238.87,245.13,231.85,251Z"/><path class="cls-9" d="M231.85,251c-7,5.84-10.5,13.24-7.78,16.52s10.62,1.21,17.64-4.64,10.5-13.24,7.78-16.52S238.87,245.13,231.85,251Z"/><g class="cls-10"><path class="cls-11" d="M163.59,274.13c-30.38,1.71-62.71-7.3-83-30-14.44-16.15-21.47-37.46-30.8-57s-22.89-39.3-43.53-45.93a30.17,30.17,0,0,0-5.85-1.36,150.37,150.37,0,0,0,3,42.4C20.76,263.54,100.75,315.33,182,297.89a149.34,149.34,0,0,0,88.33-56.43A177.46,177.46,0,0,0,250.93,249C223,261.24,194,272.41,163.59,274.13Z"/></g><g class="cls-12"><path class="cls-13" d="M219.4,16.81A149.63,149.63,0,0,0,118.94,3.38,148.62,148.62,0,0,0,73.73,21.13C72.05,38,82.53,55.54,98,62.87c17.87,8.47,38.73,4.88,58.38,3.07,22.14-2.07,44.77-1.5,66.11,4.58S264,88.63,277.36,106.46c9.79,13,15.6,28.62,20.57,44.19.91,3,1.87,5.85,2.72,8.83a148.44,148.44,0,0,0-3.07-40.31A150.24,150.24,0,0,0,219.4,16.81Z"/></g><path class="cls-14" d="M60.8,148.37c-14.21-1.84-28.28,16.53-31.43,41s5.82,45.83,20,47.67,28.28-16.54,31.43-41S75,150.2,60.8,148.37Z"/><path class="cls-15" d="M60.8,148.37c-10-1.3-19.94,7.55-26,21.45,20.18-21.08,35.27-10.23,39.93,6.6,3.66,13.22.51,33.53-3.46,46.46-.16.53-.41,1-.58,1.51,5-7.28,8.73-17.15,10.17-28.36C84,171.54,75,150.2,60.8,148.37Z"/><path class="cls-16" d="M152.06,251.07c-13.2-6.9-27.15-6.27-31.15,1.42s3.45,19.5,16.65,26.4,27.15,6.27,31.15-1.42S165.26,258,152.06,251.07Z"/><path class="cls-17" d="M152.06,251.07c-13.2-6.9-27.15-6.27-31.15,1.42a9.91,9.91,0,0,0-1,5.36c5.26-3.43,11.39-5.5,18-4.6,19.08,2.61,28.46,13.38,30.5,24.62.09-.15.23-.25.3-.4C172.72,269.79,165.26,258,152.06,251.07Z"/><path class="cls-18" d="M223,61.15c-4.86,4.49-2.56,14.93,5.15,23.32s17.9,11.55,22.77,7.06,2.56-14.92-5.15-23.31S227.89,56.67,223,61.15Z"/><path class="cls-19" d="M223,61.15c-2.19,2-2.85,5.28-2.3,9,2.41-9.7,12.53-8,18.53-2.18,8,7.73,14.22,17.49,9,25.09a7.39,7.39,0,0,0,2.73-1.51c4.87-4.48,2.56-14.92-5.15-23.31S227.89,56.67,223,61.15Z"/><path class="cls-20" d="M157.9,9.58c-7.43-.06-13.48,3.4-13.51,7.72s6,7.88,13.39,7.94,13.48-3.4,13.51-7.73S165.33,9.64,157.9,9.58Z"/><path class="cls-21" d="M157.9,9.58c-7.43-.06-13.48,3.4-13.51,7.72a4.88,4.88,0,0,0,.08.51c.63-1.26,6.38-5.22,13.44-4.81,7.87.47,11.91,3.19,13.27,5.16a4.41,4.41,0,0,0,.11-.65C171.33,13.19,165.33,9.64,157.9,9.58Z"/><path class="cls-22" d="M258.7,152.27c-10-2-20.44,8.27-23.34,22.92s2.84,28.12,12.84,30.11,20.44-8.28,23.34-22.92S268.69,154.25,258.7,152.27Z"/><path class="cls-23" d="M258.7,152.27c-5.18-1-10.45,1.27-14.76,5.72a14.64,14.64,0,0,1,7.44-.65c8.07,1.44,12.46,9.61,13.36,17.17,1.45,12.2-6.59,25.72-18,30.27a14,14,0,0,0,1.46.52c10,2,20.44-8.28,23.34-22.92S268.69,154.25,258.7,152.27Z"/><path class="cls-24" d="M70.31,64.05C56.76,72.91,50,86.49,55.09,94.37s20.29,7.1,33.84-1.76,20.36-22.44,15.22-30.32S83.86,55.19,70.31,64.05Z"/><path class="cls-25" d="M70.31,64.05C58.7,71.65,52.1,82.68,53.67,90.65c.1-.23.27-.44.39-.67A56.63,56.63,0,0,1,65.91,72.4C72.34,66.07,87,57.6,96.08,63.55c5.55,3.64,5,14-1.91,25.08,9.94-8.58,14.41-19.56,10-26.34C99,54.4,83.86,55.19,70.31,64.05Z"/></g></g></svg>