<svg xmlns="http://www.w3.org/2000/svg" xmlns:xlink="http://www.w3.org/1999/xlink" viewBox="0 0 476.38 354.32"><defs><style>.cls-1{fill:url(#linear-gradient);}.cls-2{fill:url(#linear-gradient-2);}.cls-3{fill:url(#linear-gradient-3);}.cls-4{fill:url(#linear-gradient-4);}.cls-5{fill:url(#linear-gradient-5);}.cls-6{fill:url(#linear-gradient-6);}.cls-7{fill:url(#linear-gradient-7);}.cls-8{fill:url(#linear-gradient-8);}.cls-9{fill:url(#linear-gradient-9);}.cls-10{fill:url(#linear-gradient-10);}.cls-11{fill:url(#linear-gradient-11);}.cls-12{fill:url(#linear-gradient-12);}.cls-13{fill:url(#linear-gradient-13);}.cls-14{fill:url(#linear-gradient-14);}.cls-15{fill:url(#linear-gradient-15);}.cls-16{fill:url(#linear-gradient-16);}.cls-17{fill:url(#linear-gradient-17);}.cls-18{fill:url(#linear-gradient-18);}</style><linearGradient id="linear-gradient" x1="365.56" y1="298.75" x2="133.7" y2="66.89" gradientUnits="userSpaceOnUse"><stop offset="0.08" stop-color="#ff7876"/><stop offset="1" stop-color="#fffc87"/></linearGradient><linearGradient id="linear-gradient-2" x1="145.94" y1="144.53" x2="164.89" y2="79.53" gradientUnits="userSpaceOnUse"><stop offset="0" stop-color="#ff8d76"/><stop offset="1" stop-color="#ffd887"/></linearGradient><linearGradient id="linear-gradient-3" x1="202.19" y1="84.82" x2="212.48" y2="59.91" gradientUnits="userSpaceOnUse"><stop offset="0" stop-color="#ff7876"/><stop offset="1" stop-color="#ffe787"/></linearGradient><linearGradient id="linear-gradient-4" x1="127.21" y1="199.22" x2="126.98" y2="170.19" gradientUnits="userSpaceOnUse"><stop offset="0.08" stop-color="#ff7876"/><stop offset="1" stop-color="#ffd887"/></linearGradient><linearGradient id="linear-gradient-5" x1="341.39" y1="128.1" x2="303.46" y2="74.71" gradientUnits="userSpaceOnUse"><stop offset="0.08" stop-color="#ff766f"/><stop offset="1" stop-color="#ffa67d"/></linearGradient><linearGradient id="linear-gradient-6" x1="300.72" y1="158.04" x2="278.37" y2="99.44" gradientUnits="userSpaceOnUse"><stop offset="0.08" stop-color="#ff6863"/><stop offset="1" stop-color="#ffc26f"/></linearGradient><linearGradient id="linear-gradient-7" x1="237.86" y1="259.64" x2="190.37" y2="146.61" gradientUnits="userSpaceOnUse"><stop offset="0.08" stop-color="#ff766f"/><stop offset="1" stop-color="#ffb87d"/></linearGradient><linearGradient id="linear-gradient-8" x1="167.34" y1="284.55" x2="162.19" y2="231.18" xlink:href="#linear-gradient"/><linearGradient id="linear-gradient-9" x1="297.47" y1="306.61" x2="311.75" y2="224.59" gradientUnits="userSpaceOnUse"><stop offset="0" stop-color="#cf5659"/><stop offset="1" stop-color="#ff7876"/></linearGradient><linearGradient id="linear-gradient-10" x1="164.54" y1="-15.02" x2="351.3" y2="-15.02" gradientTransform="translate(-2.26 68.72) rotate(-4.23)" gradientUnits="userSpaceOnUse"><stop offset="0.07" stop-color="#fff"/><stop offset="1" stop-color="#fff3d8"/></linearGradient><linearGradient id="linear-gradient-11" x1="38.36" y1="261.39" x2="288.82" y2="261.39" gradientTransform="matrix(1, 0, 0, 1, 0, 0)" xlink:href="#linear-gradient-10"/><linearGradient id="linear-gradient-12" x1="13.48" y1="293.13" x2="56.55" y2="293.13" gradientTransform="matrix(1, 0, 0, 1, 0, 0)" xlink:href="#linear-gradient-10"/><linearGradient id="linear-gradient-13" x1="231.8" y1="149.04" x2="449.71" y2="149.04" gradientTransform="matrix(1, 0, 0, 1, 0, 0)" xlink:href="#linear-gradient-10"/><linearGradient id="linear-gradient-14" x1="407.08" y1="215.4" x2="476.38" y2="215.4" gradientTransform="matrix(1, 0, 0, 1, 0, 0)" xlink:href="#linear-gradient-10"/><linearGradient id="linear-gradient-15" x1="191.13" y1="403.14" x2="356.33" y2="403.14" gradientTransform="translate(79.24 -122.74) rotate(7.15)" xlink:href="#linear-gradient-10"/><linearGradient id="linear-gradient-16" x1="0" y1="257.19" x2="16.82" y2="257.19" gradientTransform="matrix(1, 0, 0, 1, 0, 0)" xlink:href="#linear-gradient-10"/><linearGradient id="linear-gradient-17" x1="375.71" y1="22.4" x2="400.38" y2="22.4" gradientTransform="matrix(1, 0, 0, 1, 0, 0)" xlink:href="#linear-gradient-10"/><linearGradient id="linear-gradient-18" x1="403.14" y1="62.26" x2="415.08" y2="62.26" gradientTransform="matrix(1, 0, 0, 1, 0, 0)" xlink:href="#linear-gradient-10"/></defs><g id="Layer_2" data-name="Layer 2"><g id="Ñëîé_1" data-name="Ñëîé 1"><ellipse class="cls-1" cx="248.91" cy="182.1" rx="152.45" ry="152.71"/><path class="cls-2" d="M146.27,136.24c10.38,1.56,21.9-21.63,25.58-29a16.93,16.93,0,0,0,2.09-6.25,6.41,6.41,0,0,0-2.48-5.82c-2.16-1.42-5-.88-7.51-.21-1.59.42-3.18.87-4.75,1.35-6.82,2.07-14,5.06-17.62,11.19S136,134.69,146.27,136.24Z"/><path class="cls-3" d="M217.85,71.53a3.58,3.58,0,0,0-.52-.51,8.15,8.15,0,0,0-3.28-1.33c-6.06-1.39-12.93-1.19-17.81,2.65-1.35,1-2.59,2.76-2,4.36A4.21,4.21,0,0,0,196,78.56c2,1.29,5.13,2.88,7.56,2.89a14.34,14.34,0,0,0,4.63-1c2.54-.88,4.87-2.42,7.33-3.55,1.28-.59,2.69-1.34,3-2.7A3,3,0,0,0,217.85,71.53Z"/><path class="cls-4" d="M121.88,189.07c1.6,3.21,3.65,6.35,6.72,8.19a3,3,0,0,0,1.72.56c1.25-.09,2-1.45,2.39-2.64a27.35,27.35,0,0,0,1.12-4.45,16.5,16.5,0,0,0-.34-7.81,9.08,9.08,0,0,0-5.08-5.71,6.3,6.3,0,0,0-7.14,1.78,6.9,6.9,0,0,0-1.13,5.07A16.14,16.14,0,0,0,121.88,189.07Z"/><path class="cls-5" d="M289,93.57a10.16,10.16,0,0,0-.41,1.25c-1.69,6.49,2.7,12.94,7.36,17.76,14.33,14.78,38.72,11.92,55.75,3,4-2.12,8.19-5.82,7.54-10.33-.46-3.19-3.19-5.51-5.84-7.34a79.93,79.93,0,0,0-43.55-14c-4.31-.08-8.72.21-12.69,1.87A14.79,14.79,0,0,0,289,93.57Z"/><path class="cls-6" d="M297.81,153c10.57-.72,10.64-14.58,2.35-19.6-5.36-3.26-17.8-4.42-18,4.57-.06,3.23,1.63,6.24,3.66,8.76,2.59,3.2,6.12,6,10.24,6.27A16.25,16.25,0,0,0,297.81,153Z"/><path class="cls-7" d="M188.94,227.28a94.67,94.67,0,0,0,40.45,25.05c3,.92,6.13,1.69,9.19,1.11a14.62,14.62,0,0,0,6-2.85c7.5-5.7,10.7-15.49,11.78-24.86,1-8.59-.12-14.32-7.92-18.88-14.77-8.65-32.81-8.37-48.69-2.8-4.26,1.49-8.5,3.49-11.44,6.91s-4.28,8.54-2.23,12.56A16.12,16.12,0,0,0,188.94,227.28Z"/><path class="cls-8" d="M161.28,285.37c4.59,2.8,10.14,3.47,14.42-1.11a14.24,14.24,0,0,0,2.9-5.25,14.41,14.41,0,0,0,.64-8.1c-1.09-4.23-4.89-6.3-9-6.39a25.79,25.79,0,0,0-10.37,2c-3.42,1.43-6.87,4.23-6.81,7.93a9.35,9.35,0,0,0,2,5.06A21.23,21.23,0,0,0,161.28,285.37Z"/><path class="cls-9" d="M284.5,307.44c.82,1.19,2.42,1.66,5.16.87,10.21-3,15.77-11.62,21.57-19.77a41.36,41.36,0,0,0,4.59-7.55,7.72,7.72,0,0,0,.78-3.64c-.56-6.52-10.57-4.44-14-2.06a34.36,34.36,0,0,0-6.3,6.39,97.14,97.14,0,0,0-8.85,11.4C285.57,296.23,282.36,304.32,284.5,307.44Z"/><path class="cls-10" d="M268.63,60.76a14.38,14.38,0,0,0,17.48-2.25,27.58,27.58,0,0,0,29.94,1.24c4.78,2.21,9.65,4.45,14.87,5.15s10.93-.37,14.72-4c7.11-6.88,1.57-20.53-9-18-7.72-20.43-34.13-31.31-54-22.23-2.45-5.51-10.95-6.92-15.05-2.52C261.82,5,245.5-.18,232.18,0A32,32,0,0,0,213.7,5.61c-1.3.88-14.18,13.64-12.25,14.62a17.76,17.76,0,0,0-25.71,14.19A16.42,16.42,0,0,0,165,37.2c-6.58,4.53-4.76,13,3,14.85,4.42,1,9-.34,13.35-1.7C187.2,60.94,203,64.28,212.63,57a38.75,38.75,0,0,0,56,3.78Z"/><path class="cls-11" d="M67.62,198.42a28,28,0,0,1,5.93-4.33c9.34-5.09,20.62-3.93,30.05.27,10.94,4.87,18.81,15.19,22.76,26.5,6.93-8.36,19.29-10.86,29.74-7.94s19.1,10.47,25.59,19.17A20.49,20.49,0,0,1,204.57,222,24.23,24.23,0,0,1,249.88,220c3.82-6.28,12.89-5.68,20.18-4.82s16.81-.23,18.74-7.32c.71,11.63-13.19,18.4-24.79,19.28s-24.73-.33-33.29,7.55c-9.66,8.9-8.25,24.6-14.6,36.09A29.67,29.67,0,0,1,184.82,285a52.6,52.6,0,0,1-14.94,36.14c-5.5,5.59-12.58,10-20.39,10.76s-17.73-1.81-21.83-8.85a71.39,71.39,0,0,1-32.75-1.32c-7.22-2-14.55-5.58-18.36-12.05-3.4-5.77-3.47-12.91-6-19.1-4.79-11.67-17.28-18.05-24.94-28.07-5.82-7.62-8.7-17.75-6.49-27.1s10-17.45,19.44-18.91A29.62,29.62,0,0,1,67.62,198.42Z"/><path class="cls-12" d="M38.46,310.79c5.24-.75,10.18-2.81,13.78-7.05,5.59-6.57,6-17-.45-23.1-6-5.69-19.57-7.67-26.46-2.58A28.51,28.51,0,0,0,19.19,285a34,34,0,0,0-5,9.16c-1,3.33-1,7.14.73,10.14,2.17,3.68,6.53,5.48,10.73,6.16A43.23,43.23,0,0,0,38.46,310.79Z"/><path class="cls-13" d="M269.2,189c-.93-1.37-1.82-2.76-2.7-4.13-7.85-12.13-22.74-21.87-34.7-7.14.86-6.95,7.16-12.25,13.92-14.08,21.76-5.88,43,17,65.17,12.93,9.08-1.66,17-7.71,26.09-9,9.42-1.31,20.48,2.2,27.6-4.11,2.4-2.14,3.9-5.12,6.05-7.51,10.72-11.9,23.75-6.13,19.75-25.5-3.15-15.3-11.64-29.95-21.17-42.22,6.13-8.07,21.58-7.32,26.57,1.5,3.83-.62,7.9-1.23,11.48.29s6.17,6,4.25,9.4A27.15,27.15,0,0,1,436.27,139c8.86-.1,15,10.43,13.08,19.09s-9.43,15-17.4,18.92c3.5,14.57-9.69,28.34-23.8,33.33A60.59,60.59,0,0,1,350,199.63c-2.6,11-15.38,17.57-26.41,15.34s-19.69-11.6-23.42-22.24c-.17,7.79-10.58,11.76-17.76,8.77C276.69,199.14,272.71,194.21,269.2,189Z"/><path class="cls-14" d="M442,234.83c1.88-3.14,3.43-6.5,6.57-8.8,5.29-3.89,12.68-3.74,18.33-7.1,8.06-4.79,11.69-15.88,8-24.52a16,16,0,0,0-7.69-8.37,16.83,16.83,0,0,0-8.85-1.27,22.91,22.91,0,0,0-17.9,12.6c-1.75,3.65-2.53,7.76-4.67,11.19-2.92,4.67-8,7.48-12.88,10s-10,5.13-13.26,9.58-3.83,11.38.24,15.08c2.32,2.1,5.6,2.75,8.72,2.9,7,.35,15-1.9,20.08-6.91A21.41,21.41,0,0,0,442,234.83Z"/><path class="cls-15" d="M348,344.93a53.73,53.73,0,0,0,13.64-6.29c4.63-3,9.18-6.85,10.49-12.2.8-3.24.41-7,2.49-9.58,1.39-1.72,3.6-2.56,5.21-4.08,4.26-4,3.05-10.93,4.5-16.59.76-3,2.33-5.77,2.55-8.83.48-6.69-6.06-12.37-12.74-12.84s-13.05,3.06-18.08,7.49-9.12,9.84-14.1,14.32c-15,13.51-38,17.2-56.62,9.47-13.56-5.63-24-12.92-39.17-7.25-9.74,3.65-18.67,13.72-28.45,10.2,9.7,9.25,22.56-4.05,29.31,11.93,2.19,5.18,2.76,10.93,4.91,16.12a28.31,28.31,0,0,0,48.3,6.91c4.87,5.9,15.66,5,19.46-1.67C327.92,347.62,338.29,347.81,348,344.93Z"/><path class="cls-16" d="M.18,260.47c.77,3.13,4.26,5.1,7.46,4.77a10.79,10.79,0,0,0,7.68-5.31c1.69-2.75,2.29-6.68,0-9a6.33,6.33,0,0,0-2.64-1.5c-5-1.55-10.88,2-12.34,7.11A7.56,7.56,0,0,0,.18,260.47Z"/><path class="cls-17" d="M393.06,13.57a12.85,12.85,0,0,0-4.54.19A24,24,0,0,0,379,17.92a7.84,7.84,0,0,0-3,3.44,6.1,6.1,0,0,0,1.89,6.28,13.81,13.81,0,0,0,6.2,3c4.55,1.15,9.88,1.33,13.38-1.79a9,9,0,0,0,2.61-9A9,9,0,0,0,393.06,13.57Z"/><path class="cls-18" d="M413.56,57a5.43,5.43,0,0,0-1.71-1.63A5.78,5.78,0,0,0,405,56.54c-5.43,5.57,1.91,18.08,8.12,11.31a9.62,9.62,0,0,0,.4-10.86Z"/></g></g></svg>