<svg xmlns="http://www.w3.org/2000/svg" xmlns:xlink="http://www.w3.org/1999/xlink" viewBox="0 0 424.88 351.3"><defs><style>.cls-1{fill:url(#linear-gradient);}.cls-2{fill:url(#linear-gradient-2);}.cls-3{fill:url(#linear-gradient-3);}.cls-4{fill:url(#linear-gradient-4);}.cls-5{fill:url(#linear-gradient-5);}.cls-6{fill:url(#linear-gradient-6);}.cls-7{fill:url(#linear-gradient-7);}.cls-8{fill:url(#linear-gradient-8);}.cls-9{fill:url(#linear-gradient-9);}.cls-10{fill:url(#linear-gradient-10);}.cls-11{fill:url(#linear-gradient-11);}.cls-12{fill:url(#linear-gradient-12);}.cls-13{fill:url(#linear-gradient-13);}.cls-14{fill:url(#linear-gradient-14);}.cls-15{fill:url(#linear-gradient-15);}.cls-16{fill:url(#linear-gradient-16);}.cls-17{fill:url(#linear-gradient-17);}.cls-18{fill:url(#linear-gradient-18);}.cls-19{fill:url(#linear-gradient-19);}.cls-20{fill:#fffdfc;}</style><linearGradient id="linear-gradient" x1="331.12" y1="72.07" x2="89.22" y2="297.93" gradientUnits="userSpaceOnUse"><stop offset="0" stop-color="#ff724f"/><stop offset="1" stop-color="#bd2238"/></linearGradient><linearGradient id="linear-gradient-2" x1="697.58" y1="-203.43" x2="746.7" y2="-259.79" gradientTransform="matrix(1.34, -0.5, 0.32, 0.86, -671.66, 746.43)" gradientUnits="userSpaceOnUse"><stop offset="0" stop-color="#be1f22"/><stop offset="1" stop-color="#bd2238"/></linearGradient><linearGradient id="linear-gradient-3" x1="188.97" y1="207.78" x2="257.5" y2="154.94" gradientUnits="userSpaceOnUse"><stop offset="0" stop-color="#be2e36"/><stop offset="1" stop-color="#9a0e27"/></linearGradient><linearGradient id="linear-gradient-4" x1="77.74" y1="1528.86" x2="99.79" y2="1503.57" gradientTransform="matrix(0.35, 0.66, -0.83, 0.43, 1496.88, -407.34)" xlink:href="#linear-gradient-2"/><linearGradient id="linear-gradient-5" x1="282.95" y1="325.84" x2="272.73" y2="300.67" gradientUnits="userSpaceOnUse"><stop offset="0" stop-color="#be2e36"/><stop offset="1" stop-color="#860e24"/></linearGradient><linearGradient id="linear-gradient-6" x1="-47.4" y1="654.59" x2="8.22" y2="590.77" gradientTransform="translate(330.29 -374.22) rotate(19.44)" gradientUnits="userSpaceOnUse"><stop offset="0" stop-color="#b21828"/><stop offset="1" stop-color="#bd2238"/></linearGradient><linearGradient id="linear-gradient-7" x1="-47.9" y1="654.2" x2="7.75" y2="590.36" gradientTransform="translate(330.29 -374.22) rotate(19.44)" xlink:href="#linear-gradient-3"/><linearGradient id="linear-gradient-8" x1="934.39" y1="-351.75" x2="968.01" y2="-390.32" gradientTransform="matrix(0.64, -0.77, 0.77, 0.64, -139.05, 1267.55)" gradientUnits="userSpaceOnUse"><stop offset="0" stop-color="#b31f2f"/><stop offset="1" stop-color="#9f162c"/></linearGradient><linearGradient id="linear-gradient-9" x1="166.13" y1="323.03" x2="194.26" y2="275.67" xlink:href="#linear-gradient-5"/><linearGradient id="linear-gradient-10" x1="767.69" y1="-249.76" x2="793.4" y2="-279.26" gradientTransform="matrix(0.86, -0.51, 0.51, 0.86, -223.63, 753.24)" xlink:href="#linear-gradient-2"/><linearGradient id="linear-gradient-11" x1="294.4" y1="135.96" x2="332.62" y2="119.64" gradientUnits="userSpaceOnUse"><stop offset="0" stop-color="#a22932"/><stop offset="1" stop-color="#9a0e27"/></linearGradient><linearGradient id="linear-gradient-12" x1="1737.6" y1="-372.04" x2="1754.36" y2="-391.27" gradientTransform="translate(241.75 1839.3) rotate(-77.45)" xlink:href="#linear-gradient-2"/><linearGradient id="linear-gradient-13" x1="241.38" y1="65.63" x2="253.63" y2="38.98" xlink:href="#linear-gradient-3"/><linearGradient id="linear-gradient-14" x1="249.1" y1="684.77" x2="285.13" y2="643.42" gradientTransform="matrix(1.01, 0.43, -0.37, 0.86, 283.19, -450.75)" xlink:href="#linear-gradient-2"/><linearGradient id="linear-gradient-15" x1="282.55" y1="214.02" x2="327.92" y2="246.91" xlink:href="#linear-gradient-3"/><linearGradient id="linear-gradient-16" x1="331.77" y1="19.23" x2="47.58" y2="254.15" gradientUnits="userSpaceOnUse"><stop offset="0" stop-color="#f6e379"/><stop offset="1" stop-color="#f67a38"/></linearGradient><linearGradient id="linear-gradient-17" x1="422.79" y1="129.32" x2="138.49" y2="364.33" xlink:href="#linear-gradient-16"/><linearGradient id="linear-gradient-18" x1="2282.7" y1="-10.69" x2="2319.18" y2="-52.55" gradientTransform="translate(1014.5 2232.37) rotate(-111.04)" xlink:href="#linear-gradient-2"/><linearGradient id="linear-gradient-19" x1="115.59" y1="127.27" x2="182.41" y2="75.49" xlink:href="#linear-gradient-3"/></defs><g id="Layer_2" data-name="Layer 2"><g id="Ñëîé_1" data-name="Ñëîé 1"><ellipse class="cls-1" cx="212.08" cy="183.22" rx="154.08" ry="154.34"/><path class="cls-2" d="M252.29,171.51c7.18,19.27-1,40.14-18.33,46.61s-37.16-3.91-44.34-23.19,1-40.15,18.34-46.62S245.11,152.23,252.29,171.51Z"/><path class="cls-3" d="M252.29,171.51c-7.18-19.28-27-29.66-44.34-23.2-9.16,3.43-15.66,10.94-18.79,20.06A28.06,28.06,0,0,1,220,155.78c22.63,5.57,33.28,35.67,21.41,55.18a40.84,40.84,0,0,1-4,5.41C252.25,208.53,259,189.41,252.29,171.51Z"/><path class="cls-4" d="M279.42,315.13c-8.28,4.34-16.63,4.73-18.66.85s3.05-10.53,11.33-14.87,16.63-4.73,18.66-.86S287.7,310.79,279.42,315.13Z"/><path class="cls-5" d="M279.42,315.13c-8.28,4.34-16.63,4.73-18.66.85s3.05-10.53,11.33-14.87,16.63-4.73,18.66-.86S287.7,310.79,279.42,315.13Z"/><path class="cls-6" d="M132.61,213.62c-8.4,23.85-26.43,39.22-40.26,34.33s-18.25-28.19-9.84-52,26.43-39.22,40.26-34.33S141,189.77,132.61,213.62Z"/><path class="cls-7" d="M122.77,161.58c-9.77-3.45-21.59,3.29-30.67,15.89,24.72-16.77,37.51-2.66,38.57,15.19.83,14-6.67,33.69-13.41,45.79-.28.49-.63.9-.91,1.39,6.55-6.23,12.42-15.31,16.26-26.22C141,189.77,136.61,166.47,122.77,161.58Z"/><path class="cls-8" d="M192.16,284.05c11.74,9.75,16.68,23.19,11,30s-19.75,4.47-31.5-5.28-16.67-23.19-11-30S180.42,274.3,192.16,284.05Z"/><path class="cls-9" d="M192.16,284.05c-11.74-9.75-25.84-12.11-31.5-5.27a10.26,10.26,0,0,0-2.1,5.17c6-2.3,12.58-3.06,19-.76,18.56,6.72,25.64,19.52,25.28,31.22.11-.13.27-.2.38-.33C208.84,307.24,203.9,293.8,192.16,284.05Z"/><path class="cls-10" d="M325.21,121.09c5.92,10,6,21,.16,24.45s-15.37-1.91-21.29-12-6-21-.16-24.46S319.29,111,325.21,121.09Z"/><path class="cls-11" d="M325.21,121.09c-5.92-10.06-15.45-15.42-21.29-12-2.63,1.56-4,4.67-4.23,8.5,4.49-9.19,14.25-5.31,19,1.8,6.34,9.46,10.49,20.58,3.59,27.05a7.52,7.52,0,0,0,3.06-.92C331.2,142.09,331.13,131.14,325.21,121.09Z"/><path class="cls-12" d="M249.75,43.46c7.43,1.66,12.67,6.51,11.71,10.83s-7.76,6.49-15.19,4.83-12.67-6.5-11.71-10.83S242.32,41.81,249.75,43.46Z"/><path class="cls-13" d="M249,46.9c7.79,2.15,11.25,5.75,12.19,8a4.73,4.73,0,0,0,.25-.62c1-4.32-4.28-9.17-11.71-10.83s-14.23.51-15.19,4.83a4.52,4.52,0,0,0,0,.52C235.44,47.69,242,45,249,46.9Z"/><path class="cls-14" d="M326.53,240.94c-6,14.05-18.7,22.08-28.28,17.94S285.8,240,291.84,226s18.7-22.08,28.29-17.94S332.57,226.9,326.53,240.94Z"/><path class="cls-15" d="M320.13,208c-5-2.14-10.74-1-16,2.56a15.06,15.06,0,0,1,7.59.95c7.78,3.18,10.42,12.3,9.7,20.07-1.16,12.53-12.11,24.34-24.51,26.44a11.63,11.63,0,0,0,1.35.83c9.58,4.14,22.24-3.89,28.28-17.94S329.71,212.17,320.13,208Z"/><path class="cls-16" d="M346.28,48C313,30.67,253,80.28,189.47,132.8c-50.53,41.78-107.83,89.12-134.55,83.47-5.27-1.11-9.07-4.32-12-10.1-9.59-19.13,2.94-38.32,18.19-54.1a206.14,206.14,0,0,1,8-26.58c-18.51,15.36-56,52-38.48,86.86,4.8,9.55,12,15.41,21.42,17.4a35.26,35.26,0,0,0,7.21.72c33.64,0,84.89-42.37,138.93-87.05,54.62-45.15,116.52-96.33,141.71-83.19,16.54,8.63,4.11,33.53,1.69,39.41l8.61,15.17C361,94.34,369.2,60,346.28,48Z"/><path class="cls-17" d="M375.27,220.74c-.63-6.07-4.28-14.42-15.88-20-23.15-11.12-52.66,19.18-90,57.51-39.58,40.59-84.44,86.63-120.17,78.29-7-1.62-11.94-5.1-15.13-10.62A25.78,25.78,0,0,1,130.23,314c-4.8-3.09-9.74-6.73-14.22-10.29-.5,9.81.64,19.56,6.13,29.08,5.12,8.9,13.18,14.69,24,17.19a51.71,51.71,0,0,0,11.73,1.32c40,0,83-44.09,121.38-83.41,29.49-30.26,60-61.57,74.25-54.71,6.61,3.17,7.85,6.91,8.2,9.45,1.06,7.63-3.07,17.53-10.78,27.7-4.43,9.34-16.11,27-18.27,29C332.6,279.38,379.19,258.28,375.27,220.74Z"/><path class="cls-18" d="M150.36,79.19c15.47-6,30.81-3.5,34.27,5.51s-6.28,21.13-21.74,27.09-30.81,3.5-34.27-5.51S134.9,85.15,150.36,79.19Z"/><path class="cls-19" d="M184.63,84.7c-3.46-9-18.8-11.47-34.27-5.51C137.11,84.3,128.13,93.93,128,102.25c.16-.22.37-.39.54-.59a57.91,57.91,0,0,1,15.63-15c7.8-5,24.33-10.29,32.12-2.38,4.77,4.84,2,15.06-7.3,24.7C180.78,102.48,187.61,92.44,184.63,84.7Z"/><path class="cls-20" d="M190,6.43a3.21,3.21,0,1,1-3.21-3.21A3.22,3.22,0,0,1,190,6.43Z"/><path class="cls-20" d="M393.11,66.8a3.21,3.21,0,1,1-3.21-3.21A3.22,3.22,0,0,1,393.11,66.8Z"/><path class="cls-20" d="M421.73,167a3.21,3.21,0,1,1-3.21-3.22A3.21,3.21,0,0,1,421.73,167Z"/><path class="cls-20" d="M45.78,260.74a3.21,3.21,0,1,1-3.21-3.22A3.22,3.22,0,0,1,45.78,260.74Z"/><path class="cls-20" d="M76.56,278.86a3.21,3.21,0,1,1-3.21-3.22A3.22,3.22,0,0,1,76.56,278.86Z"/><path class="cls-20" d="M83.26,329.15A3.22,3.22,0,1,1,80,325.93,3.22,3.22,0,0,1,83.26,329.15Z"/><path class="cls-20" d="M24.61,322.65a3.22,3.22,0,1,1-3.21-3.22A3.21,3.21,0,0,1,24.61,322.65Z"/><path class="cls-20" d="M52.2,305.74A3.21,3.21,0,1,1,49,302.52,3.21,3.21,0,0,1,52.2,305.74Z"/><path class="cls-20" d="M6.42,240.67a3.21,3.21,0,1,1-3.21-3.22A3.21,3.21,0,0,1,6.42,240.67Z"/><path class="cls-20" d="M386.69,134a3.22,3.22,0,1,1-3.21-3.22A3.22,3.22,0,0,1,386.69,134Z"/><path class="cls-20" d="M399.54,291.42a3.22,3.22,0,1,1-3.22-3.22A3.22,3.22,0,0,1,399.54,291.42Z"/><path class="cls-20" d="M345.69,294.64a3.21,3.21,0,1,1-3.21-3.22A3.21,3.21,0,0,1,345.69,294.64Z"/><path class="cls-20" d="M112.17,3.22A3.21,3.21,0,1,1,109,0,3.21,3.21,0,0,1,112.17,3.22Z"/><path class="cls-20" d="M146.34,21.8a3.21,3.21,0,1,1-3.21-3.22A3.21,3.21,0,0,1,146.34,21.8Z"/><path class="cls-20" d="M87,31.1a5.24,5.24,0,1,1-5.24-5.24A5.25,5.25,0,0,1,87,31.1Z"/><ellipse class="cls-20" cx="415.31" cy="118.52" rx="9.57" ry="9.59"/><path class="cls-20" d="M334.82,343.11A5.12,5.12,0,1,1,329.7,338,5.13,5.13,0,0,1,334.82,343.11Z"/></g></g></svg>