<svg xmlns="http://www.w3.org/2000/svg" xmlns:xlink="http://www.w3.org/1999/xlink" viewBox="0 0 362.17 359.58"><defs><style>.cls-1{mask:url(#mask);filter:url(#luminosity-noclip-3);}.cls-2,.cls-4{mix-blend-mode:multiply;}.cls-2{fill:url(#linear-gradient);}.cls-3{mask:url(#mask-2);filter:url(#luminosity-noclip-4);}.cls-4{fill:url(#linear-gradient-2);}.cls-5{fill:#78fffb;opacity:0.15;}.cls-6{fill:url(#linear-gradient-3);}.cls-7{fill:url(#linear-gradient-4);}.cls-8{fill:url(#linear-gradient-5);}.cls-9{fill:url(#linear-gradient-6);}.cls-10{fill:url(#linear-gradient-7);}.cls-11{fill:url(#linear-gradient-8);}.cls-12{mask:url(#mask-3);}.cls-13{opacity:0.57;fill:url(#linear-gradient-9);}.cls-14{mask:url(#mask-4);}.cls-15{fill:url(#linear-gradient-10);}.cls-16{filter:url(#luminosity-noclip-2);}.cls-17{filter:url(#luminosity-noclip);}</style><filter id="luminosity-noclip" x="99.06" y="-8587.9" width="234.06" height="32766" filterUnits="userSpaceOnUse" color-interpolation-filters="sRGB"><feFlood flood-color="#fff" result="bg"/><feBlend in="SourceGraphic" in2="bg"/></filter><mask id="mask" x="99.06" y="-8587.9" width="234.06" height="32766" maskUnits="userSpaceOnUse"><g class="cls-17"/></mask><linearGradient id="linear-gradient" x1="99.06" y1="164.58" x2="333.12" y2="164.58" gradientUnits="userSpaceOnUse"><stop offset="0" stop-color="#fff"/><stop offset="1"/></linearGradient><filter id="luminosity-noclip-2" x="51.49" y="-8587.9" width="71.66" height="32766" filterUnits="userSpaceOnUse" color-interpolation-filters="sRGB"><feFlood flood-color="#fff" result="bg"/><feBlend in="SourceGraphic" in2="bg"/></filter><mask id="mask-2" x="51.49" y="-8587.9" width="71.66" height="32766" maskUnits="userSpaceOnUse"><g class="cls-16"/></mask><linearGradient id="linear-gradient-2" x1="58.61" y1="109.72" x2="107.17" y2="250.48" xlink:href="#linear-gradient"/><linearGradient id="linear-gradient-3" x1="57.78" y1="269.88" x2="315.1" y2="82.4" gradientUnits="userSpaceOnUse"><stop offset="0.15" stop-color="#59ff8e"/><stop offset="0.59" stop-color="#00b7c7"/><stop offset="0.95" stop-color="#0057f9"/></linearGradient><linearGradient id="linear-gradient-4" x1="8.15" y1="192.66" x2="224.6" y2="34.59" gradientUnits="userSpaceOnUse"><stop offset="0.02" stop-color="#59f377"/><stop offset="0.51" stop-color="#00abaf"/><stop offset="0.95" stop-color="#0057d6"/></linearGradient><linearGradient id="linear-gradient-5" x1="42.01" y1="239.17" x2="258.5" y2="81.07" xlink:href="#linear-gradient-4"/><linearGradient id="linear-gradient-6" x1="88.37" y1="302.73" x2="304.86" y2="144.63" xlink:href="#linear-gradient-4"/><linearGradient id="linear-gradient-7" x1="-16.12" y1="159.37" x2="200.35" y2="1.28" xlink:href="#linear-gradient-4"/><linearGradient id="linear-gradient-8" x1="129.65" y1="359.34" x2="346.09" y2="201.28" xlink:href="#linear-gradient-4"/><filter id="luminosity-noclip-3" x="99.06" y="27.88" width="234.06" height="273.39" filterUnits="userSpaceOnUse" color-interpolation-filters="sRGB"><feFlood flood-color="#fff" result="bg"/><feBlend in="SourceGraphic" in2="bg"/></filter><mask id="mask-3" x="99.06" y="27.88" width="234.06" height="273.39" maskUnits="userSpaceOnUse"><g class="cls-1"><path class="cls-2" d="M333.12,180.2A151.52,151.52,0,0,1,299.65,275,149.61,149.61,0,0,1,286.83,289c-1.47,1.43-2.94,2.83-4.49,4.19-3.19,2.84-6.46,5.56-9.84,8.06,22.67-36.25,60.95-99.65,32.14-157-15.87-31.64-49.59-40.92-76.52-38.49-16.83,1.51-32.85,7.54-49.2,11.92s-33.83,7.07-49.93,1.92c-34.05-10.86-35.27-44.83-22.33-71.95a148.23,148.23,0,0,1,41.48-16h0a153.2,153.2,0,0,1,25.9-3.53h0A151.2,151.2,0,0,1,245.42,42a153.56,153.56,0,0,1,31,19.36c.18.15.4.29.55.44a152.75,152.75,0,0,1,16.27,15.31A151.69,151.69,0,0,1,329,144.69,153.9,153.9,0,0,1,333.12,180.2Z"/></g></mask><linearGradient id="linear-gradient-9" x1="99.06" y1="164.58" x2="333.12" y2="164.58" gradientUnits="userSpaceOnUse"><stop offset="0" stop-color="#fff"/><stop offset="1" stop-color="#9cffff"/></linearGradient><filter id="luminosity-noclip-4" x="51.49" y="137.68" width="71.66" height="110.55" filterUnits="userSpaceOnUse" color-interpolation-filters="sRGB"><feFlood flood-color="#fff" result="bg"/><feBlend in="SourceGraphic" in2="bg"/></filter><mask id="mask-4" x="51.49" y="137.68" width="71.66" height="110.55" maskUnits="userSpaceOnUse"><g class="cls-3"><ellipse class="cls-4" cx="87.32" cy="192.95" rx="35.83" ry="55.27"/></g></mask><linearGradient id="linear-gradient-10" x1="58.61" y1="109.72" x2="107.17" y2="250.48" xlink:href="#linear-gradient-9"/></defs><g id="Layer_2" data-name="Layer 2"><g id="Ñëîé_1" data-name="Ñëîé 1"><path class="cls-5" d="M105.42,324.93c-19-11.32-43.51-13.93-58.2-30.42-18.74-21-12.66-54-22.46-80.39-4.8-13-13.4-24.14-19.18-36.69s-8.43-28-1.2-39.75c7-11.37,20.26-15.85,29.44-24.85,10.89-10.67,17.31-25.37,22.73-39.38C64.33,53.33,72.3,31.38,90.39,19.66c28.21-18.29,66.18-3.14,98.87-10.94,14.86-3.55,29.92-11.93,44.53-7.41,18,5.56,25.66,27.87,42.58,36.11,10.4,5.06,23.11,4.16,33,10.11,9.06,5.43,14.16,15.63,17.27,25.73s4.75,20.74,9.24,30.31c8.88,18.92,28.9,34.85,26,55.54-.81,5.76-3.44,11.09-4.92,16.72-5.1,19.37,3.29,42-7.38,58.93-6.06,9.63-17.2,15.23-23,25-8.71,14.69-3,34.32-10.34,49.76-5.9,12.48-19.17,19.76-32.32,23.93s-27.07,6.12-39.5,12.09c-12.72,6.11-25.33,16.59-39.08,13.45-11.22-2.55-19-13.68-30.3-16-12.14-2.49-23.08,6.62-34.93,3.74C127.39,343.64,116.4,331.45,105.42,324.93Z"/><path class="cls-5" d="M274.77,312.19c-17.67,12.08-30,32.65-50.44,38.87-26.11,7.93-52.55-10.86-79.74-13-13.33-1.06-26.66,1.95-40,1.93s-28-4-35.4-15.15c-7.13-10.78-5.65-24.32-9.8-36.07-4.93-13.95-15.22-25.59-25.31-36.08C19.56,237.63,3.54,221.66.62,201c-4.55-32.31,24.24-59.58,30.72-91.56C34.28,94.85,33.06,78.16,43,67.14,55.2,53.58,77.92,55.9,92.05,44.36c8.69-7.1,13.09-18.66,22.36-25,8.46-5.77,19.49-6.1,29.63-4.72s20.14,4.27,30.38,4.22c20.23-.11,42.38-11.25,59.35-.22,4.72,3.06,8.33,7.55,12.67,11.15C261.37,42.2,284.64,44,295.17,60.35c6,9.26,6.35,21.36,12.58,30.45,9.34,13.67,28.89,16.67,39.47,29.4,8.55,10.29,9.52,25,7.82,38.23s-5.65,26.34-5.48,39.73c.17,13.69,4.22,29.07-4.13,39.91-6.82,8.84-19.78,11.18-26.41,20.16-7.14,9.68-3.59,23-11,32.29C300.16,300.46,285,305.18,274.77,312.19Z"/><path class="cls-6" d="M333.12,180.2A151.52,151.52,0,0,1,299.65,275,149.61,149.61,0,0,1,286.83,289c-1.47,1.43-2.94,2.83-4.49,4.19-3.19,2.84-6.46,5.56-9.84,8.06a149.94,149.94,0,0,1-69.33,28.85h0a151.66,151.66,0,0,1-81.19-10.56h0a152.12,152.12,0,0,1-35.45-21.34c-3.89-3.17-7.64-6.48-11.17-9.94a150.66,150.66,0,0,1-33.14-48.47v0a150,150,0,0,1-7.79-23.15,152.73,152.73,0,0,1-.77-70.58,149.16,149.16,0,0,1,9.3-28A151.3,151.3,0,0,1,59.67,89.26c1.14-1.54,2.35-3.09,3.56-4.63A151.79,151.79,0,0,1,93.36,56.11c2.79-2,5.65-3.94,8.56-5.67,1.58-1,3.16-1.91,4.74-2.8a148.23,148.23,0,0,1,41.48-16h0a153.2,153.2,0,0,1,25.9-3.53h0A151.2,151.2,0,0,1,245.42,42a153.56,153.56,0,0,1,31,19.36c.18.15.4.29.55.44a152.75,152.75,0,0,1,16.27,15.31A151.69,151.69,0,0,1,329,144.69,153.9,153.9,0,0,1,333.12,180.2Z"/><path class="cls-7" d="M277,61.82c-2.85,3.05-7.22,4.45-11.37,5.36-18.92,4.25-40.13,2.56-55.94,13.79-18.6,13.24-24,40.72-44.13,51.53-14.06,7.59-37.35,6.07-52.25.36-11.21-4.32-45.06-17.33-70.43-14.8A151,151,0,0,1,59.68,89.28c16.61,1.91,32.13,9.31,38.19,12.46,13.67,7.14,30.52,10.51,44.48,4C164,95.54,171.47,65.75,193.66,56.86c16.07-6.43,37-.49,49.57-12.4a25,25,0,0,0,2.2-2.43,152.73,152.73,0,0,1,31,19.34A6.64,6.64,0,0,1,277,61.82Z"/><path class="cls-8" d="M314.21,106.31a43,43,0,0,0-8.62,3.28c-23.91,12.2-29.74,43.12-44.29,63.47-20,28-57.43,42.38-91,34.92-24.36-5.42-46.87-17.53-71.78-19.08C68.65,187,46.56,201.16,34.34,216.64A152.59,152.59,0,0,1,33.6,146a68,68,0,0,1,8.45-2.17,97.69,97.69,0,0,1,35.31-.39c19.28,3.34,37,12.33,55.24,19.37s38.22,12.23,57.21,7.62c40.36-9.79,42.47-54.8,71.88-77.22a104.32,104.32,0,0,1,31.56-16.13A151.65,151.65,0,0,1,314.21,106.31Z"/><path class="cls-9" d="M333.12,180.2a55.67,55.67,0,0,0-17.68,12c-16.85,17.13-21.13,42.93-34.47,62.89-4.54,6.78-10.34,13-17.85,16.12a37,37,0,0,1-16.72,2.4c-14-.87-27.05-6.91-40.72-9.89s-29.74-2.21-39.23,8.11c-6.19,6.75-8.62,16.58-15.65,22.45-7.22,6-17.72,6.4-26.85,4.19s-17.62-6.65-26.63-9.31c-7.13-2.11-15.06-3-22-.91a150.18,150.18,0,0,1-33.14-48.48v0a30.23,30.23,0,0,1,9.49-6.49c15.45-6.56,33.24,2.53,45.32,14.24,5.15,5,10.34,10.84,17.4,12.2,7.94,1.56,15.74-3,21.9-8.27s11.79-11.49,19.37-14.34c14.38-5.46,34.28,2,48.76,4.86,15.68,3.09,32.26-1.1,45.8-9.57s24.27-21,32.5-34.66c4.95-8.27,9.1-17,14.57-25,5.67-8.28,18-19.73,31.75-28.07A154.29,154.29,0,0,1,333.12,180.2Z"/><path class="cls-10" d="M174.06,28.08c-1,1.23-1.94,2.5-2.81,3.79-7.65,11-13.45,23.89-24.3,31.71a38.07,38.07,0,0,1-38.07,3.27C103.22,64.1,98.36,60,93.37,56.11c2.78-2,5.63-3.92,8.55-5.68a30.67,30.67,0,0,0,10,3.48c11.69,1.65,22.64-6.27,30.42-15.19,2-2.3,4-4.7,5.83-7.14h0A151.64,151.64,0,0,1,174.06,28.08Z"/><path class="cls-11" d="M286.83,289q-2.19,2.14-4.47,4.19A157.47,157.47,0,0,0,217,319.8c-4.7,3.31-9.21,6.88-13.81,10.32h0a151.65,151.65,0,0,1-81.18-10.55c5.54-2.69,12.37-3.28,18.66-2.69,9.36.87,18.63,3.73,28,3.11,24.78-1.59,42.34-26.09,66.44-32,9.63-2.34,19.67-1.56,29.55-.78C272,287.83,279.41,288.45,286.83,289Z"/><g class="cls-12"><path class="cls-13" d="M333.12,180.2A151.52,151.52,0,0,1,299.65,275,149.61,149.61,0,0,1,286.83,289c-1.47,1.43-2.94,2.83-4.49,4.19-3.19,2.84-6.46,5.56-9.84,8.06,22.67-36.25,60.95-99.65,32.14-157-15.87-31.64-49.59-40.92-76.52-38.49-16.83,1.51-32.85,7.54-49.2,11.92s-33.83,7.07-49.93,1.92c-34.05-10.86-35.27-44.83-22.33-71.95a148.23,148.23,0,0,1,41.48-16h0a153.2,153.2,0,0,1,25.9-3.53h0A151.2,151.2,0,0,1,245.42,42a153.56,153.56,0,0,1,31,19.36c.18.15.4.29.55.44a152.75,152.75,0,0,1,16.27,15.31A151.69,151.69,0,0,1,329,144.69,153.9,153.9,0,0,1,333.12,180.2Z"/></g><g class="cls-14"><ellipse class="cls-15" cx="87.32" cy="192.95" rx="35.83" ry="55.27"/></g></g></g></svg>