<svg xmlns="http://www.w3.org/2000/svg" xmlns:xlink="http://www.w3.org/1999/xlink" viewBox="0 0 406.05 380.55"><defs><style>.cls-1{mask:url(#mask);filter:url(#luminosity-noclip-4);}.cls-2,.cls-4,.cls-6{mix-blend-mode:multiply;}.cls-2{fill:url(#linear-gradient);}.cls-3{mask:url(#mask-2);filter:url(#luminosity-noclip-5);}.cls-4{fill:url(#linear-gradient-2);}.cls-5{mask:url(#mask-3);filter:url(#luminosity-noclip-6);}.cls-6{fill:url(#linear-gradient-3);}.cls-7{fill:#fffdfc;}.cls-8{fill:#ed74ea;opacity:0.1;}.cls-9{fill:url(#linear-gradient-4);}.cls-10{fill:url(#linear-gradient-5);}.cls-11{fill:url(#linear-gradient-6);}.cls-12{fill:url(#linear-gradient-7);}.cls-13{fill:url(#linear-gradient-8);}.cls-14{mask:url(#mask-4);}.cls-15{opacity:0.52;fill:url(#linear-gradient-9);}.cls-16{mask:url(#mask-5);}.cls-17{opacity:0.37;fill:url(#linear-gradient-10);}.cls-18{mask:url(#mask-6);}.cls-19{opacity:0.71;fill:url(#linear-gradient-11);}.cls-20{filter:url(#luminosity-noclip-3);}.cls-21{filter:url(#luminosity-noclip-2);}.cls-22{filter:url(#luminosity-noclip);}</style><filter id="luminosity-noclip" x="99.25" y="-8596.88" width="238.75" height="32766" filterUnits="userSpaceOnUse" color-interpolation-filters="sRGB"><feFlood flood-color="#fff" result="bg"/><feBlend in="SourceGraphic" in2="bg"/></filter><mask id="mask" x="99.25" y="-8596.88" width="238.75" height="32766" maskUnits="userSpaceOnUse"><g class="cls-22"/></mask><linearGradient id="linear-gradient" x1="354.11" y1="266.76" x2="129.53" y2="-4.12" gradientUnits="userSpaceOnUse"><stop offset="0.12"/><stop offset="1" stop-color="#fff"/></linearGradient><filter id="luminosity-noclip-2" x="38.5" y="-8596.88" width="220.78" height="32766" filterUnits="userSpaceOnUse" color-interpolation-filters="sRGB"><feFlood flood-color="#fff" result="bg"/><feBlend in="SourceGraphic" in2="bg"/></filter><mask id="mask-2" x="38.5" y="-8596.88" width="220.78" height="32766" maskUnits="userSpaceOnUse"><g class="cls-21"/></mask><linearGradient id="linear-gradient-2" x1="38.5" y1="225.98" x2="259.28" y2="225.98" gradientUnits="userSpaceOnUse"><stop offset="0"/><stop offset="1" stop-color="#fff"/></linearGradient><filter id="luminosity-noclip-3" x="61.83" y="-8596.88" width="93.98" height="32766" filterUnits="userSpaceOnUse" color-interpolation-filters="sRGB"><feFlood flood-color="#fff" result="bg"/><feBlend in="SourceGraphic" in2="bg"/></filter><mask id="mask-3" x="61.83" y="-8596.88" width="93.98" height="32766" maskUnits="userSpaceOnUse"><g class="cls-20"/></mask><linearGradient id="linear-gradient-3" x1="123.59" y1="174.71" x2="51.93" y2="113.49" xlink:href="#linear-gradient-2"/><linearGradient id="linear-gradient-4" x1="59.47" y1="270.45" x2="315.66" y2="107.54" gradientUnits="userSpaceOnUse"><stop offset="0" stop-color="#fbfd8e"/><stop offset="0.39" stop-color="#fd45cc"/><stop offset="1" stop-color="#680691"/></linearGradient><linearGradient id="linear-gradient-5" x1="151.89" y1="367.47" x2="338.26" y2="171.51" gradientUnits="userSpaceOnUse"><stop offset="0" stop-color="#fbd672"/><stop offset="0.31" stop-color="#ef31b6"/><stop offset="1" stop-color="#680691"/></linearGradient><linearGradient id="linear-gradient-6" x1="123.16" y1="340.09" x2="309.54" y2="144.13" gradientUnits="userSpaceOnUse"><stop offset="0" stop-color="#fbe37a"/><stop offset="0.39" stop-color="#fd31c7"/><stop offset="1" stop-color="#680691"/></linearGradient><linearGradient id="linear-gradient-7" x1="83.46" y1="302.28" x2="269.84" y2="106.31" gradientUnits="userSpaceOnUse"><stop offset="0" stop-color="#fbea77"/><stop offset="0.39" stop-color="#fd39ba"/><stop offset="1" stop-color="#680691"/></linearGradient><linearGradient id="linear-gradient-8" x1="28.03" y1="249.44" x2="214.39" y2="53.51" gradientUnits="userSpaceOnUse"><stop offset="0" stop-color="#fbfd8e"/><stop offset="0.39" stop-color="#fd3bcc"/><stop offset="1" stop-color="#680691"/></linearGradient><filter id="luminosity-noclip-4" x="99.25" y="38.56" width="238.75" height="261.66" filterUnits="userSpaceOnUse" color-interpolation-filters="sRGB"><feFlood flood-color="#fff" result="bg"/><feBlend in="SourceGraphic" in2="bg"/></filter><mask id="mask-4" x="99.25" y="38.56" width="238.75" height="261.66" maskUnits="userSpaceOnUse"><g class="cls-1"><path class="cls-2" d="M338,188.56c0,2-.05,3.93-.13,5.88a145.84,145.84,0,0,1-5.16,33.63A143.35,143.35,0,0,1,326.24,247a149.74,149.74,0,0,1-38,53.24,312.14,312.14,0,0,0,21.31-45.67c10.61-29.29,15.57-61.31,9.42-91.88S294.05,97.32,264.8,79.74C193,36.61,144.79,57.1,99.25,67.93A149.66,149.66,0,0,1,332.43,148a130.94,130.94,0,0,1,3.3,14.6A149.31,149.31,0,0,1,338,188.56Z"/></g></mask><linearGradient id="linear-gradient-9" x1="354.11" y1="266.76" x2="129.53" y2="-4.12" gradientUnits="userSpaceOnUse"><stop offset="0.12" stop-color="#fff"/><stop offset="1" stop-color="#ff79f4"/></linearGradient><filter id="luminosity-noclip-5" x="38.5" y="113.4" width="220.78" height="225.17" filterUnits="userSpaceOnUse" color-interpolation-filters="sRGB"><feFlood flood-color="#fff" result="bg"/><feBlend in="SourceGraphic" in2="bg"/></filter><mask id="mask-5" x="38.5" y="113.4" width="220.78" height="225.17" maskUnits="userSpaceOnUse"><g class="cls-3"><path class="cls-4" d="M258.79,320.86a148.62,148.62,0,0,1-69.88,17.7h-.66a150.14,150.14,0,0,1-29.11-2.85h0a148.89,148.89,0,0,1-36.39-12.2A151,151,0,0,1,77,289.05,150,150,0,0,1,51.3,249.37a148.44,148.44,0,0,1-12.63-54c-.13-2.28-.17-4.51-.17-6.79A149,149,0,0,1,58.7,113.4c-1.08,4.34-2,8.77-2.85,13.19-3.18,17-4.5,34.38-2.4,51.55,4.17,34,24.29,67.92,56.42,79.51,14.62,5.25,30.6,5.62,46.09,4.05,16.27-1.65,32.58-5.38,48.85-3.6,18.26,2.07,35.89,11.67,46,27A52.73,52.73,0,0,1,258.79,320.86Z"/></g></mask><linearGradient id="linear-gradient-10" x1="38.5" y1="225.98" x2="259.28" y2="225.98" gradientUnits="userSpaceOnUse"><stop offset="0" stop-color="#fff"/><stop offset="1" stop-color="#ffffa9"/></linearGradient><filter id="luminosity-noclip-6" x="61.83" y="112.83" width="93.98" height="98.52" filterUnits="userSpaceOnUse" color-interpolation-filters="sRGB"><feFlood flood-color="#fff" result="bg"/><feBlend in="SourceGraphic" in2="bg"/></filter><mask id="mask-6" x="61.83" y="112.83" width="93.98" height="98.52" maskUnits="userSpaceOnUse"><g class="cls-5"><ellipse class="cls-6" cx="108.81" cy="162.09" rx="46.99" ry="49.26"/></g></mask><linearGradient id="linear-gradient-11" x1="123.59" y1="174.71" x2="51.93" y2="113.49" gradientUnits="userSpaceOnUse"><stop offset="0" stop-color="#fff"/><stop offset="1" stop-color="#ffd1d1"/></linearGradient></defs><g id="Layer_2" data-name="Layer 2"><g id="Ñëîé_1" data-name="Ñëîé 1"><ellipse class="cls-7" cx="332.82" cy="312.31" rx="5.19" ry="5.2"/><path class="cls-7" d="M17.38,62.77a5.2,5.2,0,1,1-5.19-5.2A5.2,5.2,0,0,1,17.38,62.77Z"/><ellipse class="cls-7" cx="376.49" cy="5.2" rx="5.19" ry="5.2"/><path class="cls-7" d="M324,20.72a3.42,3.42,0,1,1-3.42-3.42A3.42,3.42,0,0,1,324,20.72Z"/><ellipse class="cls-7" cx="367.88" cy="95.16" rx="3.42" ry="3.43"/><path class="cls-7" d="M406.05,295.88a3.42,3.42,0,1,1-3.42-3.43A3.43,3.43,0,0,1,406.05,295.88Z"/><path class="cls-7" d="M320.7,359.71a3.42,3.42,0,1,1-3.42-3.42A3.42,3.42,0,0,1,320.7,359.71Z"/><path class="cls-7" d="M61,295.88a3.42,3.42,0,1,1-3.42-3.43A3.43,3.43,0,0,1,61,295.88Z"/><path class="cls-7" d="M15.61,303.92a3.43,3.43,0,1,1-3.42-3.43A3.43,3.43,0,0,1,15.61,303.92Z"/><path class="cls-7" d="M15.61,123.93a3.43,3.43,0,1,1-3.42-3.42A3.43,3.43,0,0,1,15.61,123.93Z"/><ellipse class="cls-7" cx="66.89" cy="52.54" rx="3.42" ry="3.43"/><path class="cls-7" d="M28.93,10.4A3.42,3.42,0,1,1,25.51,7,3.43,3.43,0,0,1,28.93,10.4Z"/><ellipse class="cls-7" cx="118.13" cy="377.12" rx="3.42" ry="3.43"/><ellipse class="cls-8" cx="188.25" cy="188.56" rx="188.25" ry="188.56"/><ellipse class="cls-8" cx="188.25" cy="188.56" rx="170.87" ry="171.15"/><path class="cls-9" d="M338,188.56c0,2-.05,3.93-.13,5.88a145.84,145.84,0,0,1-5.16,33.63A143.35,143.35,0,0,1,326.24,247a149.74,149.74,0,0,1-38,53.24,149.54,149.54,0,0,1-99.29,38.34h-.66a150.14,150.14,0,0,1-29.11-2.85h0a148.89,148.89,0,0,1-36.39-12.2A151,151,0,0,1,77,289.05,150,150,0,0,1,51.3,249.37a148.44,148.44,0,0,1-12.63-54c-.13-2.28-.17-4.51-.17-6.79A149,149,0,0,1,58.7,113.4c.62-1.16,1.32-2.32,2-3.48a150.81,150.81,0,0,1,38.53-42A149.66,149.66,0,0,1,332.43,148a130.94,130.94,0,0,1,3.3,14.6A149.31,149.31,0,0,1,338,188.56Z"/><path class="cls-10" d="M332.72,228.45a142.35,142.35,0,0,1-6.5,18.9c-13.23-3.87-25.84-3.24-37.3-1.3A79.61,79.61,0,0,0,268.2,252a53.93,53.93,0,0,0-22.66,20.08c-3,4.86-5.43,10.42-10.12,13.65-2.72,1.82-5.91,2.73-8.67,4.46-9.65,6.08-1.38,18.9-7.32,26.64-7.45,9.59-22,2.29-28.53,15.58a38.39,38.39,0,0,0-2,6.56h-.63a150.16,150.16,0,0,1-29.12-2.85c1.7-1.34,3.55-3.07,4-4.42,1.3-3.51-.94-7.3-3.54-9.9s-5.83-4.89-7.33-8.29c-2.56-6,1.69-13.18,7.41-16.29,8.31-4.58,18.31-3,27-6.51,9.34-3.83,16.74-11.41,23.95-18.19,11.43-10.74,23.72-20.72,37.11-28.73a145.32,145.32,0,0,1,21.51-10.65C288.88,225.45,312.36,223.36,332.72,228.45Z"/><path class="cls-11" d="M338,189c0,2,0,3.91-.12,5.84-10.91-4.42-23.95-7-34.51.59-6.61,4.74-11.07,12.35-18.35,16.06-8.59,4.34-18.83,2.13-28.45,1.58-16.38-1-32.65,3.35-47.94,9.31-27.06,10.5-52.63,27-69,51-9.7,14.17-16,33.27-16.87,50.55A149.86,149.86,0,0,1,102,311.55c14.58-41,42.55-80.93,76.94-106.34,11.5-8.53,24.15-16,38.17-18.9,17.18-3.52,35.61-.08,52.08-6.08,11.15-4.1,20.45-12.19,31.48-16.57,1.22-.48,2.4-.91,3.58-1.27,10.12-3.11,21.67-1.89,31.56.6A153.28,153.28,0,0,1,338,189Z"/><path class="cls-12" d="M332.45,148.39c-24.43-2.33-46.09-4.74-67.29-5.69s-42.74,0-63.26,5.49C183.66,153,169.83,164.88,157.34,179c-9.45,10.69-17.37,23-28.64,31.76-9.85,7.66-21.94,12.31-31,20.88C82.85,245.5,78.4,268.66,77,289.41a150.67,150.67,0,0,1-25.73-39.65,146.42,146.42,0,0,1,6.23-15.23c4.41-9.83,8.9-19.69,15.32-28.34S88,190.25,98.29,187.33c7.25-2,15-1.81,22.14-4.1,12.61-4,21.51-15,30.41-24.74a283.52,283.52,0,0,1,34.67-32.32,99.51,99.51,0,0,1,8.63-6,105.55,105.55,0,0,1,33.05-13.85,77.17,77.17,0,0,1,23.36-1.69,487.26,487.26,0,0,1,68.7,11.64A148.05,148.05,0,0,1,332.45,148.39Z"/><path class="cls-13" d="M290.33,78.8c-11.18-2.88-23-3.86-34.62-4.1-70-1.42-88.84,10-100.18,21.58-10.36,10.66-13.91,27.7-26.87,34.93-9.61,5.36-23.4,4.61-29.11,14-2.28,3.75-2.68,8.37-4.65,12.28-3.23,6.35-10.08,9.94-16.9,12-4.65,1.42-9.45,2.33-14.1,3.79a43,43,0,0,0-6.22,2.41c-8.36,4.14-14.3,11.36-19,19.61-.12-2.25-.16-4.5-.16-6.75a149.59,149.59,0,0,1,22.22-78.64c1.18.12,2.36.31,3.54.43a59.41,59.41,0,0,0,49.52-18.58c8.2-8.92,13.71-20.44,23.48-27.63,10.48-7.73,24.19-9.19,37.15-10.41a264.21,264.21,0,0,1,84.5,5.44c3,.71,5.91,1.42,8.66,2.13A150.71,150.71,0,0,1,290.33,78.8Z"/><g class="cls-14"><path class="cls-15" d="M338,188.56c0,2-.05,3.93-.13,5.88a145.84,145.84,0,0,1-5.16,33.63A143.35,143.35,0,0,1,326.24,247a149.74,149.74,0,0,1-38,53.24,312.14,312.14,0,0,0,21.31-45.67c10.61-29.29,15.57-61.31,9.42-91.88S294.05,97.32,264.8,79.74C193,36.61,144.79,57.1,99.25,67.93A149.66,149.66,0,0,1,332.43,148a130.94,130.94,0,0,1,3.3,14.6A149.31,149.31,0,0,1,338,188.56Z"/></g><g class="cls-16"><path class="cls-17" d="M258.79,320.86a148.62,148.62,0,0,1-69.88,17.7h-.66a150.14,150.14,0,0,1-29.11-2.85h0a148.89,148.89,0,0,1-36.39-12.2A151,151,0,0,1,77,289.05,150,150,0,0,1,51.3,249.37a148.44,148.44,0,0,1-12.63-54c-.13-2.28-.17-4.51-.17-6.79A149,149,0,0,1,58.7,113.4c-1.08,4.34-2,8.77-2.85,13.19-3.18,17-4.5,34.38-2.4,51.55,4.17,34,24.29,67.92,56.42,79.51,14.62,5.25,30.6,5.62,46.09,4.05,16.27-1.65,32.58-5.38,48.85-3.6,18.26,2.07,35.89,11.67,46,27A52.73,52.73,0,0,1,258.79,320.86Z"/></g><g class="cls-18"><ellipse class="cls-19" cx="108.81" cy="162.09" rx="46.99" ry="49.26"/></g></g></g></svg>