<svg xmlns="http://www.w3.org/2000/svg" width="178.88" height="307.34" viewBox="0 0 178.88 307.34"><defs><style>.a{opacity:0.3;}.b{fill:#ccc7c6;}.c{fill:#e5e5e5;}.d{fill:#7f4025;}.e{fill:#98522e;}.f{fill:#39b54a;}.g{fill:#f4d3c3;}.h{fill:#fefefe;}.i{fill:#a00a2b;}</style></defs><path class="a" d="M0,286.36c0,11.59,37,21,82.68,21s82.69-9.39,82.69-21-37-21-82.69-21S0,274.76,0,286.36Z"/><path class="b" d="M37.09,266.33c.37-3.31,3.27-4.41,5-7.21,1.87-3,.89-7.45,1.1-10.78.52-8.35,1-16.55,1-24.92l-.28-.24c0-.45,0-.89,0-1.33-.14-16.65-7.37-33.41.17-49.47,4.73-10.08,16.64-12,25.93-5.49,4,2.82,5.19,6.35,5.73,11.17,0,0,.12,1.57.11,1.56.62,6.29-.8,13.29-1.87,18.36-2.75,13-3.66,26.55-5.67,39.7-1.29,8.45-1.42,17.44-4.92,25.38-3.23,7.34-12,16-20.66,12.19a9.42,9.42,0,0,1-5.6-7.17A7.41,7.41,0,0,1,37.09,266.33Z"/><path class="b" d="M131.33,267.33a10,10,0,0,0-1.11-1.4c-2.31-2.44-5.57-3.72-7.11-6.87-1.61-3.31-.84-7.18-1.06-10.71-.52-8.36-1-16.56-1-24.93.09-.09.19-.16.28-.24,0-.45,0-.89,0-1.33.15-16.65,7.38-33.41-.16-49.47-4.74-10.08-16.65-12-25.94-5.49-4,2.82-5.19,6.35-5.72,11.17,0,0-.12,1.57-.11,1.56-.63,6.29.8,13.29,1.87,18.36,2.75,13,3.66,26.55,5.66,39.7,1.47,9.64,1.38,20.55,6.85,29a22,22,0,0,0,12.74,9.23c4.18,1.2,15.58-.2,15.51-6.42A4.21,4.21,0,0,0,131.33,267.33Z"/><path class="c" d="M114.73,160.67a70.26,70.26,0,0,0,11.79,8.65c32.4,18.78,16.35-32.34,8.25-7.22a3,3,0,0,1-.42,0c-4.69.21-9.65-5.74-10.93-10.44-2.58-9.45,1.63-17.93,9.15-22.42,7.9-4.71,14.94-3.44,23,1.47,14.38,8.8,26.36,27.05,22.66,44.41-3.54,16.63-15.38,27.34-31.06,27.89a93.84,93.84,0,0,1-13.46-.75c-1,3-2.13,6.41-3.48,10C125.54,196.82,119.12,175.51,114.73,160.67Z"/><path class="d" d="M114.73,160.67a70.26,70.26,0,0,0,11.79,8.65c32.4,18.78,16.35-32.34,8.25-7.22a3,3,0,0,1-.42,0c-5.13-.28,1-12.8,2-14.28,4.3-6.71,11.68-10.46,19-4.88a32.21,32.21,0,0,1,7,8,66.69,66.69,0,0,1,3.64,6.29c.45.88.89,1.73,1.29,2.57h0c.28.58,2.64,5.43,2,9.09a21.23,21.23,0,0,1-3.44,8.67c-3.94,5.74-9.87,10-16,12.86-3.54,1.63-7.57,3-11.6,2.79-1.17-.95-2.52,3.08-4.51,9.08-1,3-2.13,6.41-3.48,10C125.54,196.82,119.12,175.51,114.73,160.67Z"/><path class="e" d="M35.16,152.29c.45-1,.92-2,1.42-2.94,3.5-6.9,5.38-11.14,13.44-11.62,11.11-.66,22.69-1.78,33.92-2h.58a3.62,3.62,0,0,1,.57,0c16.09.32,34.12-2.42,44.63,11.86,7.51,10.2,12.3,23,10.57,35.52s-11,24.4-23.51,26.67c-10.5,1.92-21.63-.86-32.19-.86-17,0-32.08-2-45.7-13-3.72-3-7.18-6.59-8.82-11.08s-1.32-9.3-.55-13.94A74.16,74.16,0,0,1,35.16,152.29Z"/><path class="c" d="M57.84,187.1c2.94-1.22,5.58-2.57,6.24-5.52,1-4.3-3.41-8.34-5.87-11.38a54.76,54.76,0,0,1-5.79-8c-1.09-2.05-2.14-6.09-.66-8.22,1.32-1.91,4.47-1.88,6.52-1.76,6,.35,11.58,3,17.35,4.35,6.51,1.56,14.73,1.48,21.37.51a65.32,65.32,0,0,0,12.23-3c2.86-1,6.33-3.57,7.77.7.82,2.4-.2,5.61-1.46,7.67-2.28,3.75-6.23,6.41-9.36,9.38a27.72,27.72,0,0,0-4.84,6.78A25.61,25.61,0,0,0,99.25,184c-.63,2.53.46,1.31,2.77,1,6.62-1,14,3.2,15.63,10s-3.9,14.07-9.05,17.78c-5.6,4.05-18,5.22-24.92,5.46-12,.43-18.75-2.94-28.23-10.35a19.83,19.83,0,0,1-6.14-7c-1.3-2.86-1.36-6.46.53-9S54.9,188.33,57.84,187.1Z"/><path class="f" d="M132.1,124.1c2.3,6.32,2.45,17.47.11,23.68-2.23,5.92-6.47,11.1-10.36,14.81a47.14,47.14,0,0,1-29.62,12.63c-15.12,1.06-30.84.94-43.16-12.37-6.15-6.64-11.34-13.47-12.43-24.69-2.87-29.45,17.15-36.09,34.24-40.35,16.08-4,40.77-6.89,52.87,12C126.35,113.84,130.32,119.2,132.1,124.1Z"/><path class="e" d="M126.15,58.58c-9.42,0-17.86-5.89-20.2-15-1.86-7.22,5.78-18.19,10.26-24.46,3.89-5.43,7.81-7.81,10.68-14,3.27-7.09,5.79-6.74,10.33.65C143.83,16.5,146.45,58.53,126.15,58.58Z"/><path class="g" d="M117,31.83c-2.45,3.09-7.94,9.71-6.17,14,1.43,3.47,6.16,3.7,9.24,4.68,2.44.77,3.49,2.86,5.72,3.74,5.7,2.26,7.89-2.51,9.27-6.92,3.37-10.7,2.74-23.77,0-34.55-.22,0-.43,0-.66,0-5.84,0-11.18,11.92-14.63,15.82C119.06,29.39,118.07,30.52,117,31.83Z"/><path class="e" d="M44.11,58.58c9.42,0,17.86-5.89,20.2-15C66.17,36.39,58.53,25.42,54,19.15c-3.88-5.43-7.8-7.81-10.67-14C40.1-2,37.58-1.63,33.05,5.76,26.44,16.5,23.82,58.53,44.11,58.58Z"/><path class="g" d="M53.23,31.83c2.94,3.69,6.41,8.36,6.34,13.3-.09,5.53-6.79,4.77-10.7,6.16-1.85.65-3.31,2.29-5.12,3-5.6,2.34-7.23-2.74-8.58-7-3.36-10.7-2.73-23.77,0-34.55.22,0,.43,0,.66,0,5.84,0,11.18,11.92,14.63,15.82C51.21,29.39,52.19,30.52,53.23,31.83Z"/><path class="e" d="M11.61,101.71c.59-1.9,8.54-14.61,12.59-19.28-1.49.21-5.76-.23-7.24,0C23.48,71.67,26.58,62.37,38.12,54c8.16-5.9,14-11.07,23.76-13.2a118.84,118.84,0,0,1,22.91-2.74H85a118.84,118.84,0,0,1,22.91,2.74c9.73,2.13,15.6,7.3,23.76,13.2,11.54,8.34,14.64,17.64,21.16,28.4-1.48-.23-5.75.21-7.24,0,4,4.67,12,17.38,12.59,19.28-1.92.9-6.22-.15-6.08,0,.44,5.26,1.22,9.23-.17,15-7,29.16-38.24,46.14-66.93,47.88v0h-.23v0c-28.69-1.74-59.94-18.72-66.93-47.88-1.39-5.76-.61-9.73-.17-15C17.83,101.56,13.53,102.61,11.61,101.71Z"/><path class="h" d="M27.66,100.16c1.9-1.63,10.49-4.35,8.84-4.35-.42,0-5.05-10-5.2-9.63C45,87.64,47.3,64.9,61.17,62.61,78.56,59.74,76,86.8,76.64,98.75c2.93-1.51,5.49-4.43,7.91-6.77l.35.22.36-.22c2.42,2.34,5,5.26,7.91,6.77.67-12-1.92-39,15.47-36.14,13.87,2.29,16.13,25,29.87,23.57-.15-.36-4.78,9.63-5.2,9.63-1.65,0,6.94,2.72,8.84,4.35-1.76,1.85-5,7-6.43,9.14,1.73-.11,4.46,1.13,6,1.28-6.33,26-30.35,51.42-56.7,54.09-5.42.55-13-2.7-18-4.82-6.14-2.64-11.61-7.25-16.7-11.63-10.31-8.86-17.81-22-21.63-35.29-.22-.78-.43-1.56-.62-2.35,1.54-.15,4.28-1.39,6-1.28C32.68,107.19,29.42,102,27.66,100.16Z"/><path class="h" d="M84.85,86.55C82.9,82.47,81,74.89,81.25,71s2.44-7.1,3.6-10.68V60a1.09,1.09,0,0,1,.05.17L85,60v.33c1.16,3.58,3.36,6.95,3.6,10.68S86.91,82.47,85,86.55v.24l-.06-.12a.61.61,0,0,1-.05.12Z"/><path d="M82.85,128l-.21-14.45a1.62,1.62,0,1,1,3.23,0l.21,14.58Z"/><path d="M93.44,101.38c14.85,8.78-10.72,19.36-17.92,10.22C67.32,101.19,87.47,97.86,93.44,101.38Z"/><path class="h" d="M83.93,103.76c-.37,1.4,1.67,3.14,4.55,3.9s5.51.23,5.87-1.17-1.67-3.14-4.55-3.89S84.29,102.37,83.93,103.76Z"/><path d="M63.64,88.72a12.3,12.3,0,0,0-9.4,3.12c1-7.08,5-12.18,9.64-11.74s8.27,6.19,8.79,13.37A13.87,13.87,0,0,0,63.64,88.72Z"/><path d="M108.41,88.28a12.25,12.25,0,0,1,9.4,3.13c-1-7.09-5-12.19-9.64-11.75S99.91,85.86,99.38,93A13.87,13.87,0,0,1,108.41,88.28Z"/><path class="i" d="M96.63,156.89c-2.42,2.91-6.66,4.47-11.14,4.5h0c-4.47.21-8.8-1.11-11.41-3.88-12.43-13.22-1.8-33.44,10.11-35.39h0a0,0,0,0,0,0,0h0C96.21,123.41,108.16,143,96.63,156.89Z"/><path class="h" d="M137.48,278.48c-2.89-3.47-1.93-9-2.26-13.18l-.06-.8a12.85,12.85,0,0,1-2.58-.33c-11.94-2.69-11.7-17.61-12.43-27.52C119.24,224.32,123.31,209,119,197c-4.47-12.51-13.79-8-21.22-2a90.91,90.91,0,0,0,2.43,14.94c3.25,14.36,4.47,29.23,6.9,43.72,2.64,15.76,2.29,35.75,21.33,41.77,5.43,1.71,11.72,2.67,17.34.54,5.44-2.07,8.42-7.67,3.66-11.79C146,281.16,140.56,282.16,137.48,278.48Z"/><path class="e" d="M119,197c4.29,12,.22,27.33,1.13,39.66.73,9.91.49,24.83,12.43,27.52a12.85,12.85,0,0,0,2.58.33c-.74-9.72-1.4-19.25-1.45-29-.08-17.92,7.52-36-.91-53.24-5.28-10.83-18.26-12.87-28.26-5.81-4.31,3-6.14,7.76-6.65,13A37.4,37.4,0,0,0,97.8,195C105.23,189,114.55,184.48,119,197Z"/><path class="h" d="M28.56,278.48c2.9-3.47,1.93-9,2.26-13.18l.06-.8a12.76,12.76,0,0,0,2.58-.33c11.95-2.69,11.71-17.61,12.44-27.52C46.8,224.32,42.74,209,47,197c4.47-12.51,13.79-8,21.22-2a88.83,88.83,0,0,1-2.43,14.94c-3.25,14.36-4.46,29.23-6.9,43.72-2.64,15.76-2.29,35.75-21.33,41.77-5.42,1.71-11.72,2.67-17.34.54-5.44-2.07-8.42-7.67-3.66-11.79C20,281.16,25.48,282.16,28.56,278.48Z"/><path class="e" d="M47,197c-4.28,12-.22,27.33-1.12,39.66-.73,9.91-.49,24.83-12.44,27.52a12.76,12.76,0,0,1-2.58.33c.74-9.72,1.4-19.25,1.45-29,.09-17.92-7.52-36,.91-53.24,5.29-10.83,18.26-12.87,28.26-5.81,4.31,3,6.15,7.76,6.66,13a38.79,38.79,0,0,1,.08,5.61C60.81,189,51.49,184.48,47,197Z"/></svg>