<svg xmlns="http://www.w3.org/2000/svg" width="267.45" height="234.11" viewBox="0 0 267.45 234.11"><defs><style>.a,.g{fill:#231f20;}.a{opacity:0.3;}.b{fill:#c66a38;}.c{fill:#f2dfd6;}.d{fill:#e78443;}.e{fill:#fff0e7;}.f{fill:#63c9bf;}.h{fill:#fff;}</style></defs><path class="a" d="M54.73,211.25c0,12.63,47.61,22.86,106.36,22.86s106.36-10.23,106.36-22.86-47.62-22.86-106.36-22.86S54.73,198.62,54.73,211.25Z"/><path class="b" d="M141.55,175.43c3.94.69,7.52-.55,11.2-1.8.49-1.49,1-2.95,1.5-4.37,4.4-12.1,7.89-24.77,12.94-36.59,2-4.67,4.71-11.16,5.34-17.38.47-4.59-.2-9-3.14-12.5-6.82-8.05-17.57-8.78-23.65-.4-9.68,13.35-6.64,30.48-9.74,46-1.44,7.24-3.22,14.23-5.11,21.27C133.35,172.89,137.88,174.78,141.55,175.43Z"/><path class="c" d="M125.71,185c-3.1,2.61-7.29.69-10.57,2.63-4.53,2.66-5.1,9-1.08,11.87s11.37,2.36,16,1.92c14.54-1.39,18.57-15.41,22.68-27.75-3.68,1.25-7.26,2.49-11.2,1.8-3.67-.65-8.2-2.54-10.66-5.77-.38,1.43-.76,2.87-1.15,4.31C128.77,177.55,128.61,182.52,125.71,185Z"/><path class="b" d="M218.46,83.07a8.79,8.79,0,0,1-1.94.19c-6.93-.12-13.14-6.26-19.71-5.37C186,79.36,187.32,100,194.49,105c6.58,4.6,26.31,3,34.33,1,12.58-3.13,21.24-14.26,22.72-29,1.55-15.4-9.6-28.9-21.9-33.94C222.77,40.23,217,40.34,211,45.7c-5.69,5.09-8.39,13-5.53,20.63,1.45,3.89,6.17,8.27,10,6.94-.37-5.33-.42-8.21,4.51-9.86,4.18-1.39,7.62.52,9.34,5.07C231.85,75.15,224.45,81.87,218.46,83.07Z"/><path class="c" d="M251.54,77c1.55-15.4-9.6-28.9-21.9-33.94C222.77,40.23,217,40.34,211,45.7c-5.69,5.09-8.39,13-5.53,20.63,1.3,3.46,5.18,7.3,8.71,7.17-4.54-7.7-9.28-13.91-.26-21.44,7.86-6.56,19.25-2.37,25,5.2,11.31,14.9.85,31.23-11.63,40.55-5,3.72-12.59,5.52-16.73,9.76-.13.14-.24.28-.36.43a87.07,87.07,0,0,0,18.6-2C241.4,102.87,250.06,91.74,251.54,77Z"/><path class="b" d="M228.6,178c-4,.77-7.67-.43-11.43-1.65-.53-1.51-1.06-3-1.61-4.44-4.68-12.3-8.44-25.2-13.78-37.21-2.11-4.74-5-11.33-5.74-17.68-.55-4.69.06-9.25,3-12.85,6.81-8.35,17.75-9.29,24.08-.82,10.08,13.48,7.26,31.06,10.68,46.88,1.59,7.38,3.52,14.51,5.55,21.68C236.91,175.26,232.33,177.26,228.6,178Z"/><path class="c" d="M244.89,187.47c3.2,2.61,7.43.58,10.81,2.5,4.65,2.65,4.75,9.85.7,12.83s-10.95,1.91-15.68,1.54c-14.83-1.16-19.17-15.43-23.55-28,3.76,1.22,7.43,2.42,11.43,1.65,3.73-.74,8.31-2.74,10.75-6.09.42,1.46.83,2.92,1.25,4.39C241.65,179.93,241.9,185,244.89,187.47Z"/><path class="d" d="M100.55,92.2c3-10.11,13.87-13.48,22.73-16,10-2.82,20.57-7.83,31.12-7.83,11.31,0,22.95,4.77,34.25,6,10.91,1.17,21.38,5,29.55,12.68,8.82,8.23,17.21,33.71,8.87,41.91-5.6,5.52-12.81,13.29-18.79,20.06-1.92,2.18-5.35,9-7.84,10.52-6.56,3.91-16.53,4.74-23.95,6.05-9,1.57-18.82,2-27.6-.79-12.29-3.93-30.61-9.32-36.53-22.46-3.53-7.84-10.37-9.53-10.79-18.46C101.24,116.66,98.53,99.14,100.55,92.2Z"/><path class="c" d="M120.74,119.26a16.53,16.53,0,0,1,1.91,1.13c.87.63.44,1,1.27,1.63,1.19-2.09-.57-5-2-8.25-2.68-6.24-18.83-18.41-3.92-26.6,5.14-2.82,16,2.67,21.59,3.91a55.05,55.05,0,0,0,13.8,1c3.11-.1,3.54,1.67,6.17,3.52,5.41,3.81,6.36,26.45,9.91,37.67,1.44,4.54,6.43-11.65,9.1-7.77,3.68,5.34,4.39,13.61,5.49,19.86,1.81,10.28,5.48,14.87-3.14,19.93-5.83,3.41-30.56,2.84-37.51,2.64-13.23-.38-23.25-8.72-30.61-18.62-3.37-4.53-3.14-8.52-2.85-14,.25-4.6-.23-14.87,3.68-17.63,1.67-1.16,3.78-.54,5.32.51A19.27,19.27,0,0,0,120.74,119.26Z"/><path class="d" d="M94,185c4.18.71,8.08-.66,12.08-2,.61-1.6,1.22-3.18,1.85-4.7,5.39-13,9.84-26.69,15.9-39.44,2.4-5,5.67-12,6.7-18.71.76-4.94.3-9.71-2.66-13.41-6.85-8.57-18.31-9.26-25.28-.2-11.12,14.43-8.82,32.81-13,49.5-2,7.79-4.26,15.32-6.66,22.9C85.41,182.34,90.15,184.33,94,185Z"/><path class="e" d="M76.55,195.38c-3.46,2.83-7.84.81-11.46,2.92-5,2.91-5,11.21-.82,14.22s11,1,16,.46c15.65-1.63,20.75-16.73,25.83-30-4,1.38-7.9,2.75-12.08,2-3.89-.66-8.63-2.65-11.08-6.1-.49,1.55-1,3.09-1.48,4.64C80.24,187.38,79.79,192.73,76.55,195.38Z"/><path class="d" d="M203.74,191.8c-4.52.79-8.66-.51-12.91-1.83-.59-1.62-1.18-3.2-1.79-4.73-5.25-13.1-9.47-26.82-15.46-39.62-2.36-5.05-5.59-12.07-6.42-18.81-.61-5,.09-9.83,3.42-13.63,7.72-8.82,20.08-9.73,27.2-.7,11.35,14.4,8.11,33.05,11.92,49.87,1.78,7.85,3.94,15.43,6.21,23.06C213.14,189,208,191.05,203.74,191.8Z"/><path class="e" d="M222.12,202c3.6,2.8,8.4.67,12.2,2.74,5.25,2.84,6.11,9.65,1.53,12.78s-13.15,2.8-18.5,2.37c-16.75-1.35-21.6-16.54-26.52-29.9,4.25,1.32,8.39,2.62,12.91,1.83,4.22-.75,9.4-2.85,12.17-6.39l1.4,4.67C218.48,194,218.75,199.35,222.12,202Z"/><path class="f" d="M172.08,126.54a49.82,49.82,0,0,1-9.83,17.21,41.1,41.1,0,0,1-28.11,14.69c-14.34,1.23-29.25,1.09-40.95-14.38-5.83-7.72-10.75-15.67-11.79-28.71-2.71-34.22,16.28-41.95,32.49-46.9,15.25-4.66,38.55-10.4,51.26,10.8C176.46,98.11,174.3,119.32,172.08,126.54Z"/><path class="d" d="M59.69,81.6c.8-3.2.45-6.94-1.5-11.24-3.88-8.52-12.28-9.21-19.81-7.93C29,64,19.38,68.2,11.16,72.48,4.37,76-5,78.39,3.17,87.32,9,93.76,24.37,96.4,32.3,96.56,42.43,96.77,57.09,92,59.69,81.6Z"/><path class="e" d="M17.47,91.66c9.31,3.41,26.94,5.63,32.54-5.15,8-15.37-14.65-12.22-21.79-10.16C23.55,77.7,11.2,78.44,9.08,84,7.39,88.4,14.53,90.59,17.47,91.66Z"/><path class="d" d="M151.87,72.91c-4.76-3.68-5.84-5.91-8.46-11-3-5.88-7.94-10.23-12.59-14.5-29.32-26.88-79.92-2.46-95,30-3.73,8-5.68,18.82-4.22,27.65,1.34,8.16,9.87,14.68,7.5,23.31-2.23,8.12-11.41,13.32-13.17,21.84-2.31,11.11,14.35,16.2,22.54,17a46.29,46.29,0,0,0,28.2-6.41c5.16-3.08,7.4-8.62,13.53-10.36s8.61,0,14.3,2.14c11.31,4.32,30.15-5.2,38.65-11.35,6.4-4.63,13.75-4.36,18-12.26,3.78-7.06,7.31-22.06,5.85-30.06C165.29,89.83,161.56,80.42,151.87,72.91Z"/><path class="e" d="M118.73,93c-5.9-3.53-14.48-3-20.41,0-7,3.6-9.8,11-13.41,17.49-8,14.28-24.33,35-40.2,40.66-7.27,2.6-9.55-4.31-16.24-.08a16.17,16.17,0,0,0-2.74,2.17c1,9,15.3,13.22,22.7,14a46.35,46.35,0,0,0,28.2-6.4c9.85-5.9,10.42-13.86,22.25-7.48,5.84,3.15,25.68,2.75,34.62-.82,11.47-4.59,20.88-9.92,26.05-21.16C159.64,131.13,130.92,100.27,118.73,93Z"/><path class="g" d="M47.49,148.91c-.88,13.07-31.9,19-23.56,1.54C27.29,143.44,48.49,134,47.49,148.91Z"/><path class="h" d="M33,148.55c1,1.29,0,3.73-2.14,5.44s-4.72,2-5.7.75,0-3.73,2.14-5.44S32.06,147.25,33,148.55Z"/><path class="g" d="M55.72,109.81c1.23,2.7,5.08,2.41,7,.9,4.63-3.65,6.86-13.68,8.48-19.17C70.82,91.52,54.45,107,55.72,109.81Z"/><path class="h" d="M60.69,109.48c1.86-.42,2.83-3.18,2.18-6.15a7.92,7.92,0,0,0-1.07-2.58,53.84,53.84,0,0,0-5,6.08C57.76,108.69,59.27,109.81,60.69,109.48Z"/><path class="d" d="M84.85,54.07c-13.68-13-7.3-32.3.87-45A26.51,26.51,0,0,1,92.56,2c9.23-6.82,15.7,5.58,19.79,13a81.45,81.45,0,0,1,4.21,8.79c3.19,8.15,11.92,38.61.42,43.61-4.8,2.09-13.19-1.94-17.51-4.55C94.89,60.05,88.78,57.81,84.85,54.07Z"/><path class="e" d="M88.82,48c-9.3-8.08-4.49-20.54,1.44-28.83a19.18,19.18,0,0,1,4.9-4.66c6.56-4.54,10.85,3.27,13.56,8A45.51,45.51,0,0,1,111.5,28c2.08,5.15,7.59,24.49-.52,27.91-3.38,1.43-9.16-1-12.12-2.58C95.71,51.59,91.49,50.27,88.82,48Z"/><path class="g" d="M94.19,132.08c-2.89,1.49-5.39,5-5.58,7.84-.18,2.66-2.29,13.26-2.84,13.9,2.34,0,5.06-2.33,6.58-4.68,1.38-2.16,2-5.82,2.11-8.35.14-3-.11-7,1.82-9.42,0,0,0,0,0,0A6.45,6.45,0,0,0,94.19,132.08Z"/></svg>