<svg xmlns="http://www.w3.org/2000/svg" width="185.02" height="224.31" viewBox="0 0 185.02 224.31"><defs><style>.a{fill:#d1d3d4;}.b{fill:#231f20;opacity:0.3;}.c{fill:#77470e;}.d{fill:#a36b1e;}.e{fill:#d1d1d1;}.f{fill:#fefefe;}.g{fill:#63c9bf;}.h{fill:#f8f8f8;}</style></defs><path d="M160.84,139.59c-1.2.28-1-.75-1.13-1.77-.27-1.92.09-4.53-.45-6.51a39.8,39.8,0,0,1-7.46,8.13A32.24,32.24,0,0,1,137.63,146c-3.52.59-8,1-11.46.18-4.34-1-7.23-4.54-11.82-5.23-3.48-.51-8.74-.85-11.74,1.39-5.31,4-2.41,12.2,1.31,16.19,5.92,6.36,16.33,6,24.43,5.74a44.57,44.57,0,0,0,21.48-6.65,55.29,55.29,0,0,0,15.08-14.55c-.58-1.65-.68-4.19-1.27-5.2C162.63,138.18,161.82,139.36,160.84,139.59Z"/><path class="a" d="M170.41,124.21a14.22,14.22,0,0,0-2.34,3,60.68,60.68,0,0,0,.22-7.4c-.15,0,0-2.59-.08-2.67-2.94,4.54-5.65,9.62-9,14.22.54,2,.18,4.59.45,6.51.15,1-.07,2.05,1.13,1.77,1-.23,1.79-1.41,2.8-1.73.59,1,.69,3.55,1.27,5.2C169.24,136.93,172,130,170.41,124.21Z"/><path class="b" d="M9.75,198.73c0,14.13,35.92,25.58,80.24,25.58s80.24-11.45,80.24-25.58S134.31,173.15,90,173.15,9.75,184.6,9.75,198.73Z"/><path class="a" d="M145.15,159.24c-2.22,1.54-2.4,3.94-3.81,6a29.65,29.65,0,0,1-5.27,5.47,49.8,49.8,0,0,1-8.44,4.82,28.41,28.41,0,0,1-12.41,2.62c-.37,6.1.93,12.33,3.76,16.43,5,7.25,13.15,9.37,20.07,10.95,6.22,1.42,15.38,4.88,20.93-2.45,2.24-3,2-8.07,0-10.92-2.38-3.27-5.78-1.88-8.64-3.31,5.2-7.41,12.66-21.6,7.92-31.62a12.36,12.36,0,0,0-5.57-1.1A17.14,17.14,0,0,0,145.15,159.24Z"/><path class="c" d="M118.58,166.22a26.79,26.79,0,0,0-3.36,11.93,28.41,28.41,0,0,0,12.41-2.62,49.8,49.8,0,0,0,8.44-4.82,29.65,29.65,0,0,0,5.27-5.47c1.41-2.06,1.59-4.46,3.81-6a17.14,17.14,0,0,1,8.49-3.11,12.36,12.36,0,0,1,5.57,1.1s-.05-.11-.08-.16C148.62,135.61,129,148.67,118.58,166.22Z"/><path class="a" d="M39,159.24c2.22,1.54,2.4,3.94,3.81,6a29.65,29.65,0,0,0,5.27,5.47,50.19,50.19,0,0,0,8.44,4.82,28.41,28.41,0,0,0,12.41,2.62c.37,6.1-.93,12.33-3.76,16.43-5,7.25-13.15,9.37-20.07,10.95-6.22,1.42-15.38,4.88-20.93-2.45-2.24-3-2-8.07,0-10.92,2.38-3.27,5.78-1.88,8.64-3.31-5.2-7.41-12.66-21.6-7.92-31.62a12.36,12.36,0,0,1,5.57-1.1A17.14,17.14,0,0,1,39,159.24Z"/><path class="c" d="M65.57,166.22a26.79,26.79,0,0,1,3.36,11.93,28.41,28.41,0,0,1-12.41-2.62,50.19,50.19,0,0,1-8.44-4.82,29.65,29.65,0,0,1-5.27-5.47c-1.41-2.06-1.59-4.46-3.81-6a17.14,17.14,0,0,0-8.49-3.11,12.36,12.36,0,0,0-5.57,1.1s0-.11.08-.16C35.52,135.61,55.15,148.67,65.57,166.22Z"/><path d="M45.45,156.39c3.89-6.1,11.06-7.89,17-11.28,13.07-7.43,29.55-5.66,43.78-3.41,9.33,1.48,19.45,5.07,27.2,10.61a32.69,32.69,0,0,1,4.25,3.52c2.74,2.74,2.54,5,3.51,8.32.29,1,1.54,3,2.85,2.66a2.16,2.16,0,0,0,1.23-1.19c.63-10-.59-16.36-5.06-25.5-1.24-2.54-2-5.31-3.21-7.81-2.38-4.93-6.27-8.2-9.75-12.26-2.47-2.88-4.06-6.73-7.77-8.31-8.41-3.58-18.3-1.27-27-1.29-12.18,0-30.73,2.18-39.09,15.07-6,9.32-11.26,19.1-13.39,31.15a32.19,32.19,0,0,0-.44,5.24,3,3,0,0,0,.79.45C44.09,163.7,44.17,158.38,45.45,156.39Z"/><path class="d" d="M47.79,192.87c6.27,10.78,15,7.4,24.51,8,14.28.91,28.38,2.05,42.3-.55,6-1.12,9.78-.94,15.75-3.41,8.71-3.59,14-18.65,14.83-29.77,0-.52.07-1,.1-1.53a2.16,2.16,0,0,1-1.23,1.19c-1.31.34-2.56-1.66-2.85-2.66-1-3.34-.77-5.58-3.51-8.32a32.69,32.69,0,0,0-4.25-3.52c-7.75-5.54-17.87-9.13-27.2-10.61-14.23-2.25-30.71-4-43.78,3.41-6,3.39-13.12,5.18-17,11.28-1.28,2-1.36,7.31-5.06,6a3,3,0,0,1-.79-.45C39.48,172.22,43.24,185,47.79,192.87Z"/><path class="e" d="M62.2,129.32c7.34-13.9,28.06-13.92,39.42-10.56,9.06,2.67,17.57,6.06,22.6,16.61a26.57,26.57,0,0,1,1.62,18.95c-.94,3.58-2.46,6.86-3.52,10.38-.87,2.92-.51,4.42-.8,7.28-.88,8.75-6.54,18.5-11.29,24.77a54,54,0,0,1-4.19,5.36c-8.09.65-23.88.12-32.09-.33-4.45-4.45-7.72-11.24-10.7-17C55.55,169.8,53.14,146.48,62.2,129.32Z"/><path class="f" d="M104.44,202.45c-.77,6.57,5.32,13.11,13.58,14.63s15.58-2.57,16.34-9.13-5.32-13.11-13.58-14.62S105.2,195.9,104.44,202.45Z"/><path class="f" d="M131.37,161.33A34.7,34.7,0,0,0,127,155c-1.79-1.88-4.14-2.83-5.42-5.05-1.91-3.32-4.46-6.55-4.47-10.55,0-.65,0-1.27.08-1.88l-3.81,3.44s10.47,27.36-5.58,61.41L131,207.08a97,97,0,0,0,7.2-38.39,4.75,4.75,0,0,1-2.07-.56C134,166.94,132.58,163.33,131.37,161.33Z"/><path class="d" d="M117.2,137.48c0,.61-.09,1.23-.08,1.88,0,4,2.56,7.23,4.47,10.55,1.28,2.22,3.63,3.17,5.42,5.05a34.7,34.7,0,0,1,4.36,6.37c1.21,2,2.59,5.61,4.75,6.8a4.75,4.75,0,0,0,2.07.56,71.81,71.81,0,0,0-12.1-39.22Z"/><path class="f" d="M79.39,202.45c.76,6.57-5.32,13.11-13.59,14.63S50.23,214.51,49.47,208s5.32-13.11,13.58-14.62S78.63,195.9,79.39,202.45Z"/><path class="f" d="M52.45,161.33A35.2,35.2,0,0,1,56.81,155c1.8-1.88,4.14-2.83,5.42-5.05,1.92-3.32,4.47-6.55,4.48-10.55,0-.65,0-1.27-.09-1.88l3.82,3.44S60,168.28,76,202.33l-23.17,4.75a97.13,97.13,0,0,1-7.21-38.39,4.75,4.75,0,0,0,2.08-.56C49.86,166.94,51.25,163.33,52.45,161.33Z"/><path class="d" d="M66.62,137.48c0,.61.09,1.23.09,1.88,0,4-2.56,7.23-4.48,10.55-1.28,2.22-3.62,3.17-5.42,5.05a35.2,35.2,0,0,0-4.36,6.37c-1.2,2-2.59,5.61-4.74,6.8a4.75,4.75,0,0,1-2.08.56,71.82,71.82,0,0,1,12.11-39.22Z"/><path class="g" d="M134.37,107.26c2.06,5.47,2.19,15.12.1,20.49-2,5.11-5.81,9.6-9.3,12.81a43,43,0,0,1-26.56,10.92c-13.56.92-27.65.82-38.71-10.7-5.51-5.74-10.16-11.65-11.14-21.36C46.18,94,64.14,88.2,79.46,84.52c14.43-3.47,36.57-6,47.42,10.35C129.21,98.39,132.77,103,134.37,107.26Z"/><path class="d" d="M69.86,74.29C82.13,64.74,85.56,48.77,87,34.1c.6-6.24,1.46-12.39,2-18.72.3-3.24.09-9.89,0-15.33L86.83,0c-.69,0-1.39,0-2.09,0s-1.4,0-2.1,0C69.68.23,51.56,3.1,42.18,12.59c-8.87,9-7,21.53-5.28,32.91,2.06,14,.17,28.94,3.74,42.64.18.72.39,1.44.61,2.16C48,81.22,61,81.2,69.86,74.29Z"/><path class="d" d="M147.47,45.5c1.68-11.38,3.59-23.93-5.28-32.91C132.92,3.21,115.11.3,102.18,0c.52,6.54.86,15.16,1.1,20.16.84,18-.3,43.88,16.78,55,8.95,5.81,18.26,9.2,23,15.4.25-.8.49-1.61.7-2.42C147.3,74.44,145.41,59.5,147.47,45.5Z"/><path class="h" d="M120.06,75.16c-17.08-11.1-15.94-37-16.78-55-.24-5-.58-13.62-1.1-20.16h-.45c-.69,0-1.39,0-2.09,0s-1.4,0-2.1,0c-1.67,0-3.47.06-5.35.14L89,.05c.09,5.44.3,12.09,0,15.33-.59,6.33-1.45,12.48-2,18.72-1.39,14.67-4.82,30.64-17.09,40.19C61,81.2,48,81.22,41.25,90.3c3,9.72,8.61,19,12.51,28.38,2.32,5.56,2.91,11.79,7,16.5,7.31,8.47,17.46,7,27.15,6.81,1.46,0,2.9,0,4.3,0s2.83,0,4.29,0c9.7.2,19.84,1.66,27.16-6.81,4.06-4.71,4.65-10.94,7-16.5,3.86-9.25,9.44-18.49,12.42-28.12C138.32,84.36,129,81,120.06,75.16Z"/><path class="c" d="M183.07,94.28a81,81,0,0,0,.71,16.42c1.25,7.61.68,8.32-5.87,10.7-9.61,3.5-20.85,3.86-29.06-4.32-10.55-10.5-9.94-32.39-6.62-45.69,4.58-18.42-6-31.14-13.32-46.9-4.23-9.16-4.91-20.63,8-20.19,5.55.18,7.88,1.81,12.48,4.85,7.51,5,15.57,10.45,22.35,16.46C190.83,42.59,184,70.14,183.07,94.28Z"/><path class="c" d="M2,92.9a82.49,82.49,0,0,1-.71,16.42C0,116.92.56,117.64,7.12,120c9.6,3.49,20.85,3.86,29.06-4.32C46.72,105.19,46.11,83.31,42.8,70,38.21,51.59,48.85,38.87,56.12,23.1c4.23-9.16,4.9-20.63-8-20.19-5.56.19-7.88,1.82-12.48,4.85-7.51,5-15.58,10.45-22.36,16.47C-5.8,41.21,1,68.76,2,92.9Z"/><path d="M113.65,95.11c0,7.27-8.54,13.17-19.07,13.17s-19.06-5.9-19.06-13.17,8.74-9.74,19.27-9.74S113.65,87.83,113.65,95.11Z"/><path class="h" d="M86.89,96.91c-3.79.33-7-1-7.18-3s2.77-3.81,6.56-4.15,7,1,7.19,3S90.69,96.57,86.89,96.91Z"/><path d="M93.53,123.55h-.08a1.67,1.67,0,0,1-1.6-1.76l.84-16.57a1.68,1.68,0,1,1,3.36.17L95.21,122A1.68,1.68,0,0,1,93.53,123.55Z"/><path d="M112.4,128a24,24,0,0,1-6.83-1.17c-.89-.27-1.79-.57-2.68-.87a30.23,30.23,0,0,0-7.53-1.85c-3.17-.19-6.31.63-9.63,1.52-1.13.3-2.26.6-3.38.86-6.24,1.42-11.16.83-14.64-1.76a1.69,1.69,0,0,1,2-2.7c2.64,2,6.63,2.37,11.87,1.17,1.08-.25,2.17-.54,3.26-.83,3.44-.91,7-1.86,10.72-1.62a33.33,33.33,0,0,1,8.38,2c.86.29,1.72.57,2.59.84,4.12,1.25,7.18,1.35,9.6.32a1.68,1.68,0,1,1,1.32,3.1A12.86,12.86,0,0,1,112.4,128Z"/><path d="M134.1,55.59c0,6.89-3.57,12.48-8,12.48s-8-5.59-8-12.48,3.57-12.48,8-12.48S134.1,48.7,134.1,55.59Z"/><path class="h" d="M126.42,52.59c-1.08,2.77-3.2,4.53-4.75,3.94s-1.94-3.34-.87-6.11,3.2-4.53,4.75-3.93S127.49,49.82,126.42,52.59Z"/><path d="M68.93,54.21c0,6.89-3.57,12.47-8,12.47s-8-5.58-8-12.47,3.57-12.48,8-12.48S68.93,47.32,68.93,54.21Z"/><path class="h" d="M61.08,51c-1.08,2.78-3.2,4.54-4.75,3.94s-1.94-3.34-.87-6.11,3.2-4.53,4.75-3.93S62.15,48.2,61.08,51Z"/></svg>