<svg xmlns="http://www.w3.org/2000/svg" width="255.97" height="174.09" viewBox="0 0 255.97 174.09"><defs><style>.a{fill:#231f20;opacity:0.3;}.b{fill:#261a15;}.c{fill:#594a42;}.d{fill:#35261f;}.e{fill:#e0bb20;}.f{fill:none;}.g{fill:#fff;}.h{fill:#0b0808;}.i{fill:#b7375c;}</style></defs><path class="a" d="M256,129.45c0-13.63-44.1-24.68-98.49-24.68S59,115.82,59,129.45a7.14,7.14,0,0,0,1.11,3.72c-15.14,4.34-24.34,10-24.34,16.24a6.44,6.44,0,0,0,.38,2.11c-11.81,1.63-20.06,5.3-20.06,9.57,0,5.79,15.12,10.49,33.77,10.49a85.33,85.33,0,0,0,23.11-2.86c16.82,3.36,38.12,5.37,61.3,5.37,54.4,0,98.5-11,98.5-24.68a7.18,7.18,0,0,0-1.12-3.72C246.77,141.35,256,135.67,256,129.45Z"/><path class="b" d="M192.23,79.89c-4.77-2.82-9.17-7.37-11-12.9-1.08-3.32-1.94-11.46.66-14.16,4.26-4.43,11.13,6.11,13.72,8.34a59.73,59.73,0,0,0,16.09,10c11,4.56,23.66,6.05,32.2,14.49a12.56,12.56,0,0,1,3.78,6.2c.5,2.44-.29,5.32-2.35,6.63-2.66,1.69-6,.27-8.79-1.15a144.89,144.89,0,0,0-20.74-9.15C207.89,85.56,199.46,84.15,192.23,79.89Z"/><path class="c" d="M100.27,56l.94-1.35c12.39-17.28,29.38-25.49,47.35-23.22,17.3,2.19,46.67,15.69,63.64,42.91,13.48,21.63-12.89,64.11-30.84,73.33-7.68,3.94-16,4.7-24.25,5.42L136,154.93c-15.81,1.39-34.42,1.18-43.78-15.48-3.42-6.09-5-13.67-5.6-21.23C84.83,94.13,87.92,74,100.27,56Z"/><path class="c" d="M206.85,68.35c9.58,9.79,7.23,18.24,23.85,31.32,4.58,3.61,11.3,7,15.76,11.07,6.15,5.67,7.27,9.86,7.38,16.83.15,10.3-10.78,9.77-13.47,7.7-15.2-11.63-33.81-1.36-50.67-9.15a37.94,37.94,0,0,1-10.15-6.34c-5.78-5.3-9.79-13.76-12.49-22.73a39.6,39.6,0,0,1-1.91-10.2c-.28-9,5.3-25.52,11.81-29C186.81,52.56,199.07,60.4,206.85,68.35Z"/><path class="d" d="M172.48,153.52c-9.92,1.34-37.81,6.43-40.83-12.62-1.37-8.67.57-20.16,2-28.69a177.5,177.5,0,0,1,4.58-20.06c3-10.28,8.4-10.43,16.47-13.33,10.44-3.75,45.71,51,38.61,56.34S180.6,152.42,172.48,153.52Z"/><path class="d" d="M188.76,86.6c-8.8,9.34-21.67,9.34-21.7,10.45-.23,9.68,6.71,17.43,12.49,22.73a37.94,37.94,0,0,0,10.15,6.34c11.08,5.12,22.92,2.44,34.05,3.3C214.17,122.8,194.08,109.15,188.76,86.6Z"/><path class="c" d="M191.11,151.49a17.45,17.45,0,0,0,.31-12.92,15.82,15.82,0,0,0-6.59-7.58c-2.84-1.45-6.13.1-9.23-.11-5.47-.35-12.09-.46-17.46-1.89-6.53-1.75-11.87-6.33-18-9.54-7.79-4.06-16.51-5.63-24.4-1.68-6.26,3.13-15.09,13.49-11.71,23,3.14,8.82,12.82,13.42,19.25,15.06,9.65,2.46,19.93,2.32,29.73,2.7q9.81.39,19.64.42c6,0,12.58,1.74,17.17-5A14.69,14.69,0,0,0,191.11,151.49Z"/><path class="d" d="M191.42,138.57a15.82,15.82,0,0,0-6.59-7.58c-2.84-1.45-6.13.1-9.23-.11-1.39-.09-2.86-.16-4.37-.25,3.52,2.48,6.24,7.18,6.1,11.15-.47,13.71-8.8,15.84-9.79,17.12,1.69,0,3.38,0,5.08.06,6,0,12.58,1.74,17.17-5a14.69,14.69,0,0,0,1.32-2.45A17.45,17.45,0,0,0,191.42,138.57Z"/><path class="d" d="M145.16,142.57c5.58-7.31,9.27-17,10.57-27.2a28.11,28.11,0,0,0,.11-7.93c-.41-2.6-1.46-5.1-3.17-6.51a7.16,7.16,0,0,0-4.85-1.47c-4,.08-7.8,2-11.28,4.57-7.36,5.4-13.41,13.53-18.39,22.48-2.88,5.17-10.58,19.46-5.33,25.41a7,7,0,0,0,2.06,1.48l3.34,1.82c4.19,2.27,9.82.11,14-1.88A36,36,0,0,0,145.16,142.57Z"/><path class="c" d="M209.24,156.16c5.81,2.46,13.09,3.44,17.07-2.15,2.71-3.8,3.18-9.75,1.79-14.58s-4.61-7.67-8-10.25c-3.61-2.75-7.8-4.26-11.64-6.56-11.68-7-46.73-55.25-54.92-57.45-6.5-1.74-18,.73-18.8,11-.78,9.49,10.43,23.36,15.23,29.18,8.72,10.58,18.88,17.48,28.66,25.89,8.65,7.43,16.68,16.59,26,22.54A32.34,32.34,0,0,0,209.24,156.16Z"/><path class="e" d="M84.08,128.78c4.73,5.8,14.48,12.24,20.8,13.5a32.52,32.52,0,0,0,16.8-1.63c10.34-3.66,19.17-9.32,23.56-18.86,6.44-14,10.42-31.79,3.2-51.21-3.6-9.68-7.72-18.55-17.2-25.94-24.86-19.41-38-3.85-48,10.22-9.39,13.25-20.93,35.44-8.74,57.77C77.15,117.44,80.42,124.29,84.08,128.78Z"/><path class="f" d="M244.53,136a8,8,0,0,0,4-2.48,6.87,6.87,0,0,0,1.46-5.25,9.92,9.92,0,0,0-.7-2.16,14.31,14.31,0,0,0-2.46-4.34,8.79,8.79,0,0,0-3.08-2,20.82,20.82,0,0,0-9.61-1.7,10.81,10.81,0,0,0-7.71,3.35c-1.88,2.11-2.15,5.14-.06,7.1a16.6,16.6,0,0,0,2.26,1.37,35.31,35.31,0,0,1,2.76,2.72C235.14,136,240,137.35,244.53,136Z"/><path class="c" d="M86.65,163.56c23.55.6,37.83-7.31,45.91-28.56,9-23.77,13.69-54.56.51-78.8C122.5,36.78,93.2,20.82,68,20.81c-12.43,0-23.87,3.87-31.57,13.13-5,6-8,13.45-10.59,20.9a230.35,230.35,0,0,0-11,55.2c-1.76,23.68,9.49,37.18,25.64,44.7C54,161.05,71,163.16,86.65,163.56Z"/><path class="g" d="M78.45,119.08c-4.31,2-16.29,16.76-4.75,43.44,0,.1.09.19.13.29,4.31.4,8.61.65,12.82.75a73.59,73.59,0,0,0,13.82-.85c1.64-7,1.25-15.83-1.48-25.19C95.21,124.61,85.3,115.92,78.45,119.08Z"/><path d="M125,106.72c7.46,2,13.08,13.64,9.57,28.8S122.91,157,115.45,155s-7-10.48-3.5-25.64S117.5,104.69,125,106.72Z"/><path class="h" d="M97,67.87c1.87-3.43,8.7,4.68,6.79,14.85s-10.7,17.83-11.88,13.56S98,90.87,99.26,82,95.16,71.3,97,67.87Z"/><path class="h" d="M86.86,128.46c2.36-2.85,7.76,6.95,4.3,16.4S77.9,159.43,77.42,154.93s6.77-3.66,9.39-12S84.5,131.31,86.86,128.46Z"/><path class="d" d="M40.5,154.74a84.86,84.86,0,0,0,18.87,5.95A61.8,61.8,0,0,0,58,148.52c-2.42-11.81-6.77-23.31-13.82-32.68A22.78,22.78,0,0,0,36.85,109c-8.62-4.45-16.53-1.2-22.16,5.24C14.49,135.33,25.33,147.67,40.5,154.74Z"/><path class="c" d="M0,130.3c.46,9.71,5.86,18.85,13.86,23.49,5.37,3.11,12.06,4.57,15.52,9.87,1.3,2,2,4.38,3.71,6,4.18,4.13,11.58.89,14.94-4.22,5-7.58,4.57-17.58,2.81-26.43-2.22-11.26-6.35-22.2-13.18-31a21.24,21.24,0,0,0-7.15-6.44C13.73,93.32-.74,114.32,0,130.3Z"/><path class="d" d="M68,20.81a49.17,49.17,0,0,0-15,2.24c-5.49,13.41-4,31.18,10.89,35.78A21.54,21.54,0,0,0,74,59c11.49-2,22.25-7.71,31.7-15.07A58.53,58.53,0,0,0,114,36.16C100.69,26.92,83.57,20.81,68,20.81Z"/><path class="c" d="M48,7.07A31.37,31.37,0,0,1,77.4,1.55C83.89,3.79,90,8.36,96.92,7.39,99.49,7,102,5.9,104.57,6.1c6.47.5,9.29,9.09,7.59,15.65-2.51,9.75-11,16.7-19.52,21.71C81.8,49.82,69.82,54.34,57.54,55.08c-3.58.21-7.26.08-10.54-1.31C27.86,45.64,34.35,18.11,48,7.07Z"/><path class="i" d="M141,96.64c-.34-1-.72-2-1.1-3-2.48-2.24-6.15-3.41-9.19-2a3.63,3.63,0,0,0-2.12,2.2,4,4,0,0,0,0,1.54c.63,4.69,4.38,8.17,7,12a28.48,28.48,0,0,1,3.23,6.31,117.16,117.16,0,0,0,2.26-16.74C141,96.83,141,96.74,141,96.64Z"/></svg>