<svg xmlns="http://www.w3.org/2000/svg" width="190.65" height="250.8" viewBox="0 0 190.65 250.8"><defs><style>.a{fill:#231f20;opacity:0.3;}.b{fill:#9b5923;}.c{fill:#21201c;}.d{fill:#d1d1d1;}.e{fill:#383731;}.f{fill:#c1742e;}.g{fill:#fff;}.h{fill:#f15a29;}.i{fill:#aa5f22;}</style></defs><path class="a" d="M162.3,230.71c0,11.09-34.48,20.09-77,20.09s-77-9-77-20.09,34.47-20.1,77-20.1S162.3,219.6,162.3,230.71Z"/><path class="b" d="M110.93,190.81a15.83,15.83,0,0,0,9-3.27l1.14-.87a121.34,121.34,0,0,0,1.56,12.66c.74,3.8.36,7.57,3.49,10.22s6.35,3.61,8.58,7c5.3,8.16-9.93,8.23-14.67,7.65-15.56-1.9-17.11-17.82-20.63-29.92-.58-2-1.13-4-1.67-6.09.62.29,1.22.55,1.77.77A24.62,24.62,0,0,0,110.93,190.81Z"/><path class="c" d="M86.25,144.71c-.07-4.19,1-8.21,4.07-11.27,7.24-7.11,17.66-7.46,22.82.34,8.22,12.43,5.08,25.89,6.78,40.09.48,4,.77,8.4,1.14,12.8l-1.14.87a15.83,15.83,0,0,1-9,3.27A24.62,24.62,0,0,1,99.49,189c-.55-.22-1.15-.48-1.77-.77C95.27,179,93.14,169.6,90,160.67,88.44,156.36,86.35,150.38,86.25,144.71Z"/><path d="M1.57,113.29c-1-1.46-.79-2.54-1.49-4.08,7.39,3.58,15.84,4.65,23.51,7a44.76,44.76,0,0,1,6.59,2.56,48.29,48.29,0,0,1,7,4.38,77.38,77.38,0,0,1,15.48,15.4c3.79,5.08,7.9,18-3.88,15.64-5.25-1.06-10.54-3.2-15.68-5.33s-10.74-4.2-15.89-6.86a47,47,0,0,1-8.9-5.78c-.4-.33-.77-.68-1.13-1A22.62,22.62,0,0,1,1.54,125C1.21,123.81.08,112.83,0,112.8A10,10,0,0,0,1.57,113.29Z"/><path class="b" d="M44.05,194a15.83,15.83,0,0,1-9-3.27c-.33-.24-.72-.54-1.14-.87a121.34,121.34,0,0,1-1.56,12.66c-.74,3.81-.36,7.57-3.49,10.23s-6.36,3.6-8.59,7C15,227.92,30.22,228,35,227.4c15.57-1.9,17.12-17.81,20.64-29.92.58-2,1.13-4,1.67-6.09-.62.29-1.23.55-1.78.77A24.56,24.56,0,0,1,44.05,194Z"/><path class="c" d="M68.73,147.88c.06-4.19-1-8.22-4.07-11.28-7.25-7.11-17.66-7.45-22.82.34-8.23,12.43-5.08,25.89-6.78,40.09-.48,4-.77,8.41-1.14,12.8.42.33.81.63,1.14.87a15.83,15.83,0,0,0,9,3.27,24.56,24.56,0,0,0,11.43-1.81c.55-.22,1.16-.48,1.78-.77,2.44-9.23,4.58-18.63,7.75-27.56C66.54,159.52,68.63,153.55,68.73,147.88Z"/><path class="c" d="M88.12,119.85c-11.77,0-22.53,5.17-33.91,7.08-9.68,1.63-12.2,15.38-12.55,23.23-.26,5.84-1.4,11,.11,16.7,1.39,5.32,2.66,10.49,6.64,14.45,3.75,3.75,8.42,6,13.14,8.32,5.34,2.59,10.82,6,17,5.67s12.21,1.14,18.39.83a103.68,103.68,0,0,0,15.16-1.78c5-1,12.49-2.19,16.8-5.07,2.43-1.62,4.49-4.17,6.7-6,5.51-4.62,7.93-8.14,9.41-15.26a49.1,49.1,0,0,0,.28-16.71c-1.31-10.2-3.88-19.64-14.83-24.13-4.49-1.84-9-4.26-13.92-5A201.73,201.73,0,0,0,88.12,119.85Z"/><path class="d" d="M142.94,165.22c1.52,17.85-21.87,33.86-41.89,33.54-21.55-.34-26.67-1.83-35.72-15.39-4.39-6.56-4.59-14.21-5-21.94-1-20.46,18.16-25.13,34.69-25.93,11.76-.57,28.65-1.37,36.67,9.55C135.3,149.93,142.43,159.14,142.94,165.22Z"/><path class="e" d="M57.11,170.69c1.23-7.57,4-17.24,9-20.58,2.89-1.9,6.52-1.76,11.06,2A24.1,24.1,0,0,1,84,160.78,25.69,25.69,0,0,1,86,171.6c-2.61,8.21-7.18,17.3-13.7,21.19S60,194.06,55.73,189.38v0A112.71,112.71,0,0,1,57.11,170.69Z"/><path class="f" d="M75.93,225.56c1-7.32,1.14-14.57,2.86-22,.17-.71.34-1.42.54-2.13C82.09,191.37,86,181,86,171.6c-2.61,8.21-7.18,17.3-13.7,21.19S60,194.06,55.73,189.38c0,1.21,0,2.42.06,3.64,0,.52,0,1,.05,1.57.16,4,.27,8,0,11.95-.17,2.94-.14,6-1.2,8.8-.92,2.4-4,3.87-5.66,5.71-19.09,21.14,21.65,30.58,25.9,10.58.35-1.65.62-3.3.85-4.94C75.82,226.32,75.89,225.94,75.93,225.56Z"/><path class="e" d="M147.52,170.71c-.9-7.61-3.16-17.4-7.9-21-2.7-2-6.19-2.09-10.69,1.45a23.36,23.36,0,0,0-6.82,8.3,26.12,26.12,0,0,0-2.41,10.7c2.2,8.33,6.25,17.62,12.36,21.83s11.8,1.89,16.09-2.57v-.06A116.93,116.93,0,0,0,147.52,170.71Z"/><path class="f" d="M153.45,222.31c-1-1.37-3.07-3.34-4-4.49-2.19-2.68-2-7.49-2.07-10.74a123.15,123.15,0,0,1,.48-12.45c0-.52.07-1,.1-1.56.08-1.22.15-2.42.2-3.63-4.29,4.46-10,6.74-16.09,2.57s-10.16-13.5-12.36-21.83c-.29,9.41,3.06,19.94,5.33,30.12.16.72.31,1.43.44,2.16,1.37,7.48,1.27,14.73,1.92,22.08,0,.38.08.76.12,1.14.16,1.65.35,3.3.63,5,1.2,7.29,7.49,11.19,14.59,10.91,5.59-.22,14.84-3.28,14.82-9.94C157.55,227.92,155.86,225.52,153.45,222.31Z"/><path class="g" d="M145.61,136l-.18-.41c-3.27-7.18-11.5-10.93-18.69-13-4.09-1.16-8.37-1.12-12.42-2.18-3.34-.88-6.19-1.86-9.78-2a50,50,0,0,0-5.61.1,49.93,49.93,0,0,0-5.61-.1c-3.59.14-6.44,1.12-9.78,2-4.05,1.06-8.33,1-12.41,2.18-7.2,2.06-15.43,5.81-18.7,13l-.18.41c-6,13.87-.8,24,10.31,33.53,4.09,3.52,5.43,5.6,9.44,8.57,1-1.33,2.61-2.84,3.23-4.21,2.58,1.56,13.87,11.94,14,12s5.07-3.3,4.78-3.15a47.88,47.88,0,0,0,4.75,3.87l.17-.18.17.18a47.88,47.88,0,0,0,4.75-3.87c-.29-.15,4.75,3.16,4.78,3.15s11.41-10.41,14-12c.62,1.37,2.19,2.88,3.23,4.21,4-3,5.35-5,9.44-8.57C146.41,160,151.57,149.91,145.61,136Z"/><path class="h" d="M57.23,121c-2,4.62-2.16,12.77-.1,17.31,2,4.32,5.72,8.11,9.16,10.82,7.59,6,17.07,8.7,26.17,9.23,13.35.77,27.24.68,38.14-9,5.43-4.86,10-9.85,11-18.05,2.54-21.52-15.15-26.37-30.24-29.48-14.21-2.93-36-5-46.72,8.75C62.31,113.46,58.81,117.37,57.23,121Z"/><path class="e" d="M160.56,93.75c.66.56,2.16,1.28,2.85,1.83.67-13.7-10.91-23.54-19.07-32.13C131.73,50.16,114,47.83,96.25,50.52c-17.9-.13-35.17,4.74-45.74,19.69-6.84,9.68-16.89,21.08-14.26,34.54.6-.65,2-1.58,2.55-2.22-2.1,3.78-3.63,9.59-2.43,14.1,1.53-1,3.77-1.43,5.34-2.61A25.56,25.56,0,0,0,39,123.25c3.69,1.56,7.69-.67,10.58-3a17,17,0,0,0-1.15,9.59c20.26-6.36,33.47,23.17,54.74,18.4l.14,0h.13C125.17,149.9,134,118.78,155,122.17a17,17,0,0,0-2.5-9.33c3.19,1.88,7.47,3.51,10.89,1.44a25.74,25.74,0,0,0-4-8.74c1.72.94,4,1,5.66,1.81C165.53,102.72,163.19,97.18,160.56,93.75Z"/><path class="e" d="M145.74,47.2c-10.43-18.85-31-25.39-51.4-23.14-20.47.7-39.94,10.13-47.54,30.28-7.78,20.59.67,43.72,11.76,61.37,5.27,8.38,13.33,23.12,22.49,27.88,5.91,3.09,14.11,3.28,22.07,2.14,8,0,16.12-1.38,21.53-5.28,8.37-6,14.24-21.78,18.25-30.82C151.35,90.57,156.39,66.46,145.74,47.2Z"/><path class="f" d="M125,100.24C116.61,97.44,108.74,93,99.38,94c-9.4.39-16.55,5.93-24.45,9.9-8.16,4.1-15.85,1.62-23.77.19,3.32,19,12.41,27.58,17.13,30.75,3.27,2.2,6.64,2.13,10.32,3,7.64,1.85,15.85,4.09,24,5v.1l.27-.08.27,0v-.1c8-2.07,15.76-5.46,23.06-8.39,3.52-1.41,6.86-1.82,9.78-4.46,4.21-3.82,12-13.59,12.54-32.9C140.92,99.57,133.66,103.13,125,100.24Z"/><path class="g" d="M111.93,88.94c-5.54-7.24-5.52-17.47-6.15-26.31-.39-5.35-.37-11.89-.32-19.55-2.67.55-6.9,4.83-9.23,4.89h-.18l-.14,0c-2.33.28-7.13-3.35-9.84-3.51.72,5.63,2.1,14,2.49,19.39.64,8.84,2.12,19-2.32,26.93-6.48,11.59-20.19,26.33-17,40.76,2.93,13.19,20.85,17.56,32.34,18s32-9.65,33-22.69C135.69,112.1,120,99.49,111.93,88.94Z"/><path d="M85.05,116.4c-1-12.33,26.44-14.07,30.94-4.31C123.06,127.46,86.21,131,85.05,116.4Z"/><path class="e" d="M47.08,68.86c2.63-1.46,5.2-3,7.61-4.51a79.66,79.66,0,0,0,9.79-6.86,86.56,86.56,0,0,0,8.9-8.11c4.86-5.46,8.23-10.12,3.83-16.78A33.88,33.88,0,0,0,63.92,21.23c-10.16-5.06-23.28-6.18-33.41-.42-8.74,5-20.6,8.6-26.76,16.82-11,14.74,21.23,40.58,35.5,35A66.48,66.48,0,0,0,47.08,68.86Z"/><path class="i" d="M55,47.35c4.82-5.78,15.65-7.88,5.06-14.14-6.26-3.7-15-6-21.6-1.83-3.88,2.45-7.25,5.5-11.18,7.82S18.69,42.63,15,45c.14,4.76,8.67,12.67,12.34,15.85,4.21,3.66,13.28,5.9,18.12,1.65,1.51-1.33,2.86-6.19,4.25-8.23C51.31,51.93,53.11,49.64,55,47.35Z"/><path d="M130.88,69.93l-11.2,4.44a21.3,21.3,0,0,0-.05,3.76c.48,6.64,3.81,11.82,7.44,11.56s6.19-5.86,5.71-12.51A19.34,19.34,0,0,0,130.88,69.93Z"/><path d="M63.92,82.15c.48,6.64,3.81,11.82,7.45,11.56s6.18-5.87,5.7-12.51a21,21,0,0,0-.58-3.67L65.15,73.71A18.26,18.26,0,0,0,63.92,82.15Z"/><path class="e" d="M159.61,54.94c-4.85,1.82-9.76,3.92-14.92,4.24-5.56.34-8.55-2.78-13.44-4.64-7.17-2.73-17-5-16.66-14.64.51-13.6,19.44-26.28,31-29.95,7.6-2.43,14.64-3.62,22.18-7,6.84-3,13.6-5.27,19,1.24,9,10.78.54,29.08-7.12,38.32-4.79,5.78-9.66,8.89-17,11.31C161.66,54.18,160.64,54.55,159.61,54.94Z"/><path class="i" d="M141,42.29c-1.12-.47-2.26-.89-3.41-1.25-2.49-.77-7.36-1-8.56-4.45-1.94-5.56,8.23-12.06,11.83-13.42,6.48-2.45,13.73-1.92,20.33-3.56,4.79-1.2,12.87-7.92,16.46-.89,3.75,7.34-2.2,15.69-6.26,20.08-4.31,4.67-9.07,12.64-16.51,11.49-2.54-.4-3.72-2.53-6.09-3.95A62.06,62.06,0,0,0,141,42.29Z"/><path d="M95,143.6l-.51,0c-6.3-.29-10-1.69-11.46-4.27-1-1.83-.75-4.05.73-6.59a1.58,1.58,0,0,1,2.74,1.59c-.89,1.52-1.12,2.7-.69,3.49s2.23,2.32,8.82,2.62c2.44.13,6-.92,6.86-2.37,1-1.78.78-4.21.47-6.35l-.24-1.62a71.37,71.37,0,0,1-1-8.63,1.58,1.58,0,0,1,1.54-1.62h0a1.58,1.58,0,0,1,1.58,1.54,71.3,71.3,0,0,0,.91,8.24l.25,1.64c.39,2.66.67,5.73-.86,8.38C102.64,142.43,98.07,143.6,95,143.6Z"/><path d="M104.73,140.73a8.46,8.46,0,0,1-2.16-.29,1.59,1.59,0,0,1,.83-3.06c2.39.65,3.93-.39,6.7-2.45a22.57,22.57,0,0,1,8.11-4.33,1.58,1.58,0,1,1,.8,3.06,19.68,19.68,0,0,0-7,3.81C109.82,139.08,107.6,140.73,104.73,140.73Z"/><path class="g" d="M100.36,109.1c.91,1.74-1,4.55-4.36,6.27s-6.74,1.69-7.65-.05,1.05-4.56,4.37-6.28S99.46,107.35,100.36,109.1Z"/><path class="g" d="M70.7,81.11c-.29,2.48-1.83,4.34-3.44,4.15s-2.69-2.34-2.41-4.82,1.83-4.34,3.44-4.15S71,78.63,70.7,81.11Z"/><path class="g" d="M126.4,78.56c-.28,2.42-1.74,4.24-3.27,4.07s-2.53-2.28-2.25-4.71,1.74-4.23,3.26-4.06S126.68,76.14,126.4,78.56Z"/></svg>