<svg xmlns="http://www.w3.org/2000/svg" width="188.66" height="226.03" viewBox="0 0 188.66 226.03"><defs><style>.a{fill:#afafaf;}.b{fill:#231f20;opacity:0.3;}.c{fill:#fff;}.d{fill:#f15a29;}.e{fill:#b7375c;}.f{fill:#0b0808;}</style></defs><path class="a" d="M188.66,100.62a27.55,27.55,0,0,1-8.53-1.52,66.05,66.05,0,0,1,5.6,10.37C169.31,104.12,151.55,102,136.79,93a30.65,30.65,0,0,1-9.56-8.4C119.82,74,125.71,51,141.53,53.43,155,55.53,169,67.88,177,78.23A69.69,69.69,0,0,1,188.66,100.62Z"/><path class="a" d="M0,100.62A27.43,27.43,0,0,0,8.52,99.1a66.83,66.83,0,0,0-5.59,10.37C19.35,104.12,37.11,102,51.87,93a30.87,30.87,0,0,0,9.56-8.4C68.83,74,62.94,51,47.13,53.43c-13.5,2.1-27.46,14.45-35.48,24.8A69.69,69.69,0,0,0,0,100.62Z"/><path class="b" d="M162.91,204.06c0,12.14-32,22-71.44,22S20,216.2,20,204.06s32-22,71.45-22S162.91,191.92,162.91,204.06Z"/><path class="a" d="M71.72,178.13c.19-4-.26-10.26-2.29-13.86-1.87-3.33-7.7-6.55-10.72-8.85-2.68-2-5.9-3.66-9.18-3.24-3,.39-6.22.28-9,1.42-5.32,2.14-9.22,7.33-10.93,13.07s-1.43,12-.22,17.86c1.31,6.34,3.56,13.44.23,18.89.89-1.22,5.79-2.38,7.19-2.78-.15,1.43-1.28,2.33-2,3.52a15.9,15.9,0,0,0,10.57-3.26q-1,2.11-2,4.24c-.19.4,9.53-.64,10.47-1,3.7-1.36,6.29-3.88,9.38-6.19C69.41,193.27,71.37,185.8,71.72,178.13Z"/><path class="a" d="M109.9,178.13c-.19-4,.26-10.26,2.28-13.86,1.88-3.33,7.7-6.55,10.73-8.85,2.68-2,5.9-3.66,9.18-3.24,3,.39,6.22.28,9,1.42,5.32,2.14,9.22,7.33,10.93,13.07s1.43,12,.22,17.86c-1.31,6.34-3.56,13.44-.23,18.89-.89-1.22-5.79-2.38-7.2-2.78.16,1.43,1.28,2.33,2.05,3.52a15.9,15.9,0,0,1-10.57-3.26q1,2.11,2,4.24c.19.4-9.53-.64-10.47-1-3.7-1.36-6.29-3.88-9.38-6.19C112.21,193.27,110.25,185.8,109.9,178.13Z"/><path class="c" d="M123.5,110.81c-8.58-15.14-32.78-15.16-46.06-11.5-10.59,2.91-15.56,4.5-21.44,16-3.4,6.66-7.4,16.09-5.35,23.4,1.1,3.9,1.36,6.83,2.6,10.66,1,3.19.6,4.82.94,7.94,1,9.54,7.64,20.17,13.18,27,4.47,5.5,9.3,10.56,16.24,12.68a30,30,0,0,0,12.93,1.39c7-1,13.17-6.89,16.89-12.66,3.09-4.79,6.08-9.5,8.84-14.5C131.26,154.93,134.09,129.52,123.5,110.81Z"/><path class="a" d="M120,175.64c-.08-.35-.15-.7-.24-1-1-3.82-2.9-7.74-6.39-9.6-9.19-4.92-20.85,4.18-30.79.51-2.61-1-4.92-2.68-7.62-3.34-6.19-1.51-12.21,3-14.46,8.57a27.37,27.37,0,0,0-1.41,4.76,79.88,79.88,0,0,0,7.38,10.82c4.47,5.5,9.3,10.56,16.24,12.68a30,30,0,0,0,12.93,1.39c7-1,13.17-6.89,16.89-12.67C115.16,183.72,117.67,179.75,120,175.64Z"/><path class="c" d="M124.39,116.1c-5.87-3.06-15.87,10.16-18,14.26-3.1,5.94-4.72,12.52-6.09,19.08-4.1,19.5-4.9,38.74-6.32,58.53a1.57,1.57,0,0,0,.28,1.26,1.12,1.12,0,0,0,1.08.06l8.36-2.44-1.17,4.58a16.24,16.24,0,0,0,10.19-4.89,13.7,13.7,0,0,0-.39,4.73,11.93,11.93,0,0,0,6.6-3.81,7.57,7.57,0,0,0,.77,4.2,21,21,0,0,0,5.88-6.3L127,211a132.26,132.26,0,0,0,3.78-17.12,18.86,18.86,0,0,1,.78-2.49c4.38-14.74,6-30.61,3.73-45.86A82.15,82.15,0,0,0,131.82,131c-1.41-4.13-3.2-10.45-6.08-13.78A4.66,4.66,0,0,0,124.39,116.1Z"/><path class="c" d="M82.18,179.26a58.21,58.21,0,0,0,5.17-8.49,53,53,0,0,1,3.06,9.58l5.06-9.94a50.14,50.14,0,0,0,4.69,8.93c.22.34.48.7.84.76.54.09,1-.55,1.26-1.12,2.09-3.95,4.27-8.3,3.93-13a11.15,11.15,0,0,0-4.45-8.37,12.49,12.49,0,0,0-6.12-1.73,45.1,45.1,0,0,0-12.37.73c-4.78,1-9.79,3-12.71,7.74-2.12,3.48-2.76,9.87,1.18,11.88,3.57,1.83,6.6-2.42,8.61-5.37C81.12,173.55,81.59,176.47,82.18,179.26Z"/><path class="c" d="M56.85,116.1c5.87-3.06,15.87,10.16,18,14.26,3.1,5.94,4.72,12.52,6.09,19.08,4.1,19.5,4.9,38.74,6.32,58.53a1.57,1.57,0,0,1-.28,1.26,1.12,1.12,0,0,1-1.08.06l-8.36-2.44,1.17,4.58a16.24,16.24,0,0,1-10.19-4.89,13.7,13.7,0,0,1,.39,4.73,11.93,11.93,0,0,1-6.6-3.81,7.57,7.57,0,0,1-.77,4.2,21,21,0,0,1-5.88-6.3L54.2,211a132.26,132.26,0,0,1-3.78-17.12,18.86,18.86,0,0,0-.78-2.49c-4.38-14.74-6-30.61-3.73-45.86A82.15,82.15,0,0,1,49.42,131c1.41-4.13,3.2-10.45,6.08-13.78A4.66,4.66,0,0,1,56.85,116.1Z"/><path class="d" d="M50.71,99.24c-2.05,4.92-2.18,13.57-.1,18.4,2,4.59,5.75,8.61,9.21,11.49,7.65,6.37,17.19,9.25,26.36,9.81,13.45.82,27.43.73,38.4-9.6,5.47-5.16,10.08-10.47,11-19.18,2.55-22.86-15.26-28-30.45-31.33-14.31-3.11-36.28-5.34-47,9.3C55.82,91.28,52.29,95.44,50.71,99.24Z"/><path class="c" d="M144.39,42.72a23.44,23.44,0,0,0-3.62-8.9c-5.72-8.3-12.5-16.31-22.41-21.11C109,8.18,97,8,86.32,8.94c-6.56.57-12.94,1.44-18.33,4.48A97.08,97.08,0,0,0,51.71,24.35c-15,13.06-14.85,31.53-12.23,49.24,2.39,16.2,9.78,34.4,28.63,43.2A48.66,48.66,0,0,0,91.89,122a48.66,48.66,0,0,0,23.78-5.19c16.68-7.78,24.5-23.17,27.65-37.72a99.17,99.17,0,0,0,2-23.86A75.83,75.83,0,0,0,144.39,42.72Z"/><path class="c" d="M173.7,35.77c-1.1-7.05-21.31-17.49-32.26-20.16-20-4.88-54.95,6.72-34.6,29.65a19.64,19.64,0,0,0,4.68,3.87c0,1,0,2,.09,3.11.88,12.32,13,17.31,22.2,22.45,15.78,8.83,19.94,18.25,29.24,33.33,4.55-7.9,5.1-16.45,1.47-26.45a29.6,29.6,0,0,1,10.32,10.28c.89-8.4.71-17-4.17-24.78,1.28,0,6.54,4.52,9.8,10.56,3.52-6.31-4.39-22.39-11.91-31.92a33.22,33.22,0,0,1,9,2.87C173.45,42,168.4,35.76,160.2,32,161.15,31.44,167.76,32.65,173.7,35.77Z"/><path class="c" d="M9.71,38c.52-7.13,19.81-19.24,30.49-22.83,19.49-6.55,55.32,2,36.91,26.62A19.81,19.81,0,0,1,72.77,46c.09,1,.15,2,.16,3.1.13,12.35-11.54,18.35-20.29,24.26-15,10.13-18.37,19.88-26.4,35.7-5.18-7.5-6.44-16-3.64-26.24A29.71,29.71,0,0,0,13.16,94c-1.57-8.3-2.09-16.84,2.13-25C14,69,9.14,74,6.39,80.27c-4-6,2.54-22.68,9.26-32.81a33.54,33.54,0,0,0-8.78,3.62c3.6-6.9,8.13-13.55,16-18C21.86,32.61,15.37,34.37,9.71,38Z"/><path d="M109,7.14c0,5.15-7.93,11.91-17.72,11.91S73.58,12.29,73.58,7.14,81.52,0,91.3,0,109,2,109,7.14Z"/><path class="c" d="M91.78,3.43c.52,1.75-2.34,4.13-6.38,5.32s-7.74.74-8.25-1,2.34-4.14,6.38-5.33S91.27,1.68,91.78,3.43Z"/><path class="e" d="M110.87,26.56c-3.58,1.26-6.74,4-10.31,5.24A8.31,8.31,0,0,1,92.88,31v-.24l-.18.12-.18-.12V31a8.31,8.31,0,0,1-7.68.85c-3.57-1.27-6.73-4-10.3-5.24a154,154,0,0,0-.12,24.11c.34,4.56,1,9.41,3.55,12.72a18.35,18.35,0,0,0,14.71,6.8c5,0,10.94-1.85,14.76-6.8,2.54-3.31,3.2-8.16,3.54-12.72A154,154,0,0,0,110.87,26.56Z"/><path class="f" d="M92.56,31.21a1.82,1.82,0,0,0,1.78-1.86V13a1.79,1.79,0,1,0-3.57,0V29.35A1.82,1.82,0,0,0,92.56,31.21Z"/><path class="f" d="M71.49,21.46a1.6,1.6,0,0,1,2.45.78c1.43,3,6.42,6.3,9,6.92,3.68.9,6.5-.27,9.52-2.35v-.18l.14.09a1,1,0,0,1,.13-.09v.18c3,2.08,5.84,3.25,9.52,2.35,2.54-.62,7.53-3.88,9-6.92a1.59,1.59,0,0,1,2.45-.78,2.64,2.64,0,0,1,.62,3.1c-2.22,4.7-8.47,8.33-11.35,9a13,13,0,0,1-3.16.4,13.71,13.71,0,0,1-7.17-2.22A13.77,13.77,0,0,1,85.38,34a12.91,12.91,0,0,1-3.16-.4c-2.88-.71-9.13-4.34-11.35-9A2.63,2.63,0,0,1,71.49,21.46Z"/></svg>