<svg xmlns="http://www.w3.org/2000/svg" width="246.81" height="246.95" viewBox="0 0 246.81 246.95"><defs><style>.a{fill:#4c4a46;}.b{fill:#a35b24;}.c{fill:#d38d54;}.d{fill:#ffe5c5;}.e{fill:#ce1d2e;}.f{fill:#fff;}.g{fill:#a00a2b;}.h{fill:#0b0808;opacity:0.25;}</style></defs><path class="a" d="M217.81,118.3c-4.16,3.51-17.53,14-22.59,5.68-3.75-6.19,5.87-14.7,10.41-17.56,8.59-5.39,16-13.73,23.8-20.18-.26,4.4-1.74,7.33-3.91,11.3a12.67,12.67,0,0,0,5.67-2.73C231.1,104.57,225.48,111.82,217.81,118.3Z"/><path class="b" d="M59.36,166c4.77-4.41,11.54-12.58,18.2-12.85,5.28-.22,14,.76,17.65,4.59s5.51,14.5,2,18.43c-2.56,2.86-11.52,5.23-14.65,7.46a17.6,17.6,0,0,0-6.28,9.47c-1,3.44-3.53,16.29-1.9,18.2-3.48-2.76-6.67-6-8-10.05a35,35,0,0,0,.12,8.56,28.25,28.25,0,0,1-6.09-10,37.74,37.74,0,0,0-.79,8.59C57,205.07,54.08,201.74,52,198a18.87,18.87,0,0,0-1.17,6.12c-1.34-2-2.47-4.3-2.61-9.85a39.45,39.45,0,0,1,1-10.57A36.08,36.08,0,0,1,59.36,166Z"/><path class="b" d="M202.36,193.53a6.59,6.59,0,0,0,2.53.13c-.78-2.4-2.63-4.4-4.26-6.42,1.4,1.73,5.46,2.37,6.83.72a17.13,17.13,0,0,1-7.74-11.06c-1.16-4.78-1.13-9.77-2.26-14.55a43.66,43.66,0,0,0-7.26-15c-4.73-6.65-10.64-12.5-17.65-16-5.33-2.65-15.49-5.66-20.7-1.86-1.84,1.34-3.35,4.24-4.78,6.07a27.54,27.54,0,0,0-5.09,9.6c-1.84,6.54-.88,14.33,3.4,19.68a25.11,25.11,0,0,0,6.42,5.45,24.05,24.05,0,0,0,7.88,3.39c4.47.89,9.39-.1,13.29,2.54s5,7.57,7,11.55c2.5,5,4.51,10.16,7.94,14.57,0-2.21-.76-4.58-.81-6.9,0,1.07,5.5,4.52,6.5,5.09.61-2.34-.15-4.27-1.65-6.21a12.68,12.68,0,0,0,9.14,1.74c-1.4-1.15-2.12-2.58-3.38-4C199.11,192.41,200.74,193.17,202.36,193.53Z"/><path class="b" d="M206.32,114.66c9.79,7.19,14.22,20.29,9.63,33.8-4.1,12.07-21,36.75-33.93,25,1.3,1.18,1.4,2.5,2.13,3.71-4.08.62-10.93-.67-14.58-3.5-.23-.26-.21-.27,0,0a9.75,9.75,0,0,1,1.34,5.08c-3.71-.6-7.55-2.42-11-3.94l2.24,5.35a62.53,62.53,0,0,1-15.07-3.41l2.3,5.9-9.51-3.27c.22,1.68.44,3.36.65,5,0,.27-12.62-1-13.76-1.2a68.07,68.07,0,0,1-14.37-4.51c-4-1.74-5.8-2.59-8.18-6.74S99.7,163.16,97.14,159c-10-16.4-5-39.28,7.8-51.56,5.62-5.41,12.68-10,19.85-11.53,6.12-1.31,9.55,2.59,14.89,4.2s10.65-.86,16.11-1.75c-1.44,2.69-3.24,5.46-4.65,8,6,.58,11.41-2.73,17.41-2.68-1.15,1.37-2,3.64-3.06,4.94,6.2-.49,12.62-2.41,18.72-3.46-1,.83-2.33,2.93-3.44,3.67C189.62,112.19,197.86,108.45,206.32,114.66Z"/><path class="c" d="M241.05,196a7.75,7.75,0,0,0,2.9.19c-.93-2.72-3.08-5-5-7.3,1.64,2,6.31,2.75,7.85.91a20,20,0,0,1-9.06-12.58c-1.4-5.41-1.45-11-2.82-16.45a50.24,50.24,0,0,0-8.58-17c-5.53-7.56-12.42-14.25-20.53-18.28-6.16-3.06-17.88-6.6-23.82-2.39-2.09,1.48-3.78,4.74-5.39,6.78a30.07,30.07,0,0,0-5.7,10.75c-2,7.35-.79,16.14,4.21,22.24a29.7,29.7,0,0,0,7.47,6.23,28.85,28.85,0,0,0,9.1,3.94c5.15,1.07,10.79,0,15.32,3.05s5.86,8.6,8.21,13.12c2.94,5.67,5.34,11.52,9.34,16.55,0-2.49-.94-5.18-1-7.8,0,1.2,6.39,5.18,7.55,5.83.67-2.62-.24-4.82-2-7a15.06,15.06,0,0,0,10.53,2.09c-1.63-1.32-2.47-2.94-3.94-4.59C237.29,194.69,239.18,195.56,241.05,196Z"/><path class="c" d="M90.61,178.33c3-6.12,10.22-8.63,16.68-10.68,3.52-1.11,8.84-3.7,10.11-7.64,1.87-5.79-3.24-10.75-.42-17.07.14-.3.3-.58.45-.86a13.51,13.51,0,0,1,.74-1.29c2.28-3.69,6-6.9,10.17-7.54,6.76-1,14,2.83,16.07,9.42a31.56,31.56,0,0,1,1.33,7A60.11,60.11,0,0,1,144.28,165a1.42,1.42,0,0,1-.05.22c-1.56,6.71-5.07,12.39-12.36,14.92-5.6,1.94-20,2-19.05,11a9,9,0,0,0,1.24,3.28c1.5,2.87,2.72,5.15.46,8.26a13.19,13.19,0,0,1-6,4.2,16.35,16.35,0,0,1-7.64,1.25c-7-.78-8.64-7.74-10.14-13.18S88.09,183.39,90.61,178.33Z"/><path class="d" d="M131.6,126.91c-3.21,8.1-3.53,18.82,4.83,22.6,3.52,1.59,7.08,3,10.61,4.67,4.15,2,8.4,1.15,12.55,2.72,3.18,1.2,5.54,4.58,8.67,6-.07-2.88-.42-5.87-.51-8.74a40.12,40.12,0,0,0,13.7,6.53c.12-2.68-.81-5.37-1.39-7.68,4.55,1,10.68,4.49,15,4.36-.45-2.07-1.31-4.08-1.75-6.08,3.14,2.71,9.23,4.42,13.08,4.53-.81-2.72-2.55-5.4-3-8.46,3.76,2.9,9.87,4.44,14.3,5.54a33.06,33.06,0,0,0-2.58-7.21c2.18,2.64,12.88,4.25,16,4.87-.75-20.32-15.26-29.65-34.18-35.32-12.66-3.78-26.12-3.7-39-3.34C145.74,112.25,137.13,113,131.6,126.91Z"/><path class="d" d="M134.4,110.8a13.63,13.63,0,0,0-6.61,3c-1.69,1.39-2.26,3.32-3.78,4.78-3,2.87-7.75,2.19-11.32,3.37-5.86,1.94-10.63,3.26-15.6,7.46-4.71,4-5.42,7.1-6.46,12.92-.86,4.83-2.34,9.14-2.51,13.92-.09,2.38.34,4.57.33,7,0,2.06-1.16,4.8-.46,6.65,1.51-2.2,4.11-3.38,5.55-5.64.67,2.85,1.82,8,3.69,9.9.83-2.47,1.39-5.39,2.57-7.63a14.35,14.35,0,0,0,3.14,4.6,40.26,40.26,0,0,0,4.12,2.5,17.86,17.86,0,0,1,.89-8.06,26.64,26.64,0,0,0,11,7.57,38.39,38.39,0,0,0-1.62-8.21c2.92,3.42,10,4.3,13.86,6.08a33.76,33.76,0,0,0-1.07-8.16c4.18,2.08,10,2.3,13.68,4.94-.25-2.43-1.73-4.45-2.93-6.51-.18-.18-.19-.18,0,0,3.48,2.06,7.52,4.58,11.42,4.68-.45-1.47-.84-3-2.08-3.93,2.09,3.31,6.38,3.63,9.75,4.33.78-15.17,3.09-39.28-7.87-50.86C146.55,109.62,141.66,109.65,134.4,110.8Z"/><path class="a" d="M225.84,130c-1.52-7.24-9.28-13.93-17.81-17.92-9.34-4.36-17.31-3.6-27.26-3.26,1.11-.74,2.42-2.84,3.44-3.67-6.1,1-12.52,3-18.72,3.46,1.07-1.3,1.91-3.57,3.06-4.94-6,0-11.44,3.26-17.41,2.68,1.41-2.57,3.21-5.34,4.65-8-5.46.89-10.7,3.38-16.11,1.75-4.07-1.22-7-3.78-10.92-4.34a16.51,16.51,0,0,0,1.29,19c1.58,2.06,18.74,12.13,17.94,14.36.7-1.95.24-4.06.19-6.26,4.23,2.55,9,3.94,13.24,6.18-.66-2-1.29-3.75-2.12-5.66,4.09,2.87,9.77,5.6,14.53,6.16a29.2,29.2,0,0,0-.78-6.05c3.85,2.74,11.52,4,15.91,4.18-.24-1.42.13-3.24-.19-4.62,4.26,2.09,13.39,4.53,17.26,7.58.13-2-.48-6.62-1.54-8.22,2.7,2.44,6.16,3,9.32,4.4C216.19,127.91,223.65,129.24,225.84,130Z"/><path class="e" d="M134.26,86.48c11.18,8.74,9.22,29.92-4.37,47.31S96.21,158.21,85,149.48s-9.21-29.91,4.38-47.3S123.09,77.75,134.26,86.48Z"/><path class="b" d="M23.67,78.09c6.61,7.47,17.59,13.34,26.54,14.77,11.72,1.88,21.37-3.54,24.33-15.27,5-19.94-8-37.82-25.5-46.08C44.32,29.3,39.26,28,34.48,26.12c-3.8-1.46-7-3.95-10.67-5.62.13,2.43,1.68,4.84,2.37,7.2a54.85,54.85,0,0,1-5.69-3.92c-.58,5.16-4,10-4.78,15.44-.85,5.74-.25,12,.15,17.89s1.48,11.08,4.25,16A27.88,27.88,0,0,0,23.67,78.09Z"/><path class="c" d="M33.19,161.49a56.09,56.09,0,0,0,18.74,5.72,60.32,60.32,0,0,0,56.4-26.67c.08,2.82-.46,5.85,0,8.62,5.45-5.95,7.68-15.93,12.9-21.13.28,1.73,1.32,3.5,1.44,5.31-.31-4.71,5.18-13.24,6.08-18.39,1.58,2.92,2.24,6.68,3.05,10a107.84,107.84,0,0,0,2.48-18.73c.86,1.37,2.35,2.41,3.05,4,.87-7.09-1.05-13.87-.85-21.19,1,.89,2.83,1.31,3.73,2-2-12.63-8.63-24.22-14.36-35.34-8-15.46-18.42-10.41-32-10.9,2.68-3.1,1.35-6,4.06-9-6.22,2.36-14.75,6.21-19.38,11a13.14,13.14,0,0,0-10-7.88C69,42,70,45.13,70.6,48.19,60,52.42,43,57,38.61,69c1.63-.16,7.21-.93,8.22-2.44-2.32,3.48-5.19,5.64-7.26,9.74S37,85.07,35.29,89.15c-2.32,5.5-6,12.88-9.74,17.28,1.59-.75,3.62-.7,5.19-1.27-2.37,7.5-5.6,13.32-9.76,19.79-7,10.86-12.43,17.23-1.65,27.12A60.5,60.5,0,0,0,33.19,161.49Z"/><path d="M79.68,99.28c1.39,5.36-1.21,10.67-5.79,11.86s-9.44-2.19-10.83-7.55,1.2-10.68,5.79-11.87S78.29,93.91,79.68,99.28Z"/><path class="f" d="M70.56,100.11c1.58,2.18,4.09,3.06,5.6,2s1.45-3.75-.13-5.93-4.08-3.06-5.59-2S69,97.94,70.56,100.11Z"/><path d="M44.85,105.3c1,4.33-.61,8.46-3.56,9.22s-6.11-2.12-7.09-6.45.61-8.45,3.56-9.22S43.88,101,44.85,105.3Z"/><path class="f" d="M38.43,105.24c1.22,1.68,3.06,2.42,4.12,1.65s.93-2.75-.28-4.42-3.06-2.42-4.12-1.65S37.22,103.57,38.43,105.24Z"/><path class="c" d="M95.2,127.09c-9.49-12-31.7-10.13-48.67-6.12v0l-.31.09-.32.08h0c-16.78,4.75-37.09,13.93-39.56,29-.83,5.06,5.12,11.68,8.65,15.32,3.32,3.42,7.83,5.7,12.15,7.57,1.51.65,10.18,2.49,10.73,3.66-.66-1.41-.53-3.25-1.12-4.6,3.58,1.89,7.43,4.53,11.72,3.3-.54-1.14-.34-2.8-1-4a44.73,44.73,0,0,0,10.59,2.94,16.21,16.21,0,0,0,1.1-3.28,17.51,17.51,0,0,0,2.56,2.33,45.06,45.06,0,0,0,7.83-7.72c0,1.33,1,2.69,1.07,3.94,4.35-1,6.43-5.19,8.64-8.58.14,1.47,1.15,3,1.26,4.57-.1-1.29,6.59-7.12,7.6-8.42,2.87-3.74,5.69-7.93,6.93-12.53C96.39,139.8,98.38,131.12,95.2,127.09Z"/><path d="M55.33,149a7.61,7.61,0,0,1,2.1,4.14c.54,3.37-3.06,6.78-5.58,8.26a16.72,16.72,0,0,1-12.45,1.67c-3.35-.92-8.47-3.73-9.59-7.23C26.68,146.09,48.4,141.87,55.33,149Z"/><path class="g" d="M33.52,157.21c1.59,2.71,6.21,4.38,10.23,4a11.63,11.63,0,0,0,6.64-2.68c1.75-1.49,4.12-3.68,4.31-6.1-3,1.22-6.32,1.92-9.41,1a15.71,15.71,0,0,0-5.81-.74c-1.44.23-1.12.84-2.24,1.83A39.67,39.67,0,0,1,33.52,157.21Z"/><path class="d" d="M7.47,138.73q.48-.64,1-1.26c6.63-8.08,15.28-15.56,26-15.59,3.68,0,12.86,2.82,11.39,8.54-1.13,4.47-7.84,2.94-10.53,5.52-3.51,3.37-3.64,12.94-3.4,18.09.22,4.81.68,12.09,2.6,16.67a35.66,35.66,0,0,1-6.62-9.49,40.18,40.18,0,0,0,.78,9.52c-3.42-2.46-7.16-8.19-11.11-9.31.55,3,.65,6.1.9,9.11A20.29,20.29,0,0,1,11.08,161a50.62,50.62,0,0,0-.45,11.43c-2-3.31-2.7-7.28-5-10.73-1.76,2.13-3.11,5.17-4.88,7.13A38.37,38.37,0,0,1,7.47,138.73Z"/><path class="d" d="M56,148c2.88-.87,6.52.49,9.57.38-6.86-3.74-11.31-14.68-19.6-15.66a33.42,33.42,0,0,0-14.44,1.87A33.44,33.44,0,0,0,18,140c-6.77,4.88-5.35,16.6-9.53,23.21,2.72-1.39,5.25-4.35,8.18-5-.23,1.12,0,2.47-.23,3.68,2.86-.94,4.54-4.29,7.26-5.55a14.34,14.34,0,0,1,.45,4.41c2.66-1.89,3.77-5.59,6.85-7.13.06,1,.85,2.06.91,3,1.09-.66,2.89-2.86,4.42-3.6,1.69-.09,4.33,1,5.6,1-.41-.87-.25-2.21-.67-3.07,3.44-.16,6.21,2.54,9.46,2.9a14.56,14.56,0,0,1-1.76-4.08c3-.22,6.09,1.89,9,1.32C57.19,150.15,56.71,148.87,56,148Z"/><path class="d" d="M34.89,98a10.41,10.41,0,0,1,4.73-1.87c2.24-.29,11.67.46,13.11,3.28a47.6,47.6,0,0,0-5.33-8,6.87,6.87,0,0,1,4.77,1.8c-1.33-2.15-2.94-4.73-4.29-7.07,2-.33,4,1,5.91,1.75-.58-.23-2.34-4.54-2.87-5.39C44.36,72.06,35,67.77,26.69,74a27.3,27.3,0,0,0-8.32,10.09c-4.25,9.19-3.74,25.73-2.76,37.13.26,3,.6,5.93.95,8.81.38-5.71,1.55-12.61,3.73-17.25.19,4.92.63,10.39,2.32,14.9-.88-2.36,1.15-9.32,1.72-11.45a45.14,45.14,0,0,1,4.1-9.81C30.27,102.88,32.29,99.89,34.89,98Z"/><path class="c" d="M79.18,37.42c-.87,2.45-.92,11.82-4,13.07C72.48,51.62,72.3,47.75,72.4,46c.3-5.63-.85-9.26-3.85-14.47-2.32-4.05-6.38-9.43-11.22-11.22C62.42,23,68,24.1,71.76,28.66c.45-2.78-.91-7-1.8-9,2.65,2.68,5.23,5.78,6.29,9.35,1.52-5.77,9.47-7.25,14.59-9.08C86.79,24.68,81.28,31.53,79.18,37.42Z"/><path class="e" d="M55.91,55.17c2.53,5,20.06-4.39,17.59-10.11C72.59,43,59.57,33.67,57.63,34.68,53.79,36.69,54,51.4,55.91,55.17Z"/><path class="e" d="M95.83,51.53c-1.59,5.42-20.52-.69-19.11-6.76C77.24,42.54,88.39,31,90.48,31.69,94.62,33,97,47.48,95.83,51.53Z"/><path class="e" d="M81,45.26c.4,4.41-1.81,8.21-4.94,8.5s-6-3.06-6.38-7.47,1.82-8.22,4.94-8.5S80.57,40.85,81,45.26Z"/><path class="c" d="M142,53.57C138.59,63,130.5,72.44,122.7,77.05c-10.23,6-21.18,4.53-28.21-5.3-11.95-16.73-6.36-38.14,7-52.25,3.58-3.79,7.81-6.88,11.59-10.36,3-2.75,5.1-6.25,7.88-9.14.77,2.31.2,5.12.41,7.57a53.28,53.28,0,0,0,3.88-5.73c2.41,4.59,7.33,7.84,10.07,12.62,2.88,5,4.6,11.1,6.37,16.72s2.65,10.86,1.88,16.5A28.05,28.05,0,0,1,142,53.57Z"/><path class="b" d="M134.24,55.4c-2.17,4.36-5.31,8.4-7.76,12.45a71.28,71.28,0,0,0-5-6.75c.1,2.18.29,4.51.36,6.73-2.59-2.23-5.42-5.5-8.07-8.1-.51,1.94-1,3.91-1.59,5.84-2.62-2.4-5.11-5.31-7.39-7.82-2.33,1.83-2.87,5-5.13,6.6a30.76,30.76,0,0,1-2.26-19.41c2.89-13.55,11.75-21,21.46-30.29.37,2.66.91,5.9.27,8.48,2.08-1.49,3-4.38,4.78-6.2.41,2.44.88,5.31,1.37,7.78.66-1.36,1.15-3.09,1.68-4.37,1.44,4.1,5,6.82,6.39,11.11s3.26,8.81,3.49,13.3A21.24,21.24,0,0,1,134.24,55.4Z"/><path class="d" d="M79.75,89a16.46,16.46,0,0,0-6.43.17c-2.79.63-13.71,5.09-14.22,8.26a41.37,41.37,0,0,1,2.95-9.49,9.11,9.11,0,0,0-4.91,3.56c.67-2.51,1.49-5.54,2.1-8.24-2.56.52-4.35,2.53-6.29,4,.59-.44.84-5.13,1.11-6.12,3.36-12.31,12.66-20,25.23-17.62a35.06,35.06,0,0,1,14.19,6c9,6.79,15.4,22.26,19.08,33.17,1,2.88,1.81,5.71,2.62,8.51-2.89-5.12-7.22-11-11.79-14.43,1.88,4.62,3.67,9.85,3.58,14.68,0-2.53-5.34-8.14-6.91-9.88A47.71,47.71,0,0,0,91,94.12C87.32,91.62,83.64,89.67,79.75,89Z"/><path class="d" d="M74.47,124.94c-.57-.21-1.15-.41-1.74-.59-11.41-3.65-24.59-5.77-35.8-.39-3.84,1.85-11.83,8.92-7.11,13.15,3.67,3.29,9.81-1.42,14-.54,5.55,1.15,11,9.38,13.63,14,2.45,4.28,6,10.82,6.59,15.76a31.08,31.08,0,0,0,1.61-11.56,35.51,35.51,0,0,1,4.49,8.65c2.2-3.87,2.9-10.72,6.4-13.68A86.26,86.26,0,0,0,80.72,158c1.91-3.41-.47-8.49,2.4-12A47.51,47.51,0,0,1,90,155.73c.22-3.87-1.24-7.67-.74-11.83,3,1,6.12,2.91,9,3.71C94.46,136.92,85,128.81,74.47,124.94Z"/><path d="M22.73,131.52c3.43-.62,7-.51,8.45.79,6.59,5.7-5,18-13,12C11,139,15.12,132.9,22.73,131.52Z"/><path class="f" d="M26.58,138.66c2.57.37,4.82-.53,5-2s-1.69-3-4.26-3.36-4.82.54-5,2S24,138.3,26.58,138.66Z"/><path class="c" d="M90.44,178.22a27.32,27.32,0,0,1,13.3-13.57c4.83-2.15,10.57-3,15.38-.74s8.1,8,6.26,13c-1.33,3.6-4.82,5.92-6.91,9.14a17.68,17.68,0,0,0-2.34,11.12c.31,3.58,1.6,6.9,2.18,10.41.34,2.07.55,6,2.77,7.2-3.75-2-8.08-3.57-11.16-6.37a34.38,34.38,0,0,0,3.27,7.91,28.19,28.19,0,0,1-9.35-7,38.55,38.55,0,0,0,2.43,8.28c-3.58-2.2-7.56-4.2-10.89-6.88a18.81,18.81,0,0,0,1.16,6.12c-.55-1.5-2.34-2.5-3.34-3.71a22.3,22.3,0,0,1-2.72-4.49,33.5,33.5,0,0,1-3-10.17A36.09,36.09,0,0,1,90.44,178.22Z"/><path class="h" d="M213.19,236.83c0,5.59-31.92,10.12-75.52,10.12s-78.92-4.53-78.92-10.12,35.33-10.14,78.92-10.14S213.19,231.23,213.19,236.83Z"/></svg>