<svg xmlns="http://www.w3.org/2000/svg" width="192.77" height="298.16" viewBox="0 0 192.77 298.16"><defs><style>.a{fill:#706359;}.b{fill:#231f20;opacity:0.3;}.c{fill:#827e71;}.d{fill:#c6c4b9;}.e{fill:#fffbe6;}.f{fill:#39b54a;}.g{fill:#0b0808;}.h{fill:#fff;}.i{fill:#912f41;}</style></defs><path class="a" d="M147.88,219.62c-8.64,1.63-36,3.67-38.18-8.71-3-17,23.14-.92,28.07-.13a53.1,53.1,0,0,0,27.51-3.45c6.84-3,16.48-8.92,19.57-15.46,5.18-11-9.78-15.5-10.1-7.62-6.93-7.64,11.38-12.44,16.46-2.86,4.95,9.31-2.83,20.61-10.21,26.16C171.34,214.82,159.71,217.38,147.88,219.62Z"/><path class="b" d="M178,274.38c0,13.13-35.87,23.78-80.12,23.78s-80.13-10.65-80.13-23.78S53.61,250.6,97.87,250.6,178,261.24,178,274.38Z"/><path class="c" d="M73,250.65c8-14.47,6.47-46-13-52.3-12.39-4-28.2,3.25-31.47,15.42-3.79,14.09,3.18,22.51,12.18,32.81-7,1.25-12.69,7.07-11.93,14.24,1.47,0,3.13.39,4.59.41-1.66,1.83-1.2,3.83-2.13,5.49C49.71,269.56,63,268.75,73,250.65Z"/><path class="c" d="M122.75,250.65c-8-14.47-6.46-46,13-52.3,12.39-4,28.2,3.25,31.48,15.42,3.79,14.09-3.18,22.51-12.18,32.81,7,1.25,12.69,7.07,11.93,14.24-1.47,0-3.14.39-4.6.41,1.66,1.83,1.21,3.83,2.14,5.49C146,269.56,132.72,268.75,122.75,250.65Z"/><path class="c" d="M136.77,151.87c5.3,17.45,6.42,39.7,7.36,58.3s-.92,42-16.88,53.75c-13,9.65-43.64,9.81-56.81-.58-14.28-11.25-16.58-39.22-18.29-55.57-2.19-21.09.49-35.47,7-54.69,5-14.9,6.21-42.7,18.69-52.53C85,94.88,98.92,91.17,107,97.19s8.26,19.51,13.37,27.56C126.29,134.1,133.26,140.3,136.77,151.87Z"/><path class="d" d="M90,210.75a97.55,97.55,0,0,0,1.4-26.24c-.84-11.43-3.24-23.83-7.51-34.51-6.33-15.83-20.19-12.68-26.75,1.12-5.58,11.72,4.25,22.82.27,34.28L84.2,226.88A55.11,55.11,0,0,0,90,210.75Z"/><path class="d" d="M104.16,218.08c-1.06-21-1.2-40,6.74-61.1,8.29-22.07,24.56-8.75,29,6.12,3.81,12.77,4.26,26.64,4.26,39.79,0,25.51,3.81,50.43,17.66,73.1-.85.36-1.82.39-2.8.88a64.81,64.81,0,0,0,3,10.38A20.66,20.66,0,0,1,150.41,284c.37,1.86-.65,4.41-.37,6.29-6.46.19-11.08-4-16.78-5.17-.11,1.31-.41,2.79-.43,4.09-1.66-1.33-6.28-3.16-8.13-5.21.1,1.94-.71,4.4-.49,6.34C107.57,274,106,252.18,104.82,230.25,104.6,226.1,104.36,222.05,104.16,218.08Z"/><path class="e" d="M140.83,141.18c-6-14.74-24.64-23-41.46-23h-.24c-16.82,0-35.48,8.28-41.46,23-5.81,14.29-5.24,34.8,6,46.79a18.19,18.19,0,0,1,4.4-11.67c2.4,7.37,10.6,21.33,17.66,25.46.25-4.72-.14-9.63.25-14.35,4.71,5.39,5.48,13.41,10.7,19,1-4,1.3-8.87,2.53-13.11,1.23,4.24,1.48,9.07,2.53,13.11,5.22-5.58,6-13.6,10.7-19,.38,4.72,0,9.63.25,14.35,7.06-4.13,15.26-18.09,17.66-25.46a18.24,18.24,0,0,1,4.4,11.67C146.07,176,146.63,155.47,140.83,141.18Z"/><path class="f" d="M142.2,119c-2.34,15.24-24.1,24.78-48.58,21.31s-42.44-18.66-40.09-33.9,24.1-24.79,48.59-21.32S144.55,103.77,142.2,119Z"/><path class="d" d="M111.47,41.53a15.23,15.23,0,0,1-.59-1.56A31.36,31.36,0,0,1,110,28.51c.28-3.64,1.72-6.76,2.8-10.2.8-2.53.56-5.14,1.85-7.51a15.41,15.41,0,0,1,12.44-7.65c10.57-.66,21,7.07,27.82,14.13,10.86,11.24,13.84,22.23,16.15,37.21A294.55,294.55,0,0,1,174,86.62c.43,10.06.58,19.86.41,30-.09,5.25,0,10.47.14,15.7.12,4.36,2,9,1.59,13.15-3.15-2.34-4.81-6.12-8.11-8.44-.65,3.52-.12,8.62-3.29,10.44.79-.45-3.6-8.67-4.07-9.48-1.24,4-1.8,8.46-2.59,12.64-1.52-3.41-2.35-8-3.81-11.91-.48,4.58-.28,11-2.46,14.94-1.45-4.39-3.88-8.93-5.67-12.74-1,5.06-.25,12-3,16.37-3.28-9.14-8.31-17.18-14-25.47-4-5.82-9.27-11.07-12.1-17.6-3.68-8.48.29-11.42,3.3-19.28,4.45-11.63,4-25.15,1.36-37.1C120.16,51.05,114.12,47.54,111.47,41.53Z"/><path class="a" d="M174.41,116.63c.15-9,0-17.7-.29-26.56-1.36,2.76-2.57,4.83-3.22,5-3.83,1-4.83-6.94-5.91-9.1-.5,4.72-1,9.57-1.8,14.2-3.5-3.88-5.65-9.39-8.48-13.5-2.26,3.58-1.82,8.89-2.55,13-3.69-1.3-5-6.79-6.15-10-.24,2.62-.75,5.37-2.4,7.19-4.22-5.94-12-16.93-20-18.75A53.57,53.57,0,0,1,120.32,95c-3,7.86-7,10.8-3.3,19.28,2.83,6.53,8.1,11.78,12.1,17.6,5.71,8.29,10.74,16.33,14,25.47,2.75-4.35,2-11.31,3-16.37,1.79,3.81,4.22,8.35,5.67,12.74,2.18-3.92,2-10.36,2.46-14.94,1.46,4,2.29,8.5,3.81,11.91.79-4.18,1.35-8.67,2.59-12.64.47.81,4.86,9,4.07,9.48,3.17-1.82,2.64-6.92,3.29-10.44,3.3,2.32,5,6.1,8.11,8.44.43-4.11-1.47-8.79-1.59-13.15C174.41,127.1,174.32,121.88,174.41,116.63Z"/><path class="d" d="M112.16,43.19a17.84,17.84,0,0,0,3.2-3c2.14-2.71,2.91-6.52,3.64-9.77,2.28-10.17-1.43-26.94-13.28-29.8-10-2.4-21.43,2.56-29.61,7.82C62.85,17,57.32,27,51.47,41.08A300,300,0,0,0,40.93,71.7c-2.82,9.7-5.32,19.2-7.59,29.11-1.17,5.13-2.51,10.19-3.9,15.24-1.16,4.23-4.13,8.36-4.69,12.45,3.62-1.57,6.14-4.89,9.91-6.41-.21,3.57-1.95,8.41.69,10.88-.65-.61,5.59-7.64,6.24-8.32.26,4.13-.28,8.63-.51,12.87,2.3-3,4.2-7.22,6.57-10.75-.63,4.57-2.38,10.79-1.19,15.09,2.46-4,5.91-7.83,8.57-11.15-.22,5.15-2.64,11.75-1,16.6,5.38-8.17,12.2-14.89,19.75-21.68,5.29-4.78,11.68-8.72,16-14.45,5.62-7.45,2.46-11.18,1.41-19.5-1.54-12.3,2.11-25.36,7.57-36.4,1.07-2.15.25-2,2-3.74a40,40,0,0,1,5.62-4.39C108.09,46,110.26,44.64,112.16,43.19Z"/><path class="a" d="M33.34,100.81C35.35,92,37.55,83.58,40,75c.66,3,1.34,5.27,1.93,5.57,3.49,1.81,6.37-5.68,7.94-7.54-.65,4.7-1.34,9.52-1.66,14.21,4.34-3,7.76-7.88,11.49-11.26,1.34,4-.35,9.07-.64,13.26,3.9-.45,6.46-5.51,8.38-8.36-.4,2.6-.56,5.39.62,7.52,5.52-4.84,15.77-13.8,24-13.81a53.32,53.32,0,0,0-.83,17.06c1,8.32,4.21,12-1.41,19.5-4.31,5.73-10.7,9.67-16,14.45C66.22,132.42,59.4,139.14,54,147.31c-1.63-4.85.79-11.45,1-16.6-2.66,3.32-6.11,7.19-8.57,11.15-1.19-4.3.56-10.52,1.19-15.09-2.37,3.53-4.27,7.77-6.57,10.75.23-4.24.77-8.74.51-12.87-.65.68-6.89,7.71-6.24,8.32-2.64-2.47-.9-7.31-.69-10.88-3.77,1.52-6.29,4.84-9.91,6.41.56-4.09,3.53-8.22,4.69-12.45C30.83,111,32.17,105.94,33.34,100.81Z"/><path class="e" d="M143.72,41.17c-.8-1.27-10.21-10-12.07-7.45,1.6-2.16,3.92-3.58,5.93-5.19-5.42.87-10.2,2.87-15.37,5A43.4,43.4,0,0,1,129.06,25c.12-.08.12-.08,0,0-2.16,1.59-6.48,2.29-9,3.5-2.13,1-6.89,4.41-9.16,3.49-1.8-.72-4.13-5.36-5.62-6.84a21,21,0,0,0-8.5-5.45c1.26,3.54,3.76,6.47,5.09,10C96,27.64,91.53,22,85.3,20.52c2.3,3.13,5.7,6.63,7.08,10.17-22.54-8.1-21.71,30-20.75,42.13.11,1.41,1,24.87,5,35.38,5.1,13.45,10.41,22.44,24.28,22.9l.2,0,.2,0c13.67,2.26,20.78-5.51,28.61-17.69,6.12-9.51,11.92-32.31,12.33-33.67C145.42,69.09,150.21,51.53,143.72,41.17Z"/><path class="d" d="M134.75,103.29c-6.32-6.1-16.19-8.21-20.7-16.58-1.7-3.16-2.69-10.38-7.13-11.26-4.8-1-9.26,6.61-12.13,9.38A31.78,31.78,0,0,1,81,92.93a62.26,62.26,0,0,1-7.5,1.4,69.31,69.31,0,0,0,3.07,13.87c5.1,13.45,10.41,22.44,24.28,22.9h0l.2,0,.2,0h0c13.67,2.26,20.78-5.51,28.61-17.69A60.07,60.07,0,0,0,134.75,103.29Z"/><path class="d" d="M136.19,56.16c12.33,6.55,4.38,23.84-2.79,31.08-11,11.11-20.17-8.41-18.11-18.66C116.8,61.11,127.28,51.42,136.19,56.16Z"/><path class="d" d="M87.09,49c-13.81,2.71-11.59,21.5-7,30.47,7,13.75,21.86-2.25,23.08-12.62C104.06,59.24,97.06,47,87.09,49Z"/><path class="g" d="M111.9,111.08c-.69-2.79-6.33-2.52-9.5-2.69-3.09-.66-8.45-2.4-9.9.1-3,5.11,3.15,8.22,8.2,9.44V118l.32,0,.31.07V118C106.54,118.16,113.3,116.77,111.9,111.08Z"/><path class="h" d="M101.18,110.69c.13,1.1-1.5,2.22-3.65,2.48s-4-.42-4.14-1.53,1.5-2.22,3.65-2.48S101,109.58,101.18,110.69Z"/><path class="g" d="M100.13,125.55a1.45,1.45,0,0,1-1.28-1.62c.07-.49.18-1.11.29-1.78a29.81,29.81,0,0,0,.61-5.11,1.4,1.4,0,0,1,0-1.67,1.55,1.55,0,0,1,2.1-.3c1.23.88,1,2.77.21,7.55-.1.64-.21,1.23-.27,1.7A1.49,1.49,0,0,1,100.13,125.55Z"/><path class="i" d="M99.32,124.6c-1.24,0-2.49-.31-3.74-.36-.67,0-1.26.12-1.9.16a8.84,8.84,0,0,1-2.43-.5c-.46-.12-1.6-.58-1.07.23.4.62,1.56,1.09,2.2,1.52s4.67,3.33,6.26,3.16a16.14,16.14,0,0,1,4.65-.27c1.52.29,3.27.82,4.82.42,2.75-.71,4.79-3.76,5.42-6,.15-.54,1.17-3.72.11-3.83-.38,0-1.48,1.3-1.82,1.5a10.07,10.07,0,0,1-1.83.71c-1.74.63-3.17,1.74-4.94,2.36A16.91,16.91,0,0,1,99.32,124.6Z"/><path class="g" d="M93.08,126.15a11.27,11.27,0,0,1-4.6-2.18,1,1,0,0,1-.17-1.51,1.14,1.14,0,0,1,1.57-.16c1.1.85,3.29,2.21,5.52,1.76a20,20,0,0,0,2.2-.59,12.53,12.53,0,0,1,4.59-.76c2.19.1,4.4-.82,6.55-1.71,1.57-.66,4-2.66,4.41-3.89a1.13,1.13,0,0,1,1.4-.69,1.07,1.07,0,0,1,.72,1.35c-.7,2-3.75,4.41-5.65,5.19-2.37,1-4.83,2-7.54,1.89a10.21,10.21,0,0,0-3.79.66,23.05,23.05,0,0,1-2.44.65A7.16,7.16,0,0,1,93.08,126.15Z"/><path class="d" d="M57.43,185.4A18,18,0,0,1,55.72,189c-8.42-3.54-12.16-13.5-21.16-16.6-9.5-3.27-23.24.12-30.89,6.46,3.28,1.58,6.76,2.79,9.25,5.16-3.56,1.43-8.95.39-12.92.72,2.41,2.21,6.39,2.35,8.43,5.32-2.35.26-5.26,2.52-6.67,3,3,1.15,6.33,1,9.21,2.36a52.22,52.22,0,0,1-8.88,4.51c6.8-1.3,12.75,1.2,17.2,6.1a71.84,71.84,0,0,1,7.58,10.84c3.35,5.53,7.42,9.66,11.76,14.51,8.76,9.76,20.76,15.81,32.85,8.72A34.75,34.75,0,0,0,84.2,226.88Z"/><path class="g" d="M88.64,71.32a11.5,11.5,0,0,1,7.77,4.32c.52-6-2.07-10.91-6.3-11.43s-8.59,3.52-10.46,9.3A13.37,13.37,0,0,1,88.64,71.32Z"/><path class="g" d="M127.21,75A11.56,11.56,0,0,1,135,79.28c.52-6-2.08-10.91-6.3-11.42s-8.59,3.52-10.46,9.29A13.42,13.42,0,0,1,127.21,75Z"/></svg>