<svg xmlns="http://www.w3.org/2000/svg" width="181.16" height="258.37" viewBox="0 0 181.16 258.37"><defs><style>.a{fill:#262520;}.b{fill:#231f20;opacity:0.3;}.c{fill:#8c4815;}.d{fill:#383731;}.e{fill:#ba6a2f;}.f{fill:#f15a29;}.g{fill:#b5244b;}.h{fill:#0b0808;}.i{fill:#fff;}</style></defs><path class="a" d="M3.79,177.57c2.24,1.23,7.37,6.17,10.88,8.94-1-1.94-1.87-3.93-2.65-5.95.5,1.3,4.2,3.46,5.31,4.35q2.69,2.13,5.42,4.2l.78.57c.25.14.52.3.83.5a40.72,40.72,0,0,1,5.69,4.34,47.7,47.7,0,0,1,5.7,6.44A85.55,85.55,0,0,1,46.92,221.5c2.43,6.47,3.3,21.7-7.41,16.37-4.77-2.37-9.33-6-13.73-9.48S16.5,221.3,12.2,217.18a38.26,38.26,0,0,1-9.87-15,38.65,38.65,0,0,1-2.19-8.68c-.2-1.5.54-7.16-.14-8.16L7.06,195.7c-1.23-4.27-2.85-9.22-3.27-13.83A20.59,20.59,0,0,1,3.79,177.57Z"/><path class="b" d="M23.09,244.63c-.24,6,28.42,12,64,13.45s64.64-2.33,64.88-8.34-28.42-12-64-13.45S23.33,238.61,23.09,244.63Z"/><path class="c" d="M135.08,229.07a44.1,44.1,0,0,0-14.18-.44,25.08,25.08,0,0,0-8.65,2.27,16.75,16.75,0,0,0-3.6,2.59c-1.73,2.88-3.42,6.46-2.34,9.1,2.89,7.1,30.45,12.51,31.74,1.67.76-6.4-5.66-9-10.62-10.8A31.37,31.37,0,0,0,135.08,229.07Z"/><path class="a" d="M112.25,230.9a25.08,25.08,0,0,1,8.65-2.27,44.1,44.1,0,0,1,14.18.44c7.91-6.15,11.54-15.45,8.84-24.4a13.76,13.76,0,0,0-2.19-4.47c-6.27-8.1-25.8-8-34.78-4.53C96.2,199.86,88.13,206,83.06,214.17c-6.8,11-3.32,19.66-.59,22,3.89,3.4,9.89,4.47,15.06,3.3A22.12,22.12,0,0,0,110,231.31c-.42.65-.89,1.39-1.36,2.18A16.75,16.75,0,0,1,112.25,230.9Z"/><path class="c" d="M181,182.92c-1.06-5.65-2-17.86-15.25-18.65-.28.22-.56.44-.83.67A39.53,39.53,0,0,0,156,176.7a22.39,22.39,0,0,0-2.55,7,12.08,12.08,0,0,0,0,3.29c2.12-1.14,3.63-1.93,4-1.88,1.35.18,2.19,5.68,4.68,7.75,3.41,2.82,8.4,3.16,12.92,1.72S181.81,187.28,181,182.92Z"/><path class="a" d="M153.46,183.74a22.39,22.39,0,0,1,2.55-7,39.53,39.53,0,0,1,8.9-11.76c.27-.23.55-.45.83-.67a23.47,23.47,0,0,0-2.53,0c-8.42.37-19.82,7.6-20.36,7.29S140.4,154,138,148.18c-3.48-8.38-18.31-17.17-21.43-3.67a27.9,27.9,0,0,0-.1,9.21,229.4,229.4,0,0,0,6.21,33.87,13.14,13.14,0,0,0,1.92,4.66c2.09,2.76,5.91,3.3,9.29,3,5.26-.42,14.34-5.45,19.58-8.26A12.08,12.08,0,0,1,153.46,183.74Z"/><path class="d" d="M146.81,46.7c-2.65.3-5.33.49-7.84.65a69.09,69.09,0,0,1-10.67,0,78.59,78.59,0,0,1-10.7-1.33c-6.39-1.49-11.29-3.16-11.67-10.36a30.46,30.46,0,0,1,3.46-15.31c4.59-9,13.4-16.7,23.72-17.74,8.93-.89,19.34-4.42,28.13-1.57,15.76,5.09,6.39,41-6.81,44.3A59.9,59.9,0,0,1,146.81,46.7Z"/><path class="e" d="M129.67,35c-6.53-1.74-15.41,2.36-11.15-7.77,2.52-6,7.54-12.24,14.5-12.62,4.09-.23,8.12.26,12.17-.08s8-2,11.95-2.13c2.44,3.58.54,13.86-.4,18.11-1.08,4.9-6.38,11.28-12.1,10.67-1.79-.19-5.35-3.07-7.43-3.84C134.77,36.43,132.26,35.69,129.67,35Z"/><path class="d" d="M48.57,245.6c7.69,1.61,25.48.58,33.27,1.66,10.61,1.47,44.5-20.65,52.76-75.66,2.77-18.42-9.2-35.9-29.38-42.54C98.72,126.92,80,119,73.3,122.88c-6.4,3.7-13.52,17.59-15.34,27.34-3.09,16.6-4.81,36.08-10.14,46.8C34.5,223.81,30.38,241.81,48.57,245.6Z"/><path class="a" d="M53.67,246.26a18.06,18.06,0,0,1,1.66-10.62c1.67-3.4,4.33-6.24,6.65-9.27C75.31,208.88,76.67,185.89,82.5,165c.74-2.66,2.2-9.12,4.09-7,2.77,3,15.23,20.59,47.53,5.19a2.47,2.47,0,0,1,.72-.12,35,35,0,0,1-.24,8.6c-8.26,55-42.15,77.14-52.76,75.66C75.47,246.38,62.42,246.92,53.67,246.26Z"/><path class="f" d="M74.58,110.74c-2.68,2.36-2.39,9.83-1.91,13.33.45,3.32,2.94,11.15,20.64,19s40.54,3.73,43.28-1.21c7.19-13-5.16-21.21-15.94-27.59-10.16-6-26.33-13.7-37.87-8C80.3,107.44,76.66,108.92,74.58,110.74Z"/><path class="d" d="M179.38,93.58a26.85,26.85,0,0,0-5.64-14.71C169.52,73.65,164.22,74,159,71c-4.38-2.54-5.69-8-7.87-12.21a85.23,85.23,0,0,0-17.94-23.53c-10.87-9.78-22.66-10-36-8.43-17.85,2.07-34.6,8-46.71,21.76C43.28,56.68,40,64.69,42.93,75.49a103.47,103.47,0,0,0,6.74,18.13c5.58,11.6,47.82,49.31,88.08,44.33,5.29-.66,10.7-1.31,15.66-3.36,5.55-2.28,9.12-6.24,13.61-10C175.4,117.62,180.37,105,179.38,93.58Z"/><path class="e" d="M129.34,112a21.76,21.76,0,0,1,4.18-13.44c1.51-2.06,3.48-4.72,2.07-6.85a5.56,5.56,0,0,0-1.72-1.47c-3.45-2.21-7.45-4.52-11.41-3.44a15.69,15.69,0,0,0-4.68,2.58c-9.93,7-20.94,12.73-32.82,15.23a59.14,59.14,0,0,1-15.19,1.24c-3.83-.19-7.4-1.53-11.13-1.12,13.29,13.11,38.72,30.78,65.22,33.37a17.52,17.52,0,0,0,6.75-10.19C131.63,122.62,129.49,117.3,129.34,112Z"/><path class="g" d="M162.62,118.4c-2.33,2.81-5.14,5.46-8.68,6.39s-7.88-.4-9.33-3.75c-1.23-2.88-.07-6.16,1.09-9.07a20.12,20.12,0,0,0,7.71,1.9,10.32,10.32,0,0,0,7.31-2.65,1.9,1.9,0,0,1,2.62-.52,11,11,0,0,0,6-.15c-.54.12-1.14,1.24-1.46,1.63-.57.69-1.14,1.36-1.72,2C165,115.61,163.79,117,162.62,118.4Z"/><path class="h" d="M91.13,84.55a16.61,16.61,0,0,0,13.21,5.15,7.24,7.24,0,0,0,4.41-1.63c3.2-2.95,2.12-9.6-1.84-11.39-4.71-2.12-11.08-2-15.85-.29a4.14,4.14,0,0,0-2.63,2,4,4,0,0,0,.67,3.53A15.12,15.12,0,0,0,91.13,84.55Z"/><path class="h" d="M138.05,66.39a7.14,7.14,0,0,0,.13,3.1c.71,2.42,4.83,5.22,7.38,4.18,3.11-1.27,3.2-7.93,2.71-10.71-.31-1.81-.84-4.43-2.74-5.21C141.4,56.06,138.48,63.58,138.05,66.39Z"/><path class="h" d="M151.93,84.24c1.71-1.72,5-3.13,8.52-3.9h0c3.55-.85,7.08-1,9.36-.19,10.83,3.82,3.85,14.67-5.48,17.55h0C154.68,99.15,143.77,92.4,151.93,84.24Z"/><path class="i" d="M157.68,82.83A2.54,2.54,0,0,1,161,84.7a3.35,3.35,0,0,1-.48,2.69,8.54,8.54,0,0,1-1.88,2c-1.29,1.09-4.09,3.44-5.86,2.29C149.37,89.43,154,83.71,157.68,82.83Z"/><path class="h" d="M174.1,105.53a1.35,1.35,0,0,0-.6-.23c-.8-.1-1.2.61-1.71,1.08a10.2,10.2,0,0,1-2.41,1.65,10.7,10.7,0,0,1-7.93.38l0-.12-.1.09-.12,0,0,.11a10.6,10.6,0,0,1-7.16,3.4c-2.12.11-6.6-1-8.23-2.65a1.45,1.45,0,0,0-2.07,0,1.52,1.52,0,0,0,0,2.11c2.52,2.58,8.06,3.67,10.46,3.55a13.34,13.34,0,0,0,2.57-.38,13.07,13.07,0,0,0,5.33-2.85,13.09,13.09,0,0,0,6,0,12.21,12.21,0,0,0,2.44-.88,9.68,9.68,0,0,0,3.68-2.69A1.91,1.91,0,0,0,174.1,105.53Z"/><path class="h" d="M162.2,110.73a1.55,1.55,0,0,1-1.24-.13,1.65,1.65,0,0,1-.64-2.19c.05-.09,2-4,1.71-11.92a1.58,1.58,0,0,1,1.51-1.66,1.63,1.63,0,0,1,1.65,1.57c.37,8.91-2,13.4-2.09,13.59A1.52,1.52,0,0,1,162.2,110.73Z"/><path class="a" d="M130.73,188a12.83,12.83,0,0,1-4.6,1.12,13.22,13.22,0,0,1-7.34-1.71c-2.33-1.3-3.63-4.25-5.82-5.35s-5.49,1.51-7.59,2.57a51.62,51.62,0,0,1-8.9,3.84c-7.21,2.09-15.82,2.94-19.65-4.27-5-9.39-5.64-23.12-6.85-33.34-.34-2.93,13.79-10.86,18.86-3.7,4.42,6.25,5.92,11.38,7.23,17.28.14.62,8.8-6.19,19.17-7.54,6.92-.89,11,3.4,14.28,8.26C133.94,171.61,139.21,183.92,130.73,188Z"/><path class="a" d="M126.46,192.42a12.57,12.57,0,0,1-4.59,1.12,13.09,13.09,0,0,1-7.35-1.71c-2.32-1.3-3.63-4.24-5.82-5.34s-5.49,1.5-7.58,2.57a52.47,52.47,0,0,1-8.91,3.83C85,195,77.11,198,73.28,190.79c-5-9.4-6.36-25.29-7.56-35.51a24.43,24.43,0,0,1,.08-8.78c3.16-12.86,18.43-4.44,22,3.56,2.48,5.54,2.63,11.74,4,17.64a2.23,2.23,0,0,0,.91,1.61,2.3,2.3,0,0,0,1.83-.08c5.63-2,9.77-7.3,15.68-8.38s11.89,2.57,15.22,7.43C129.83,174.73,134.94,188.35,126.46,192.42Z"/><path class="a" d="M73.36,188.67S56.83,194,54.17,204.49c0,0,16.8-11.85,22.93-11.63Z"/><path class="d" d="M44.76,91.82a19.82,19.82,0,0,0,6.43-4.68c3.24-3.51,5.17-8.08,8.49-11.5,2.49-2.57,5.65-4.38,8.45-6.61C73,65.18,76.41,59.74,72.82,54A32.82,32.82,0,0,0,60.28,42.56c-9.65-5.16-22.17-6.48-31.91-1C20,46.35,8.58,49.71,2.59,57.7-4.79,67.54,6.71,80.3,14.18,86,22.5,92.35,35,96.24,44.76,91.82Z"/><path class="e" d="M51.44,68.11c4.68-5.6,15.06-7.49,5-13.82-5.94-3.75-14.23-6.16-20.61-2.17-3.74,2.35-7,5.29-10.78,7.51s-8.27,3.24-11.86,5.55c.08,4.69,8.12,12.61,11.58,15.8,4,3.67,12.61,6,17.29,1.93,1.46-1.29,2.81-6,4.17-8C47.84,72.56,49.58,70.34,51.44,68.11Z"/><path class="e" d="M95,57.07c-1.34-1-2.49-2.55-2.17-4.18.43-2.16,3.08-3,5.29-3s4.64.54,6.07,2.25C109.55,58.47,98.9,59.91,95,57.07Z"/><path class="e" d="M116.9,43.83a5.14,5.14,0,0,1,4.32-1.58,4,4,0,0,1,3.12,4.22A5.18,5.18,0,0,1,122,51.14C115.42,55.12,114,46.78,116.9,43.83Z"/><path class="e" d="M172.75,77.78c-4-4.09-8.93-4-13.77-6.83A10.6,10.6,0,0,1,155.81,68c-.21.51-.45,1-.72,1.55-1.06,2.05-2.31,4.42-1.38,6.53a5.06,5.06,0,0,0,4.45,2.66,22,22,0,0,0,5.39-.71A30.2,30.2,0,0,1,172.75,77.78Z"/><path class="i" d="M96.36,76.6A1.94,1.94,0,0,1,98.92,78a2.54,2.54,0,0,1-.37,2,6.74,6.74,0,0,1-1.44,1.48c-1,.83-3.14,2.61-4.5,1.74C90,81.6,93.55,77.26,96.36,76.6Z"/><path class="i" d="M141.09,62.89a1.47,1.47,0,0,1,2.28.06,2.23,2.23,0,0,1,.57,1.62,5.49,5.49,0,0,1-.38,1.61c-.34,1-1.07,3-2.33,2.93C138.8,68.88,139.47,64.41,141.09,62.89Z"/><path class="d" d="M102.89,174.88a29.48,29.48,0,0,1,6.8-11.77,21.78,21.78,0,0,1,1.76-1.56c-6.42,2.43-16.52,9.6-17,9.34s-2-17.23-4.52-22.77c-3.59-8-18.85-16.42-22-3.56a24.89,24.89,0,0,0-.08,8.78c1.21,10.23,1.86,23.95,6.85,33.35C78.5,193.9,87.11,193,94.32,191a48.63,48.63,0,0,0,8.36-3.56C101.08,183.63,101.59,178.92,102.89,174.88Z"/><path class="e" d="M127.52,166.34c-3.33-4.86-7.82-6.56-13.74-5.48a14.36,14.36,0,0,0-2.33.69,21.78,21.78,0,0,0-1.76,1.56,29.48,29.48,0,0,0-6.8,11.77c-1.3,4-1.81,8.75-.21,12.51l.54-.27c2.1-1.06,5.33-3.71,7.59-2.57s3.49,4,5.82,5.34A13.05,13.05,0,0,0,124,191.6a12.62,12.62,0,0,0,4.6-1.12C137.05,186.41,131.94,172.79,127.52,166.34Z"/><path class="e" d="M96.2,229.25a39,39,0,0,0-14,1.27,23.54,23.54,0,0,0-8.31,3.59,18.09,18.09,0,0,0-3.28,3.32c-1.41,3.42-2.72,7.59-1.39,10.39,3.56,7.52,31.3,10.09,31.47-2.09.1-7.19-6.49-9.24-11.56-10.66A32.67,32.67,0,0,0,96.2,229.25Z"/><path class="d" d="M73.86,234.11a23.54,23.54,0,0,1,8.31-3.59,39,39,0,0,1,14-1.27c7.18-7.81,9.82-18.57,6.25-28.16a15.26,15.26,0,0,0-2.61-4.7c-7-8.2-26.25-5.71-34.75-.71-10.19,6-17.52,13.8-21.7,23.5-5.6,13-1.29,22.22,1.64,24.51,4.18,3.28,10.21,3.73,15.19,1.79A23,23,0,0,0,71.7,234.84c-.35.77-.74,1.66-1.12,2.59A18.09,18.09,0,0,1,73.86,234.11Z"/></svg>