<svg xmlns="http://www.w3.org/2000/svg" width="185.51" height="226.35" viewBox="0 0 185.51 226.35"><defs><style>.a{fill:#603913;}.b{fill:#231f20;opacity:0.2;}.c{fill:#c68844;}.d{fill:#ffb761;}.e{fill:#1b75bc;}.f{fill:#fff;}.g{fill:#0b0808;}.h{fill:#a00a2b;}.i{fill:#459fdd;}.j{fill:#2e3033;}.k{fill:#fefefe;}.l{fill:#754c29;}.m{fill:#996239;}</style></defs><path class="a" d="M176.15,22.14c.95-5.09,1-10.62-1.24-15.06A12.81,12.81,0,0,0,155.24,3a10.4,10.4,0,0,0-3.66,6.41c-.3,2.56.9,5.36,3.06,6.09,2-1.33,4.33-2.71,6.56-2.13,3.43.89,4.56,6.19,2.92,9.81s-5,5.79-8.32,7.43c-8.16,4.06-17.2,6.42-24.06,12.93C119.5,55.16,134.26,58,143.26,55.81,159,51.93,172.71,40.73,176.15,22.14Z"/><ellipse class="b" cx="107.8" cy="169.78" rx="28.5" ry="77.72" transform="translate(-62.78 276.32) rotate(-89.58)"/><path class="c" d="M160.15,131.05c-3-14.34-12.35-64,5.61-66.45,14.24-2,16.22,52.06,17.13,64,1.39,18.32,1.33,36.46-2.36,39.37-5,3.95-12.24,4.58-16.46,2.09-6.09-3.59-3.31-8.72-1.41-13.42.94-2.33.48-4.68.25-7.21A159.06,159.06,0,0,0,160.15,131.05Z"/><path class="c" d="M48.71,92.14s-13.46,36,3.71,82.19l-27.26,5.31S4.73,122.54,34.42,76.3Z"/><path class="c" d="M58.91,179.08c1.33,7.75-6.16,14.62-16.73,15.34s-20.21-5-21.54-12.72,6.16-14.61,16.73-15.33S57.58,171.34,58.91,179.08Z"/><path class="d" d="M155.29,32.35c-11.21-10.45-21.64-11.91-37.48-11.28-15.62.61-31.28,3.62-45.09,10.1C58.1,38,52.22,53.22,48.83,66.52c-3.62,14.22-4,30,2.56,43.59,6.19,12.79,17.78,18.25,30.54,21.62A135.51,135.51,0,0,0,109.15,136v.18l2.17-.08,2.16.08V136a135.5,135.5,0,0,0,27.23-4.31c12.75-3.37,24.34-8.83,30.53-21.62C183.68,84.41,171.43,47.41,155.29,32.35Z"/><path class="c" d="M106.73,118.23a149.11,149.11,0,0,1-18.67-.14,57.85,57.85,0,0,1-28.81-9.89c-6.71-4.49-13-10.9-14-19-.84,9-.68,18.33,2.68,26.69,5,12.43,16.24,17.14,28,20.73,9.88,3,20.41,3.26,30.63,3.47,13.66.27,27.12-1.59,39.17-7.83,9.79-5.07,21-9.45,27.67-18.43,7.54-10.2,5.38-28,2.18-39.41a40,40,0,0,1-16.16,31.19C146,115.26,122.65,117.34,106.73,118.23Z"/><path class="d" d="M125.89,92.57s13.46,36-3.71,82.19l27.26,5.3s20.44-57.1-9.26-103.33Z"/><path class="c" d="M147.09,89.58a93.82,93.82,0,0,0-6.91-12.85L125.89,92.57s9.39,25.18,2.46,60.4c10.59-10.37,17.32-24.45,16.2-39.06-.63-8.19-1.15-13.41,1.6-20.93A23.1,23.1,0,0,0,147.09,89.58Z"/><path class="d" d="M115.69,179.51c-1.33,7.75,6.16,14.61,16.73,15.34s20.21-5,21.54-12.73-6.16-14.61-16.72-15.33S117,171.76,115.69,179.51Z"/><path class="e" d="M33.62,61c-3.48,9-4.84,25.28-2.65,34.54,2.09,8.83,6.71,16.77,11.06,22.52a53.43,53.43,0,0,0,34.79,21.06c18.32,2.88,37.51,4.1,54-14.22C139,115.79,146,106.28,148.54,90c6.63-42.7-13.35-54.77-33.73-62.5-19.19-7.28-51.6-10.66-69.48,13.38C41.31,46.3,36.31,54,33.62,61Z"/><path class="d" d="M135.59,64.46a51.19,51.19,0,0,0-15.93-23.17c-7.33-5.94-19.75-7.39-29-8.84a63.35,63.35,0,0,0-11.09-.58C62.5,32.3,46.46,34.46,35,48.57,25.24,60.55,21,77.34,25.2,92.4c1.16,4.19,2.89,8.27,3.2,12.6.38,5.26-1.38,10.48-1.18,15.75.39,10.84,10,23.7,17.47,30.93,8.74,8.46,20.93,13.83,33.1,13.66l1.77-.05,1.77.05c27.82.39,56.12-26.2,53.94-54.85-.62-8-1.12-13.17,1.56-20.56,2.53-7,1.61-15.3-.31-22.43C136.24,66.48,135.93,65.47,135.59,64.46Z"/><path d="M98.18,138.48c0,6.62-8,13.56-20.9,13.56s-19.7-5.54-19.7-12.17S64.42,132,77.28,132,98.18,131.85,98.18,138.48Z"/><path class="f" d="M75.1,136.65c.55,2-2.35,4.54-6.49,5.68s-7.93.46-8.48-1.53,2.35-4.54,6.48-5.69S74.55,134.66,75.1,136.65Z"/><path class="g" d="M123.58,99.37c2.75.12,2.36,2.59,1.31,4.36a10,10,0,0,1-6.7,4.77c-3.68.69-6.94,1.58-10.6.06a9.88,9.88,0,0,1-5.41-5.45c-.66-1.68-1.07-4.91,1.84-3.57,1.71.79,2.84,2.74,4.41,3.67a8.72,8.72,0,0,0,8.38.05C119.19,102.07,120.67,99.24,123.58,99.37Z"/><path class="g" d="M38.12,98.85c-2.75.07-2.4,2.55-1.38,4.33a10,10,0,0,0,6.61,4.89c3.67.76,6.91,1.7,10.6.24A9.86,9.86,0,0,0,59.46,103c.68-1.68,1.15-4.9-1.78-3.61-1.72.76-2.89,2.69-4.48,3.6a8.68,8.68,0,0,1-8.37-.11C42.47,101.62,41,98.77,38.12,98.85Z"/><path class="h" d="M110.65,135.87a12.48,12.48,0,0,1,1.62,12.56c-1.4,3.49-4.55,6.16-7.58,8.45a25.19,25.19,0,0,1-10.8,4.27,29.69,29.69,0,0,1-11.84,0,14.4,14.4,0,0,1-9.13-6.05,56,56,0,0,0,16.3-1.3c4.49-1,10.65-2.49,14.52-5.37A17.53,17.53,0,0,0,110.65,135.87Z"/><ellipse class="b" cx="81.62" cy="208.17" rx="18.16" ry="64.36" transform="translate(-127.75 286.65) rotate(-89.14)"/><polygon class="e" points="134.57 173.44 28.42 174.92 22.6 204.7 141.07 201.95 134.57 173.44"/><ellipse class="e" cx="82" cy="203.94" rx="59.4" ry="18.27" transform="translate(-2.59 1.06) rotate(-0.73)"/><path class="i" d="M28.42,174.92c.1,8,24,14.22,53.38,13.84s53.12-7.18,53-15.2-24-14.22-53.39-13.85S28.31,166.89,28.42,174.92Z"/><ellipse class="j" cx="81.62" cy="174.24" rx="45.2" ry="11" transform="translate(-2.21 1.05) rotate(-0.73)"/><path class="k" d="M84.28,198.55c0,1.94,1.15,3.54,2.68,3.57s2.8-1.49,2.85-3.43-1.15-3.53-2.67-3.57S84.33,196.62,84.28,198.55Z"/><path class="k" d="M67.32,198.3c0,1.94,1.15,3.54,2.67,3.58s2.81-1.5,2.86-3.44-1.15-3.53-2.68-3.57S67.37,196.37,67.32,198.3Z"/><path class="k" d="M77.33,206.37a8.78,8.78,0,0,0-3.18.48.54.54,0,0,0-.37.3.51.51,0,0,0,0,.32,4.44,4.44,0,0,0,2.73,2.69c1.26.42,7.41-1.39,5.32-3.34a1.64,1.64,0,0,0-1-.29Z"/><path class="k" d="M84.53,212.53a.67.67,0,0,0-.88.38,2.87,2.87,0,0,1-3.34,1.55,2.59,2.59,0,0,1-1.6-1.66,7.16,7.16,0,0,1-.24-2.54l0-1.71-1.36-.07,0,1.74a8.36,8.36,0,0,0,.3,3,4,4,0,0,0,2.47,2.51,3.39,3.39,0,0,0,1,.18,4.32,4.32,0,0,0,4-2.52A.67.67,0,0,0,84.53,212.53Z"/><path class="k" d="M78.44,208.54l-1.36-.06,0,1.74a7.12,7.12,0,0,1-.36,2.53A2.67,2.67,0,0,1,75,214.33a2.87,2.87,0,0,1-3.25-1.73.68.68,0,0,0-1.29.44,4.34,4.34,0,0,0,3.85,2.72,3.77,3.77,0,0,0,1-.12,4,4,0,0,0,2.59-2.39,8.2,8.2,0,0,0,.46-3Z"/><path class="l" d="M41.83,168.13a.93.93,0,0,0,0-.23c0-.63-.71-1-.89-1.63-.75-2.49,3.71-1.25,4.5-1.9,1.09-.91.47-2.41.87-3.65,1.14-3.56,3.42-2.09,5.64-4.32a1.22,1.22,0,0,0,.3-.48,2.17,2.17,0,0,0,0-.72,2.52,2.52,0,0,1,2.49-2.51,8.57,8.57,0,0,1,1.43.26,5.33,5.33,0,0,0,4.42-1.18,2.44,2.44,0,0,1,.75-3.77c1.49-.63,3.24.4,4.8,0,2.69-.73,3.12-1.93,6-.59,1.26.59,2.66,1.46,3.93.89s1.68-2,2.9-2.31c2.06-.44,2.9,2.86,4.88,3.55,1.37.47,2.78-.44,4.05-1.14s3.07-1.14,4,0c.36.43.5,1,.91,1.41,1.78,1.68,4.74-2.67,6.68-1.17.75.58.73,1.7.85,2.65s.8,2.08,1.73,1.86c.75-.18,1-1.09,1.55-1.64,1.22-1.28,3.34-.42,4.85.51.88.54,1.86,1.25,1.9,2.28,0,.43-.14.85-.14,1.28,0,1.61,2,2.28,3.59,2.66,6.24,1.53-.87,9.22,3.93,11.35a13.73,13.73,0,0,1,1.69.65,1.27,1.27,0,0,1,.66,1.51c-.09.21-.28.42-.23.64a.61.61,0,0,0,.24.31c.87.76,2.4,1.65,2.89,2.7.14.3.47,2.88-.14,2.87-7,3.91-22.78,6.78-41.12,7-18.81.24-35-2.35-41.83-6.24-1-.57,2.75-5.75,1.4-7.23-.54-.59-1.27-1.28-1-2S41.61,168.77,41.83,168.13Z"/><path class="m" d="M110.29,155.13a2.85,2.85,0,0,0,0,.41,2,2,0,0,0,.1.56,1.12,1.12,0,0,0,.05.13l.06.12a.33.33,0,0,0,.06.1l.08.13.08.09a.58.58,0,0,0,.1.12l.09.1.11.1.2.16,0,0,.21.13,0,0,.19.11.08,0a8.47,8.47,0,0,0,1.43.55l.07,0,.21,0,.09,0,.3.07a6.6,6.6,0,0,1,2.1,1.24c1.16,1.51.57,3.93.33,6.05a3.64,3.64,0,0,0,0,1.14,3.3,3.3,0,0,0-.49.34c-1,.92-1.11,2.5-1.47,3.85s-1.59,2.8-2.9,2.31-1.68-2.57-3-2.58c-1.89,0-2,3.86-3.86,3.63s-2.06-4-3.66-3.23c-.84.4-.63,1.68-1.17,2.44-.8,1.11-2.57.45-3.61-.44s-2.31-2-3.59-1.53c-1,.38-1.39,1.55-2.1,2.35a3.36,3.36,0,0,1-5.84-2.49c-.95.92-2,1.9-3.34,1.95s-2.65-1.47-1.91-2.57c.38-.56-1.52-.49-1.64-.46-1,.24-.81,1.34-1.39,1.71-1.24.8-3.82,2.06-4-1,0-.46.07-.91,0-1.36A2.4,2.4,0,0,0,69,167.66a3.56,3.56,0,0,0-1,2.18,1.76,1.76,0,0,1-.2.94,1.36,1.36,0,0,1-.66.4,4.74,4.74,0,0,1-2.38.3A2.17,2.17,0,0,1,63,170c-.18-.75.17-1.55,0-2.3a2.19,2.19,0,0,0-2.52-1.39,5.22,5.22,0,0,0-2.67,1.6c-1.61,1.54-3.63,3.8-6,2.07A5,5,0,0,1,50,166.54c-.55-.86-1.93-.39-2.57.39s-1.08,1.83-2,2.22a2.67,2.67,0,0,1-2.23-.25,4.34,4.34,0,0,1-1.35-1.13,7.27,7.27,0,0,1-1.27-2.06,2.91,2.91,0,0,1,.2-1.3,3.32,3.32,0,0,1,1-1.56,10.34,10.34,0,0,1,1.92-.84c1.22-.61,1.86-2,2.86-2.9,1.35-1.25,3.08-1.06,4.55-2l.19-.12.2-.14a6.88,6.88,0,0,0,.52-.46,1.22,1.22,0,0,0,.3-.48,2.47,2.47,0,0,0,0-.72,2.36,2.36,0,0,1,.18-.95c.91-2.15,2.67-1,4.24-1.9.91-.5,1.33-1.56,2-2.35,1-1.13,2.9-2.33,4.42-2.17l.61.08a5.88,5.88,0,0,0,2.43.07c1.51-.42,2.31-1,3.23-1.14l.31-.05a4,4,0,0,1,.68,0l.38.07a7.78,7.78,0,0,1,1.38.51,11.85,11.85,0,0,0,2.46,1l.5.06a2.05,2.05,0,0,0,1-.19A4.41,4.41,0,0,0,77.52,147a6.05,6.05,0,0,1,.67-.67A2,2,0,0,1,79,146a1.73,1.73,0,0,1,.94.07c1.79.66,2.84,2.06,5,1.65.62-.12,1.2-.37,1.81-.5a6,6,0,0,1,4,.6c1.21.57,1.22,1.09,2.17,2,1.33,1.26,3.33-.87,5.07-1.38a2.23,2.23,0,0,1,.43-.1,1.56,1.56,0,0,1,1.18.31,1.69,1.69,0,0,1,.37.43,2.22,2.22,0,0,1,.2.41,2.25,2.25,0,0,1,.09.35,5.56,5.56,0,0,1,.12.73l0,.37c0,.12,0,.24,0,.36a3.06,3.06,0,0,0,.19.72,1.9,1.9,0,0,0,.9,1.07,1,1,0,0,0,.64.07,1.32,1.32,0,0,0,.68-.45c.18-.22.34-.48.51-.73a3.17,3.17,0,0,1,.36-.46,2.21,2.21,0,0,1,.49-.39,2.36,2.36,0,0,1,.87-.25,6.31,6.31,0,0,1,3.49,1.15l.33.21a2.85,2.85,0,0,1,1.57,2.07c0,.11,0,.21,0,.32Z"/><path class="l" d="M59,160.89a1.09,1.09,0,0,1,1.05-.92,4.76,4.76,0,0,1,2.42.53A1.31,1.31,0,0,1,63,161a6.79,6.79,0,0,1,1.19.56,1.25,1.25,0,0,1-.72,2.36,8.16,8.16,0,0,1-2.61-.85l-1.08-.17A1.34,1.34,0,0,1,59,160.89Z"/><path class="l" d="M52.41,162l.2,0a1.24,1.24,0,1,1,.26,2.47l-.2,0a1.25,1.25,0,1,1-.26-2.48Z"/><path class="l" d="M54.71,156.14l.21,0a1.24,1.24,0,1,1,.26,2.47l-.21,0a1.24,1.24,0,0,1-1.36-1.1A1.25,1.25,0,0,1,54.71,156.14Z"/><path class="l" d="M98.73,165.7a18.21,18.21,0,0,1,3.46.12,1,1,0,0,1,.38.14c1.46,0,1.58,2.18.09,2.48a8.12,8.12,0,0,1-4.31-.37A1.25,1.25,0,0,1,98.73,165.7Z"/><path class="l" d="M108.89,164.2l.19-.23a1.24,1.24,0,1,1,1.93,1.56l-.19.23a1.24,1.24,0,1,1-1.93-1.56Z"/><path class="l" d="M73.46,166.43l.19-.22a1.24,1.24,0,1,1,1.93,1.56l-.18.23a1.25,1.25,0,1,1-1.94-1.57Z"/><path class="a" d="M161.22,78.52c2.91-3.77,6.72-8.67,2.62-16.15-7.84-14.25-25.28-21.8-36.61-24.16-7.51-1.56-18.7-4.69-22.23.78-8.14,12.63,22.56,40.57,32.64,44.24S156.5,84.63,161.22,78.52Z"/><path class="a" d="M4.42,80.22C1.51,76.45-2.31,71.56,1.8,64.08c7.83-14.26,25.27-21.8,36.6-24.16,7.52-1.57,18.7-4.7,22.23.77C68.77,53.32,38.07,81.26,28,84.94S9.14,86.33,4.42,80.22Z"/></svg>