<svg xmlns="http://www.w3.org/2000/svg" width="292.01" height="234.53" viewBox="0 0 292.01 234.53"><defs><style>.a{opacity:0.25;}.b{fill:#c6af7d;}.c{fill:#484b4c;}.d{fill:#67696d;}.e{fill:#f9eac0;}.f{fill:#e8d6a7;}.g{fill:#fff;}.h{fill:#db6b4d;}</style></defs><path class="a" d="M280.33,220.11c0,7.83-58.42,16-129.9,14.17C80.55,232.51,22,226.59,20.51,220.11,18.79,212.3,78.67,206,150.43,206S280.33,212.29,280.33,220.11Z"/><path class="b" d="M41.93,191.31c4.33,10.09,13.31,17.91,19.39,22.36,2.4,1.76,18.87,1.93,21.76,1.17,5.49-1.45,9.72-5,9.28-11.07a6,6,0,0,0-3.77-5.33c-2.4-.77-5,.46-7.51.17-2.73-.33-7.16-7.57-9.23-11.4A77.76,77.76,0,0,1,41.93,191.31Z"/><path class="c" d="M38.9,81.49a43.39,43.39,0,0,0-6.22,17.92c-2.93,30.7,11.63,43.58,12.85,50.32,2,11-6.17,13.24-6.12,30a29.57,29.57,0,0,0,2.52,11.62,77.76,77.76,0,0,0,29.92-4.1c-.31-.57-.57-1.06-.77-1.45-2.5-5-4.67-11.77-1.11-16.83,3.85-5.48,23.52-13.62,27.26-19.18,7.37-10.95,9-18,10-28Z"/><path class="b" d="M281.64,193.8c-2.33-3.73-10.27,2-13.33,2s-8.69-2.69-15.08-6.28a59,59,0,0,0-14.72,24.14l-.18.63c10.23,3.5,21.2,6.29,28.93,4.91C274.5,217.86,288,204,281.64,193.8Z"/><path class="c" d="M253.23,189.48c-12.16-6.84-27.07-17.27-32.22-20.8-15.31-10.52-31.28-23.45-50.46-24.91-21.86-1.65-37.37,17-12.05,37.22,19.05,15.18,38.7,17.54,60.25,25.84,5.11,2,12.15,4.88,19.58,7.42l.18-.63A59,59,0,0,1,253.23,189.48Z"/><path class="d" d="M35.05,63.67a11.69,11.69,0,0,0,1.87,1.44c7.24,4.36,17.53,2.17,23.75,7.33,10.17,8.45-4.26,28.52-14.84,29-9.71.39-29-14-36-21.25-11-11.3-12.86-28.16-5-44C13,19.52,33,13.08,48.91,15.94c8.88,1.6,14.77,5.45,17.54,14.73,2.63,8.84.37,18.6-7.4,24.45-4,3-11.62,4.37-14.72.55,3.77-5.15,5.65-8,1.6-12.89-3.43-4.12-8.18-4.41-12.85-.91C26.26,47,29.63,58.57,35.05,63.67Z"/><path class="e" d="M4.78,36.1C13,19.52,33,13.08,48.91,15.94c8.88,1.6,14.77,5.45,17.54,14.73,2.63,8.84.37,18.6-7.4,24.45-3.54,2.67-10,4-13.54,1.61,9.58-4.84,18.39-8,13.87-21.51C55.45,23.5,41,20.36,30.3,24.3c-21.12,7.75-20.69,31-13.74,48.54,2.76,7,9.49,13.73,11.06,20.7,0,.22.07.44.11.67A107.56,107.56,0,0,1,9.81,80.14C-1.18,68.84-3,52,4.78,36.1Z"/><path class="d" d="M217.72,40.58c4-17.52-9.48-30.82-21.23-37.73A21.92,21.92,0,0,0,188.28.1c-9.82-1.41-8.84,12.16-8.41,20.38a91.19,91.19,0,0,0,1,9.44c1.41,8.41,9,38.34,19.66,37.14,4.44-.5,8.69-7.88,10.62-12.14C213.17,50.39,216.58,45.61,217.72,40.58Z"/><path class="e" d="M214.16,36.47c2.14-11-5.94-19.58-12.93-24.07a12.57,12.57,0,0,0-4.86-1.83c-5.81-1-5.08,7.57-4.73,12.78a57.68,57.68,0,0,0,.67,6c.93,5.33,5.75,24.32,12,23.69,2.61-.27,5-4.89,6.12-7.56C211.59,42.62,213.55,39.63,214.16,36.47Z"/><path class="d" d="M136.12,106.58c19,3.36,28.13-7.48,41.45-1s25,11.63,29.8,25.13c12.48,35-10.74,68.76-50.31,70.19-26.83,1-42.84-13.8-61.69-29.93-8.16-7-15-17.06-23.79-23-12.4-8.3-32.08-11.84-41.57-24.5-7.38-9.85-6.4-19-3.23-31C29,84.18,34.36,76.2,42.47,73.53c4.67-1.54,11.22-3,16-2C80.69,75.88,98.19,99.87,136.12,106.58Z"/><path class="f" d="M189.51,189.55c-5.2-2.06-11-.86-16.61-.37-15.53,1.37-31.17-3.2-44.81-10.75s-25.46-18-36.49-29c-4.28-4.28-9.46-9-15.44-8.13a18.32,18.32,0,0,0-8.7,4.23c1.44.78,2.82,1.59,4.12,2.45,8.84,5.92,15.63,16,23.79,23,18.85,16.13,34.86,30.89,61.69,29.93,13.12-.48,24.43-4.52,33.25-11C190.05,189.78,189.78,189.66,189.51,189.55Z"/><path class="d" d="M172.12,160.8a31.36,31.36,0,0,1-3.63-1.18C156,154.75,147,141.32,148.59,128c1.54-12.8,13.29-24.85,10.39-38s-4.42-23.28,3.45-35.56c2.89-4.51,4.13-8.67,8.37-12.5,3.74-3.37,8.43-6.79,13.39-8,2.07-.51,3.81-1.6,5.71-2.32,2.3-.87,4.28-1.61,6.53-2.57,14.33-6.1,31.37-.25,42.86,9,10,8,10,12.59,22.09,9.38,9-2.38,19.4-10.79,26,1.07,2.13,3.84,2.64,8.34,3.1,12.71q.45,4.29.91,8.58a54.53,54.53,0,0,1,.44,9.8c-1,12.88-10.94,21.07-21.91,26-17.91,8.07-32.56,13.77-46.48,28.5-5.83,6.17-10.65,13.34-17.22,18.72C196.84,160.47,183.77,163.83,172.12,160.8Z"/><path class="e" d="M291.39,69.77q-.47-4.29-.91-8.58c-.46-4.37-1-8.87-3.1-12.71a16.79,16.79,0,0,0-1-1.53c-6.18,1.71-13,4-17.73,8.49-32.42,29.44-56,17.67-69.67,26.73-22.66,15-1.31,50.66,6.79,55.08a31.82,31.82,0,0,0,11.74,3.59c1.92-2.3,3.84-4.59,5.89-6.76,13.92-14.73,28.57-20.43,46.48-28.5,11-4.94,20.93-13.13,21.91-26A54.53,54.53,0,0,0,291.39,69.77Z"/><path d="M263.14,60.29c9.81,9,34.13-5.56,27.84-14.58-5.68-8.14-13.11-4.94-17.79-1.75C267.37,48,256.47,54.16,263.14,60.29Z"/><path class="g" d="M274.16,52c-.82,3.59-9.33,10.83-9.2,3.68A8.35,8.35,0,0,1,267.8,50C270.46,47.67,275.15,47.66,274.16,52Z"/><path class="h" d="M159.23,93.81c7.49,29.82,29.27,39.42,60.26,44.72,1,4.11-6.14,16.14-9.14,17.6-3.21.34-61.82-3.62-64-49,0,0,1.09-6.08,4.65-9.3A15.79,15.79,0,0,1,159.23,93.81Z"/><path d="M231.89,58.5a2.73,2.73,0,0,1-.25.23c-5.64,4.6-8.54,8.4-15.91,9.82,1.29-4,5.24-7,8.26-9.75-6.53-.4-12.84.23-18.47-4.12,7.54-1.88,16.88-.86,24.57-.24a2.62,2.62,0,0,1,2.22,1.7A2.35,2.35,0,0,1,231.89,58.5Z"/><path class="d" d="M181.71,49.21c-1.54-18.58-19.6-26.51-33.87-28.84a24,24,0,0,0-9.3.39c-10.53,2.3-5.19,15.17-2.12,23a84.67,84.67,0,0,0,4,8.84c4.14,7.68,21.53,34,32.06,28.87,4.4-2.15,6.4-11,7-15.83C180.18,60.49,182.15,54.54,181.71,49.21Z"/><path class="e" d="M175.67,47.33c-.95-11.8-12.44-16.82-21.53-18.28a15.38,15.38,0,0,0-5.92.27C141.5,30.8,144.88,39,146.84,44a53.26,53.26,0,0,0,2.54,5.61c2.62,4.88,13.66,21.6,20.38,18.3,2.8-1.37,4.08-7,4.49-10.07C174.68,54.51,176,50.72,175.67,47.33Z"/><path d="M264,92.11a1.78,1.78,0,0,1-.71-3.41,87.68,87.68,0,0,0,16.5-9.46c1.41-1,2.86-2.24,2.95-3.61a6.67,6.67,0,0,0-.85-2.8l-.11-.23a46.8,46.8,0,0,1-3.91-14.06,1.78,1.78,0,0,1,3.54-.4,43.4,43.4,0,0,0,3.61,13l.11.22a9.26,9.26,0,0,1,1.16,4.53c-.19,2.83-2.33,4.75-4.4,6.26A92,92,0,0,1,264.74,92,1.78,1.78,0,0,1,264,92.11Z"/><path class="e" d="M212.84,43.42c1.95,10.46,19.39,5.7,11.67-1.78C219.82,37.1,211.56,36.61,212.84,43.42Z"/><path class="e" d="M264,200.79c-2.34-3.73-10.27,2.05-13.33,2s-8.69-2.69-15.08-6.28a58.9,58.9,0,0,0-14.72,24.14c-.07.21-.12.42-.18.63,10.22,3.5,21.2,6.29,28.92,4.91C256.85,224.85,270.39,211,264,200.79Z"/><path class="d" d="M235.59,196.47c-12.16-6.84-27.07-17.27-32.22-20.8-15.32-10.52-31.28-23.45-50.46-24.91C131,149.11,115.53,167.81,140.85,188c19.06,15.18,38.7,17.54,60.26,25.84,5.1,2,12.14,4.88,19.58,7.42.06-.21.11-.42.18-.63A58.9,58.9,0,0,1,235.59,196.47Z"/><path class="d" d="M69.63,75.39c-10.8-5.8-26.77-8.93-37.86-3.82-11.89,5.48-20,20.1-21.11,32.26-2.93,31,11.64,44,12.85,50.85,2,11.1-6.17,13.38-6.12,30.28a30.16,30.16,0,0,0,2.52,11.74,77,77,0,0,0,29.92-4.14c-.31-.58-.57-1.08-.76-1.47-2.51-5.06-4.67-11.89-1.12-17,3.85-5.54,23.52-13.77,27.26-19.39,9.92-14.89,9.52-22.66,11-40C87.45,101,83.47,82.83,69.63,75.39Z"/><path class="e" d="M19.91,196.7c4.33,10.2,13.31,18.1,19.39,22.59,2.41,1.78,18.88,2,21.77,1.18,5.49-1.45,9.72-5,9.28-11.18a6.06,6.06,0,0,0-3.77-5.39c-2.4-.77-5,.47-7.51.17-2.74-.33-7.16-7.64-9.24-11.51A77,77,0,0,1,19.91,196.7Z"/></svg>