<svg xmlns="http://www.w3.org/2000/svg" width="197.86" height="227.19" viewBox="0 0 197.86 227.19"><defs><style>.a,.h{fill:#0b0808;}.a{opacity:0.3;}.b{fill:#f7a669;}.c{fill:#d3834c;}.d{fill:#ffc197;}.e{fill:#d859aa;}.f{fill:#454136;}.g{fill:#fff;}.i{fill:#b5455d;}.j{fill:#231f20;}</style></defs><path class="a" d="M169.45,216.42c0,5.49-29.63,13.33-65.81,10-49.44-4.63-67.88-5.18-65.83-10,2.18-5.07,29.47-10,65.83-10S169.45,210.92,169.45,216.42Z"/><path class="b" d="M146.91,199.14c-3-14.64,7.31-6.48,13.3-3.39,4.31,2.23,11.4.82,15.37-1.91,11-7.52-3.09-14.11-2.93-5.18-10.93-7.14,3.13-19.55,12.4-18,11.1,1.79,15.8,17,10.85,26.3-6.05,11.41-25.22,20.53-37.57,16.06C152.77,211,148,204.67,146.91,199.14Z"/><path class="c" d="M25.29,165.08c4.4,1.47,9.35,1.34,12.82-1.11,2.54-1.79,3.59-6.78,4.93-6.9s15.59,9.3,22.87,10.1c3.32.37,7.12,0,9.3-2.44a11.5,11.5,0,0,0,2.07-4.17,195.62,195.62,0,0,0,7.46-30.67,23.35,23.35,0,0,0,.26-8.41c-2.55-12.42-17.55-4.94-21.31,2.58-2.59,5.2-5.14,20.84-5.7,21.12s-11.52-6.74-19.82-7.39c-15.47-1.19-17,11-18.29,16.4C18.9,158.14,20.88,163.6,25.29,165.08Z"/><path class="c" d="M120.31,202.79a11.77,11.77,0,0,0,.17-2.13c0-3.59-1.66-7.13-3.8-10.41-4.87-7.48-13.32-15.25-23.8-18.49-9.5-2.94-29.53-4.39-36.25,2.06a10.64,10.64,0,0,0-2.42,3.67c-4,9.61,2.49,20.65,15.51,26.34-5.12,1.15-11.25,2.62-11.26,8.39,0,8,31,7.77,31.75.22.34-3.17.19-2.95-.34-5.86,2.87,3.6,4.76,3.64,10,5.1s11.35,1.07,15.45-1.52A11,11,0,0,0,120.31,202.79Z"/><path class="b" d="M154.88,216.15c-8.48,1.18-27.9-.4-36.47.31-11.67,1-47.8-20.45-54.45-70.92-2.23-16.9,11.62-32.41,34-37.74,7.21-1.72,28-8.27,35.19-4.48,6.85,3.6,14,16.53,15.6,25.48,2.67,15.26,3.71,33.09,9.08,43.06C171.22,196.77,175,213.34,154.88,216.15Z"/><path class="d" d="M143.46,216.56a14.94,14.94,0,0,0-1.26-9.75c-1.57-3.15-4.17-5.84-6.41-8.69-12.89-16.43-13.35-37.45-18.45-56.74-.64-2.45-2.21-4.73-4.23-2.9-2.94,2.66-16,14.56-48.33-.66a2.94,2.94,0,0,0-.73-.13,28.62,28.62,0,0,0-.11,7.85c6.2,50.47,39.88,71.88,50.75,70.92C121.23,215.88,134.51,216.85,143.46,216.56Z"/><path class="c" d="M68.23,162.2c1.23.59,1.76-.57,3.64-.37a14.76,14.76,0,0,0,7.56-1.3c2.42-1.1,3.87-3.74,6.15-4.67s5.54,1.58,7.63,2.63a55.76,55.76,0,0,0,8.93,3.81c7.26,2.17,16,3.26,20.21-3.18,5.46-8.38,6.69-20.88,8.33-30.16.47-2.66-12.59-8.23-18.05-1.88a38.1,38.1,0,0,0-8.4,15.3c-.16.56-9.82-7-20.34-8.58-7-1.07-10.78,2.24-14.37,6.55C64.75,146.07,59.75,158.18,68.23,162.2Z"/><path class="c" d="M70.27,166.25a15.13,15.13,0,0,0,4.64,1.1,15.83,15.83,0,0,0,7.56-1.2c2.42-1,3.87-3.45,6.15-4.3s5.54,1.45,7.64,2.42a58.48,58.48,0,0,0,8.92,3.52c7.27,2,16.65,4.25,20.85-1.68,5.46-7.74,6.94-18.27,7.91-26.7.28-2.47.65-7.34.05-9.77-2.7-10.93-18.61-4.35-22.6,2.27-2.76,4.57-3.16,9.78-4.74,14.7a1.9,1.9,0,0,1-1,1.33,2.82,2.82,0,0,1-1.87-.14c-5.66-1.9-9.67-6.46-15.65-7.56S75.91,142,72.32,146C67.55,151.25,61.79,162.54,70.27,166.25Z"/><path class="c" d="M125.7,163.32s16.65,5.46,18.94,15.12c0,0-16.66-11.41-22.92-11.43Z"/><path class="b" d="M155,192.23c-3.87-9-11-16.38-21.18-22.21-8.47-4.87-28-7.84-35.47-.61a13.68,13.68,0,0,0-2.85,4.19c-5.17,11,0,24.24,12.24,31.47-5.23,1.12-12,2.75-12.22,9.31-.31,11.12,28.07,9.77,32,3,1.87-3.19-.53-8.59-2-11.93a22.47,22.47,0,0,0,11.28,10.12c5,1.95,11.17,1.76,15.57-1.08C155.45,212.54,160.22,204.29,155,192.23Z"/><path class="b" d="M71.35,163a13.2,13.2,0,0,0,4.5,1.19,13.91,13.91,0,0,0,7.32-1.3c2.34-1.1,3.75-3.74,6-4.66s5.37,1.57,7.4,2.62a54,54,0,0,0,8.64,3.82c7,2.16,15.51,3.25,19.57-3.18,5.3-8.39,6.48-20.89,8.07-30.17a20.65,20.65,0,0,0,.26-8c-2.62-11.84-18-4.71-21.88,2.46-2.67,5-4.78,20.34-5.35,20.6s-12.92-8.65-18.72-9.84-10.3.18-13.77,4.5C68.72,146.72,63.14,159,71.35,163Z"/><path class="e" d="M136.49,86.56c3.32,2,3.82,9.65,3.67,13.27-.15,3.45-2.11,11.78-21.35,22.38s-45.68,9.84-49.34,5.22C59.86,115.31,73,105.09,84.53,97c10.87-7.61,28.4-17.85,42.15-13.8C129.63,84.06,133.93,85,136.49,86.56Z"/><path class="f" d="M.16,17.87c-1.65,7.8,9.89,8.91,15,9.56,8.78,1.12,15.67,3.23,24.2,5.09C50.65,35,61.15,28.86,54.13,17.29,48.37,7.78,39.58-4,27.44,1.35,22,3.79,18,7.92,12.87,11,9.68,13,1.08,13.54.16,17.87Z"/><path class="b" d="M140.84,69.84c-.37,14.8-6.32,31-15.67,40.24-12.31,12.16-33.11,14.83-49.5,13.73-18-1.2-38.88-3.09-54.29-13.53-6.66-4.51-11.95-6.88-10.89-16,.72-6.13,4.64-11.34,5.58-17.41.78-5-.3-10.41.05-15.49.28-4.09,2.22-8.67,1.74-12.72-.43-3.55-3.3-6.24-3.54-10C13.53,26,30.2,19.77,40.25,17.36c12.36-3,27.24-2.87,38.67,3.28,5.13,2.76,7.2,3.15,14,3.27,5.49.09,10.57.65,15.29,2.59,13.67,5.6,25,11.88,30.31,27A46.32,46.32,0,0,1,140.84,69.84Z"/><path class="f" d="M84.91,93.48c1.8,3.18,3.51,6.32,2.47,10.64-5.1,21.27-38.62,11.52-51.09,8.63C-2.49,103.77-.23,85.82,4.65,68S31.61,41.37,54,48.27c10.52,3.25,23.65,11.38,27.7,23.22,1.91,5.56-.58,9.15.15,14.49C82.22,88.82,83.59,91.16,84.91,93.48Z"/><path class="f" d="M111.54,71.85C108,84.62,95.66,92,83.9,88.42S65.45,71.48,69,58.71s5.67-23.87,17.43-20.24S115,59.06,111.54,71.85Z"/><path class="g" d="M107.65,66.31c-.7,10.21-8.91,18-18.34,17.35S72.81,74.24,73.52,64s8.91-18,18.34-17.36S108.36,56.09,107.65,66.31Z"/><path class="h" d="M98.55,66.1c-.51,7.37-5.91,13-12.07,12.6S75.75,72,76.25,64.61s5.92-13,12.07-12.6S99.06,58.73,98.55,66.1Z"/><path class="g" d="M87.59,62.85c-2.69,2.53-6.1,3.32-7.61,1.76s-.57-4.87,2.12-7.41,6.09-3.32,7.61-1.76S90.28,60.32,87.59,62.85Z"/><path class="f" d="M45.59,46.49C43,56.18,33.67,61.81,24.85,59.06S11,46.24,13.65,36.55,33.27,23.4,42.09,26.14,48.22,36.79,45.59,46.49Z"/><path class="g" d="M41.07,42.59c-.5,7.3-6.3,12.85-13,12.4S16.46,48.27,17,41s6.31-12.84,13-12.4S41.58,35.3,41.07,42.59Z"/><path class="h" d="M34.9,42.1c-.4,5.71-4.3,10.11-8.73,9.82S18.49,46.74,18.88,41s4.3-10.12,8.72-9.82S35.29,36.38,34.9,42.1Z"/><path class="g" d="M27.05,40.2c-2.12,2-4.77,2.66-5.92,1.48s-.35-3.75,1.77-5.75,4.77-2.66,5.92-1.48S29.17,38.2,27.05,40.2Z"/><path class="h" d="M50.6,65.15c-1.34,5.3-9.2,7.88-17.54,5.76s-14-8.14-12.67-13.44,9.19-7.88,17.54-5.76S52,59.84,50.6,65.15Z"/><path class="g" d="M30.42,60.56c-3.63.36-6.72-.92-6.92-2.85s2.58-3.79,6.2-4.15,6.72.92,6.92,2.85S34,60.2,30.42,60.56Z"/><path class="h" d="M29.63,88.31a1.83,1.83,0,0,1-1.54-1.51C25.2,75.56,31,68.5,31.2,68.21a1.51,1.51,0,0,1,2.52.06,2.8,2.8,0,0,1-.13,3.25c-.19.23-4.24,5.36-2.1,13.69a2.59,2.59,0,0,1-1.14,3A1.54,1.54,0,0,1,29.63,88.31Z"/><path class="i" d="M24.51,87.19c1.77-.67,4.42.44,5.95,1.16,3.75,1.78,7.13,4.38,11.09,5.89,4.72,1.81,9.46,3.62,14.54,4.35,3.93.57,12.26-2.36,7.72,4.75-3.86,6-12.34,7.37-19.23,6A21.73,21.73,0,0,1,30,99.26c-1.32-2.31-2.14-4.89-3.6-7.14C25.4,90.67,21.63,88.28,24.51,87.19Z"/><path class="h" d="M61.12,101.14c-11.23.8-28.12-9.65-32-12.19-8.93,3.91-14.89,4.43-18.2,1.6a7.36,7.36,0,0,1-2.3-6.42,1.77,1.77,0,0,1,2.05-1.58,2,2,0,0,1,1.48,2.22,3.37,3.37,0,0,0,1,2.78c1,.86,4.6,2.33,15.41-2.55a1.69,1.69,0,0,1,1.64.15C36.76,89.6,55.71,100.33,64,96.55c2-.92,3.25-2.7,3.77-5.43a1.77,1.77,0,0,1,2.11-1.48,2,2,0,0,1,1.39,2.3c-.75,4-2.72,6.76-5.84,8.18A12.33,12.33,0,0,1,61.12,101.14Z"/><path class="f" d="M127.11,40.26A36.25,36.25,0,0,0,111,48.09c-1.69-3.15-1.47-7.27,1.83-12,6.8-9.81,17-21.82,29.89-14.5,5.83,3.31,9.86,8.3,15.28,12.32,3.35,2.49,12.65,4.11,13.4,9a5.82,5.82,0,0,1-1.54,5.33c-4.65-1.53-9.17-3.65-13.8-5.29C146.79,39.65,136.65,38.26,127.11,40.26Z"/><path class="j" d="M127.11,40.26c9.54-2,19.68-.61,28.9,2.66,4.63,1.64,9.15,3.76,13.8,5.29-3.39,3.41-11.21,3.38-15.3,3.48-9.58.23-17.19,1.77-26.55,2.85-7.48.86-14.45-1.69-17-6.45A36.25,36.25,0,0,1,127.11,40.26Z"/></svg>