<svg xmlns="http://www.w3.org/2000/svg" width="191.79" height="261.87" viewBox="0 0 191.79 261.87"><defs><style>.a{fill:#b7885e;}.b{fill:#dd802c;}.c{fill:#231f20;opacity:0.25;}.d{fill:#dbae82;}.e{fill:#ffd6a9;}.f{fill:#ef9337;}.g{fill:#1b75bc;}.h{opacity:0.2;}.i{fill:#0b0808;}.j{fill:#fff;}</style></defs><path class="a" d="M26.77,193.52a52.5,52.5,0,0,0,13.47,10.14c1.22.64,2.66,1.2,3.8.45s1.45-2.41,1.16-3.87c-1.2-6.08-8.2-8.75-12-12.2a73,73,0,0,1-9-9.92c-2.69-3.56-4.49-7.83-8.14-10.21a1.73,1.73,0,0,0-1.24-.4c-.55.11-.92.72-1.1,1.35a8.75,8.75,0,0,0,.74,5.39A61.75,61.75,0,0,0,26.77,193.52Z"/><path class="b" d="M18.5,181.29l.32,0a2.88,2.88,0,0,0,2.1-.64,11.72,11.72,0,0,0,1.29-2.18,4,4,0,0,0,4.19-1.81,5.29,5.29,0,0,0-.55-5.08c-.72-1.14-1.87-2.08-3.06-1.83,3.26-3,.24-6.81-2.64-7.37-.3-.06-3.43.56-3.11.92-2.82-3.23-9.48-3.27-7.9,3.24a2.69,2.69,0,0,0-3.09,2.05,3.21,3.21,0,0,0,1.61,3.72A4.88,4.88,0,0,0,6.54,176a4.68,4.68,0,0,0,2,2.89,4.36,4.36,0,0,0,6-1A4.31,4.31,0,0,0,18.5,181.29Z"/><path class="c" d="M24.29,242.61c0,9.58,31.46,21.2,71.45,19,39.11-2.16,71.89-9.41,72.69-17.33,1-9.56-32.54-17.33-72.69-17.33S24.29,233,24.29,242.61Z"/><path class="d" d="M86.4,201.59c3.81-6.24,10.74-14.12,17.19-15,3-.41,5.34.6,8.38-.27s5.62-2.18,8.8-2.06c10.79.4,21.42,12.35,15.76,26.71a20.17,20.17,0,0,1-12.82,12.2c3.63.87,8,2.59,8.77,7.21a8.88,8.88,0,0,1-4.11,8.73c-2.61,1.51-5.59,1.43-8.46,1.32l-6.68-.26c-6.82-.27-13.84-.59-20.07-4.16a23.31,23.31,0,0,1-11.41-20A28.86,28.86,0,0,1,86.4,201.59Z"/><path class="d" d="M36.78,218.1c-.45-5.39,1.25-11.14,3.94-16.9,6-12.83,15.05-29.25,26.88-40.45,10.83-10.26,24-16.13,39.27-10.87,10.65,3.67,17.49,10.67,21.06,19.13l1.19-.62c7.3,11.87,8.09,23.72-.68,35.05-3.93,5.07-8.91,9.19-13.85,13.28-18,14.91-44.37,27.3-70.9,22.28C37.19,237.77,37.22,223.15,36.78,218.1Z"/><path class="e" d="M101.44,177.65s-30.46,42.18,8,67l-22,7.23s-44.06-14.65-2.57-88Z"/><path class="e" d="M116.25,243.38c1.86,6.39-3.64,12.93-12.29,14.61s-17.16-2.14-19-8.53,3.64-12.93,12.29-14.61S114.39,237,116.25,243.38Z"/><path class="e" d="M123.79,166.91s21,24.89,21.11,66.48l22.81-.63s2.21-55.27-37.37-82.49Z"/><path class="f" d="M161.73,166.66c0-.31,0-.62-.07-.94a9.24,9.24,0,0,0-4.18-6.42,7.65,7.65,0,0,0,.56-4c-.5-3.71-3.66-6.5-7.66-7.22-1-4.42-5.84-7.36-11.18-6.64-.42.06-.83.14-1.24.24-1.57-3.69-6-6-10.76-5.35-.34.05-.67.11-1,.18a10.84,10.84,0,0,0-8.65-2.45,11.81,11.81,0,0,0-3.71,1.14,11,11,0,0,0-8-1.88,11.25,11.25,0,0,0-6.46,3.13,11.17,11.17,0,0,0-7.06-1.3,11,11,0,0,0-7.17,3.92,11.67,11.67,0,0,0-3.88-.12,10.81,10.81,0,0,0-7.69,4.66,8.61,8.61,0,0,0-1,.09c-4.8.65-8.43,4-9,8a10.69,10.69,0,0,0-1.26.1c-5.34.72-9.22,4.83-9,9.36-3.67,1.76-6,5.29-5.47,9a7.69,7.69,0,0,0,1.61,3.73,9.24,9.24,0,0,0-2.33,7.3,7.15,7.15,0,0,0,.19.92,7.54,7.54,0,0,0,.06.94,9.24,9.24,0,0,0,4.18,6.42,7.65,7.65,0,0,0-.56,4c.5,3.71,3.66,6.5,7.66,7.22,1,4.42,5.84,7.36,11.18,6.64.42-.06.83-.14,1.24-.24,1.57,3.68,6,6,10.76,5.35.34,0,.67-.11,1-.18a10.86,10.86,0,0,0,8.65,2.45,11.49,11.49,0,0,0,3.71-1.15,11,11,0,0,0,7.95,1.89,11.2,11.2,0,0,0,6.46-3.14,11.19,11.19,0,0,0,7.07,1.31,11,11,0,0,0,7.16-3.92,11.94,11.94,0,0,0,3.88.12,10.81,10.81,0,0,0,7.69-4.66c.34,0,.67,0,1-.09,4.8-.65,8.43-4,9-8,.42,0,.84,0,1.26-.1,5.34-.72,9.22-4.84,9-9.36,3.67-1.76,6-5.29,5.47-9a7.69,7.69,0,0,0-1.61-3.73,9.24,9.24,0,0,0,2.33-7.3A9.35,9.35,0,0,0,161.73,166.66Z"/><path class="e" d="M138.42,235.43c0,6.88,6.74,12.25,15,12s15-6,14.94-12.89-6.74-12.26-15-12S138.4,228.55,138.42,235.43Z"/><path class="g" d="M151.82,136.7c2.43,5,3.16,13.93,1.35,19.07-1.72,4.89-5.31,9.32-8.66,12.54-7.41,7.12-17,10.75-26.36,11.94-13.73,1.76-28.08,2.6-40-7.38-6-5-11-10.17-12.64-19.14-4.17-23.54,13.74-30.08,29.1-34.53,14.46-4.19,36.83-8,48.86,6.48C146,128.79,149.94,132.86,151.82,136.7Z"/><path class="e" d="M54.33,142a13.31,13.31,0,0,0-3.76-4A11.37,11.37,0,0,0,46,136a10.64,10.64,0,0,0-3.69,0c-8.24,1.45-12.56,11.3-10.71,18.91,2.48,10.15,7.5,19.27,9.18,29.83,1.15,7.19,2.51,14.1,5.69,20.73a21.29,21.29,0,0,0,4.76,6.91A9.53,9.53,0,0,0,59,215c3.24-.57,5.77-3.3,7-6.36,4.89-12-4.63-39.2-8.88-50.43C54,149.82,59,149.58,54.33,142Z"/><path class="e" d="M29.11,159.28c4.13,9.08,13.85,14.2,22.4,10.78s12.66-13.86,8.54-23.16c-4-9.1-13.27-14.82-21.81-11.41S24,148,29.11,159.28Z"/><path class="e" d="M30.51,187.46a54.54,54.54,0,0,0-2,33.19c1.42,5.49,3.81,10.81,7.63,14.45s9.2,5.35,13.84,3.39c6.72-2.84,9.75-12,10.42-20.22.82-10.29-1.88-21.56-7.61-29.53C46.39,179.81,35.62,174.54,30.51,187.46Z"/><path class="a" d="M53.61,146.27a3.24,3.24,0,0,0,.43-2.79,5.3,5.3,0,0,0-3.78-3c-.57-.08-4.61,2.15-3.79,3.18-1.16-1.46-3.44-3.07-5.1-2.25a4,4,0,0,0-2,4.57c-2.06-1.47-5.9-1.24-7,1.26a3.75,3.75,0,0,0,3.22,4.92c-.4,2.68-.52,5.74,1.38,7.77,1.66,1.79,4.39,2.17,6.82,2,6.55-.51,13.91-4.18,12.1-11.67a5,5,0,0,0-2.79-3.51A3.5,3.5,0,0,0,53.61,146.27Z"/><path class="f" d="M188.86,83.82a8,8,0,0,1,2.5,3.11c1.08,2.62,0,5.72-1.87,7.82s-4.49,3.42-7,4.68c3.21,1.45,5,5.24,4.6,8.73a12.67,12.67,0,0,1-5.46,8.66,13.92,13.92,0,0,1-10.44,2.55,22.18,22.18,0,0,1-6.94-3c-11.67-6.82-23.16-16.09-26.7-29.15-3.2-11.82,6.18-21.84,17.5-16,5.5,2.84,9.49,6.08,15.81,7.47C176.93,80.06,183.72,79.72,188.86,83.82Z"/><path class="h" d="M162.54,75.47c-2.44-1.33-4.79-2.83-7.51-4.23-11.32-5.83-20.7,4.19-17.5,16,.14.52.3,1,.46,1.52a17.37,17.37,0,0,0,1.51-3.21,19.36,19.36,0,0,0,11.33-.06A18.84,18.84,0,0,0,162.54,75.47Z"/><path class="f" d="M3.49,98.8a8.94,8.94,0,0,0-2.91,3.35c-1.3,2.85-.28,6.34,1.71,8.74s4.79,4,7.53,5.47c-3.6,1.48-5.72,5.61-5.47,9.5A14,14,0,0,0,10,135.67a15.25,15.25,0,0,0,11.39,3.26,24.3,24.3,0,0,0,7.78-3C42.33,128.83,55.41,119,59.9,104.69c4.07-13-5.82-24.46-18.56-18.46-6.2,2.92-10.74,6.35-17.76,7.64C16.81,95.11,9.33,94.46,3.49,98.8Z"/><path class="h" d="M41.34,86.23c-6.2,2.92-10.74,6.35-17.76,7.64-3.63.67-7.45.81-11.12,1.44,0,0,0,.07,0,.1a16.18,16.18,0,0,0,12.19,10.85,13.79,13.79,0,0,0,.54,2.5c2.67,8.71,12.6,13.39,22.18,10.45a19.6,19.6,0,0,0,7.35-4.15,38.25,38.25,0,0,0,5.16-10.37C64,91.72,54.08,80.23,41.34,86.23Z"/><path class="e" d="M146.52,83.14c-6.16-9-14.13-16.49-21-24.6-5.49-6.46-10.06-11.32-17.92-13.69A38,38,0,0,0,86.2,45h0l-.59.19-.59.17v0A38.1,38.1,0,0,0,67.25,57.22c-5.17,6.37-6.23,13-7.15,21.39-1.17,10.59-3.58,21.25-3.62,32.17,0,8.57.67,17.43,4,25.45,5.5,13.27,16.63,46.42,62.63,31.12,46.65-13.13,37.27-46.83,34.38-60.9C155.74,98,151.36,90.22,146.52,83.14Z"/><path class="h" d="M148.58,86.25c-.67-1-1.36-2.09-2.06-3.11-6.16-9-14.13-16.49-21-24.6-5.49-6.46-10.06-11.32-17.92-13.69A38,38,0,0,0,86.2,45h0l-.59.19-.59.17v0A38.1,38.1,0,0,0,67.25,57.22c-5.17,6.37-6.23,13-7.15,21.39-1.17,10.59-3.58,21.25-3.62,32.17,0,.87,0,1.75,0,2.63a18.93,18.93,0,0,0,3.28-3.16,18.64,18.64,0,0,0,16.63,2.62,19.54,19.54,0,0,0,7.44-4.21,18.56,18.56,0,0,0,17.25,3.11,21,21,0,0,0,2.51-1,20.51,20.51,0,0,0,2.61-.61A18.56,18.56,0,0,0,118.75,98a19.44,19.44,0,0,0,8.51-.69,18.62,18.62,0,0,0,12.3-11.51A19.08,19.08,0,0,0,148.58,86.25Z"/><path class="i" d="M125,101.44l.3,0a95.86,95.86,0,0,1,13.43,1.14,2.12,2.12,0,1,0,.67-4.18h0c-2.82-.45-5.72-.78-8.67-1,3.19-2.73,6.45-5.42,9.75-8a2.11,2.11,0,0,0-2.62-3.32c-4.76,3.75-9.44,7.68-13.93,11.66a2.12,2.12,0,0,0,1.07,3.68Z"/><path class="i" d="M82.78,115.85a1.44,1.44,0,0,1-.25.18,94.61,94.61,0,0,0-11,7.73,2.12,2.12,0,0,1-2.68-3.28h0c2.21-1.8,4.56-3.54,7-5.19-4.13-.76-8.3-1.45-12.46-2A2.12,2.12,0,0,1,64,109c6,.87,12,1.91,17.9,3.11a2.12,2.12,0,0,1,.93,3.71Z"/><path d="M117.19,120.38a23.33,23.33,0,0,0-6.72.71h0a23.16,23.16,0,0,0-6,3.19c-1.94,1.48-4.48,4.15-3.26,7.31,3.11,8,8,9.18,14.76,7.54h0c6.5-2.42,9.91-6.14,8-14.53C123.23,121.3,119.63,120.52,117.19,120.38Z"/><path class="j" d="M112.46,124.51c1,1.23-.15,3.89-2.62,5.94s-5.29,2.71-6.31,1.48.15-3.89,2.61-5.94S111.44,123.28,112.46,124.51Z"/><path d="M121.72,152.27a1.59,1.59,0,0,1-2.12-.8l-5.82-12.81a1.61,1.61,0,1,1,2.93-1.33l5.81,12.82A1.6,1.6,0,0,1,121.72,152.27Z"/><path d="M100.27,153.79a1.91,1.91,0,0,0,.91-.11,24.16,24.16,0,0,1,17.16-.25l.14,0a6,6,0,0,0,3.24.52,6.13,6.13,0,0,0,3-1.69l.16-.14a18.82,18.82,0,0,1,7.86-4,1.8,1.8,0,1,0-.84-3.51,22.3,22.3,0,0,0-9.39,4.83l-.17.14a3.74,3.74,0,0,1-1.23.86,3.61,3.61,0,0,1-1.38-.35l-.15-.06a27.86,27.86,0,0,0-19.76.29,1.81,1.81,0,0,0,.44,3.47Z"/><path class="f" d="M164.45,39.91a15.75,15.75,0,0,0-8.78-9.71,15.14,15.14,0,0,0-.19-8.25c-2.67-8.71-12.6-13.39-22.18-10.45a19.81,19.81,0,0,0-6.22,3.2,14.92,14.92,0,0,0-.58-2.84c-2.67-8.71-12.6-13.38-22.18-10.44a18.88,18.88,0,0,0-11.38,9.36C90,2.42,80.31-2,70.93.88c-.33.1-.65.21-1,.33s-.67.17-1,.27C59.58,4.36,54,13.47,56.3,22a18.88,18.88,0,0,0-14.67-1.36C32.05,23.6,26.45,33,29.12,41.75a15,15,0,0,0,1.12,2.67,19.63,19.63,0,0,0-6.94.85C13.72,48.21,8.12,57.65,10.79,66.36a15.16,15.16,0,0,0,4.47,6.93,15.8,15.8,0,0,0-1.82,13A16.23,16.23,0,0,0,25.63,97.11a15.6,15.6,0,0,0,.54,2.49c2.67,8.71,12.61,13.39,22.19,10.45a19.26,19.26,0,0,0,9.41-6.31,18.66,18.66,0,0,0,16.64,2.63,19.51,19.51,0,0,0,7.43-4.22,18.54,18.54,0,0,0,17.25,3.11,18.83,18.83,0,0,0,2.51-1,20.57,20.57,0,0,0,2.61-.62,18.56,18.56,0,0,0,12.54-12.25,19.64,19.64,0,0,0,8.52-.68,18.65,18.65,0,0,0,12.29-11.51,19.23,19.23,0,0,0,11.34-.06c9.58-2.94,15.18-12.38,12.5-21.09a14.47,14.47,0,0,0-1-2.37A16.22,16.22,0,0,0,164.45,39.91Z"/></svg>