<svg xmlns="http://www.w3.org/2000/svg" width="283.97" height="228.31" viewBox="0 0 283.97 228.31"><defs><style>.a{fill:#8c5522;}.b{fill:#231f20;opacity:0.3;}.c{fill:#c68947;}.d{fill:#b27436;}.e{fill:#d6d6d6;}.f{fill:#f2bb79;}.g{fill:#0b0808;}.h{fill:#fff;}.i{fill:#552d0a;}.j{fill:#912f41;}</style></defs><path class="a" d="M233.31,161.05c-1.09,1-2.19,2-3.29,3.08-9.1,8.7-22.47,16.34-35.07,10.47-16.42-7.66-6.6-23.62,2.58-32.78,4.75-4.75,12.11-7.34,16.33-12.54,1.06-1.29,5.24-11.79,4.54-11.33-2.22,1.5-6,1.67-8.21,3.15.82-2.5.13-6.06,1-8.56-5,1.49-8.13,5.65-11.52,9.52l-1.56-.62c.33-3-1.29-5.77-1.37-8.55.07,2.42-8.46,11.68-10,14.3-.67-3-2.85-7.12-3.54-10-2.16,1.71-4.83,3.89-6.37,6.27-1.12-6.27,1.83-14.09,5.75-19.42-4.37,1.77-8.84,3.91-13.3,4.38,6.3-9,12.91-17,23.36-21.53-1.95-.34-5.92-2.08-8.13-2.13,7.39-4.34,16.39-4.57,23.83-8.66C207,75,206,72.65,204.47,71.47c4.72-2.71,26.25-1.51,27.54,4.46-.7-3.23-.64-6.7-2.45-9.81,6.89,5.36,12.91,11.83,16.5,20.95a24.66,24.66,0,0,1,5.3-9.43c2,7.51,6.25,16.13,4.6,24.55,1.27-3.3,4.14-6.19,6.24-8.3,1.42,6.49-.16,17.23-3.2,21,2.29-2,4.9-3.14,7.6-4.63-1.87,5.55-6.47,13.53-8.73,16.19,1.28-.54,3.18-1,4.31-1.62-2.89,6.28-9.06,13-13.76,18.15,3.77-2.45,6.4-2.12,9.65-2A310.34,310.34,0,0,0,233.31,161.05Z"/><path class="a" d="M8,162a10.85,10.85,0,0,1-1.19-3.72c0-.12,0-.25,0-.37s0-.32,0-.48,0-.23,0-.35a3.12,3.12,0,0,1,0-.44,3.43,3.43,0,0,1,.06-.34,3.17,3.17,0,0,1,.12-.41c2.14-6.49,16.45-8.41,22-9.05a2.9,2.9,0,0,0-1.9-1.48c1.95-2.28,8.14-1.59,11-2.45a5.82,5.82,0,0,0-2.46-1.66,8.87,8.87,0,0,1,5.32-1.92c1.42-.13,2.83-.19,4.24-.31,3.23-.29,6.6-1.8,10.09-1.95,8.35-.37,20.78,5.17,24.87,13.57,5.9,12.17-5.63,20.74-15.88,20.92-4.86.09-9.42,1.13-14.18,1.36-2,.09-4.66.38-6.55-.29.33-.27.78-1.12,1.18-1.38-2.69-.29-7.23-.94-9.28-2.69a28,28,0,0,0,3.34-.8c-1.82.78-7.22-4.4-9.32-4.85-3.63-.78-6.82.29-9.95,2C15,167.26,10.22,166,8,162Z"/><path class="b" d="M284,186.69c0,22.47-63.57,40.68-142,40.68S0,209.16,0,186.69,63.57,146,142,146,284,164.21,284,186.69Z"/><path class="a" d="M280.64,171.51a10.72,10.72,0,0,0,1.19-3.71l0-.38a3.62,3.62,0,0,0,0-.47c0-.12,0-.24,0-.35s0-.3-.05-.44l-.06-.34-.12-.41c-2.14-6.5-16.46-8.42-22-9a2.9,2.9,0,0,1,1.9-1.48c-1.95-2.29-8.14-1.6-11-2.45a6,6,0,0,1,2.47-1.67,9,9,0,0,0-5.32-1.91c-1.42-.14-2.83-.19-4.25-.31-3.22-.29-6.59-1.8-10.08-1.95-8.35-.37-20.79,5.16-24.87,13.57-5.91,12.17,5.63,20.74,15.88,20.92,4.85.09,9.42,1.13,14.17,1.35,2,.1,4.67.38,6.56-.28-.33-.28-.78-1.12-1.19-1.39,2.69-.28,7.24-.93,9.29-2.68a29.5,29.5,0,0,1-3.34-.8c1.81.78,7.21-4.4,9.32-4.85,3.62-.78,6.82.29,9.95,2C273.6,176.83,278.38,175.61,280.64,171.51Z"/><path class="c" d="M75.69,179.66c-1.52-.34-4.23-.34-6.37-1a4.19,4.19,0,0,1-2.89-2.34c-1.08-2.83,2.68-6.83,2.84-10,.23-4.46-.58-8.15-3.89-10.92-6.8-5.66-21-3.88-27.87.37-7.45,4.59-22.08,23.89-12.67,32.77.86-1.17,2.69-2.11,3.51-3.49,2.33,5.64,1.38,14.42,6.64,18.8.07-1.14.55-2.37.69-3.33-1.46,10,33.5,10.84,38.91,6.35a18.92,18.92,0,0,1-6.25-2C77.34,209.31,96.49,184.3,75.69,179.66Z"/><path class="d" d="M28,140.66c3.43,7.57,6.91,12.75,13.17,17.23,7.48,5.34,13.42,13,20.56,18.87,16.41,13.44,35.76,19.78,55.82,22.58,15,2.09,30.5,4.16,45.56,1.43,6.84-1.23,13.22-4.13,20.09-5.16,5.43-.83,9.76-1.88,14.53-5.17C207,184,212.48,174.17,220.08,166c6.47-7,11.68-14.14,10.35-24.91-1.56-12.66-2.25-25.18-8.77-36.21S204.34,84,194.5,76.48a119.66,119.66,0,0,0-44.62-20.69c-30.68-7-68.74-9.84-98.09,4.89C24.08,74.6,14.55,111,28,140.66Z"/><path class="e" d="M109.44,132.14c45.33,0,83.69,21.53,96.57,51.21a54.58,54.58,0,0,1-8.25,7.09c-4.77,3.29-9.1,4.34-14.53,5.17-6.87,1-13.25,3.93-20.09,5.16-15.06,2.73-30.54.66-45.56-1.43-20.06-2.8-39.41-9.14-55.82-22.58-7.14-5.84-13.08-13.53-20.56-18.87a35.17,35.17,0,0,1-4.29-3.6C55.29,140.63,81,132.14,109.44,132.14Z"/><path class="d" d="M226,207.19a40.76,40.76,0,0,0,14-18.74c.3.89,1.66,2.86,2,4.06,9.17-19-3.94-58.29-25.29-64.32-13.8-3.9-30.85,7.5-23.09,25.26,2.41,5.53,5.81,6.47,2.16,12.55-2.36,3.93-6.42,6.48-10.14,8.5-8.15,4.42-17.19,6.27-25.89,8.8-8,2.33-15.47,3.7-18.43,13.95-2.69,9.31-.14,20.17,8.93,23.5,8.84,3.25,20.26-3.77,29-5.25,4.15-.7,29.43-3,31-6.37a20.6,20.6,0,0,1-4.25,5.61C213.05,214.55,220.07,211.65,226,207.19Z"/><path class="f" d="M221.56,128.8c-1.55-9-12.06-19.58-17.92-26.17a60,60,0,0,1-7.89-10.71c-2.93-5.09-2.89-10.76-8.18-13.72-4.61-2.57-12.9-3.63-18.12-4.61-13.8-2.6-28-1.84-41.88-3.28-2.7-.28-5.42-.53-8.14-.77v-.13l-.8.06-.81-.07v.12c-2.72.18-5.45.37-8.16.58-16.53,1.33-35.11-.41-50.94,4.32-8.08,2.42-16.12,4.54-24,7.36-2.87,1-5.81,1.73-8.28,3.34-2,1.28-6.06,8.19-7.93,8.39A47.48,47.48,0,0,0,24.68,92c-4.1,1-12.26,19.85-9.53,22.36a24.23,24.23,0,0,1,4.45-2c.19,4.72-4.33,9.33-5.27,14.06-1.09,5.54-2.14,11.75-1.79,17.37,2.07-.76,3.74-3,6.16-3.48.6,9.51,1.57,19.69,8.27,27.5,1-1.78,1.52-3.68,3-5.27.06,5.31,2.54,10.54,4.7,15.5,1.18,2.71,3.68,10,6.51,11a21.56,21.56,0,0,1,1.32-5.69c-1.14,2.66,9.48,9.62,11.1,11.51,3.83,4.47,7.49,9,12.56,12.28.22-2.61-.27-5.39,1.27-7.45,2.35,3.11,9.49,9.43,13.09,10,.35-2.22.78-4.39,1.24-6.58,3.66,3.24,7.32,6.67,11.63,8.66a27.12,27.12,0,0,1,2.76-8.49c.46-.82,11.61,7.89,12.15,10,.79-2.32,1.6-5.17,2.93-7,2.48,3.13,1.92,7.6,4.86,10.4,2.26-3.89,4.35-8.11,7.21-11.58-.27,3.4,1.12,6.44,1.33,9.76,3.69-4.93,10-9.23,15.42-12.08a14.93,14.93,0,0,1-.92,7.56c6.41-1.61,13.58-6.66,18.81-10.71a53.34,53.34,0,0,1-.43,8.52c4.57-.58,10.31-6.38,14.31-8.84-.07,2.73-1.7,4.76-1.4,7.57,3-1.75,23.51-17.43,21.74-21.83a21.7,21.7,0,0,1,1.18,5.73c2.86-1,5.53-8.18,6.77-10.86,2.27-4.91,4.87-10.08,5.05-15.39,1.41,1.62,1.86,3.54,2.85,5.34,6.87-7.65,8.08-17.81,8.9-27.3,2.41.52,4,2.81,6.08,3.62C223.44,140.59,222.52,134.36,221.56,128.8Z"/><path class="c" d="M216.59,112.28a6.38,6.38,0,0,1,4.55,1.59c-1.93-9.28-9.43-18.5-7.79-27.75-.08.46,2.27,2.14,2.65,2.44-2.6-6.49-1.6-13.77-3.69-20.47.8.32,2,.48,2.72.78,0-8.16-3.2-16.1-9.46-20.8a36.44,36.44,0,0,1,10-.7c-5.05-7.72-30.56-26-39.19-26.61,2-2,5.81-2.71,7.71-3.74-3.31-1.77-21.45-7.91-24.37-4.39,1.8-2.17,4.7-3.5,5.94-6-3.73-.5-8.7,1.15-12.52,1.56-3.62.39-7.28.78-10.34,2.75,1.08-2.1,3-3.94,4.39-5.86-6.82-1.06-16.21,3-22,6.2C122.58,5.74,113.59,3.18,107.65,3c1.52,1.87,2.35,4.38,3.25,6.61-4-1.24-7.17-4.11-10.8-6C98.81,3,86.35,0,86.35,0c.9,4.08,4.2,8,7,11.55C87,6.34,79.18,8.72,71.94,8.89,65.38,9,59.3,6.51,53.83,10.24,55,9.48,61,13,62,13.71c-9.55,7.82-19.38,10.46-23,23.35-3.31,11.8-11.75,22.3-13.22,34.5.77-.28,1.36-.67,2.12-1,.07,5.72-2.34,11-4.2,16.31-1.63,4.67-2.08,9.59-3.1,14.46-.41,1.94-2.65,6.58-1.51,8,1.68-1.53,3.36-4.88,5.33-5.58-2.44.87,5,26.94,5.76,29.38,1,3,1.68,6.51,3.24,9.24,3.06-1.79,3-4,4.56.65,1.08,3.12,3.12,7.59,5.64,9.71a16.91,16.91,0,0,1,3.13-8c.55,2.66,2.81,4.35,4.35,6.34.5.65,5.69,6.35,5.68,6.43.18-1.41,1.23-2.83,1.23-4.43,1.49,3.23,4.37,3.11,6.39,5.55,2.6,3.14,3,7.88,6,10.75.49-1.77,2-3.33,2.59-4.92.93,5.51,6.31,16.34,12.29,17.08.71-2.21,1.38-4.25,2.12-6.45,4,2.43,8.58,9.15,11.82,13.13a9.91,9.91,0,0,1,3.23-5.18c1.58,2.81,3.93,7.09,7.44,6.22,3.14-.77,2.34-5.49,6.87-4.82-.29,12.9,13.41.23,18.49.2-.06,1.37.73,2.58.55,4,3.84-.92,5.75-3.66,8.62-6,3.26-2.67,3.27-2.15,7-2.46,5.15-.45,12.36-2.7,15.59-7.61a54.82,54.82,0,0,0-2.69,4.9c6.26-1.59,10.83-8.8,17.56-9.92-.4,1.84-1.33,3.59-1.27,5.57,7.14-4.23,13.89-10.84,19.35-17.44.46,2.66-.25,5.69-.28,8.46,3.11-2.33,4-10.19,5.31-13.95,1.69-5,2.29-12.6,5-16.83,2.06,1.58,3.09,5,5.6,5.64C216.83,130.14,215.32,121.23,216.59,112.28Z"/><path class="f" d="M164.47,123.86a18.73,18.73,0,0,0,2.14.16,31.4,31.4,0,0,0-5.25-8.32c-7-8.42-15-17.41-26.69-18.65-6.49-.69-13.06.25-19.59-.6-8.24-1.08-17.08.37-24.85,3.17a31.51,31.51,0,0,0-8.76,4.89c-4.9,3.78-12.65,12-12.45,18.68,1.24-.16,2.53-.9,3.88-.78.24,2.21-1.15,3.89-1.89,5.88a39.32,39.32,0,0,0-1.69,8.41,34,34,0,0,0,.82,12.4c.35-.55,1.35-1.08,1.79-1.59,1.68,3.73,3,10.85,6.7,13.12a29.31,29.31,0,0,0,1.13-2.77c1.48,2.49,4.19,6.91,7.19,7.67a12.21,12.21,0,0,1,1.29-2.9c-1,1.44,7.22,7,8.27,7.8a36.24,36.24,0,0,0,3.18-4.64c1.8,2.36,3.28,6.72,6.11,8,.45-1.11.9-3.09,1.6-4,2.09-2.85,7.89,3,9.51,5.46,1.78-1.15,3.38-3.87,5.64-4.25,2.8-.45,2.34,2,3.44,3.93a31.38,31.38,0,0,0,6.69-5.26c.71,1.81,2.42,3.35,2.63,5.08s8.12-5.08,8.68-5.73c1.76-2,5.12-7.23,6.35-2a19.56,19.56,0,0,0,3-4.14c4.25-6.92,8.83-13.9,11.12-21.77.91-3.09,1.16-16.89-3.35-17.79C162.23,123.52,163.34,123.73,164.47,123.86Z"/><path class="g" d="M141.64,102.41c.21,18.8-48.42,16.34-46.73-1.71.94-10.1,16.87-8.41,23.94-8.5C125.73,92.12,141.52,92.52,141.64,102.41Z"/><ellipse class="h" cx="110.05" cy="99.43" rx="10.42" ry="4.41" transform="translate(-4.19 4.84) rotate(-2.47)"/><path class="f" d="M176.4,20.76c2-2,5.81-2.71,7.71-3.74-3.31-1.77-21.45-7.91-24.37-4.39,1.8-2.17,4.7-3.5,5.94-6-3.73-.5-8.7,1.15-12.52,1.56-3.62.39-7.28.78-10.34,2.75,1.08-2.1,3-3.94,4.39-5.86-6.82-1.06-16.21,3-22,6.2C122.58,5.74,113.59,3.18,107.65,3c1.52,1.87,2.35,4.38,3.25,6.61-4-1.24-7.17-4.11-10.8-6C98.81,3,86.35,0,86.35,0c.9,4.08,4.2,8,7,11.55C87,6.34,79.18,8.72,71.94,8.89,65.38,9,59.3,6.51,53.83,10.24,55,9.48,61,13,62,13.71,55.24,19.24,48.36,22.19,43.63,28a14.81,14.81,0,0,1,1.95-.75c5.37-1.61,11.66-.48,17.08-2.69-1.5.61-2.24,1.65-3.33,2.42,7.77.28,15.63-3,23.46-2.26-.94.84-1.76,2.79-2.41,3.55,2.63-3.08,15.76-1.06,19.14-.33a7,7,0,0,0-4,5c5.29-1.83,10.69-4.86,16.34-4A47.5,47.5,0,0,0,105.75,37c3.9,0,7.25-4.1,11.32-3.83-.14,3.48-2.06,8.23-.89,11.29,3.43-2.48,5.49-6.64,9-9,1.36,3.78,5.59,8.25,8.63,10.06.51-3.48.69-6.94,1.65-10.31a28.53,28.53,0,0,0,10.89,7.88c3.14-3,.12-7,.44-10.64,4.16,2.18,8.75,6.93,13.7,7-.1-2.92-2.37-5.21-3.5-7.91.67,1.6,19.27,2.67,21.72,2.89,6.47.58,14.26.25,20.32,3,3.12,1.4,5.52,3.11,8.14,4.37C201.12,33.94,184.56,21.31,176.4,20.76Z"/><path class="a" d="M210.3,27.62l-.78-.07c-6.39-.58-12.8-1.41-19.09-1.65-6.77-.25-14.7-.72-20.89,2.57-2.22,1.18-6.5,4.53-5.93,7.59.42,2.22,11.3,5.76,11.92,4.91a12.67,12.67,0,0,1-1.67,1.69c.2-.18,12.86,2.18,14.31,2.32A10.4,10.4,0,0,0,188,46c5.94,1.6,13.75-1.77,19.21-4,3.58-1.45,10.45-4.6,12.45-8.07C222.82,28.56,214.49,28,210.3,27.62Z"/><path class="i" d="M211.55,34.8c1.2.3,2.7.82,1.21,2s-4,1.79-5.83,2.53-9.46,3.35-11.33,3.88a14.67,14.67,0,0,1-7-.12c-2.15-.53-9.47-2.16-7.86-4.36s4.94-3.26,8-3.78a70.21,70.21,0,0,1,7.8-.72A127.77,127.77,0,0,1,211.55,34.8Z"/><path class="a" d="M45.63,10.73l.78.13c6.33.94,12.77,1.64,18.93,2.9C72,15.11,79.8,16.52,85,21.17c1.89,1.68,5.26,5.94,4,8.77-.93,2.07-12.34,2.94-12.74,2a13.09,13.09,0,0,0,1.22,2c-.14-.23-13-.92-14.46-1.12,0,.4-.09.77-.1,1.06-6.16.16-13-5-17.74-8.38-3.14-2.25-9.07-6.93-10.2-10.78C33.23,8.7,41.48,10.07,45.63,10.73Z"/><path class="i" d="M42.72,17.42c-1.24,0-2.82.16-1.64,1.62s3.52,2.69,5.07,3.83,8.41,5.49,10.09,6.44a14.67,14.67,0,0,0,6.81,1.53c2.21,0,9.71.14,8.67-2.38s-4-4.34-6.86-5.55a68.85,68.85,0,0,0-7.41-2.54A125,125,0,0,0,42.72,17.42Z"/><path class="g" d="M98.61,79.05a14.63,14.63,0,0,1-6.1.62c-2.41-.24-4.85-.36-7.23-.72-3.13-.47-6.43-.72-9.57-1-4.28-.36-8.85-.41-13.09-1.52.94.25,5.31-3.5,5.79-4.3a16.07,16.07,0,0,1-6.19-4.49c4.71,1.12,10.22,1.09,15,1.82C83.13,70.39,89,71.14,95,72c2.34.35,6.14,0,6.43,2.84C101.62,77.12,100.34,78.37,98.61,79.05Z"/><path class="g" d="M146.27,84.27a13.57,13.57,0,0,0,5.44,2.59c2.33.56,4.64,1.25,7,1.68,3.08.57,6.25,1.41,9.26,2.18,4.11,1.06,8.39,2.5,12.74,2.83-1-.07-3.63-5.07-3.78-6a16.54,16.54,0,0,0,7.43-2.27c-4.8-.46-9.9-2.29-14.6-3.14-5.86-1.07-11.63-2.28-17.47-3.37-2.3-.42-5.69-2-7,.61A3.76,3.76,0,0,0,146.27,84.27Z"/><path class="f" d="M199.84,94.53c1.47,1.35,3.27,2.39,5.33,2.06,2.3-8.63-4.51-20.58-9.8-27.07a45.7,45.7,0,0,0-23.64-15.33c-13.79-3.65-34.49-1.17-32.54,18.09,5.67-4.34,4.82,7.83,9.45,10.26a17.92,17.92,0,0,1,2.75-4.22c1.41,2.86,3.11,7.18,7.07,7.28.15-1.61,1.23-2.68,1.64-4.14,4.42,1.64,7,8,11.16,10.25.08-1.67.58-3.1,0-4.76,1.59,4.9,9.37,9.87,14.45,9,.06-.43-.1-.87,0-1.25,2,2,4.4,1.91,7,2.35,2.42.4,4.88,1.53,7.26,1.62A3.69,3.69,0,0,0,199.84,94.53Z"/><path class="f" d="M40.4,76.87c-1.75,1-3.73,1.57-5.67.78-.25-8.93,9.13-19,15.76-24.1A45.77,45.77,0,0,1,77,44.07c14.26-.38,33.84,6.78,27.51,25.09C100,63.62,98.05,75.66,93,77a17.82,17.82,0,0,0-1.7-4.73c-2,2.46-4.68,6.27-8.55,5.45.22-1.6-.6-2.89-.65-4.4-4.68.58-8.68,6.19-13.23,7.41.32-1.64.16-3.14,1.07-4.64-2.68,4.41-11.39,7.46-16.15,5.47,0-.44.3-.83.31-1.22-2.42,1.47-4.72.85-7.38.67-2.45-.16-5.1.38-7.44-.08A3.69,3.69,0,0,1,40.4,76.87Z"/><path class="c" d="M182.29,206c.36,8.22-3.11,19.21-12.63,20.05-3,.27-5.8-.41-8.47,0-3,.49-4.47,2.82-8.31,2-2.87-.58-4.29-2.71-6.77-3.14-3-.52-5.36,2.42-8.67,1-5.78-2.56-5.48-9.09-3.81-13.94-1.5.89-3.46.74-4.91,1.27a21.27,21.27,0,0,1,5.7-12.25c-1.62.32-3.89-.47-5.53-.26,2.43-8.36,19.76-14.73,27.64-15.09C170.24,185.06,181.78,194.17,182.29,206Z"/><path class="j" d="M155.41,127.28a16.38,16.38,0,0,0-5.47,1.24c-6.92,2.77-11.74,9.35-18.44,12.54-3,1.42-6,3.18-9.39,2.82-2.72-.27-5.43-1.39-7.9.24-1.84,1.21-4.4,2-6,3.57,1.72,2.4,6.41,1.86,8.81,1.31,3.12-.71,6.1,0,9.21.54,6.8,1.26,12.27-3.11,17.12-7.11,2.92-2.41,6.39-3.93,9.78-5.52,2.42-1.13,7-2.27,7.84-5.13.63-2.21-1.14-3.76-3.15-4.27A8.81,8.81,0,0,0,155.41,127.28Z"/><path class="g" d="M106.36,148.86a22.85,22.85,0,0,1-5.63-.72,23.43,23.43,0,0,1-8.86-4.74c-2.53-2-5.57-4.76-6.69-8.06A2.07,2.07,0,1,1,89.09,134c.78,2.28,3.27,4.49,5.36,6.16a19,19,0,0,0,7.31,4,16.4,16.4,0,0,0,7.76.2c2.2-.62,3.76-2,5.56-3.62l.93-.81a2.06,2.06,0,0,1,3.33,1,2.24,2.24,0,0,0,1.16,1.37c1.6.85,4.37.68,6.29.08,3.31-1,6.38-3.18,9.35-5.25,1.11-.77,2.21-1.55,3.32-2.26a27.9,27.9,0,0,0,4.23-3.57c3.52-3.4,7.15-6.91,15.28-4.57a2.07,2.07,0,1,1-1.15,4c-5.82-1.68-8,.41-11.26,3.57a31.45,31.45,0,0,1-4.86,4.07c-1.07.69-2.13,1.43-3.2,2.18-3.22,2.25-6.56,4.58-10.48,5.8-2.54.8-6.54,1.18-9.45-.37a6.81,6.81,0,0,1-1.68-1.25,14.31,14.31,0,0,1-10.53,4.22Z"/></svg>