<svg xmlns="http://www.w3.org/2000/svg" width="202.34" height="226.29" viewBox="0 0 202.34 226.29"><defs><style>.a{fill:#fff;}.b{fill:#ffd8ae;}.c{fill:#ef6abf;}.d{fill:#c43ba1;}.e{fill:#231f20;opacity:0.3;}.f{fill:#e6e7e8;}.g{fill:#d3d3d3;}.h{fill:#ddb38a;}.i{fill:#0b0808;}</style></defs><path class="a" d="M137.32,32.69a22.77,22.77,0,0,1-4.86-.61C128,31,118.94,29.12,122,22.35c2.7-5.93,10.3-8.31,15.65-9.53,6.09-1.39,12.14-2.12,18.17-4.15,4.8-1.63,10.29-3.61,14.55-.43,6,4.48,1.49,11.19-2.69,15.45-4.94,5-13.06,6.57-19.35,7.76A52.15,52.15,0,0,1,137.32,32.69Z"/><path class="b" d="M167.7,23.69a26.85,26.85,0,0,0,3.86-4.88c-1.68-2.07-6.48-.19-9.16,1.23-5.57,2.94-11.3,3.82-16.94,6.19-3.53,1.49-7,3.88-6.14,6.44a62.67,62.67,0,0,0,9-1.22C154.64,30.26,162.76,28.73,167.7,23.69Z"/><path class="c" d="M146.47,9.9c4.61.56,8.11,6.52,10.63,10q.32.42.63.78a5.66,5.66,0,0,1,5.85,1.48,11.18,11.18,0,0,1,.88,1,8.42,8.42,0,0,0,2.68.12c3.73-.66,9.62-2.33,12.66.61,4.38,4.24-1.47,14.8-5.36,17.66-2.38,1.75-3.9,1.39-6.36.11-2.26-1.17-3.44-3.61-5.48-5.22l-.22-.15a8.93,8.93,0,0,1-5.52.1,8.17,8.17,0,0,1-4.66-3.78c-.38-.12-.76-.23-1.14-.31-2.83-.62-5.57,0-8.24-1.08-2.92-1.18-4.42-2.19-5-5.31C136.76,20.87,139.82,9.09,146.47,9.9Z"/><path class="d" d="M137.77,26c-.7-3.51.56-10.25,3.6-13.78a28.09,28.09,0,0,0-1.16,10.06c.2,2.62,2.28,4.32,4.46,5.22s5.32,1.14,7.53-.31A7.92,7.92,0,0,0,154,25.08c.41-.55,1.71-1.41,1.93-1.91a9.18,9.18,0,0,0-.84,3c-.17,2.19.1,4.82,2,5.88,1.48.83,4.31,1.83,5.89.53.62-.52,3.17-4.72,2.79-5.31.63,1,.11,2.36.18,3.48A6.34,6.34,0,0,0,167,34.17a10.47,10.47,0,0,0,2.8,2.87c2,1.27,4.7,1.66,6.95,2.18a13.16,13.16,0,0,1-2.35,2.37c-2.38,1.75-3.9,1.39-6.36.11-2.26-1.17-3.44-3.61-5.48-5.22l-.22-.15a8.93,8.93,0,0,1-5.52.1,8.17,8.17,0,0,1-4.66-3.78c-.38-.12-.76-.23-1.14-.31-2.83-.62-5.57,0-8.24-1.08C139.9,30.08,138.4,29.07,137.77,26Z"/><path class="e" d="M173.9,205.24c0,11.63-34.66,21-77.4,21s-77.41-9.42-77.41-21,34.65-21.05,77.41-21.05S173.9,193.61,173.9,205.24Z"/><path class="f" d="M29.86,112.32c-7.2,12.37,13,10,18.89,13.37,8.37,4.74,7.8,21.92-.51,26.6-5.2,2.93-16.11,3.65-22,2.76a35,35,0,0,1-12.59-4.67c-1.1-.67-8.27-7.28-8.68-7.17a10.57,10.57,0,0,1,8.6,2C5.8,142.16.4,129,0,121.09a47.55,47.55,0,0,1,4.29,6.6c-1.08-10.88,1.82-17.9,10.3-24.32,6.32-4.78,18.09-11,26.1-7.05-2.87,1.76-7.27,3.07-9.84,5.39a15.27,15.27,0,0,1,10.56,3.42A15,15,0,0,0,29.86,112.32Z"/><path class="g" d="M121.17,180.16c-1-8.39-.22-20.58-9.39-24.26C97,150,99.86,169,103.93,176.92a13.43,13.43,0,0,1,.83,10.19c-.78,3-4.23,7.08-1.44,9.87,2,2,7.08,2,9.49,1.49C122.76,196.34,122.26,189.19,121.17,180.16Z"/><path class="h" d="M112.81,198.47c8.06-1.73,9.26-6.74,8.85-13.39-2.45.12-5.1,1.07-7.47,1.69-3,.79-6.19-.4-9.13-1-.08.43-.18.87-.3,1.31-.78,3-4.23,7.08-1.44,9.87C105.31,199,110.4,199,112.81,198.47Z"/><path class="f" d="M49.49,173.73c1.64-2.09,3.31-4.18,3.87-6.83a41.57,41.57,0,0,0,.54-13.72A15.24,15.24,0,0,0,52.49,148c-1.8-3.22-6.51-6.39-10.14-6.73-11.3-1-12.1,21.78-12.74,29.82-.44,5.44-1.25,11,0,16.35.88,3.78,1.72,9.76,5.6,11.73a12.26,12.26,0,0,0,8.37,1c4.73-1.1,4-5.92,2.86-9.58-1.58-5.06-2.21-8.92.82-13.84A34.06,34.06,0,0,1,49.49,173.73Z"/><path class="h" d="M46.44,190.63c-.38-1.24-.71-2.4-.94-3.52-.89.47-1.76,1-2.58,1.53-4.86,2.85-6.88,2.14-11.65-.68a10.25,10.25,0,0,0-1.72-.82c0,.1,0,.21.06.31.88,3.78,1.72,9.76,5.6,11.73a12.26,12.26,0,0,0,8.37,1C48.31,199.11,47.6,194.29,46.44,190.63Z"/><path class="g" d="M100,145.57a176.31,176.31,0,0,0-31,5.61c-1.28.73-2.54,1.49-3.75,2.32-4.3,3-8.81,5.55-12.81,9.05-1.61,1.42-3.08,2.92-4.57,4.45a35.16,35.16,0,0,0,7.46,7.09,19.89,19.89,0,0,0,8.93,3c4.23.62,8.15,2.33,12.35,3.06,9.26,1.61,18.77.39,28-.85C117,177.7,128.86,174,139,166c4.39-3.46,8-8,12.64-11.15a20.33,20.33,0,0,0,4.92-4.71C141.65,145.46,121.7,143.57,100,145.57Z"/><path class="f" d="M134.7,96.27c-18-8.7-31.06-5.86-49.91-1.74-9.38,2-20.38,4.09-28.28,9.92-6,4.46-13.15,11.3-17.2,17.88s-3.07,15.1-4,22.58a13.57,13.57,0,0,0,.88,7.07,24.71,24.71,0,0,0,5.48,7.64c.57.59,1.11,1.19,1.64,1.8,1.6,1.83,3.08,3.73,4.62,5.58,1.49-1.53,3-3,4.57-4.45,4-3.5,8.51-6.08,12.81-9.05,1.21-.83,2.47-1.59,3.75-2.32a176.31,176.31,0,0,1,31-5.61c21.7-2,41.65-.11,56.51,4.58a31.74,31.74,0,0,0,3.17-5.47C168,127.12,151.73,104.5,134.7,96.27Z"/><path class="a" d="M166.16,164.11c2.81,11.08,6.9,45.4-5.63,49.42-5,1.62-15.13.43-18.25-5-3.47-6,.28-12.76.51-19.1.21-5.79-.18-14.51-1.41-20.09-2.55-11.5-11-40.36,4.56-42.14S163,151.73,166.16,164.11Z"/><path class="b" d="M168.31,206.39c-.15,5.91-7.32,10.52-16,10.3s-15.62-5.18-15.47-11.09,7.32-10.52,16-10.3S168.45,200.48,168.31,206.39Z"/><path class="a" d="M55.64,171.83c-3,10.72-5.35,35.14,7.33,36.6,5.56.64,13.92,2.62,17.14-2.4,3.58-5.56-.16-12.85-.34-19.25-.16-5.85,1.34-12.57,2.65-18,2.69-11.18,10.81-27.5-5-31.52S58.94,159.85,55.64,171.83Z"/><path class="b" d="M85.5,205.7c1.31,5.9-4.58,11.2-13.15,11.85s-16.58-3.6-17.89-9.5S59,196.86,67.61,196.21,84.19,199.81,85.5,205.7Z"/><path class="a" d="M41.23,99.57c2.51-7,7.55-9.62,11.51-15.31-3.57-.35-8,1.18-11.24,2.79,2.28-3.31,3.74-8.11,6.24-11.24,2.36-3,6.14-4.32,8.42-6.89a35.43,35.43,0,0,0-9.68,1.69c1.11-3.51,1.8-7.12,4.09-10a34.17,34.17,0,0,1,8.74-8.19,47.91,47.91,0,0,0-8.1.45C54.23,40.32,65,32.82,75.3,28.37c11.12-4.82,23.78-8.21,35.78-6.77-2-2.47-3.91-5.2-6.37-7,10.32,1.92,20.5,2.66,30.81,4.05,8.69,1.18,15.09,4.2,21.88,9.58,6.48,5.13,13.8,8.63,18,16.42,3.06,5.7.58,10.08,1.76,15.47,1,4.39,2.6,3.57,6.52,5.09a23.17,23.17,0,0,1,13.57,14.92c1.57,5.54,4.41,13.68,2.46,19.2-2.33,6.58-4.78,10.46-5.22,17.64-.73,12.11-1.2,26.24-11.65,34.16a22.08,22.08,0,0,0-1.16-8.33c-3.78,9.06-13.52,26.79-24.36,28.45a49.81,49.81,0,0,1,3.92-15.08c-3.28,6.51-9.15,10.06-14.78,13.65A37.58,37.58,0,0,0,150,155c-2.57,3.07-3.28,7.78-5.86,11.16a30.13,30.13,0,0,1-10.48,8.53c-.34-3.08,1-9.21,2.07-12-1.63,5.22-5.16,9.51-9.14,13.5-.74-3.62-.92-8-2.25-11.5-2.25,2.75-3,8.09-3.73,11.64-1.77-2-11-10.27-11-13,.05,3.68.53,7.46.64,11.15-7.39-2.44-14.48-11-19.53-17.28,0,4.61,1.8,9,2.93,13.05-3.67-.87-8.54-7.31-11.74-10.08-4.15-3.59-5.23-6.95-7.92-10.71-.81,4.39.1,8.53,1.35,12.66-1.85-6.07-6.21-9.36-9.42-14.24-3.47-5.25-3.68-12.42-4.09-18.49-4.27,1.21-6.47,6.84-9.56,9.9,0-8.71,1.06-21.18,5.86-28.57-3.15.13-11.66,5-12.08,8.39,1.06-8.56,2.5-16,8.16-23.19C50,97,45.27,98.34,41.23,99.57Z"/><path class="b" d="M164.82,42.08c6.11,1.89,12.91,5.84,14.69,11.34.82,2.55-1.6,8.7,1.09,10.26,2.44,1.41,8.59-3.48,12.29-2.26,7.9,2.6,10.54,16,9.05,23.17-.85,4.11-3.11,8.6-6.69,11-5.07,3.46-4.64-1.67-5-1.55-4.67,1.51-8.66,8.22-12.28,1.26C177.05,97,175.13,99,173.1,99s-2.44-1.8-3.21-3.24c-1.17,2.6-1.86,2.56-4.61,2.69-2.57.12-5.89-1.73-8-3.19-3.08-2.14-3.21-7.29-2.8-10.73.09-.74,1.69-7.41,2.55-7.24C150.37,76,141,73.85,136.63,68c-1.69-2.26-1.81-4.91-3-7.41-1.67-3.61-4.53-7-6.9-10.16a40.25,40.25,0,0,0,10.16,1.16c-2.19-.73-6.37-4.48-8.87-6.42,10.28-2,20.82-5.43,31.42-4.27A29.13,29.13,0,0,1,164.82,42.08Z"/><path class="i" d="M182.18,68.6c.48,3.34,4.48,5.48,8.94,4.79s7.67-4,7.18-7.32-4.47-5.48-8.93-4.79S181.7,65.25,182.18,68.6Z"/><path class="a" d="M190.35,63.26c.81.81.07,2.87-1.66,4.6s-3.78,2.47-4.6,1.66-.07-2.87,1.66-4.6S189.54,62.45,190.35,63.26Z"/><path class="i" d="M170.1,56.69l-22-2.51a12.63,12.63,0,0,0-.45,2.91c-.23,6.58,4.61,12,10.82,12s11.41-5.21,11.64-11.79C170.12,57.12,170.11,56.91,170.1,56.69Z"/><path class="a" d="M168.45,59.76a3.75,3.75,0,0,0-.41-1.87l-5.65-.65a4,4,0,0,0-.94,2.44,3.55,3.55,0,0,0,3.37,3.82A3.75,3.75,0,0,0,168.45,59.76Z"/><path class="i" d="M180,87h-.28a3.35,3.35,0,0,1-2.82-2,4.45,4.45,0,0,1,.38-4.36.87.87,0,0,1,1.43,1,2.73,2.73,0,0,0-.25,2.63,1.65,1.65,0,0,0,1.39,1,5,5,0,0,0,2.87-1.3,12.6,12.6,0,0,1,1.61-1c2.94-1.49,6.86-2.25,10.73-2.81a14.69,14.69,0,0,0-1.54-4.82,17,17,0,0,1-1.57-4.66.87.87,0,1,1,1.72-.2,15.89,15.89,0,0,0,1.44,4.16c.93,2.11,1.9,4.3,1.65,6.38a.87.87,0,0,1-.74.76c-3.95.55-8,1.27-10.9,2.74a11.2,11.2,0,0,0-1.4.9A6.57,6.57,0,0,1,180,87Z"/><path class="a" d="M94.75,36.18a22.4,22.4,0,0,1-4.67,1.46c-4.55.86-13.53,2.94-13.55-4.5,0-6.51,5.91-11.84,10.27-15.18,5-3.79,10.16-7,14.79-11.33,3.7-3.48,7.87-7.56,13.06-6.44,7.32,1.57,6,9.55,4,15.16-2.41,6.64-9.15,11.42-14.37,15.11A52,52,0,0,1,94.75,36.18Z"/><path class="b" d="M118.64,15.35a27.23,27.23,0,0,0,1.48-6c-2.4-1.17-6,2.53-7.83,4.93-3.84,5-8.68,8.17-12.82,12.68-2.59,2.82-4.8,6.46-2.91,8.41a62.75,62.75,0,0,0,7.71-4.87C109.49,26.77,116.23,22,118.64,15.35Z"/></svg>