<svg xmlns="http://www.w3.org/2000/svg" width="189.83" height="261.95" viewBox="0 0 189.83 261.95"><defs><style>.a,.g{fill:#0b0808;}.a{opacity:0.2;}.b{fill:#d3d3d3;}.c{fill:#545453;}.d{fill:#fff;}.e{fill:#d35822;}.f{fill:#3a3a3a;}.h{fill:#3d3d3d;}</style></defs><path class="a" d="M172.07,239.49c0,12.41-33.45,22.46-74.7,22.46s-74.7-10-74.7-22.46S56.11,217,97.37,217,172.07,227.08,172.07,239.49Z"/><path class="b" d="M150.89,191.91a44.3,44.3,0,0,0-3,5.42,25.57,25.57,0,0,1-3.44,6c-5.27,6.68-16.37,17.62-20.68,8.12,0-.08-.07-.17-.11-.25-2.83-6.6,2.86-13.72,7.84-18.74,3-3,6.16-5.76,9.24-8.63A59.59,59.59,0,0,0,151,170.91c1.39-2.34,8.35-19.51,9.1-21.45,1.67-4.33,1.9,7.95,1.83,8.59-1.12,11.71-2.42,14.11-3.26,17.17C157,181.32,154.25,186.37,150.89,191.91Z"/><path class="c" d="M148.77,186.59c-.82-1.16-2-1.09-3.09-.39-.14.09-.5-1.62-.44-1.87.24-1,1-.48,1.43-.84,1.24-1.17,2.91-1.2,4-2.65C152.37,182.78,150.81,185.92,148.77,186.59Z"/><path class="c" d="M151,170.91c-.23.39-.47.77-.72,1.16a8.33,8.33,0,0,1,2.22,1c2-.56,5.08-7,3.35-9a3.82,3.82,0,0,0-1.31-1C153,166.73,151.59,170,151,170.91Z"/><path class="b" d="M84.38,216.79A37.46,37.46,0,0,0,74,194c-8.4-8.72-20.47-18.38-34.34-12-8.63,3.95-10.49,9.71-9.61,17.2a35.11,35.11,0,0,0,7.15,16.67c2.53,3.05,9.74,6.18,7.82,10.42-.81,1.78-4.34,2.5-5.79,3.9a9.44,9.44,0,0,0-2.91,7.31c.28,5.76,5.54,6.28,11.64,6.16,9.32-.2,18.58-1.33,26.42-5.77C84.26,232.21,85.11,226.47,84.38,216.79Z"/><path class="b" d="M112.23,216.86a37.08,37.08,0,0,1,10.31-22.79c8.36-8.69,20.39-18.29,34.29-11.88,8.65,4,10.53,9.76,9.69,17.25a34.8,34.8,0,0,1-7.08,16.64c-2.51,3-9.71,6.13-7.76,10.38.81,1.79,4.35,2.52,5.8,3.93a9.51,9.51,0,0,1,3,7.32c-.25,5.76-5.51,6.26-11.61,6.11-9.32-.23-18.59-1.41-26.45-5.88C112.42,232.27,111.55,226.53,112.23,216.86Z"/><path class="d" d="M145.71,146.54c-2.72-8.28-7.42-15.51-10.11-23.81-3.32-10.25,1.07-21-2.24-31.2-2.89-8.9-13.1-14.21-22-18.25a45.29,45.29,0,0,0-13.6-3.81v0h-.1v0a45.29,45.29,0,0,0-13.6,3.81c-8.87,4-19.07,9.35-22,18.25-3.31,10.17,1.09,21-2.24,31.2-2.79,8.63-7.79,16.09-10.44,24.79-.17.56-.32,1.12-.47,1.68C62.33,155.72,103.31,171.61,145.71,146.54Z"/><path class="b" d="M145.71,146.54c-42.4,25.07-83.38,9.18-96.74,2.66-6,22.11,3,42.08,9.43,63.29,3.22,10.66,10.47,20.19,22.16,25,4.92,2,11,2.72,17.13,2.88h.1c6.18-.16,12.21-.85,17.13-2.88,11.7-4.83,19-14.36,22.16-25,6.56-21.74,15.9-42.19,9-65C145.94,147.19,145.82,146.87,145.71,146.54Z"/><path class="c" d="M136.65,140.17c.46,1.2-1.18,7.32-2.25,8-2.65,1.57-8.4-3.34-7-4C129.52,143,134.75,135.13,136.65,140.17Z"/><path class="c" d="M116.43,134c-4.55.62-12.17-3.19-16,.72-3.13,3.22-.07,11.93,4.66,12.12,1.69.06,1.68-1.51,3.1-2,2.63-.86,5.38-.37,7.7-1.25,2.17-.83,6.12-1.15,7.89-2.61a4.32,4.32,0,0,0,.48-6.63C121.75,131.7,119.32,133.56,116.43,134Z"/><path class="e" d="M139,119.75c0,12.14-18.73,22-41.83,22s-41.82-9.84-41.82-22,18.72-22,41.82-22S139,107.61,139,119.75Z"/><path class="d" d="M152.58,30.29C147.46,19.38,138.47,6.2,127,3.63A164,164,0,0,0,97.87.07V0L97,0l-.86,0V.07A164,164,0,0,0,67,3.63C55.55,6.2,46.55,19.38,41.45,30.29c-11,23.47,6.64,65.79,19.12,85.83,8.22,13.19,21.4,15.12,35.58,16.42v.16l.86-.08.86.08v-.16c14.18-1.3,27.36-3.23,35.58-16.42C145.92,96.08,163.56,53.76,152.58,30.29Z"/><path class="f" d="M144,63.33c-1.36-7.81-.47-14.85-.9-23.31-.48-9.19-5.23-15.25-7.3-23.7C133,4.74,140.89,5.61,148.31,9c4.53,2,8.81.86,13.66,2.19,10.75,3,24.37,11.58,27.31,23.73,3.61,15-11.52,30.54-18.62,41.55-2.35,3.64-3,11.26-6.72,13.65-5.38,3.49-9.37-5.24-12.28-9.31s-5-7.39-6.53-12.58A44.79,44.79,0,0,1,144,63.33Z"/><path class="c" d="M133.55,82.29c7.21-1.69,11.12,10.1,2.41,9.75C130.27,91.81,126.47,83.94,133.55,82.29Z"/><path class="c" d="M123.26,16.05a4,4,0,0,0-.16,2c.61,2.33,2.9,1.92,3,4.2.11,1.81-2.31,3.41-3.87,4.18-4.41,2.17-9,.46-12.47,4-1.69,1.72-1.9,4-5,3.39-6.75-1.34-3.34-7.11-.8-10.11,3.8-4.47,3.74-9.8,10.32-10.82,2.25-.35,7.17-.93,8.7,1.33A2.07,2.07,0,0,1,123.26,16.05Z"/><path class="c" d="M72.07,89.22C64.76,92.51,52.2,84.91,53.16,76.3c.22-2,1.69-3.22,1.75-5.43.08-2.89-1.46-6-1.82-8.9-.71-5.58,1.5-10.58,5-14.79,5.31-6.46,16.07-9.33,22.57-3.11S89.81,62.24,86,70.53C83.45,76,77.87,86.61,72.07,89.22Z"/><path class="c" d="M66.55,3.76a15.05,15.05,0,0,0,9,7.24c3.14.7,3.2-.66,5.84-1.86C83.32,8.26,86.13,9,87.72,8c2.88-1.79,3-4.93,1.94-7.57A154.82,154.82,0,0,0,67,3.63C66.85,3.66,66.71,3.72,66.55,3.76Z"/><path class="c" d="M69.36,113.71c-2,4.23-11.21-3.11-8-8,1.73-2.59,8.15-4.83,8.73-.19.18,1.39-1.06,2.64-1.19,3.86C68.83,110.24,69.54,113.33,69.36,113.71Z"/><path class="c" d="M51.05,30.08c-5.31-3.34-.67-8.5,4.23-7,2.64.81,6.88,4.89,3.64,7.48C57.53,31.68,52.44,31,51.05,30.08Z"/><path class="c" d="M97.09,38.2c2-.52,1.49-3.49.07-4.31-1.22-.71-4.52-.47-5.55.5-1.49,1.42-.79,3.7,1.28,3.62.86,0,1.53-.78,2.38-.7S96.05,38.48,97.09,38.2Z"/><path class="g" d="M108.69,91.93c3.87,13.39-26.45,15.21-22.5-1,1.24-5.06,7.82-4.18,12-4C102.55,87.19,107.31,87.12,108.69,91.93Z"/><path class="d" d="M99.67,90.64c.34,1.47-2,3.27-5.27,4s-6.17.19-6.51-1.27,2-3.27,5.27-4S99.33,89.18,99.67,90.64Z"/><path class="g" d="M87,120.74a5.85,5.85,0,0,1-4.29-1.4,1.36,1.36,0,0,1,2-1.89c.88.91,4.22.72,8-.46l.15,0c4.32-1.36,4.66-1.38,9.09-.49,3.33.67,12.31,1.26,14.81-1.26a2,2,0,0,0,.5-2,1.35,1.35,0,1,1,2.65-.55,4.67,4.67,0,0,1-1.23,4.45c-4.27,4.29-17.14,2-17.26,2-3.92-.79-3.92-.79-7.74.41l-.15,0A23.1,23.1,0,0,1,87,120.74Z"/><path class="g" d="M134.92,61.12c0,8-3.79,14.42-8.45,14.42S118,69.08,118,61.12s3.78-14.41,8.45-14.41S134.92,53.16,134.92,61.12Z"/><path class="g" d="M77.76,61.12c0,8-3.79,14.42-8.45,14.42s-8.45-6.46-8.45-14.42,3.78-14.41,8.45-14.41S77.76,53.16,77.76,61.12Z"/><path class="d" d="M71.15,58.93c-1.39,3-4.23,4.61-6.34,3.63s-2.71-4.2-1.32-7.19,4.23-4.61,6.34-3.63S72.54,55.94,71.15,58.93Z"/><path class="d" d="M128.81,57.93c-1.39,3-4.23,4.62-6.35,3.63s-2.7-4.2-1.31-7.19,4.22-4.61,6.34-3.63S130.2,54.94,128.81,57.93Z"/><path class="c" d="M139.48,103.31c-2.74,1.78-2,1.33-4.68,1.36-3.37,0-2.4-.75-3.5,2.43-.9,2.57,0,6.76,1.8,9.53.11-.18.24-.33.35-.51a153.57,153.57,0,0,0,7.46-13.61A10.86,10.86,0,0,0,139.48,103.31Z"/><path class="f" d="M49.59,63.49c1.47-7.76.51-14.76,1-23.17.51-9.13,5.65-15.16,7.89-23.56C61.53,5.25,53,6.11,44.92,9.45c-4.9,2-9.53.86-14.78,2.19C18.51,14.57,3.77,23.14.59,35.23-3.32,50.1,13.06,65.58,20.74,76.53,23.27,80.15,24,87.72,28,90.1c5.82,3.47,10.14-5.22,13.28-9.26s5.41-7.35,7.07-12.5A41.07,41.07,0,0,0,49.59,63.49Z"/><path class="h" d="M34.74,184.92a8.9,8.9,0,0,0,2.67,5.93c3,3,6.34,5.88,7.36-.8-3.32-2.67,1.83-6.37,1.24-9.8,0-.07,0-.12,0-.18a22.38,22.38,0,0,0-6.35,1.87A21.55,21.55,0,0,0,34.74,184.92Z"/><path class="h" d="M74.12,174.41c3.55-8.59-9.36-4.17-12.58-4.68-1.32-.2-2.89-1.81-4.17-1.66-5.16.58-2.52,4.66-1.73,6.83.88,2.42-.44,4.61,1.15,6.62,1.44,1.82,5,2,7,1.9.26.94.91,1.27,1.23,1.93,2.07-1.76,1.43-4.64,2.84-6.55C69.51,176.62,72.94,177.29,74.12,174.41Z"/><path class="d" d="M85.51,148.74c-9.56-10-25,.92-25.32,10.51-.57,15.86,5.14,32.05,6.84,47.81.9,8.34,4,19.2.48,27.18-4.19.75-6.93,5.32-6.88,8.72.07,5.46,3.53,6.56,9.26,6.73,12.73.38,19.21-.61,20.41-11.53,1.4-12.69.79-25.19-.58-38-1.24-11.53-.38-23.11-.58-34.64C89.05,160.73,89.4,152.82,85.51,148.74Z"/><path class="c" d="M77.1,228.47c-2.56-.17-4.11,3.8-4.35-1.32-.06-1.34,1.69-6.32,2.9-7.11,2.49-1.63,4.3,2.11,5.74,4.09C83,226.29,85,231,80.22,230.56,79.1,230.46,78.52,228.57,77.1,228.47Z"/><path class="c" d="M74.13,149.54c1-2.89-1.18-5.75-5-5-2.34.43-2.39,1.08-4.64.91-1.13-.09-2.78-1.79-4.05,0-1.37,1.93,3.35,6.08,4.41,7.71.41.63.39,2,.76,2.4,2.72,3.25,5.76,1.59,6.68-1.51.23-.74-.26-1.67,0-2.41S73.85,150.32,74.13,149.54Z"/><path class="c" d="M89.23,193.58c-.31-6.58-.16-13.18-.09-19.76a7.13,7.13,0,0,0-6.8,1.89c-.71.83-2.42,7.09-2.5,8.43-.13,2,.92,3.12,2,4.68.45.64,1.38.84,2,1.55s.39,2,1.15,2.64C86.87,194.52,88.24,194.46,89.23,193.58Z"/><path class="h" d="M144.43,216.44c-2.37-.42-2.17-3.94-2.08-5.7-7.36.81-2.64-8,1.23-9.5.77-.29,7,.42,7,.45,0,2.52-2.28,3.39-3.14,5.4-1.19,2.78.05,2.6.1,5.08C147.57,213.88,147.56,217,144.43,216.44Z"/><path class="h" d="M142.92,164.74c0-1.27,1.43-3.5-.55-3.56-1,0-1.46.95-1.87,1.67s-.52,4.33-1.36,4.42c-2.17.21-1.19,3.52.33,3.51,1.72,0,1.26-3.9,3.65-3C143.58,166.43,142.91,165.73,142.92,164.74Z"/><path class="h" d="M116.53,174.8c5-15.85-20-15.2-19.58-2.72.21,5.79-.57,9.54,6.13,7.66C108.25,178.3,114.45,181.36,116.53,174.8Z"/><path class="d" d="M108.4,148.74c9.57-10,25,.92,25.33,10.51.56,15.86-5.14,32.05-6.84,47.81-.9,8.34-4,19.2-.48,27.18,4.19.75,6.92,5.32,6.88,8.72-.07,5.46-3.53,6.56-9.27,6.73-12.73.38-19.2-.61-20.4-11.53-1.4-12.69-.79-25.19.58-38,1.24-11.53.38-23.11.58-34.64C104.87,160.73,104.52,152.82,108.4,148.74Z"/><path class="c" d="M133.73,159.25a9.59,9.59,0,0,0-.18-1.5c-1.18.9-2.26,2.18-3.53,2.68-2.2.86-5.17-.23-7.08-.32-2.1-.11-5.69-.68-5.38,2.64.22,2.35,4,2.79,5.54,3.79,2.05,1.3,2.28,3,4.11,4.08,3.51,2.08,3.18-1.15,5.25-2.82a3.88,3.88,0,0,1,1.07-.59A73,73,0,0,0,133.73,159.25Z"/><path class="c" d="M112.15,191.88c-2.65-.41-3.24,1.66-3.55-1.54-.16-1.57,2.24-5.3,3.92-5.43,2.48-.18,1.07,1.07,2,2.35a24,24,0,0,0,1.46,3.21c.06,1.18,1.1,2.31-1,3.13S113.84,192.14,112.15,191.88Z"/><path class="c" d="M116.34,211.67c1.87,5.23-8.81,4.84-7.6-1.77.13-.72,3.42-5.15,4-3.39.33,1.1.37,2.38,1,3.31S115.79,210.15,116.34,211.67Z"/><path class="c" d="M122.65,204c4.89-2.41,2.48-7.17-2.61-5.08-2,.81-8.52,5.14-3.62,6.57C117,205.63,122,204.3,122.65,204Z"/><path class="h" d="M56.67,214.6c.3-1.69,3-4.81-.87-4.07-.79.14-1,1.52-1.64,2-.83.6-2,.06-2.5,1.15-.76,1.53.17,1.53.87,2.62.38.59,1.22.09,1.71.55.33.32-.33,1.56.25,1.78C58.2,220.07,56.41,216.05,56.67,214.6Z"/><path class="h" d="M156.83,182.19a24.07,24.07,0,0,0-3.62-1.32,9.54,9.54,0,0,0-1.09.44,29.57,29.57,0,0,0-4.49,3.68c-1.12,3.07,1.9,2.89,4.2,3.43,2.85.67,3.4-.31,5.07,3.1.95,2,.09,5.09,3.88,4.32,1.12-.22,1-2.66,2.32-2.79,1.13-.11,2.38,2,3.21,1.91a3,3,0,0,0,.32-.08C166.23,189.57,163.63,185.33,156.83,182.19Z"/><path class="h" d="M152.75,215.65c-1.69,2.37-4.11-3.62-1.42-4.39,2.21-.63.81,1,.9,1.88S153.54,214.53,152.75,215.65Z"/><path class="c" d="M96.9,149.81c-1.05-.71-2.36-4.9.16-4.21.53,2.36,1.39.77,2.59,1.24C101.56,147.59,99.75,151.72,96.9,149.81Z"/></svg>