<svg xmlns="http://www.w3.org/2000/svg" width="262.04" height="234.96" viewBox="0 0 262.04 234.96"><defs><style>.a{fill:#fff;}.b{fill:#ccc7c6;}.c{fill:#231f20;opacity:0.3;}.d{fill:#fefefe;}.e{fill:#f15a29;}.f{fill:#0b0808;}.g{fill:#a00a2b;}</style></defs><path class="a" d="M197.43,75.8c4.12,2.64,7.82,4.12,12.65,2.57a19.31,19.31,0,0,0,10.74-8.91c3-5.39,3.54-10.94,4.69-16.93a151.43,151.43,0,0,0,2.76-17.14A107.1,107.1,0,0,0,225.17,0C216.63,5,208,9.87,200.65,17.31c-6.82,7-13.46,16.08-17,25.93a25.72,25.72,0,0,0,1.47,19.56A33.37,33.37,0,0,0,197.43,75.8Z"/><path class="b" d="M199.06,66.39c2.45,2,4.71,3.22,7.92,2.32a13.37,13.37,0,0,0,7.51-5.83c2.31-3.67,3-7.55,4.22-11.72a121.33,121.33,0,0,0,3-11.95,82.44,82.44,0,0,0,.54-25c-5.82,3.16-11.71,6.24-16.93,11.18a56.34,56.34,0,0,0-12.73,17.56,19.77,19.77,0,0,0-.46,13.82A21.62,21.62,0,0,0,199.06,66.39Z"/><path class="c" d="M2.54,204.7c-.72,13.19,42.84,26.43,97.29,29.58s99.21-5,99.93-18.17-42.84-26.44-97.31-29.59S3.26,191.5,2.54,204.7Z"/><path class="b" d="M161.87,184.63c7.72,5.52,14.52,7.66,25.81,11.09,3.2,1-6.3,19.34-14.92,16.13-5.4-2-18.3-7.33-23.52-9.8-8.17-3.86-16.74-9-19.85-17.68-3-8.53.06-18,3.17-26.46,3.79-10.36,12.86-31.39,27.23-24.65,20.39,9.56-.1,22.19-3.93,33C153.16,173.8,153.4,178.58,161.87,184.63Z"/><path class="d" d="M43.07,98.06c0,3-2.45,8-5.67,10.64-3.71,3.1-6.28-.66-8.67-3.26-3.13-3.4-4.54-7.71-5-12.25-1.84-16.6,6.39-33.4,19.27-44,.13,1.78.27,3.55.4,5.33a37.61,37.61,0,0,1,9.49-6C50.61,54.64,48,60.68,46.11,67,42.38,79.24,43.11,92.94,43.07,98.06Z"/><path class="d" d="M39.17,93.36c6.31-1.27,29.61,8.69,33,10.43,5.9,3,9.13,2.74,15.58,4a46.6,46.6,0,0,0,10.88.36c13.57-.53,23.71-8,37.94-2.42,9.88,3.85,18,11.61,23.48,20.74,3.51,5.86,6,12.79,4.58,19.38-1.89,8.5-10.33,13.4-13.12,21.44-4.33,12.46-14.56,22.08-30.2,25-19.9,3.65-37.17-8.28-52.48-19.37-6.6-4.78-7.2-8.19-14.74-11.45-7-3-16.83-2.95-23.59-6.56-12-6.4-18-18-17.59-32.21C13.26,110.17,27.46,95.73,39.17,93.36Z"/><path class="d" d="M89.49,96.84l3.17,5.76A84.42,84.42,0,0,1,77,96.29c.92.48,2.88,5.36,3.45,6.37L59.09,93.43c2.59,5.15,5.29,10.44,9.69,14.17,7,5.92,16.84,6.81,26,6.69a34.38,34.38,0,0,0,9.65-1.14c1.75-.53,5.73-2,6.46-3.91.95-2.45-3.15-4.48-5-5.72A45.27,45.27,0,0,0,89.49,96.84Z"/><path class="b" d="M36.87,144.35c6.84-2.31,12.5-.14,18.65,3.06,5.43,2.83,9.47,7.44,14.56,10.67A49.78,49.78,0,0,0,88,164.63c4.42.75,9,1,13.19,2.52,3.51,1.31,6.46,3.55,9.74,5.37,12,6.65,28.78,5.8,42.27-7.24-4.15,21.31-20.9,27.34-31.95,29.32-19.86,3.55-37.49-9.53-52.82-20.57-6.61-4.76-7.21-8.13-14.77-11.39-7-3-16.81-3-23.58-6.57-.55-.29-1.09-.6-1.62-.91C29.05,150.33,31.55,146.16,36.87,144.35Z"/><path class="d" d="M155.73,172.24c-2,2.78-4.8,4.79-7.59,6.74a23.48,23.48,0,0,0,1.58-5.37,23.62,23.62,0,0,1-11.88,7.88,64.07,64.07,0,0,1-14.26,2.34l3.23-4.47a232.07,232.07,0,0,1-23.57,1.32l5-5a83.5,83.5,0,0,1-20.92-6.6c-1.55-.72-3.33-2-3.07-3.63.16-1.13,1.2-1.89,2.16-2.5a79.81,79.81,0,0,1,32.64-12.15c7.52-.95,15.46-.63,22.25,2.73a53.72,53.72,0,0,1,7.6,4.89c2.32,1.68,6.19,3.34,8,5.52C158.93,166.32,157.29,170,155.73,172.24Z"/><path class="e" d="M114.35,101.55c-4.07,2-8.62,7.72-9.54,12.2-.88,4.27-.12,9.26,1,13.29,2.46,8.92,8.13,16.67,14.72,22.65,9.67,8.76,20.21,17.24,33.75,17.06,6.76-.1,12.95-.82,18.17-6,13.68-13.68,3-28-6.72-39.49-9.13-10.81-24.46-25.73-40.08-22.54C122.28,99.37,117.5,100,114.35,101.55Z"/><path class="b" d="M201.94,202.84c1.45,7.5-4.95,14.17-14.31,14.92s-18.11-4.72-19.56-12.22,5-14.18,14.31-14.92S200.49,195.34,201.94,202.84Z"/><path class="d" d="M124.74,210.77c2.27,7.29-4.3,13.64-13.47,14-9.37.36-18.52-2.7-20.79-10s3.36-14.63,12.57-16.41S122.47,203.48,124.74,210.77Z"/><path class="d" d="M93.92,186.85c7.64,9.72,20.32,14.48,22.38,25.41.62,3.27,2.94,4.81.7,7.08-7.88,8-18.1,3.63-25.3-1.44-4.5-3.17-10.06-8.92-14.31-12.5-6.66-5.6-13.26-14.19-14.34-23.31s3.66-17.42,8.2-25c5.53-9.2,18-27.57,29.73-17.76,16.61,13.9-4.56,21.51-10.21,31.1C86.79,177.21,88.82,180.36,93.92,186.85Z"/><path class="a" d="M239,117.33a60.72,60.72,0,0,1-7.27-3.29A15.79,15.79,0,0,1,223.94,104c-1.13-4.54-3.09-9.09-3.88-13.72-1.29-7.47-1.94-17.1-6-23.63-.29-.45-.58-.87-.87-1.29-8.15-12-19.61-15.43-33-17.62-18.55-3-37.08-1.85-53.13,8.6-9.5,6.19-15,13.39-15.15,25.16a110.2,110.2,0,0,0,1.69,20.33c2.35,13.36,27.54,60.08,69.46,66.61,12.66,2,26.48,3,38-3.22,10.38-5.55,16.88-13.31,23.17-23.17,3.43-5.37,6.89-12.1,4-17.78C246.39,120.67,242.81,118.91,239,117.33Z"/><path class="b" d="M196.69,170.48c2.62.36,5.27.51,7.9.65,6.8.37,13.92.68,20.06-2.26,4.56-2.19,8.12-6,11.43-9.82,7-8.13,15.45-16.74,15.08-28.27a14,14,0,0,0-1.07-5.27,14.52,14.52,0,0,0-4.88-5.51c-6.79-5-18.4-8-25.76-2.78a3,3,0,0,1-1.32.67,2.88,2.88,0,0,1-1.59-.46,26.1,26.1,0,0,0-23.27.24c-6.49,3.31-12.89,8.22-15.6,15.21-3.1,8-4,16.36-.13,24.44C181.38,165.23,188.31,169.33,196.69,170.48Z"/><path class="b" d="M262,130l-9.82-2.26A25.37,25.37,0,0,1,260,148a15.93,15.93,0,0,0-10.07-4c-2.44-.06-4.89.46-7.33.2-3.27-.34-6.29-2.08-8.94-4.16-5.6-4.38-10.19-10.88-10.71-18.27-.3-4.31.48-7.35,4.67-7.36a44.08,44.08,0,0,1,12.61,2.07,50.51,50.51,0,0,1,17.14,9.14C258.48,126.55,260.79,129.68,262,130Z"/><path class="b" d="M227.51,158.45c-10.63-5.19-22.09-5.32-33.17-1.65a19,19,0,0,0-5.54,2.59,7.27,7.27,0,0,0-3.08,5.1c-.18,2.52,1.39,4.93,1.18,7.45-.16,1.9-1.32,3.56-2.43,5.12,4.75-1.22,9.13-2.56,14-3.48-.37,1.53-.75,3.07-1.13,4.6l15-3.73-.7,3.65a29.5,29.5,0,0,0,18.4-12.7,5.27,5.27,0,0,0,1.06-2.7C231.16,160.73,229.28,159.32,227.51,158.45Z"/><path class="f" d="M212.74,122.11a24.72,24.72,0,0,1,8.86-2c3.59-.15,8.62,0,11.91,1.58,1.55.75,3.06,2.15,3,3.88s-1.45,2.76-2.7,3.73l-5.95,4.62c-1.75,1.36-3.74,2.79-6,2.58a8.75,8.75,0,0,1-3.27-1.24l-8.15-4.43a5.73,5.73,0,0,1-1.66-1.17C206,126.39,210.18,123.28,212.74,122.11Z"/><path class="f" d="M217.37,149.4a1.54,1.54,0,0,1-1.2-.46,1.77,1.77,0,0,1-.09-2.4c.07-.08,3-3.63,4.64-11.78a1.62,1.62,0,0,1,1.91-1.32,1.71,1.71,0,0,1,1.25,2c-1.82,9.22-5.28,13.23-5.43,13.4A1.59,1.59,0,0,1,217.37,149.4Z"/><path class="f" d="M174,97.16c.2.69.38,1.39.52,2.12,1.39,7.34-.71,13.94-4.71,14.75s-8.37-4.47-9.77-11.8a21.23,21.23,0,0,1,.09-9Z"/><path class="f" d="M213.49,88.65a23.8,23.8,0,0,1,3.3,6.8c2.13,6.84,1.25,13.25-1.95,14.32s-7.53-3.62-9.66-10.45a27,27,0,0,1-.89-3.8Z"/><path class="d" d="M28.63,162.8a18.69,18.69,0,0,0-4.93,7,31.39,31.39,0,0,0-1.8,7.86c-.43,3.66-1,8,.33,11.49,1.61,4.21,5.72,5.3,8.22,8.77,1.17,1.63-7.23,7.14-10.53,7.47C4.4,207,1.17,205.6,0,181.8c-.43-9,3.57-18.24,6.47-27.12,2.14-6.57,2.21-17.75,3.12-24.42,2.3-16.89,10.86-22.31,24.14-27.7,10.78-4.38,22.6-.58,26.22,9.56,3,8.26,3.51,25.95-4.78,34.58C48.13,154.06,36.05,156,28.63,162.8Z"/><path class="d" d="M34.36,196.34c1.39,6.77-4.69,12.95-13.59,13.82S3.53,206.25,2.13,199.48s4.69-12.94,13.59-13.81S33,189.58,34.36,196.34Z"/><path class="a" d="M126.56,80.05c-5.48,1.84-10.21,2.62-15.63.21a20.72,20.72,0,0,1-10.82-10.72C97.72,63.69,98.28,58.13,98.26,52c-.05-10.81,5.94-41.13,12-51.66,9.06,6.46,18.29,12.85,25.37,21.5,6.59,8.13,12.49,18.29,14.51,28.63,1.32,6.76-1.41,13.89-6.05,19S133.09,77.84,126.56,80.05Z"/><polygon class="g" points="196.59 159.56 204.66 140.82 208.72 147.67 214.02 141 217.41 148.92 224.63 140.66 225.82 147.14 234.41 141.77 226.82 158.95 225.49 153.53 218.85 160.18 215.72 154.21 208.79 161.23 206.51 154 196.59 159.56"/><path class="b" d="M128.81,73.42c-3.25,1.74-6.11,2.62-9.64,1.08a14.74,14.74,0,0,1-7.47-7.6c-1.91-4.36-2-8.67-2.43-13.37a122,122,0,0,1-1-13.39,84.46,84.46,0,0,1,4.59-27c6.07,4.43,12.25,8.8,17.26,15C134.8,34,139.19,41.47,141.2,49.3a20.34,20.34,0,0,1-2.35,15A25.13,25.13,0,0,1,128.81,73.42Z"/><path class="a" d="M130.17,58A46,46,0,0,0,119,60.4q4.56,1.89,9,4.13c-.93-.47-6.16,3.75-6.89,4.46a25.72,25.72,0,0,0-4.32,5.62c-1.17,2.06-1.87,4.75-.57,6.73,1.44,2.18,4.52,2.44,7.11,2.15,7.92-.89,15.31-4.76,21.29-10a17.48,17.48,0,0,0,4.1-4.81,7.84,7.84,0,0,0-.37-8c-1.58-2.13-5.41-2.1-7.89-2.43A47.4,47.4,0,0,0,130.17,58Z"/><path class="a" d="M166.09,37q-1.25,2.9-2.5,5.81a151.87,151.87,0,0,1,18.15-5.63c-2.17,4.5.47,9.65,3,13.95a3,3,0,0,1,.57,1.57,2.48,2.48,0,0,1-.86,1.56c-1.66,1.64-4,2.41-6.34,3a79.74,79.74,0,0,1-25.56,2.55c-3.87-.24-6.34-1.27-7.36-5-.82-3-.85-4.8,1.3-7.24C151.34,42.19,158.87,38.5,166.09,37Z"/><path class="a" d="M220.54,125a2.71,2.71,0,0,1-.5.79c-1.37,1.68-4.09,2.67-6,3.07-1.45.31-6-.8-3.17-3.3a13.36,13.36,0,0,1,6.15-3.29C218.5,122,221.54,122.47,220.54,125Z"/><path class="a" d="M167.29,94.47a5.71,5.71,0,0,1,.14,1.11,8.12,8.12,0,0,1-2.11,5.58c-.76.82-4.39,1-4-2.92.25-2.39.85-4.75,2.07-5.89C164.22,91.58,166.46,91.14,167.29,94.47Z"/><path class="a" d="M212.84,92.23a5,5,0,0,1,.14,1.11,8.11,8.11,0,0,1-2.1,5.58c-.77.83-4.4,1-4-2.92.25-2.39.85-4.75,2.07-5.89C209.77,89.34,212,88.91,212.84,92.23Z"/><path class="b" d="M165.24,130.79l10.31-2.22a24.16,24.16,0,0,0-8.19,20,17.41,17.41,0,0,1,10.58-3.93c2.57-.06,5.14.45,7.7.19a19.61,19.61,0,0,0,9.4-4.09c5.88-4.31,10.7-10.7,11.25-18,.31-4.24-.51-7.24-4.91-7.25a48.75,48.75,0,0,0-13.24,2,53.79,53.79,0,0,0-18,9C169,127.43,166.55,130.51,165.24,130.79Z"/><path class="b" d="M177.5,81.52a4.39,4.39,0,0,0-.55,4.2,79.22,79.22,0,0,0-14.17-6,8.09,8.09,0,0,0,3.75,5.51,39.48,39.48,0,0,0-20.75.06c8.18,8.06,20.2,10.51,31.5,12.6a11.58,11.58,0,0,0,5.39.15C189.69,96,180.11,84.41,177.5,81.52Z"/><path class="b" d="M202.72,79.73A4.89,4.89,0,0,1,204,83.55a58,58,0,0,1,9.82-8A7.85,7.85,0,0,1,212,81.33a26.49,26.49,0,0,1,16.15-3.42c-4.75,8.87-13.6,13.18-22,17A7.74,7.74,0,0,1,202,96C196.15,95.24,201.26,82.86,202.72,79.73Z"/></svg>