<svg xmlns="http://www.w3.org/2000/svg" width="214.74" height="245.18" viewBox="0 0 214.74 245.18"><defs><style>.a{fill:#fefefe;}.b,.c{fill:#231f20;}.c{opacity:0.3;}.d{fill:#a59d9b;}.e{fill:#ccc7c6;}.f{fill:#1b75bc;}.g{fill:#b76c00;}.h{fill:#0b0808;}.i{fill:#fff;}.j{fill:#a00a2b;}</style></defs><path class="a" d="M22,106.8a38,38,0,0,1,3.35-2.56C21,98.89,16.86,93.12,12.78,87.29,11.17,85,8.29,82.73,5.85,84.05s-2.16,5.18-1.23,8c2.15,6.51,6.52,14.23,11.92,21A28.09,28.09,0,0,1,22,106.8Z"/><path class="b" d="M44.89,123.81c-6.77-4.74-13.28-11.69-19.58-19.57A38,38,0,0,0,22,106.8a28.09,28.09,0,0,0-5.42,6.2C22,119.77,28.4,125.57,34.7,128.15,37.91,129.47,50.54,127.76,44.89,123.81Z"/><path class="c" d="M152.35,223.43c15.69,8-1.06,22.36-45.8,21.74C47.11,244.34,0,221.08,0,213.11s14.5-10,59.26-10S144.9,219.64,152.35,223.43Z"/><path class="d" d="M65.35,195.55c3.06,7.21,7.51,17.16,14.83,21a11.89,11.89,0,0,0,13.38-1.87,7.51,7.51,0,0,0,2.21-3.31,5,5,0,0,0-.56-4.12c-1.1-1.65-3.17-2.32-4.46-3.82-2.86-3.31-2-11.52-1.83-15.37a163.7,163.7,0,0,1,2.26-17.32,53.81,53.81,0,0,0,1-11.44c-.43-8.7-4.71-17.24-10.48-24.14-6.9-8.24-23.47-17.31-30.35-6-3,4.95-.79,12,.35,17.55,1.58,7.73,3.2,15.46,5.17,23.13A180.06,180.06,0,0,0,65.35,195.55Z"/><path class="a" d="M141.24,143.33a18.74,18.74,0,0,0-2.51,5.76c-1.22,4.92-.91,10-1.36,15-1.19,13.43-7.7,22.59-8.85,23.64-4.63,4.23-7.66-3.8-13-1-6.9,3.57-4.88,20.5,11.88,21.46,12.39.71,23.59-16.85,27.86-27.74,4-10.32,6.15-26,3.64-36.35-1.12-4.64-5-7.3-10.51-6.08A11.85,11.85,0,0,0,141.24,143.33Z"/><path class="a" d="M155.87,156.36c3.35-6.17,4.24-14.82.74-21.33a25.7,25.7,0,0,0-6.63-7.51c-9.58-7.89-22.11-9.8-34.07-11-12.13-1.16-25.83-3.42-37.92-5.16-21.21-3.06-41.47,4.32-43.88,8.55-3.7,6.48,2.88,16.62,2.18,23.86-.88,9.11-2.17,20.38,8.65,23.78,4.44,1.4,9.2,1.18,13.81,1.8s8.71,2.11,13,3.5c3.76,1.22,7.75,1,11.5,2.28,11.42,4,27.48,4.61,39.66,3.61C142.25,177.18,148.79,169.39,155.87,156.36Z"/><path class="b" d="M159.16,143.84a20.14,20.14,0,0,0-2.55-8.81,25.7,25.7,0,0,0-6.63-7.51,38.81,38.81,0,0,0-9.41-5.66c6.65,5.66,9,8.78,12.24,19.62A24.23,24.23,0,0,0,156,149a8.13,8.13,0,0,0,3.89,2.95A60.62,60.62,0,0,0,159.16,143.84Z"/><path class="a" d="M113.32,184.45a10.93,10.93,0,0,0-6.52,7.82,8,8,0,0,0-.19,2.83,6.72,6.72,0,0,0,3.23,4.71,9.07,9.07,0,0,0,5.69,1.13,10.38,10.38,0,0,0,8-5.3c1.4-2.67,1.68-7.1-.72-9.31A9.41,9.41,0,0,0,113.32,184.45Z"/><path class="e" d="M87.36,170c-8.13-1.83-16.06-4.47-24.24-6a76,76,0,0,0-24.54-.63,12.13,12.13,0,0,0,6.36,4.32c4.44,1.4,9.2,1.18,13.81,1.8s8.71,2.11,13,3.5c3.76,1.22,7.75,1,11.5,2.28,11.42,4,27.48,4.61,39.66,3.61,12.45-1,19.6-4.64,25-10.55A123.66,123.66,0,0,1,87.36,170Z"/><path class="a" d="M96.83,149.35s1.49,29.65,19.3,77.54l-20.59,6.62s-26.77-55-27.21-98.88Z"/><path class="b" d="M64.49,110.75c-3.34,3.2-3.32,8.73-.23,11.28,9.29,7.65,11.76,9.9,15.54,22.37A24.23,24.23,0,0,0,83,151.88c1.58,2.14,4.09,3.64,6.66,3.14,2.75-.54,5-3.25,5.92-6.17,2.15-6.53,1.24-12.4,4.24-19.06.55-1.21,1.09-2.41,1.61-3.61a34.46,34.46,0,0,1-7.33-12.39c-5.5-.81-10.77-1.85-15.93-2.59A74.5,74.5,0,0,0,64.49,110.75Z"/><path class="a" d="M126.52,228.2c3.12,9.06-5.13,12.26-13.88,13.66-11.27,1.81-15-1.12-17.23-6.65s2.87-11.59,11.45-13.52S124.58,222.58,126.52,228.2Z"/><path class="a" d="M2.07,206.4c1.38,3,3.55,5.79,10.91,5.27,6.5-.47,7.25-4,6-6.84-.59-1.33-1.44-1.36-1.57-3.68-.74-13-.76-16.09,6-22.05,1.95-1.71,5.8-.28,8.31-.23,7.45.14,14.61-4.63,18.93-11a57.22,57.22,0,0,0,8.87-24.63c.92-7.34-.06-16.42-3.93-22.13-4.21-6.21-14-5.92-20-2.84-5.39,2.77-10.09,7.42-14.06,12.65C0,159.31.76,203.59,2.07,206.4Z"/><path class="f" d="M86.8,111.1c-1.87,5.11-2,14.1-.09,19.11a33.84,33.84,0,0,0,8.45,11.94,38.71,38.71,0,0,0,24.17,10.19c12.32.86,25.15.76,35.2-10,5-5.35,9.24-10.87,10.13-19.92,2.34-23.75-14-29.1-27.92-32.54-13.12-3.23-33.26-5.56-43.12,9.66C91.49,102.83,88.26,107.15,86.8,111.1Z"/><path class="a" d="M72.06,48.86c2.5-19.67,28.67-28.77,45.58-32.68a61.62,61.62,0,0,1,10.68-1.34,62,62,0,0,1,10.76-.23c17.3,1.4,44.51,6.58,49.85,25.68,4.27,15.23-1.54,31.85-6.77,47.79-2.39,7.28-4.9,14.63-5.09,21.52-.55,20.47-18.17,33.94-37.24,34.11s-39.29-9.9-45.27-28.41c-2.11-6.56-5.4-13.29-8.82-20.14C78.24,80.15,70.07,64.56,72.06,48.86Z"/><path class="g" d="M177.73,103.76a122.19,122.19,0,0,1,4.43-15.68c5.23-15.94,11-32.56,6.77-47.79-4.57-16.35-25.17-22.5-41.86-24.81-2.86,16.44-1.31,38.63,1,54.66,1.06,7.33,2.72,15.25,8.67,20.72,4.59,4.21,10.79,6.14,16.14,9.3A30.16,30.16,0,0,1,177.73,103.76Z"/><path class="g" d="M125.57,91.06c7.9-5.29,7.5-17.69,7.05-25-1-16.61-6.32-35.63-16.49-49.49C99.22,20.63,74.49,29.77,72.06,48.86c-2,15.7,6.18,31.29,13.68,46.3,3.42,6.85,6.71,13.58,8.82,20.14a35.28,35.28,0,0,0,2.38,5.6C102.78,112.31,114.13,98.73,125.57,91.06Z"/><path class="h" d="M95.15,71.86c.54,7.44,4.39,13.21,8.59,12.9s7.16-6.58,6.62-14-4.39-13.21-8.59-12.9S94.6,64.43,95.15,71.86Z"/><path class="i" d="M102.23,66.41c-1,2.41-2.93,3.9-4.28,3.34s-1.61-3-.6-5.39,2.93-3.91,4.28-3.34S103.24,64,102.23,66.41Z"/><path class="h" d="M154.24,67.53c.55,7.43,4.39,13.21,8.6,12.9s7.16-6.59,6.61-14-4.39-13.2-8.59-12.9S153.7,60.1,154.24,67.53Z"/><path class="i" d="M161.88,61.88c-1,2.41-2.93,3.91-4.27,3.34s-1.62-3-.6-5.39,2.93-3.91,4.27-3.34S162.9,59.47,161.88,61.88Z"/><path class="b" d="M214.72,39.23C214.54,46.37,211.77,52,204,51.82c-12.18-.35-44.31-24.51-47.2-26.8-3.64-2.88-7.38-6-4.3-11.51C156,7.29,166,4.29,172.23,2.22,198.58-6.6,215.43,11.93,214.72,39.23Z"/><path class="b" d="M46.43,51.58c1.29,7,5.17,12.21,13.59,10.81,13.2-2.21,44.46-31,47.26-33.73,3.52-3.41,7.1-7.09,2.91-12C105.45,11,94.07,9.58,87,8.47,57,3.79,41.48,24.69,46.43,51.58Z"/><path class="j" d="M146.62,127.68c-.5.2-1,.82-1.4,1a13,13,0,0,1-5.36,1.07,16,16,0,0,1-5.41-.78c-.68-.22-4.24-1.38-4.32-2.2a12.57,12.57,0,0,0,7.78,9.91,16.63,16.63,0,0,0,12.87-.47,24.83,24.83,0,0,0,9.93-8.51c-1.13,1.59-6,1.79-7.75,1.73a11.71,11.71,0,0,1-3.77-.59c-.69-.27-1.52-1.28-2.28-1.27A.75.75,0,0,0,146.62,127.68Z"/><path class="h" d="M136.88,100.5c2.24-1.65,6.18-2.69,10.35-3h0c4.17-.35,8.21.11,10.67,1.42,11.68,6.24,1.92,17.38-9.17,19.05h0C137.52,118,126.24,108.38,136.88,100.5Z"/><path class="i" d="M143,108.17c-3,.46-5.71-.52-6-2.18s2-3.39,5-3.85,5.71.51,6,2.17S146,107.7,143,108.17Z"/><path class="h" d="M147.9,129.63a1.58,1.58,0,0,0,1.71-1.43l1.72-14.1a1.52,1.52,0,1,0-3-.36l-1.72,14.1A1.57,1.57,0,0,0,147.9,129.63Z"/><path class="h" d="M129.08,124.24a1.47,1.47,0,0,1,2.12.4c1.38,2.09,5.79,4.1,8,4.39,3.17.42,5.51-.6,8-2.28v-.13l.12.06a.41.41,0,0,1,.11-.07v.13c2.67,1.3,5.13,2,8.21,1.09,2.12-.61,6.2-3.25,7.26-5.51a1.45,1.45,0,0,1,2-.71,1.68,1.68,0,0,1,.69,2.18c-1.64,3.5-6.76,6.48-9.17,7.17a12.66,12.66,0,0,1-8.88-.66,12.62,12.62,0,0,1-8.69,1.94c-2.48-.32-8-2.52-10.11-5.75A1.67,1.67,0,0,1,129.08,124.24Z"/><path class="b" d="M35,117.49c-5.39,2.76-9.44,8.21-13.41,13.44a72.11,72.11,0,0,0-4.77,7.14c13.4,1.86,37.44-11.13,38.1-24.66a15.39,15.39,0,0,0,0-1.66C44.72,112.56,35.13,117.42,35,117.49Z"/></svg>