<svg xmlns="http://www.w3.org/2000/svg" width="293.89" height="247.77" viewBox="0 0 293.89 247.77"><defs><style>.a{fill:#93602c;}.b{fill:#c68a4f;}.c{fill:#63594e;}.d{opacity:0.25;}.e{fill:#af6c2f;}.f{fill:#eacc81;}.g{fill:#fff200;}.h{fill:#fff;}</style></defs><path class="a" d="M181.09,0a93.39,93.39,0,0,0,1.3,62.09,25.69,25.69,0,0,0,4,7.6,18.18,18.18,0,0,0,12.64,6c4.72.35,9.4-.69,13.94-2,5.22-1.52,8.27-7.2,9.09-12.51a29.38,29.38,0,0,0-2.63-17.27c-2.75-5.44-6.69-10.79-10.07-15.85a111.6,111.6,0,0,0-12.74-16C195.5,10.85,181.31-.63,181.09,0Z"/><path class="b" d="M16.55,21.8a26,26,0,0,0-4.77,11.58,25.71,25.71,0,0,1-3.5-12.44c-9,13-10.35,30.4-5.56,45.48s15.15,28,27.47,37.86a26.74,26.74,0,0,0,8.34,5c11.29,3.6,14.48-7.54,10.75-16.06C44.06,81.31,31.94,73,25.62,61.43A74,74,0,0,1,16.55,21.8Z"/><path class="c" d="M11.78,33.38A26,26,0,0,1,16.55,21.8a72.84,72.84,0,0,0,4.78,30.32c-1,2.52-2.08,5-3.06,7.3A25.87,25.87,0,0,1,10,49.2a97.85,97.85,0,0,1-3.26,9.61c-.15.39-.37.84-.79.92a1.26,1.26,0,0,1-.91-.29A31,31,0,0,1,.43,55.78C-1,43.6,1.33,31,8.28,20.94A25.71,25.71,0,0,0,11.78,33.38Z"/><path class="d" d="M272.5,233.92c0,7.51-55.92,15.34-124.33,13.6-66.9-1.69-123-7.38-124.36-13.6-1.65-7.51,55.67-13.62,124.36-13.62S272.5,226.4,272.5,233.92Z"/><path class="e" d="M50.89,104a39.43,39.43,0,0,0-10.36,22.53c-2.51,27.22,10,38.64,11.1,44.63,1.72,9.74-5.31,11.73-5.25,26.56,0,13.94,11.78,24.77,18.89,30.13,2.08,1.56,16.27,1.72,18.76,1a13,13,0,0,0,7.4-4.66c1.65-2.38,1.85-5.77-.08-7.95s-6.1-2.38-7.87-.07c-5-4.18-16.6-19.5-10.78-28,3.32-4.85,20.26-12.06,23.48-17,8.53-13.06,8.19-19.87,9.49-35.11a49.25,49.25,0,0,0-.66-12.93Z"/><path class="e" d="M155.86,196.42c-13.16-12.13-9.26-37,11.53-35.47,18.25,1.35,33.41,13.64,48,23.63,7.46,5.12,36.51,25.49,45,25.71,2.91.08,10.47-5.44,12.68-1.89,6.06,9.74-6.84,22.94-13.73,24.18-12.69,2.3-34.58-7.23-46.11-11.66C192.64,213.06,172.89,212.1,155.86,196.42Z"/><path class="b" d="M144,120.94c18.19,3.23,17.42-3.3,30.17,2.9S198.06,135,202.67,148c11.94,33.67-10.29,66.07-48.17,67.43-25.67.93-41-13.25-59-28.75-7.81-6.71-14.31-16.39-22.77-22.08-11.87-8-30.71-11.38-39.79-23.54-7.07-9.46-6.12-18.27-3.1-29.8,2.09-8,7.27-15.61,15-18.17,4.48-1.48,10.74-2.89,15.36-2C81.41,95.33,107.67,114.49,144,120.94Z"/><path class="f" d="M184.48,184.86a6.58,6.58,0,0,1,3-6.47A10.66,10.66,0,0,1,194.7,177a22.57,22.57,0,0,1,9,3.82,46.93,46.93,0,0,1-4.38,9.81l-2.39.06a21.54,21.54,0,0,1-7.43-.69C187.14,189.17,185,187.32,184.48,184.86Z"/><path class="e" d="M185.57,204.55c-5-2-10.56-.82-15.89-.35-14.87,1.31-29.85-3.08-42.9-10.34S102.41,176.57,91.85,166c-4.1-4.11-9.06-8.66-14.78-7.8a17.32,17.32,0,0,0-8.32,4.06c1.37.74,2.7,1.52,3.94,2.35,8.46,5.69,15,15.37,22.77,22.08,18,15.5,33.37,29.68,59,28.75,12.57-.45,23.39-4.33,31.84-10.53C186.08,204.77,185.83,204.65,185.57,204.55Z"/><path class="b" d="M139,203c-24.24-19.38-9.39-37.34,11.53-35.76,18.36,1.4,33.65,13.83,48.3,23.93,7.52,5.18,36.78,25.78,45.28,26,2.93.09,10.53-5.47,12.76-1.88,6.12,9.84-6.84,23.12-13.77,24.36-12.77,2.3-34.82-7.35-46.43-11.84C176,219.9,157.23,217.63,139,203Z"/><path class="b" d="M86.74,132.61c-1.46,16.68-1.08,24.15-10.58,38.46-3.57,5.39-22.4,13.3-26.09,18.62-3.4,4.92-1.33,11.48,1.07,16.34,1.42,2.88,6.56,12.11,9.57,12.47,2.4.29,4.89-.91,7.19-.16a5.79,5.79,0,0,1,3.61,5.17c.42,6-3.63,9.35-8.88,10.75-2.77.74-18.53.58-20.84-1.13-7.89-5.87-20.92-17.72-21-33-.05-16.24,7.76-18.43,5.86-29.09-1.16-6.55-15.1-19.05-12.3-48.86,1.1-11.69,8.82-25.74,20.21-31,10.61-4.91,25.9-1.9,36.23,3.67C84.07,102,87.88,119.48,86.74,132.61Z"/><path class="b" d="M171,173.17a31.36,31.36,0,0,1-3.48-1.13c-11.94-4.68-20.57-17.58-19-30.37,1.47-12.29,12.72-23.87,9.95-36.53S154.14,82.77,161.67,71c2.77-4.33,4-8.33,8-12,3.58-3.24,8.07-6.53,12.82-7.72A47.94,47.94,0,0,0,188,49c2.2-.84,4.1-1.55,6.25-2.47,13.72-5.87,30-.24,41,8.65,9.53,7.71,14,10.57,25.61,7.48,7-1.86,11.52-7.36,19.1-4.3,6.49,2.61,11,9.43,11.92,16.34.37,2.73.19,5.74.45,8.59.67,7.3,3.73,12.12-1.19,18.85-5.56,7.62-13.66,12.59-22.11,16.41-17.14,7.76-35.63,14.76-48.95,28.92-5.58,5.93-10.21,12.82-16.49,18C194.61,172.86,182.1,176.09,171,173.17Z"/><path class="c" d="M258.33,96.72c.07-4.32,3.5-7.85,4.38-12.08a4,4,0,0,0,0-2.08c-.53-1.63-2.46-2.24-4.11-2.67a98.35,98.35,0,0,1-13.17-4.41,9,9,0,0,1-3.31-2,3.32,3.32,0,0,1-.77-3.6A59.12,59.12,0,0,0,262.65,68c4.49-1.25,11.11-2.88,14.05-6.61a19.88,19.88,0,0,1,2.6-3.23c.22.08.44.14.66.23,6.49,2.61,11,9.43,11.92,16.34.37,2.73.19,5.74.45,8.59.67,7.3,3.73,12.12-1.19,18.85-.55.76-1.14,1.47-1.74,2.18a39.24,39.24,0,0,1-12.06,2.82c-4.08.39-8.33.47-12.11-1.12S258.26,100.83,258.33,96.72Z"/><path class="c" d="M219.68,57.34a8,8,0,0,0-3.87-.85,8.63,8.63,0,0,0-4.45,2.33c-5.47,4.61-9.88,10.71-11.26,17.61s.67,14.57,6.12,19c2.19,1.79,5.09,3,7.9,2.41,5-1.12,10.46-6.2,14.59-9.18,2.85-2.05,4.89-3.8,5.62-7.29C236.3,72,228.5,60.55,219.68,57.34Z"/><path d="M264.11,72.57c9.64,9.77,29.79-1.93,23.28-11.34-5.87-8.48-12.16-6.13-16-3.5C266.62,61,257.57,65.94,264.11,72.57Z"/><path class="g" d="M158,115.25c7.17,28.66,25.69,34.94,55.36,40,1,3.95-5,15.75-7.84,17.16-3.08.32-59.41-7.92-61.55-51.5C146.53,114.88,151.4,113.37,158,115.25Z"/><path d="M229,72.82a1.56,1.56,0,0,1-.16.28c-3,4.54-6.25,8.57-9.14,13.11a3.71,3.71,0,0,1-1.29,1.4,1.25,1.25,0,0,1-1.67-.39c-.76-1.54,3.76-11.49,5.14-11.83-5.27,1.32-11.45,3.9-16.91,2a1.72,1.72,0,0,1-.86-.53,1.29,1.29,0,0,1,.15-1.54,3.26,3.26,0,0,1,1.39-.87c3.1-1.2,6.45-1.16,9.59-2.11,3.61-1.08,7.28-1.87,10.95-2.72a2.47,2.47,0,0,1,2.51.92A2.23,2.23,0,0,1,229,72.82Z"/><path class="b" d="M149.7,7.93a87.22,87.22,0,0,0,1.12,67,24.61,24.61,0,0,0,5,7.92c3.91,3.81,9.94,5.51,15.88,5.55S183.6,87,189.32,85.26c6.6-2,10.49-8.37,11.57-14.17a26.91,26.91,0,0,0-3.17-18.49c-3.42-5.67-8.34-11.18-12.56-16.41a114.19,114.19,0,0,0-15.93-16.4C167.78,18.6,150,7.2,149.7,7.93Z"/><path class="a" d="M155,21.51c-3.2,9.94-4.6,20.29-3.15,30.24A46.76,46.76,0,0,0,165.15,78.6c-1.18-1.16,2.88-7.15,3.72-8.23,2.12-2.76,5-4.71,7.86-6.84,4.75-3.54,9.32-7.24,6.94-12.65-2.29-5.23-7.93-10.15-11.94-14.35A148.52,148.52,0,0,0,155,21.51Z"/><path d="M264.34,99.18a1.28,1.28,0,0,0,1-.51,26.07,26.07,0,0,1,18.24-10c1.23-.11,3.81-.32,4.6-2.45a4.61,4.61,0,0,0-.26-3.21l-4.43-12.32a1.29,1.29,0,0,0-2.42.88l4.44,12.31a2.8,2.8,0,0,1,.26,1.44c-.22.6-1.75.73-2.41.78a28.69,28.69,0,0,0-20.06,11,1.3,1.3,0,0,0,.24,1.81A1.27,1.27,0,0,0,264.34,99.18Z"/><path class="h" d="M277.68,58.61c-11.77,1.27-1.12,8.34,5,5.17C287.44,61.29,283.27,58,277.68,58.61Z"/></svg>