<svg xmlns="http://www.w3.org/2000/svg" width="276.85" height="155.87" viewBox="0 0 276.85 155.87"><defs><style>.a{fill:#c19e6c;}.b{fill:#231f20;opacity:0.3;}.c{fill:#997a4f;}.d{fill:#e2bf8d;}.e{fill:#fcf6ef;}.f,.j{opacity:0.2;}.g{fill:#6e7fd3;}.h{fill:#fefaf1;}.i{fill:#d2b27c;}</style></defs><path class="a" d="M32.18,79c3.14-.29,5.11,1.5,7.59,3.12s5.5.79,7.61-1.07c5.44-4.79,4.88-16.45,2.64-23.34-1.9-5.83-5.23-11-10.37-13.88a18.82,18.82,0,0,0,.66,7.4c-2.59-4.14-7.62-5.21-11.92-6-1.74-.32-14.45.4-14.31.55,1.22,1.35,3.77,2.11,5.54,3-3.07-.73-7.06,3.24-9.35,5s-5,3.09-6.69,5.41A8.27,8.27,0,0,0,7,60c-3.23,3.79-6,7.39-7,12.61.57-.08,1.19.26,1.77.11C1.54,76.17.44,79.47.17,82.91c.48-.35,1.45-.64,1.88-1.26.41,2.34.1,4.7.71,7.09A13.39,13.39,0,0,0,4.39,86.8c.25,1.92.3,3.84.59,5.76,0,.24,2.49-2.06,2.69-2.26a23.47,23.47,0,0,1,3.24-2.83,8.25,8.25,0,0,0-.25,3.43c1.07-.6,2.18-3,3-4.16,1.59-2.2,3.9-3.53,5.56-5.52A10,10,0,0,0,19,84.69c3.19-2.21,5.05-5.79,8.86-7.41-.63,1.29-2.84,2.47-2.22,4.06A14.08,14.08,0,0,1,31.76,79Z"/><path class="b" d="M16.38,131.89c0-8,55.87-13.93,131.13-13.93s129.34,8.52,129.34,16.54c0,5.45-20.28,9.34-63.2,10.65,1.53,1,2.35,2.07,2.31,3.13-.19,5.18-20.79,8.48-46,7.37-21-.92-38.64-4.63-43.77-8.85-12.29-.21-24-.59-35-1.12-1.89,4.16-15.09,6.87-31,6.17-17.06-.75-29.39-5-29.66-9.64-.07-1.27.74-2.78,3.07-3.37C21.3,136.66,16.38,134.62,16.38,131.89Z"/><path class="c" d="M203.85,77.93c.8.63,12,9.72,22.72,8a14.25,14.25,0,0,0-3.11,5.23c4.47.79,8.1.62,11.94.79-1.1,1.69-2.31,3.41-3.56,5,4.12,1.18,9.79-.87,14.23-.64-1,1.32-2.25,3.79-3.44,5.06a39.14,39.14,0,0,0,12.28-.52c-.4.89-2.14,4.73-2.84,5.2,4-2.66,20.12-8.34,20.66,1.83.16,2.92-3.32,6.64-5,7.77a7,7,0,0,1-2.46,10.94c2.68,5.8-2.06,10.43-6.57,11.13-5.77.88-10.71-1.92-14.73-4.45-.15.44-.51,2.64.06,2.88-5.76-2.5-11.36-6.29-16.79-9.63.68,1.3.39,2.56.75,3.86a50.92,50.92,0,0,1-12.19-7.25c.24.7-1.23,2.56-.9,3.37-5.08-1.44-32.21-22.67-33-36.25C181.4,78.08,196.1,71.78,203.85,77.93Z"/><path class="d" d="M163.85,79.9c-3.11-7.82-4.56-16.32-9.92-23-6-7.42-13.14-18.24-22.12-18.58-8-.3-13.67,7.11-20,12.79s-17.76,7.84-27.91,8.6c-7.72-1-28.19-4.8-35-1.25a28.48,28.48,0,0,0-7.16,5.35C36.42,69.31,34.61,78,32,85.48a96,96,0,0,0-3.28,11.61l4,.09c.25,4.26-3.58,6.7-5.71,9.75h0l-.21.32-.22.36c-.05.09-.11.18-.16.28s-.15.3-.22.46a2.14,2.14,0,0,0-.1.22,6.34,6.34,0,0,0-.26.73c3.75.65,7.39-1.56,11.09-1.33.42,2.93-2.33,7.65-1,10.34s5.41-.38,6.41,2.16c1.12,2.85-5.34,6-2.57,8.65,1.36,1.29,6.23-1,7.39-1.87-.52,2.27-2.68,3.94-3.19,6.23a20.44,20.44,0,0,0,7.7-2.22,18.42,18.42,0,0,1-.19,5.31c2.94.05,5.53-3,8.22-4,0,.53.21,1.45.17,2,2.56.73,12.46-4.11,14.3-6.82-.7,1-2.57,7.16-3.13,8.21,6.13-1.14,8.53-3.25,14.56-5.16-.52,2.1-2.51,1.65-3.24,3.69,5.32.87,12.41-1.24,17.55-2.38-.79,2.18-2,4.67-2.08,7.1,4.36.75,8.71-4.53,13.29-4.07.13,1.68-.06,3.49-.1,5.14,4,.37,7.61-3,11.51-3.71,2.51-.43,5.18-2.45,7.7-2.94,3.66-.72,7.86.25,11.31-1.21,1.06-.44,9-5.49,9-6.38a10.85,10.85,0,0,0,.6,4.29c3.3-1.46,10.73-9.27,7.77-14.19C159.77,117.64,166.45,86.45,163.85,79.9Z"/><path class="e" d="M166.93,79.3c-3.19-7.8-4.68-16.28-10.16-22.94-6.1-7.4-13.46-18.18-22.66-18.51-8.19-.3-17.07.62-23.53,6.29s-13.33,1.39-20.89,2c1.71,1.65,3.64,3.56,5.51,5.23-9.16-.06-18.42-.81-27.56,0,1.39,1,3,2.22,4.38,3.5-7.9-1-15.85-.44-22.77,3.1a29,29,0,0,0-7.34,5.33A57.83,57.83,0,0,0,29.15,84c-1.32,3.61-4.6,12.69-5.41,16.38,1.35,0,7.46-3.83,8.8-3.8.25,4.24-3.67,6.67-5.85,9.72.32,0,.65-.1,1-.13,7.32-.77,14.66-6.08,22-6.42-1.78,2.55-4.8,6-4.67,9.39,4.36-2,13.9-8,18.43-6.34-1.42,2.92-3.81,5.75-4.2,9.06,6.07.57,14.78-3,18.61-5.83.37,2.68,0,4.47-3,7.31,4.47,1,11.39-1.48,13.34-5.63A13.1,13.1,0,0,1,87.08,115c4.39,1,9.83-2.24,13.35-5,1,2.76.18,7.74.55,8.5a74.67,74.67,0,0,0,12.85-6,26.91,26.91,0,0,0,1,7.88c3.3.07,10.93-6.55,13.92-8.78-.27,1.51-.84,3.18-.57,4.84,4.61-.11,5-4.32,9-5.77,2,.36,7.21,2.21,8.8,4.29,3.63-3.42,3.41-3.78,4.13-5.64.25-.64,4.47,6,4.83,6.2,1.44-1,4.58-4.54,5-7.21.15-.89,5.68,4,5.71,4,2.77-3.42,2.45-12.14,2.42-16,1.75,2.15,5.2.76,6.95,2.9C174.13,91.07,170,86.84,166.93,79.3Z"/><path class="f" d="M26.56,109.36q0-.83-.06-1.68l0-.07.22-.36.21-.32h0c2.13-3.05,6-5.49,5.71-9.75l-4-.09A96,96,0,0,1,32,85.48c.72-2,1.38-4.18,2.06-6.3.83-1,6.85-.51,7.84-1.25,9.89-7.51,19.66-2.88,27,7.95,3.13,4.64,3.32,8.62,2.81,14.64-.58,6.8-5.25,12.35-5.74,13.19a56.2,56.2,0,0,1,7.46-.89,18.53,18.53,0,0,1,12,3c2.59,1.76,7.76,6.3,7.7,9.88a3.48,3.48,0,0,0-2.72-1c1.78,3.26,1.77,4.79,1.42,8.48A6.32,6.32,0,0,0,89,132.1a9,9,0,0,1,1.11,2.15,24.64,24.64,0,0,1-7.75.26c.73-2,2.72-1.59,3.24-3.69-6,1.91-8.43,4-14.56,5.16.56-1,2.43-7.18,3.13-8.21-1.84,2.71-11.74,7.55-14.3,6.82,0-.56-.22-1.48-.17-2-2.69,1-5.28,4-8.22,4a18.42,18.42,0,0,0,.19-5.31,20.44,20.44,0,0,1-7.7,2.22c.51-2.29,2.67-4,3.19-6.23-1.16.91-6,3.16-7.39,1.87-2.77-2.62,3.69-5.8,2.57-8.65-1-2.54-5.09.45-6.41-2.16s1.4-7.41,1-10.34C33.44,107.75,30,109.63,26.56,109.36Z"/><path class="g" d="M133.17,37.23c-13,7-15.68,31.06-6.07,53.75S155,126.39,168,119.39,183.66,88.33,174,65.65,146.13,30.23,133.17,37.23Z"/><path class="c" d="M199.82,23.27c-2.22-4-3.25-8.33-1.44-12.47,4.62-10.59,25.93-.83,33,2.49a87.92,87.92,0,0,1,18.31,12c3,2.44,11.26,13.26,14.58,13.55a20.8,20.8,0,0,0-7.57.87c3-.88,13.29,17.53,13.8,20.73a12.43,12.43,0,0,0-7.32-3.18c4.55,7.68,8.86,17.5,8.48,28.91-1.4-2.67-3-3.3-4.19-4.62-.55,7.17-8.86,18.47-11.15,22-.76-1.74-1.56-4.2-2.81-5.78-1.66,2.52-3.76,4.65-4.44,7.69-1.74-1.08-4.37-3.89-6.64-3.53-1.07.17-5.19,3.35-3.43,4.9-3.85-3.38-10.15-12.62-9.45-18.12a9.92,9.92,0,0,1-2.62,4.66c-1.21-7.43-2.46-15-3.46-22.39-.52,1.57-1.43,2.74-1.87,4.28-3.47-5.27-3.19-19.65-2.42-26-1.2,1.61-2.34,3.47-3.63,4.93-2.1-5.47-1.75-12.17-4.75-17.26S202.74,28.58,199.82,23.27Z"/><path class="h" d="M204.48,112.52c4.72-1.23,9.39-2.74,14-4.26,7.36-2.45,11.44-2.37,18.79-.67,11.7,2.7,17.48-3.55,17.51-15.85a92.77,92.77,0,0,0-2.52-21.08c-1-4.52-1.62-13.59-4.9-16.59,1.12,0,2.46-.65,3.85-.22-2.54-5.58-8.79-9.76-12.86-14.45a6.66,6.66,0,0,1,5.22-.44C241.37,34.65,235.7,31,231.6,29a14.35,14.35,0,0,0,5-2c-4.74-.86-8.7-3-13.15-4.63a9,9,0,0,1,3.29-4.73c-4.2-.8-8.9-.7-12.82-2.42a67.11,67.11,0,0,1,4-5.67c-5.1-1.44-10.61.61-15.61-.17a41.64,41.64,0,0,1,1.36-4.45c-3.39-.49-7.35,2.95-11.06,3.15,0-2.95,2.09-5.48,3.13-8.09-5.12,1.93-10.36,2.8-13.42,8.2C179.9,5,172.93.25,169,.88c.52.69,4.17,6.46,4.74,6.32C168,8.57,161.1,5.34,154.84,6.36c1.94,2.53,5.75,2.75,8.11,4.73-6.19,1.68-13.51.7-19.76,3.3,2.78,1.27,6.68,1.25,9.22,2.71-1.84-1.05-9.4,8.13-10.52,9.58a25.39,25.39,0,0,0-5.47,11.7c-1.81,10-7.85,18.39-9.3,28.27,1.36-.93,7.08-4,8.78-2.12s-4.61,10-5.82,11.7a23.38,23.38,0,0,1,8.22-1.36,127.39,127.39,0,0,1-5.26,12c4.51.81,5.5-.34,9.79-1.16-2.22,2.38-3.59,6.43-4.66,9.26,3.9-.52,7.07-.55,11.15-1.71-1.58,2.69-4.62,4.42-5.71,7.22,4,.61,10.87.38,14,2a21.47,21.47,0,0,0-7.55,4.49c5.13,2.87,11.17.24,16.43,2.47,2.18.93,3,2.56,5.47,3.73,2.88,1.36,6.63,1.62,9.72,1.87C189.39,115.66,197,114.45,204.48,112.52Z"/><path class="i" d="M185,106.14c10.14-.74,26.16-6,31.86-16,6.87-12.09,1.29-31.12-5.43-41.61C206.71,41.16,197.1,30,188.28,28.87a26.17,26.17,0,0,1,4.61,5.33c-8.61-2.91-24.74-5.88-30.6-.68,2.45,1.1,6.27,1.59,8.55,3-2.12-1.32-20.41,8.56-24,14.49,2.81-.5,6.11.17,9,.76-4.11,4.07-9.35,7.47-12.6,12,3.1.59,6.32,1,9.48,1.34-2.83,2.51-7.86,5.38-9.15,8.82a60.1,60.1,0,0,1,9.62,1c-2.11,3-5.5,5.32-7.64,8.49,3.54.38,6.9.56,10.37.79-1.78,2.18-4.08,4-6.44,6.84,3.68.67,10.2,2,13.89,1.22-6,4.56-6.37,9.92,4.23,13.37C175.44,108.14,177,106.72,185,106.14Z"/><path class="i" d="M244,82.18c-5.94,2.17-10.9-7.29-14.44-11a24.15,24.15,0,0,1-6.38-13.6c-.39-4.89,1.2-16.75,6-18.3-.17,1.23.35,2.38.24,3.62,2.93-.82,5.48-3.93,8.79-5A23.63,23.63,0,0,1,236,42.86c5-1.56,11.61-2.39,16.55-.4a8,8,0,0,1-4.61,2.59c.29,5.6,9.83,8.12,10.42,15.08-1.85-.12-3.73-.42-5.59-.69,2.3,3.09,5.25,5.76,6.42,9.46-1.27-.48-2.43-.32-3.55-1,.68,2.68,2.36,5.12,1.86,8.12a17.33,17.33,0,0,0-4.58-1,10.73,10.73,0,0,1,2,6.52c-1.55-.81-4.63-3.22-6.5-3C246.31,78.83,246,81.45,244,82.18Z"/><path class="i" d="M208.3,126.53a35.42,35.42,0,0,0,6.35-5,22.28,22.28,0,0,0-.38,6.24,18,18,0,0,0,7.38-7.09c.12,2.57,0,3.13.33,5.91,1.52-1.07,12-5.34,11.58-7.79.5,3.13-.75,5.9-.39,9,5.48-4.18,11.83-10.67,15.39-16.86,7.9-13.69-10.17-21.51-19.62-23.58-11.32-2.47-23.35-1.58-34.62.84-4.64,1-8.88,3.44-13.37,4.36-5.13,1-13.37,1.29-18.22,3.87-5.65,3-5.36,9.41-8,14.71,1.72.06,5.06-.43,6.78-.27a16.46,16.46,0,0,1-3.36,5.58c2.2.18,10.74.54,12.09-1.26a27.89,27.89,0,0,1-5.69,5.69,28.8,28.8,0,0,0,9.6-1.41,16.21,16.21,0,0,0-3.74,5.09c3.95-1.23,6.8,0,10.74-1.73a60.73,60.73,0,0,0-1.76,5.88c3.52-1.74,9.8-2.35,13.26-4.82-.58,1.25-.9,3.3-1.39,4.64,4.1-1.08,8.51-4.21,12.61-4.48a10.25,10.25,0,0,0,0,5.16C205.33,128.36,206.82,127.48,208.3,126.53Z"/><path d="M220.27,108.66a5.43,5.43,0,0,0,2.3.25c2.53-.25,4.89-1.49,7.39-1.94a14,14,0,0,1,8.11,1.13,7.1,7.1,0,0,0,2.23.76,2,2,0,0,0,2-1.08c2.23-5.43-6.64-12.85-9.9-12.72s-7.54,3.55-9.8,5.67c-1.66,1.55-5.46,3.07-4.21,6.23A3,3,0,0,0,220.27,108.66Z"/><path class="c" d="M157.33,32.81c3.2-3.18,5.33-7,4.69-11.5-1.63-11.58-24.63-8.83-32.26-7.85-7.11.92-33.44,12.37-38.27,14.31,2.89,1.25,4.85,1.73,7,3.18-2.66-1.78-17.37,12.68-18.7,15.58a12,12,0,0,1,7.85-.77,82.65,82.65,0,0,0-15.06,25c1.82-1,4.4-2.45,5.86-3.35C77.57,71.65,75.62,80.11,77,84A15.69,15.69,0,0,1,80,80c1,4,.77,8.17,2,12.3,1.19-1.43,2.6-3.53,4.22-4.66.92,2.93.74,5.52.58,8.64,2-.49,8.92-3.71,11-4.67,0,2.79.25,3.85.17,7,4.59-2,11.09-5.83,11.88-11.31.07,1.9.34,4.65,1.28,6.06a76.19,76.19,0,0,0,10.94-22.08c.09,1.67.65,3.07.67,4.68,4.72-4,8.83-17.81,9.76-24.12.73,1.91.75,4,1.61,5.83,3.45-4.59,5.68-10.25,9.89-14.2S153.14,37,157.33,32.81Z"/><path class="h" d="M241.8,108.63c-12.28-7.56-18.18-38.16.89-40.86a14.67,14.67,0,0,1-1.09,6.07c3-2.16,6.93-2.92,11.1-2.76-.85.85-1.47,2.5-2.59,3.36,3.31.26,7.55-.74,10.3.53-1.18.31-2.13,1.45-3.25,2,3.79,1.28,6.59,2.81,8.61,5.45a6.58,6.58,0,0,0-3.53,3c1.16.72,5,3.71,5.42,6-1.24.07-4.45,1.56-5.29,1.73.72.83,4.42,3.84,4.87,4.45-.78-.16-5.44.7-6.29.74a34.37,34.37,0,0,1,4.52,5.34c-1.11-.1-5.44,1.8-6.48,1.78.56.58,3.89,6.27,4.34,6.82C261.51,113.09,249.68,113.49,241.8,108.63Z"/><path class="h" d="M232.57,84.56c-1.75-2.71-4.15-6-4.12-6.26-.16,1.6-1.43,3.21-1.69,4.69-4.22-5.57-5.81-8.78-13.41-10.7.38,1.14.11,3.44.48,4.58-6.61-3.55-18-3.22-25.1-2.44a30,30,0,0,1,4.15,3.3c-6.15,1.22-17.5.63-21.69,5.89,2.35-.07,4.26,1.28,6,3.36-5.64.38-13.24,9.4-13.55,12.6,1.46-.53,5.13-1,6.42,0-.88.85-3.08,5.57-3.07,7.44,1.75-.25,6.5-1.18,8.42-.21-1.3,1.12-3.41,7.12-4.09,9.88,3.59-.91,9.43-2.32,12.44-.77-.46-.08-3.25,6.14-2.83,6.17,15.61,1.16,39.76-9,50.12-24.11C235,92.52,235.29,88.11,232.57,84.56Z"/><path d="M221.26,77.84c-2.55,10,18.39,10.47,19.79,1.4.78-5-6.81-5.8-10.3-5.81S222.32,73.68,221.26,77.84Z"/><path d="M187.52,53.56a10,10,0,0,0,.92,2.23c2,3.47,5.46,5.37,7.82,4.25,2-.92,2.49-3.63,1.52-6.49h1.46a17.76,17.76,0,0,1,.81,4.09c.62,8.4-4.76,15.4-12,15.63s-13.67-6.39-14.29-14.78a17.2,17.2,0,0,1,.33-4.9Z"/><path class="e" d="M196.26,60c-2.36,1.12-5.86-.78-7.82-4.25a10,10,0,0,1-.92-2.23h10.26C198.75,56.41,198.21,59.12,196.26,60Z"/><path d="M235.4,55.62c1.39,2.88,3.6,4.61,4.94,3.85s1.3-3.31.19-6h1.53a17.68,17.68,0,0,1,.45,2.12c.91,5.95-1.13,11.27-4.54,11.88s-6.93-3.72-7.83-9.67a18,18,0,0,1-.15-4.31h4.63A12.27,12.27,0,0,0,235.4,55.62Z"/><path class="e" d="M240.34,59.47c-1.34.76-3.55-1-4.94-3.85a12.27,12.27,0,0,1-.78-2.13h5.91C241.64,56.16,241.59,58.77,240.34,59.47Z"/><path class="e" d="M87.17,142.49c.1-.68-5.34-1.17-5.81-1.1a11.87,11.87,0,0,1,1.48,6.8c-2.1-3.73-7.44-5.36-11.35-5.94-6-.89-12.2.6-18.14,1a26.67,26.67,0,0,1-6.68-.08c-5.15-.93-9.8-5.12-11.64-10.49a10.9,10.9,0,0,1-.3-7c1.49-4.24,6.13-5.75,10.21-6.75,4.71-1.15,9.43-2.62,14.2-3.48a78.62,78.62,0,0,1,11.07-1.55,18.53,18.53,0,0,1,12,3c2.59,1.76,7.8,5.92,7.74,9.5-2-1.46-3-.45-4.61-.51,1.78,3.26,3.62,4.72,3.27,8.41-1.21-.66-3.58-.19-4.62-.26C86.14,137.19,87.62,139.39,87.17,142.49Z"/><path class="e" d="M46.37,132.07c-3.49,1.35-7.09,0-10.65-.79-11.73-2.43-12-9.82-12.67-17-1.05-11,.86-28.16,10-35.09,9.89-7.51,23.83-4.82,31.13,6a25.78,25.78,0,0,1,4.26,16.61c-.47,5-2.35,8-4.72,12-2.86,4.79-5,9.22-9.07,13A26.47,26.47,0,0,1,46.37,132.07Z"/><g class="j"><path d="M133.1,90.74c.9.5,23.84,12.19,34.49,8.79a14.56,14.56,0,0,0-2.42,5.67c4.65.08,8.3-.65,12.22-1.09-.88,1.85-1.87,3.74-2.9,5.54,4.33.52,9.79-2.39,14.32-2.86-.87,1.47-1.74,4.1-2.77,5.55,5.09-.24,7-2.24,11.3-3.65-.29.94-1.14,4.32-1.79,4.88,3.69-3.25,19.92-9.46,21.9.51.56,2.87-2.44,7.09-3.93,8.46l0,0a39.76,39.76,0,0,1-5.26,4c-1.48,1-3,1.83-4.39,2.7a10.25,10.25,0,0,1,0-5.16c-4.1.27-8.51,3.4-12.61,4.48.49-1.34.81-3.39,1.39-4.64-3.46,2.47-9.74,3.08-13.26,4.82a60.73,60.73,0,0,1,1.76-5.88c-3.94,1.7-6.79.5-10.74,1.73a16.21,16.21,0,0,1,3.74-5.09,28.8,28.8,0,0,1-9.6,1.41c.11-.07.21-.17.32-.25C152.25,124.36,136,111.93,127.1,91l-.21-.53A6.09,6.09,0,0,1,133.1,90.74Z"/><path d="M214.27,127.77a15.55,15.55,0,0,1,.12-4.41,6.68,6.68,0,0,1,1.5,3.42C215.37,127.12,214.84,127.45,214.27,127.77Z"/></g><path class="e" d="M128.32,93.57c.9.5,23.84,12.19,34.49,8.79a14.5,14.5,0,0,0-2.42,5.67c4.65.08,8.3-.66,12.22-1.09-.88,1.85-1.87,3.73-2.9,5.54,4.33.52,9.79-2.39,14.32-2.86-.86,1.47-1.74,4.1-2.77,5.55a41.19,41.19,0,0,0,12.37-2.44c-.29.94-1.51,5-2.15,5.59,3.68-3.26,19.21-11.38,21.19-1.41.56,2.86-2.44,7.09-3.93,8.46,2.84,2.07,4,7.85-1,11.21,3.52,5.31-.63,10.64-5.1,12-5.72,1.77-11.12-.23-15.54-2.1-.1.46-.15,2.69.45,2.84-6.18-1.58-12.38-4.45-18.36-6.92.88,1.19.76,2.48,1.3,3.71a71.48,71.48,0,0,1-15.75-6.38c.34.66,1,3.78,1.42,4.53-5.34-.63-37-16.6-39.69-29.92C114.25,102.41,119.61,88.7,128.32,93.57Z"/></svg>