<svg xmlns="http://www.w3.org/2000/svg" width="241.46" height="213.78" viewBox="0 0 241.46 213.78"><defs><style>.a{fill:#282425;}.b,.j{fill:#231f20;}.b{opacity:0.3;}.c{fill:#414042;}.d{fill:#424242;}.e{fill:#303030;}.f{fill:#a05d04;}.g{fill:#a00a2b;}.h{fill:#0b0808;}.i{fill:#e6e7e8;}.j{opacity:0.2;}.k{fill:#f15a29;}.l{fill:#ff9578;}.m{fill:#2e3033;}.n{fill:#fefefe;}.o{fill:#754c29;}.p{fill:#996239;}</style></defs><path class="a" d="M217.69,88.65c2.83-2.33,6.45-6.5,10.35-4.58-1,1.06-2.28,2-3.36,3.06,2.45.19,13.94.15,13.85,3-2.25.61-5,.72-7.06,1.7,3.93,1.47,8.25,3.69,10,7.94-2,.59-3.76-.32-5.72-.08,1.33,2.22,3.75,3.8,3.66,6.66-1.57-.12-3.21-1.4-4.64-1.91.89,2.23,2.49,3.89,2.11,6.56-1.13-.87-1.88-2.12-3.29-2.36a49.75,49.75,0,0,0,1.09,5.54c-1.53.11-2.51-1-3.87-1.37a9.79,9.79,0,0,0,1.7,3.4c-1.46.21-3-.7-4.44-1.18-2.6-.87-2.94-.69-5.59.43-4.4,1.86-15.37,8.55-19.16,2.78-4-6.09,2.2-16,4.82-21.39,2-4,5.35-5.24,8.75-7.62Z"/><path class="b" d="M90.24,179c-.31,10.76,31.18,20.38,70.33,21.5s71.16-6.7,71.46-17.46-31.18-20.39-70.34-21.5S90.54,168.28,90.24,179Z"/><path class="a" d="M206.82,177c-.23.2-1.54,3.15-.91,3.11a6.51,6.51,0,0,0,5.36-2.82,11,11,0,0,0,.19,2.13c2,.09,2.86-2.06,4.5-2.65.22,1.11.82,2,1,3.14,1.52-.83,2.73-2.73,4.18-3.72a15.86,15.86,0,0,0,7.09-14.3c.31.48,1.22,1.19,1.53,1.79,1.36-2.85.17-10-.21-13.53.75.75,2,1,2.83,1.7,0,0,.69-.51.76-.54-1.15-2.54-1.64-5.51-3-8.12-3.3-6.17-7.63-15.12-14.72-17-7.29-1.9-13.92,10.25-13.94,19.55.95-.2,1.49-1.2,2.49-1.27.53,4.09-1.71,8-1.18,12.19a9.36,9.36,0,0,1,2.56-1.89c.33,1.53-.46,3.45-.59,5.06a22,22,0,0,0,.35,5.77,14.93,14.93,0,0,0,1.53-2c-.27.42.09,6-.07,7.12a17.66,17.66,0,0,1-2.07,6.25C205.44,177.15,205.69,177.83,206.82,177Z"/><path class="c" d="M149.36,175.42c.23.21,1.48,3.26.81,3.17a7.13,7.13,0,0,1-5.51-3.2,11.07,11.07,0,0,1-.31,2.12c-2.1-.06-2.91-2.27-4.61-3-.29,1.09-1,2-1.21,3.06-1.56-.94-2.75-2.93-4.22-4a16,16,0,0,1-6.82-14.81c-.35.45-1.35,1.09-1.69,1.68-1.31-2.95.27-10,.84-13.53-.83.7-2.2.84-3.06,1.51,0,0-.7-.57-.77-.6,1.32-2.47,2-5.41,3.57-7.92,3.76-5.94,8.75-14.59,16.3-15.94,7.78-1.4,14.21,11.23,13.8,20.55-1-.26-1.52-1.31-2.57-1.44-.74,4,1.43,8.14.68,12.28a10.26,10.26,0,0,0-2.61-2.07c-.42,1.5.33,3.48.39,5.1a20.79,20.79,0,0,1-.64,5.76,16.6,16.6,0,0,1-1.52-2.1c.27.44-.37,6-.25,7.13a17.48,17.48,0,0,0,1.88,6.4C150.8,175.7,150.51,176.36,149.36,175.42Z"/><path class="a" d="M148.4,157.81c-2.14-.19-2.08,1.31-4.58,2.52-4.31,2.08-9.72-.7-14-2.07-6.15-2-10.54-4.94-14.17-10.23-1.35-2-3.67-4.32-4.67-6.4-1.26-2.63-4.15-7.64-4.27-10.19-.23-4.86,5.63-11.8,7.5-16.21,3.49-8.17,5.15-11.55,15.76-12.61,7-.7,13.31-3.37,20.35-3.77,7.69-.45,15.39,1.13,22.8,2.67,7.9,1.64,15.33,4.3,23.18,5.85,6.74,1.33,14.87,3.26,19.52,8.63a23.56,23.56,0,0,1-5.55-1c5,5.42,10.08,11.76,15.49,16.74a16.05,16.05,0,0,1-4.76.8c-.11,2.42,5.18,9.54,6.86,12.06-1.7,1.37-3.3-.5-5.37-1a56.81,56.81,0,0,1,.09,7.84c-5.79-.81-4.56-5.82-6.72,1.22-1.89,6.15-2.58,2.18-6.3.74.43.17-.61,3.75-.76,4.14-3.65-1.48-12.46-1-16.24-.14-3.54.81-6.23,3.88-9.87,4.59-4,.78-5.81-2.68-9.4-3.44-.73,5.88-5.75.53-8.19-.77-1.53,1.66-1.93,4-4.66,3.91-1.6-.09-4-3.2-5.68-3.66.23,1.68-.58,2.09-1.16,3.26-1.11-1-2.9-3-4.43-3.37A7.72,7.72,0,0,0,148.4,157.81Z"/><path class="d" d="M133.3,122.69c1.38,2.35-4.56,6.66-5.3,8.49-1.67,4.18,1.78,8.31,1,12.69a10.6,10.6,0,0,0-4.37-2.28c-1.5,3.25.22,7.34.43,10.8-1.43-.83-2.87-1.74-4.25-2.7-.57,3.81,1.53,8.69,1.74,12.71-1.13-.81-2.65-1.23-3.75-2.17-.86,3.54,1,7.12,1,10.55-.74-.28-3.49-.81-3.91-1.39,2.43,3.33,8.26,17.07.35,18.56-2.27.42-2.54-2.15-4.11-2.76-1.83-.71-1.7-.57-3.79-.21-4.12.7-5.31,2.11-7.78-2.34-4.3,3-8.34-.83-9.27-4.81-1.2-5.1,2.13-9.12,2.19-13.66-.36-.09-2.1-.2-2.25.33,1.46-5.41,3.94-10.81,6.09-16-1,.74-2,.6-3,1,1.36-4.88,4.31-8.83,5.57-13.73-.53.28-1.61.48-2.22.85.69-4.69,4.81-9.19,7.42-12.89a52.05,52.05,0,0,1-5.62,1.47c.64-3.95,7.23-7,9.7-10.12a62.94,62.94,0,0,1,12.28-12.34S133.19,122.52,133.3,122.69Z"/><path class="e" d="M195.22,93.6c7.05,1.39,15.56,3.41,20.42,9.05a24.48,24.48,0,0,1-5.8-1.06c5.24,5.69,10.54,12.33,16.2,17.56a16.63,16.63,0,0,1-5,.84c-.11,2.53,5.42,10,7.18,12.64-1.77,1.44-3.45-.52-5.62-1a59,59,0,0,1,.1,8.21c-6.06-.84-4.77-6.09-7,1.29-2,6.44-2.69,2.28-6.59.78.45.17-.65,3.93-.8,4.33-3.81-1.54-13-1.05-17-.14a10.67,10.67,0,0,0-2.11.77l-14.75-58.6C181.43,90,188.17,92.21,195.22,93.6Z"/><path class="e" d="M109.36,101.85c3.65-8.58,5.39-12.12,16.49-13.23,7.3-.74,13.92-3.53,21.28-4,8.05-.47,16.09,1.18,23.85,2.81,1.16.24,2.31.5,3.46.78l14.75,58.6c-2.74,1.28-5.16,3.45-8.2,4-4.21.82-6.08-2.8-9.83-3.6-.78,6.16-6,.56-8.58-.81-1.6,1.75-2,4.25-4.87,4.1-1.67-.09-4.17-3.35-5.94-3.84.24,1.77-.61,2.19-1.22,3.43-1.15-1-3-3.19-4.63-3.54a6.11,6.11,0,0,0-.84-.14c-2.23-.19-2.17,1.38-4.79,2.64-4.5,2.18-10.17-.73-14.61-2.17-6.43-2.07-11-5.17-14.81-10.72-1.42-2.06-3.84-4.53-4.89-6.72-1.32-2.75-4.34-8-4.47-10.67C101.28,113.75,107.4,106.47,109.36,101.85Z"/><path class="e" d="M168.4,126.54c-1.73,2.1,3.47,7.28,3.92,9.2,1,4.39-3,7.93-3,12.38a10.6,10.6,0,0,1,4.67-1.58c1,3.44-1.35,7.21-2.09,10.6,1.53-.59,3.1-1.27,4.61-2,0,3.85-2.86,8.36-3.69,12.29,1.24-.62,2.81-.8,4-1.56.3,3.63-2.1,6.88-2.59,10.27.76-.16,3.56-.25,4.07-.76-2.91,2.91-10.8,15.58-3.22,18.27,2.17.77,2.84-1.72,4.49-2.08,1.92-.42,1.77-.3,3.77.37,4,1.33,4.93,2.92,8.05-1.1,3.79,3.6,8.37.47,9.91-3.32,2-4.85-.69-9.34-.06-13.83.37,0,2.11.12,2.18.67-.61-5.57-2.22-11.29-3.53-16.76.83.88,1.85.91,2.76,1.5-.59-5-2.89-9.39-3.38-14.43.48.36-1.26-8.64-3.27-12.7a50.59,50.59,0,0,0,5.32,2.32c0-4-6-8.06-8-11.5a62.69,62.69,0,0,0-10.23-14.09Z"/><path class="a" d="M169.31,143.91a41.79,41.79,0,0,0-7.33.23l-10.89,1a4.89,4.89,0,0,0-2.21.56c-1.49.93-1.51,3.25-.46,4.66a8.35,8.35,0,0,0,4.45,2.62,28,28,0,0,0,11.4,1.27c3.15-.38,7.94-1.66,9.94-4.4C176.63,146.5,172,144.14,169.31,143.91Z"/><path class="a" d="M141.79,151.18c-1.21-.21-2.43-.43-3.64-.69-8.54-1.79-14-5.18-17.36-13.37-2.67-6.57-2.71-14.11,1.63-20s11.58-8.94,18.63-10c11.8-1.83,27.38,3.36,33.46,14.24a7.5,7.5,0,0,0-5.21-1c1,3.09,4.71,6.34,6.75,8.75,1.06,1.26,4.1,3.6,3.15,5.48-.45.87-6.41,1.9-6.76,1.56a63.88,63.88,0,0,1,7.64,8.22c-3.94,1.49-8,2.45-12.15,1.7.88,1.23,2.09,2.31,2.68,3.74-4.8,0-9.93-2.45-14.63-2.41.43.77.37,1.92.84,2.73a38.22,38.22,0,0,1-12.32-2.16c.45,1.35.89,2.72,1.35,4.06C144.51,151.68,143.15,151.43,141.79,151.18Z"/><path class="a" d="M130,102.62c7-.7,13.31-3.37,20.35-3.77,7.69-.45,15.39,1.13,22.8,2.67,1.66.35,3.29.74,4.92,1.16l-3.63-14.43c3.89,1,7.71,2.06,11.54,3.11v.1c.44,5.45-.64,10.83-.4,16.19.19,4.29,1.75,8.35.31,12.69-1-1.65-2.59-3.82-3.69-5.47-.37,4.8,1.32,10.87-.72,15.39-1-1.56-1.28-3.76-2.8-5,3.85,3.07-8.91,15.79-10.95,17.44-5.87,4.77-12.82,7-20.2,8.09-7.86,1.2-15.77,3.87-23.73,4.83a24.29,24.29,0,0,1-8.13-7.62c-1.35-2-3.67-4.32-4.67-6.4-1.26-2.63-4.15-7.64-4.27-10.19-.23-4.86,5.63-11.8,7.5-16.21C117.73,107.06,119.39,103.68,130,102.62Z"/><path class="f" d="M86.4,105.51c-2.15,6-2,15.82.59,20.77,2.43,4.73,6.88,8.39,10.93,10.84,9,5.4,19.92,6.45,30.38,4.95,15.34-2.2,32.14-4.79,44.23-19a42.63,42.63,0,0,0,10.54-25.23c2-26.39-16.57-40.78-34-41-16.41-.19-42.94,15.35-54.64,34.38C91.92,95.33,88.06,100.84,86.4,105.51Z"/><path class="e" d="M48.24,67.36a117,117,0,0,1,5.12-25.18c4.8-14,13.06-22.34,26.3-25.51,17.66-4.22,44.12-5.57,61.29.67,28.11,10.23,32.47,35.43,34.84,65,.44,5.45-.64,10.83-.4,16.19.19,4.29,1.75,8.35.32,12.69-1-1.65-2.6-3.82-3.69-5.47-.37,4.8,1.31,10.87-.73,15.39-1-1.56-1.28-3.76-2.79-5,3.84,3.07-8.92,15.79-10.95,17.44-5.88,4.76-12.83,6.95-20.21,8.09-11.17,1.71-22.44,6.39-33.81,4.89-6-.78-11.67-2.86-17.56-4.07-8.93-1.83-16-6.12-22.58-12.24-2.8-2.61-5.55-4.67-6.89-8.42-.34-.94-2.73-10.12-2.4-10.39A17.77,17.77,0,0,0,51.3,115c-1.51-4.76,1.19-8.9.52-13.31a11.74,11.74,0,0,0-3.63,3.52c-3.57-4.33,1.1-11.48.33-16.41A82.52,82.52,0,0,1,48.24,67.36Z"/><path class="d" d="M42.27,80.29c.34-2.67.59-5.31,1.06-7.37,1.51-6.56,3.81-9.81,7-15,.09,1.46.16,2.91.23,4.37,2.12.06,3.51-4.11,4.93-5.72a30.73,30.73,0,0,1,6.81-5.21c4.34-2.69,9.34-3.59,13.66-6.46-.26.92-.06,2.18-.31,3.11-.06.22,7.33-3.45,8.28-4.59a19.32,19.32,0,0,0,4-10.73C88.54,25.12,82,11.14,76.1,7.06c-.59,2.34-4.2,5-3.7,7.16-1.16-5-18.14-10.43-22.74-8,2,1.12,3.32,3.35,4.46,5.36-11.89-2.31-33.87,1.49-37.7,5.47,3.29.75,7.86.51,10.12,3.25-5.17,1.63-10.23,6.47-14,10.31S3.21,38,.54,42.8A12.38,12.38,0,0,1,8.37,42C7.3,41.76,2.64,53.1,2.16,54.52,0,60.76-.09,67.36,0,73.88.1,77.63,1.62,88.71,4.38,91.25c1.81-1.42,2.18-7,2.71-9.4,2,4,3.33,8.92,5.25,13.2,1.73,3.85,2.93,9.65,5.84,12.74,1.94-2.77,2.63-6.24,4.66-8.84,5.08,1.2,5.35,7.79,8.39,10.93-.57-.59,3-10.68,3.37-11.84a56.32,56.32,0,0,0,3.15-13.73c.92,1.69,1.14,3.64,2.16,5.28C41.27,87.26,41.84,83.75,42.27,80.29Z"/><path class="a" d="M138.51,149.59a7.61,7.61,0,0,0,1.65,0,28.12,28.12,0,0,1-3.51-4.3c-.92-1.66-.76-3.52-2.24-5-2-2-7-3.43-9.8-3.47,1.27,1.26,2.45,2,3,3.63-1.15.25-10.5-2.29-10.31-2.6a7.33,7.33,0,0,0-.71,4c-3.18-.8-5.47-3.69-8.94-3.22-1.48.2-1.45,2.47-3.63,1.92-1.14-.29-2-2.43-2.49-3.22A7.75,7.75,0,0,1,95.28,139c.17-.87-.31-2.07-.08-2.91-3,2.15-10.54,4-8.82-1.66-1.81,3.41-7.29,1.63-9.39,4.81-.56.85-1.48,10.66-4,9.4,3.52,1.77,6.49,1.11,10.07.32a32,32,0,0,1-3.34,2.82c3.55,1.36,7.52.26,10.91-1-.87,1.36-2.27,2.76-2.69,4.27,2.93.62,8.44-.14,10.51-2.39a6.39,6.39,0,0,0-.88,4.3c.91,0,12.52-1.29,11.2-3.54,1.64,2.79,7.45,4.75,10.6,4.34a21.64,21.64,0,0,0-2.08-4.49c2.84.57,6.64,2.82,9.74,2.39-.8-1.54-2.22-3.37-2.82-5.28,4,.62,6.74,3.11,11.17,2.83-.85-1.4-1.84-2.53-2-4.11C135.17,148.87,136.8,149.44,138.51,149.59Z"/><path class="g" d="M133.91,127.53a11.84,11.84,0,0,1-4.23,13.59,29.87,29.87,0,0,1-14.11,5.07,47.24,47.24,0,0,1-17-1.8c-5.31-1.76-7.78-4.38-12-7.57s-8.2-8.91-9.06-13.25c6.9,2.7,25.55,6.47,31.78,6C115.87,129,131.13,132.05,133.91,127.53Z"/><path class="d" d="M188.18,67c-1-2.38-1.82-4.75-2.77-6.53-3-5.68-6-8.07-10.37-12,.26,1.38,1.57,4.63,1.85,6-2.06.62-20.25-5.57-28.35-9.59.48.78.42,2.09.88,2.88.11.19-9.47-2.9-10.67-3.71a17.51,17.51,0,0,1-6.46-8.85c-2.38-6.86.13-17.44,4.94-22.81,1.12,2,.76,5,.78,7.1,0-4.92,7.39-8.89,10.5-11.48C152,5.08,157.06.29,162.14,1.35A16.37,16.37,0,0,0,158,7.7c6.35-2.24,11.88-5.49,18.55-6.51,5.54-.85,17.39-2.34,22.07.31-3,1.58-7.57,2.59-9.14,5.73,5.45.13,11.54,3.25,16.18,5.78s10.81,4.33,14.56,8a13.2,13.2,0,0,0-7.86,1.35c1-.5,8.23,8.76,9,9.94,3.55,5.21,5.23,11.29,6.65,17.36.81,3.49,1.93,14.15-.16,17.25-2.1-.83-3.78-5.87-4.87-8-1,4.28-1.16,9.15-2,13.63-.78,4-.59,9.72-2.71,13.37-2.55-2-4.71-6.92-7.31-8.78-2.39,5.74-2.73,10.5-5,14.22.42-.7-5.45-9.09-6.09-10.06a51.08,51.08,0,0,1-6.32-11.87c-.5,1.81-.26,3.68-.86,5.47C190.8,73.15,189.42,70.05,188.18,67Z"/><path class="h" d="M154.22,79.35c2.76.19,2.3,2.66,1.2,4.41a10.07,10.07,0,0,1-6.84,4.63c-3.72.59-7,1.4-10.66-.22a9.93,9.93,0,0,1-5.29-5.6c-.62-1.72-.95-5,1.94-3.55,1.69.84,2.79,2.83,4.34,3.81a8.73,8.73,0,0,0,8.41.25C149.75,82,151.3,79.15,154.22,79.35Z"/><path class="h" d="M65.86,79.56c-2.77,0-2.48,2.5-1.5,4.32A10,10,0,0,0,70.87,89c3.67.85,6.9,1.88,10.65.52a9.91,9.91,0,0,0,5.66-5.23c.73-1.67,1.28-4.89-1.69-3.67-1.75.72-3,2.63-4.59,3.5a8.76,8.76,0,0,1-8.41-.32C70.15,82.46,68.79,79.56,65.86,79.56Z"/><path class="d" d="M74.1,97.92c-4.25,2.23-8.26,5.33-10.75,9.3,6.52-3.19,3.32,4.3,2.66,7.53-1.31,6.47,1.21,10.1,7.53,11.94a38.67,38.67,0,0,0,15.71,1.13c5.19-.66,9-3.66,13.9-4.26,6.08-.75,11.79,1,17.76,1.87,4.14.63,8.37.55,12.35,1.4,6.36,1.37,13.43,4.53,20,4.09-.59-1.3-2.6-3.16-2.79-4.45-.3-2.12.72-1.64,1.59-3.43,1.36-2.8,2.52-4.35,1.39-7.65s-4.16-4.88-5.48-7.73c2.34-.08,4.26,1.68,6.6,1.49-1.65-5.23-11.09-10.49-16.05-12.59-5.16-2.2-10.42-4.26-16.08-4.81-6.27-.61-12.25.19-18.61-.71C94.6,89.73,86.94,92.7,78.44,96A40.48,40.48,0,0,0,74.1,97.92Z"/><path class="d" d="M127.62,141.52c-8.53-1.8-15.9-4.24-19.23-12.44-2.67-6.56-.84-15.05,3.5-20.92s11.58-8.94,18.63-10c11.8-1.83,27.38,3.37,33.46,14.24a7.61,7.61,0,0,0-5.21-1c1,3.09,4.71,6.35,6.75,8.75,1.06,1.26,4.1,3.6,3.15,5.48-.45.88-6.41,1.91-6.76,1.56a63.88,63.88,0,0,1,7.64,8.22c-3.94,1.49-8,2.46-12.15,1.7.88,1.24,2.09,2.31,2.68,3.74-4.8,0-9.93-2.45-14.63-2.41.43.77.37,1.92.84,2.73-4.39-.08-7-1.07-11.27-2.53.45,1.36,1.5,3.4,2,4.75C135.64,143,128.83,141.77,127.62,141.52Z"/><path class="d" d="M99.74,80.58c5.7-2.94,14-1.89,19.79.58,3.52,1.51,5.27,7.42,8,8.35-1.88-.63-3.85-1.71-6-1.56,1.09,3.42,6.77,5.45,6.5,9.56-2.62.34-5.33-1.23-7.88-1.67a75.44,75.44,0,0,0-10.64-1c-5.09-.08-9.95,2.26-14.82,1.85-2.14-4.75,3-7.43,6.13-9.69-3.09-.31-5.8,1.92-8.6,1.26C92.53,85.18,97.19,81.9,99.74,80.58Z"/><path class="d" d="M95.17,143.62c1.11-.55,2.22-1.1,3.31-1.69,7.69-4.11,12-8.91,12.91-17.71.72-7-1.36-14.29-7.16-18.71s-13.63-5.34-20.7-4.41C71.69,102.66,58.19,112,55.41,124.15a7.62,7.62,0,0,1,4.7-2.46c-.06,3.25-2.73,7.42-4,10.3-.67,1.5-2.93,4.6-1.49,6.14.68.72,6.68,0,6.93-.39a63.53,63.53,0,0,0-5,10c4.2.32,8.33.12,12.14-1.78-.5,1.43-1.36,2.81-1.52,4.34,4.6-1.35,8.84-5.14,13.36-6.41-.19.86.19,2,0,2.85,4.19-1.31,11.13-2.67,11.07-1.25C92.71,144.86,93.94,144.23,95.17,143.62Z"/><path class="h" d="M104.93,107.15c-11.61.59-17.9,8.46-8.21,16.31,7.75,6.29,29.18,3.32,27.67-8.75C123.45,107.24,111.42,106.83,104.93,107.15Z"/><path class="i" d="M109.8,110.5c-.63,1.38,1.43,3.67,4.6,5.12s6.25,1.5,6.88.12-1.43-3.67-4.6-5.12S110.43,109.12,109.8,110.5Z"/><path class="j" d="M48.79,194.86c-.36,9,25.37,17.45,57.48,18.75s58.43-5,58.79-14.06-25.36-17.45-57.47-18.74S49.16,185.8,48.79,194.86Z"/><polygon class="k" points="155.58 167.04 59.61 165.94 53.67 192.72 160.8 192.95 155.58 167.04"/><path class="k" d="M53.67,192.72c-.11,9.12,23.83,16.82,53.49,17.19s53.79-6.71,53.9-15.83-23.83-16.82-53.49-17.19S53.79,183.61,53.67,192.72Z"/><ellipse class="l" cx="107.7" cy="166.55" rx="13.13" ry="48.09" transform="translate(-60.19 272.14) rotate(-89.28)"/><path class="m" d="M66.85,166c-.07,5.49,18.16,10.18,40.73,10.46s40.91-3.94,41-9.43-18.16-10.18-40.73-10.46S66.92,160.54,66.85,166Z"/><path class="n" d="M111.19,190.45c-.09,1.75,1,3.22,2.33,3.29s2.57-1.29,2.66-3-1-3.22-2.34-3.29S111.28,188.7,111.19,190.45Z"/><path class="n" d="M92.29,188.94c-.09,1.74,1,3.22,2.34,3.29s2.57-1.29,2.66-3-1-3.22-2.34-3.29S92.38,187.19,92.29,188.94Z"/><path class="n" d="M103.1,195.49a7.82,7.82,0,0,0-2.89.35.49.49,0,0,0-.34.27.49.49,0,0,0,0,.29,4,4,0,0,0,2.4,2.49c1.14.41,6.73-1.08,4.88-2.89a1.38,1.38,0,0,0-.91-.29Z"/><path class="n" d="M109.46,201.21a.61.61,0,0,0-.8.33,2.61,2.61,0,0,1-3,1.33,2.37,2.37,0,0,1-1.42-1.55A6.51,6.51,0,0,1,104,199l.08-1.54-1.23-.09-.08,1.57a7.62,7.62,0,0,0,.21,2.74,3.61,3.61,0,0,0,2.17,2.32,3.42,3.42,0,0,0,.94.19,3.92,3.92,0,0,0,3.66-2.19A.62.62,0,0,0,109.46,201.21Z"/><path class="n" d="M104,197.47l-1.22-.09-.08,1.57a6.58,6.58,0,0,1-.39,2.28,2.39,2.39,0,0,1-1.56,1.39,2.59,2.59,0,0,1-2.9-1.63.61.61,0,0,0-1.17.36,3.91,3.91,0,0,0,3.41,2.55,3,3,0,0,0,1-.09,3.59,3.59,0,0,0,2.4-2.09A7.48,7.48,0,0,0,104,199Z"/><path class="o" d="M71.89,160.11a.65.65,0,0,0,0-.21c0-.56-.62-.94-.77-1.49-.62-2.26,3.38-1,4.11-1.61,1-.79.49-2.16.87-3.28,1.11-3.19,3.14-1.8,5.2-3.77a1.26,1.26,0,0,0,.29-.43,2.35,2.35,0,0,0,0-.65,2.27,2.27,0,0,1,2.3-2.21,7.52,7.52,0,0,1,1.3.27,4.82,4.82,0,0,0,4-1,2.22,2.22,0,0,1,.77-3.4c1.36-.53,2.91.44,4.33.09,2.46-.6,2.87-1.67,5.42-.39,1.13.56,2.38,1.38,3.54.9s1.56-1.81,2.67-2c1.87-.35,2.55,2.66,4.33,3.32,1.23.46,2.52-.33,3.68-.94s2.8-.95,3.61.08c.31.4.42.94.78,1.3,1.57,1.55,4.36-2.31,6.07-.91.67.54.62,1.55.71,2.41s.68,1.9,1.52,1.72c.68-.14.94-1,1.44-1.45,1.13-1.12,3-.29,4.37.58.78.51,1.65,1.17,1.66,2.1,0,.39-.14.77-.15,1.15,0,1.46,1.78,2.11,3.18,2.5,5.6,1.51-1,8.31,3.3,10.34a13.14,13.14,0,0,1,1.5.62,1.18,1.18,0,0,1,.57,1.39c-.09.18-.27.36-.22.57a.57.57,0,0,0,.2.29c.78.7,2.13,1.54,2.55,2.5.12.27.36,2.61-.19,2.59-6.44,3.38-20.74,5.6-37.32,5.39-17-.21-31.55-2.92-37.65-6.6-.89-.53,2.61-5.13,1.42-6.5-.47-.54-1.12-1.18-.85-1.85S71.67,160.69,71.89,160.11Z"/><path class="p" d="M134.05,149.94a2.2,2.2,0,0,0,0,.36,1.61,1.61,0,0,0,.07.51l0,.12a.37.37,0,0,0,.05.11.47.47,0,0,0,0,.1.75.75,0,0,0,.07.12l.07.08a1,1,0,0,0,.08.11l.09.09.1.09.17.15,0,0,.18.13,0,0,.18.11.07,0a6.89,6.89,0,0,0,1.28.53l.06,0,.19.06.08,0,.27.08a5.74,5.74,0,0,1,1.87,1.16c1,1.39.43,3.57.16,5.48a3.24,3.24,0,0,0,0,1,2.66,2.66,0,0,0-.45.29c-1,.81-1.06,2.23-1.42,3.44s-1.5,2.5-2.67,2-1.46-2.36-2.7-2.4c-1.71-.05-1.88,3.44-3.57,3.19s-1.77-3.67-3.24-3c-.76.35-.6,1.51-1.11,2.18-.75,1-2.33.36-3.25-.48s-2-1.87-3.21-1.46c-.9.32-1.28,1.37-2,2.07a3,3,0,0,1-5.22-2.38,5,5,0,0,1-3.06,1.69c-1.19,0-2.36-1.4-1.67-2.37.35-.49-1.36-.48-1.47-.45-.95.19-.76,1.19-1.3,1.51-1.14.7-3.5,1.78-3.6-1,0-.41.09-.82.07-1.23a2.17,2.17,0,0,0-3-1.75,3.21,3.21,0,0,0-.92,1.95,1.5,1.5,0,0,1-.21.84,1.12,1.12,0,0,1-.59.35,4.33,4.33,0,0,1-2.16.22,2,2,0,0,1-1.54-1.4c-.15-.68.19-1.4,0-2.08a2,2,0,0,0-2.25-1.31,4.79,4.79,0,0,0-2.45,1.38c-1.48,1.36-3.36,3.36-5.45,1.74a4.49,4.49,0,0,1-1.55-3.14c-.48-.78-1.74-.39-2.34.3s-1,1.63-1.87,2a2.4,2.4,0,0,1-2-.28,4,4,0,0,1-1.2-1.05,6.32,6.32,0,0,1-1.09-1.89,2.51,2.51,0,0,1,.21-1.17,3,3,0,0,1,.9-1.39,9.57,9.57,0,0,1,1.75-.71c1.12-.52,1.73-1.74,2.66-2.55,1.24-1.1,2.8-.9,4.15-1.7l.18-.11.18-.12a5.65,5.65,0,0,0,.48-.4,1.26,1.26,0,0,0,.29-.43,2.32,2.32,0,0,0,0-.65,2,2,0,0,1,.19-.86c.87-1.92,2.43-.87,3.87-1.61.83-.43,1.24-1.38,1.87-2.08a5.44,5.44,0,0,1,4-1.86,4.85,4.85,0,0,1,.55.09,5.43,5.43,0,0,0,2.19.11c1.38-.34,2.12-.82,3-1l.28,0a2.54,2.54,0,0,1,.61,0l.35.07a6.12,6.12,0,0,1,1.23.49,11.38,11.38,0,0,0,2.21,1,3.32,3.32,0,0,0,.44.06,2,2,0,0,0,.89-.14,4.14,4.14,0,0,0,1.31-1.1,4.8,4.8,0,0,1,.62-.58,1.81,1.81,0,0,1,.74-.35,1.6,1.6,0,0,1,.85.09c1.59.64,2.51,1.92,4.44,1.6.56-.1,1.09-.3,1.65-.41a5.31,5.31,0,0,1,3.55.64c1.08.53,1.08,1,1.91,1.84,1.18,1.16,3-.72,4.62-1.14a1.78,1.78,0,0,1,.39-.07,1.34,1.34,0,0,1,1.06.3,1.52,1.52,0,0,1,.33.39c.06.12.12.25.17.38s.05.21.07.32a4.76,4.76,0,0,1,.09.66c0,.11,0,.22,0,.34l0,.32a2.55,2.55,0,0,0,.16.66,1.76,1.76,0,0,0,.78,1,.82.82,0,0,0,.58.07,1.11,1.11,0,0,0,.62-.39,6.28,6.28,0,0,0,.48-.64,2.72,2.72,0,0,1,.34-.42,1.73,1.73,0,0,1,.45-.33,2,2,0,0,1,.79-.21,5.74,5.74,0,0,1,3.13,1.12l.29.2a2.57,2.57,0,0,1,1.37,1.9.93.93,0,0,1,0,.29C134.12,149.61,134.08,149.77,134.05,149.94Z"/><path class="o" d="M87.58,154a1,1,0,0,1,1-.81,4.24,4.24,0,0,1,2.17.54,1.1,1.1,0,0,1,.47.49,7.6,7.6,0,0,1,1.07.53,1.13,1.13,0,0,1-.71,2.12,7.17,7.17,0,0,1-2.34-.82l-1-.18A1.21,1.21,0,0,1,87.58,154Z"/><path class="o" d="M81.59,154.83l.19,0a1.13,1.13,0,0,1,.17,2.25h-.18a1.12,1.12,0,0,1-.18-2.24Z"/><path class="o" d="M83.81,149.57H84a1.12,1.12,0,0,1,.18,2.24l-.19,0a1.13,1.13,0,0,1-.17-2.25Z"/><path class="o" d="M123.37,159.22a17.15,17.15,0,0,1,3.12.19,1.09,1.09,0,0,1,.34.13,1.13,1.13,0,0,1,0,2.25,7.53,7.53,0,0,1-3.9-.43A1.14,1.14,0,0,1,123.37,159.22Z"/><path class="o" d="M132.58,158.1l.17-.21a1.13,1.13,0,0,1,1.72,1.47l-.18.2a1.12,1.12,0,0,1-1.71-1.46Z"/><path class="o" d="M100.52,159.31l.17-.2a1.12,1.12,0,1,1,1.71,1.46l-.17.2a1.14,1.14,0,0,1-1.59.12A1.13,1.13,0,0,1,100.52,159.31Z"/><path class="i" d="M75.38,18.74c-2.32,1.87-4.09,4.32-6.13,6.49s-4.52,4.14-7.47,4.6c6.7-.12,13.68,1.12,19.94-1.27a9.66,9.66,0,0,0,3.79-2.4A5.05,5.05,0,0,0,86.88,22c-.47-2.68-2.94-3.4-5.13-4.24C79.23,16.82,77.62,16.94,75.38,18.74Z"/><path class="i" d="M148.31,37c2.28-1.39,5.92,1,6.28-3.95.27-3.75-2.14-8.34-3.77-11.59-1.14-2.28-1.86-3.71-4.29-4.77a22.41,22.41,0,0,0-8.62-1.84q3.18-1.82,6.34-3.65c-1.28.13-13.84-.47-14.08.94.45-2.57,2.39-4.51,3.86-6.42-3.77.1-9.62,4.89-13.19,6.76,1-2.08,1.69-4.73,2.59-6.94-5.52.38-12.13,1.53-15.5,7.59a16.55,16.55,0,0,0-7.16-6.1c-2.26-1-6.23-3.68-8.45-3,.8,2.38,3.47,5.28,5.17,7-2.25-2.3-7.57-4.15-11.22-4.56a44.33,44.33,0,0,0-8-.12,51.12,51.12,0,0,0,8.56,6.11c-1.22-.6-5.47,1.55-6.6,2.3a16.11,16.11,0,0,0-4.89,5.39c-2.48,4.28-7.43,18-11.38,21.15,3.39,1.34,9-.81,12.77,2-.09,3.41-1.06,5-2.08,11.51C76,54.61,89.2,49.66,89.1,50.14a38.26,38.26,0,0,1-3.2,8.66c3.06.51,8.23-4.12,10.74-5.95-1,3.58-.62,7.25-.48,11.27,3.74-2.16,5.43-6.4,9-8.87.28,1.25,5.11,12.42,5.29,12.21,2-2.39,2.21-9.44,2.12-12.67,3.73,2.57,6,7.24,10,9.47-.71-3.63-2.58-6.86-2.14-10.64,4.69,1.93,11.67,1.5,14.59,6.89a63.61,63.61,0,0,1-3.67-10c5.94.3,9.14,4.47,14.2,6.59-1.56-3-3.25-6.51-5.49-9.09,1.68-.31,2.4.46,3.88.91.79.24,9.62,4.62,8.68,3.2C152.17,51.39,144.8,39.18,148.31,37Z"/><path class="i" d="M151.06,18.51c4.28,2.35,8.47,5.16,13.29,5.93a16.41,16.41,0,0,1-9.25,1.88,21.93,21.93,0,0,0,11.57,9.77A24.11,24.11,0,0,1,148.5,39a14.83,14.83,0,0,0,8.49,7.4c-5.79-1-11.62-2.73-16.28-6.29s-8-9.28-7.36-15.09a26.39,26.39,0,0,1,1.69-6.2c1.32-3.66,2.76-4.18,6.67-3.71A26.25,26.25,0,0,1,151.06,18.51Z"/></svg>