<svg xmlns="http://www.w3.org/2000/svg" width="272.74" height="231.6" viewBox="0 0 272.74 231.6"><defs><style>.a{fill:#3e3e44;}.b{fill:#fff;}.c{fill:#231f20;opacity:0.3;}.d{fill:#1b1b1e;}.e{fill:#e8d7d1;}.f{fill:#ccb6b0;}.g{fill:#f9ed32;}.h{fill:#c46e33;}.i{fill:#994e1c;}</style></defs><path class="a" d="M42.7,183.4c3.71,3.81-.42,21.61-5.17,21.58C26.72,204.9.22,199.21,0,175.46c-.18-20,40.51-25.13,41-5.24.17,6.89-5.42,11.38-11.44,12.15-6.54.85-11.51-.9-16.87-3.91,1.9-.69,5.5-.1,7.09-1.63s.9-5.31-1.63-5.21S17,175,18,176.18c1.66,2.07,4.89,3.16,7.5,3.41C30.7,180.08,38.77,179.38,42.7,183.4Z"/><path class="b" d="M27.35,174.92a25.24,25.24,0,0,0,3.74-5,22.24,22.24,0,0,0,5.33,3,73.3,73.3,0,0,0,4-6.31,10.36,10.36,0,0,1,.18,8.87c-2.86,6.51-8.65,9.36-14.7,10.37-5.12.84-12-.45-15.71-4.3,3.48-.92,6.27-2,8.35-3.92,1.89-1.77,2.5-3,1.1-5.39C20.27,172.51,25.43,173.56,27.35,174.92Z"/><path class="c" d="M173.33,220.3c0,6.24-33.35,11.3-74.48,11.3s-74.49-5.06-74.49-11.3,33.42-11,74.57-11S173.33,214.05,173.33,220.3Z"/><path class="d" d="M135.58,149c7.28,1.41,17.1,6.79,17.49,14.8a50.64,50.64,0,0,1-3.17,19.19c-1.1,3-4.93,13.39-7,17.24,3-1.11,8.66,2.59,9.57,6.72,1.46,6.61-5.89,8.39-8.48,8.68a47.62,47.62,0,0,1-14.8-.67c-3.75-.87-6.63-2.79-6.82-6.68-6.22,3.14-16.91.64-20.69-5.15s-7.73-20.39-1.25-34.4S127.23,147.34,135.58,149Z"/><path class="e" d="M145.16,192.25a29.19,29.19,0,0,1-7.59.36c-4.87-.25-9.58-1-13.6-4-3.66-2.65-9,.45-12.41,2.57a20.48,20.48,0,0,0-8.12,9.43,17.9,17.9,0,0,0-1,3.44c4.3,5.05,14.08,7.08,19.92,4.13.19,3.89,3.07,5.81,6.82,6.68a47.62,47.62,0,0,0,14.8.67c2.59-.29,9.94-2.07,8.48-8.68-.91-4.13-6.53-7.83-9.57-6.72,1-1.8,2.34-5,3.63-8.27C146.05,192,145.61,192.16,145.16,192.25Z"/><path class="a" d="M66,121.37c-17.65,23.92-34.38,46.91-30.91,68,4.46,27.12,45,30.83,64.44,22.05,11.64-5.26,21.36-14.44,28.57-25.19,3.47-5.18,6.4-10.74,10.21-15.66,8.63-11.15,20.32-22.33,25.39-36.15,4.53-12.38,6.95-28.34-1.51-39.4-5-6.53-26.07-15-33.14-19.43s-15.35-10.64-23.7-12C99.42,62.52,82.32,99.31,66,121.37Z"/><path class="d" d="M91.49,212.08c-1.2-4.69-6.61-9-9.68-7.73,2.12-4.42,6-16.31,7.09-19.81,2.19-6.92,4.5-14.7,4.18-22.08-.4-9.21-10.24-16.93-17.6-18.55-8.44-1.86-26.77,7-33.32,23.09-3.33,8.19-7.23,17.68-6.51,24.8,0,.15.09.29.13.44.17.61.35,1.22.56,1.81.1.29.23.56.34.85s.34.86.53,1.27.3.61.45.91.38.73.58,1.09.37.61.56.91.41.65.62,1,.44.61.66.9.44.58.67.86.5.59.76.88.46.5.69.75.57.58.87.86l.7.64c.32.29.65.58,1,.86s.44.35.66.52.75.58,1.14.86l.55.38c.45.3.89.6,1.36.89l.25.15a46,46,0,0,0,12.26,5l.08,0v.05l1,.26a66.46,66.46,0,0,0,29.73.08A11.49,11.49,0,0,0,91.49,212.08Z"/><path class="b" d="M162.23,95c-3.86-5-17.38-11.3-26.56-15.9a35.36,35.36,0,0,0-8.84,3.82,28.34,28.34,0,0,0-8.2,7.09c-3.32,4.42-4.82,9.94-5.63,15.4-1.33,9-.92,18.44,2.85,26.69s11.07,14.9,19.86,16.47a33.74,33.74,0,0,0,14.5-2.77,51.73,51.73,0,0,0,11.7-7.12c.67-1.4,1.29-2.82,1.83-4.28C168.27,122,170.69,106.06,162.23,95Z"/><path class="e" d="M148.67,134.86c-13.77,3.35-29.8,2.73-42.95-2.58C94.3,160.21,74.28,183.6,54.6,206.47l-3.14,3.63c14.73,7.41,37.78,9.23,50.16,3.62,11.64-5.26,19.31-16.76,26.52-27.51,3.47-5.18,6.4-10.74,10.21-15.66,8.63-11.15,20.32-22.33,25.39-36.15.68-1.87,1.31-3.81,1.87-5.81A83.11,83.11,0,0,1,148.67,134.86Z"/><path class="a" d="M114.16,88c6.87-1.3,14,16.66,16.85,24.57,5.22,14.29,1,33.27-1.73,50.33-1.38,8.75-6.92,43.54-4.2,49.89.94,2.2,6.32,3.37,5.65,7.67-1.66,10.58-23.65,7.12-25.48,2-3.22-8.95-3.62-24.35-4.17-35.65C100.1,166.72,86,93.3,114.16,88Z"/><path class="b" d="M132.28,109.8C130,103.68,124,94.31,118.82,89.72a22.71,22.71,0,0,0-3.94,5.47c-3,5.93-3.71,12.75-4,19.39-.54,13.08.3,26.15,1.07,39.2.6,10.06.85,20.16,1.43,30.19.4,7-.86,12.36-9.45,13.3a20.6,20.6,0,0,1-2.36.1c.51,9.09,1.37,18.72,3.66,25.08,1.83,5.1,23.82,8.56,25.48-2,.67-4.3-4.71-5.47-5.65-7.67-2.72-6.35,2.82-41.14,4.2-49.89C132,145.81,137.5,124.09,132.28,109.8Z"/><path class="f" d="M51.46,210.09l.21.11c.65.32,1.33.63,2,.93a51.42,51.42,0,0,0,7.3,2.5l.08,0v.05c4.25,1.1,8.72,2.15,13.14,2.83a69.69,69.69,0,0,0,17.46-.07,9.67,9.67,0,0,0-.17-4.33c-1.2-4.69-6.61-9-9.68-7.73,2.12-4.42,6-16.31,7.09-19.81,2.19-6.92,4.5-14.7,4.18-22.08a14.4,14.4,0,0,0-.89-4.3C81.34,175.33,67.9,191,54.6,206.47,53.56,207.68,52.52,208.89,51.46,210.09Z"/><path class="a" d="M71.7,148.57c7.37,1.62,17.3,7.81,17.69,17a65.31,65.31,0,0,1-3.2,22c-1.1,3.5-5,15.39-7.09,19.82,3.08-1.28,8.76,3,9.68,7.72,1.48,7.6-6,9.64-8.57,10a42.25,42.25,0,0,1-15-.78c-3.79-1-6.7-3.21-6.9-7.67-6.28,3.6-17.1.72-20.92-5.94s-7.83-23.42-1.28-39.53S63.26,146.71,71.7,148.57Z"/><path class="b" d="M79.1,207.45c1-2,2.24-5.45,3.49-9-12,2.95-18.86-1.55-18.86-1.55l-5.38,19.78c.2,4.46,3.11,6.67,6.9,7.67a42.25,42.25,0,0,0,15,.78c2.62-.33,10.05-2.37,8.57-10C87.86,210.42,82.18,206.17,79.1,207.45Z"/><path class="b" d="M164.13,210.07c-1.9-6.18,7.1-39.94,9.35-48.43,4.39-16.55,10.47-35,7-48.84-1.91-7.69-6.73-25.13-13.4-23.88-27.41,5.13-21.82,76.41-23,95.91-.69,11-2,25.92.14,34.61,1.2,4.95,21.76,8.34,24.46-1.92C169.79,213.34,164.79,212.2,164.13,210.07Z"/><path class="a" d="M180.52,112.8a118.76,118.76,0,0,0-3.68-12.26c-.22.33-.41.66-.57,1-2.75,5.21-3.59,11.18-4.43,17q-2.81,19.62-6.23,39.15-1.71,9.76-3.56,19.5c-.84,4.36-3.28,11.33-.18,15.29a7.22,7.22,0,0,0,3.67,2.47c2.34-12.24,6.51-27.87,7.94-33.28C177.87,145.09,184,126.68,180.52,112.8Z"/><path class="e" d="M180.52,112.8c-1.13-4.55-3.28-12.53-6.23-18a65.61,65.61,0,0,0-2.63,8.78,9.31,9.31,0,0,1-6.7,7.72c-8.87,2.52-14.54,6.64-18,11.3A203,203,0,0,0,144.78,145a40.35,40.35,0,0,0,21.93,9.64,48.5,48.5,0,0,0,8.69,0C179.39,140,183.47,124.73,180.52,112.8Z"/><path class="d" d="M180.16,111.38c-.08-.31-.17-.63-.25-1l-.09-.33c-.11-.43-.23-.87-.36-1.33,0-.06,0-.13-.05-.19-.11-.39-.22-.79-.34-1.2L179,107c-.12-.39-.23-.78-.35-1.18a2.81,2.81,0,0,1-.1-.31c-.15-.48-.3-1-.46-1.47l-.12-.37-.39-1.15c-.05-.15-.11-.31-.16-.47-.15-.43-.31-.86-.47-1.29a1.34,1.34,0,0,0-.07-.18c-.21.34-.4.66-.56,1-2.75,5.21-3.59,11.18-4.43,17q-2.58,18-5.7,36c.19,0,.38.06.57.07a48.5,48.5,0,0,0,8.69,0l0-.1.69-2.53.58-2.17c.15-.55.29-1.09.43-1.64s.36-1.35.53-2l.3-1.19.45-1.82.3-1.26c.14-.59.27-1.17.41-1.76l.27-1.25c.13-.6.25-1.2.37-1.79l.24-1.19c.13-.66.24-1.31.35-2l.18-1c.15-1,.3-1.94.42-2.89,0-.11,0-.21,0-.31.11-.85.2-1.7.28-2.54,0-.31,0-.62.07-.94,0-.62.09-1.25.12-1.86l0-1.06c0-.57,0-1.14,0-1.71,0-.35,0-.71,0-1.06,0-.56-.05-1.11-.09-1.66,0-.34,0-.68-.07-1-.05-.59-.13-1.17-.21-1.75,0-.27-.07-.56-.11-.83-.14-.84-.3-1.68-.5-2.49-.09-.34-.18-.71-.28-1.09C180.22,111.6,180.19,111.49,180.16,111.38Z"/><path class="g" d="M125.22,39.86c-30.41,4.91-33.52,43.73-14.5,60.56,16.37,14.48,35.48,16.86,44.94,15s18.51-6.56,24.51-14c6.62-8.17,13.05-34,1.36-46.59C167.06,39.28,146.42,36.45,125.22,39.86Z"/><path class="a" d="M121.1,42.91c.51-5.58-.35-10.39,2-15.82a30,30,0,0,1,10.69-12.73c11.3-7.58,7.27-11.09,40.69-11.09,22.14,0,41.9,13.66,48.57,24.86,5.08,8.53,3.68,18.27,3.24,27.66-.45,9.55-.8,19.34-5.51,28-2.49,4.59-6.13,8.67-7.57,13.68-1.27,4.44-4.11,29.92-8.85,37.52-8.23,13.21-23.62,17.63-37.58,15.74-9.52-1.29-18.9-7.05-25.42-13.95-6.7-7.1-9.69-16.75-12.48-26C122.18,88.34,119,66.24,121.1,42.91Z"/><path class="h" d="M205.72,132.32c2.44-6,4.29-16.31,5.63-24.3a23,23,0,0,1-11.28,9.66c-2.12.84-4.91.72-6.66,2.15a7,7,0,0,0-2.33,6.69c.73,3.38,4,5.77,7.41,6.36A16.58,16.58,0,0,0,205.72,132.32Z"/><path class="h" d="M123.85,57.89c-.15-1.34-.56-2.9-1.8-3.42a4,4,0,0,0-1.54-.3c-.37,19.24,2.76,37.81,8.4,56.59,2.79,9.29,5.78,18.94,12.48,26a50.15,50.15,0,0,0,7,6.13c2.73-4.37,13.26-19,11.35-24C157.49,113.06,129.46,107.27,123.85,57.89Z"/><path class="d" d="M213.36,57c3.78,1.9,7.11,2.37,12.8,2,.05-1.09.1-2.18.16-3.26.44-9.39,1.84-19.13-3.24-27.66-3.67-6.16-11.31-13.07-21.12-18-.56.18-1.1.37-1.62.59C180,19.1,195.88,48.24,213.36,57Z"/><path class="d" d="M123.13,27.09c-2.38,5.43-1.52,10.24-2,15.82a161,161,0,0,0-.28,24.82c2.47-.36,5.47-1.12,7.91-1.38C153.61,63.64,167,20.74,142.5,9.78c-.59-.26-1.19-.5-1.8-.71-1.87,1.47-3.81,3.23-6.88,5.29A30,30,0,0,0,123.13,27.09Z"/><path class="i" d="M125.2,66.93c-.47-3-.91-6-1.35-9-.19-1.34-.56-2.9-1.8-3.42a4.09,4.09,0,0,0-1.53-.3c0,.14,0,.28,0,.43,0,.64,0,1.29,0,1.93,0,1.55,0,3.09,0,4.62,0,.42,0,.83,0,1.24q.08,2.3.21,4.59c0,.25,0,.5,0,.75C122.19,67.53,123.7,67.22,125.2,66.93Z"/><path class="b" d="M186,103.77c-2.05-5.26,6.19-24-1.69-24.4-5-.25-10.46,18.2-10.94,21a9.3,9.3,0,0,1-6.7,7.73c-21.71,6.16-24.26,21.94-22.29,31.57,5.88,6.44,15.76,11,24.05,11.73,14,1.22,28.12-3.23,36.36-16.44,1.62-2.6,2.79-6.11,3.79-12.55C199.92,112.77,189.62,113,186,103.77Z"/><path class="a" d="M148.73,2.38c24.49,11,10.56,54.28-14.32,57-12,1.31-24.59,4.1-37,4.78-6.27.34-34.37.57-37.06-5.77-3.26-7.67,18.46-26.14,22.78-30.68,8.19-8.62,19.07-19.06,30.46-23.25C124,.6,138.45-2.22,148.73,2.38Z"/><path class="a" d="M197.42,6.4c-20.33,8.42-7.88,43.72,13,46.36,10.11,1.28,20.69,3.76,31.1,4.53,5.26.39,28.82,1.08,31-4,2.59-6.15-15.94-21.48-19.64-25.23-7-7.12-16.33-15.76-26-19.35C218.07,5.4,206,2.86,197.42,6.4Z"/><path d="M211.11,91c2.11,1.6-3.47,9.9-9.93,9.06s-10.93-9.39-8.12-11.15,3.17,5.86,8.82,6.16S209,89.42,211.11,91Z"/><path d="M163.32,89.27c2.82,1.3-1.67,11-9.33,11.31s-14.86-7.87-12-10.24,5.06,5.59,11.66,4.87S160.5,88,163.32,89.27Z"/><path d="M161.57,143.9c2.82,11.63,28.35,11.79,32.4.63,3-8.41-10.39-9.37-16.05-9.21C170.87,135.52,159.65,136,161.57,143.9Z"/><path class="b" d="M182.71,143.73c-3.34-.46-5.87-2.08-5.66-3.62s3.09-2.41,6.42-2,5.87,2.07,5.66,3.61S186,144.19,182.71,143.73Z"/><path class="h" d="M170,66.08c-.37,3.91,1.66,7.31,4.54,7.58s5.52-2.67,5.89-6.59-1.65-7.31-4.54-7.59S170.41,62.16,170,66.08Z"/><path class="h" d="M191.11,69.87c-.38,3.92,1.2,7.27,3.52,7.5s4.51-2.78,4.88-6.69-1.2-7.27-3.52-7.49S191.48,66,191.11,69.87Z"/></svg>