<svg xmlns="http://www.w3.org/2000/svg" width="283.77" height="188.78" viewBox="0 0 283.77 188.78"><defs><style>.a{fill:#c65d34;}.b,.g{fill:#231f20;}.b{opacity:0.3;}.c{fill:#e5b283;}.d{fill:#dd7547;}.e{fill:#ffd9b6;}.f{fill:#409ed3;}.h{fill:#f8f8f8;}.i{fill:#912f41;}</style></defs><path class="a" d="M38.6,118.23l.51.35c4.9,3.21,11.87,7,18,5.39,5.94-1.6,12-2.25,17.9-4.27,9.37-3.24,19.06-10.53,11.47-20.8-2.9-3.93-6.92-2.78-10.57-.07-4.38,3.26-8.09,7.83-12.94,10.4a24.81,24.81,0,0,1-12.42,3C42.07,112,32.78,107.48,27,101.5c.76,2.88,3.16,5.49,5,7.56-1.06-.29-2.31-1.29-3.45-1.19C32.52,113.64,34.63,115.42,38.6,118.23Z"/><path class="b" d="M33.9,154.75c0,18.79,42.72,34,95.42,34s95.42-15.24,95.42-34-42.72-34-95.42-34S33.9,136,33.9,154.75Z"/><path class="a" d="M49.82,136.09a27.34,27.34,0,0,0,2.16-4c5.19-2.77,10.58-6.87,15.92-7.16,5.61-.3,14,4.33,16.71,11.36,4,10.17-3.78,17.34-10.67,17.49-4.08.1-9,1.33-13,0-3.67-1.21-5.25-4.41-8.19-6.58a3.56,3.56,0,0,0-1.57-.64C48.43,143.16,46.71,141,49.82,136.09Z"/><path class="c" d="M37,146.9c-6.42-10.75,7.63-11.75,11.67-13.28A29.56,29.56,0,0,0,52,132.06a27.34,27.34,0,0,1-2.16,4c-3.11,4.88-1.39,7.07,1.33,10.44C46.71,145.88,40.6,153,37,146.9Z"/><path class="c" d="M190.14,149.54c-5.37-2.24-11.95-12.35-7.85-20.45,3.55-7,16.53-7.48,21.64-5.53,5.9,2.25,14.94,7.27,15.63,17.26.33,4.88-1.73,6.63-4.39,9-3.63,3.22-4.07,3-7.64,1.14C201.51,147.83,196.68,152.27,190.14,149.54Z"/><path class="d" d="M177.72,161.09c-.47-2.87.44-6.31.43-9.4a3.08,3.08,0,0,0,1.95-1.95c.72-2.37-1.81-5.71-1.92-8.4-.15-3.73.4-6.82,2.62-9.13,4.57-4.74,14.1-3.24,18.73.31,6.53,5,10,17,8.22,27-2.28,12.61-10.34,16.39-18.55,17.1-1.27-.86-2.51-1.74-3.61-2.64A21.24,21.24,0,0,1,177.72,161.09Z"/><path class="e" d="M167.29,163.1c-.76-7.32,2.06-9.28,6.58-10.53a31.43,31.43,0,0,0,4.28-.88c0,3.09-.9,6.53-.43,9.4a21.24,21.24,0,0,0,7.87,12.9c1.1.9,2.34,1.78,3.61,2.64-1.09.09-2.18.13-3.26.13C178,176.76,168.59,175.63,167.29,163.1Z"/><path class="a" d="M200.39,126.36c-2.29,5.71-4.62,9.62-8.81,13-5,4-9,9.82-13.75,14.23-11,10.14-23.91,14.93-37.32,17-10,1.58-20.4,3.14-30.47,1.08-4.57-.93-8.84-3.11-13.43-3.9-3.64-.62-6.53-1.42-9.72-3.89-6.2-4.83-9.84-12.28-14.93-18.48-4.33-5.26-7.81-10.66-6.92-18.79,1-9.55,1.5-19,5.87-27.32s11.58-15.7,18.16-21.4a76.26,76.26,0,0,1,29.84-15.61c20.51-5.26,46-7.42,65.59,3.69C203,76.51,209.41,103.94,200.39,126.36Z"/><path class="c" d="M146,119.93c-30.31,0-56,16.24-64.58,38.64a39,39,0,0,0,5.52,5.35c3.19,2.47,6.08,3.27,9.72,3.89,4.59.79,8.86,3,13.43,3.9,10.07,2.06,20.42.5,30.47-1.08,13.41-2.11,26.35-6.9,37.32-17,4.78-4.41,8.75-10.21,13.75-14.23a25.88,25.88,0,0,0,2.88-2.72C182.16,126.33,165,119.93,146,119.93Z"/><path class="d" d="M73.29,174.78c-8.37-7.95-12.5-20.49-11.12-34.85,1.27-13.2,7.17-27,17-30.42,9.28-3.26,20.74,6.28,15.52,21.13-1.62,4.63-3.9,5.41-1.45,10.5,1.58,3.29,4.32,5.42,6.81,7.11,5.48,3.69,11.56,5.24,17.41,7.35,5.4,2,10.39,3.11,12.38,11.67,1.81,7.79.09,16.87-6,19.66s-14.59-4.72-21-5.13c-8.22-.52-19.9.68-27.2-5C74.79,176.14,74,175.48,73.29,174.78Z"/><path class="a" d="M100,148.25a40.53,40.53,0,0,0,8.27,4.15c-3.12.59-6.14,1.81-9.38,1.14a17.57,17.57,0,0,1-7.44-3.4h0a20,20,0,0,1-2.67-2.49,3.47,3.47,0,0,1-.25-.29c-.35-.39-.69-.79-1-1.22s-.85-1.13-1.28-1.76c-4.19-6.22-5.61-13.2-5.71-21.48,0-3.86-.32-7.59-.38-11.45,0-.68,0-1.35-.09-2a1.1,1.1,0,0,0,0-.18c9.1-2.37,19.67,7,14.62,21.4-1.62,4.63-3.9,5.41-1.45,10.5C94.78,144.43,97.52,146.56,100,148.25Z"/><path class="f" d="M199.62,107.44c3.21,5.88,4.29,16.62,2.06,22.85-2.12,5.93-6.65,11.35-10.9,15.31-9.38,8.76-21.61,13.41-33.6,15.12-17.58,2.51-36,3.95-51.45-7.68-7.74-5.8-14.35-11.89-16.54-22.61-5.75-28.14,17.1-36.53,36.73-42.32,18.47-5.46,47.1-10.68,62.77,6.33C192.07,98.1,197.14,102.88,199.62,107.44Z"/><path class="d" d="M84,116.34C72.85,96.16,69.49,73.16,81.23,54.2,88.52,42.43,101.89,31.27,114,25.75a81.6,81.6,0,0,1,31.49-7.12c8.55-.23,18.17-1.3,27.61-1.28,8.69,0,17.22,1,24.61,4.37,30,13.84,34.65,48.37,26.56,78.41-9.6,35.7-31.44,63.62-68.38,65.52C130,167,99.48,144.38,84,116.34Z"/><path class="e" d="M145.48,158.29c10.28.72,20.6-1.5,30.27-4.84,6-2.09,12.65-3.89,16.84-9,4.85-5.89,5.27-14.67,3-21.57a24.45,24.45,0,0,0-11.44-13.62c-5.08-2.78-11-3.27-16.29-5.86-5.91-2.91-4.9-7.43-6.5-13-.71-2.48-1.29-4.75-3.64-6.34-4-2.73-2.29,1.14-5.58,2s-3.59-4.23-7.41-2.33c-2.78,1.38-2.11,5-1.81,7.39.68,5.34,3.1,11.25.36,15.76-7.1,11.67-21.14,15.74-22.64,31.16a17.74,17.74,0,0,0,3,12.21c4.36,6.35,12.91,7.09,19.94,7.82C144.28,158.2,144.88,158.25,145.48,158.29Z"/><path class="g" d="M141.51,122.41c.93,6.21,8.65,10.13,17.25,8.75s14.82-7.53,13.9-13.74-8.65-10.13-17.25-8.76S140.59,116.19,141.51,122.41Z"/><path class="h" d="M151.35,120.55c-3.3,1.91-6.78,2.07-7.76.37s.9-4.63,4.2-6.54,6.77-2.07,7.76-.37S154.65,118.64,151.35,120.55Z"/><path class="g" d="M161,137.86c-.89-2.83-2-5.61-2.45-5.81-.88-1.33-1.59-1.77-1.38-2.64s1.43-.75,2.18-.5c2,.68,3.46,4.42,4.39,7.76Z"/><path class="i" d="M149,137.48c-7.16-.24-22,15-12.38,13.88,6.44-.74,15.71-3.54,22-5.08,5.93-1.45,9.06-7.2,14.51-8.58-8.24.06-15.9.05-24.11-.22C144,137.31,153.74,137.63,149,137.48Z"/><path class="g" d="M131.32,151.75c2.86,0,5.56-4.2,8.09-8.54.36-.6.8-1.36.94-1.53,3.4-3.85,8.69-2.83,13.36-1.94l.77.15c3.75.71,20.85-.61,25.23-4.63a3.73,3.73,0,0,0,1.3-2.53,1.52,1.52,0,0,0-1.26-1.67,1.41,1.41,0,0,0-1.44,1.42c-1,2.57-18,5.33-23.39,4.31l-.77-.14c-5-1-11.31-2.18-15.7,2.79a13.94,13.94,0,0,0-1.28,2c-1.07,1.82-4.31,7.4-5.93,7.14-.32,0-.82-.65-1.27-2.19a1.33,1.33,0,0,0-1.72-1,1.63,1.63,0,0,0-.84,2c.75,2.61,1.92,4.06,3.46,4.3A3.42,3.42,0,0,0,131.32,151.75Z"/><path class="g" d="M131.2,97.56a16.61,16.61,0,0,1-5.64,3.24c-2.4.84-4.79,1.79-7.21,2.5-3.16.93-6.43,2.14-9.53,3.26-4.24,1.53-8.66,3.48-13.12,4.32,1-.19,3.87-5.54,4.06-6.49A15.44,15.44,0,0,1,92.24,103c4.92-1,10.2-3.45,15-4.85,6-1.75,12-3.64,18-5.4,2.37-.7,5.89-2.71,7.18-.19C133.42,94.47,132.63,96.19,131.2,97.56Z"/><path class="g" d="M175.87,90.22a16.55,16.55,0,0,0,6.48.63c2.53-.22,5.1-.33,7.59-.68,3.27-.46,6.74-.7,10-1,4.49-.35,9.32-.39,13.73-1.47-1,.24-5.81-3.45-6.37-4.23a15.6,15.6,0,0,0,6.26-4.41c-4.9,1.09-10.71,1-15.69,1.76-6.22.89-12.41,1.61-18.6,2.47-2.45.34-6.48,0-6.62,2.78C172.58,88.32,174,89.56,175.87,90.22Z"/><path class="d" d="M6.63,36.6c3.71-.32,8.37-.06,10.7-.27a81,81,0,0,0,17-3.42C53.47,27.2,75.93,13.46,96.62,19c9.87,2.65,14.2,8.87,13.92,18.75C110,58,90.05,66,73.18,70.39c-8.93,2.34-19.91,2.46-28.24-1.89s-16.1-5.74-25.68-8.35C14,58.71,7.3,57,4,52.72c-3.14-4-6.12-12.23-1.88-15A10.63,10.63,0,0,1,6.63,36.6Z"/><path class="e" d="M19.92,51.5c.82-.53,2.68-.27,3.44-.32,3.12-.2,6.51-1.49,9.5-2.38,7.8-2.33,15.52-5,23.43-7.56,12.74-4.1,21.34-2.6,33.71-.9-3.54,4-10.33,7.28-15.13,9.71,5.18,2.22,14.86-2.18,20.1-3.91-4.08,5.16-13.21,8.69-19.74,10.13,3.71,1,7.6.66,11.41.14,3.43-.47,8-1.84,11.32-1-.41,1.29-1.47,2-2.34,3a22,22,0,0,1-6.91,5.9c-3.38,1.87-6.58,2-10.22,2.62a42.64,42.64,0,0,1-22.92-1.67,62.85,62.85,0,0,0-11.63-3.43,51.17,51.17,0,0,1-9.75-2.24c-3.42-1.22-6.65-2.25-9.94-3.74-1.3-.6-3.81-1.33-4.51-2.79C19.35,52.24,19.5,51.76,19.92,51.5Z"/><path class="d" d="M276.35,11.56c-3.83,0-8.59.77-11,.79a84.22,84.22,0,0,1-17.81-1.8c-20.19-3.92-44.6-15.72-65.29-8-9.87,3.69-13.7,10.47-12.42,20.53,2.6,20.57,23.81,26.73,41.56,29.56,9.4,1.5,20.69.53,28.81-4.74s15.95-7.46,25.53-11.08c5.26-2,12-4.41,14.95-9.11,2.82-4.43,5.07-13.08.44-15.5A11.12,11.12,0,0,0,276.35,11.56Z"/><path class="e" d="M264.19,28.08c-.9-.46-2.78,0-3.57,0-3.22.09-6.83-.88-10-1.49C242.4,25,234.21,23,225.84,21.23c-13.48-2.91-22.16-.52-34.69,2.44,4,3.72,11.33,6.4,16.49,8.41-5.1,2.78-15.47-.75-21-2,4.69,4.87,14.42,7.57,21.26,8.39-3.71,1.38-7.73,1.42-11.69,1.27-3.57-.14-8.41-1.09-11.72,0,.54,1.28,1.7,2,2.7,2.89,2.64,2.48,4.16,3.83,7.68,5.33s6.94,1.36,10.75,1.66a44.22,44.22,0,0,0,23.36-4A65.29,65.29,0,0,1,240.55,41a53,53,0,0,0,9.79-3.25c3.38-1.59,6.6-3,9.83-4.82,1.28-.73,3.78-1.73,4.35-3.28C264.85,28.78,264.65,28.31,264.19,28.08Z"/><path class="e" d="M102.07,169c-.35,9.93,6.84,18.4,16.05,18.93s17-7.09,17.31-17-6.83-18.4-16.05-18.93S102.42,159.11,102.07,169Z"/></svg>