<svg xmlns="http://www.w3.org/2000/svg" width="270.72" height="206.22" viewBox="0 0 270.72 206.22"><defs><style>.a{fill:#231f20;opacity:0.3;}.b{fill:#844e1e;}.c{fill:#bf7634;}.d{fill:#d8a16f;}.e{fill:#1c75bc;}.f{fill:#454136;}.g{fill:#efbc92;}.h{fill:#fff;}.i{fill:#0b0808;}.j{fill:#721c2a;}.k{fill:#b7375c;}</style></defs><path class="a" d="M31.41,192.12c0,7.79,39,14.1,87.13,14.1s87.14-6.31,87.14-14.1S166.67,178,118.54,178,31.41,184.33,31.41,192.12Z"/><rect class="b" x="149.22" y="112.14" width="19.25" height="71.04" transform="translate(-41.29 64.1) rotate(-20.25)"/><path class="b" d="M159.49,180c.07,5.63,6.81,10.11,15.06,10s14.88-4.74,14.81-10.37-6.81-10.11-15.06-10S159.42,174.4,159.49,180Z"/><rect class="b" x="41.46" y="117.05" width="71.04" height="19.26" transform="translate(-67.9 95.3) rotate(-46.49)"/><path class="b" d="M43.79,146.82c-4.56,3.3-4.32,11.4.52,18.08s12.47,9.41,17,6.1,4.33-11.4-.51-18.08S48.35,143.51,43.79,146.82Z"/><path class="b" d="M70.22,118.5c-5.89,9.28-3.65,21.27,5,26.78s20.47,2.44,26.37-6.85,3.65-21.27-5-26.77S76.12,109.21,70.22,118.5Z"/><path class="c" d="M46.65,93.94c-5.53,24.69,19.3,47.18,49.18,53.87s69.12,7.29,62.61-27.49C156.3,108.84,154,97.74,151,86.48c-1.61-5.91-2.52-12.39-7.5-16.51C126.41,55.85,109.9,74.71,92,71.13c-7-1.39-13.61-3-20.88-2C58.78,70.83,49.31,82.07,46.65,93.94Z"/><path class="d" d="M54.3,123.41c18-1.92,39.65-2,62.75.29a344.74,344.74,0,0,1,42,6.65c-2.4,24.55-36.53,23.43-63.19,17.46C78.76,144,63.35,135,54.3,123.41Z"/><rect class="c" x="142.09" y="103.36" width="19.25" height="71.04" transform="translate(-52.45 163.81) rotate(-49.43)"/><path class="c" d="M173.64,175.15c3.47,4.43,11.55,3.89,18.05-1.2s8.93-12.81,5.46-17.24-11.56-3.89-18.05,1.2S170.16,170.72,173.64,175.15Z"/><path class="e" d="M124.82,65.29l6.1-.83a46.7,46.7,0,0,0,39.28,63.79c-.69,2.5-1.6,5.93-2.39,8.93-2.34.19-4.78.62-7.13,0-26.09-6.34-43.5-22.23-43.24-49.93C117.52,79.15,120.68,71.68,124.82,65.29Z"/><rect class="c" x="9.75" y="100.81" width="71.04" height="19.25" transform="translate(-41.58 28.57) rotate(-24.4)"/><path class="c" d="M7,116.61c-5.47,1.35-8.3,8.94-6.32,17s8,13.41,13.48,12.06,8.29-8.94,6.32-17S12.42,115.26,7,116.61Z"/><path class="c" d="M42.09,100.31c-9,6.39-11.38,18.34-5.43,26.7s18.05,10,27,3.58,11.39-18.34,5.43-26.7S51.05,93.93,42.09,100.31Z"/><path class="c" d="M48.1,71.71C41,70.21,36.26,65,34.1,58.12c-2.45,1-1.65,7.86-1.4,10a23.65,23.65,0,0,0,5.22,12.4,25.63,25.63,0,0,0,18,9.61c4.67.31,11.92-2.19,11.9-7.83C67.79,71.4,55,73.17,48.1,71.71Z"/><path class="f" d="M192.39,37.17c5.88,6,18.74,13.47,25.29,5,2.95-3.82,2.67-7.84,1.5-12.49-1.3-5.15-7.2-11.53-11.91-13.93-5.87-3-11.57-4.51-17.26-8.41-2.77-1.9-8.93-8.26-12.25-7.22A52.44,52.44,0,0,0,192.39,37.17Z"/><path class="c" d="M163.93,133.15l-2.94-.79c-10.15-2.81-16.19-5.43-23.71-13.22s-13.6-20.81-13.94-31.54C122.92,74.35,128,62.26,134.2,51c4.94-9,12.7-20.62,22-25.58,10.55-5.63,24.94-6.6,36.53-5.73,8.65.64,16.74,5.43,24.13,9.58C225.32,34,233.17,40.9,238.33,49.2c2.63,4.24,3,9,5.06,13.2,1.72,3.48,5.62,5.7,7.92,8.93s5.92,6,7.54,9.57c3.37,7.38,1.32,19.74-2.09,26.59-13,26.09-46.54,26.44-71.32,28.19C177.79,136.23,171.35,135.09,163.93,133.15Z"/><path class="g" d="M251.31,71.33c-2.3-3.23-6.2-5.45-7.92-8.93-2.1-4.24-2.43-9-5.06-13.2-5.16-8.3-13-15.16-21.48-19.92-7.39-4.15-15.48-8.94-24.13-9.58a84.22,84.22,0,0,0-26.4,1.91c7.67,2.15,15,3.64,22.18,7.22,6,3,12.05,5.62,18.34,8.47,7,3.17,13.49,7,18.42,13,5.1,6.15,8,11.77,7.8,20-.15,5.31-.09,7,5.43,7.91,3.25.55,8,1.17,10.63-1.41a18,18,0,0,0,3.1-4.25C251.9,72.13,251.59,71.73,251.31,71.33Z"/><path class="h" d="M223.05,63.22a17.33,17.33,0,1,1-17.19-17.37A17.32,17.32,0,0,1,223.05,63.22Z"/><circle class="i" cx="211.08" cy="63.72" r="12.25" transform="translate(-4.9 108.1) rotate(-28.41)"/><path class="h" d="M209.89,55.54c1.38,1.28.85,4.08-1.17,6.26s-4.78,2.91-6.16,1.64-.85-4.09,1.17-6.27S208.51,54.26,209.89,55.54Z"/><path class="f" d="M152.69,38.22C161,39.62,175.77,38,176,27.29c.12-4.82-2.49-7.9-6.18-11-4.09-3.38-12.62-5-17.84-4.18-6.5,1.06-12,3.2-18.89,3.41C129.77,15.67,121,14.19,119,17A52.46,52.46,0,0,0,152.69,38.22Z"/><path class="d" d="M203.81,85a92.5,92.5,0,0,1,12-11.24c4.4-3.49,8.85-6.74,14.4-8.12a33.27,33.27,0,0,1,19.17,1.2,24.49,24.49,0,0,1,8,4.82c2.77,2.52,2.83,4,3.95,7.25.57,1.64,2.2,2.88,2.72,4.75,1.15,4.07.3,9.16-1.1,13-3.16,8.65-11.32,14.48-14.46,22.88-2.61,7-2.48,14.57-11.26,17.33-8,2.51-18.52,1.65-26.84,1.95-6.37.22-12.6,2.11-18.94.05-22.38-7.27-4.48-29.88,3-41.42A103.34,103.34,0,0,1,203.81,85Z"/><path class="i" d="M251.68,64.78c3,.23,7.88.55,9.19,4,1.24,3.28-1.69,7.22-4.72,8.32-3.22,1.17-5.54-.23-7.89-2.75C244,69.75,244.35,64.21,251.68,64.78Z"/><path class="h" d="M254.42,67.91c0,.83-1.48,1.57-3.37,1.65s-3.46-.53-3.5-1.36,1.48-1.58,3.37-1.66S254.38,67.07,254.42,67.91Z"/><path class="j" d="M256.59,106.58c-1.71,2.39-3.54,4.7-5.07,7A47.3,47.3,0,0,1,240,125.69c-6,4.46-13.48,13.06-21.83,11.53a7.59,7.59,0,0,1-6.49-6.8c-.37-4.61,3.7-8.88,6-12.56A60.12,60.12,0,0,0,223,106.4c3-8.15,4.49-18.44,13.47-22.27,7.75-3.3,26-1.75,25.66,9.36C262,98.31,259.47,102.56,256.59,106.58Z"/><path class="k" d="M173.85,103.36c-9.26,10.56,10.87,24,19.89,24.29,12.76.47,31.67-5.67,34.25-20.16.35-2,2.44-6.32,1-8.48-2.23-3.4-14.6,0-17.82.64-9.61,1.8-18.38,4.35-28.12,2.89C179.8,102,176.22,100.65,173.85,103.36Z"/><path class="h" d="M247,100.58c0,6.28-5.76,6.39-7.33,1-.59-2,2.1-9.76.94-10.88C243.94,93.92,247,95.63,247,100.58Z"/><path class="h" d="M269.52,101.52c-1.78,6-7.3,4.55-7.32-1.09,0-2.11,4.71-8.79,3.9-10.19C268.43,94.27,270.92,96.77,269.52,101.52Z"/><path class="c" d="M245.49,134.34a20.72,20.72,0,0,1-2,1.06c-7.43,3.52-17.27,10.29-25.91,9.21-2-.26-18.71-3.92-18.61-5.86.41-8.52,15.58-16.31,21.53-21.14,5.52-4.47,10.12-9.44,15.26-14.23,5.92-5.52,11.29-6.52,19.28-6.13,5.46.27,15.4-.63,15.66,6.83.15,4.29-2.41,5.26-5.79,7.12-5,2.74-6.95,6.36-9.46,11.35S250.06,131.57,245.49,134.34Z"/></svg>