<svg xmlns="http://www.w3.org/2000/svg" width="266.24" height="256.18" viewBox="0 0 266.24 256.18"><defs><style>.a{fill:#e5e5e5;}.b{fill:#fefefe;}.c,.h{fill:#0b0808;}.c{opacity:0.25;}.d{fill:#ccc7c6;}.e{fill:#d3674a;}.f{fill:#c19a99;}.g{fill:#b7375c;}</style></defs><path class="a" d="M188.06,190.21c7.23,3,11,11.83,8.5,19.76s-10.44,11.94-17.68,9-11-11.82-8.51-19.75S180.82,187.23,188.06,190.21Z"/><path class="b" d="M151.82,196.77c-.48,8.86-6.88,16.75-14.31,17.64s-13.06-5.57-12.59-14.42,6.89-16.75,14.31-17.64S152.3,187.92,151.82,196.77Z"/><path class="c" d="M19.65,245.63c0,5.83,36.1,10.55,85.39,10.55s89.26-4.72,89.26-10.55-40-10.55-89.26-10.55S19.65,239.8,19.65,245.63Z"/><path class="a" d="M53.16,193.5c-4,6.79-11.41,9.28-16.56,5.56s-6.08-12.24-2.08-19,11.41-9.28,16.55-5.56S57.16,186.71,53.16,193.5Z"/><path class="a" d="M99.27,125.78c4.45,1.71,8.24,5.78,10.47,13.37,4.88,16.6-3.84,28.81-14.91,32.27a45.6,45.6,0,0,1-17.51,1.94c-1.39-.11-14.07-3.73-13.95-4-4.52,9.95-7.09,25.79-16,29.23-3.41,1.3-7.86-2.24-10.81-4.87-2.24-2-3.39-6.93-2.24-10.27,1.38-4,5.78-2,8.09-4.15,3.16-3,4.49-10.67,6.45-15,4.17-9.22,7.65-19.38,14-26.39,5-5.56,11.3-7.37,17.2-10.28C86.19,124.57,92.76,123.29,99.27,125.78Z"/><path class="a" d="M129.66,161.58a21.37,21.37,0,0,0,1.39,5.53c2.93,7,9.14,9.29,15.83,9.33,12.9.07,23.13,5,26.82,18.23,1.28,4.63-.24,9,5,11.28a13.5,13.5,0,0,0,12.54-1.29c4.85-3.2,4.68-6.07,3-11.59-2.41-7.69-5.1-15.89-9.22-22.78-3.57-6-10.9-7.85-17.49-9.32-8.67-1.94-18.17-5.07-21.23-14.91-1.16-3.75-1.76-8.56-5.3-9.88-2.6-1-5.47.69-7.29,2.87-4.15,5-4.66,12.17-4.31,18.76C129.4,159.06,129.5,160.33,129.66,161.58Z"/><path class="b" d="M49.64,87.19c8.58-4.75,18.59-7,26.26-8.45a109.88,109.88,0,0,1,44.72,1c12.35,2.87,28.47,6.68,35.46,21.52,6.35,13.51-2.11,23.09-6.47,34.91-1.85,13.91-8.86,26.23-21.13,32.78-15.6,8.32-31.14-.1-45-8.1-6-3.45-6.9-6.85-13.44-8.5-6.07-1.54-14,.78-19.94-1.42C39.58,147,33.17,136.39,31.63,121.52,29.78,103.65,38.51,93.35,49.64,87.19Z"/><path class="b" d="M100.61,69.7A20.07,20.07,0,0,1,105,74.42,102.4,102.4,0,0,0,84.78,71.3q2.31,1.55,4.63,3.08a72.42,72.42,0,0,0-21.49,1c13.8,9,30.89,11.65,47.23,10.31,2.76-.23,8.57-.2,10.3-2.88,2-3.14-2.36-5-4.56-6.22a55.17,55.17,0,0,0-9.8-4.47C108.52,71.27,102.58,71.23,100.61,69.7Z"/><path class="d" d="M57.92,134.39a43.17,43.17,0,0,1,15.52,4c9,4.23,16.88,12.72,27,13.68,9.45.89,19.31-.27,28.61-1.92,5.48-1,10,0,15.41.62a135.44,135.44,0,0,0,19.72.9c-.46,0-3.26,5.22-3.77,5.89a44,44,0,0,1-5,5.54,41.75,41.75,0,0,1-12.73,8.07c-4.8,2-8.75,4.06-14.05,4.42a48.12,48.12,0,0,1-17.89-2.52c-4.46-1.44-8.56-2.39-13-3.88-5.66-1.92-11.16-6.38-16.69-8.69C73.7,157.38,66,157,58.06,156.4c-6-.45-32.24-7.68-18.47-18.35a15.35,15.35,0,0,1,5.85-2.54A41,41,0,0,1,57.92,134.39Z"/><path class="b" d="M80.53,108.18c7.15,16.95-1.33,33.92-13.33,41.88a60.75,60.75,0,0,1-19.32,8.59c-1.56.37-17.92,1.31-17.81,1-2,6.31-2.56,12.33-3.88,18.77a35.68,35.68,0,0,1-1.39,5.26c-1.74,4.74-5.06,8.34-8.64,9.92-5.48,2.42-12.91.66-13.85-8.2-.87-8.26,4.14-8.69,7-14,1.95-3.66,1.45-35.59,13.35-55.9C31,101.25,38.55,93.23,45.93,90.1,62.68,83,77.27,100.44,80.53,108.18Z"/><path class="b" d="M153.18,174.91c-3.22-5.61-9.83-7.38-15.77-8.76-3.24-.75-8.2-2.77-9.66-6.44-2.14-5.4,2-10.63-1-16.46-.15-.27-.32-.52-.47-.79s-.5-.79-.77-1.17c-2.34-3.34-5.88-6.1-9.7-6.33a13.31,13.31,0,0,0-13.6,10.52,32.92,32.92,0,0,0-.61,6.86,62.09,62.09,0,0,0,2.54,14.6,1.72,1.72,0,0,0,.07.21c1.93,6.31,5.54,11.46,12.26,13.23,5.16,1.35,18,.14,17.92,8.84a9.68,9.68,0,0,1-.84,3.28c-1.11,2.9-2,5.19.25,8a11.74,11.74,0,0,0,5.75,3.5,13.79,13.79,0,0,0,6.94.5c6.19-1.38,7.09-8.23,8-13.6S155.85,179.55,153.18,174.91Z"/><path class="b" d="M25.1,182.42c-.54,9.09-6.59,17.26-13.52,18.27S-.5,195.14,0,186.05s6.59-17.26,13.51-18.26S25.65,173.33,25.1,182.42Z"/><path class="e" d="M110.66,101.76c-1,7.35-7.54,48.18,42.08,56.53,15.78,2.66,32.54,1,45.55-13.68,6.49-7.34,12-14.9,13.11-27.3,3-32.56-18.1-39.9-36.13-44.62C158.3,68.26,115.49,66.7,110.66,101.76Z"/><path class="b" d="M126.7,115a136.16,136.16,0,0,1,1.55-18.77c1.39-10.36,5.14-21.07,11.23-29.28,7.47-10.09,16.42-12,27.73-12.33,6.28-.16,12.21-3.34,18.42-2.73,7.42.73,15,3.35,22.43,4.43,5.22.75,9.33,1.57,14,4.22,7.34,4.16,15.31,11,17.82,19.46,2.42,8.22-1.23,18.15,4.1,25.51,3.1,4.28,8.72,6.27,11.33,10.87,2.23,3.93,1.73,8.83.77,13.26-4.69,21.69-22.2,42.69-45.61,39.54-6.31-.85-31.68-7-38.07-9.35C163,156.29,154,151.66,145.05,147c-3.57-1.88-6.66-2.74-9.53-5.75a28.66,28.66,0,0,1-6.38-10.26A48.85,48.85,0,0,1,126.7,115Z"/><path class="b" d="M154.2,28.35c3.74-6.48,15.47-32,24.87-27.92,4.78,2.06,3.9,12.79,5.47,18,4.71,15.61,6.65,24.26,1.93,34.79a62.89,62.89,0,0,1-7.6,12.15,12,12,0,0,1-5,4.17c-4.18,1.69-8.3-.45-13.8.69-5.77,1.19-9.4,2.74-13.37-2.49a23.57,23.57,0,0,1-1.68-2.6C137,51,148,39.12,154.2,28.35Z"/><path class="f" d="M183.14,51.28C184.88,40,183.05,30,180,19.3c-.59-2-.62-4.33-2.53-5.69-4.23-3-6.65,1.74-8.22,4.83-2.39,4.7-4.31,9.71-7.75,13.82-4.86,5.82-9.64,13.44-11,21.59-.57,3.27-1.16,9.28,2.59,10.95a6.81,6.81,0,0,0,2.77.4l8.76.06a37.36,37.36,0,0,0,4.1-.14A16.33,16.33,0,0,0,183.14,51.28Z"/><path class="b" d="M229.69,39.1c5.25-3.6,23.44-18.92,29.92-12,3.29,3.52-1,11.58-1.4,16.28C257,57.49,255.72,65,248.3,71.42A48.83,48.83,0,0,1,238,77.92a10.31,10.31,0,0,1-5.56,1.28c-4-.34-6.75-3.66-11.71-5-5.18-1.36-8.72-1.59-10.29-7.27a20.58,20.58,0,0,1-.54-2.71C207.91,50.05,221,45.07,229.69,39.1Z"/><path class="f" d="M246.23,67.89c5.23-7,6.77-18.06,8.37-25.55.49-2.31,3.1-3.49,1.53-6.06-4-6.54-12,4.82-16.48,7-5.26,2.6-11.15,6.69-15.11,12.63a22.22,22.22,0,0,0-3.31,10c.85,4.6,3.31,4.69,6.92,6,4,1.43,6.65,3.25,11.38,1.33A15.88,15.88,0,0,0,246.23,67.89Z"/><path class="g" d="M227.22,158.66c-5.82,4-13.3,4.77-20.23,3.68a25.6,25.6,0,0,1-10.41-3.66,13.74,13.74,0,0,1-6.16-9c-.2-1.27-.12-3.24,1.37-3.73,1-.32,2.12.51,3.09.68,3.59.62,7.64.32,11.28.46a26.82,26.82,0,0,0,13-2.78,2.08,2.08,0,0,1,3.2.43,19.19,19.19,0,0,0,5.08,4c1.61.89,5.24.38,5.27,2.57A13.57,13.57,0,0,1,227.22,158.66Z"/><path class="h" d="M221.62,144.43a1.72,1.72,0,0,0,1.74-.79c6.29-8.25,4.34-15.53,4.25-15.84a1.22,1.22,0,0,0-2-.65,2.6,2.6,0,0,0-1.06,2.65c.07.24,1.38,5.5-3.27,11.62a2.18,2.18,0,0,0-.17,2.69A1.13,1.13,0,0,0,221.62,144.43Z"/><path class="h" d="M192.09,146.93c8.12,3.58,24.52-.38,28.36-1.39,5.29,5.48,9.56,7.45,13.06,6.05a7.46,7.46,0,0,0,4-4.55,1.31,1.31,0,0,0-1-1.8,1.89,1.89,0,0,0-1.91,1.39,3.35,3.35,0,0,1-1.74,2c-1.07.42-4.28.67-10.62-6.08a1.23,1.23,0,0,0-1.27-.31c-6.55,1.84-24.61,5.49-29.42.3-1.17-1.28-1.46-3-.86-5.35a1.3,1.3,0,0,0-1.05-1.74,1.92,1.92,0,0,0-1.87,1.48c-.88,3.41-.4,6.13,1.43,8.09A8.38,8.38,0,0,0,192.09,146.93Z"/><path class="h" d="M174.31,83.25a7.26,7.26,0,0,0-4.59.51,4.34,4.34,0,0,0-2.4,3.89,6.34,6.34,0,0,0,1.4,3.19,23,23,0,0,0,6.56,6.41,13.72,13.72,0,0,0,8.66,2.13c4.12-.48,5.9-5.5,3.27-8.85a18.38,18.38,0,0,0-7.93-5.81A26.29,26.29,0,0,0,174.31,83.25Z"/><path class="b" d="M179.29,88.45c-.7,1,.25,2.91,2.12,4.21s3.93,1.53,4.62.51-.26-2.9-2.12-4.2S180,87.43,179.29,88.45Z"/><path class="h" d="M231.42,91.47a4.59,4.59,0,0,1,3.19,1.29,3.79,3.79,0,0,1,.7,3.78A6.52,6.52,0,0,1,233.44,99a20.46,20.46,0,0,1-6.47,4.26,9.35,9.35,0,0,1-6.85.2c-2.86-1.17-2.81-5.81,0-8.18a15.26,15.26,0,0,1,7.3-3.49A17.87,17.87,0,0,1,231.42,91.47Z"/><path class="b" d="M227.26,93.59c-.37,1,.86,2.33,2.74,3.09s3.72.6,4.09-.36-.86-2.33-2.75-3.09S227.63,92.63,227.26,93.59Z"/><path class="b" d="M22.37,80.31a46.27,46.27,0,0,1-4.44-5.16,29.17,29.17,0,0,0,2.13,11.66,15.38,15.38,0,0,1-4-3c-2.16,8.72,3.12,18.18,11.36,22.27a32.4,32.4,0,0,0,6.82,2.37,25.14,25.14,0,0,0,9.79.73c12.24-2,9-15-1.18-17.48A42.69,42.69,0,0,1,22.37,80.31Z"/><path class="b" d="M120.88,96.75a71.38,71.38,0,0,0,5.27,8.51,44.3,44.3,0,0,1-6.76-1.1l5.17,10.31a20.8,20.8,0,0,0-5-1.73,41.77,41.77,0,0,0,9.4,17.64c4.51,5,10.59,9,17.27,9.3s13.77-3.86,15.42-10.44a17.77,17.77,0,0,0-.9-10.13c-2.67-7.54-8.85-13.27-15.63-17a46.21,46.21,0,0,0-10.52-4.28C133.2,97.42,120.93,96.84,120.88,96.75Z"/><path class="b" d="M261.1,110.4a10.63,10.63,0,0,1-4.75,6.78,24.92,24.92,0,0,0,9.64-1.74c-.29.12-2.05,4.65-2.44,5.34a28.93,28.93,0,0,1-4.66,6.31,33.5,33.5,0,0,0,7.35-.48C261,136,255.65,144.73,247,151.83c-2,1.63-4.88,3.24-7.2,2a4.25,4.25,0,0,1-1.72-1.85c-1.46-2.85-.48-6.17.72-9.12,1.95-4.83,4.47-9.52,5.66-14.54a20.61,20.61,0,0,0,.35-8.63c-.33-1.71-3-4.56-2-6.17,1.24-2,4.89-.77,6.9-.9A45.62,45.62,0,0,0,261.1,110.4Z"/><path class="h" d="M212,121.32a10.53,10.53,0,0,0,2.93,7.14c3.67,3.83,11.39,4.63,16.54,3.85,5-.76,13.33-4.28,12.59-9.81-.41-3.1-3.11-5.65-6.23-7s-6.63-1.66-10.07-1.9a32.68,32.68,0,0,0-7.53.08,11.2,11.2,0,0,0-6.52,3.15A6.62,6.62,0,0,0,212,121.32Z"/><path class="b" d="M227.35,117.53c-.77,1.78,1.56,4.27,5.2,5.58s7.23.92,8-.85-1.56-4.27-5.21-5.58S228.12,115.76,227.35,117.53Z"/></svg>