<svg xmlns="http://www.w3.org/2000/svg" width="279.03" height="176.94" viewBox="0 0 279.03 176.94"><defs><style>.a{fill:#6d5641;}.b{fill:#0b0808;opacity:0.25;}.c{fill:#e1d6d0;}.d{fill:#47382c;}.e{fill:#f15a29;}.f{fill:#db8042;}.g{fill:#110e0c;}.h{fill:#fefefe;}</style></defs><path class="a" d="M42.8,88c9.07,1.25,18-3.14,9.45-12.28C46.21,69.2,37,68,29.24,65,19.64,61.28,8.7,57.54,0,51.49,5,68,26.61,85.75,42.8,88Z"/><path class="b" d="M146,138.59c70,0,128.46,8.51,126.78,19-.84,5.22-21.86,10.17-53.32,13.8.93,1.18,1.29,2.28,1,3.22-1.16,3.4-14.12,3-28.87-.35l-.67-.16c-14,1.08-29.16,1.92-44.89,2.47-69.75,2.42-126.77-8.49-126.77-19S76,138.59,146,138.59Z"/><path class="c" d="M58.37,131.36a67,67,0,0,1,16.53-1.11,78.7,78.7,0,0,1,27.51,6.09c6.44,2.76,12.55,6.52,18.64,10.27l16,9.84c-15.48.76-34.91-6.66-46-10.29-6.75-2.21-8.63-4-15.61-4.06-6.49,0-13.83,3-20.31,2.17S41.34,142,35.3,137.64c2.93-.64,5.85-1.36,8.74-2.21C48.81,134,53.53,132.36,58.37,131.36Z"/><path class="a" d="M26.84,88.47a40.62,40.62,0,0,1,1.84-4c2.58-7.11,8.16-15.19,13-18.6,5.45-3.81,11.55-5.85,17.45-7.73C77,52.46,96,46.43,114.38,47.33A27.57,27.57,0,0,1,128,51.44c5,3,9.29,8.78,14.19,12.94A41.21,41.21,0,0,1,154.9,85.23c2.07,8.25-.15,12.37-.23,20.11-.13,14.35,9.8,34.5-1.31,45.09-4.18,4-9.92,5.7-16.33,6l-16-9.84c-6.09-3.75-12.2-7.51-18.64-10.27a78.75,78.75,0,0,0-27.51-6.09,67,67,0,0,0-16.53,1.11c-4.84,1-9.56,2.68-14.33,4.07-2.89.85-5.81,1.56-8.74,2.21a29.08,29.08,0,0,1-10.12-13.26C20.73,113.35,22.58,99.38,26.84,88.47Z"/><path class="d" d="M163.62,94.57c15-1.71,31.81,8,47.24,15.48a238.48,238.48,0,0,0,29.45,11.52,90.71,90.71,0,0,0,13.05,3.66,19.1,19.1,0,0,1,9.65-.88c10.1,1.66,17.2,10.68,15.86,20.13s-10.62,15.79-20.71,14.14a19.63,19.63,0,0,1-12.14-7c-15.22-4-60.38-8.5-77.76-19.79C153.1,121.92,146.53,96.52,163.62,94.57Z"/><path class="b" d="M190.44,140.44a23,23,0,0,1,3.25-5.45c3.08-4.06,11.73-13.28,17.57-17.73a38.53,38.53,0,0,1,6.5-4.06c7.4,3.18,15,5.87,22.55,8.37a90.71,90.71,0,0,0,13.05,3.66l.4-.13c2.49,3.76,4,8,2.15,10.53-4.22,5.87-16.11,11.07-28.71,12.28C215.9,146,202.33,143.6,190.44,140.44Z"/><path class="b" d="M32.12,121.66C26.76,94.75,51.25,79.86,70.61,84c7.74,1.64,16.32,5.24,19.25,13.84s-1,17.86-4.73,25.83c-2.26,4.79-4.95,9.59-6.6,14.67a74.79,74.79,0,0,1,8.44.19,20.24,20.24,0,0,1,4.08-.71c9.34-.62,16.75,5.33,16.55,13.27,0,.54.06,0,0,.54A73.33,73.33,0,0,0,96.42,149c-7.35-1-8.61-5.2-16-5.25-6.86,0-14.91,4.58-21.76,3.78-5.61-.64-11.62-1.7-17.08-4.24.67-1.92,1.3-3.41,1.21-3.44C36.66,137.86,33.34,127.78,32.12,121.66Z"/><path class="a" d="M65.37,85l.18,0c8.12,1.68,17.14,5.38,20.22,14.2s-1,18.32-5,26.49c-2.38,4.92-5.2,9.84-6.94,15.06a77.61,77.61,0,0,1,8.87.18,21.63,21.63,0,0,1,4.28-.72c9.81-.64,17.58,5.46,17.37,13.61S96,169.14,86.24,169.77c-6.44.42-12-2.08-15-6.14-1.86,0-3.76,0-5.67,0-10.53.17-21.46,1-28.46-4.06A8.47,8.47,0,0,1,33.5,152c.18-3.47,5.36-12.84,5.17-12.9-6.44-2-12.24-9.17-13.53-15.45C19.53,96.18,45.06,80.91,65.37,85Z"/><path class="b" d="M149.42,134.62c-1.07-.4-2.1-.81-3.08-1.24l-.2-.09-1.36-.62,0,0c-.46-.21-.9-.44-1.33-.66l-.16-.09-1.06-.58-.21-.13c-.75-.44-1.45-.9-2.09-1.36l-.22-.17c-.26-.2-.51-.39-.74-.59l-.15-.13c-.27-.23-.53-.47-.76-.71a1.14,1.14,0,0,1-.15-.16c-.19-.19-.36-.38-.53-.58l-.16-.2a8.5,8.5,0,0,1-.53-.74,58.93,58.93,0,0,1-6.9-17.26c4.64.08,8.59,1.26,14.26,3.34,8.58,3.14,17.25,7.72,25.52,11.7a236.16,236.16,0,0,0,29.58,11.36c4.82,1.56,9.79,3.25,14.79,3.83,6,.7,11.93,2.51,15.12,8.56-6.91-.58-8.88-2.45-14.19-2.22-9.2.41-36.17-2.92-56.11-8.3h0l-.07,0c-1.27-.35-2.51-.7-3.71-1.07l-.2-.06c-1.22-.37-2.39-.75-3.52-1.14l-.11,0-1.58-.57Z"/><path class="e" d="M125.81,44.55l.07,0c1.59-.94,4-1.94,5.76-1.52,2.66.63,1.48,4.1,1.15,6.1-.56,3.42-2.74,4.3-4.18,7.22-2.41,4.87-2.56,11.93-2.48,17.31A62.21,62.21,0,0,0,129.26,92a65.74,65.74,0,0,0,19.33,28.86,66.62,66.62,0,0,0,15,9.84c2.22,1,4.65,3.15,6.94,3.75,3.35.88,6.82-1.83,10.19-.32s2.13,6.05.08,8.37c-6.67,7.58-17.84,3.12-25.24-.4-8.15-3.88-21-8.3-28-14.28-18.36-15.58-23.51-31.06-19.1-53.4C111.62,58.37,121,47.45,125.81,44.55Z"/><path class="d" d="M258.17,40.89c-3.43,7.55-8.34,14-18,16.06-7.07,1.53-13.59-4.91-17-9.62-2.45-3.34-5.5-6.21-6.43-10.45a24.28,24.28,0,0,1-.65-9.62c.88-5.42,5.43-11.69,10.52-14.92C237.09,5.65,263.9-7.46,273,5.51c4,5.74-3.26,8.4-5.84,13C263.49,25.06,261.53,33.51,258.17,40.89Z"/><path class="a" d="M123.7,68c.58-7.06,4.13-12.47,6.53-18.14,6-14.12,18-21.51,30.59-27.77,3.59-1.78,7.84-4.35,11.78-5.13,5.35-1,11.52-.72,16.72-1.45,6.15-.86,11.32-1.1,17.43.86,5.94,1.91,11,4.11,17,5.29,9.21,1.82,15.56,5,19.64,13.51s9.66,19.17,11.51,30.13c2.68,15.84,10.24,26.57,8.22,42.71-1.39,11.1-7,14.11-13.17,21.83-2.41,3-6,4.81-10.19,7.36-23.6,14.47-59.73,10.87-84.86,1.39-9.47-3.57-22.76-14.47-28.72-23.08C117.65,103.18,122.24,85.85,123.7,68Z"/><path class="d" d="M207,115.77c3.86-2.94,7.9-5.18,11.53-5.68,6.81-.94,17.78,2.8,23.65,6,4.48,2.45,12.95,13.21,9.47,18-4.51,6.27-17.75,11.77-31.26,12.47-25.4,1.31-42.84,2.51-31-13.11C192.48,129.44,201.13,120.21,207,115.77Z"/><path class="f" d="M164.15,121.49c.18-.55.38-1.11.62-1.68,5.46-13.14,15.88-27.11,28.36-33.32,8.33-4.13,16.51-7.86,25.92-8.84,11.13-1.17,23.38-1.13,33.54,5.35,14.4,9.18,18,20.51,17.55,37.51A12.78,12.78,0,0,1,255.83,133c-4-.51-5.33-2.19-8-4.88-4.07-4.16-3.51-3.64-9.3-5.1-1.16-.29-3.93-2.21-4.51-2.23-5-.24-7.87,3.18-11.71,6.44-5.34,4.53-6.46,6.08-12,10.1-5.2,3.76-11.75,9.68-20.22,10.64C177.36,149.35,159.42,136.37,164.15,121.49Z"/><path class="g" d="M233.79,122.23c.62,0,1.26-.52,1.61-1.53,4.4-12.81.15-32.33,0-32.72-.51-1.16-1.52-1.31-2.25-.33a4.19,4.19,0,0,0-.41,3.85c.13.31,3.19,17.29-.08,26.78a3.73,3.73,0,0,0,.54,3.67A1.16,1.16,0,0,0,233.79,122.23Z"/><path class="g" d="M214.47,80.84c-7.59,18.2,38.35,14,35.58.13-1.48-7.36-12.8-5.76-17.29-5.3S216.6,75.74,214.47,80.84Z"/><path class="h" d="M230.54,80c.45,1.73-2.16,3.9-5.84,4.87s-7,.34-7.48-1.38,2.16-3.91,5.84-4.87S230.09,78.28,230.54,80Z"/><path class="c" d="M197.64,29.83a5.49,5.49,0,0,1,1.13-1.17,3.29,3.29,0,0,1,2.4-.68,5.13,5.13,0,0,1,1.55.42c5.49,2.38,6.67,12,7.39,16.89.58,3.87,2.26,10.61,1.29,14.48-.29,1.15-.81,2.46-2,2.9-1.41.52-2.72-.37-3.65-1.31-2.75-2.82-4.65-9.5-6.08-13.13C197.88,43.66,194.11,34.76,197.64,29.83Z"/><path class="d" d="M123.29,49.3c5.85,6.34,12.65,10.94,22.28,9.21,7-1.26,10.72-10.43,12.22-16.61,1.06-4.39,2.83-8.54,2.17-13.24a28.58,28.58,0,0,0-2.84-10.08c-2.74-5.17-9.16-9.76-15-11-12.07-2.63-41.37-5.32-45.07,11.53-1.63,7.45,6,7.27,10,11C112.75,35.27,117.56,43.11,123.29,49.3Z"/><path d="M181.36,61.45a19.61,19.61,0,0,1,1.14,4.39c1,6.92-1.71,13-6,13.69s-8.48-4.45-9.44-11.36a19.54,19.54,0,0,1-.1-4.63Z"/><path class="h" d="M169,63.26c-.8,3.73,0,7.05,2,7.56s4.56-2.26,5.59-6.24a14,14,0,0,0,.4-2.48Z"/><path d="M238.09,56.37c.83,6-1,11.17-4.18,11.64s-6.35-4-7.18-9.92a19,19,0,0,1-.19-3.23l10.87-1.59A19.52,19.52,0,0,1,238.09,56.37Z"/><path class="h" d="M227.66,54.69c-.31,2.75.28,5,1.58,5.3,1.61.42,3.69-2.19,4.64-5.83,0-.13.05-.26.08-.39Z"/><path class="g" d="M220.09,129.86a1.65,1.65,0,0,0,.74-.18,50.82,50.82,0,0,0,5.84-3.59l.64-.46c2.46-1.77,5-3.59,7.51-3.19a11,11,0,0,1,2.81,1.09l8.51,4.22a1.6,1.6,0,0,0,2.16-.77,1.68,1.68,0,0,0-.75-2.22L239,120.54a13,13,0,0,0-3.71-1.38c-3.79-.62-7,1.7-9.86,3.75l-.63.45a48,48,0,0,1-5.47,3.36,1.67,1.67,0,0,0-.71,2.23A1.61,1.61,0,0,0,220.09,129.86Z"/><path class="b" d="M142.71,113.68c8.58,3,17.25,7.5,25.52,11.35a242.2,242.2,0,0,0,29.58,11c1.37.43,2.76.87,4.15,1.29a20.63,20.63,0,0,1,15-3.18,21.5,21.5,0,0,1,13.27,7.66c-10.69,4.08-22.94,5.46-35.2,4.94a23.41,23.41,0,0,1-4.94,1.15c-4.6.51-9.88-.86-14.52-3.51a131.32,131.32,0,0,1-20.67-5.84c-9.47-3.57-22.76-14.47-28.72-23.08a25.15,25.15,0,0,1-2.8-5.33C129.76,109.77,135.87,111.25,142.71,113.68Z"/><path class="a" d="M119.66,115c7-.83,13.65.72,21.14,3.38,8.58,3,17.25,7.5,25.52,11.35a242.2,242.2,0,0,0,29.58,11c4.82,1.51,9.79,3.14,14.79,3.71,6.79.76,13.21,2.59,16,10.53,1.31,3.7,1.32,8.12-.57,11.48-1.75,3.12-4.85,5-7.93,6.28a13,13,0,0,1-6,1.36c-2.32-.18-4.46-1.4-6.52-2.6-5.33-3.11-34.9-5.8-58.59-11.53-9.58-2.32-18.19-5.14-23.85-8.68C108.07,141.82,102.44,117.08,119.66,115Z"/><path class="a" d="M192.25,154.46c1.47-10.42,11.68-17.38,22.8-15.55s18.93,11.75,17.46,22.15-11.69,17.38-22.8,15.56S190.77,164.88,192.25,154.46Z"/></svg>