<svg xmlns="http://www.w3.org/2000/svg" width="226.24" height="223.35" viewBox="0 0 226.24 223.35"><defs><style>.a{fill:#231f20;opacity:0.3;}.b{fill:#d6a14c;}.c{fill:#875426;}.d{fill:#edbe69;}.e{fill:#663714;}.f{fill:#a97c50;}.g{fill:#f15a29;}.h{fill:#fff;}</style></defs><path class="a" d="M146,203c14.69,7.46-1,20.89-42.88,20.31-55.66-.77-99.76-22.52-99.76-30S16.91,184,58.81,184,139,199.47,146,203Z"/><path class="b" d="M88.15,179.33a8.23,8.23,0,0,0,1.57,3.81c1.21,1.4,3.15,2,4.18,3.58a4.65,4.65,0,0,1,.52,3.85,7.05,7.05,0,0,1-2.07,3.09,11.13,11.13,0,0,1-12.52,1.75c-5.71-3-9.54-9.88-12.33-16a33.6,33.6,0,0,0,6.91,1.79A24.91,24.91,0,0,0,88.15,179.33Z"/><path class="c" d="M58,151.75c-1.85-7.17-3.36-14.39-4.84-21.62-1.07-5.21-3.15-11.78-.33-16.4,6.44-10.57,22-2.1,28.42,5.61,5.4,6.45,9.41,14.43,9.81,22.56a51,51,0,0,1-.92,10.7A152.59,152.59,0,0,0,88,168.78c-.14,2.52-.53,7,.14,10.55a24.91,24.91,0,0,1-13.74,1.86,33.6,33.6,0,0,1-6.91-1.79c-.56-1.24-1.08-2.45-1.57-3.58A169.12,169.12,0,0,1,58,151.75Z"/><path class="d" d="M114.67,166.84a12.53,12.53,0,0,0-7.15,9,9.69,9.69,0,0,0-.21,3.26,7.78,7.78,0,0,0,3.54,5.44,9.61,9.61,0,0,0,6.26,1.32,11.4,11.4,0,0,0,8.73-6.13c1.54-3.09,1.84-8.2-.8-10.75A10,10,0,0,0,114.67,166.84Z"/><path class="e" d="M27.68,120.88c3.51,4.05,8.54,7.43,13.94,8.18,3.25.45,10.87-.15,12.82-3.08,3.21-4.81-7.77-9.5-10.31-11.57a59.72,59.72,0,0,1-12.28-13.54c-6.31-9.6-10.17-21.39-19.56-28a12,12,0,0,0-6.41-2.51,5.79,5.79,0,0,0-5.6,3.38c-1,2.82.94,5.77,2.78,8.14A145,145,0,0,1,15.5,99.94C19.43,107,22.36,114.77,27.68,120.88Z"/><path class="f" d="M139.62,125.51a14.8,14.8,0,0,0-2.26,5.43c-.93,4.72-.21,9.68-.31,14.54-.26,13-6.54,21.49-7.69,22.43-4.64,3.79-5.25-2-10.29,1.21-6.65,4.27-2.15,15.64,11.61,17.61,13.3,1.89,23-13.6,26.78-23.92,3.54-9.78,4.61-24.94,1.14-35.24-1.55-4.62-5.89-7.52-11.73-6.74A10.4,10.4,0,0,0,139.62,125.51Z"/><path class="f" d="M151.51,142.37c3.2-6,4-14.38.71-20.69a24.74,24.74,0,0,0-6.34-7.29c-9.14-7.65-21.1-9.51-32.52-10.63-11.58-1.12-24.66-3.32-36.2-5-20.25-3-39.58,4.2-41.89,8.31-3.52,6.28,2.75,16.12,2.08,23.14-.84,8.84-2.07,19.77,8.26,23.08,4.24,1.35,8.79,1.14,13.19,1.74s8.31,2,12.41,3.4c3.59,1.18,7.39.94,11,2.21,10.9,3.85,26.22,4.47,37.85,3.5C138.51,162.57,144.75,155,151.51,142.37Z"/><path class="c" d="M86.1,155.55c-7.75-1.77-15.33-4.34-23.13-5.86a71.14,71.14,0,0,0-23.43-.6,11.68,11.68,0,0,0,6.07,4.19c4.24,1.35,8.79,1.14,13.19,1.74s8.31,2,12.41,3.4c3.59,1.18,7.39.94,11,2.21,10.9,3.85,26.22,4.47,37.85,3.5,11.89-1,18.71-4.5,23.86-10.23A116.21,116.21,0,0,1,86.1,155.55Z"/><path class="f" d="M89.44,121.56s1.39,27.71,18.07,72.48l-19.28,6.18S63.17,148.83,62.75,107.8Z"/><path class="d" d="M117.23,195.26c2.93,8.47-4.8,11.45-13,12.77-10.55,1.69-14-1.05-16.13-6.22S90.79,191,98.83,189.17,115.42,190,117.23,195.26Z"/><path class="g" d="M73,91.57c-2.31,6-2.46,16.53-.11,22.4,2.25,5.6,6.52,10.5,10.44,14,8.66,7.75,19.46,11.27,29.85,12,15.22,1,31.06.89,43.48-11.7,6.2-6.29,11.42-12.75,12.52-23.36C172.07,77,151.9,70.73,134.69,66.7,118.48,62.91,93.61,60.18,81.42,78,78.8,81.87,74.8,86.93,73,91.57Z"/><path class="f" d="M171.88,1.83C181-2,191.62.25,199.18,7.54c5.07,4.88,9.18,12.06,15.47,13.74,2.36.63,4.88.42,7.07,1.63,5.52,3.05,5.61,13.15,2.3,19.37-4.91,9.24-14.27,13.22-23.13,15.14-11.25,2.43-23,2.5-34-1.53a21.46,21.46,0,0,1-8.87-5.48C143.56,34.42,156.89,8.09,171.88,1.83Z"/><path class="e" d="M194.58,37.83c4.3.51,9.13-.53,12.69,1.63a7,7,0,0,1,2.09,9.66c-2,3.16-6,5-10,5.57a35.53,35.53,0,0,1-12.18-1c-7.21-1.6-24-8.33-18.21-17.19C174.47,28.09,187.48,37,194.58,37.83Z"/><path class="f" d="M181.25,81.28c-10.32-2.89-20.89-6.67-31.47-5-8.84,1.42-16.6,6.52-25,9.62-16.62,6.15-34.93,4.2-52.1-1A139.87,139.87,0,0,1,76.3,55.26C81,33.89,91.22,22.52,111.89,19.33,135,15.76,163.39,17.49,182,34.06c10.34,9.21,17.18,26.25,18.53,43.41a18.2,18.2,0,0,1,8.08,5.27C200,85.53,190.15,83.78,181.25,81.28Z"/><path class="d" d="M124.79,85.93c8.39-3.1,16.15-8.2,25-9.62,10.58-1.7,21.15,2.08,31.47,5,8.9,2.5,18.73,4.25,27.34,1.46a12.33,12.33,0,0,1,1.34,1.91,17.69,17.69,0,0,1,1.84,5.88c1.83,11.84-3.57,24.27-12.8,31.79-7.43,6.06-15.31,7.44-24.45,8.59a226.74,226.74,0,0,1-31.14,1.73,49.65,49.65,0,0,1-5.45-.32,208.75,208.75,0,0,1-30.08-1.95c-21.42-3-30.9-15.74-34-31.75A72.29,72.29,0,0,1,72.69,85C89.86,90.13,108.17,92.08,124.79,85.93Z"/><path d="M139,88.88c0,5.62,7.52,11.5,19.54,11.49S177,95.67,177,90.05s-6.4-6.68-18.42-6.68S139,83.26,139,88.88Z"/><path class="h" d="M168.49,91.42c3,.81,5.66.26,5.91-1.22s-2-3.33-5-4.14-5.66-.27-5.91,1.22S165.48,90.61,168.49,91.42Z"/><path d="M174.26,66.77c0,6.93,3.1,12.54,6.93,12.54s6.93-5.62,6.93-12.54S185,54.22,181.18,54.23,174.26,59.84,174.26,66.77Z"/><path class="h" d="M181.13,63.73c1,2.32,3.06,3.61,4.56,2.87s1.89-3.22.87-5.55-3.06-3.62-4.56-2.88S180.11,61.4,181.13,63.73Z"/><path d="M103.63,68.51c0,7.06,3.19,12.79,7.13,12.79s7.12-5.73,7.12-12.8-3.2-12.79-7.13-12.79S103.63,61.44,103.63,68.51Z"/><path class="h" d="M110.69,65.4c1,2.38,3.15,3.69,4.69,2.94s1.94-3.29.89-5.67-3.14-3.69-4.68-2.93S109.64,63,110.69,65.4Z"/><path d="M157.78,110.2h.14a1.61,1.61,0,0,0,1.44-1.76c-.3-3.42-.36-6.2-.42-8.88s-.12-5.39-.4-8.75a1.93,1.93,0,0,0,0-.34,1.59,1.59,0,0,0-2.14-1.39l-.51.09c-.89.16-2.23.4-2.1,1.9a1.64,1.64,0,0,0,1.71,1.48c.18,2.62.23,4.88.28,7.08.06,2.74.12,5.58.43,9.09A1.59,1.59,0,0,0,157.78,110.2Z"/><path d="M180.69,115.48c5.85,0,11.49-1.36,16.21-5a1.67,1.67,0,0,0,.33-2.28,1.55,1.55,0,0,0-2.21-.33c-10.69,8.12-27.67,2.82-36.85-1.06a1.55,1.55,0,0,0-1.47.15c-9.93,6.71-27.12,6.53-36.79-.39a1.56,1.56,0,0,0-2.2.4,1.65,1.65,0,0,0,.39,2.26c10.56,7.56,28.49,7.91,39.63.9C164.56,113,172.81,115.48,180.69,115.48Z"/><path class="f" d="M97.65,1.85C88.54-1.95,77.92.27,70.35,7.57c-5.06,4.88-9.16,12.06-15.46,13.74-2.35.63-4.87.43-7.07,1.64C42.3,26,42.22,36.1,45.53,42.32c4.92,9.23,14.28,13.21,23.14,15.12,11.25,2.43,23,2.49,34-1.53a21.65,21.65,0,0,0,8.87-5.49C126,34.42,112.65,8.1,97.65,1.85Z"/><path class="e" d="M74.05,36.8c-4.38.51-9.3-.53-12.93,1.65A7,7,0,0,0,59,48.18c2,3.17,6.09,5.07,10.23,5.6a36.71,36.71,0,0,0,12.43-1c7.35-1.61,24.5-8.39,18.56-17.31C94.56,27,81.3,36,74.05,36.8Z"/><path class="f" d="M5,176.93c.32-14.63,4-41.79,19.34-61,3.93-4.91,8.6-9.26,14-11.81,6-2.85,15.77-3,20.05,2.9,3.94,5.44,5,14,4.19,21a51,51,0,0,1-8.62,23.19c-3.16,4.42-8,8.22-13.34,9.52-5.64,1.37-10.06.8-13.52,6.63-2.22,3.72-2.92,8.13-3.44,12.44a.19.19,0,0,0,0,.08,19.68,19.68,0,0,1-4.26.37A31.81,31.81,0,0,1,5,176.93Z"/><path class="d" d="M19.31,180.25a19.68,19.68,0,0,0,4.26-.37,4.1,4.1,0,0,0,.17,2.31A9.17,9.17,0,0,0,25.31,184c1.72,2,1.11,5.28-.78,7.1s-4.69,2.4-7.32,2.35c-4.56-.1-9.53-2.1-11.65-6.32-.38-.74-.74-4.53-.61-10.18A31.81,31.81,0,0,0,19.31,180.25Z"/></svg>