<svg xmlns="http://www.w3.org/2000/svg" width="256.33" height="188.89" viewBox="0 0 256.33 188.89"><defs><style>.a{fill:#d6c08a;}.b{fill:#995120;}.c{fill:#231f20;opacity:0.3;}.d{fill:#fcf7e7;}.e{fill:#ef4136;}.f{fill:#421e06;}.g{fill:#663008;}.h{fill:#a00a2b;}</style></defs><path class="a" d="M221.73,58.23c-5.68,4.92-12.13,8.83-12.84,1.65-.43-4.34,5.47-6.25,8.34-8.23a43.27,43.27,0,0,0,12.34-14,58.38,58.38,0,0,0,4.93-11.27c.88-2.7,1.36-7.81,3.8-9.64,6.71-5,2.53,15.75,1.87,17.35a47.33,47.33,0,0,1-10,15.91C229.06,51.1,225.57,54.89,221.73,58.23Z"/><path class="b" d="M238.3,16.71c-2.44,1.83-2.92,6.94-3.8,9.64a62.17,62.17,0,0,1-3.54,8.7c2.55.6,4.92,2.39,7,3.88q1.2-2.35,2.21-4.87C240.83,32.46,245,11.7,238.3,16.71Z"/><path class="c" d="M245,159.17c.69,12.65-45.48,25.61-103.12,28.93S36.92,183.87,36.23,171.22,81.7,145.6,139.36,142.27,244.3,146.51,245,159.17Z"/><path class="a" d="M92.11,139.92c-7.41,5.28-13.93,7.35-24.77,10.64-3.07.93,6,18.55,14.32,15.47,5.18-1.92,17.55-7,22.56-9.4,7.84-3.71,16.07-8.64,19-17s-.06-17.23-3-25.4c-3.63-9.94-12.34-30.12-26.13-23.65-19.56,9.18.1,21.29,3.78,31.63C100.46,129.52,100.23,134.11,92.11,139.92Z"/><path class="d" d="M216.77,49.49c-6.42-1.32-30,8.55-33.43,10.28-6,3-9.26,2.7-15.8,4a48,48,0,0,1-11,.3c-13.79-.63-24.15-8.18-38.56-2.69-10,3.81-18.23,11.57-23.71,20.72-3.52,5.88-6,12.84-4.52,19.48,2,8.57,10.58,13.56,13.47,21.67,4.47,12.57,14.93,22.32,30.84,25.31,20.24,3.8,37.7-8.09,53.18-19.16,6.67-4.77,7.25-8.19,14.9-11.43,7.11-3,17.08-2.86,23.92-6.45,12.13-6.36,18.18-18,17.65-32.31C243.2,66.58,228.68,52,216.77,49.49Z"/><path class="a" d="M219.44,100.84c-7-2.38-12.69-.23-18.93,3-5.49,2.81-9.56,7.42-14.71,10.64a50,50,0,0,1-18.16,6.47c-4.49.73-9.11.91-13.38,2.46-3.56,1.29-6.54,3.53-9.86,5.34-12.12,6.62-29.2,5.65-43-7.57,4.35,21.48,21.41,27.66,32.65,29.72,20.19,3.71,38-9.34,53.52-20.35,6.68-4.75,7.27-8.14,14.92-11.37,7.11-3,17.06-2.88,23.91-6.46.56-.29,1.1-.6,1.64-.91C227.42,106.91,224.86,102.69,219.44,100.84Z"/><path class="d" d="M249.75,109.64c-2.18-6.49-2.25-17.53-3.17-24.11-2.33-16.68-11-22-24.47-27.35-10.92-4.33-22.9-.58-26.57,9.44A42.65,42.65,0,0,0,193.74,85c.58,6.31,2.53,12.63,6.64,16.8,7.17,7.27,19.41,9.21,26.94,15.89a18.65,18.65,0,0,1,5,6.92,29.75,29.75,0,0,1,1.82,7.76c.44,3.61,1,7.86-.33,11.34-1.63,4.16-5.8,5.24-8.33,8.66-1.18,1.61,7.32,7,10.67,7.38,15.73,1.53,19,.2,20.16-23.3v0C256.73,127.46,252.68,118.39,249.75,109.64Z"/><path class="d" d="M108.42,129.2a15.87,15.87,0,0,0,5.07,2.6,47,47,0,0,0,9.19,1.69c6.29.72,12.62,1.35,18.89.3a30,30,0,0,0,17.68-9.51,17.51,17.51,0,0,0,4.82-10.19,20.41,20.41,0,0,0-.37-5.52c-1.53-8-6.09-14-11.14-16.91s-10.58-3.24-16-3c-10.87.45-22.41,3.39-30.51,14.6-2.39,3.32-5.22,8.4-4.63,14C102,121.94,105.79,127.1,108.42,129.2Z"/><path class="a" d="M54.17,158.45c-1.45,7.74,5.07,14.66,14.58,15.46s18.37-4.83,19.82-12.57S83.5,146.68,74,145.88,55.62,150.7,54.17,158.45Z"/><path class="d" d="M147.53,142c-7.78,9.33-20.69,13.89-22.78,24.38-.63,3.14-3,4.62-.71,6.8,8,7.65,18.42,3.48,25.74-1.38,4.59-3.05,10.25-8.57,14.57-12,6.78-5.37,13.5-13.61,14.6-22.37,1.08-8.61-3.73-16.71-8.35-24-5.63-8.83-18.33-26.45-30.26-17-16.9,13.34,4.65,20.64,10.4,29.85C154.78,132.79,152.72,135.82,147.53,142Z"/><path class="b" d="M208,69.26C216,66.79,224.67,67,233,65.73a43.41,43.41,0,0,0,4.92-1C232.52,57.21,224.78,50,217.4,48.46,211,47.14,186.75,58,183.34,59.77c-6,3-9.26,2.7-15.8,4a48,48,0,0,1-11,.3,61.7,61.7,0,0,1-11.67-1.89q-1.08,1-2.13,2c-8.41,7.94-16,18.34-15,29.72.76,8.48,9.58,7.58,15,12.3,4.62,4,7.61,10,13.17,12.6,7.22,3.31,12.3-1.83,17.86-5.66A35.86,35.86,0,0,0,187.25,96.2c2.09-5.54,3.51-11.13,6.27-16.38S202.41,71,208,69.26Z"/><path class="d" d="M219.53,150.49c-1.51,6.85,5,13.1,14.57,14s18.52-4,20-10.85-5-13.1-14.57-14S221,143.63,219.53,150.49Z"/><path class="d" d="M117,162c-2.68,8.59,4,17.24,14.81,19.33s21.81-3.18,24.49-11.77-4-17.23-14.81-19.32S119.65,153.38,117,162Z"/><path class="e" d="M141.12,50.43c4.74,1.33,10.92,6.4,13,10.9,2,4.28,2.46,9.63,2.32,14-.31,9.77-4.26,18.93-9.61,26.41C139,112.76,130.15,123.61,116,126c-7.06,1.19-13.69,1.61-20.43-2.83-17.71-11.65-10.17-28.61-3-42.44,6.77-13,19-31.48,36-31.13C132.3,49.66,137.44,49.39,141.12,50.43Z"/><path class="f" d="M48.17,99.73c-2.84-17.08-2.49-36.51,1.7-52,2.48-9.14,9-16.58,10.51-26.11,2.2-13.4-9.06-13.5-16.89-4.48-8.14,9.39-15.88,22.11-22.12,32.48C12.56,64.23,5.87,81.53,6.13,98.31c0,.46,0,.93,0,1.42Z"/><path class="b" d="M134.39,22.64a36.58,36.58,0,0,0-8.14-13C118.51,1.93,110.77-.48,100.16.08A129.23,129.23,0,0,0,69.08,5.8C44,13.62,39.34,41.44,29.52,63.32c-3.92,8.73-6.31,11.14-13.85,16.35-16,11.11-6.29,33,2.38,46.1,5.51,8.32,12,8.73,20.79,9.51,4,.36,8.31-.48,12.36-.77,7.88-.55,16.07-1.08,23.86-2.78,13-2.86,25.43-9,38.09-12.67,11.45-3.34,22.95-15.28,25.26-27.31,2.77-14.43.58-29.4.29-43.9C138.53,39.69,137.46,30.62,134.39,22.64Z"/><path class="a" d="M57.47,133.61l.28-.3c1.71-1.85,4.75-5.41,2.82-7.81-3.84-4.76-14.88-1.53-19.94.08-7.82,2.48-17.07,1.21-23.86,6.5a8.69,8.69,0,0,0-3.46,5.57,5.74,5.74,0,0,0,2.6,5.65,11,11,0,0,0,3.31,1.12,14.48,14.48,0,0,0,3.42.22c3.35-.13,5.88-1.85,9.27-1.86,3.23,0,6,1.07,9.29.24A39.92,39.92,0,0,0,57.47,133.61Z"/><path class="d" d="M75.45,4A63,63,0,0,0,56.66,36.81c-.79,3.76-1.49,7-2.59,10.72-.81,2.72-2,5.33-3,8a30.56,30.56,0,0,1-10.6,13.7,32.34,32.34,0,0,1-11.54,5.24c-8.67,2-16.17,6.38-21.08,14A49.42,49.42,0,0,0,0,116.4a46.45,46.45,0,0,0,.6,6.44A21.17,21.17,0,0,0,4,132.08c2,2.67,10.79,7.22,14.11,7.22.28,0-2.31-5.38.71-7.13C23.48,129.5,32,128.24,37.28,129c3,.43,7.48,3.74,10.41,4.44a37.91,37.91,0,0,0,19.27.14c4.28-1.12,8.51-4.78,11.59-8s5.37-9.55,5.63-14.08c.67-11.76-7.28-22.28-12.44-31.6C61.85,62,70,35.84,79.39,19.42A52.67,52.67,0,0,1,89.46,6.72a56.77,56.77,0,0,1,6.36-5A31.74,31.74,0,0,1,99.06,0,127.5,127.5,0,0,0,75.45,4Z"/><path class="g" d="M151.06,42.05c-7.44-10.72-16.64-23.84-25.87-33.28-8.87-9.08-23.12-7.74-19.4,6.72C108.44,25.76,118,36.34,121.55,46.1c7.45,20.66,10.3,45.5,7,67.3-1.37,9.06-.44,15.68,9.26,19.26,4.23,1.56,15.82,4.67,19.49,2.9,13.14-6.37,15.65-29.36,14.55-41.75C170.22,75.4,161.54,57.14,151.06,42.05Z"/><path d="M41.17,48.54a23.64,23.64,0,0,0-1.37,4.14c-1.35,5.89-.28,11.11,2.38,11.65s5.92-3.78,7.27-9.67c.14-.58.24-1.16.33-1.72Z"/><path class="d" d="M46.43,51.23l-4-2.06a6.54,6.54,0,0,0-.73,1c-1.32,2.06-1.48,4.31-.36,5s3.08-.38,4.4-2.45A7.45,7.45,0,0,0,46.43,51.23Z"/><path d="M78.6,52c-.7,8.11,2.51,14.95,7.35,15.41s9.73-6,10.66-14.33a22.39,22.39,0,0,0-1-9.82Z"/><path class="d" d="M81.44,57.22c1.73.79,4.25-1,5.64-4,1-2.21,1.14-4.46.45-5.82L80.6,50.94C79.52,53.75,79.84,56.48,81.44,57.22Z"/><path d="M34.49,95c2.38,3,2.48,6.65-1.92,10.12-5.44,4.3-23.5,6.82-25.86-2.92-.73-3,1.47-9.85,3.81-12C15.72,85.31,29.71,89,34.49,95Z"/><path class="d" d="M16.19,97.7c-3.15,1.33-6.31,1-7-.77s1.2-4.27,4.35-5.6,6.3-1,7,.77S19.34,96.36,16.19,97.7Z"/><path d="M22.24,106l-2,0c0,.78.43,14.8,5,23.66l1.91-.58C22.68,120.72,22.25,106.15,22.24,106Z"/><polygon class="h" points="47.97 133.61 36.23 116.47 33.67 124.23 27.13 118.65 25.46 127.33 16.7 120.56 16.88 127.33 7.38 123.77 18.34 139.44 18.52 133.7 26.37 138.97 28.2 132.3 36.41 137.89 37.14 130.13 47.97 133.61"/></svg>