<svg xmlns="http://www.w3.org/2000/svg" width="290.76" height="270.05" viewBox="0 0 290.76 270.05"><defs><style>.a{fill:#231f20;opacity:0.3;}.b{fill:#d1d1d1;}.c{fill:#a55a1c;}.d{fill:#fefcfc;}.e{fill:#c1742e;}.f{fill:#1c75bc;}.g{fill:#2b2b2b;}.h{fill:#d6878b;}.i{fill:#404241;}.j{fill:#0b0808;}</style></defs><path class="a" d="M231.56,249.74c-.26,12.4-44.44,21.45-98.67,20.19s-98-12.33-97.72-24.74,44.44-21.46,98.68-20.2S231.83,237.32,231.56,249.74Z"/><path class="b" d="M89.56,139.37a33.69,33.69,0,0,0-9.72-11.08c-17.64-13.38-24.29,8.34-26.18,23.42a140.64,140.64,0,0,0-.29,30.42c.67,7.51,1.23,15.45.25,22.92-1,7.88-2.71,5.79-6.38,10.19C24.82,242.16,77,254.9,81.54,229.49c2.31-12.87,1-25.42,4.18-38.39C90.13,173.19,97.56,154.56,89.56,139.37Z"/><path class="b" d="M146.47,141.68a33.49,33.49,0,0,1,10.13-10.82c18.23-12.9,24.44,9,26,24.17a139.09,139.09,0,0,1-.45,30.46c-.87,7.49-1.63,15.43-.81,22.93.86,7.92,2.61,5.87,6.23,10.38,22.09,27.58-31.13,38.88-35.15,13.31-2-12.94-.39-25.48-3.31-38.55C145.07,175.51,138,156.66,146.47,141.68Z"/><path class="c" d="M21.64,113.24c6.56.33,12.75.54,19.34-1.16-2.53-3.69-7.13-7.11-8.92-11.39.25.6,12.29-3.08,19.07-6.1a101.83,101.83,0,0,1,22.53,18.59c5.68,6.32,12.78,23.25-3.19,21.77-7.11-.66-14.41-2.78-21.51-4.91s-14.81-4.1-22-6.94C24.29,120.18,21.74,116.5,21.64,113.24Z"/><path class="d" d="M12.77,115.34c-4.19-3.44-6.87-7.93-8.84-13C3.35,100.78.46,86.06.35,86a13.63,13.63,0,0,0,2.15.43C.93,84.63,1.12,83.14,0,81.15c10.28,3.77,21.64,4,32.14,6.06a57.11,57.11,0,0,1,9.08,2.5,64.37,64.37,0,0,1,9.91,4.88c-6.78,3-18.82,6.7-19.07,6.1,1.79,4.28,6.39,7.7,8.92,11.39-6.59,1.7-12.78,1.49-19.34,1.16.1,3.26,2.65,6.94,5.33,9.86a61.69,61.69,0,0,1-12.58-6.52C13.82,116.19,13.29,115.77,12.77,115.34Z"/><path class="e" d="M127.56,95.76c-10.6,0-20.84,2.89-31,5.62-4.3,1.15-8.52.82-12.73,2.43a35.75,35.75,0,0,0-11,6.92,33.44,33.44,0,0,0-7.67,10.91c-2.68,5.84-3.79,10.37-3.53,16.8.29,7.17.46,15,3.19,21.77,2.3,5.7,3.37,12.34,7,17.48,4.68,6.7,7.54,13,14.83,17.64,6.58,4.17,16.64,6.08,24.55,5.59,9-.55,18,.45,27.15,0,9.68-.45,20.5.36,29.59-3.36,8.26-3.38,17.51-5.16,24.64-10.74,8.45-6.61,13.06-16.77,15.2-26.58,1.65-7.56,1.42-14.78.39-22.39-1.84-13.67-5.46-26.31-20.91-32.33-6.32-2.46-12.68-5.7-19.61-6.65A298.16,298.16,0,0,0,127.56,95.76Z"/><path class="b" d="M207.55,162.76c2.33,21.11-34.47,39.31-58,39.89a120.27,120.27,0,0,1-20.78-1c-15.61-2.33-32.1,2.77-46.34-6.57-5.82-3.81-10.48-7.71-13.66-14.18C61.23,165.61,77,151.72,91.6,151.74c11,0,17.92-5.92,27.22-11.28s18.79-11.56,29.46-13.87c8.8-1.91,17.34-2.19,25.73.87s16.66,3.83,23.18,10.64C202.72,143.88,206.75,155.58,207.55,162.76Z"/><path class="e" d="M53.66,151.71a140.64,140.64,0,0,0-.29,30.42c.07.88.15,1.76.23,2.64a9.73,9.73,0,0,0,6.82-.13c.64-.22,1.25-.47,1.81-.72,7.16-3.22,8.31-8.55,10.74-16.26a74.6,74.6,0,0,0,3.39-15.36,86.07,86.07,0,0,0,.29-15.57c-.31-4.23-2.27-9.43-5.33-12.49C60,122.56,55.21,139.35,53.66,151.71Z"/><path class="d" d="M128.88,153.72a34.74,34.74,0,0,0-10.19-11.27c-18.51-13.65-25.49,8.2-27.49,23.41a136.94,136.94,0,0,0-.33,30.69c.71,7.58,1.29,15.6.26,23.14-1.1,7.94-2.81,5.85-6.71,10.22-30.75,34.6,31.17,40.29,36,14.69,2.44-13,1-25.65,4.41-38.72C129.45,187.85,137.28,169.12,128.88,153.72Z"/><path class="e" d="M90.19,184a125.43,125.43,0,0,1,1-18.12c1.41-10.72,5.3-24.72,14-27.29,7.06,5,7.31,17.36,7,25-.33,9-4.07,28.28-16.9,24.94A7.74,7.74,0,0,1,90.19,184Z"/><path class="d" d="M179.41,153.72a34.74,34.74,0,0,1,10.19-11.27c18.51-13.65,25.49,8.2,27.49,23.41a136.94,136.94,0,0,1,.33,30.69c-.71,7.58-1.29,15.6-.26,23.14,1.1,7.94,2.81,5.85,6.71,10.22,30.75,34.6-31.17,40.29-36,14.69-2.44-13-1-25.65-4.41-38.72C178.83,187.85,171,169.12,179.41,153.72Z"/><path class="e" d="M218.1,184a125.43,125.43,0,0,0-1-18.12c-1.41-10.72-5.3-24.72-14-27.29-7.06,5-7.31,17.36-7,25,.33,9,4.07,28.28,16.9,24.94A7.74,7.74,0,0,0,218.1,184Z"/><path class="d" d="M226.16,108.59C213,88.11,187,77,164.79,74.84a84.37,84.37,0,0,0-11.15-.32,84.27,84.27,0,0,0-11.15.32c-12.33,1.2-23.27,6.78-35.05,9.1-9.71,1.91-19.27,8.47-25.51,16.5,2.61-.38,5.68-1.56,8.34-1.5-4.24-.1-11.39,14.46-12.51,18.2C75.18,125.8,80,136.31,80.69,145a23.71,23.71,0,0,0,4.68-4.9c-.11,5.65,3.34,14.59,6.76,18.17.44-1.72,2.11-3.24,2.56-4.43,0,.13,8.5,13.65,9.28,14.43a29.56,29.56,0,0,0,1.66-9c3,3.55,4.9,8.28,8.24,11.45a58.61,58.61,0,0,0,8.57,6.32A68,68,0,0,0,145,186a17.28,17.28,0,0,0-1.16-5.34c2.54,2.05,11.07,6.81,11.09,6.77s7.88-5.66,11.48-7.56a36.55,36.55,0,0,1,.5,6.23c0-.28,12.28-4.32,13.47-4.86,9.39-4.24,17-12.39,23.33-20.78a18.48,18.48,0,0,1-2,8.3c7.3-.3,9.88-13.06,14.19-17.4,1,2.37,1.46,6,2.94,7.83,3.5-6.3,3.42-13,4.21-20.11,2.25,1.24,3.78,5,4.48,7.45,2.79-4.66,1.06-12.52,1.8-17.83C230.35,121.47,230.18,114.85,226.16,108.59Z"/><path class="f" d="M230.33,119.35c1.63,6.75-.68,17.41-5.17,22.59-4.29,4.93-11.08,8.54-17.07,10.85-13.25,5.12-28.31,5.3-42.14,2.76-20.3-3.72-41.13-8.75-54.5-25.28-6.66-8.25-12-16.37-10.94-27.4,2.8-28.93,30.86-29,54.48-27.7,22.25,1.21,55.65,6.2,67.47,27.94C225,107.79,229.06,114.13,230.33,119.35Z"/><path class="g" d="M204.8,65.38c-4.72-13.74-19-24-18.4-39.1.38-9.23,2.94-9.28,9.35-12.51,12.19-6.14,24.49-5.22,35.64,2.77,6.86,4.91,12.72,10.8,19.7,15.53,4.88,3.31,14.29,7,17.73,11.79,10.39,14.49-6.26,27.37-15.35,36.67-8.43,8.62-13.67,31.72-27.54,32C205,113.07,209.24,78.27,204.8,65.38Z"/><path class="e" d="M114.08,106.45c-8.81-17.9-6.83-41.87.35-59.64,2.37-5.88,6.43-10.81,8.88-16.43,2.94-6.72,3.26-13.66,8.73-19.33,8.6-8.93,11.63-7.7,23.16-10.18,10.25-2.2,36.21.3,46.66,1.76C233.27,7,236.83,13.06,240,31.92c1.54,9-.61,28.86,6.62,35.31,5.63,5,18.33,8.23,25.16,10.33,31.41,9.69-3,66.1-34.06,67.54-22.31,1-56.89,1.87-78.57-2.66C132.3,136.82,117.41,113.21,114.08,106.45Z"/><path class="d" d="M193.58,114.8c9.47-13.42,47.5-4.06,59.57,6.33,14.8,12.75,21.06,38.4-9.4,39.2-11.7.3-24.9-7.37-36-10.3C191.14,145.66,187,124.16,193.58,114.8Z"/><path class="h" d="M237.18,144.41c-.07-.09-.15-.18-.22-.28-.57-.68-3.34-2.27-3.46-2.74-.66-2.66,7.23-.67,8.42-.54a24.62,24.62,0,0,0,9.61-.37,74,74,0,0,0,8.26-3.43c6.4-2.74,9.49,2.22,9.33,7.89s-3.25,9.63-9,11.13a20.79,20.79,0,0,1-14.34-1.83,16.24,16.24,0,0,1-5.59-4.5C238.89,148,238.53,146.18,237.18,144.41Z"/><path class="i" d="M150.59,55.67c4.72-13.74,19-24,18.4-39.1-.38-9.24-2.94-9.28-9.35-12.51C147.45-2.08,135.15-1.17,124,6.83c-6.86,4.91-12.72,10.8-19.7,15.53-4.88,3.31-14.29,7-17.73,11.79-10.39,14.49,6.26,27.37,15.35,36.67,8.43,8.61,13.67,31.72,27.54,32C150.44,103.35,146.15,68.56,150.59,55.67Z"/><path class="i" d="M178.46,107c14.35,12.22,43.44-15.88,49.37-27.92,8.17-16.62,2.51-47.52-17.38-53.52-21.06-6.36-43.26,20.16-41.71,39,.58,7.18,4.39,14.12,5.53,21.34C175.22,92,173.23,102.58,178.46,107Z"/><path class="j" d="M192.16,55.53c.68,8.32,5.34,14.72,10.41,14.31s8.63-7.48,8-15.8-5.33-14.72-10.4-14.31S191.49,47.22,192.16,55.53Z"/><path class="d" d="M200,43.64c1.86.53,2.6,3.7,1.64,7.08s-3.24,5.71-5.1,5.18-2.6-3.7-1.65-7.08S198.11,43.12,200,43.64Z"/><path class="d" d="M227.25,30a10.33,10.33,0,0,1,3.18-1.63c9.94-3.26,10.48,5.42,10.56,12.71.16,15.49,6.47,25.91,22,31.08,17.58,5.85,32,19.51,26.61,38.71a132.93,132.93,0,0,1-8.41,22.41c-1.95,3.89-2.63,9.51-7.75,9-4.42-.43-7.08-6.86-11.9-5.83-5.48,1.16-9.69,6.44-15.62,5.92-3.38-.3-6.3-1.83-9.48-2.61a18.24,18.24,0,0,0-11.07.6c-2.76,1.18-5,2.92-7.84,3.74a21.58,21.58,0,0,0-5.2,2.69,21.2,21.2,0,0,1-13.79,2.79c-23.1-2.7-25.4-44-2.83-59.56,8.66-6,19.72-19.36,25.66-28.5S217.78,37.3,227.25,30Z"/><path class="j" d="M253,86.56a16.69,16.69,0,0,0,4.49,5.62c8.23,7.25,36.85,8,29-11.33C282.21,70.34,247.11,72.85,253,86.56Z"/><path class="d" d="M271.75,79.63c.81,2.11-1.64,5-5.49,6.52s-7.63,1-8.45-1.12,1.64-5,5.49-6.53S270.93,77.52,271.75,79.63Z"/><path class="j" d="M221.59,145.11a2.11,2.11,0,0,1-1.06-3.93l.9-.53c3.43-2.08,8.61-5.21,18-2.42,9.76,2.91,20.84-3.72,23.73-5.61l5.09-36.27a2.11,2.11,0,0,1,4.18.59l-5.23,37.19a2.08,2.08,0,0,1-.84,1.4c-.6.44-14.84,10.7-28.14,6.74-7.56-2.26-11.46.09-14.59,2l-1,.57A2.07,2.07,0,0,1,221.59,145.11Z"/><path class="j" d="M273.66,145.09a2.25,2.25,0,0,1-.44,0c-8.43-1.79-10.13-10.46-10.2-10.83a2.11,2.11,0,0,1,4.14-.78c.06.27,1.3,6.29,6.94,7.48a2.11,2.11,0,0,1-.44,4.17Z"/></svg>