<svg xmlns="http://www.w3.org/2000/svg" width="225.17" height="283.53" viewBox="0 0 225.17 283.53"><defs><style>.a{fill:#7f7c5c;}.b{fill:#f2dfd6;}.c,.g{fill:#0b0808;}.c{opacity:0.2;}.d{fill:#d8c1b8;}.e{fill:#00aeef;}.f{fill:#3f3e39;}.h{fill:#fff0e7;}.i{fill:#fff;}.j{fill:#912f41;}.k{fill:#565442;}</style></defs><path class="a" d="M180.34,187.54a9.46,9.46,0,0,1-1.9-.27c-6.64-1.73-11.21-9-17.74-9.64-10.67-1.12-14.15,18.65-8.4,25.05,5.28,5.86,24.61,8.9,32.78,8.87,12.8,0,23.66-8.5,28.45-22.05,5-14.17-2.65-29.48-13.33-37.09-6-4.25-11.54-5.49-18.5-1.83-6.63,3.49-11,10.33-10,18.16.5,4,4.05,9.24,8,8.87.85-5.11,1.46-7.83,6.58-8.24,4.34-.35,7.2,2.26,7.82,6.94C195,183.18,186.37,187.8,180.34,187.54Z"/><path class="b" d="M213.53,189.5c5-14.17-2.65-29.48-13.33-37.09-6-4.25-11.54-5.49-18.5-1.83-6.63,3.49-11,10.33-10,18.16.45,3.57,3.31,8.09,6.74,8.79-2.62-8.31-5.75-15.26,4.63-20.27,9.05-4.36,19.05,2.24,22.85,10.71,7.47,16.67-6.3,29.63-20.42,35.52-5.62,2.35-13.36,2.27-18.3,5.32-.16.1-.3.21-.45.31a87.05,87.05,0,0,0,18.34,2.43C197.88,211.53,208.74,203.05,213.53,189.5Z"/><path class="c" d="M201.16,260.2c0,12.89-40.95,23.33-91.46,23.33S18.24,273.09,18.24,260.2s41-23.35,91.46-23.35S201.16,247.3,201.16,260.2Z"/><path class="d" d="M180.47,242.66c-2.59-4-6.25-2-9.34-3.67a93.28,93.28,0,0,0,4.84-9.71c4.13-9.67,7.25-21.78,3.36-30.7-11.51-26.37-32.56-8.83-43.66,13.83a37.17,37.17,0,0,0-3.25,11.75c-1,8.75.37,18.15,3.91,23.89,5.45,8.81,14.26,11,21.74,12.61,6.71,1.43,16.61,5.25,22.54-4.28C183,252.53,182.74,246.13,180.47,242.66Z"/><path class="d" d="M87.75,224.16a36.65,36.65,0,0,0-3.25-11.75c-11.1-22.66-32.15-40.2-43.65-13.83-3.89,8.92-.78,21,3.36,30.7A91.34,91.34,0,0,0,49.05,239c-3.1,1.62-6.76-.3-9.34,3.67-2.27,3.47-2.54,9.87-.15,13.72,5.93,9.53,15.83,5.71,22.55,4.28,7.48-1.6,16.28-3.8,21.73-12.61C87.39,242.31,88.79,232.91,87.75,224.16Z"/><path class="a" d="M162.27,144.05c-3.48-12.67-8.43-21.7-19.45-23-10.66-1.24-21.78-3.37-32.57-3.79v0l-.55,0-.55,0v0c-10.79.42-21.91,2.55-32.57,3.79-11,1.29-16,10.32-19.45,23a80.09,80.09,0,0,0-1.7,34.16c1.79,11.73,4.33,24.59,8.69,35.46,3.87,9.64,7.32,22.22,13.21,29.88a16.14,16.14,0,0,0,7.39,5.38c4,4.12,13.64,7,24.91,7s20.83-2.88,24.88-7l.14,0,.17-.28h0a2.75,2.75,0,0,1-.17.29,16,16,0,0,0,7.41-5.39c5.9-7.66,9.34-20.24,13.22-29.88,4.36-10.87,6.9-23.73,8.69-35.46A80.09,80.09,0,0,0,162.27,144.05Z"/><path class="d" d="M135.8,186c-3.33.48-6.67.93-10,1.29a.21.21,0,0,0,0-.06c-.9.14-1.8.25-2.69.34-1.65.16-3.3.29-5,.38l-.71,0-.59,0c-2.24.08-4.52.11-6.87.12s-4.63,0-6.87-.12l-.59,0-.71,0c-1.65-.09-3.3-.22-4.94-.38-.9-.09-1.8-.2-2.7-.34a.11.11,0,0,1,0,.06c-3.36-.36-6.7-.81-10-1.29-6.51-.93-12.28-3.17-18.31-5.46,1.86,10.43,5.57,21,7.76,30.92s2.08,21.44,6.94,30.23a29.13,29.13,0,0,0,3.25,4.73,25,25,0,0,0,2.11,3.21c4.06,3.66,12.85,6.23,23.15,6.33h1.93c10.29-.1,19.09-2.67,23.14-6.33a25,25,0,0,0,2.11-3.21,28.52,28.52,0,0,0,3.25-4.73c4.86-8.79,4.78-20.47,6.94-30.23s5.9-20.49,7.77-30.92C148.08,182.82,142.32,185.06,135.8,186Z"/><path class="b" d="M155.08,160.89a43.27,43.27,0,0,0-3.17-8.35c-1.64-3.13-4.5-5.55-5.15-3.28,1.64-5.7,7.44-11,5.27-17.73a4,4,0,0,0-1.28-1.76,0,0,0,0,0,0,0l-.19-.14a10,10,0,0,0-1.84-1.11,17.8,17.8,0,0,0-6.29-1.88c-10.38-1.19-21.2-3.23-31.7-3.64v0l-.48,0v0h-.59v0l-.49,0v0c-10.5.41-21.32,2.45-31.69,3.64a17.8,17.8,0,0,0-6.3,1.88,9.57,9.57,0,0,0-1.83,1.11l-.2.14a0,0,0,0,1,0,0,4.12,4.12,0,0,0-1.28,1.76c-2.17,6.73,3.63,12,5.28,17.73-.66-2.27-3.52.15-5.16,3.28a44,44,0,0,0-3.17,8.35c-1.54,4.09.18,5.71.64,9.11.57,4.17-.45,6.2.33,10.53,6,2.29,11.8,4.53,18.31,5.46,4.22.61,8.48,1.17,12.75,1.57,1.64.18,3.28.3,4.94.38l.71,0,.59,0c1.66.07,3.31.13,5,.13h3.8c1.66,0,3.32-.06,5-.13l.59,0,.71,0c1.66-.08,3.31-.2,5-.38,4.27-.4,8.52-1,12.74-1.57,6.52-.93,12.28-3.17,18.32-5.46.77-4.33-.25-6.36.32-10.53C154.91,166.6,156.62,165,155.08,160.89Z"/><path class="b" d="M150.49,194.08c3.42-8.46,7.85-22.74,4.59-33.19-5.29-5.26-13.89-6.35-21.71-2.53-4.54,2.22-7,6.36-8.25,11.13-1.72,6.44-1.27,14-.92,19.5.91,13.87-.21,27.92-.11,41.79,0,1.62,0,3.28,0,5-.33,14-1.37,29.62,13.89,37.07,4.87,2.38,10.68,4.18,16.32,3,5.46-1.14,9.13-5.94,5.25-10.48-2.81-3.29-8.11-3.14-10.47-7-2.2-3.64-.45-8.66-.13-12.62l.42-4.76c.68-7.79,1.45-15.49,2.68-23.29a90.14,90.14,0,0,1,2.59-11c-2.14,0-4.23-.37-5.49-1.7C146.4,202.07,149.22,197.22,150.49,194.08Z"/><path class="a" d="M159.23,167.84a16.59,16.59,0,0,0-4.15-7c3.26,10.45-1.17,24.73-4.59,33.19-1.27,3.14-4.09,8-1.39,10.85,1.26,1.33,3.35,1.74,5.49,1.7C158.3,193.85,163.4,181.32,159.23,167.84Z"/><path class="e" d="M71.64,103.47c-3.06,5.2-4.88,15-3.69,20.82,1.13,5.55,4.22,10.78,7.2,14.65a44.45,44.45,0,0,0,25.11,15.77c13.63,3.31,28,5.67,41.24-4.1,6.62-4.88,12.38-10.08,15.07-19.78,7.08-25.46-10.17-34.44-25.11-40.88-14.06-6-36.14-12.46-50,2.23C78.44,95.35,74,99.43,71.64,103.47Z"/><path class="a" d="M181.25,93.41c.48-7.72,4.7-15.5,4.61-22.91s-4.77-16.5-8.67-22.14c-9-13.06-26.82-17.26-41-20.67-2-.48-4-.87-6-1.18s-4-.79-6-1.06C109.61,23.54,91.5,21.08,78.38,30,72.72,33.91,65,40.85,62.35,47.6s-1.59,15.66-3.91,23c-1.89,6-6.66,10.43-7.58,16.68-2,13.79,6.07,27.29,17.19,38.39s25.09,19.64,35.23,23.81a21.15,21.15,0,0,0,3.72,1.14h0l.12,0,.11,0h0a20.58,20.58,0,0,0,3.88.26c11-.26,27.17-3.28,41.43-9.6s26.75-16.07,29.8-29.68C183.73,105.53,180.86,99.71,181.25,93.41Z"/><path class="f" d="M163.21,116.64a28.2,28.2,0,0,0-10.36-12c-6.73-4.43-15.12-6.69-20.62-12.84-4.88-5.46-3.29-12.56-1.7-19.24,1.18-4.94,5.94-9.64,6.41-14.17-.05.5-6.75,2.45-7.65,3a29.33,29.33,0,0,0-6.7,5.89,27.52,27.52,0,0,0-11.52-14.08c1.29,9.16,4.63,25.69-4.47,31.4-6.08,3.82-13.18,3.31-20,4a30.78,30.78,0,0,0-15.85,6.78c-4.54,3.67-7.56,12-8.42,17.77-.89,6,3.66,11.77,7.53,15.86,9,9.52,21.5,15.59,33.44,20.5a22.08,22.08,0,0,0,3.72,1.15l.12,0,.11,0a20.58,20.58,0,0,0,3.88.26c16.41-.4,56.4-5.76,53.23-30.18A16.2,16.2,0,0,0,163.21,116.64Z"/><path class="g" d="M156.18,82a25.56,25.56,0,0,0-3.69-2.75,26.34,26.34,0,0,0-10.32-1.57,8.32,8.32,0,0,0-7.31,9.88,16.82,16.82,0,0,1,10.83-4.89c4.59-.45,8.76,1.47,12.61,1.35C158.49,84,157.44,83.07,156.18,82Z"/><path class="g" d="M84.37,70.75a25.73,25.73,0,0,1,4.34-1.53A26.23,26.23,0,0,1,99,70.76a8.32,8.32,0,0,1,4.06,11.59,16.8,16.8,0,0,0-8.9-7.86c-4.25-1.78-8.8-1.18-12.45-2.43A9.63,9.63,0,0,1,84.37,70.75Z"/><path class="h" d="M124.57,101.79c.77,6.83-9.06,7-13.65,5.41-6.53-2.26-2.47-7.24.35-11.23s2.38-14.6,6.85-16.72c3.46-1.64,4.92.78,5.19,3.82s-1,6.53-.89,9.68S124.22,98.76,124.57,101.79Z"/><path class="g" d="M117.31,99.56v0l-.45-.06-.45-.09v0c-9.72-1.16-20.76,1.81-14.84,12.45,2.24,4,6.94,6.17,12,6.86,5,1,10.13.58,13.58-2.46C136.27,108.2,126.85,101.71,117.31,99.56Z"/><path class="i" d="M115.62,104.52c-.79,1.51,1.12,4.07,4.27,5.74s6.35,1.79,7.14.29-1.11-4.07-4.26-5.74S116.42,103,115.62,104.52Z"/><path class="b" d="M72.77,157.46c-4.17.82-7.51,5.13-9.66,8.53-1.25,1.95-4.13,7.57-7.12,9.49-5.74,5.81-7.31-2.41-9.7-7.65l-.57-1.24c-2.52-5.48-5.08-11-5.93-16.92-1.06-7.51-1.5-14.08-9.95-19.33-12.12-7.55-26-.16-29.08,9.85-2.79,9,1.57,23.53,21.55,23.64-.06,0,1,4.69,2.58,10.95,2.83,11.52,7.2,28.32,8.77,30.81,11.77,18.73,27.85,11.54,40.41-2.58,9.24-10.41,16.44-18,17.37-31.27C91.37,160.76,79.6,156.11,72.77,157.46Z"/><path class="j" d="M114.79,134.2l-.38.05c-1.38.17-4.71,1.27-3.18,3.23.77,1,3.5,1,4.7,1.13a41.88,41.88,0,0,1,5.91.64c1.9.46,3.21,1.74,5,2.37,4,1.4,9,1.15,12.56-1.23a23.11,23.11,0,0,0,5.59-5.7,54.45,54.45,0,0,0,4.23-6.9,42.94,42.94,0,0,0,3.28-6.67,3.6,3.6,0,0,1,.3-.66c-.81,1.54-2.92,3.35-4.12,4.66-2.95,3.21-6.85,7.22-11.56,7.4a19.68,19.68,0,0,1-3-.29,50.06,50.06,0,0,1-5.73-1.14,12.49,12.49,0,0,0-7.67.86C118.67,132.84,116.94,133.85,114.79,134.2Z"/><path class="g" d="M152.17,119.32c-1.72,3.13-5.09,5.7-7.72,7.62-1.92,1.39-3.64,1.53-5.93,2-5.9,1.17-9.14-2.28-14.14-2.44h-.31l-.13,0a.28.28,0,0,0-.13,0l-.29.1c-3.4,1.3-5.7,4.33-9,5.89a15.8,15.8,0,0,1-10.77,1.28,17.11,17.11,0,0,1-3.27-.85c-1.22-.44-3-1.49-4.24-1.54,2.43,1.54,4.53,3.48,7,5,2.95,1.78,8.08,2,11.28.76a32.5,32.5,0,0,0,5.36-2.87c1.18-.72,3.45-2.63,4.89-2.6,4.85.09,10.12,2.89,15.44,1.32,7.79-2.28,13-8.71,13-16.84A8.92,8.92,0,0,1,152.17,119.32Z"/><path class="a" d="M223.39,39.12C218.53,36,212.56,35.28,207,34.38a142,142,0,0,0-25.76-2.13c-2.68.06-5.33.22-7.91.53-8.77,1.06-17.82,4.39-19.07,14.15-.63,4.94.32,8.8,2.34,11.77,6.59,9.67,24.48,9.85,35.61,6.47a77.7,77.7,0,0,0,13.39-5.48,64.48,64.48,0,0,0,7.81-4.83C216.83,52.39,229.87,43.3,223.39,39.12Z"/><path class="k" d="M206.87,55.62c-9.08,6.33-27.78,14.06-37.8,5-14.31-13,11.84-16.86,20.47-17,5.64-.11,19.56-3.22,23.88,1.68C216.86,49.19,209.74,53.62,206.87,55.62Z"/><path class="a" d="M95.47,22.23c-2.13-1.7-4.41-3.3-6.76-4.82A155.52,155.52,0,0,0,64.42,5C58.94,2.72,53.2,0,47.05,0c-8.19,0-1.74,14.93-.11,18.91a64.4,64.4,0,0,0,4.22,8.43A78.5,78.5,0,0,0,60,39.4c8,9,24.14,18.74,35.58,14.14,3.51-1.41,6.58-4.18,8.85-8.73C108.9,35.8,102.71,28,95.47,22.23Z"/><path class="k" d="M52.37,23.18c4.5,10.4,16.8,27.31,31,25.11,20.23-3.13-.93-20.89-8.56-25.79C69.79,19.3,59.12,9,52.44,10.76,47.12,12.19,51,19.89,52.37,23.18Z"/></svg>