<svg xmlns="http://www.w3.org/2000/svg" width="212.43" height="270.59" viewBox="0 0 212.43 270.59"><defs><style>.a{fill:#231f20;opacity:0.3;}.b{fill:#cccac8;}.c{fill:#c975b7;}.d{fill:#e6e7e8;}.e{fill:#e29ad3;}.f{fill:#27aae1;}.g{fill:#fff;}.h{fill:#ffcff5;}.i{fill:#0b0808;}.j{fill:#a00a2b;}</style></defs><path class="a" d="M155.29,254.22c0,9-27.09,16.37-60.5,16.37s-60.5-7.32-60.5-16.37,27.09-16.37,60.5-16.37S155.29,245.18,155.29,254.22Z"/><path class="b" d="M96.51,199.59c-1.28-6.6-4.09-14.52,2.67-19.11,3.69-2.51,11.13-1.54,13.5,2.38,2.66,4.38.64,13.39,1.41,18.45,1,6.85,2,13.64,3,20.38.75,5,8.69,23.13,5.39,26.81-2.69,3-9.8.6-12.14-1.34-5.11-4.28-6.35-13.29-8.1-19.5a226.31,226.31,0,0,1-5.52-26.75C96.67,200.48,96.59,200,96.51,199.59Z"/><path class="c" d="M100.53,221.7c-2.28.28-3.15,5.78-2.22,8.56a11.73,11.73,0,0,0,7.24,7.14c7.2,2.68,16-.5,18.5-8.09,1.49-4.58-1.52-13.35-7.62-12.52.28,2.27-.12,4.29-2.75,5.73C109.16,225,100.53,221.7,100.53,221.7Z"/><path class="d" d="M47.34,165.8c.73-.53,1.09-1.68.72-3.75-.45-2.53-4.35-3.84-6.33-5.43-2.5-2-5.43-6.55-8.28-7.29.9,5.64,4.17,10.21,7.92,14.34C42.92,165.38,45.87,166.85,47.34,165.8Z"/><path class="c" d="M50.3,185.24a4.1,4.1,0,0,0,4.05-4.12c3.3,4.85,11.35,1.12,7.66-3.83,2.47.18,4.56.24,6-2.1.56-.92.51-7.12-1.47-5.93,5.29-3.19,2.13-13.79-4.76-10,3-1.61-5.84-5.19-6.86-5.44-3.38-.82-8.26-1.42-8.66,3.41-5.58-2.63-13.34,6.33-7.14,7.56-3.94-.94-3.37,5.38-2.88,7.68.7,3.29,4.2,8.33,8.25,7C42.75,183.18,46.87,185.59,50.3,185.24Z"/><path class="d" d="M56.92,177.13c5.91,6.19,22.85,12.87,27.9,7.29,4.68-5.16-.16-7.55-5.08-8.54s-20.67-9.73-24.46-4C54.33,173.36,55.1,175.22,56.92,177.13Z"/><path class="d" d="M131.82,165.46c-7.57-9.28-21.74-12.57-34.73-12.27-11.58.27-31,4.79-38.72,12.23C43.76,179.5,58.7,209.17,76.2,214a70.06,70.06,0,0,0,15.91,2c11.87.53,26.19-.09,32.3-11.23C130.89,192.93,142.39,178.41,131.82,165.46Z"/><path class="d" d="M72.89,199.59c1.27-6.6,4.08-14.52-2.67-19.11-3.7-2.51-11.13-1.54-13.51,2.38-2.65,4.38-.64,13.39-1.4,18.45-1.05,6.85-2,13.64-3,20.38-.76,5-8.69,23.13-5.4,26.81,2.7,3,9.81.6,12.14-1.34,5.11-4.28,6.35-13.29,8.1-19.5a226.31,226.31,0,0,0,5.52-26.75Q72.76,200.27,72.89,199.59Z"/><path class="c" d="M68.86,221.7c2.29.28,3.15,5.78,2.23,8.56a11.76,11.76,0,0,1-7.24,7.14c-7.2,2.68-16-.5-18.51-8.09C43.86,224.73,46.86,216,53,216.79c-.28,2.27.12,4.29,2.74,5.73C60.23,225,68.86,221.7,68.86,221.7Z"/><path class="e" d="M105.41,213.58a4.91,4.91,0,0,0,3.87-4.32c-.58,5.29,9,2.58,10.84,1.16.81-.61,1.49-2.35,2.29-2.72,2.24-1,4.48.6,7.18-.51s4.16-2.74,4.45-5.77c3.35-.42,5,.92,7.48-2.09,1.54-1.86,2.45-5.47.88-7.43,2.84-2.16,4.84-12.42-.88-12.15,3.34-2.21,6-14-.66-12.84,4-3.9.27-7.6-2.43-10.47s-3.8-6.42-6.17-9.41c-6.36-8.08-19.46-14.52-29.61-15.35-12.35-1-22.88,6.8-30.81,15.45-3.42,3.73-6.59,7.31-10.11,10.73-2.29,2.24-5.61,8.65-2.43,11.39-3.83,3.51-7.11,8.83-.76,12.15-1,2.3-4.23,4.47-3.67,7.46.47,2.47,3.67,4.06,6,4.45.45,5,0,10.73,7.43,8.79.79,2.43.11,4.43,2.84,5.61s4.33-2.14,6.37-1.22c.54.24.54,2.59,1.08,3.24,2.24,2.7,9.16,1.69,11.69-.31,1.35,6.18,8.72,4.93,11.83.77C102.08,212.9,103.7,213.87,105.41,213.58Z"/><path class="f" d="M134.8,151.51c1.78,3.88,1.9,10.72.09,14.53-1.72,3.63-5,6.81-8,9.08-6.65,5-14.94,7.31-22.91,7.75-11.69.65-23.85.57-33.38-7.59-4.75-4.07-8.76-8.27-9.6-15.15-2.23-18,13.26-22.13,26.47-24.74,12.44-2.46,31.53-4.22,40.89,7.34C130.36,145.22,133.42,148.51,134.8,151.51Z"/><path class="g" d="M149.36,107.66c.9-5.41,2.18-19.41.54-24.93C136,35.63,30.05,62,48.55,109.82c9.59,24.8,20.22,43.69,42.12,60.22,17.38,13.12,34.75-18.39,43.4-30.42C140.72,130.38,147.42,119.3,149.36,107.66Z"/><path class="e" d="M23.15,100.31c2.62-8,5.11-16,9.11-23.47C42,58.62,54.06,65.25,55.58,85c.52,6.8-1.4,13.19-2,19.86-1.13,12.91-1.86,25.75-4.12,38.54-1.35,7.68-2,15.71-5.41,22.85-1.6,3.34-3.91,6.6-7.54,8a9.24,9.24,0,0,1-6.51,0c-3.26-1-4-3-6.61-4.6-2.75-1.67-7.93-.32-11.13-1a17,17,0,0,1-4.76-1.92c-2.18-1.34-1.38-2.23-2.44-4-2.4-4.16-5.91-3.69-4.9-9.35a57,57,0,0,1,4.59-14c3.91-8.52,9.4-16.28,13.17-24.85C20,109.81,21.58,105.07,23.15,100.31Z"/><path class="e" d="M159.2,68.87a17.93,17.93,0,0,0-4.92-4.12c-2.75-1.43-10.06-.84-12.45,1.2-2.79,2.37-3.25,11.57-2.47,15.34,2,9.61,4.83,19.23,7.6,28.84s6,19.75,12.47,27.42c4.75,5.63,13.23,17.92,22.2,12.61,2.13-1.26,3.43-3.9,5.67-5.18,7,6.13,16.46-1.1,17-9,2.72.58,5.88-1.55,7.16-4.11,4.3-8.68-6.69-11.92-11.69-14.88a96.22,96.22,0,0,1-22.51-18.8c-5.14-5.8-7.58-11.34-11-18.22A52.78,52.78,0,0,0,159.2,68.87Z"/><path class="g" d="M86.18,211.33c1.32-6.85,4.23-15.07-2.77-19.84-3.83-2.6-11.54-1.59-14,2.48-2.75,4.54-.66,13.9-1.46,19.15-1.08,7.11-2.06,14.16-3.13,21.15-.79,5.16-9,24-5.6,27.84,2.79,3.13,10.17.62,12.59-1.4,5.3-4.44,6.59-13.79,8.41-20.24a235.47,235.47,0,0,0,5.72-27.77C86,212.25,86.09,211.79,86.18,211.33Z"/><path class="e" d="M82,234.28c2.37.3,3.26,6,2.31,8.89a12.21,12.21,0,0,1-7.51,7.41c-7.47,2.79-16.63-.51-19.19-8.39-1.54-4.76,1.57-13.86,7.9-13-.29,2.37.13,4.46,2.85,6C73.05,237.72,82,234.28,82,234.28Z"/><path class="e" d="M88.39,192.57c-5.19-8.24-27.08-4.8-21,5.69a5.62,5.62,0,0,0,2.4,2.45,27.16,27.16,0,0,0,3.88.8c.72,4.18,6,3.59,8.89,2.88,1,4.12,6.45,2,7.69-.77C91.78,200.22,90.27,195.55,88.39,192.57Z"/><path class="g" d="M114.65,210.52c-1.3-6.85-4.19-15.08,2.83-19.82,3.84-2.59,11.54-1.57,14,2.51,2.74,4.56.62,13.91,1.4,19.16,1.07,7.12,2,14.17,3.07,21.16.78,5.16,9,24,5.52,27.85-2.8,3.12-10.17.59-12.58-1.43-5.29-4.46-6.55-13.82-8.36-20.26a238.32,238.32,0,0,1-5.63-27.79C114.83,211.45,114.74,211,114.65,210.52Z"/><path class="e" d="M118.76,233.49c-2.37.29-3.28,6-2.33,8.88a12.18,12.18,0,0,0,7.49,7.43c7.46,2.81,16.63-.46,19.21-8.33,1.56-4.76-1.53-13.86-7.87-13,.29,2.37-.13,4.46-2.86,5.95C127.7,237,118.76,233.49,118.76,233.49Z"/><path class="e" d="M113,191.06c5.2-8.24,27.08-4.8,21,5.69a5.6,5.6,0,0,1-2.39,2.45,27.16,27.16,0,0,1-3.88.8c-.73,4.18-6,3.59-8.89,2.88-1.06,4.12-6.45,2-7.7-.77C109.59,198.71,111.1,194,113,191.06Z"/><path class="h" d="M166.86,31.89c-.27-6.79-6.51-14.36-14.36-13.89-2-16.25-27-20.7-39.23-11.38C109.7.82,98.38-.2,92.05,0h-.12V0l-.38.05-.38,0v0l-.13,0c-6.26,1-17.17,4.15-19.56,10.53C57.73,3.85,34,13,35.17,29.35c-7.79,1-12.47,9.67-11.43,16.39.84,5.41,4.76,12,9.81,14.74-2-1.08-1.48,6.85-1.38,7.27a13.47,13.47,0,0,0,3.9,6.56c4.51,4.68,10.54,8.46,17.3,8A30.35,30.35,0,0,0,66.8,78.16c8.41,8.12,25.42,11.26,33,10.84v0l.37-.06.38,0v0c7.49-1,23-6.09,30.29-17a34.23,34.23,0,0,0,13.49,1.09c6.74-.8,12.39-5.31,15.92-10.76a13.53,13.53,0,0,0,2.58-7.19c0-.43-1-8.31-2.75-6.87C164.49,44.59,167.07,37.37,166.86,31.89Z"/><path class="i" d="M89.63,107.07c2.25-1.16,6.09-1.75,10.11-1.72h0c4,0,7.85.56,10.11,1.72,10.74,5.55.62,13.71-10.11,14.38h0C89,120.78,78.88,112.62,89.63,107.07Z"/><path class="g" d="M98.16,108.28c.61,1.26-1,3.31-3.64,4.58s-5.24,1.27-5.85,0,1-3.31,3.64-4.58S97.55,107,98.16,108.28Z"/><path class="i" d="M100.13,133.55a1.45,1.45,0,0,0,1.47-1.42V119.69a1.48,1.48,0,0,0-2.95,0v12.44A1.45,1.45,0,0,0,100.13,133.55Z"/><path class="i" d="M134.31,99.53c2.23-.09,1.91-2,1.06-3.41a8.17,8.17,0,0,0-5.44-3.75c-3-.53-5.62-1.23-8.6,0A7.88,7.88,0,0,0,117,96.6c-.54,1.32-.87,3.85,1.49,2.8,1.38-.62,2.31-2.15,3.58-2.88a7.25,7.25,0,0,1,6.79,0C130.75,97.42,131.94,99.64,134.31,99.53Z"/><path class="i" d="M65,99.68c-2.23-.06-1.94-2-1.12-3.4a8.1,8.1,0,0,1,5.36-3.84c3-.59,5.61-1.33,8.6-.19a7.88,7.88,0,0,1,4.46,4.2c.56,1.31.94,3.83-1.44,2.82-1.39-.59-2.34-2.1-3.63-2.82a7.28,7.28,0,0,0-6.79.09C68.51,97.5,67.36,99.74,65,99.68Z"/><path class="j" d="M88.6,155.32c2,2.63,5.76,4.17,9.77,4.42h0c4,.4,7.93-.53,10.39-2.79,11.72-10.78,3.13-28.7-7.45-31h0C90.49,126.52,78.91,142.81,88.6,155.32Z"/></svg>