<svg xmlns="http://www.w3.org/2000/svg" width="269.49" height="256.03" viewBox="0 0 269.49 256.03"><defs><style>.a{fill:#d3c2a6;}.b{fill:#231f20;opacity:0.3;}.c{fill:#fff;}.d{fill:#f15a29;}.e{fill:#58595b;}.f{fill:#937e60;}</style></defs><path class="a" d="M16.16,157.58c9,9.48,20.44,17.28,33,19.92,21.31,4.48,9.41-17.48.59-25.83-17.15-16.21-29.4-39.43-28.43-62.09a50.17,50.17,0,0,0-6.09,19.65C12.41,104.62,13.4,101,13.64,96,9.57,103,6.93,111.23,8.55,119c-2.11-2.76-2.87-7.1-3.4-9.09C2.6,117.22,2,125.7,5.05,133.07,2.67,130,1.61,126.26.48,123.13c-2.13,6.64,3.32,18.68,7.28,24.26A92.42,92.42,0,0,0,16.16,157.58Z"/><path class="b" d="M136.35,215.76c56.33,0,102,6.26,102,14,0,2.89-6.38,5.57-17.31,7.8,11.63,1.81,19.23,4.79,19.23,8.17,0,5.52-8.52,10.53-39.95,10.31-24.93-.16-44.37-5.52-49.31-12.44-4.78.1-9.67.07-14.65.15-64.7,1-102-6.26-102-14S80,215.76,136.35,215.76Z"/><path class="a" d="M215,174.93c8.24,27,15.5,33,19.65,46.88,1.13,3.77,1.34,8-.53,11.51-2.52,4.68-8.38,6.81-13.66,6.21s-10-3.43-14.27-6.66c-11.67-8.92-20.7-21.61-24-35.94-1.45-6.26-1.61-13.47,2.45-18.44,3.46-4.25,10.3-5.92,15.48-4.1S213.55,170.31,215,174.93Z"/><path class="c" d="M49.31,152c11.66-10.18,27.44-14.28,47.4-16.45,7.93-.86,44.54-.68,48.37-5.64,8.67-11.27,14.45-18.06,30.06-17.84A41,41,0,0,1,205,125.88a58.63,58.63,0,0,1,8.62,13.86c2.82,6,3.79,5.34,5.36,11.92,2.24,9.4,1.19,17.05.45,22.61a61.23,61.23,0,0,1-27,43.44c-20.37,13.6-45,8.8-67.19,4-9.53-2.08-11.77-5.54-21.66-5.49-9.18.05-20,4.87-29.2,4.16-16.26-1.27-31.78,8.09-37.92-7.8C31.07,198.62,38.41,161.49,49.31,152Z"/><path class="a" d="M76.46,204c6.5-5.9,13.78-6.24,22.1-5.67,12.44.86,24,8.22,36.69,6.58s25.15-5.76,36.87-10.29c0,0,16.84,9.17,41.33-.63-3.25,9.12-9.23,19.91-19,26.45-13.32,8.9-32.49,7.14-48,8.42a305.39,305.39,0,0,1-53.07-.24c-6-.55-16.51-1.27-20.59-6.58C68.88,217,72.27,207.82,76.46,204Z"/><path class="c" d="M153.4,226.89c-12.05-13.48-19.13-56,11.52-49.92,15.48,3.09,20.07,35.41,21.42,37.43,6.75,10.06,23.37,12.16,30.11,13.62,6.22,1.35,12.72,1,19.11,1s13.07.7,18.47,3.77,9.08,9.23,7,14.66c-2,5.27-8.56,8.14-14.75,8.49s-12.27-1.23-18.4-2.06c-9.06-1.22-18.28-.81-27.39-1.62C180.81,250.52,169.93,245.38,153.4,226.89Z"/><path class="a" d="M202,224.65h0a131.28,131.28,0,0,0,14.4,3.38c6.22,1.35,12.72,1,19.11,1a49.21,49.21,0,0,1,13.37,1.66c-3.32,1.22-11.86,5.44-13.7,5.88-5.73,1.37-11.12,3.89-17,4.8s-12.69-.29-16-4.79C199.79,233.13,200.05,228.41,202,224.65Z"/><path class="c" d="M202.91,221.42c-1.75,3.8-2,8.56.24,12.08,2.87,4.54,8.89,5.74,14,4.83s9.88-3.46,14.92-4.84c1.75-.48,3.63-.87,5-2.15,4.42-4.26-.88-12.49-4.36-15.32C223.36,208.42,208.58,209.12,202.91,221.42Z"/><path class="c" d="M108.42,180.4c2.59,9.07,1.22,19.74-4.06,27-3,4.09-8.85,10.23-12.22,13.85.19-.21,9,.29,12.49,2.7,3.31,2.24,3.62,3.41,4.17,7.35,1.58,11.27-11,10.48-17,10C62.1,239.12,63,227.77,64.24,227.48c-7.82,1.78-15.08,4.21-21.73-3-5.93-6.47-7.74-17-6.09-26.29,2.52-14.31,11.28-26.75,22.52-32.79a45.09,45.09,0,0,1,11.56-4.6c7.12-1.53,14.6-4.12,21.67-.62C99.57,163.8,105.87,171.47,108.42,180.4Z"/><path class="a" d="M108,200.21s17.58-39-24.87-41.78c0,0,41.72-4.1,28.89,44.49Z"/><path class="d" d="M148.79,119.21c19.09,24,43.24,28,74.53,25,2.63,3.32,2.54,11.18.31,13.19-2.89,1.08-54.35,10.15-83.74-26.33,0,0,.09-5.09,3.16-8.09A17,17,0,0,1,148.79,119.21Z"/><path class="c" d="M258.3,78.21A127.23,127.23,0,0,0,260,59.71c0-1,0-1.9-.08-2.85a28.68,28.68,0,0,0-5.16-14.64c-2.35-3.33-5.5-5.94-7.72-9.38-3.81-5.89-6.56-10-13.75-12.1-5.68-1.67-11.71-1.59-17.42-3.15-.17,0-.32-.06-.48-.09h-.09c-.15,0-.31-.07-.46-.12-5.83-1-11.26-3.67-17.11-4.58-7.4-1.16-11.64,1.37-17.59,5.08-3.48,2.16-7.44,3.18-11,5.19a28.46,28.46,0,0,0-10.92,11c-.46.83-.89,1.67-1.29,2.55a127.72,127.72,0,0,0-6.36,17.45c-3.6,12.32-5.92,25.21-8.67,37.5a103.26,103.26,0,0,0-2.18,15c-.54,7.52-1,14.33,5.05,19.88,3.74,3.46,7.84,5.91,11.31,9.68a21.87,21.87,0,0,0,12.11,6.23c5.1,1,10.08-1,14.81,1.2,1.07.49,2.13,1,3.19,1.57l-.06.25.34,0v0h.21l.19.1v0l.29.16.06-.25c1.19,0,2.38-.07,3.55-.06,5.22,0,8.88,3.93,13.9,5.23a21.93,21.93,0,0,0,13.62-.46c4.75-1.94,9.5-2.4,14.36-3.94,7.8-2.46,10.33-8.8,13.05-15.83a104.81,104.81,0,0,0,4.44-14.53C252.9,103.54,256.3,90.89,258.3,78.21Z"/><path class="a" d="M250.15,115.83c2.75-12.29,6.15-24.94,8.15-37.62A127.23,127.23,0,0,0,260,59.71c0-1,0-1.9-.08-2.85a28.68,28.68,0,0,0-5.16-14.64c-2.35-3.33-5.5-5.94-7.72-9.38-3.81-5.89-6.56-10-13.75-12.1-4.7-1.38-9.63-1.57-14.43-2.48-.59,1.92-1.17,3.94-1.88,6.09a83,83,0,0,0-3.77,15.1c-.9,6.95-2.67,14.18-3.5,21.09C209,66.58,207,73.2,208.3,79s6.57,7.43,10.18,11.19c3.8,4,6.62,9.9,8.4,14.66,2.36,6.33-.23,11.21-.42,17.77s.23,17.82,4.7,24c.5-.14,1-.28,1.5-.44,7.8-2.46,10.33-8.8,13.05-15.83A104.81,104.81,0,0,0,250.15,115.83Z"/><path class="e" d="M204.43,75.44c1.46-6.83-.91-19.91,9.19-21.37-1,6.1-2.5,10.68-2.56,16.85-.05,4.87.19,10.11,3.66,14.43a90.17,90.17,0,0,0,8.07,8.05,21.84,21.84,0,0,1,7,17.93,51.85,51.85,0,0,1-1.2,7.42c-.54,2.43-1.93,4.7-2.33,7.14-.27,1.66.08,3.25-.46,4.9-2.44-3-2.55-8-3.4-11.68-1.12-4.81-3.19-10.71-6.07-14.83-3.9-5.55-11.48-8.69-13.65-15.4C201.45,85.14,203.61,79.26,204.43,75.44Z"/><path class="e" d="M200.49,74.56c1.59-6.8,9.31-17.62.8-23.25C199.61,57.26,199,62,196.42,67.64c-2,4.43-4.49,9.06-9.47,11.49A88.25,88.25,0,0,1,176.22,83a21.82,21.82,0,0,0-14,13.24,50,50,0,0,0-2.08,7.22c-.54,2.43-.26,5.07-.94,7.45-.47,1.62-1.46,2.9-1.67,4.63,3.47-1.65,5.74-6.19,8.06-9.12,3.06-3.87,7.45-8.32,11.82-10.82,5.89-3.36,14.08-3,18.91-8.1C199,84.6,199.6,78.36,200.49,74.56Z"/><path class="c" d="M226.61,134.26c1.53-11.23,3.42-25-3.46-35.35-1.75-2.65-4.15-4.26-6.58-6.42C210.08,86.7,207.4,81,205.9,73.19c-.67-3.51.26-7,.78-10.37.22-1.54,2.76-15,2.41-15l-.43-.08-.42-.11c-.34-.11-3.78,13.15-4.23,14.63-1,3.32-1.62,6.82-3.73,9.72-4.68,6.42-9.54,10.43-17.87,12.9-3.12.92-6,1.35-8.7,3-8.14,4.92-12.31,13.6-15.33,21.85-2.9,7.92-6.25,17.17-4.42,25.76.94,4.38,4.06,7.51,9.33,7,4.74-.44,8.39-3.13,13.22-3.38,4.64-.25,9.26-.83,13.85.47,3.8,1.07,6.74,3.22,10.22,4.72s4.9,3.28,7.68,5.76C217.64,158.37,225.81,140.11,226.61,134.26Z"/><path class="f" d="M207.23,143.26c-3.22-3.65-6-5.2-6.09-10.25a75.85,75.85,0,0,1,1.45-13.37c.67-4.06,4-10.57-.2-13.85l-.43-.32a21.32,21.32,0,0,0-5.53-2.57v-.05l-.21,0-.21-.07v0a21.51,21.51,0,0,0-6.1,0l-.53.11c-5.21,1.16-5,8.49-6.07,12.44a76.64,76.64,0,0,1-4.4,12.71c-2.21,4.54-5.41,4.74-9.88,6.68-4.32,1.86-6.87,6.76-1.13,9.44,4.76,2.22,12,.64,16.71-.55a7.53,7.53,0,0,1,2.53-.21,7.56,7.56,0,0,1,2.2,1.27c3.71,3.06,9.63,7.6,14.88,7.62C210.55,152.31,210.33,146.79,207.23,143.26Z"/><path class="f" d="M204.41,147.71c-3.83-3.08-7.9-7-12.31-9.44a11.29,11.29,0,0,0-3.54-1.19,11.45,11.45,0,0,0-3.71-.44c-5,.35-10.39,2.15-15.17,3.29-2.24.53-5.19,1.65-3.44,4.41,1.56,2.47,7.57,2.71,10.09,3.43,3.08.88,6.21,1.55,9.35,2.16,3.1.78,6.21,1.52,9.38,2,2.58.42,8.12,2.77,10.58,1.21C208.41,151.42,206.21,149.15,204.41,147.71Z"/><path d="M207.7,108.64c1.1-4.57-3.8-5.65-7.94-7.16-.92-.33-2.26-.79-3.83-1.27h0c-1.61-.24-3-.4-4-.49-4.39-.4-9.28-1.51-10.24,3.09-1.09,5.26,5.16,8.85,11.29,10.55h0C199.26,114.44,206.44,113.86,207.7,108.64Z"/><rect x="176.71" y="123.31" width="27.9" height="3.5" transform="translate(26.95 283.77) rotate(-77.38)"/><path d="M170.25,140.61a1.74,1.74,0,0,1,.48-3.43,35.06,35.06,0,0,0,7-.56c4-.58,8.18-1.18,12.06.23a58.56,58.56,0,0,1,7.84,3.84,60.31,60.31,0,0,0,7.15,3.57,1.72,1.72,0,0,1,1,2.24,1.75,1.75,0,0,1-2.26,1,62.13,62.13,0,0,1-7.58-3.76,54,54,0,0,0-7.35-3.61c-3-1.12-6.59-.6-10.35-.06a37.44,37.44,0,0,1-7.66.59A1.27,1.27,0,0,1,170.25,140.61Z"/><path class="a" d="M257.47,69.68c-8.51,1.95-18-1-25-6-7.67-5.55-7-21.35-1.74-28.54C237,26.71,246.08,20,256.9,19.16c6.73-.53,10.14,5.28,11.68,11.2,1.68,6.42.53,14.59.44,21.22-.07,5.58-.13,12.73-5.69,15.85A21.71,21.71,0,0,1,257.47,69.68Z"/><path class="f" d="M261.19,57.72a2.7,2.7,0,0,1-1.74.41c-2.31-.11-3.33-3.33-4.13-5-1.6-3.43-3.24-6.72-5.92-9.33-2.37-2.32-6.25-4.62-7.4-7.8-2.43-6.67,9.89-9.15,13.81-7.25,4.81,2.32,6.54,9.72,6.79,14.53a76.71,76.71,0,0,1-.37,8.16C262.13,53.18,262.85,56.55,261.19,57.72Z"/><path class="c" d="M155,46.72c6.87,5.4,16.7,6.8,25.16,5.2,9.3-1.75,15.46-16.31,13.74-25.07-2-10.24-7.4-20.2-16.84-25.58-5.86-3.34-11.42.46-15.34,5.15-4.25,5.1-6.7,13-9.45,19-2.31,5.08-5.31,11.57-1.61,16.77A21.67,21.67,0,0,0,155,46.72Z"/><path class="f" d="M156.71,34.32a2.65,2.65,0,0,0,1.39,1.11c2.14.88,4.44-1.59,5.89-2.8,2.91-2.41,5.79-4.69,9.33-5.91,3.13-1.08,7.63-1.51,10-3.89,5-5-5-12.5-9.4-12.46-5.35.05-10.07,6-12.34,10.25a76.4,76.4,0,0,0-3.15,7.54C157.79,29.82,155.71,32.55,156.71,34.32Z"/><path d="M224.45,68.77a25.38,25.38,0,0,0-2.32,6.3c-1.92,8.56.54,16.39,5.48,17.49S238,87.73,240,79.3Z"/><path class="c" d="M229.45,80.86c-1.7,2.45-4.2,3.62-5.56,2.61s-1.09-3.8.62-6.26,4.19-3.61,5.56-2.61S231.16,78.41,229.45,80.86Z"/><path class="f" d="M245.07,82.06a4.72,4.72,0,0,0,3.87-1.94c-5-1.44-9.72-3.36-14.49-5.26a20,20,0,0,1-10-8.59c-.63-1.1-4.91-10.08-4.74-10.69-1.53,5.48-3.58,12.94,1.56,17.18,2.31,1.9,6.28,3.36,8.94,4.72C234.86,79.87,239.59,82.41,245.07,82.06Z"/><path d="M185.23,60a25.35,25.35,0,0,1-.6,6.7c-1.91,8.55-7.47,14.59-12.41,13.48s-7.35-8.81-5.53-17.27Z"/><path class="c" d="M173.93,68.43c-1.7,2.45-4.19,3.62-5.56,2.61s-1.08-3.81.62-6.26,4.2-3.62,5.56-2.61S175.64,66,173.93,68.43Z"/><path class="f" d="M160.91,63.21a4.73,4.73,0,0,1-2.68-3.4c5.13.82,10.22,1.11,15.35,1.42a19.93,19.93,0,0,0,12.74-3.49c1-.73,8.74-7,8.85-7.65-1,5.61-2.28,13.23-8.74,14.87-2.9.74-7.12.36-10.1.46C171.08,65.59,165.71,65.87,160.91,63.21Z"/></svg>