<svg xmlns="http://www.w3.org/2000/svg" width="215.09" height="218.81" viewBox="0 0 215.09 218.81"><defs><style>.a{fill:#212121;}.b{opacity:0.3;}.c{fill:#bab9b9;}.d{fill:#3d3d3d;}.e{fill:#999;}.f{fill:#fefefe;}.g{fill:#edfafb;}.h{fill:#f7941d;}.i{fill:#fff;}.j{fill:#a00a2b;}</style></defs><path class="a" d="M209.54,133.47a22.64,22.64,0,0,0-1.26-4.43q-2.66,5.53-5.32,11.05,0-6-.07-12c-3.26,7.12-8.79,12.68-13.41,18.89-3.42,4.6-6.5,10-7.4,15.85-.75,4.95-2.1,9.59-2.87,14.58-.92,6,1.13,18.78,9.49,11.58a81.59,81.59,0,0,0,10.24-11.41c3.22-4.1,6.79-8.29,9.78-12.81a41.07,41.07,0,0,0,6-15.26,27.37,27.37,0,0,0,0-8.71c-.16-1-1.35-7.81-1.11-8.28-.88,1.76-2.87,4.63-3.75,6.39A23.87,23.87,0,0,0,209.54,133.47Z"/><path class="b" d="M192.94,204.42c0,8-29.11,14.39-65,14.39s-65-6.44-65-14.39S92,190,127.93,190,192.94,196.47,192.94,204.42Z"/><path class="a" d="M93.17,175.67a22.86,22.86,0,0,0,7.12,4.7,1.36,1.36,0,0,0,1,.14c.52-.18.68-.86.76-1.44l.51-3.93a12.45,12.45,0,0,0,4.36,6,24.44,24.44,0,0,0,2.32-6.46l3,7.76a125.78,125.78,0,0,1,16.29-14,62.76,62.76,0,0,0-2.5-9.89c-.16-.46-.3-.89-.42-1.31,0-.11-.07-.22-.1-.32l-.32-1.11c-1-3.34-1.47-5.21-6.08-7.46-8.32-4.07-16.48-2.84-24.82,0-7.3,2.5-8.39,8.8-9.1,15.28a27.77,27.77,0,0,0,0,5.32c0,.1,0,.2,0,.29,0,.46.1.9.16,1.35,0,.09,0,.18,0,.27a26,26,0,0,0,1.93,6.81c2.22,1.11,4.45,2.2,6.7,3.24A12.74,12.74,0,0,0,93.17,175.67Z"/><path class="c" d="M112.17,182.48l-3-7.76a24.44,24.44,0,0,1-2.32,6.46,12.45,12.45,0,0,1-4.36-6l-.51,3.93c-.08.58-.24,1.26-.76,1.44a1.36,1.36,0,0,1-1-.14,22.86,22.86,0,0,1-7.12-4.7A12.74,12.74,0,0,1,94,181c-2.25-1-4.48-2.13-6.7-3.24a20.63,20.63,0,0,0,2.7,4.54c.49.62,6.67,7.12,5.94,7.46-3.72,1.68-9.21-.35-8.73,5.56.57,6.85,11,5.9,16.31,5.62,5-.26,10.38.17,14.75-1.48a11.54,11.54,0,0,0,5.48-4.15c5.54-7.69,6.27-17.56,4.76-26.78A125.78,125.78,0,0,0,112.17,182.48Z"/><path class="d" d="M128.41,101.39c-10.49,0-20.14,5.55-30.1,8.38-15.58,4.42-17.27,24.28-13,38.5,2.72,9.06,7.6,17.17,12.55,25.07,4.22,6.74,8.62,13.22,14.08,18.89,5.89,6.1,11.45,8.14,19.68,9.05,7.11.8,14.32,1.35,21.37.09,9-1.61,19.66-5.32,24.17-13.65,5-9.18,8.46-12.16,7.34-22.74-1.7-16.13-13.3-38.91-22.9-51.45-3.84-5-8.44-10.94-14.67-11.83C141.13,100.88,134.29,101.39,128.41,101.39Z"/><path class="c" d="M151.23,157c-3.28-9.11-10.22-23.37-15.72-29.69-12.28-14.13-27.13-7.6-37.45-3a43.27,43.27,0,0,0-14.75,10.15,48.21,48.21,0,0,0,2,13.85c2.72,9.06,7.6,17.17,12.55,25.07,4.22,6.74,8.62,13.22,14.08,18.89,5.89,6.1,11.45,8.14,19.68,9.05,6.35.71,12.78,1.22,19.1.42C155.92,189.16,156.78,172.4,151.23,157Z"/><path class="a" d="M177.16,187.72c3.74-6.9,6.64-10.3,7.37-16.06-.48-1.84-.89-3-.89-3-.57-3.47-6.79-17-14-20.62-8-4.08-12.66-3.7-20.67-.71-7,2.63-8.91,10.43-9.53,17a29.44,29.44,0,0,0,0,5.39c0,.1,0,.19,0,.29,0,.46.1.91.17,1.37a2.51,2.51,0,0,0,0,.27,27.48,27.48,0,0,0,1.91,6.86,20.73,20.73,0,0,0,2.65,4.56c.47.62,6.48,7.11,5.78,7.46-4.1.3-8.53,1.42-8,7.39a5.27,5.27,0,0,0,2.17,4.15,51.44,51.44,0,0,0,8.76-.73C162,199.75,172.65,196.05,177.16,187.72Z"/><path class="e" d="M151.23,157c-1-2.66-2.23-5.75-3.69-9-5.81,3.11-7.49,10.24-8.06,16.32a29.44,29.44,0,0,0,0,5.39c0,.1,0,.19,0,.29,0,.46.1.91.17,1.37a2.51,2.51,0,0,0,0,.27,27.48,27.48,0,0,0,1.91,6.86,20.73,20.73,0,0,0,2.65,4.56c.47.62,6.48,7.11,5.78,7.46-4.1.3-8.53,1.42-8,7.39a5.3,5.3,0,0,0,2.17,4.15h.2c1.34,0,2.69-.06,4-.16l.55-.06c.58-.05,1.15-.15,1.73-.22C155.92,189.12,156.77,172.38,151.23,157Z"/><path class="f" d="M34.31,153.23c-.68,10.63,6.43,12.77,13.57,12.82,9.2.07,11.53-3.83,12.22-10.39s-4.51-12.41-11.63-13.08S34.73,146.63,34.31,153.23Z"/><path class="d" d="M89.29,128.14c-2-2.5-4.6-2.1-7.16-3-3.27-1.1-5.87-.29-7.68,4-1.37,3.27.24,19.69-2.49,21.2a6.06,6.06,0,0,1-3.74.45l-3.93,2.32,7.35,5.29A31.21,31.21,0,0,1,64,160.61a36.42,36.42,0,0,0,6.25,4.64,30.13,30.13,0,0,1-8.84-.35,74.93,74.93,0,0,1,5.11,7.33c4.47,1.71,9.14,1.7,13.31-1l.41-.28c4-2.78,6.88-7.43,9.06-12.37C93,150.1,95.62,135.91,89.29,128.14Z"/><path class="f" d="M70.24,165.25A36.42,36.42,0,0,1,64,160.61a31.21,31.21,0,0,0,7.65-2.18l-7.35-5.29,3.93-2.32c-4.57-.61-10.65-4-14.1-4.62a9.41,9.41,0,0,0-4.75.46c-1.26.47-.82,4.65-.57,5.46,2.64,8.73,9.85,17.11,17.71,20.11a74.93,74.93,0,0,0-5.11-7.33A30.13,30.13,0,0,0,70.24,165.25Z"/><path class="d" d="M125.6,175.94a50.58,50.58,0,0,0,3.35,8.74q2.25-4.2,4.51-8.4l2.1,9.24a37.73,37.73,0,0,1,3.85-5.54,86.28,86.28,0,0,1-.37-9.7c0-.72,0-1.44.08-2.17.62-10.23,2.19-21,.54-30a26.43,26.43,0,0,0-3.79-10,22.52,22.52,0,0,0-7.54-7c-4.7-2.74-7.93-2.17-10.14.23-3.86,4.21-4.54,14.07-4.25,21.59a120.44,120.44,0,0,0,2.14,18.21.13.13,0,0,1,0,.06c.23,1.16.47,2.32.72,3.49.1.5.21,1,.32,1.5.77,3.42,1.53,7,2.06,10.53a26.25,26.25,0,0,1,3.72,6.6Q124.25,179.6,125.6,175.94Z"/><path class="g" d="M140.48,192c-.26-4-.73-8-1.07-12a37.73,37.73,0,0,0-3.85,5.54l-2.1-9.24q-2.27,4.2-4.51,8.4a50.58,50.58,0,0,1-3.35-8.74q-1.35,3.66-2.69,7.32a26.25,26.25,0,0,0-3.72-6.6,60.33,60.33,0,0,1,.65,6.93,21.26,21.26,0,0,1-.06,3,7.55,7.55,0,0,1-.18,1c-.46,1.82-1.48,2-2.76,4.72-11.56,23.91,24.23,23.89,23.91,8.26,0-1.66-.12-5.84-.21-7.46C140.52,192.76,140.51,192.38,140.48,192Z"/><path class="a" d="M49.9,2.05a50.55,50.55,0,0,0-17.34,8.86A71.69,71.69,0,0,0,17.18,27.62C15.32,30.36,5.1,48,2.15,47a14,14,0,0,0,9.48,0,123.87,123.87,0,0,0-10,15,74.2,74.2,0,0,0,10.53-3.11A175.86,175.86,0,0,0,0,71.84a13.59,13.59,0,0,0,10.9-2.08c-5.27,12.63.49,29.44-6.34,41C6.23,108,15.7,104.06,18,105.59a64.26,64.26,0,0,1-2.65,7.47c9.75-3.1,18.34-11.12,23.49-22a45.27,45.27,0,0,1-2.2,13.41A65.49,65.49,0,0,0,55.53,82.21c1.52,3.8,11-4.18,12.39-13.84,2.37-16.56-3.42-35.25,2.66-50.05,1.27-3.1,3.06-6,3.3-9.53C74.75-4.19,54.91.64,49.9,2.05Z"/><path class="g" d="M135.11,91.75c-7.43-6.23-18.61-8.71-28.53-6.87-8.12-1.5-14.38-.59-20.68,4.73-5.84,5-10.56,10.41-13.11,18.08-2.37,7.12-3.32,17.56,0,24.6C74.07,135,83,143,82,145.94a24.81,24.81,0,0,0,1-8.35c5.13,5,7,12.28,12.46,17.32A33.29,33.29,0,0,0,97,144.24c0,4.72,6.31,10.69,9,14,2.47-3,10.16-9.94,10.12-14a33.29,33.29,0,0,0,1.52,10.67c5.47-5,7.33-12.28,12.46-17.32a24.81,24.81,0,0,0,1,8.35c-.27-.82,8.64-13.82,9.4-15.9.8,2,1.39,2.88,2.2,4.91C151.24,121.42,147,101.73,135.11,91.75Z"/><path class="g" d="M159.12,118.3c-2-2.2-4.12-4.45-6.76-5.69a27.37,27.37,0,0,1-2.88,17c-2.31-6.42-8.26-10.43-14.12-13.24-3.2-1.55-6.77-3.12-8.39-6.46-2.06-4.22.06-9.7,3.65-12.49,5.55-4.32,13.11-5.7,18.36-.81A32.74,32.74,0,0,1,159.12,118.3Z"/><path class="h" d="M141.67,90.75C140.21,87.06,137,83,134.81,80c-7-10-19-11.87-30.16-11.08C93.51,68.1,81.46,70,74.49,80c-2.14,3.06-5.4,7.09-6.86,10.78-1.89,4.77-2,13.17-.09,17.85,1.82,4.46,5.31,8.36,8.5,11.16,7.06,6.17,15.87,9,24.34,9.52,1.35.08,2.71.15,4.07.21v0h.4v0c1.36-.06,2.72-.13,4.07-.21,8.47-.55,17.27-3.35,24.34-9.52a31.79,31.79,0,0,0,8.5-11.16C143.68,103.92,143.56,95.52,141.67,90.75Z"/><path class="d" d="M150.28,23c-8.8-22-30.36-19.2-49.44-19.58-12-.25-27-2.72-35.52,8-7.42,9.26-5.4,40.92-5.26,44.19.34,7.85-5.94,14.68-5.29,23.23A30.2,30.2,0,0,0,57.64,89c8,17.52,25.76,28.34,43.56,29.76h.19a.37.37,0,0,0,.18,0c19-1.47,33.07-13.23,42.39-32.34C152.57,68.72,158.21,42.89,150.28,23Z"/><path class="g" d="M123.13,85.54a26.83,26.83,0,0,0-2-4.28c-3.07-5.32-7.74-9.45-10.58-14.92-3.66-7.06-3.21-16.52-3.73-24.38-.73-10.8.79-23.15,6.61-32.27,1.13-1.76,2.67-4.15,3-6.26-2.33-.9-5.27-1-7.74-1.18S103.58,2,101,2c-5.13.07-10.25.53-15.36,1.07a6.27,6.27,0,0,0-2.42.49c-.85.49-.31,1,.08,1.84A34,34,0,0,0,85.8,10c13.06,19.62,8.76,44.15-7.53,59.45-6.61,6.22-14,13-15.16,22.32-1.17,9.92,6.61,18.93,14.39,23.06a51.86,51.86,0,0,0,22.39,5.55h.32l.38,0h.7c10.39-.09,17.86-2.87,21.74-13.71A31.76,31.76,0,0,0,123.13,85.54Z"/><path d="M80.39,75.78c2.11-1.44,5.7-2.17,9.45-2.12h0c3.76,0,7.34.68,9.45,2.12,10,6.86.58,16.94-9.45,17.76h0C79.81,92.72,70.36,82.64,80.39,75.78Z"/><path class="i" d="M84.3,83.4c-2.71,1.36-5.37,1.28-6-.17s1.15-3.73,3.86-5.09,5.38-1.28,6,.17S87,82,84.3,83.4Z"/><path d="M65.29,54.88c0,7.76,3.17,14.06,7.09,14.06s7.08-6.3,7.08-14.06-3.17-14.06-7.08-14.06S65.29,47.11,65.29,54.88Z"/><path class="i" d="M72.68,50.22c-.89,2.4-2.83,3.76-4.32,3.06s-2-3.22-1.08-5.61,2.83-3.76,4.33-3.05S73.58,47.83,72.68,50.22Z"/><path d="M118.45,54.88c0,7.76,3.17,14.06,7.09,14.06s7.08-6.3,7.08-14.06-3.17-14.06-7.08-14.06S118.45,47.11,118.45,54.88Z"/><path class="i" d="M125.85,50.22c-.9,2.4-2.84,3.76-4.33,3.06s-2-3.22-1.08-5.61,2.84-3.76,4.33-3.05S126.74,47.83,125.85,50.22Z"/><path class="a" d="M158.26,5.64A48,48,0,0,1,175,14.38a70.06,70.06,0,0,1,14.84,16.54c1.79,2.73,11.64,20.21,14.5,19.17a13.21,13.21,0,0,1-9.17,0,122.68,122.68,0,0,1,9.61,14.83,70.87,70.87,0,0,1-10.18-3.07,174.7,174.7,0,0,1,11.76,12.93,12.8,12.8,0,0,1-10.54-2c5.06,12.53-.55,29.23,6,40.7-1.61-2.8-10.77-6.63-13-5.11a62.19,62.19,0,0,0,2.54,7.41c-9.43-3-17.72-11-22.68-21.73a45.81,45.81,0,0,0,2.1,13.31,64,64,0,0,1-18.2-22.09,34.56,34.56,0,0,0-2.32,12.15C146,89.59,142,81.12,140.66,71.52c-2.26-16.42,3.4-35-2.45-49.67-1.22-3.07-3-6-3.17-9.45C134.24-.48,153.42,4.25,158.26,5.64Z"/><path class="d" d="M187.57,169.79c-.57-3.47-6.79-17-14-20.62-8-4.08-12.66-3.7-20.66-.71-7,2.63-8.92,10.43-9.54,17a30.36,30.36,0,0,0,0,5.39c0,.1,0,.19,0,.29.05.46.11.91.17,1.37,0,.09,0,.18,0,.27a27.08,27.08,0,0,0,1.92,6.86c2.15,1.09,4.3,2.17,6.48,3.19a13.52,13.52,0,0,0-.8-5.36,21.52,21.52,0,0,0,6.9,4.66,1.31,1.31,0,0,0,.92.13c.51-.19.66-.89.72-1.47.16-1.33.31-2.66.46-4a12.48,12.48,0,0,0,4.25,6.06,25.76,25.76,0,0,0,2.18-6.57c1,2.6,1.95,5.21,2.93,7.81l5,14.86c2.43,1.23,9,2.28,11.81-2.06C193.58,186,187.57,169.79,187.57,169.79Z"/><path class="g" d="M166.69,176.29a25.76,25.76,0,0,1-2.18,6.57,12.48,12.48,0,0,1-4.25-6.06c-.15,1.33-.3,2.66-.46,4-.06.58-.21,1.28-.72,1.47a1.31,1.31,0,0,1-.92-.13,21.52,21.52,0,0,1-6.9-4.66,13.52,13.52,0,0,1,.8,5.36c-2.18-1-4.33-2.1-6.48-3.19a20.69,20.69,0,0,0,2.64,4.56c.48.62,6.48,7.11,5.78,7.46-4.09.3-8.53,1.42-8,7.39.61,6.92,8.58,5.43,13.68,5.5,4.84.08,14.66-1.54,15-5.59l-5-14.86C168.64,181.5,167.67,178.89,166.69,176.29Z"/><path class="j" d="M74,95.19C72.87,96,76.61,116,92.68,117.3c22.67,1.88,17-23.91,16.9-21.63,0,.09-3.66,5.77-18.77,4.43C76.45,103.54,74.32,95,74,95.19Z"/><path d="M90.72,101a1.63,1.63,0,0,0,1.57-1.69V84.52a1.58,1.58,0,1,0-3.15,0V99.33A1.64,1.64,0,0,0,90.72,101Z"/><path d="M72.1,93.56a1.51,1.51,0,0,1,2.16.58c1.27,2.27,5.68,4.7,7.92,5.17,3.25.68,5.75-.2,8.41-1.76v-.13l.13.06.12-.06v.13C93.5,99.11,96,100,99.25,99.31c2.24-.47,6.65-2.9,7.92-5.17a1.52,1.52,0,0,1,2.16-.58,1.76,1.76,0,0,1,.55,2.31c-2,3.52-7.49,6.23-10,6.76a14.07,14.07,0,0,1-2.8.3,13.76,13.76,0,0,1-6.33-1.66,13.8,13.8,0,0,1-6.34,1.66,14.14,14.14,0,0,1-2.8-.3c-2.54-.53-8.07-3.24-10-6.76A1.74,1.74,0,0,1,72.1,93.56Z"/></svg>