<svg xmlns="http://www.w3.org/2000/svg" width="196.3" height="272.19" viewBox="0 0 196.3 272.19"><defs><style>.a{fill:#75260b;}.b{fill:#eeb375;}.c{fill:#009444;}.d{opacity:0.3;}.e{fill:#d38d4f;}.f{fill:#edcbae;}.g{fill:#aa694d;}</style></defs><path class="a" d="M46.77,8.11c-5.62,2.16-9.71-2.36-17.2,3.73-5.28,4.31-9.49,16.26-8.26,23.86.63,3.89,2.55,11.23,4.1,14.49,2.92,6.18,4.93,13.41,3.31,21-.38,1.79-1,3.83-.3,5.31S30.54,78,31.8,77.75A27.2,27.2,0,0,0,52.09,62.5C58,49.74,57.65,32.19,66.26,21.21,74.4,10.85,81.48.93,67.71.05,57-.62,54.44,5.16,46.77,8.11Z"/><path class="a" d="M170.63,8.11c5.61,2.16,9.7-2.36,17.19,3.73,5.29,4.31,9.49,16.26,8.26,23.86-.63,3.89-2.55,11.23-4.1,14.49-2.92,6.18-4.93,13.41-3.31,21,.38,1.79,1,3.83.3,5.31s-2.12,1.49-3.38,1.29A27.22,27.22,0,0,1,165.3,62.5c-5.87-12.76-5.55-30.31-14.17-41.29C143,10.85,135.91.93,149.68.05,160.35-.62,163,5.16,170.63,8.11Z"/><path d="M175.26,78.92c-1-4.57-6.55-5.6-11.23-5.53s-10.26,1-11.24,5.53c-1.24,5.85,4.56,11.49,9.56,11.68a10.52,10.52,0,0,0,1.68-.09,10.39,10.39,0,0,0,1.68.09C170.71,90.41,176.51,84.77,175.26,78.92Z"/><path class="b" d="M163.54,38.05c-.7-9.4.08-20.28-5.18-28.32-3.22-4.92-9.52-6.11-14.42-7.14-6.6-1.39-13.38-2.22-20-.93-2.86.56-5.65,1.49-8.49,2.12a32.58,32.58,0,0,1-16.72-.47C96.26,2.54,91.12.84,88.6.71c-5.85-.3-6.48.67-10.31,1.5C73.38,3.26,70.73,4.84,66,6.5c-3.44,1.22-6,2.05-8.23,5.59-4.68,7.3-3.32,17.5-4,26-1.11,14.88-6.47,38.89-2.36,53.16,5,17.32,13.85,21.23,28.72,26.9,9.16,3.5,18.84,4.61,28.49,4.46,9.64.15,19.32-1,28.49-4.46,14.86-5.67,23.74-9.58,28.72-26.9C170,76.94,164.65,52.93,163.54,38.05Z"/><path class="c" d="M51.92,114.22c-2.3,6.4-2.45,17.68-.11,24,2.24,6,6.5,11.24,10.4,15A47.1,47.1,0,0,0,91.92,166c15.17,1.07,30.94,1,43.3-12.52,6.17-6.72,11.37-13.63,12.47-25,2.88-29.79-27.47-41-46-42.38-18.06-1.3-32.65,0-44.79,19.08C54.24,109.24,53.71,109.26,51.92,114.22Z"/><path class="d" d="M167.17,249.24c0,11.38-34.52,22.1-77.64,22.89-50,.91-75.59-8.3-75.59-19.69s32.45-21.53,75.59-21.53S167.17,237.85,167.17,249.24Z"/><path class="e" d="M156.42,232c-.37-3.35-3.29-4.47-5-7.3-1.87-3-.89-7.53-1.1-10.9-.52-8.37-.95-16.71-.69-25.05s1.54-16.63,2.55-24.93c1.11-9.07,1.21-18.4-2.73-26.88-4.75-10.2-16.7-12.15-26-5.55-4,2.85-5.2,6.42-5.74,11.29,0,0-.12,1.59-.11,1.58-.63,6.37.8,13.45,1.87,18.58,2.76,13.2,3.67,26.86,5.69,40.17,1.29,8.55.74,21.65,4.25,29.69,3.24,7.42,12.74,12.19,21.42,8.32a9.53,9.53,0,0,0,5.61-7.25A7.58,7.58,0,0,0,156.42,232Z"/><path class="e" d="M40.63,231.19c3.08-2.76,8-1.86,10.73-5.25,2.56-3.19,1.62-8.26,1.87-12.11.52-8.45,1-16.75,1-25.22l-.29-.24c0-.45,0-.9,0-1.35-.14-16.84-7.4-33.8.17-50.05,4.75-10.2,16.7-12.15,26-5.55,4,2.85,5.2,6.42,5.74,11.29L86,144.3h0c.63,6.37-.8,13.45-1.88,18.58-2.75,13.2-3.67,26.86-5.68,40.17-2.19,14.47-1.63,32.83-18.72,38.41-4.87,1.59-10.53,2.49-15.62.55C39.14,240.12,36.38,235,40.63,231.19Z"/><path class="b" d="M142.51,116.86c-2.65-4.72-8.55-10-14.26-12.51C114.54,98.24,103,95.79,87.86,97c-27.94,2.32-55.15,19.13-50.79,51.31,3.36,24.78,35.16,34.78,56.5,33.67,18.5-1,47.08-12.44,54.08-31.93,1.62-4.52,1.32-9.51.55-14.25C147.06,128.77,145.54,122.24,142.51,116.86Z"/><path class="b" d="M39.43,156.57C47.86,175.35,74.77,183,93.57,182c10.43-.54,24.07-4.43,35.24-11.21a45.74,45.74,0,0,0,.76-12.54c-.26-4.87-.9-9.91-3.47-14.05-4.28-6.88-13-9.69-21-9.84s-16,1.8-24.07,2c-12,.36-26.25-4.34-35.91,5.81C42.21,145.26,40.34,151,39.43,156.57Z"/><path class="f" d="M112.41,176.74c-.74-3.93-4.35-5.74-8.06-5.81h-.15a161.77,161.77,0,0,1-36-.14c-4.23-.53-6.06-.6-9.77,1.47a11.15,11.15,0,0,0-2,1.48c11.43,6.3,25.8,8.89,37.19,8.29a74,74,0,0,0,18.83-3.77A4,4,0,0,0,112.41,176.74Z"/><path class="b" d="M97.13,155.76c.62-5.15,2.61-9.85,7.16-12.87,10.54-7,24-5,29.36,5.78,8.49,17.18.25,35.14,0,53-.12,10,.44,19.74,1.07,29.68.27,4.17-.83,9.67,2.12,13.11,3.15,3.67,8.83,2.67,12.39,5.66,4.9,4.1,1.69,9.67-4,11.72-5.9,2.12-12.44,1.16-18.07-.54-19.74-6-19-25.88-21.52-41.55-2.29-14.42-3.3-29.22-6.44-43.5C98,170.57,96.3,162.74,97.13,155.76Z"/><path class="b" d="M70.83,152.67c-.6-5.3-2.55-10.13-7-13.22-10.38-7.18-23.68-5-28.95,6.06-8.41,17.71-.32,36.16-.14,54.5.1,10.29-.47,20.31-1.11,30.54-.27,4.29.8,9.94-2.12,13.5-3.11,3.78-8.71,2.78-12.22,5.86-4.83,4.25-1.69,10,3.93,12,5.81,2.16,12.26,1.15,17.81-.62,19.47-6.24,18.81-26.71,21.29-42.84,2.28-14.84,3.31-30.07,6.44-44.79C70,167.9,71.64,159.85,70.83,152.67Z"/><path class="g" d="M86.72,164.39a1,1,0,0,1-.63-.23L78.35,157a.76.76,0,0,1,0-1.15.92.92,0,0,1,1.24,0L87.34,163a.78.78,0,0,1,0,1.15A1,1,0,0,1,86.72,164.39Z"/><path class="g" d="M79,164.39a.93.93,0,0,1-.62-.23.76.76,0,0,1,0-1.15l7.74-7.13a.93.93,0,0,1,1.25,0,.78.78,0,0,1,0,1.15l-7.75,7.13A.93.93,0,0,1,79,164.39Z"/><path class="g" d="M82.84,165.87a.85.85,0,0,1-.88-.81V155a.89.89,0,0,1,1.77,0v10.08A.85.85,0,0,1,82.84,165.87Z"/><path class="e" d="M36.35,143c1.55.82,3.13,1.58,4.74,2.26,10.79,4.56,21.64,6.17,32.86,1.95,18.91-7.12,2.06-21.56-7.9-25.52a44.9,44.9,0,0,1-15.27-10.53,38.94,38.94,0,0,0-14.16,31.43Z"/><path class="a" d="M42.23,141.85c10.12,4.85,21.58,7,32.51,4.57,18.44-4.12,2.11-18.12-7.53-21.85C52.41,118.84,45,106,32,97.61c-7-4.51-15.43-7.16-23.68-5.47l5.54,3.64A76.84,76.84,0,0,0,0,100.41a43.63,43.63,0,0,1,9.28,3.89l-4,1c6.18,8.61,12.39,17.26,19.9,24.58A65.07,65.07,0,0,0,42.23,141.85Z"/></svg>