<svg xmlns="http://www.w3.org/2000/svg" width="261.29" height="298.7" viewBox="0 0 261.29 298.7"><defs><style>.a,.i{fill:#0b0808;}.a{opacity:0.2;}.b{fill:#ccc7c6;}.c{fill:#fefefe;}.d{fill:#25282b;}.e{fill:#45484c;}.f{fill:#f15a29;}.g{fill:#959595;}.h{fill:#a00a2b;}</style></defs><path class="a" d="M258.69,285.06c0,7.53-48.38,13.64-108.08,13.64S42.53,292.59,42.53,285.06s48.39-13.65,108.08-13.65S258.69,277.52,258.69,285.06Z"/><path class="b" d="M216.08,171.24c-15.81-14.38-23.75-6.28-35.48,12.12-9,14.13-4.33,35.22,10.42,45.95,8.44,6.14,19.56,4.7,25.87,11,3.92,3.94,14.07,20.85,16,24.33,1.75,3.21-.86,7.32.31,10.71a14.37,14.37,0,0,0,3.11,5.39,7.83,7.83,0,0,0,5.62,2.51,9,9,0,0,0,5.54-2.53c9.24-8.16,5.7-23.19,2.65-33.53-3.27-11.05-8.53-21.74-11-33C236.31,201.83,226.79,181,216.08,171.24Z"/><path class="b" d="M107.12,197.07c.69-4.73.18-9.31-2.74-12.89-6.77-8.31-17.94-9.12-24.62-.53C69.11,197.34,71.57,215,67.69,230.94c-2.18,9-4.84,17.54-7.6,26.3-1,3.12-1.75,6.74-3.09,9.68a18.38,18.38,0,0,1-3.84,5.18c-2.81,2.95-11.06,5.18-7,10.2,6.07,7.59,23.28,2.62,27.36-3.26,6.78-9.79,24.42-58,27.34-64.12C103.1,210.12,106.2,203.46,107.12,197.07Z"/><path class="c" d="M231.28,156.46a10.14,10.14,0,0,1-1.61,1.25c-6.2,3.87-20,1.74-25.37,6.2-8.72,7.29,8.62,23.51,17.67,23.3,8.31-.2,24.86-12.74,30.87-18.88,9.43-9.62,11.07-23.21,4.4-35.5-7-12.84-24.12-17-37.72-13.83-7.6,1.74-12.65,5.13-15,12.7-2.27,7.21-.36,14.9,6.28,19.18,3.39,2.18,9.93,2.89,12.59-.33-3.21-3.93-4.81-6.14-1.34-10.23,2.94-3.48,7-3.95,11-1.4C238.83,142.65,235.93,152.1,231.28,156.46Z"/><path class="c" d="M142.14,155.69c-16.32-3.2-18.34-17.05-31.08-17.57s-19.39,1.1-28.54,9.36c-23.71,21.44-24.07,53.9,5.42,71,20,11.6,38.15,6.93,59,2.37,9-2,18.29-6.83,27.41-7.73,12.8-1.25,29.19,4.05,41.54-1.67,9.61-4.46,12.58-11.78,15.06-22.14,1.7-7.13.83-15.36-4.25-20.66-2.92-3.06-7.3-6.82-11.36-8C196.72,155,164.7,160.12,142.14,155.69Z"/><path class="d" d="M125.45,132.47a91.74,91.74,0,0,0-1.14-9.22c-2.33-11.91-11.1-19.56-23.36-17.89s-23.83,9.25-29.13,20.8c-2.81,6.13-3.78,13-4.71,19.73-.87,6.31-2.09,14.92-.44,21.21s12.5,5.61,17.92,5.26a119.34,119.34,0,0,0,39.61-9.51c9.48-4.09,4.91-12.28,2.85-19.93A63.1,63.1,0,0,1,125.45,132.47Z"/><path class="c" d="M233.9,201.69c2.55-21.22-8.65-23-30.45-21.88-16.74.86-31.21,16.9-31.4,35.13-.11,10.44,7.51,18.66,6,27.48-.52,3-9.9,25.52-10.67,27.11-1.6,3.28-6.35,3.55-8.43,6.47a14.26,14.26,0,0,0-2.59,5.66,7.8,7.8,0,0,0,1.21,6,9,9,0,0,0,5.28,3.05c12,2.8,20.18-6.31,26.83-14.8,7.11-9.06,14.79-22,22.49-30.59C220.7,235.91,232.17,216.07,233.9,201.69Z"/><path class="c" d="M127.08,184.7c-8.26-13.41-30.41-14.07-32.57,4.24-1.89,16.07,6.18,31.25,12.37,45.51,3.17,7.32,15.89,35.86,14.67,43.24-.42,2.54-6.46,8.21-3.76,10.7,7.4,6.86,22.16.94,24.39-4.84,4.11-10.65-1.65-34.37-3.54-45.1C135.29,219.36,137.77,202.05,127.08,184.7Z"/><path class="e" d="M224.55,164.78a27.31,27.31,0,0,0-9.74-4.34c-23.71-6.08-48.73-.05-72.67-4.75a28.06,28.06,0,0,1-12.93-6.23c-6.76,8.66-20.4,21.69-42,23.58a12.54,12.54,0,0,1,.7,3.92c0,2-4.12,15.16-6.37,15.17,4.84,0,9.61-3.85,14.13-2.13,2.35.9,3.91,3.09,5.24,5.21,8.54,13.64,13.34,29.23,18,44.61q2-6,3.91-12l7.7,13.68c-.45-7.89-.86-16,1.9-23.44,4-10.82,13.45-15.85,23.76-19.25a124.92,124.92,0,0,1,23.26-5.59c6.64-.84,15.07-1.65,20.19,3.61,2.54,2.61,4.17,5.95,6.14,9s4.47,6,7.92,7.24c4.86,1.67,10.41-.78,13.67-4.75s4.64-9.13,5.48-14.19a49.23,49.23,0,0,0,.67-8.31C233.5,177.85,231.21,169.79,224.55,164.78Z"/><path class="f" d="M127.22,142.92c-15.29,20.83-35,23.41-60.81,19.42-2.1,2.87-1.9,10,0,11.85,2.39,1.1,44.84,10.61,68.38-21a11.91,11.91,0,0,0-2.76-6.64A15.38,15.38,0,0,0,127.22,142.92Z"/><path class="e" d="M243.61,163c2.5-2.95,4.59-6.41,5.1-10.25a17.36,17.36,0,0,0-.23-5.52,22,22,0,0,0-11.73-15.58,19.48,19.48,0,0,0-19.24,1.41c-4.16,2.93-7.93,9.57-4,14.13a10.26,10.26,0,0,0,4.34,2.82l.32.1a14.63,14.63,0,0,0,4.83.73c.11-.11.22-.21.32-.33-3.21-3.93-4.81-6.14-1.34-10.23,2.94-3.48,7-3.95,11-1.4,5.83,3.73,2.93,13.18-1.72,17.54a10.14,10.14,0,0,1-1.61,1.25c-6.2,3.87-20,1.74-25.37,6.2a6.41,6.41,0,0,0-2.25,6.38c.15.14.28.3.43.44a19.39,19.39,0,0,0,10.15,4.38C224.07,176.89,236.11,171.86,243.61,163Z"/><path class="e" d="M137.31,117.05a38.15,38.15,0,0,0-1.6-9.85c-1.62-5.42-4.27-10.35-7.14-15.91,2.83,1.38,7.93,2.26,11.2,4.2-7.46-10.2-8.23-25.31-17.74-34.25-5.09-4.78-13-6.82-19.32-9.44a130.08,130.08,0,0,0-40.52-9.66c-3.58-.3-7.56-.85-11.15-.42C46.19,42.3,39,43,34.49,44.79c-12.1,4.88-18.3,18.68-28.95,25.47,3.75-.62,8.82.42,12,.16C12.8,74.55,8.54,78.19,5.06,82.65A38.44,38.44,0,0,0,0,91.24,56.22,56.22,0,0,0,8.3,89c-5.51,7-10.61,23.75-4.09,31.74A18.67,18.67,0,0,1,9,114.6c.22,3-.34,5.59.6,8.74.77,2.61,3.46,11,3.87,12.83,1.05,4.64,4.69,9.52,7.49,13.33,8.52,11.58,19.85,19.56,35,21.91,15,3.32,28.43,0,40.58-7.7,6.5-4.11,11.38-10.31,16.42-16,2.18-2.45,3.25-5.77,5.56-8,1.4,1.67.75,4.38.36,6.46a47,47,0,0,0,7.42-10c2-3.73,4.8-7.2,5.62-11.43.51-2.61.66-10.8-1.6-12.73A57.44,57.44,0,0,0,137.31,117.05Z"/><path class="e" d="M34.61,59.54c9.41,1.79,19-2.53,23-11.15,3.21-6.87-2.36-19.26-5.66-26.37-2.86-6.15-6.34-9.26-8-16C42-1.71,39.39-1.82,33.47,4.7,24.85,14.2,14.34,55.68,34.61,59.54Z"/><path class="g" d="M48.75,34.54c1.87,3.54,6.11,11.19,3.55,15.12-2.09,3.2-6.85,2.54-10.12,2.94-2.58.31-4,2.2-6.41,2.67-6.12,1.18-7.41-4-8-8.66-1.35-11.32,1.73-24.26,6.47-34.51.22,0,.44,0,.67.07,5.83,1.13,8.93,14,11.65,18.55C47.18,31.71,48,33,48.75,34.54Z"/><path class="e" d="M116.57,74.94c-9.42-1.75-16.74-9.23-17.38-18.74-.5-7.56,9.19-17.09,14.85-22.51,4.9-4.7,9.27-6.33,13.31-12,4.59-6.47,7-5.64,10.18,2.59C142.12,36.23,136.85,78.7,116.57,74.94Z"/><path class="g" d="M112.47,46.51c-3.62,3.13-8,7.15-8.82,12.1-1,5.54,5.88,6,9.53,8.16,1.72,1,2.88,2.91,4.54,4,5.16,3.39,7.74-1.38,9.89-5.4,5.37-10.06,7.19-23.23,6.5-34.51-.22-.06-.42-.13-.65-.18-5.84-1.06-13.41,9.81-17.59,13.06C115,44.45,113.76,45.4,112.47,46.51Z"/><path class="c" d="M116.36,97c1.81-6.94.66-25.95-12.63-28.25C87.5,65.94,78.86,80.57,75.19,87.51c-.19-2.38-2.23-6-2-9.34l0-.16,0,.08V78l0,.16c-1,3.18-4.22,5.82-5.26,8-.41-5.79-3.8-23.52-21-26.27C33.59,57.74,27.42,73.51,26.12,80.56c-1.24,6.77.78,14.32,10.16,23.63-2.47-.14-6.05-.15-9.27,3-13.22,12.91-6.53,38.57,1.42,50.78C37,166.3,45,171.12,55.25,173.05,64.31,174.3,75,175.4,86,169.12c5.84-5.64,27.72-29.22,19.62-47.16-1.7-3.76-4.8-7.21-7.15-8C109.92,110.31,114.66,103.51,116.36,97Z"/><path class="h" d="M45.63,155.33a1.86,1.86,0,0,0,.1.2c5.26,10.1,19.19,8,25.7-2.77a36.6,36.6,0,0,0,4.75-16.64c.36-6.77-2.55-8.69-7.64-5.72-2.33,1.35-4.58,3.19-6.89,3.55a7,7,0,0,1-5.67-2c-2.1-1.86-4.25-7.17-7.17-6.72-6.43,1-6.14,15.32-5.67,20.5A26.83,26.83,0,0,0,45.63,155.33Z"/><path class="i" d="M55.26,104.71c-17.95,6.3,7.82,22.81,17.5,14.55C83.78,109.85,62.47,102.19,55.26,104.71Z"/><path class="i" d="M59.29,135a1.24,1.24,0,0,1-1.24-1.21c-.16-5.9,1.57-15.9,1.64-16.32a1.22,1.22,0,0,1,1.44-1,1.24,1.24,0,0,1,1,1.43c0,.1-1.77,10.18-1.61,15.83A1.24,1.24,0,0,1,59.32,135Z"/><path class="i" d="M60.33,135.43a9,9,0,0,1-6.75-3.06A15.49,15.49,0,0,1,52,130c-.22-.37-.44-.74-.68-1.1A4.84,4.84,0,0,0,49,126.79a1.69,1.69,0,0,0-2,.54,1.24,1.24,0,1,1-2.23-1.09,4.08,4.08,0,0,1,5-1.8,7.21,7.21,0,0,1,3.57,3.1c.25.39.49.79.73,1.19a15.46,15.46,0,0,0,1.36,2,6.52,6.52,0,0,0,6.21,2.05,14,14,0,0,0,4.48-2.27,28.2,28.2,0,0,1,3-1.81,7.27,7.27,0,0,1,4-.86,4.35,4.35,0,0,1,3.72,2.73,1.24,1.24,0,1,1-2.34.83,1.93,1.93,0,0,0-1.64-1.09,4.94,4.94,0,0,0-2.67.63,23.43,23.43,0,0,0-2.74,1.65,16.48,16.48,0,0,1-5.31,2.62A9.24,9.24,0,0,1,60.33,135.43Z"/><path class="c" d="M63.58,108.82c.28,1.49-2.1,3.17-5.32,3.77s-6-.11-6.32-1.6,2.1-3.17,5.32-3.77S63.31,107.34,63.58,108.82Z"/><path class="i" d="M49,90a12.69,12.69,0,0,0-10,1.28c2.27-6.72,7.23-10.94,11.78-9.65S58,89.2,57.17,96.29A14.22,14.22,0,0,0,49,90Z"/><ellipse class="i" cx="91.55" cy="97.13" rx="12.1" ry="6.9" transform="translate(-22.91 165.79) rotate(-77.65)"/><path class="c" d="M94.64,89.28c.77,1.2-.35,3.32-2.52,4.74s-4.56,1.62-5.34.43.35-3.32,2.52-4.74S93.86,88.09,94.64,89.28Z"/></svg>