<svg xmlns="http://www.w3.org/2000/svg" width="246.9" height="193.19" viewBox="0 0 246.9 193.19"><defs><style>.a{fill:#231f20;opacity:0.3;}.b{fill:#a04d15;}.c{fill:#e2c8b0;}.d{fill:#cc6c2b;}.e{fill:#ffecd9;}.f{fill:#3e9ddd;}.g{fill:#0b0808;}.h{fill:#fff;}</style></defs><path class="a" d="M246.9,181c0,6.74-37.22,12.2-83.13,12.2S80.63,187.73,80.63,181s37.22-12.2,83.14-12.2S246.9,174.25,246.9,181Z"/><path class="b" d="M162.46,103.53c-8.06,1-19.18,6-20.16,14.78a55.58,55.58,0,0,0,2.14,21.25c1.52,5.26,2.85,11,5.08,15.93,2.59,5.74,8.47,8.77,13.63,10.93,9.45,3.94,24.69,9.69,32.68-.92,4.53-6,9.87-21.68,3.75-37.53S171.71,102.44,162.46,103.53Z"/><path class="c" d="M172.37,164.38c2.24,5.77-.58,10.74-9.22,11.45s-17.72-.75-20-6.53,4.23-12.72,12.88-13.43S170.12,158.59,172.37,164.38Z"/><path class="d" d="M230.45,113.82c-10.71-13.26-19.7-18-30-24.07-16.79-9.92-26.88-40.92-50.93-27.09-10.39,6-18.87,14.8-30.28,18.35-9.76,3-24.46,3.43-27.61,17.19a20.77,20.77,0,0,0,.07,8.63c1.64,8.17,7.09,16.8,12.56,22.56,18.45,19.42,44.7,18.42,65.46,33,10.35,7.29,23.64,15.81,37.21,15.12,14.77-.76,27-2.63,31.53-11.56C246.84,149.53,240.6,126.38,230.45,113.82Z"/><path class="b" d="M104.26,129.39A53.42,53.42,0,0,1,92.92,111.2a13.77,13.77,0,0,1,9,2.33c4.11,2.67,7.38,6.63,11.76,8.77,7.21,3.54,15.94,1.52,23.43,4.37,3.59,1.37,6.7,3.79,9.81,6.1q6.8,5.07,13.93,9.64a230.79,230.79,0,0,0,25.88,14.43c5.86,2.77,14,4.28,14.43,12.73a9.46,9.46,0,0,1-3.14,7.19c-10.39-2.23-25.15-3.71-34-7.85C153.12,163.84,122.71,148.81,104.26,129.39Z"/><path class="b" d="M193.19,115.33c-8.78.92-20.9,5.82-22,14.23A47.6,47.6,0,0,0,173.56,150c1.65,5.06,3.11,10.58,5.54,15.33,2.82,5.53,9.23,8.45,14.85,10.53,10.3,3.79,26.91,9.33,35.61-.88,4.95-5.81,10.76-20.87,4.09-36.14S203.27,114.28,193.19,115.33Z"/><polygon class="d" points="132.11 170.7 152.36 175.01 151.01 99.95 129.3 103.57 132.11 170.7"/><path class="e" d="M153.87,175.58c1,6.33-1.45,11.8-14.47,11.52-10.85-.23-16.87-3.15-17.85-9.48s5.54-12.94,14.3-13.44S152.89,169.25,153.87,175.58Z"/><polygon class="d" points="92.97 168.79 110.89 173.03 113.86 99.22 94.18 102.78 92.97 168.79"/><path class="e" d="M112.22,173.59c.53,6.22-2,11.6-13.63,11.33-9.72-.23-15-3.1-15.49-9.33s5.69-12.72,13.58-13.21S111.69,167.36,112.22,173.59Z"/><path class="e" d="M163.32,44.91c-10.09-6.7-21.71-9.63-33.4-11.55h-.15c-5.3-.55-10.66-.92-16-1.31-4.19-.31-7.78,2.36-11.13,4.81A50.68,50.68,0,0,0,86,58.25C83.25,64.71,81,72,81.23,79.1c.2,7.56,0,15.67,2.8,22.76,1.29,3.24,2.78,6,3.89,9.42.87,2.64,1.92,6.45,4.76,7.47.07-2,1.08-3.48,1.39-5.3,3,6.07,8.26,14.07,14.39,16.77.36-1.81,1.24-3.2,1.25-5.15,1.62,5,14.05,6.64,16.85,2.24-.48,1.9,0,3.47-.08,5.31,6.61-1,13.66-7.37,18.08-12.45-.15,1.84.46,3.58,0,5.49,5.69-.45,8.75-13.64,14.1-14.82-.33,1.59.36,2.69.17,4.22,5.2.22,10.83-11.58,13.94-16.12.13.35.5,1.15.72,1.71,3.29-4.75,7.34-10.81,8.6-16.75C185.8,66.53,175.45,53,163.32,44.91Z"/><path class="f" d="M159.28,36.05c-1.25-1.15-3.18-2.52-4.92-2.57-2.55-.06-2.22,3.13-2.34,4.9-.22,3,1.56,4.24,2.26,7,1.15,4.65-.22,10.65-1.45,15.17a50.89,50.89,0,0,1-6.77,14.86c-8.35,12.52-27.64,28.63-42.84,23.31-2.78-1-7-5.22-10-4.29-5.46,1.68-2.51,7.52-.48,10.09,4.42,5.6,11.37,7.22,18,7.38,7.74.19,20.86-1.15,29.24-5.19,17.54-8.43,25.48-25.82,27.43-45.58C167.74,57.31,167.63,41.48,159.28,36.05Z"/><path class="d" d="M197.93,115c-8.67.94-20.63,6-21.69,14.64a51.07,51.07,0,0,0,2.3,21c1.64,5.21,3.08,10.9,5.47,15.79,2.78,5.68,9.11,8.69,14.66,10.83,10.17,3.9,26.57,9.6,35.15-.91,4.88-6,10.62-21.48,4-37.19S207.88,114,197.93,115Z"/><path class="e" d="M209.62,175.48c1.84,6.66-2,12.34-11.91,13.07s-20.09-1-21.94-7.68,6.39-14.57,16.32-15.31S207.77,168.82,209.62,175.48Z"/><path class="d" d="M47,71.86C40.24,48,44.55,19.74,66.05,6.48,73.34,2,86-1,94.43.33c2.79.45,5.52,1.32,8.34,1.58a62.6,62.6,0,0,0,9.07-.3c11.78-.65,24,2.87,32.81,10.89,14.51,13.24,14,34.67,9.34,52.19-3.72,14-5.76,25.73-9.28,39.84-4.23,17-29.63,37.05-55.51,36.1-15-.56-39.73-5.18-36.91-41.25C50.75,92.15,48.86,78.35,47,71.86Z"/><path class="e" d="M76.11,100.76C89.18,94.57,91.54,8.77,89.29,0a28.16,28.16,0,0,1,5.14.32c2.79.45,5.52,1.32,8.34,1.58a62.6,62.6,0,0,0,9.07-.3c1-.06,2.09-.07,3.14-.07-10.11,12.4-23.71,89.11-14.21,100.22,9.86,9.43,24,12.15,30.93,22.28-10.74,9.76-26.52,17.18-42.5,16.59-12-.45-30.32-3.53-35.63-23.35C59,110.47,69.43,104.69,76.11,100.76Z"/><path class="b" d="M70.18,10.48c15,2.74,11.75,37.71-4.63,46.27a72.85,72.85,0,0,1-13.84,5.38,47.64,47.64,0,0,1-6.58,1.33C42.28,46.53,45,28.56,55.34,15.88,59.76,13.39,65.13,9.55,70.18,10.48Z"/><path class="g" d="M74.49,84.86a1.69,1.69,0,0,1,1.13.19c3.82,2.23-5.44,7.55-6.72,8-4.66,1.78-11.07.19-12.7-5.47-.44-1.56-.59-4.5,1.78-3.17,1.39.78,2.23,2.59,3.49,3.5,3.34,2.42,7.44.89,10.58-1.71a7.42,7.42,0,0,1,1.71-1.17A2.35,2.35,0,0,1,74.49,84.86Z"/><path class="g" d="M125.76,89.55a2.39,2.39,0,0,1,1.29.25c4.45,2.28-5.78,6.69-7.22,7.08-5.19,1.39-12.57-.46-14.71-5.8-.59-1.47-.9-4.21,1.85-2.84,1.62.8,2.67,2.53,4.15,3.44,3.93,2.45,8.5,1.25,11.93-1a7.69,7.69,0,0,1,1.88-1A3.39,3.39,0,0,1,125.76,89.55Z"/><path d="M78.46,118.18c6.18-2.42,22.6-1.21,23.21,7.45.47,6.51-10,10.63-16.1,10.49C73.16,135.85,64.21,123.75,78.46,118.18Z"/><path class="h" d="M84.66,121.69c.68,1.86-1.46,4.37-4.79,5.59s-6.59.7-7.28-1.16,1.46-4.37,4.79-5.6S84,119.82,84.66,121.69Z"/><path d="M84.78,129.92l2.29.16a41.8,41.8,0,0,0,1.79,10.52c-.78,0-1.58-.1-2.37-.18A43.68,43.68,0,0,1,84.78,129.92Z"/><path class="b" d="M129.54,56.64c-16.48-8.43-19.84-42.66-4.8-45.29,5.43-1,11.27,3.46,15.88,5.85,4.23,2.21,8.35,4.56,12.44,7,5.4,12,4.42,26.72,1.19,39.49A51.09,51.09,0,0,1,143.46,62,75.16,75.16,0,0,1,129.54,56.64Z"/><path class="d" d="M122.88,5.41C128.71,4.47,135,9,140,11.52c9.43,4.73,18.37,10.09,27.49,15.45,9.8,5.76,21.85,12.86,32.68,14.31-3.78,7.66-15.76,12.52-23,14.94a59.32,59.32,0,0,1-33.81,1.14,84.29,84.29,0,0,1-15-5.55C110.57,43.06,106.73,8,122.88,5.41Z"/><path class="d" d="M73.27,5.35c-5.55-1-11.52,3.53-16.23,6C48.1,16,39.63,21.27,31,26.56c-9.28,5.68-20.7,12.67-31,14.05,3.64,7.66,15.06,12.58,22,15A53.93,53.93,0,0,0,54.13,57a77.67,77.67,0,0,0,14.22-5.43C85.19,43,88.64,8,73.27,5.35Z"/></svg>