<svg xmlns="http://www.w3.org/2000/svg" width="223.1" height="284.33" viewBox="0 0 223.1 284.33"><defs><style>.a{fill:#894919;}.b{fill:#af6e35;}.c{fill:#231f20;opacity:0.3;}.d{fill:#72370f;}.e{fill:#f9ed32;}.f{fill:#fff;}.g{fill:#a00a2b;}</style></defs><path class="a" d="M204.2,238.65c-1.95,3.14-4.07,6.23-5.87,9.55-2.19,4.06-9.88,17.55-16.19,15.11-8.15-3.15,9.39-24.49,11.3-28.33a110.39,110.39,0,0,0,8.72-24.5c2.14-8.89,1.83-19.34,6.28-27.41,3.6-6.51,8.23-14.43,13.61-19.5,1-.93,1.07,6.59,1,6.86-.24,3.23-1.71,6.92-2.73,10-2.23,6.73-5.92,13.25-6.74,20.38-.92,8.05-2.43,15.9-3.66,23.94C209.17,230,206.84,234.39,204.2,238.65Z"/><path class="a" d="M32,30.64c8.07,3.31,15.41,6.09,25.47,3.54,8.3-2.1,20.37-8.26,18.8-17.2C74.59,7.43,56.83.05,46.26,0,36,0,29.35,6.5,22,12.13,20.59,13.26.57,24.57.5,24.5c6.86,6.51,18.41.95,26.37,4.06C28.63,29.25,30.33,30,32,30.64Z"/><path class="b" d="M58.79,211.79C44.5,221.78,23,204.67,18,186.53c-.3-1.07-1.93-5.29.72-7.86,1.49-1.45,4.61-.51,6.57-.17,5.61.95,18.9,15.46,24.1,12.35,3.38-2,2.88-26.56,10-39.92,2.26-5.72,5.6-5,11.39,3.61,7.21,10.7,4.48,29.12-.19,40.38-2.73,6.58-6.37,12.77-11.3,16.49Z"/><path class="b" d="M.07,186C-.88,196.22,7.51,198.17,16,198.11c10.9-.08,13.71-3.88,14.63-10.21S25.42,176,17,175.47.67,179.6.07,186Z"/><path class="c" d="M49.53,273.09c0,6.21,33.9,11.24,75.73,11.24s75.73-5,75.73-11.24-34-11-75.82-11S49.53,266.87,49.53,273.09Z"/><path class="d" d="M87.91,202.09c-7.41,1.41-17.39,6.76-17.79,14.73a49.64,49.64,0,0,0,3.23,19.09c1.12,3,5,13.33,7.14,17.16-3.09-1.11-8.8,2.57-9.72,6.68-1.49,6.58,6,8.35,8.62,8.64a49.16,49.16,0,0,0,15-.67c3.81-.86,6.74-2.77,6.94-6.64,6.32,3.12,17.19.63,21-5.13s7.86-20.28,1.26-34.23S96.4,200.49,87.91,202.09Z"/><path class="b" d="M157.13,177.68c17.94,23.81,36.43,43.64,32.91,64.61-4.54,27-45.79,30.68-65.52,21.94-11.83-5.23-17.3-14.11-24.63-24.81-3.53-5.15-8.17-12.64-12-17.53C79.08,210.8,68.63,200,63.48,186.26c-4.61-12.32-8.6-31.53,0-42.53,5.07-6.5,23.84-10.29,31-14.65s26.25-2.94,34.74-4.34C135.32,123.73,140.58,155.73,157.13,177.68Z"/><path class="a" d="M153,268.22c.26-1,.51-2,.73-3,.62-2.82,1.09-5.78.23-8.53a17,17,0,0,0-4.06-6.17,83.92,83.92,0,0,0-9.4-8.77c-3.5-2.79-7.24-5.32-10.54-8.34-10.54-9.64-15.8-23.4-21.67-36.3-1.41-3.09-2.92-6.22-5.38-8.61a4.65,4.65,0,0,0-2.11-1.32,5.9,5.9,0,0,0-3.37.62,56.26,56.26,0,0,1-20.14,3.76c-3.85,0-8-.86-11.94-1C70.86,202.32,80,212,87.85,221.89c3.87,4.89,8.51,12.38,12,17.53,7.33,10.7,12.8,19.58,24.63,24.81C132,267.53,142.51,269.06,153,268.22Z"/><path class="b" d="M130,119.09c-6.16-16.37-16.73-51.24-19.21-59.94-3.16-11.08,3.83-23.42-7.21-28.19-13.09-5.66-26.27-3.54-32.12,10.2-2.28,5.36-3.09,11.2-3.53,17-1.9,25.11,2.69,50.67-2.29,75.38-.49,2.43-1.07,4.95-.5,7.37,2.29,9.72,21.59,6.18,28.29,4.66,8.18-1.86,16.34-4.53,23.12-9.4C125.41,129.77,129.5,127.56,130,119.09Z"/><path class="a" d="M80,74.74A84.88,84.88,0,0,0,67.5,81.26c.37,16.3,1.37,32.62-1.26,48.62C77.6,126,88,119.36,95.21,110c6.61-8.65,13-22.36,13.76-33.28S85.54,72.43,80,74.74Z"/><path class="e" d="M128.85,116.11C110.11,136.8,92.31,137,66.37,129.22c-2.58,2.85-5.18,13.06-3.53,15.37,2.31,1.51,44,19.76,72.75-11.62C137,126.09,133.81,120.81,128.85,116.11Z"/><path class="b" d="M124.32,179.86c-4.89-17.32-25.71-30.2-31.76-14-5.31,14.22,0,32.28,2.74,49.26,1.41,8.7,7.52,44.21,4.75,50.53-1,2.18-7.89,3.29-7.21,7.57,1.68,10.52,24,7.09,25.91,2,3.27-8.91,3.68-24.23,4.24-35.48C124,219.77,130.64,202.24,124.32,179.86Z"/><path class="a" d="M132.57,266.84a9,9,0,0,1,.17-1.94c.94-4.72,6.71-8.95,9.84-7.68-2.15-4.4-6.09-16.24-7.21-19.72-2.23-6.88-4.58-14.62-4.25-22,.4-9.17,10.41-16.85,17.9-18.46,8.58-1.85,27.21,7,33.87,23,3.39,8.15,7.35,17.59,6.62,24.67-3.1,11.74-13.57,18.62-25.76,21.72l-.07,0s0,0,0,.05A68.76,68.76,0,0,1,132.57,266.84Z"/><path class="b" d="M152.85,201.71c-7.48,1.62-17.58,7.77-18,16.94a63.5,63.5,0,0,0,3.25,21.93c1.13,3.48,5.06,15.31,7.21,19.72-3.13-1.27-8.9,3-9.84,7.68-1.5,7.56,6.06,9.59,8.71,9.92a43.85,43.85,0,0,0,15.21-.77c3.86-1,6.82-3.19,7-7.64,6.39,3.59,17.38.72,21.27-5.9s8-23.31,1.3-39.33S161.44,199.86,152.85,201.71Z"/><path class="b" d="M111.59,26.93a26.92,26.92,0,0,0-3.53-3.47c-8.45-6.88-25.8-7.34-36.26-8.14-33.75-2.59-33.62,36.48-40,58.33-.89,3-9.43,11.17-12.37,15.86-2.09,3.33-.19,11.88.89,16.57,3.72,16.26,12.76,25.34,28.77,24.14,11.45-.86,19.74-12.87,26.16-19.43C84.78,101.07,94.51,91.4,104.39,82c3.34-3.17,8.91-.33,12.23-3.28,3.25-11.77,5-18.15,5.39-23.65.55-7-1.25-10.62-4-17.17A41.13,41.13,0,0,0,111.59,26.93Z"/><path d="M47.88,87.49a6.17,6.17,0,0,1,2.06.77c5,3.42-4.74,11.63-8,12.64-5.57,1.74-13.61-2.71-15.76-7.72-2.74-6.39,4.2-6.83,9.32-6.39C38.1,87,44.28,86.72,47.88,87.49Z"/><path class="f" d="M32.93,93.27c-2.27.82-4.57.46-5.13-.8s.82-3,3.09-3.8,4.58-.47,5.14.8S35.21,92.44,32.93,93.27Z"/><path d="M41.51,113a1.47,1.47,0,0,1-.64-.24c-6.45-4.28-3.41-13.53-3.28-13.92a1.31,1.31,0,0,1,1.58-.65,1.09,1.09,0,0,1,.92,1.3c0,.08-2.74,8.34,2.36,11.73a.91.91,0,0,1,.23,1.45A1.42,1.42,0,0,1,41.51,113Z"/><path class="g" d="M26.72,104.52c-.93.68,2.22,17.73,15.74,18.87C61.55,125,56.77,103,56.69,104.93c0,.08-6.33,4.84-19,3.69C30.53,108,27,104.31,26.72,104.52Z"/><path d="M43.3,110.1a24.87,24.87,0,0,0,14-4.55,1.09,1.09,0,0,0,.2-1.52,1.07,1.07,0,0,0-1.5-.21c-.08.07-8.12,6.09-18,3.41a1.25,1.25,0,0,0-.43,0c-.06,0-6,.78-10.17-3.45a1.07,1.07,0,0,0-1.52,0,1.1,1.1,0,0,0,0,1.54,14.92,14.92,0,0,0,11.76,4.09A22,22,0,0,0,43.3,110.1Z"/><path d="M54.23,55.47c-1.17,6.58-5,11.39-8.52,10.74s-5.46-6.52-4.3-13.1,5-11.39,8.52-10.74S55.39,48.89,54.23,55.47Z"/><path d="M91.19,58.53c-1.14,7-5.29,12.09-9.27,11.41s-6.26-6.89-5.12-13.87S82.1,44,86.07,44.66,92.34,51.54,91.19,58.53Z"/><path class="f" d="M85.29,54.34C84,56.49,81.79,57.66,80.43,57s-1.37-3,0-5.17,3.5-3.32,4.86-2.61S86.62,52.19,85.29,54.34Z"/><path class="f" d="M48.89,51.35C47.56,53.5,45.39,54.67,44,54s-1.37-3,0-5.17,3.51-3.32,4.86-2.61S50.22,49.2,48.89,51.35Z"/><path class="a" d="M111.59,26.93a26.92,26.92,0,0,0-3.53-3.47,22.25,22.25,0,0,0-5.29-3.1c-8,8.36,11.3,28,18.53,32l.81.43c0-5.53-1.67-9.05-4.07-14.83A41.13,41.13,0,0,0,111.59,26.93Z"/><path class="b" d="M137,44c-8.69,1-16.53,1.63-25.46-3.58-7.36-4.29-17.19-13.52-13.13-21.67C102.79,10,122,7.81,132.11,10.66c9.85,2.75,14.38,10.87,19.78,18.28C153,30.42,168.94,46.77,169,46.72c-8.44,4.36-17.94-4.13-26.47-3.33C140.67,43.57,138.83,43.78,137,44Z"/></svg>