<svg xmlns="http://www.w3.org/2000/svg" width="261.5" height="299.09" viewBox="0 0 261.5 299.09"><defs><style>.a{opacity:0.3;}.b{fill:#b57a2c;}.c{fill:#4f5459;}.d{fill:#e8a646;}.e{fill:#b7833e;}.f{fill:#fff;}.g{fill:#a00a2b;}</style></defs><path class="a" d="M253.58,284.52c0,8.05-46,14.57-102.77,14.57S48,292.57,48,284.52,94.05,270,150.81,270,253.58,276.47,253.58,284.52Z"/><path class="b" d="M96,167.26c-6-15.55-27.73-20-32.77-1.06-4.42,16.63,2.64,33.6,6.48,49.69,2,8.26,10.12,41.79,6.08,48.49-.92,1.52-7,8.68-5.42,12.23,1.7,3.86,7.61,4.52,12.45,4,10.26-1.11,12.27-4.29,13.32-7.85,3.66-12.47,4.76-35.93,4.6-47.57C100.42,204.49,103.74,187.37,96,167.26Z"/><path class="c" d="M63.53,165.1c-.12.36-.24.72-.34,1.1-4.42,16.63,2.64,33.6,6.48,49.69.46,1.94,1.26,5.29,2.17,9.34a33.68,33.68,0,0,0,4.08-10c4.74-22.92.58-26.68-5.39-41.11A22.1,22.1,0,0,0,63.53,165.1Z"/><path class="b" d="M206.71,160.05c-9.94-20.56-21-15.69-40-2.12-14.56,10.41-18.33,33.18-8,49.69,5.92,9.45,18.12,12.83,21.85,21.62,1.29,3,6.78,32.75,6.86,34.63.12,2.8-4.42,4.12-5.58,8.54-.57,2.15.1,6,3.81,7.15a23,23,0,0,0,13-.66c8.84-3.32,10.92-19,12-30.46,1.16-12.26.46-24.56,1.63-36.61C213.66,198.31,213.44,174,206.71,160.05Z"/><path class="c" d="M77.55,188.4c9.08,4,19.14,5.17,29,6,13.25,1.15,26.69,1.86,39.78-.49C157,192,167.26,188.13,178,186.42a121.8,121.8,0,0,1,24.15-1,270.94,270.94,0,0,1,34.45,3.61,31.27,31.27,0,0,0,2.83-6.63c2.28-7.49-1.1-19-6.16-25-2.93-3.45-7.35-7.74-11.59-9.32-19.51-7.24-54-3.8-77.76-10-17.19-4.48-18.45-19.37-32-20.75s-20.75-.08-31,8.14c-17.17,13.72-24.3,32.94-19.12,50.28A38,38,0,0,0,77.55,188.4Z"/><path class="c" d="M261.5,136.32c-.9.56-3.13,15.68-15.63,23.19-7.63,4.58-17.84,6.7-24.12-1.4-7.4-9.54-7.42-9.71.31-11,15.31-2.48,27.4-14.17,37.16-16.61-.7,2.28-2.35,5.15-2.77,7.57C257.17,137.77,260.65,136.85,261.5,136.32Z"/><path class="d" d="M202.1,185.44a121.8,121.8,0,0,0-24.15,1c-10.69,1.71-20.92,5.61-31.58,7.52-13.09,2.35-26.53,1.64-39.78.49l-1.33-.12c-.16-6-2.18-11.71-7.86-14.74a26.44,26.44,0,0,0-23.09-.71,15,15,0,0,0-12.49-5.33l-.66.09c.17.72.35,1.43.56,2.15,2.87,9.59,9.49,18.6,20.29,25.78,20.57,13.66,40.23,9.85,62.79,6.35,9.76-1.52,19.94-6.11,29.72-6.47,13.72-.51,30.86,6.21,44.4.9,8.1-3.17,13.88-6.82,17.63-13.28A270.94,270.94,0,0,0,202.1,185.44Z"/><path class="d" d="M129.58,176.65c-6.44-15.55-29.68-20-35.08-1.06-4.72,16.62,2.83,33.59,6.93,49.68,2.11,8.26,10.84,41.79,6.51,48.5-1,1.52-7.48,8.67-5.8,12.23,1.82,3.85,8.15,4.52,13.33,4,11-1.1,13.14-4.29,14.25-7.84,3.92-12.47,5.1-35.93,4.93-47.58C134.35,213.88,137.9,196.75,129.58,176.65Z"/><path class="c" d="M132.62,174.29c-4.69-19.63-34.23-22.42-39.62-3.47-.23.81,1.08,6.4.9,7.22,0,0,12.28,53.69,29.53,54.84,0,0,7.36,1,11.53-15.13C135.41,204,136.25,189.48,132.62,174.29Z"/><path class="d" d="M240.82,169.23c-9.94-20.55-21-15.69-40-2.12-14.56,10.42-18.33,33.18-8,49.69,5.92,9.45,18.12,12.83,21.85,21.62,1.29,3,6.78,32.76,6.86,34.64.12,2.79-4.42,4.11-5.58,8.53-.56,2.15.1,6,3.81,7.15a22.79,22.79,0,0,0,13-.66c8.84-3.31,10.92-19,12-30.46,1.17-12.25.46-24.55,1.63-36.6C247.77,207.49,247.56,183.16,240.82,169.23Z"/><path class="c" d="M199.77,164.38c-6.58,4.71-10.92,13.05-12.79,21.08,2.42,11.37,15.55,22.08,23.28,26.64,5.47,3.23,11.4,2.66,15.22,7.73,3.38,4.49,5.31,9.95,8.77,14.37,2.76,3.51,7.1,6.34,11.37,6.27.13-6.53.22-13,.84-19.45,1.31-13.53,1.09-37.86-5.64-51.79C230.88,148.68,218.73,150.81,199.77,164.38Z"/><path class="c" d="M108.29,59.05c3.92-4,6-9.48,8.75-14.39a36.72,36.72,0,0,1,11-11.84c2.82-2.06,7.27-4.49,7.49-7.87,3.71-.17,7.41.44,9.55,2.57-2.3,3.92-6.86,7.14-9.73,10.93-5.66,7.46-9.87,17.15-14.57,25.29-2.24,3.87-4,8.62-8.77,9.58-6.75,1.32-13.68-1.79-14-8.81A22.87,22.87,0,0,0,108.29,59.05Z"/><path class="e" d="M102.18,51.71A33.37,33.37,0,0,1,111,37.3a49.56,49.56,0,0,1,15.58-10.54,28.83,28.83,0,0,1,8.9-1.81c-.22,3.38-4.67,5.81-7.49,7.87a36.72,36.72,0,0,0-11,11.84c-2.7,4.91-4.83,10.43-8.75,14.39A22.87,22.87,0,0,1,98,64.51a12.71,12.71,0,0,1,.06-1.83C98.51,58.87,101.06,55.39,102.18,51.71Z"/><path class="c" d="M134.28,67c-3.23-8.36-7.53-17.5-15.72-22.49-5.5-3.36-9.94-8.75-19.23-8.47-2.6.08-4.52,1.52-7.06,1.62-6.28.25-12-5.17-16.76-7.84-10.79-6-25.74-24-28.79-26.83-2.45-2.28-2.47-.57-6.54-1.25C30.92.21,17.08,19.18,15.48,25.48c-2.28,8.89-.9,19.32,4.22,26.73C25.06,60,46.28,72.5,43,83.62L98,132.06c3-1.77,5.45-3.23,7.07-4.25,16.17-10.17,20.37-12.89,28.3-24.61C140.83,92.11,138.61,78.24,134.28,67Z"/><path class="c" d="M125,110.64l-35.4-11-23.85,9.51,1.69,45.48S88,157,89,156.71s24.48-6.64,25.4-6.59,9.69-30,9.69-30Z"/><path class="d" d="M81.48,150.67C88.85,124.49,70,66.73,68.83,62.05,67.89,58.17,40.56,32.5,41.29,7.52a50.72,50.72,0,0,1,.51-5.47c-.44-.1-1-.19-1.63-.3C30.92.21,9.18,19.85,3.51,32.4-3.81,48.58,1.38,55.26,9.39,63.12c5.33,5.24,35.53,31.74,40.52,44.46,1,2.57,12.61,25,10.16,37.29C58,152.53,77.68,164.17,81.48,150.67Z"/><path d="M45.43,1.14A5.48,5.48,0,0,0,43.84.38a10.31,10.31,0,0,0-5.72.06c-6,1.62-10.26,8-9.33,13.11,1,5.58,5.7,9.53,12.11,10.11,4.29.38,9.19.17,11.07-4s-3.59-7.38-4.68-10.77C46.4,6.09,47.88,2.91,45.43,1.14Z"/><path class="f" d="M43.42,10.74c-1.32.18-2.07,2.57-1.7,5.35s1.75,4.88,3.06,4.7,2.07-2.57,1.69-5.35S44.73,10.56,43.42,10.74Z"/><path class="d" d="M100,49.28c-1.9.07-7.86,1.23-8.23,3.77-.4,2.78,5.06,4,6.87,5.21,2.84,1.88,5.21,5.62,8.5,6.55,4.23,1.21,6.72-5.67,5.25-9.54C110.66,50.83,103.54,49.14,100,49.28Z"/><path class="c" d="M129.23,82.44c4.37-3.45,7.15-8.67,10.42-13.22A36.92,36.92,0,0,1,152,58.79c3.06-1.7,7.77-3.57,8.4-6.9,3.7.28,7.3,1.33,9.16,3.71-2.76,3.61-7.66,6.25-11,9.67C152,72,146.69,81.09,141,88.61c-2.69,3.57-5,8.08-9.86,8.44-6.86.51-13.37-3.42-12.8-10.43A22.75,22.75,0,0,0,129.23,82.44Z"/><path class="e" d="M124.05,74.42a33.28,33.28,0,0,1,10.53-13.23,49.39,49.39,0,0,1,16.74-8.58,29.13,29.13,0,0,1,9.06-.72c-.63,3.33-5.34,5.2-8.4,6.9a36.92,36.92,0,0,0-12.33,10.43c-3.27,4.55-6.05,9.77-10.42,13.22a22.75,22.75,0,0,1-10.85,4.18,13.3,13.3,0,0,1,.27-1.8C119.55,81.08,122.5,77.94,124.05,74.42Z"/><path d="M19.43,30.51a1.51,1.51,0,0,1-.22-1.23C21.4,20.66,37.75,10,38.44,9.56a1.53,1.53,0,0,1,2.09.42l0,0a1.53,1.53,0,0,1-.45,2.11C35.64,15,23.74,23.83,22.17,30a1.53,1.53,0,0,1-2.74.48Z"/><path d="M124.09,120.13c-15.32,23-36.28,26.66-64,23.64-2.1,3.17-1.55,10.73.54,12.66,2.6,1,48.36,10,72-24.9,0,0-.39-4.89-3.26-7.79A16.34,16.34,0,0,0,124.09,120.13Z"/><path class="g" d="M7.85,34.38c-6,11,3.78,17.95,14.42,6.32,6.36-7,1.65-21.69-9.8-12.42A19.23,19.23,0,0,0,7.85,34.38Z"/><path d="M80.45,58.12c0,.12,0,.23,0,.35A120.3,120.3,0,0,1,80.4,74a2.3,2.3,0,0,0,2,2.56,2.36,2.36,0,0,0,2.36-2.31h0c.23-3.29.32-6.66.27-10.07,3.1,3.32,6.16,6.73,9.14,10.19a2,2,0,0,0,3.11,0A2.65,2.65,0,0,0,97.42,71c-4.3-5-8.76-9.88-13.26-14.53a2,2,0,0,0-2.45-.38A2.53,2.53,0,0,0,80.45,58.12Z"/></svg>