<svg xmlns="http://www.w3.org/2000/svg" width="268.63" height="181.46" viewBox="0 0 268.63 181.46"><defs><style>.a{fill:#231f20;opacity:0.3;}.b{fill:#934a19;}.c{fill:#bc611d;}.d{fill:#d18b46;}.e{fill:#b26d2f;}.f{fill:#e29f56;}.g{fill:#f4b569;}.h{fill:#662d91;}.i{fill:#5c1108;}.j{fill:#0b0808;}.k{fill:#fff;}</style></defs><path class="a" d="M261.77,165.64c0,8.74-46.67,15.82-104.24,15.82S53.29,174.38,53.29,165.64,100,149.82,157.53,149.82,261.77,156.9,261.77,165.64Z"/><path class="b" d="M89.62,123.22c-3.88,9.69-13.42,16.8-15.06,27.14-.44,2.81-.19,5.89,1.45,8.19,2.22,3.12,6.56,4.09,10.24,3.16s6.77-3.42,9.46-6.13c7.42-7.5,12.62-17.45,13.63-28,.44-4.63-.12-9.8-3.45-13a10.38,10.38,0,0,0-11.33-1.47C91.14,114.86,90.92,120,89.62,123.22Z"/><path class="c" d="M235.27,101.68c-2.14,1.23-6.89,5.32-7.1,8.19-.3,4,5.23,3.4,7.69,2.6,5.09-1.67,9.32-5.85,13.4-9.5,5.47-4.92,8.74-11.14,12-18,1.27-2.62,10.84-24.2,6-25.16-3.84,4.3-5.18,10.16-7.48,15.43A68.82,68.82,0,0,1,248.53,92.9c-1.92,2.15-4.25,4.87-6.67,6.26C239.83,100.33,237.38,100.46,235.27,101.68Z"/><path class="c" d="M236.14,94.16c-.94-.25-1.91-.46-2.9-.65-21.91-4-42.75,6-65.12-.54-10.41-3-22.89-18.33-34.37-10.43-9.58,6.6-11.28,22-22,28.92-9.73,6.24-21.15,13.29-18,23.6a16.17,16.17,0,0,0,4.15,6.42c5.4,5.47,14.63,9.8,22.52,12,26.64,7.33,51-3.64,77.56-.81,13.23,1.42,30.88,5.24,40.68-3.33,5.6-4.89,13-9.57,16.55-16C264.19,116.82,252.66,98.57,236.14,94.16Z"/><path class="d" d="M246,143.25c-10.41-9.19-29.6-8.09-41.2-3.86a89.61,89.61,0,0,1-40.74,5.08c-13.44-1.39-23.58-4.37-39.43-6.09a26.32,26.32,0,0,0-7.78-.12c-2.63.37-6.17,1.73-8.52,2-4.47.57-8.89-3.19-13.38-2.43.76,1.25,9.53,17.73,17.42,19.9,26.63,7.32,61,3.43,92.92,3.1,13.3-.13,23.49-3,33.29-11.55C240.91,147.3,243.51,145.33,246,143.25Z"/><path class="b" d="M255.16,133.3a27.13,27.13,0,0,0,1.36-2.91c-.4-3.88-8.83-14-17.4-18.86a34.5,34.5,0,0,0-8.82-3.72c-5.46-1.28-11.18-3.39-16.67-.77-5.74,2.75-10.68,8.6-12.75,15.49s-1.2,15.28,2.77,21c2.22,3.2,5.24,5.49,7.78,8.34-.15-.16-5.81-.6-8.57,1.22-2.57,1.7-4.84,4.17-5.32,7.22,0,.24,0,.46,0,.7,2.62-.06,5.24-.12,7.83-.15,13.3-.13,23.49-3,33.29-11.55,1.07-.93,2.22-1.87,3.39-2.8s2.5-2,3.76-3l.27-.22h0C249.64,140.27,253.08,137.09,255.16,133.3Z"/><path class="e" d="M242,146.51h0c1.23-1,2.49-2,3.74-3h0l.27-.22h0c-10.41-9.19-29.6-8.09-41.2-3.86-1,.35-2,.65-2.92,1a19.4,19.4,0,0,0,1.74,3.17c2.22,3.2,5.24,5.49,7.78,8.34-.15-.16-5.81-.6-8.57,1.22-2.57,1.7-4.84,4.17-5.32,7.22,0,.24,0,.46,0,.7,2.62-.07,5.24-.12,7.83-.15,8.31-.08,15.41-1.23,22-4.17a45.48,45.48,0,0,0,11.33-7.38C239.68,148.38,240.83,147.44,242,146.51Z"/><path class="c" d="M204.84,122.6c-2.11,7-1.2,15.28,2.77,21,2.22,3.2,5.24,5.49,7.79,8.34-.15-.17-5.82-.6-8.58,1.22-2.57,1.7-4.84,4.17-5.32,7.21-1.36,8.72,10.75,9.95,15.31,9.68,22.89-1.35,22.39-10.16,21.4-10.4,6,1.48,11.54,3.46,16.75-2.07,4.64-4.94,8.88-18.74,3.1-39.81-3-10.85-6.41-1.36-15-6.18a34.92,34.92,0,0,0-8.83-3.72c-5.46-1.27-11.18-3.38-16.66-.76C211.86,109.85,206.92,115.71,204.84,122.6Z"/><path class="f" d="M215.4,151.94c-.15-.17-5.82-.6-8.58,1.22-2.57,1.7-4.84,4.17-5.32,7.21-1.36,8.72,10.75,9.95,15.31,9.68,22-1.29,22.39-9.44,21.51-10.32l-.11-.08C231.35,150.13,215.4,151.94,215.4,151.94Z"/><path class="c" d="M137.77,157.1c7.22-9.45,10.93-38.86-7.84-35.72-9.47,1.58-10,10.6-12.8,18.39a20.1,20.1,0,0,1-2,4.4c-1.64,2.45-4.27,4-6.81,5.44-3.66,2.1-7.4,4.23-11.54,5-3.81.71-7.72.22-11.59.05s-7.92,0-11.31,1.95-5.84,6-4.82,9.81,4.86,5.88,8.59,6.33,7.47-.42,11.2-.77c5.52-.53,11.08.08,16.62-.16C117.46,171.28,130.41,166.73,137.77,157.1Z"/><path class="g" d="M77.66,172.74c3.72.46,7.47-.42,11.2-.77,1.5-.14,3-.2,4.51-.21a13.15,13.15,0,0,0,.3-4.25,17.07,17.07,0,0,0-1.18-5.88,13.07,13.07,0,0,0-7-6.59c-.35-.15-.71-.28-1.07-.42-3.63-.11-7.38.18-10.54,2-3.38,1.92-5.84,6-4.82,9.81S73.93,172.29,77.66,172.74Z"/><path class="b" d="M105.64,152.79A8.77,8.77,0,0,1,105,161c-2.15,3-6.33,3.55-9.83,2.72s-6.66-2.74-10.07-3.88c-1.19-.39-7-4.12-8.49-4.7-3.9-1.51,6.24-5.4,8.75-7.19C92.08,143.14,102.21,144.21,105.64,152.79Z"/><path class="d" d="M93,163a11.86,11.86,0,0,0-.51-1.41,13.07,13.07,0,0,0-7-6.59c-.35-.15-.71-.28-1.07-.42a25.29,25.29,0,0,0-7.38.7c1.92.93,7,4.15,8.06,4.51C87.8,160.73,90.33,162.09,93,163Z"/><path class="g" d="M105.09,150.21a8.92,8.92,0,0,1-.65,8.5c-2.26,3.08-6.66,3.68-10.34,2.82s-7-2.85-10.6-4A8,8,0,0,1,80,155.78c-3-3.19,1.14-8.77,3.77-10.63C90.82,140.18,101.49,141.3,105.09,150.21Z"/><path class="h" d="M149.51,75.08l0,0a8.68,8.68,0,0,0-4.29-2.48c-2.33-.31-5.79,2.7-6.05,4-.44,2.28-51.76,36-54.62,36.43-5.12.72-1.38,7,.27,9.21,3.59,4.74,8.32,5.17,14.33,6,7,.94,19.06,1,27-1.25,16.68-4.66,24.59-17.44,27.93-32.39a23.72,23.72,0,0,0,.21-8.89C153.67,81.75,152.7,78.18,149.51,75.08Z"/><path class="i" d="M104.81,32.29C101.7,38.47,94.49,40,87.15,42.46c-4.67,1.54-5.93,5-7.5,9.54-2.46,7.12-5.15,11.44-12,15.24-10.78,6-21.84,2.45-23.4-10.91-1.11-9.59.2-17.42,2.38-26.3C49.15,19.78,49.22,7.86,62,5.81c4.19-.67,7.23.81,10.77-1.31,7.07-4.24,16.55-7.26,24.7-.63,7.22,5.86,9.27,13.83,8.89,21.85A16.2,16.2,0,0,1,104.81,32.29Z"/><path class="c" d="M141.38,93.49a31.26,31.26,0,0,0,3.79-11.92c2-19.13,4.06-45.6-11.52-61.84C124.34,10,113.11,8.1,101,7.94c-51.87-.67-28.36,40.3-61.65,45.4C26.61,55.29,8.21,52.5,5.67,68.9,3.28,84.32,23,106.6,44.19,108.67c17.13,1.67,10.15-2.2,26.63,1.3,11.51,2.44,21.26,6.5,33.89,5.89C119.28,115.16,134.42,106.2,141.38,93.49Z"/><path class="i" d="M186.73,66.27C186.14,70,184.12,73,179.19,74,160.46,77.59,147.57,54,136.25,42.45,130,36,123.47,30.08,115.19,26.66c-5.86-2.41-13.14-8-12-14.52,1.08-5.93,5.69-9.26,12.37-9.13,5,.09,8,2.27,12.74.68C132.82,2.17,136.91.94,142,1.5,154.78,2.92,161.76,13.12,169.31,22c8.18,9.59,14,20,16.34,31.81C186.46,57.87,187.33,62.47,186.73,66.27Z"/><path class="g" d="M81.21,63c-6.3.38-25.61,5.29-31.71,6.52s-19.1,1-29.69-1.22c-3.09-.64-4.5.1-6.13-3.09-1-2-5.49-2.28-6.66-.23A15.82,15.82,0,0,0,5.67,68.9C-1.21,94.85,11.94,109.27,40,110.74c17.19.9,14.32-4.27,30.8-.77,11.51,2.44,21.26,6.5,33.89,5.89a44.83,44.83,0,0,0,17.56-4.7C122.94,106.64,131.35,60,81.21,63Z"/><path d="M7.06,57.25c6.09-1.93,26.39-.66,27.22,7.83.63,6.39-13.62,10.73-19.68,10.18C2.24,74.14-7,61.72,7.06,57.25Z"/><path d="M37.37,99.37h.4a4.73,4.73,0,0,0,4-2.43,5.17,5.17,0,0,0-.45-5.5,1.3,1.3,0,0,0-1.69-.31,1,1,0,0,0-.33,1.52A3.16,3.16,0,0,1,39.57,96a2.26,2.26,0,0,1-2,1.21c-1.31.08-2.61-.78-4-1.7a20.39,20.39,0,0,0-2.24-1.34c-4.08-1.95-9.53-3-14.93-3.77-.35,0,.71-2.47.85-2.71.31-.55,5.18-17.18-.07-18.47-3.08-.75,2.4,4.74-3.17,22.22-.16.48.47.9,1,1,5.51.78,11.16,1.77,15.17,3.68a16.73,16.73,0,0,1,1.93,1.18C33.68,98.23,35.35,99.34,37.37,99.37Z"/><path class="j" d="M89.69,41.67c-.31,6.87-3.9,12.28-8,12.07s-7.2-5.94-6.89-12.81,3.89-12.28,8-12.07S90,34.8,89.69,41.67Z"/><path class="k" d="M82.52,36.74c-1.08,2.49-3,4-4.32,3.44s-1.48-3.07-.4-5.55,3-4,4.32-3.44S83.6,34.26,82.52,36.74Z"/><path class="k" d="M10.65,64.87c-3.57.31-6.56-.75-6.69-2.35s2.66-3.15,6.23-3.45,6.56.75,6.68,2.35S14.21,64.57,10.65,64.87Z"/></svg>