<svg xmlns="http://www.w3.org/2000/svg" width="347" height="271.96" viewBox="0 0 347 271.96"><defs><style>.a{opacity:0.2;}.b{fill:#d68c43;}.c{fill:#bf7532;}.d{fill:#efaa5e;}.e{fill:#535659;}.f{fill:#b58352;}.g{fill:#fff;}.h{fill:#912f41;}.i{fill:#b7375c;}.j{fill:#6daee6;}</style></defs><path class="a" d="M40.94,257.81c0,7.81,48.17,14.15,107.59,14.15s107.6-6.34,107.6-14.15S208,243.66,148.53,243.66,40.94,250,40.94,257.81Z"/><path class="b" d="M168.07,161.39c-.57-4.91.08-9.65,3.15-13.28,7.14-8.43,18.54-9,25.11.15,10.48,14.49,7.48,32.71,11,49.36,2,9.35,4.44,18.32,7,27.47.92,3.27,1.6,7,2.88,10.12a19.25,19.25,0,0,0,3.77,5.48c2.79,3.14,11.13,5.68,6.89,10.77-6.4,7.69-23.8,2.06-27.8-4.14C193.43,237,176.8,186.55,174,180.08,171.81,175,168.83,168.05,168.07,161.39Z"/><path class="c" d="M126.82,134.14c20.41-1.46,35.88,5.43,33.31,27.44-2,16.9-18.27,30.69-35.67,29.92-10-.44-17.27-8.59-25.78-7.54-9.41,1.17-46.32,30.3-46,5.87.19-14.68,35-31.59,45.58-40.55C107.84,141.15,113,135.13,126.82,134.14Z"/><path class="d" d="M89,88.52a10.21,10.21,0,0,0,1.21,1.73c5,5.71,13.94,7,17.87,13.07,6.45,9.91-10,21.91-18.83,19.1-8.08-2.59-20.68-20.09-24.8-28-6.46-12.48-4.14-26.75,5.93-37.32,10.53-11,28.52-10.26,41-3.18,6.94,4,10.91,8.85,11.06,17.23.15,8-3.94,15.23-11.68,17.66-4,1.24-10.56.07-12.24-4,4.27-3.06,6.48-4.84,4.26-10-1.88-4.38-5.73-6-10.36-4.59C85.53,72.33,85.65,82.76,89,88.52Z"/><path class="b" d="M156.63,106c34.89.29,59.48-6.8,78.27,27.9,16.45,30.38,5.52,63.83-30.16,71-24.19,4.83-40.88-6.39-60.33-18.45-8.42-5.22-16.06-13.49-25-17.63-9.27-4.32-20.16-3-29.16-8.25-20.08-11.62-29.8-56.92-5.57-54.87C119.67,108.61,136.16,105.81,156.63,106Z"/><path class="d" d="M206.44,132.87c10.87,1.15,22.61,3.51,32.23,9.28,5.79,15.39,4.75,30.88-2.77,42.78a36.53,36.53,0,0,1-9.09-2.52c-7.37-3-15.56-.2-23.6,0-11.84.23-16.88-8.77-18.82-19.71C181.41,145.78,187.23,130.83,206.44,132.87Z"/><path class="d" d="M175.91,179.44c-6.29-15,6.21-34.17,22.72-25,14.49,8,22.37,24,30.6,37.73,4.21,7.08,23.66,34.31,30.51,37.69,2.36,1.17,7.46.09,7.95,3.87,1.35,10.36-18.4,12.14-24.53,10.56-11.29-2.9-19.4-13.24-27.23-21.28C202,208.71,184.05,198.88,175.91,179.44Z"/><path class="d" d="M90.3,116.64c21.41,3.68,35.76,14.65,27.9,36.48-6,16.76-26.12,26.73-43.9,21.53-10.18-3-15.8-13.15-24.83-14.23-10-1.2-55,19.21-48.91-5.67,3.67-14.95,43.6-23.42,56.65-29.89C69.05,119,75.78,114.14,90.3,116.64Z"/><path class="e" d="M84.14,58.63c6.88-.91-8.5,1.11,0,0,44.33-5.81,17.52,33.94,14.28,26.17,14-18.1-28.73-6.62-1.46,9.82,31.35,18.9,73.12.38,105.84,13.22-2.75-1.08-5.64,24.63-5,27.86a49.42,49.42,0,0,0,3.67,10.55c2.36,5.3,3.35,10.71,5.66,16.11-6.46-2.34-10.8-4.91-18-4.37a39.22,39.22,0,0,0-15.77,4.23c-10.25,5.24-16,14.54-28.43,12.89-7.86-1.05-15.34-9-19.46-15.29-5.87-8.93-6-24-21.89-33.3a59.4,59.4,0,0,0-32.83-8.24c-1-10.13,5.56-15.83,3.28-23.86C71.09,84.17,69.05,60.6,84.14,58.63Z"/><path class="e" d="M288.63,63.73c-.85.49-1.67,1-2.44,1.37a12.06,12.06,0,0,0-1.29-4.31c-1.37.1-3.56,2.94-4.56,2.66-1.36-.37-1.25-3.5-2.28-4.24-1.39-1-3.54,1.45-5.51,1.84-.53-3.52-2.71-6.95-2-10.59A13.26,13.26,0,0,1,274,43.71c3.56-3.77,8.62-5.4,13.27-6.43,8.17-1.8,16.32-3.1,24.67-2.79A69.28,69.28,0,0,0,322,34.11c3.25-.35,6.54-2.2,9.8-2.07,2.72.11-3.07,14.31-12.58,23.09-6.42,5.93-24.69,12.59-24.66,13.05-.14-2.12-1.27-4.13-2.16-6A9.51,9.51,0,0,0,288.63,63.73Z"/><path class="f" d="M295.21,60.54a11.49,11.49,0,0,1-.28-2.5,83.42,83.42,0,0,0-7.68,3.39,35,35,0,0,0-.69-4.22c-1.7.33-3.16,1.33-4.81,1.79-.53-4.56,6.4-8.38,9.53-9.65a61,61,0,0,1,14.19-3.49,50,50,0,0,0,10.4-2.46c2.95-1.1,6.35-3.52,9.38-3.87.74,6.55-7.26,12-11.5,15.42a73.16,73.16,0,0,1-9.51,6.57c-2.54,1.45-5.63,2-8.33,2.9C295.83,64.13,295.47,62.2,295.21,60.54Z"/><path class="d" d="M203.69,106.08c-.35-1.62-4.29-.59-4.27-2.33,0-.91,3.81-9,5-9.23-.75.12-5.61,1-5.89,1.35,1.85-2.46,5.19-7.23,7.83-9a19.64,19.64,0,0,1-6.08-.59c2.08-2.16,6.86-3.17,9.07-5.28-2.5.19-4.82-.89-7.26-.69,1.18-1.73,3.4-2.52,5-3.85s4.11-3.43,5-5.5c.85-1.89.73-4.41,1.34-6.41,4.76-15.79,21.25-19,36.08-19,14.55,0,27.64,1.41,39.67,10,8.28,5.94,8.24,13.66,10.06,23.16,1.51,7.87,2.15,17.6,9.07,23,6.05,4.71,13.08,6.59,11.73,16.07-2.08,14.7-6.68,28.84-23.72,23.13-7.84-2.62-16-4.76-24.11-2.41-5.25,1.51-19.15,9.94-23.88,11.9-3.17,1.32-16.69-8.67-22.38-11.68-6.21-3.27-12-7.67-16.1-13.53A36.24,36.24,0,0,1,204.69,113c-.43-1.76-.34-3.44-.65-5.17C203.94,107.23,203.81,106.65,203.69,106.08Z"/><path class="d" d="M204.26,100.77c-.42.33-8.78,5.36-8.78,5.36l5.35,26.71s25.62,18.62,25.94,18.51,20.79,1.16,20.89.69,1.29-6.39.86-6.76-39.11-43.54-39.11-43.54Z"/><path class="e" d="M282.49,102.3c1.23-1.55,2.59-3,3.93-4.63,3.28-4,4.89-9.35,8.41-13a67,67,0,0,1,3.06,6.19c0-1.73.48-3.44.48-5.18,4.52,13.62,12.41,14.55,25.43,16.8,4.82.84,9.72,2,13.85,4.69a13.21,13.21,0,0,1,4.89,6c1,2.67,1.51,6.44.4,9.1-2.43,5.87-4.93,12.27-9.68,16.74-2.84,2.68-6.38,5-10.06,5.72-6.55,1.22-13.21.19-19.68-1.09-7.29-1.45-18-3.09-23.7-6.84-6.71-4.42-3.25-21.54-.76-28.56A20.46,20.46,0,0,1,282.49,102.3Z"/><path d="M346.3,109.85c1.72,3.17.1,8.35-2.75,10.22s-8.09,1.58-11.24.29c-4.53-1.88-11.4-9.37-8.64-13.81,3.52-5.68,19.25-1.76,22.39,2.91A4.11,4.11,0,0,1,346.3,109.85Z"/><path class="g" d="M339.66,113.21c2.88.79,5.51.34,5.86-1s-1.71-3-4.6-3.83-5.51-.34-5.86,1S336.77,112.43,339.66,113.21Z"/><path class="e" d="M253.88,91.35a10.9,10.9,0,0,0,.87,3.52c1.86,4.17,10.56,8.86,15.8,7.65s9.68-3.34,12.33-7.27a24.64,24.64,0,0,0,3.91-15.88,15.31,15.31,0,0,0-14.46-12.73c-9.55-.51-15.74,10.32-17.46,16.69A24.24,24.24,0,0,0,253.88,91.35Z"/><path d="M268.43,74.15C262,82.72,273,106.52,278.36,90.4,280.52,83.92,275.8,64.39,268.43,74.15Z"/><path class="g" d="M271.94,79.57c1.16,2.35,3,3.78,4.17,3.2s1.12-3-.05-5.31-3-3.79-4.16-3.21S270.78,77.21,271.94,79.57Z"/><path class="e" d="M284.11,56.62c3.13,2.42,5.25,5.75,7.6,8.47A34.71,34.71,0,0,0,289.37,55c2.52,3.15,4,7.46,7.06,10.12-1.2-4.65-1.45-10.35-5.94-13.83-12.08-9.37-25.3-10.84-40-10.66-13.81.16-28.58,4.67-34.78,18.79,3.61-2.6,6.81-7.67,9-8.77a42,42,0,0,1,20.93-4.72,81,81,0,0,1,22.13,4.32C273,52,279.55,53.11,284.11,56.62Z"/><path class="e" d="M261.24,53.4c-3.83-1-7.75-1.89-7.73-1.94-.36,1.37,0,3.09-.11,4.38a28.36,28.36,0,0,0-8-4c-.43,1.71-.3,3.76-.81,5.4-1.65-.88-5.6-3.71-7.67-2.59-.75.41-1.86,6-2.62,5.75-11.08-3.88-13-18.61-14-28-.45-4.37-3.84-29.86.71-32.17,5.3-2.69,26.52,17.28,30.09,20.84a75.44,75.44,0,0,1,13.18,17.06c2.94,5.42,2.18,11.72,4.18,17.27A62.73,62.73,0,0,0,261.24,53.4Z"/><path class="f" d="M236.54,48.12c-.19-.19-.37-.38-.55-.58a15.82,15.82,0,0,0-2.3,8c-6-8.77-5.66-16.3-7.27-26.18-.61-3.75-.76-7.52-1.16-11.29-.35-3.26-1.77-7-1.64-10.21,8.48.81,16.3,12.13,22,17.93,6.46,6.58,14.31,14.58,16.37,23.48-2.8.16-6.8-5.16-9.68-3.13-1.28.89-.2,4.31-.61,5.37-2.46-2-7.12-5.53-10.42-5.56,0,1.9,0,4,.09,5.71A31.49,31.49,0,0,1,236.54,48.12Z"/><path class="h" d="M300.62,141.61l-1.07-.76c-2.3-1.65-4.34-3.64-6.66-5.27a15.57,15.57,0,0,1-1.74-1.11,4.48,4.48,0,0,0-1.21-1c-1.18-.54-2.58-.37-3.61-1.26-1.57-1.35-2.28-4.16-2.24-6.16a6.42,6.42,0,0,0,0-.76c.09,1,1.18,2,1.67,2.77a3.82,3.82,0,0,0,2.32,1.68c2,.34,4.3-.17,6.39.1a13.29,13.29,0,0,1,9.78,5.66c.89,1.16,5.09,7.92,2.19,8.43a6.87,6.87,0,0,1-2.57-.59A10.84,10.84,0,0,1,300.62,141.61Z"/><path class="i" d="M269.65,137.55c-5.23,5.21,6.77,11,12.05,10.95A31.64,31.64,0,0,0,292,146.8a10.9,10.9,0,0,0,4.42-2.51,12,12,0,0,0,1.87-2.34c.21-.42.46-1.06,1-1.12s1.28.69,1.89.81c1.55.31.48-3.64.12-4.37a4.49,4.49,0,0,0-1.66-1.85,3.36,3.36,0,0,0-1.32-.63c-.39,0-.76.16-1.08-.12-.22-.82-1.37-1-2-1.16a6.45,6.45,0,0,0-2.74-.38,8.62,8.62,0,0,0-2.69,1,28.5,28.5,0,0,1-3.27,1.52,9.5,9.5,0,0,1-2.19.77c-.87.1-1.75.13-2.63.24a33.15,33.15,0,0,1-6.68.23C273.11,136.78,271,136.21,269.65,137.55Z"/><path d="M307.33,141.06a6.13,6.13,0,0,0,1.59,3.09,10.15,10.15,0,0,1-1.65,0c-3.18-.81-2.14-4-3.38-6.4a10.67,10.67,0,0,0-5.18-4.75c-4.23-1.41-10.44,1-13.51-3.09a9.63,9.63,0,0,1-1.15-2.83,24.71,24.71,0,0,1-.76-5.55c1.71,3.93,4.28,7.71,9.69,7.51a15.57,15.57,0,0,1,10.52,4.12,11,11,0,0,1,3.18,5.3C306.9,139.19,307.08,140.14,307.33,141.06Z"/><path class="j" d="M199.42,103.75C198.74,128,223.7,149,249.14,150c.47,2.93-3.93,11.42-6.63,11-29.58-4.41-59.84-29-52.33-56.68A8.68,8.68,0,0,1,199.42,103.75Z"/></svg>