<svg xmlns="http://www.w3.org/2000/svg" width="259.11" height="147.15" viewBox="0 0 259.11 147.15"><defs><style>.a{fill:#5e3a1e;}.b{fill:#231f20;opacity:0.3;}.c{fill:#89542c;}.d{fill:#fff200;}.e{fill:#721422;}.f{fill:#fff;}</style></defs><path class="a" d="M79.81,36.2c10.57,0,19.49-1.61,16.78,11.25,0,.11,0,.23-.08.34-2.05,8.79-6.33,6.33-15.17,7.51-1.68.22-19.16,2-30.08,4.82C27.69,66.18,13.5,76.32,12.79,76.18c-4.31-.87,13.26-22.46,31.63-32C60.23,36,76.64,36.2,79.81,36.2Z"/><path class="b" d="M0,105.05C0,92.19,44.76,81.78,100,81.78s100,10.41,100,23.27a6.4,6.4,0,0,1-1.13,3.51c14.87,4,24.06,9.1,24.65,14.74,1.49-.11,3-.26,4.56-.49,9-1.34,26.2-8.43,28.18,6.52.75,5.6-4.72,10.59-9.74,13.09-9.37,4.67-21.68,5.78-33.39,3-4.24-1-8.38-2.5-12.64-3.36a68.36,68.36,0,0,0-9.08-1.09c-17.82,3.83-41.64,6.17-67.82,6.17-55.21,0-100-10.42-100-23.27a6.39,6.39,0,0,1,1.14-3.52C9.34,116.27,0,110.92,0,105.05Z"/><path class="c" d="M158.12,36c-.3-.42-.62-.85-.94-1.27-12.44-16.29-29.5-24-47.54-21.89C92.27,14.93,62.79,27.66,45.76,53.32c-13.54,20.39,12.93,60.45,31,69.13,7.71,3.72,16.1,4.44,24.34,5.12l21.19,1.74c15.87,1.31,34.55,1.12,43.95-14.59,3.43-5.74,5.06-12.89,5.62-20C173.63,72,170.52,53,158.12,36Z"/><path class="c" d="M48.78,47.32c-9.49,8.83-7.18,16.44-23.63,28.25-4.54,3.25-11.18,6.27-15.6,10-6.08,5.12-7.21,8.9-7.32,15.18-.16,9.27,10.65,8.78,13.32,6.91,15.05-10.5,34-2.29,50.63-9.33,3.5-1.47,6.47-2.13,9.55-4.7,5.72-4.79,9.69-12.41,12.37-20.5A32.91,32.91,0,0,0,90,63.93c.28-8.13-5.23-23-11.66-26.12C68.61,33.07,56.47,40.15,48.78,47.32Z"/><path class="a" d="M30.45,102.28C41.1,95.87,64.24,85,69.28,64.89c6.12,6.1,14.18,8,18.58,8.9C85.19,81.62,81.29,89,75.73,93.62c-3.08,2.57-6,3.23-9.55,4.7C54.66,103.18,42.08,100.78,30.45,102.28Z"/><path class="a" d="M85.63,128c10,1.27,38,6.07,41-11.9,1.38-8.17-.57-19-2-27A157.67,157.67,0,0,0,120,70.12c-3-9.69-8.42-9.83-16.53-12.57C93,54,57.59,105.63,64.72,110.68S77.48,127,85.63,128Z"/><path class="c" d="M66.92,126.07a15.58,15.58,0,0,1-.31-12.18,15.31,15.31,0,0,1,6.62-7.15c2.85-1.37,6.16.09,9.27-.1,5.49-.34,12.14-.43,17.52-1.78,6.56-1.65,11.92-6,18.1-9,7.83-3.83,16.59-5.3,24.5-1.59,6.29,3,15.15,12.73,11.76,21.7-3.15,8.32-12.87,12.65-19.33,14.2-9.68,2.32-20,2.18-29.84,2.55q-9.85.36-19.72.39c-6.08,0-12.64,1.64-17.23-4.73A12.79,12.79,0,0,1,66.92,126.07Z"/><path class="a" d="M66.61,113.89a15.31,15.31,0,0,1,6.62-7.15c2.85-1.37,6.16.09,9.27-.1l4.38-.23c-3.53,2.33-6.26,6.76-6.12,10.51.47,12.92,8.83,14.93,9.83,16.13-1.7,0-3.4.06-5.1.06-6.08,0-12.64,1.64-17.23-4.73a12.79,12.79,0,0,1-1.34-2.31A15.58,15.58,0,0,1,66.61,113.89Z"/><path class="a" d="M113.06,117.66c-5.61-6.89-9.31-16-10.62-25.64a25.71,25.71,0,0,1-.11-7.48,9.8,9.8,0,0,1,3.19-6.14A7.5,7.5,0,0,1,110.38,77c4,.08,7.84,1.91,11.33,4.32,7.39,5.09,13.47,12.75,18.47,21.19,2.88,4.87,10.62,18.35,5.35,24a7.15,7.15,0,0,1-2.08,1.39l-3.35,1.71c-4.2,2.15-9.85.11-14.07-1.77A35.75,35.75,0,0,1,113.06,117.66Z"/><path class="c" d="M48.93,130.45c-5.75,2.44-12.88,3.63-16.56-1.14-2.51-3.24-2.77-8.49-1.24-12.82s4.76-7,8.17-9.43c3.62-2.59,7.75-4.11,11.58-6.32,11.63-6.69,47.47-51,55.53-53.26,6.4-1.83,17.49-.15,18,8.87.42,8.35-11,21.13-15.86,26.49-8.88,9.75-19,16.31-28.84,24.18-8.69,7-16.84,15.42-26.17,21.1A35.82,35.82,0,0,1,48.93,130.45Z"/><path class="d" d="M181.6,118.86c-4.89,5.48-14.88,11.64-21.3,12.92a35.51,35.51,0,0,1-17-1.22c-10.45-3.22-19.33-8.34-23.66-17.13-6.34-12.89-10.14-29.39-2.55-47.58,3.8-9.07,8.1-17.39,17.82-24.43,25.5-18.49,38.63-4.25,48.56,8.67,9.35,12.16,20.75,32.6,8.08,53.59C188.78,108.19,185.37,114.62,181.6,118.86Z"/><path class="a" d="M186.23,105.64c6,.76,12,1.4,18,2.3a50.25,50.25,0,0,0,23-1.28c9.9-2.87,29.15-14.9,30,6.54.32,8-6,15.83-11.7,20A45.33,45.33,0,0,1,209.07,141c-4.51-1-8.88-2.75-13.43-3.56-8.4-1.49-17,.2-25.49-1s-17.44-6.91-18.62-16.12C148.85,99.29,175.32,104.27,186.23,105.64Z"/><path class="c" d="M211.06,21.57c5.33-.88,9.63-2.93,15.23-1.89a27.65,27.65,0,0,1,14.24,7.58c9.56,9.46,18.37,29.33,14.74,43.47a11.75,11.75,0,0,0-.54,2.75c0,1.94,1,3.66,1.87,5.36,6.39,12.73-.38,31.92-9.38,41.38-6.85,7.21-16.26,8.22-25.13,10.1-9,1.92-18.26,4-27.4,1.42-4.84-1.36-9.44-4-14.43-4.21-4.44-.18-8.71,1.6-13,3-8.19,2.72-15.19,3.29-23.34.42-14.14-5-22.36-22.34-23.65-36.81-.89-9.87,2.44-20.71,7.47-29,5.16-8.49,13.52-13.88,21.59-19C168.84,33.9,188.8,25.24,211.06,21.57Z"/><path class="a" d="M165.81,42.21c5.66-2,11.36-3.92,17-6.06,7.64-2.91,14.18-4.21,22.35-3.74,10,.57,30.59,7.8,27.83-12.67C231.43,8.3,210.21,2.89,201.69,2c-6.29-.67-12.46,2.26-18.64,1.67-8.17-.77-15.28-5.56-23-2.79C148,5.22,146.74,20.43,139.19,29.7c-1.95,2.39-7,4.8-6.78,9.19C133.27,56.29,159.12,44.59,165.81,42.21Z"/><path d="M185,126.35c-1.09,3-10.49-1.17-11.12-9.07s6.75-15.76,9.12-13-5,5.5-4.07,12.29S186.07,123.37,185,126.35Z"/><path d="M176,76.06c-.57,3.15-10.51,1-12.47-6.65s3.95-16.86,6.76-14.58-4,6.44-1.91,12.9S176.54,72.91,176,76.06Z"/><path class="e" d="M124.78,111.14a54,54,0,0,1-4.47-17,44.56,44.56,0,0,1,2.06-17,4.87,4.87,0,0,1,4.8-1.14,2.7,2.7,0,0,1,1.69,1.63A4.06,4.06,0,0,1,129,79c0,4-2.33,7.42-3.86,11A29.6,29.6,0,0,0,123,103.57C123.14,105.17,124.38,108.49,124.78,111.14Z"/><path d="M128.19,92.08c-14.58,1.6-4.87,35.89,6.07,33.67,9.87-2,7.71-13.38,6.62-19.45C139.53,98.81,137.25,91.09,128.19,92.08Z"/><path class="f" d="M134.48,100.21c2.26,3.43,2.68,7.14.94,8.29s-5-.72-7.23-4.16-2.68-7.14-.94-8.28S132.23,96.77,134.48,100.21Z"/></svg>