<svg xmlns="http://www.w3.org/2000/svg" width="213.84" height="220.01" viewBox="0 0 213.84 220.01"><defs><style>.a{fill:#494041;}.b{fill:#e7c4c2;}.c{fill:#fff;}.d{fill:#afafaf;}.e{fill:#231f20;opacity:0.3;}.f{fill:#cccac8;}.g{fill:#e5e5e5;}.h{fill:#fefefe;}.i{fill:#f15a29;}.j{fill:#b7375c;}.k{fill:#0b0808;}</style></defs><path class="a" d="M61.36,60.85c3.24-3.39,9.34-6.06,8.48-11.05-.77-4.49-6.13-7.72-9.33-10.74C55,33.9,47.43,31,39.72,29.76,29.36,28.09,13.88,29.42,4.16,34-4.56,38.18,2.7,51.47,5.44,57.09c4.65,9.53,13,19.54,23.12,24.64,7.35,3.72,23.33,6.84,24.39-4.31C53.59,70.73,56.06,66.4,61.36,60.85Z"/><path class="b" d="M48.94,66.4c3.43-5.74,18.74-8.76,14.55-16.5-2.87-5.28-12.12-7.34-17.66-9.1C36,37.67,25.44,37.21,16,41.59.79,48.65,27.06,69.87,34.66,74c3.33,1.81,7.27,3.67,10.57,1.28C48.24,73.12,47.18,69.34,48.94,66.4Z"/><path class="c" d="M152.48,60.85c-3.24-3.39-9.34-6.06-8.48-11.05.77-4.49,6.13-7.72,9.33-10.74,5.47-5.16,13.08-8.06,20.79-9.3,10.36-1.67,25.84-.34,35.56,4.27,8.72,4.15,1.46,17.44-1.28,23.06-4.65,9.53-13,19.54-23.12,24.64-7.35,3.72-23.33,6.84-24.39-4.31C160.25,70.73,157.78,66.4,152.48,60.85Z"/><path class="b" d="M164.9,66.4c-3.43-5.74-18.74-8.76-14.55-16.5,2.87-5.28,12.12-7.34,17.66-9.1,9.8-3.13,20.39-3.59,29.84.79,15.2,7.06-11.07,28.28-18.67,32.42-3.33,1.81-7.27,3.67-10.57,1.28C165.6,73.12,166.66,69.34,164.9,66.4Z"/><path class="d" d="M141.51,143.3c-.51-2.75-.86-8.53,3.66-6.13,1.64.87,2.25,2.68,4.21,3.07,2.46.5,6.49-.58,8.76-1.44,3.5-1.32,6.68-4.09,9.35-6.44,2.86,3.54,2.79,11.64,1.24,15.47a11.12,11.12,0,0,1-3.48,5.1,21.54,21.54,0,0,1-4.1,2.27c-2.2,1-4.25.33-6.56.42a8.19,8.19,0,0,1-5.46-1.16A17.48,17.48,0,0,1,141.51,143.3Z"/><path class="e" d="M17.56,196.79c0,12.83,38.74,23.22,86.53,23.22s86.53-10.39,86.53-23.22-38.74-23.22-86.53-23.22S17.56,184,17.56,196.79Z"/><path class="f" d="M156.74,201.92c-7.46-1.44-16.25-3.36-21.64-9.94-5.2-6.35-5.66-18.34-.43-25.75,11.24-15.94,32.4-27.79,43.73-8.31,5.29,9.1-2.83,22.1-8.46,28.85,3.08,1.3,6.75,0,9.32,3,2.24,2.59,2.47,7.23.05,9.92C173.32,206.34,163.45,203.21,156.74,201.92Z"/><path class="f" d="M56.65,199.31c7.5-1.23,16.33-2.9,21.86-9.45,5.33-6.32,6-18.57.95-26.32-10.93-16.66-31.87-29.48-43.6-9.94-5.48,9.14,2.38,22.69,7.88,29.78-3.11,1.23-6.75-.18-9.38,2.77a8.2,8.2,0,0,0-.25,10.13C40,203.28,49.91,200.41,56.65,199.31Z"/><path class="f" d="M106.93,115.59c9.41,0,20.15-2,29.28,1.15,3.52,1.23,4.9,3.68,7.47,6.25,3.13,3.13,7.08,5.1,9.38,9.13,1.31,2.29,1.57,4.89,2.86,7.19,1.79,3.18,4.72,5.46,6.14,8.94,2.61,6.42,4.5,15,3.84,21.93-1,9.93-4.69,18.84-14.14,22-6.48,2.21-14.32,2.65-20.87,3.66-15.09,2.32-30.4,1.3-45.9.49-10.35-.55-25,1.26-31.78-8.38C47.38,179.75,48,167.14,50,157.48c2.3-10.76,7.91-20.1,14.48-28.43C73.59,117.54,93.72,115.56,106.93,115.59Z"/><path class="g" d="M73.88,132.73c7.91-12.62,30.25-12.63,42.5-9.59,9.77,2.43,19,5.5,24.38,15.09a20.65,20.65,0,0,1,1.73,17.19c-1,3.26-2.65,6.23-3.79,9.42-.94,2.66-.55,4-.86,6.62-.94,7.94-7.06,16.8-12.17,22.49a43.63,43.63,0,0,1-4.3,4.18c-8.72.59-26,.8-34.83.38-4.79-4-8.32-10.2-11.53-15.46C66.71,169.48,64.1,148.31,73.88,132.73Z"/><path class="h" d="M129.07,143.26s11.29,24.84-6,55.76l25,4.31s20.66-38.27-5.29-70.46Z"/><path class="h" d="M119.46,200.88c.32,6.71,7.88,11.91,16.9,11.63s16-6,15.73-12.68-7.89-11.92-16.89-11.63S119.14,194.16,119.46,200.88Z"/><path class="h" d="M83.15,143.26s-11.3,24.84,6,55.76l-25,4.31s-20.66-38.27,5.29-70.46Z"/><path class="h" d="M92.76,200c0,6.72-7.26,12.3-16.28,12.48s-16.33-5.13-16.36-11.85,7.26-12.31,16.27-12.48S92.74,193.32,92.76,200Z"/><path class="i" d="M150.55,112.7c2.14,4.45,2.28,12.3.1,16.68-2.07,4.16-6,7.81-9.62,10.42-8,5.77-18,8.39-27.54,8.9-14,.74-28.66.66-40.11-8.72-5.72-4.67-10.53-9.49-11.55-17.38-2.66-20.74,15.94-25.41,31.82-28.41,14.95-2.83,37.89-4.85,49.14,8.43C145.21,105.48,148.9,109.25,150.55,112.7Z"/><path class="c" d="M44.93,49.74C57.38,10.55,88,8.34,107.72,9.07h.2c19.74-.73,50.34,1.48,62.79,40.67,19.11,60.15-21.31,81.23-61.39,81.52-.49,0-1,0-1.5,0s-1,0-1.51,0C66.24,131,25.82,109.89,44.93,49.74Z"/><path class="a" d="M82.92,11.17c-2.28,2.35-5.09,4.59-6.7,6.4-6.79,7.66-14.88,14.92-19,24.06C49.61,56.48,55.55,81,45.61,89.8a10.86,10.86,0,0,1-3.74,2.87c-3-11.32-2.49-25.48,3.06-42.93C52.79,25,67.89,15,82.92,11.17Z"/><path class="b" d="M130.29,15.5c2.36-5.45-5.8-11.68-13.27-13.37-5.08-1.15-10.75-.65-15.8.37-5.63,1.13-13,3.93-14.39,10.27a9.91,9.91,0,0,0,2.77,9.08c2.48,2.38,4.45,3,5.28,6.48a20.55,20.55,0,0,1,0,10c-1.75,6.7-8.8,1.68-13,.17-2.06-.74-5.92-1.74-7.48.33-1.93,2.59.94,4.8,3.09,5.72A40.1,40.1,0,0,0,96.15,47.9c5.69-.44,11.34-2.3,17-1.49,3.63.52,7.06,2.12,10.71,2.37,5.42.38,10.55-2.22,15.36-4.75a2.63,2.63,0,0,0,1.05-.8,1.86,1.86,0,0,0-.05-1.84c-.91-1.76-3.27-2.26-5.21-1.86s-3.68,1.48-5.57,2.08c-6.28,2-9.78-3.91-9.17-9.55C121.06,24.53,127.6,21.7,130.29,15.5Z"/><path class="j" d="M78.08,43.28c5.81,1.26,11,4,16.75,5.25a21,21,0,0,0,12.5-.85v-.24a2.52,2.52,0,0,1,.29.12l.29-.12v.24a21,21,0,0,0,12.5.85c5.81-1.27,10.94-4,16.75-5.25a95.22,95.22,0,0,1,.19,24.15c-.55,4.57-1.63,9.43-5.76,12.74C125.41,85.11,115.83,87,107.66,87s-17.8-1.86-24-6.82C79.52,76.86,78.45,72,77.9,67.43A94.76,94.76,0,0,1,78.08,43.28Z"/><path class="k" d="M122.41,2.55C119.25.82,113.88,0,108.26,0h-.05c-5.62,0-11,.82-14.15,2.55C82.8,6.28,93.19,22.9,108.21,23.89h.05C123.28,22.9,136,7.63,122.41,2.55Z"/><path class="c" d="M109.28,4.87c-.58,2.09,2.47,4.77,6.82,6s8.34.48,8.92-1.62-2.47-4.77-6.82-6S109.86,2.77,109.28,4.87Z"/><path class="k" d="M107.82,48.54c-1,0-1.79-1.25-1.79-2.8V21.15c0-1.55.8-2.8,1.79-2.8s1.79,1.25,1.79,2.8V45.74C109.61,47.29,108.81,48.54,107.82,48.54Z"/><path class="k" d="M143.37,38.7a3.79,3.79,0,0,0-4.13.73c-2.42,2.85-10.84,5.9-15.13,6.48-6.2.85-11-.25-16.06-2.2v-.17l-.23.08-.23-.08v.17c-5.09,1.95-9.86,3-16.06,2.2-4.29-.58-12.71-3.63-15.13-6.48a3.79,3.79,0,0,0-4.13-.73c-1.43.6-1.89,1.9-1,2.9C75,46,85.52,49.41,90.38,50.07a38.87,38.87,0,0,0,5.34.38,37.53,37.53,0,0,0,12.1-2.08,37.53,37.53,0,0,0,12.1,2.08,39,39,0,0,0,5.34-.38c4.86-.66,15.41-4.06,19.15-8.47C145.26,40.6,144.8,39.3,143.37,38.7Z"/></svg>