<svg xmlns="http://www.w3.org/2000/svg" width="226.56" height="220.97" viewBox="0 0 226.56 220.97"><defs><style>.a{fill:#cccbca;}.b,.f{fill:#231f20;}.b{opacity:0.3;}.c{fill:#9b9794;}.d{fill:#fcf6ef;}.e{fill:#37beed;}.g{fill:#fff;}.h{fill:#18110f;}</style></defs><path class="a" d="M27.86,88.54c-2.64-3.05-5.78-8.25-10.37-6.9,1,1.35,2.1,2.56,3.08,3.94-2.7-.24-15.15-2.44-15.59.71C7.3,87.37,10.3,88,12.31,89.46,7.78,90.31,2.68,91.91,0,96.18c2,1,4.12.37,6.21,1C4.35,99.34,1.44,100.59,1,103.7c1.72.17,3.73-.91,5.38-1.19C5,104.76,3,106.25,2.86,109.22c1.39-.73,2.44-1.94,4-1.94a57.19,57.19,0,0,1-2.21,5.8c1.63.41,2.91-.67,4.45-.76a11,11,0,0,1-2.48,3.37c1.54.5,3.38-.2,5-.45,3-.45,3.32-.19,6,1.51,4.43,2.84,15.07,12.15,20.26,6.61,5.46-5.85.61-17.77-1.22-24.09-1.37-4.74-4.82-6.68-8-9.9C28.37,89.12,28.12,88.84,27.86,88.54Z"/><path class="b" d="M165.58,198.92c0,12.18-36.7,22.05-82,22.05s-82-9.87-82-22.05,36.69-22,82-22S165.58,186.75,165.58,198.92Z"/><path class="a" d="M25.8,190.4c.21.25,1.14,3.68.46,3.52a7.13,7.13,0,0,1-5.35-4,11.89,11.89,0,0,1-.57,2.28c-2.18-.23-2.75-2.71-4.44-3.62-.44,1.16-1.24,2-1.62,3.23-1.51-1.15-2.51-3.42-3.91-4.73A17.43,17.43,0,0,1,5,170.38c-.41.47-1.53,1.08-1.95,1.69-1-3.32,1.48-10.88,2.48-14.67-.94.69-2.38.72-3.36,1.38,0,0-.66-.68-.73-.73,1.68-2.57,2.7-5.72,4.66-8.32,4.62-6.15,10.83-15.16,18.85-16,8.24-.85,13.42,13.46,11.88,23.59-1-.38-1.42-1.56-2.49-1.8-1.26,4.36.51,9-.76,13.45a10.54,10.54,0,0,0-2.46-2.48c-.62,1.6-.08,3.82-.21,5.6a23.88,23.88,0,0,1-1.35,6.21,16.41,16.41,0,0,1-1.33-2.42c.23.51-1.1,6.51-1.11,7.76a19.37,19.37,0,0,0,1.2,7.14C27.26,190.82,26.88,191.52,25.8,190.4Z"/><path class="c" d="M101.82,190.87c-.23.26-1.21,3.75-.49,3.57a7.84,7.84,0,0,0,5.62-4.19,12.16,12.16,0,0,0,.6,2.28c2.29-.33,2.9-2.85,4.67-3.83.46,1.15,1.3,2,1.7,3.2,1.59-1.23,2.64-3.55,4.12-4.93a17.61,17.61,0,0,0,5.58-17.05c.44.46,1.61,1,2.06,1.63,1.06-3.39-1.56-10.9-2.62-14.68,1,.66,2.5.63,3.53,1.26,0,0,.7-.71.77-.76-1.76-2.52-2.85-5.65-4.91-8.2-4.86-6-11.39-14.83-19.82-15.37C94,133.26,88.52,147.88,90.15,158c1-.42,1.49-1.62,2.62-1.91,1.32,4.34-.53,9.08.8,13.51A11.56,11.56,0,0,1,96.16,167c.65,1.59.08,3.84.22,5.63a22.88,22.88,0,0,0,1.42,6.2,16.08,16.08,0,0,0,1.4-2.48c-.24.51,1.16,6.5,1.18,7.76a19.21,19.21,0,0,1-1.26,7.24C100.28,191.36,100.68,192.05,101.82,190.87Z"/><path class="a" d="M96.84,171.34c2.35-.14,2.25,1.5,5,2.91,4.68,2.42,10.72-.47,15.43-1.84,6.82-2,11.75-5.1,15.9-10.8,1.54-2.12,4.17-4.64,5.34-6.9,1.47-2.84,4.8-8.27,5-11.06.4-5.34-5.81-13.16-7.74-18.06-3.58-9.1-5.3-12.87-16.93-14.37-7.66-1-14.53-4.12-22.26-4.78-8.45-.73-17,.76-25.16,2.22-8.73,1.56-17,4.26-25.67,5.71-7.45,1.25-16.45,3.12-21.73,8.88a26.23,26.23,0,0,0,6.13-.93c-5.68,5.81-11.45,12.61-17.56,17.92a17.29,17.29,0,0,0,5.22,1c0,2.66-6,10.33-7.93,13,1.82,1.56,3.64-.45,5.94-.91a61.25,61.25,0,0,0-.35,8.61c6.39-.71,5.2-6.24,7.35,1.56,1.88,6.82,2.77,2.47,6.91,1-.48.17.55,4.14.7,4.57,4.06-1.5,13.73-.71,17.87.36,3.86,1,6.73,4.46,10.7,5.36,4.4,1,6.47-2.76,10.45-3.49.62,6.48,6.31.77,9-.59,1.63,1.88,2,4.51,5,4.44,1.76,0,4.49-3.39,6.36-3.85-.31,1.85.57,2.32,1.18,3.63,1.24-1,3.28-3.25,5-3.57A6.39,6.39,0,0,1,96.84,171.34Z"/><path class="a" d="M115.56,134.59c-1.86,2.36,4,7.93,4.51,10,1.21,4.8-3.16,8.79-3,13.67a11.82,11.82,0,0,1,5.09-1.83c1.16,3.76-1.32,8-2.06,11.71,1.67-.69,3.39-1.47,5-2.32,0,4.24-3,9.26-3.78,13.6,1.34-.71,3.07-.94,4.41-1.81.41,4-2.15,7.62-2.62,11.36.84-.2,3.92-.36,4.47-.94-3.14,3.28-11.54,17.39-3.14,20.18,2.41.8,3.09-2,4.9-2.4,2.1-.5,1.93-.36,4.16.33,4.38,1.37,5.47,3.1,8.82-1.4,4.25,3.88,9.22.34,10.82-3.86,2.06-5.38-1-10.26-.37-15.22.41,0,2.33.1,2.41.7-.79-6.12-2.69-12.37-4.26-18.36.94,1,2.06,1,3.07,1.59-.76-5.52-3.39-10.27-4-15.8.54.39,1.69.77,2.3,1.26-.06-5.22-3.88-10.74-6.18-15.15a55.91,55.91,0,0,0,5.91,2.43c-.11-4.39-6.84-8.73-9.07-12.47-3.28-5.5-6.71-10.63-11.56-15.27Z"/><path class="d" d="M9.84,140.6c2-2.93,8.34-11.17,8.29-14a17.58,17.58,0,0,1-5.45-1.11c6.38-5.7,12.42-13,18.36-19.26a26.56,26.56,0,0,1-6.41,1c5.52-6.2,14.94-8.2,22.73-9.54s15.28-3.67,23-5.36c1.26-.28,2.53-.54,3.82-.78,8.58-1.58,17.48-3.18,26.32-2.39,8.08.72,15.26,4.08,23.27,5.14,12.18,1.62,14,5.66,17.72,15.44,2,5.28,8.51,13.68,8.1,19.42-.22,3-3.71,8.83-5.25,11.89-1.22,2.43-4,5.13-5.59,7.42-4.34,6.13-9.49,9.47-16.63,11.61-4.92,1.47-11.24,4.58-16.13,2-2.83-1.51-2.72-3.28-5.18-3.13a7,7,0,0,0-.92.13c-1.78.34-3.91,2.72-5.21,3.84-.64-1.41-1.55-1.92-1.24-3.9-2,.49-4.8,4.09-6.65,4.13-3.14.08-3.52-2.76-5.22-4.78-2.85,1.47-8.8,7.61-9.46.65-4.15.77-6.32,4.8-10.92,3.74-3.33-.77-5.93-3.29-8.9-4.82A11.19,11.19,0,0,0,50,157c-4.32-1.16-14.44-2-18.68-.4-.16-.46-1.24-4.73-.74-4.91-4.33,1.57-5.25,6.24-7.22-1.08-2.26-8.39-1-2.44-7.69-1.68a67.32,67.32,0,0,1,.36-9.25C13.65,140.12,11.75,142.28,9.84,140.6Z"/><path class="c" d="M173.71,108.44c.07-.28.15-.55.22-.83a25,25,0,0,1-4,2.85c1.65-5.21,3-11.55,1.27-16.87-3.73-11.62-21.94-38.39-.13-43,9.94-2.08,21.63-1,30.65,4,10,5.55,12.7,20.52,15.71,30.44,1.56,5.11,4.06,10.05,4.67,15.49.57,4.94.61,10,1.53,14.85.46,2.48.75,9.78,2.61,11.49-1.57-1.44-4.15-2.15-5.59-3.39-.31,9.85,2.65,20.78-.54,30.8a24.82,24.82,0,0,0-3.92-7,79.07,79.07,0,0,0-3.73,14.92c-2.41-3.89-4.5-8.29-7.18-11.8a44.07,44.07,0,0,0-2.92,12.59c-1.21-2.23-9.94-12.23-9.76-14.36-.43,5.26,1.33,11.05-.3,16.15-1.82-3.8-5.38-5.82-7.22-9.73-.41,2,.06,3.95.26,5.94.09.91-.35,5.17,0,5.63-1.5-2.2-3.75-8.83-5.64-9.6a27.55,27.55,0,0,0-2.39,5.07c-.33-2.22-1.3-4.38-1.76-6.59-.49-2.39-.28-5.43-.92-7.47a5.53,5.53,0,0,1-2.4,1.19c-.24-3.61,1.28-9.46,2.35-12.92a17.8,17.8,0,0,1-2.86,1.67c-1.45-3.61,2.23-11.29,3.1-15.25-1.75.32-2.78,3.09-4.68,2.93C171.42,120,172.29,114,173.71,108.44Z"/><path class="e" d="M149.38,137.14c-2.63,5.65-10,12.61-15.78,14.64-5.51,1.94-11.95,1.89-17.16,1.2-11.5-1.51-21.5-7.41-29.2-14.82C76,127.29,65,115.23,65.3,97.65c.14-8.77,1.08-16.92,7.83-24.65,17.69-20.28,36.16-9.1,51,1.3,14,9.8,33.16,26.86,29,47.67C152.21,126.45,151.41,132.77,149.38,137.14Z"/><path class="a" d="M140.4,159.65a94.83,94.83,0,0,0,15.51,7c8.51,2.73,16.18,6.45,25.28,6.53,5.3.05,10.8.3,16-.78,6.09-1.28,7.73-5.17,11.78-9.38,6-6.19,13.6-20.64,10.2-29.49-2.89-7.53-14.19-8.2-17.45-15.83-2.75-6.42,2.2-16,2.36-23,.51-23-13.8-38.06-33.79-48.14-8.18-4.12-18.46-10.31-27.91-7.26C134.09,42,125.12,45,117.93,50.13c-6.07,4.37-9.46,11.34-14.74,16.49C98.7,71,93.31,75,90.08,80.42c1.64-.41,8.15-1.3,9,1.07s-8.23,7.89-10,9.13a23,23,0,0,1,8.16,1.6c-2.86,3.14-9.32,4.64-11.51,8.22,3.86,2.35,7.09,3,11.38,3.77a35.26,35.26,0,0,0-9,6.7c3.83.86,7.79,2.47,12,2.81-2.53,2-6,2.59-8.17,4.89,3.44,2,9.93,4.19,12.24,6.84a22.1,22.1,0,0,0-8.79,1.63c4,5,12.67,5.15,15.82,9.86A6.76,6.76,0,0,1,107,138.6c3.24,2.18,7.59,4.19,11.49,4-1.08,1.38-2.49,2.58-3.67,3.82,3.58,2.7,8.68,2,12.56,4.8A118.23,118.23,0,0,0,140.4,159.65Z"/><path class="d" d="M185.16,78.46C188,81.75,191.45,93,187,96.19c-5.83,4.13-7.76-4.92-10.68-8-4.22-4.46-10.6-6.62-15.84-9.45,1.83-1.34,3.25-2,5.7-1.42-.33-3-3.36-4.19-5.95-4.81C167.74,68,179.51,71.88,185.16,78.46Z"/><path class="f" d="M185.93,100.23l-19.42-13.8a13.15,13.15,0,0,0-1.95,2.51c-3.63,6.07-1.87,13.67,3.94,17s13.46,1,17.09-5.05C185.72,100.65,185.81,100.44,185.93,100.23Z"/><path class="g" d="M183.73,101.07a4.22,4.22,0,0,0,.58-2l-5-3.55a4.3,4.3,0,0,0-2.16,1.81,3.82,3.82,0,0,0,1.19,5.35A4,4,0,0,0,183.73,101.07Z"/><path class="a" d="M195,184.73c2.48-5.18,5.55-12.45,1.38-17.34-3.28-3.84-8.12-6.08-12.35-8.68-8.13-5-17.87-8.38-27.48-8.23-3.87.06-9.4.4-12.26,3-.88.8-4.61,7.84-6.39,5.73,2.57,3.06,5.59,3.64,9.24,4.35a32.66,32.66,0,0,1-4.24,1.27c2.75,2.7,6.88,3.27,10.54,3.45-1.36.91-3.21,1.65-4.21,2.89,2.47,1.75,7.9,3.26,10.72,2a5.78,5.78,0,0,0-2.37,3.47c3.17,1.26,10.4,3.13,13.55.84-2.23,1.62-4.72,3.18-6.92,4.88a30.72,30.72,0,0,0,13.54-.86,11.59,11.59,0,0,0-2.83,6.43c4.26.37,8.95-1.4,12.76-3.41.86,2.57.79,5.76,1.94,8.25A29.36,29.36,0,0,0,195,184.73Z"/><path class="h" d="M179.86,175.48c-1.64-.43-2.62-1.52-1.76-4.13,1.63-4.92,7.68-9.85,12.94-9.94a10.27,10.27,0,0,1,7.21,3.3c2.94,3.46-.42,6.11-2.81,8.79-2.57,2.88-6.21,1.9-10.07,2.1A20.16,20.16,0,0,1,179.86,175.48Z"/><path class="d" d="M181.28,172c1.64.14,3.27.27,4.9.36,11.51.64,19.31-1.55,25.06-10.07,4.61-6.81,5.93-15.62,1.22-23.88s-13.7-14.17-22.77-17.71c-15.19-5.91-36.53-4.84-46.34,5.92,2.18-.79,4.64-.31,7,.45-1.8,3.31-7.24,5.92-10.33,8.08-1.61,1.12-6,2.88-5.06,5.39.44,1.17,8.09,4.28,8.61,4-3.79,2.05-8.2,4.42-11.42,7.16,4.93,3,10.05,5.42,15.67,5.88-1.36,1.16-3.13,2-4.14,3.51,6.29,1.53,13.45.32,19.6,1.88-.69.76-.8,2.13-1.56,2.91a55.84,55.84,0,0,0,16.55,1.43c-.83,1.44-1.62,2.9-2.46,4.33C177.63,171.68,179.46,171.82,181.28,172Z"/><path class="d" d="M181.19,111.3c-2.18.13-3.88.39-4.3.87,3.29,1.68,7,2.24,10.31,3.94a47.7,47.7,0,0,1,11.07,7.48c-3.93.49-8.27,1.35-11.82,3.33,2.56,2.14,6.85,2,9.84,3.25,3.79,1.65,7.61,4,11.44,5.81,2.23,1.05,11,4.37,12.93,1.83.6-.81-1.65-5.89-2.1-6.77-2.84-5.46-8.85-6.11-13.15-9.77-5-4.22-2.44-9.06-5.12-13.4-2.26-3.68-9.17-6.57-13.45-6,2.87,2.72,7.36,5.6,7.53,9.77C194.37,111.46,186.4,111,181.19,111.3Z"/><path class="h" d="M213.59,129.19c-9.71-3.92-18.25,1.31-13.77,12.7,3.59,9.11,22.34,14.51,26.34,2.19C228.64,136.44,219,131.39,213.59,129.19Z"/><path class="g" d="M223.88,141.79c-1,1.54-4.1,1.3-6.87-.54s-4.19-4.59-3.17-6.13,4.11-1.3,6.88.54S224.91,140.25,223.88,141.79Z"/><path class="c" d="M115.94,31.06c12.3-3.72,47.33-5.44,42.79,15.79-2.68,12.56-17.88,23.71-28.7,29.79-.1-.79-.55-1.58-.71-2.36-2.15,3.17-7.47,6.84-11.49,7,.12-.32,0-.95.09-1.27-2.31-.47-3.71,1.93-5.06,3.24S109.3,85.7,108,87.22a3.72,3.72,0,0,1,.19-2.31c-3.2,1.44-5.53,5.1-8.81,6.15a7.9,7.9,0,0,1,.6-2.58,38.18,38.18,0,0,1-15.5,4.58c-5.56.33-5-7.68-4.51-11a23,23,0,0,1,2.29-6.37c1.34-3,1.63-6.33,2.7-9.42C89.76,52.52,101.41,35.45,115.94,31.06Z"/><path class="d" d="M112.39,73l.5-.67a24.65,24.65,0,0,0,.79,5c2.9-4.48,6.95-9.37,12.5-11.15,7.14-2.28,14.78-1.79,21.2-5.81,9.37-5.88,17.67-16.71,12.37-28.55-2.67-6-6.4-7.44-12.31-9.64-5.57-2.08-11.12-4.3-16.9-5.41-5.56-1.07-9.8.37-15.18.78-6.42.48-11.75,3.49-17.58,5.46-5.26,1.78-11.11,2.68-15.93,5.43-4.37,2.49-8.41,5.46-13,7.64-2.32,1.1-8.38,5.22-11.15,4.72,2.34.42,4.86,2.13,6.95,2.57C57,49.54,46,53.64,40.46,62.26A27.34,27.34,0,0,1,49,61.33a66.44,66.44,0,0,1-9.07,12c4.95-.35,10-1.25,14.89-1.15C53,76,49.92,79.26,47,82.12c2.71-.33,17.33.86,18.9-.56-3.87,3.51-9.83,5.52-12.66,9.92,4.42-.78,8.74,1,13.26.12-1.28,1.53-3.21,2.31-5,3.34-.79.47-3.85,3.38-4.46,3.39,2.9-.07,9.9-2.2,12-1.1a23.53,23.53,0,0,1-2.23,5c2-1.06,4.49-1.56,6.6-2.51,2.28-1,4.55-3,6.66-3.7A5.88,5.88,0,0,0,81,98.71C84,96.74,87.52,92,89.47,89a18,18,0,0,0,.84,3.36c4-1,7.32-8.6,9.82-11.68,1.08,1.63-.35,4.14,1.23,5.6C104.91,81.8,109,77.49,112.39,73Z"/><path class="d" d="M131.18,31.47a17.9,17.9,0,0,0,3.92-.69c5-1.61,9.11-5.63,14.79-5,6.22.64,11.13,8,17.14,8.29s6.93-10.28,7.33-14.36a71.22,71.22,0,0,0-.1-9.24c-.11-2.72-2-8.07-.61-10.43,3.64,1.73,5.29,5.81,8.66,7.62a35.58,35.58,0,0,0,1.49-4.4c2.87,1.32,3.77,5,3.15,7.87,2.63-.9,5-2.68,7.92-3.23,0,1.73-1.2,3.2-2.2,4.62,3.06.2,6.63-.22,9.43.88a3.49,3.49,0,0,0-1.43.6c-2.08,2.23-6.91,3.2-9.61,4.78A29.86,29.86,0,0,0,184.39,24c-10,10.46,4,17,10.33,24,.2.22.38.45.57.67l1.31-.62c3.26,2,6.36,3.81,8.54,5.49,2,1.54,10.5,7,8.53,10.39-1.32,2.26-5.54.49-7.2.43-.48,0-.89,0-1.27,0,3,6.22,2.69,12.07,4.28,18.77-2.77-2.1-4.38-5.83-7.81-7.54,2.15,3.51,3.26,10.86,1.59,14.69-4.54-2.47-5.57-10.15-10.38-12.81a41.47,41.47,0,0,0-2.2,7.4c-3.13-2.62-2.86-8-6.35-10.77-2,2.31-2.48,5.29-4.06,7.74-2.82-5.36-4.59-12.62-7.89-17.48-1.41,2.41-1.78,5.52-2.72,8.18-1.9-3-2.18-7.66-4.55-10.19-2,1.9-3.82,3.73-6.46,4.7a10.24,10.24,0,0,1,1.61-8.33c-4.11.67-9.47.63-13.34,1.93,1-1.74,2.15-3.46,3.13-5.18-4.72-.2-9.43-2.67-13.71-4.25,1.77-2.53,7.2-1.19,10-2.43-.94.42-12.28-1-13.18-2.11-2.4-3,5.38-5.71,7.28-8C140.23,38.91,132,32,131.18,31.47Z"/><path class="e" d="M156.78,16.23c3.78-1.38,12.32,7.08,15.38,13.59,3-3.13,7.7-4.35,11.71-.12A8.89,8.89,0,0,1,185.43,32c6.69-2.47,16.83-3.06,18.7.12,1,1.71-4.67,18.9-6.22,20.1-4.52,3.52-11.65-5-14.56-8.64l-.65-.8a7.9,7.9,0,0,1-8.59.81,7.75,7.75,0,0,1-4.69-6c-1.44.42-3,.67-3.89.87-4.54.93-15.42,2.92-16.68-2.7C148.41,33.78,154.93,16.91,156.78,16.23Z"/><path class="d" d="M78.51,139.07c1.62,2.53-4.76,7.49-5.49,9.53-1.69,4.66,2.26,9.07,1.6,13.91a11.84,11.84,0,0,0-4.88-2.34c-1.52,3.63.52,8.06.88,11.86-1.6-.85-3.22-1.8-4.77-2.81-.48,4.21,2,9.51,2.4,13.91-1.27-.84-3-1.24-4.21-2.24-.81,3.93,1.38,7.8,1.47,11.56-.82-.27-3.86-.75-4.35-1.37,2.79,3.57,9.74,18.45,1.1,20.38-2.48.56-2.87-2.26-4.63-2.87-2-.71-1.89-.56-4.17-.09-4.5.93-5.76,2.53-8.64-2.27-4.62,3.43-9.21-.59-10.38-4.93-1.51-5.56,2-10.12,1.89-15.1-.4-.09-2.33-.14-2.46.45,1.39-6,3.91-12,6.07-17.84-1,.85-2.15.74-3.22,1.27,1.31-5.42,4.4-9.87,5.6-15.32-.57.34-1.76.6-2.41,1,.58-5.19,4.93-10.29,7.66-14.46a53.44,53.44,0,0,1-6.12,1.83c.55-4.36,7.69-8,10.27-11.5,3.82-5.15,7.75-9.91,13-14Z"/></svg>