<svg xmlns="http://www.w3.org/2000/svg" width="273.09" height="284.72" viewBox="0 0 273.09 284.72"><defs><style>.a{fill:#543d29;}.b{fill:#231f20;opacity:0.3;}.c{fill:#7c6349;}.d{fill:#fff200;}.e{fill:#fff;}.f{fill:#a00a2b;}</style></defs><path class="a" d="M23.14,141.33c7.23,5.75,16,9.8,25,10.34,15.22.91,4.53-12.92-2.5-17.74A53.11,53.11,0,0,1,32,120.65c-3.88-5.38-8.39-11-12.61-16.23-2.48-3.06-5.13-6.24-8.81-7.69S1.88,96.37.54,100c-2.92,7.87,6.72,22.64,11,28.88A57.71,57.71,0,0,0,23.14,141.33Z"/><path class="a" d="M172,48.51c-1.5-10.64-9.3-21-19.26-25.49a64.63,64.63,0,0,0-18.21-5.1,61.44,61.44,0,0,0-15.35.39C114.05,19,109.07,21,106.05,25a339.64,339.64,0,0,1,30.64,37.21C142,69.76,146.57,80.86,157,78.55,166.61,76.41,173.39,58.21,172,48.51Z"/><path class="b" d="M21.59,270.47c0,7.87,45,14.25,100.52,14.25s100.54-6.38,100.54-14.25-45-14.26-100.54-14.26S21.59,262.59,21.59,270.47Z"/><path class="a" d="M175.77,155.77c5.88-15.22,27.12-19.57,32-1,4.32,16.26-2.59,32.86-6.33,48.6-1.93,8.08-9.91,40.88-6,47.43.9,1.49,6.83,8.49,5.3,12-1.66,3.77-7.45,4.42-12.18,3.91-10-1.08-12-4.2-13-7.68-3.58-12.2-4.66-35.14-4.5-46.54C171.4,192.18,168.16,175.43,175.77,155.77Z"/><path class="a" d="M67.43,148.7c9.72-20.1,20.58-15.34,39.12-2.07,14.24,10.19,17.93,32.46,7.82,48.61-5.79,9.24-17.73,12.55-21.38,21.15-1.26,3-6.63,32-6.71,33.88-.11,2.73,4.32,4,5.46,8.35.55,2.1-.1,5.9-3.73,7A22.31,22.31,0,0,1,75.26,265c-8.65-3.24-10.68-18.58-11.75-29.79-1.14-12-.45-24-1.59-35.81C60.64,186.13,60.84,162.33,67.43,148.7Z"/><path class="a" d="M70.22,173.17a119,119,0,0,1,23.53,2.39c10.33,2.3,20.09,6.71,30.38,9.21,12.64,3.07,25.81,3.18,38.81,2.84,9.72-.25,19.61-.78,28.72-4.17a37.17,37.17,0,0,0,16.2-11.39c-3.37,9.19-10.37,17.6-21.34,24-20.89,12.12-39.87,7.24-61.68,2.47-9.44-2.06-19.11-7.14-28.64-8.07-13.37-1.31-30.5,4.23-43.4-1.75-7.73-3.58-13.15-7.48-16.42-14A265.55,265.55,0,0,1,70.22,173.17Z"/><path class="c" d="M191.66,183.44c-9.11,3.39-19,3.92-28.72,4.17-13,.34-26.06,1-38.92-1-11-1.67-30.4-5.21-40.73-7.51-7.71-1.72-5.47-2.3-13.07-6a265.55,265.55,0,0,0-33.84,1.48A30.25,30.25,0,0,1,34,168c-1.78-7.45,2.2-18.52,7.5-24.06,3.06-3.2,7.63-7.12,11.87-8.41,20.22-9.2,57.87-11.59,85.72-8.61,17-3.35,10-14.35,23.26-14.89s20.27,1.15,29.82,9.78c16,14.42,21.77,33.61,15.69,50.23A37.17,37.17,0,0,1,191.66,183.44Z"/><path class="c" d="M34.06,157.69c9.73-20.11,20.58-15.35,39.13-2.08C87.42,165.8,91.11,188.07,81,204.22c-5.79,9.24-17.73,12.55-21.37,21.15-1.27,3-6.64,32-6.72,33.88-.11,2.73,4.33,4,5.46,8.35.56,2.1-.09,5.9-3.73,7A22.49,22.49,0,0,1,41.89,274c-8.64-3.24-10.68-18.58-11.75-29.8-1.14-12-.45-24-1.59-35.8C27.27,195.11,27.48,171.32,34.06,157.69Z"/><path class="c" d="M142.88,165c6.3-15.22,29-19.57,34.31-1,4.63,16.26-2.77,32.86-6.78,48.6-2.06,8.08-10.6,40.88-6.36,47.43,1,1.49,7.31,8.49,5.67,12-1.78,3.77-8,4.42-13,3.91-10.73-1.08-12.85-4.2-13.94-7.68-3.83-12.2-5-35.14-4.82-46.54C138.21,201.36,134.74,184.61,142.88,165Z"/><path class="c" d="M147.43,115.79c3.83-8.22,6.69-29.75,6.79-37.13.12-8.87-.52-17.26,1.86-25.78a68.78,68.78,0,0,1,3-8.84l67.07,59.05c-8.25,6.06-15,32.21-16.18,35.82-5.2,15.49-30.72,8.26-45.38,2C157,137.69,143,125.29,147.43,115.79Z"/><path class="c" d="M201.87,120.85a65.48,65.48,0,0,1-17.38,1.41c-10.89-.57-21.17-8.55-28.72-16.21-9.72-9.86-13.38-17.31-13.87-29-.23-5.27-1.57-9.31-.32-14.79,1.1-4.82,11.45-21.87,13.32-24.86,8.11-13,25.1-17.92,39.57-17C207,21.25,209,27.71,217,18.28c4.8-5.7,5.36-13,13.53-14.88,7-1.64,14.78,1.42,19.62,6.65,1.92,2.06,5.2,4.25,7.62,6.15,5.9,4.63,15.52,9.45,15.34,18-.19,9.66-11.53,17.87-16.38,26.06C244,81.64,245.31,98.7,221.78,113A65,65,0,0,1,201.87,120.85Z"/><path class="d" d="M147.43,115.79c15,22.46,35.5,26.08,62.57,23.12,2.05,3.1,1.51,10.49-.53,12.38-2.54,1-47.3,9.78-70.38-24.36,0,0,.38-4.78,3.19-7.62A16,16,0,0,1,147.43,115.79Z"/><path d="M223.69,23.68c12.05,3.4,24.74-17.37,15.5-22.11-8.32-4.27-12.78,1.08-15,5.38C221.34,12.32,215.51,21.37,223.69,23.68Z"/><path class="e" d="M234.44,1.78c1,1.11.06,3.65-2.14,5.67s-4.82,2.76-5.84,1.64-.06-3.65,2.14-5.67S233.42.67,234.44,1.78Z"/><path d="M194.49,34.75a3.38,3.38,0,0,1,0,.45,154.31,154.31,0,0,0,0,19.72A2.93,2.93,0,0,1,192,58.17a3,3,0,0,1-3-2.93h0c-.28-4.17-.4-8.44-.34-12.76C184.7,46.67,180.82,51,177,55.39a2.6,2.6,0,0,1-3.95,0,3.35,3.35,0,0,1-.13-4.38c5.44-6.33,11.1-12.53,16.81-18.44a2.57,2.57,0,0,1,3.12-.48A3.24,3.24,0,0,1,194.49,34.75Z"/><path d="M253.43,25.09a1.38,1.38,0,0,0,.84-2.48L239.21,11a1.39,1.39,0,1,0-1.69,2.2L252.58,24.8A1.35,1.35,0,0,0,253.43,25.09Z"/><path class="f" d="M263.37,23.9c8.33,8,1.45,16.29-11.24,9-7.58-4.38-7.32-18.15,5.45-13A18.31,18.31,0,0,1,263.37,23.9Z"/><path class="c" d="M137.07,100.31c-12.11,1.41-25.55-4.28-33.18-14A72.4,72.4,0,0,1,93.45,67.51,69.82,69.82,0,0,1,89.8,50.35c-.66-5.91.3-12,3.91-16.54a375.41,375.41,0,0,0,49.1,23.3c9.71,3.77,23.14,5.59,23.36,17.83C166.37,86.25,148.12,99,137.07,100.31Z"/><path class="a" d="M136.8,93.73c-8.75.76-18.6-3.46-24.31-10.42A53.73,53.73,0,0,1,104.58,70c-1.64-4-3.37-7.56-4-11.7s-.64-9.73,1.9-12.81a322,322,0,0,0,37.67,18.14c7.11,2.81,16.87,4.32,17.25,12.88C157.79,84.43,144.79,93,136.8,93.73Z"/><path class="c" d="M146.59,63.78s.17,16.74,6.52,25.59l10.2-10.51-1.54-10.27Z"/></svg>