<svg xmlns="http://www.w3.org/2000/svg" width="199.32" height="229.69" viewBox="0 0 199.32 229.69"><defs><style>.a{fill:#2d2a21;}.b{fill:#231f20;opacity:0.3;}.c{fill:#e5e5e5;}.d{fill:#d3834c;}.e{fill:#454136;}.f{fill:#fefefe;}.g{fill:#bcac39;}.h{fill:#fff;}.i{fill:#0b0808;}.j{fill:#912f41;}.k{fill:#b7375c;}</style></defs><path class="a" d="M29.81,162.39c0-2.89-.68-9-4.87-6.56-1.53.89-1.83,2.78-3.77,3.15-2.44.46-6.78-.77-9.26-1.73-3.84-1.47-7.61-4.47-10.78-7-2.29,3.68-.75,12.24,1.54,16.32A15.59,15.59,0,0,0,7.19,172a28.25,28.25,0,0,0,4.62,2.49c2.44,1.07,4.43.45,6.82.6,2.2.13,3.55.15,5.39-1.1A14.52,14.52,0,0,0,29.81,162.39Z"/><path class="b" d="M177,207.84c0,12.07-37,21.85-82.69,21.85s-82.7-9.78-82.7-21.85S48.64,186,94.31,186,177,195.77,177,207.84Z"/><path class="a" d="M63.71,194c-10.23.53-17.89-10.78-19.82-20.69-1.81-9.26-1.74-20.07,5.24-27.2C55.43,139.7,61.66,133,71,131.07a34.19,34.19,0,0,1,18.46.85c9,3.22,16.09,9.32,17.59,19.18,1.68,11.13-2.62,20.68-7.41,30.21-2.16,4.29-4.36,6.56-1.09,10.33,3,3.46,8.81,3.5,8.86,9.43-6.21,2.23-23.45,4.16-29.68,1.56-8.66-3.63,3-16.38,5-22.59-.41,4-8.42,9.7-11.56,11.57A16.19,16.19,0,0,1,63.71,194Z"/><polygon class="a" points="144.69 201.71 125.17 201.29 124.82 128.02 144.33 128.44 144.69 201.71"/><path class="c" d="M124.71,201.61c.12,5.78,7,10.4,15.38,10.31s15.08-4.84,15-10.62-7-10.4-15.38-10.32S124.6,195.83,124.71,201.61Z"/><path class="d" d="M63.39,165.62c-.28,11.32,7.93,20.71,18.33,21s19.07-8.69,19.35-20-7.93-20.71-18.33-21S63.67,154.31,63.39,165.62Z"/><path class="e" d="M89.33,155.28A184.27,184.27,0,0,1,133,134.77a41,41,0,0,0-1.56-8.47c-3.5-12.15-8-21.18-16.61-30.72C101.09,80.32,77.51,83.09,63,96c-6.74,6-11.36,11.79-15,19.92s-5.59,15.22-12.33,21.18S20.4,150.37,16.23,159.19c-4.77,10.08-2.57,18.71,2.93,25.62,5.29,6.64,13.66,11.68,21.83,14.85C51,184.83,67.92,168.8,89.33,155.28Z"/><path class="c" d="M68.55,198.45c9.53-5.35,20.68-8.12,29.49-14.77,7.85-5.92,16.06-12.5,22.88-19.74,8.52-9,12.92-18.19,12.1-29.17a184.27,184.27,0,0,0-43.69,20.51C67.92,168.8,51,184.83,41,199.66a64.74,64.74,0,0,0,8,2.54C56.93,204.16,61.81,202.23,68.55,198.45Z"/><rect class="e" x="68.77" y="162.73" width="73.09" height="19.52" transform="translate(-67.8 276.76) rotate(-89.66)"/><path class="f" d="M93.78,211c.13,5.79,7,10.33,15.37,10.14s15-5,14.91-10.83-7-10.33-15.37-10.14S93.65,205.17,93.78,211Z"/><path class="g" d="M70.86,85.75l8.9-1.52a40.63,40.63,0,0,0-2.37,13.23c0,14.11,3.62,29.26,14.27,38.33,6.08,5.18,12.84,9.26,20.93,9.22,6.7,0,13.26-.82,19.29,3.05,5.61,3.62,4,7.17-2.15,8.55-7.41,1.65-16.38.84-23.64-1a63.69,63.69,0,0,1-20.72-8.87c-12.7-8.66-19.43-22.57-20.37-37.89C64.48,100.51,67.14,92.62,70.86,85.75Z"/><path class="e" d="M39.91,210.46C29.68,211.07,21.7,199.89,19.7,190c-1.87-9.25-1.87-20.06,5.06-27.24,6.26-6.49,12.44-13.24,21.72-15.23a34.23,34.23,0,0,1,18.47.72c9.06,3.15,16.14,9.21,17.71,19.07,1.21,7.64-.57,15.1-3.45,22.14-2.41,5.9-7.26,11.24-9.07,17.18,4.26-.57,10.33-.13,12,4.8C86,222.62,58.05,220.83,53.7,219c-8.69-3.56-1.48-9.27.87-15.63C49.87,211.43,42.27,210.32,39.91,210.46Z"/><path class="e" d="M162.27,25.08c4.29-4.37,18.52-22,26.15-17.36,3.89,2.38,1.47,10.49,2.05,14.75,1.74,12.8,2.12,19.79-3.66,27.1a49,49,0,0,1-8.54,8.09A10.82,10.82,0,0,1,173.21,60c-3.93.6-7.22-1.73-12.24-1.77-5.25-.05-8.68.55-11.36-4.14a19.05,19.05,0,0,1-1.08-2.29C143.7,39.67,155.16,32.33,162.27,25.08Z"/><path class="f" d="M124,124.2c4.29-5.85,10.48-9.55,16.09-13.92,6.4-5,8.08-12.31,7.23-20.22a79.84,79.84,0,0,0-6.11-21.17c-2.94-6.42-7.94-11-13.44-15.19-2.39-1.82-5.47-4.85-8.31-5.83-1.89-.64-5.35-.38-8.47-.56l.3-.08c4.64-1.23,9.36-1,14.39-.21,6.23,1,8.19.91,13.33-1.1.72-.29,1.45-.54,2.19-.77l.18,0c.68-.21,1.37-.4,2.06-.57h0a36.67,36.67,0,0,1,4.55-.79h0c.38.29.76.59,1.12.89,6.09,5,10,9.94,13,17.59a34.15,34.15,0,0,1,2.69,11c.17,3.52-.59,7.44,1.22,10.66,6.12,10.85,21.59,8.6,30.88,14.12h0c.26.66.5,1.33.71,2a1.09,1.09,0,0,1,0,.17c.2.63.38,1.27.53,1.91.06.23.1.46.15.69.1.51.21,1,.29,1.52.13.79.23,1.58.29,2.38,1.07,13.73.89,27.31-12.93,35-2.28,2.48-5.58,3.85-9.38,5.84-15.81,8.28-35.15,6.87-51.81,5.21-.91-.09-1.83-.2-2.76-.32l-1.63-.25-1.15-.18c-.74-.12-1.48-.26-2.23-.41l-.55-.11c-.85-.17-1.71-.37-2.58-.57l-.2,0c-.93-.23-1.86-.47-2.78-.73h0a69.22,69.22,0,0,1-8.36-2.95h0c2.82-1.21,5.77-2.22,7.66-3.58C116.93,138.72,119.19,130.8,124,124.2Z"/><path class="e" d="M76,86.68c.84-6.05.74-11.8,3.13-16.56C86.47,55.56,97.73,50.88,111,47.31c3.12.18,6.58-.08,8.47.56,2.84,1,5.92,4,8.31,5.83,5.5,4.16,10.5,8.77,13.44,15.19a79.84,79.84,0,0,1,6.11,21.17c.85,7.91-.83,15.24-7.23,20.22-5.61,4.37-11.8,8.07-16.09,13.92-4.83,6.6-7.09,14.52-13.81,19.34-1.89,1.36-4.84,2.37-7.66,3.58-8.23-3.53-15.75-8.84-20.64-16.54C74.91,119.58,73.89,102,76,86.68Z"/><path class="e" d="M166,83.84c-1.81-3.22-1.05-7.14-1.22-10.66a34.15,34.15,0,0,0-2.69-11c-3-7.65-6.86-12.54-13-17.59-.36-.3-.74-.6-1.12-.89,9.14-1,18.77,1.22,26.84,5,7.52,3.53,19,10.7,20.35,20.83A12,12,0,0,1,196,72.8a22.35,22.35,0,0,1-4.9,15.92A29.51,29.51,0,0,1,196.9,98C187.61,92.44,172.14,94.69,166,83.84Z"/><path class="h" d="M99.87,88.41c-.22,10.68,5.2,19,21.84,19.46,8.75.23,16.63-7.05,17.68-17.68s-5.14-20-13.85-20.83S100.14,75.59,99.87,88.41Z"/><path class="i" d="M112.58,88c-.69,6.92,3.86,13.05,10.17,13.68s12-4.48,12.67-11.41-3.87-13-10.17-13.68S113.27,81,112.58,88Z"/><path class="f" d="M123.53,87.67c-1.45,3.25-4.08,5.24-5.88,4.44S115.58,88,117,84.77s4.09-5.25,5.88-4.45S125,84.41,123.53,87.67Z"/><path class="h" d="M167,75.35c-.76,7.59,4.47,14.33,11.67,15S192.34,85.54,193.1,78s-4.47-14.33-11.68-15.05S167.77,67.76,167,75.35Z"/><path class="i" d="M173.61,77c-.54,5.39,2.9,10.14,7.69,10.62s9.1-3.51,9.63-8.9-2.9-10.15-7.69-10.62S174.14,71.55,173.61,77Z"/><path class="f" d="M181.06,76.42c-1.09,2.44-3,4-4.29,3.37s-1.45-3-.36-5.44,3-3.95,4.29-3.37S182.15,74,181.06,76.42Z"/><path class="e" d="M92.28,26.16c3.59-6,14.78-29.34,24.07-25.8,4.73,1.81,4,11.59,5.62,16.3,4.85,14.15,6.87,22,2.37,31.67A56.67,56.67,0,0,1,117,59.5a11.82,11.82,0,0,1-4.88,3.88c-4.08,1.6-8.16-.29-13.56.82-5.65,1.17-9.2,2.64-13.17-2.07a20.56,20.56,0,0,1-1.69-2.35C75.71,47.06,86.32,36.06,92.28,26.16Z"/><path class="a" d="M122.28,47.71c1.46-10.68-.63-20.08-4-30.19-.39-1.16-.54-3.39-1.53-4.31-1.64-1.54-1.15-.38-3.08-.6-2.62-.31-3.44-.92-5.16,2.15-2.84,5.07-4.62,10.56-8.49,15.06-4.73,5.51-9.35,12.74-10.56,20.44a18.38,18.38,0,0,0,2,10.92c4.45,4.25,7.82,2.39,13.31.62,5.26-1.7,9.52-.27,13.4-2.3A28.77,28.77,0,0,0,122.28,47.71Z"/><path class="a" d="M185.09,46c2.85-8.69,1.72-15.27.86-24.51-.1-1.05,1.26-4.74.67-5.74-1-1.64-.8-.56-2.21-1.16-1.91-.81-2.43-1.5-4.22.71-3,3.67-5.21,7.92-8.85,10.88-4.46,3.64-9.11,8.74-11.28,15a17.87,17.87,0,0,0-.31,9.62c2.64,4.53,5.48,3.69,9.89,3.36,4.22-.31,7.18,1.81,10.43.92A24.56,24.56,0,0,0,185.09,46Z"/><path class="j" d="M173.39,123.07c-1.38-.83-3.73-.24-5.11.18-3.35,1-6.52,2.79-10,3.55a55.65,55.65,0,0,1-12.66,1.74c-1.87,0-7.88-3.23-7.84.44,0,2.24,1.92,4.42,3.77,5.84,2.36-3,6.3-6.18,10.64-6.1,1.51,0,2.45.65,3.7.6,1.55,0,3.07-.58,4.79-.57a17.4,17.4,0,0,1,7.4,1.32c1.42-1.43,2.75-3,4.24-4.3C173.61,124.65,175.33,124.25,173.39,123.07Z"/><path class="k" d="M143.76,136.2a11.38,11.38,0,0,1-2.22-1.38c-.39.5-.73,1-1,1.46-2.76,4.43-2.32,9.51-4.27,14.13-1.38,3.26-1.81,7.94,2.58,9.72a16.45,16.45,0,0,0,11.12-.14,11.27,11.27,0,0,0,4.32-2.76,10.51,10.51,0,0,0,2.36-4.87,32.67,32.67,0,0,1,1.31-4.76c.85-2.08.82-3.55,1.39-5.89.48-2,.45-4.27,1.48-6.16l.22-.38a8.54,8.54,0,0,1,1.1-1.34c-2.74,1.08-5.62,2-8.39,2.84A14.74,14.74,0,0,1,143.76,136.2Z"/><path class="k" d="M155.88,129.32c-1.25.05-2.19-.57-3.7-.6-4.34-.08-8.28,3.06-10.64,6.1a11.38,11.38,0,0,0,2.22,1.38,14.74,14.74,0,0,0,10,.47c2.77-.81,5.65-1.76,8.39-2.84a8.93,8.93,0,0,1,2.48-1.72c.33-.16,1.33-.61,2.33-1,.39-.34.77-.69,1.14-1.06a17.4,17.4,0,0,0-7.4-1.32C159,128.74,157.43,129.27,155.88,129.32Z"/><path class="i" d="M156.79,96.37c.43,5.27,7.31,8.94,15.38,8.21S186.44,99,186,93.72s-7.31-8.94-15.38-8.21S156.37,91.11,156.79,96.37Z"/><path class="f" d="M167.57,95.4c-3.26,1.24-6.43.85-7.08-.85s1.47-4.1,4.73-5.34,6.42-.85,7.07.86S170.82,94.16,167.57,95.4Z"/><path class="i" d="M172.61,123.28a1.74,1.74,0,0,0,1.62-1.3c4.38-11.12.37-19.28.19-19.62a1.27,1.27,0,0,0-2.26-.33,3.25,3.25,0,0,0-.4,3.36c.13.27,2.93,6.18-.31,14.42A2.93,2.93,0,0,0,172,123,1.22,1.22,0,0,0,172.61,123.28Z"/><path class="i" d="M141.66,130.33c10.29,2.5,27.58-4.87,31.6-6.69,7.69,5.11,13.14,6.53,16.65,4.33A7.25,7.25,0,0,0,193,122.2a1.7,1.7,0,0,0-1.66-1.82,1.87,1.87,0,0,0-1.72,1.88,3.31,3.31,0,0,1-1.35,2.51c-1.08.66-4.63,1.52-13.9-4.81a1.52,1.52,0,0,0-1.54-.11c-6.82,3.22-26.08,10.54-33.14,5.66-1.73-1.19-2.6-3.08-2.66-5.76a1.67,1.67,0,0,0-1.72-1.74,1.89,1.89,0,0,0-1.65,2c.08,3.94,1.47,6.87,4.15,8.71A11.27,11.27,0,0,0,141.66,130.33Z"/></svg>