<svg xmlns="http://www.w3.org/2000/svg" width="223.55" height="264.59" viewBox="0 0 223.55 264.59"><defs><style>.a{fill:#231f20;opacity:0.3;}.b{fill:#99550a;}.c{fill:#e8d7d1;}.d{fill:#212121;}.e{fill:#bc6906;}.f{fill:#fff;}.g{fill:#514539;}.h{fill:#3a3a3a;}.i{fill:#0096fc;}.j{fill:#c9b7b1;}.k{fill:#ad9993;}</style></defs><path class="a" d="M212.53,246.14c0,8.5-32.83,18.45-76.3,18.45s-84-7.31-84-15.81,32.14-15.38,75.62-15.38S212.53,237.65,212.53,246.14Z"/><path class="b" d="M191.69,170.43c4.4.42,8.15,3.85,10.31,8,3.69,7.07,4.16,17,4.41,25a70,70,0,0,1-4.83,27.94c2.49-.11,4.13,3.21,3.43,5.79s-2.91,4.34-5.14,5.53c-6.79,3.64-15.31,3.66-21.74-.59a21.06,21.06,0,0,1-9.1-17.13,69.78,69.78,0,0,0-.14-10.21,44.37,44.37,0,0,1,.44-13.8,43.37,43.37,0,0,1,9.14-19.42c1-1.21,2.54-2.28,3.39-3.56s.93-2.65,1.8-3.84A9.2,9.2,0,0,1,191.69,170.43Z"/><path class="c" d="M182.38,221.24a15.58,15.58,0,0,1,4.21-3.21,23.16,23.16,0,0,1,14.74-2.5,21.42,21.42,0,0,1,4.22,1.19,68.48,68.48,0,0,1-4,14.61c2.49-.11,4.13,3.21,3.43,5.79s-2.91,4.34-5.14,5.53c-6.79,3.64-15.31,3.66-21.74-.59l-.46-.34c-.07-.16-.14-.32-.2-.49-1.7-5.21-.13-10.94,2.29-15.85A18.23,18.23,0,0,1,182.38,221.24Z"/><path class="d" d="M75.27,42.24c-2.34-5.33-4.42-15-4.19-25.11.11-4.37,1.19-5.47,3.64-8.74C78.07,3.94,85.45,2,90.55.84c15.74-3.45,30.7,4.08,39.91,16.62,1.43,2,13.1,21.14,11.49,22-4.73,2.41-10.88-.05-15.4-2-7.78-3.34-10.56,3.5-16.63,7.47C107.85,46.24,92.39,56,92.1,56.09,82.89,59,78.44,49.43,75.27,42.24Z"/><path class="d" d="M38.35,108.23c1.12-6-.11-13.2-5.3-17-9.61-7-23.12,1.13-20.82,12.81,1.17,6,5.19,12.41,11.54,13.75C29.33,119,37.29,113.94,38.35,108.23Z"/><path class="e" d="M143.52,100.9c-.25-6.21-2-27.17-2.81-34.43-1-8.73-2.59-16.91-5.83-25.07-5-12.53-9.85-19.48-19.76-25.39-11.7-7-33.3-2.46-45.24,1C55.65,21.06,47.69,27,42.19,41.72c-4.28,11.46-4.53,20.71-16.21,24-6.33,1.79-15.1,3.86-19.36,9C.93,81.56,3.76,81.14,7.87,88.12c1,1.68,2.29,3.28,3.17,5a27,27,0,0,1,1.29,4.24,41.35,41.35,0,0,0,5.73,10.91,28,28,0,0,0,4.05,4.24c1.31,1.23,2.43,2.76,4,3.61,2.72,1.45,6,1.34,9.18,1.53a15.76,15.76,0,0,0,5.23-.5,21.65,21.65,0,0,0,5.34-1.84c7.16,1.2,20.52-1.62,27-4.63a136.73,136.73,0,0,1,8,20c12.57,6.75,38.14-6.39,49.29-14.19C136.92,111.79,143.93,111.27,143.52,100.9Z"/><path class="f" d="M26,65.71C36,62.87,37.62,55.63,40.6,46.37a30.27,30.27,0,0,0,9.15-1.93c2.9-1,5.93-3.24,9.07-3.26,3.61,0,3.24,3.76,2.47,6.22-1.22,3.93-3.95,4.85-6.42,7.57-2.7,3-3.67,7.65-5.86,11a23.57,23.57,0,0,1-9.27,8.78C35.35,76.91,29.07,77,26.73,72A12.11,12.11,0,0,1,26,65.71Z"/><path class="g" d="M47.29,79.54c1.17,7.07,7,23.28,15.69,15.83,2.85-2.45,3.7-6.36,5.56-9.47,2.24-3.74,5.3-4.71,8.66-7.12A25.76,25.76,0,0,0,87.67,56.89c-.33-11.26-8.1-19.74-19.55-19.82a26.83,26.83,0,0,0-15,4.62,16.06,16.06,0,0,0-5.46,6c-3.26,5.76-5.43,13.08-3.54,20.07,1.34,5,2.42,5.63,3,10.83C47.18,78.85,47.23,79.18,47.29,79.54Z"/><path class="f" d="M38.47,95c7,2.65,20,9.4,13.53,17.81-4.47,5.8-15.67,9.3-22.72,7.62-7.67-1.82-12-8.26-13.32-14.94C13.63,93.63,30,91.78,38.47,95Z"/><path d="M28.72,98.6c4.71.84,20.81,5.88,15.65,14-2.62,4.12-9.6.21-13.5-.23-3.75-.42-9.07,1.25-12.28-.77s-4-7.49-1.37-10.72S25,97.94,28.72,98.6Z"/><path d="M73.13,60.89c-2,6.75-7.3,11-11.83,9.49s-6.56-8.22-4.55-15,7.3-11,11.82-9.49S75.13,54.13,73.13,60.89Z"/><path class="f" d="M66.21,54.92c1.19,3,3.32,4.9,4.77,4.32s1.64-3.46.45-6.42-3.32-4.9-4.77-4.32S65,52,66.21,54.92Z"/><path class="h" d="M108.39,51.85c-2.72-5.15-5.48-14.69-6-24.75-.21-4.36.8-5.54,3-9,3-4.68,10.24-7.18,15.26-8.66,15.45-4.55,30.91,1.9,41,13.76,1.57,1.85,14.57,20.15,13,21.09-4.55,2.74-10.86.72-15.5-.9-8-2.79-10.29,4.23-16.06,8.63-2,1.49-16.7,12.31-17,12.42C117.18,68.06,112.06,58.8,108.39,51.85Z"/><path class="d" d="M110.64,55.93c1.92-6.84,6.49-17.8,6.55-18,2.66-9.88,11.45-16.36,20.34-10.34,3.76,2.54,6.15,6.22,10,8.69,3,2,7.42,4,10.54,6.85a10.4,10.4,0,0,0-1.25-.23h0a8.83,8.83,0,0,0-1.13-.06s0,0-.06,0a8.56,8.56,0,0,0-1,.1h-.06a7.48,7.48,0,0,0-1,.24l-.05,0a6.66,6.66,0,0,0-.91.37h0c-2.77,1.18-3.37,3.15-4.72,5.41s-3.88,3.82-5.36,6.09c-2,3.06-3.94,5.73-7.18,7.58-3.76,2.15-8.83,4.16-13.17,2.84-2.13-.64-4.66-1.09-6.14-2.72C115.12,61.79,110.27,57.24,110.64,55.93Z"/><path class="g" d="M38.33,112.28a37.58,37.58,0,0,0-3.8-2.4c-5-2.71-8.41-2.41-14-2.77-6.2-.4-7.14,1.85-9.75-3.36-3.46-6.9-15.28-24-8.3-28.35C16.3,66.76,23.21,65.38,32.55,63,46,59.46,70.21,91.9,68.85,106.51c-.63,6.74-6.3,14.18-13.14,14.87C48.51,122.11,43.46,115.92,38.33,112.28Z"/><path d="M24.69,76.68C21.42,91.64-.84,92.25,0,79.47c.78-11.53,7.1-13,11.53-12.69C17.07,67.12,26.92,66.53,24.69,76.68Z"/><path class="f" d="M15.36,75.47c3.08.73,5.89,0,6.28-1.67s-1.79-3.59-4.87-4.32-5.89,0-6.28,1.68S12.28,74.75,15.36,75.47Z"/><path d="M19.26,108.76a1.29,1.29,0,0,0,.54-.12,1.17,1.17,0,0,0,.6-1.6c-3.7-7.39-9.69-20.54-9.75-20.67A1.3,1.3,0,0,0,9,85.74a1.19,1.19,0,0,0-.66,1.59c.06.13,6.07,13.31,9.79,20.74A1.27,1.27,0,0,0,19.26,108.76Z"/><path class="i" d="M83.44,149.2c2.77,4.57,7.65,5.76,12.08,7.16,8.27,2.62,17,1.49,24.6-1.52,11.2-4.42,22.54-9.85,28.11-23,2.57-6.09,5.33-11.71,3-19-2.62-8.1-10.66-17.52-34.39-13.75S81,123.29,80,131.29C79.85,132.16,80.77,144.8,83.44,149.2Z"/><path class="b" d="M70.24,220.29c-.44,2.65-.95,5.42-2.35,7.46-1.71,2.48-4.4,3.42-6.83,4.67s-5,3.33-5.37,6.58a8.51,8.51,0,0,0,3,7.28,14,14,0,0,0,6.5,2.67c4.42.89,9,1.36,13.33.27a17.29,17.29,0,0,0,11.08-8.48c1.7-3.11,2.52-6.83,3.23-10.5,4.56-23.53,5.58-48,6.58-72.21.3-7.15.27-15.35-4-20.2-2.47-2.81-6.86-2.51-10-1.31C75.2,140.38,78,159.71,77,169.82Q74.46,195.25,70.24,220.29Z"/><path class="c" d="M61.06,232.42c2.43-1.25,5.12-2.19,6.83-4.67,1.4-2,1.91-4.81,2.35-7.46.62-3.64,1.19-7.29,1.75-10.95l.5,0c1.94-.06,3.72.54,5.58-.25,5.06-2.15,5.44-9.09,6.06-13.68,1.18-8.69,2.63-17.36,3.94-26,.38-2.52.86-5.25,2.71-7a8.32,8.32,0,0,1,8.52-2.16c-1,23.55-2.06,47.22-6.49,70.06-.71,3.67-1.53,7.39-3.23,10.5a17.29,17.29,0,0,1-11.08,8.48c-4.37,1.09-8.91.62-13.33-.27a14,14,0,0,1-6.5-2.67,8.51,8.51,0,0,1-3-7.28C56.11,235.75,58.64,233.67,61.06,232.42Z"/><path class="j" d="M93.93,188.14a55,55,0,0,0-3.75,13.78l12.43-6.25Z"/><path class="e" d="M117.3,114c12.39-4.18,27-5.8,37.59,4,10.79,10,19.81,27.63,27.38,45.1,6,13.78,14.49,39.62,15.74,54.57,2.42,28.86-14.86,34.12-26.49,36.32-19,3.6-50.75,5.26-63.54-15.61-2.44-4-3.8-8.63-5.14-13.22-4-13.63-5.11-27.27-9.07-40.9-1.09-3.76-13.46-25.32-12.88-44.07C83.15,136.32,98.5,120.33,117.3,114Z"/><path class="j" d="M87.87,170.78a3,3,0,0,1,1.6-.6,3.79,3.79,0,0,1,1.93.64,26,26,0,0,1,9.42,9.91,57.43,57.43,0,0,1,5,12.87,21.83,21.83,0,0,1,.91,8c-.28,4.3-1.66,9.75-6.4,10.72l-.56.09C97.9,203,95.72,194.19,93,184.8,92.52,183.15,90.65,177.53,87.87,170.78Z"/><path class="b" d="M98.33,204.83c-1.1-5.86-2.2-11.72-3.73-17.59A15.16,15.16,0,0,1,98,184.11a21.32,21.32,0,0,1,7.75-2.86,17,17,0,0,1,6.8-.21,13.58,13.58,0,0,1,8.68,7.06,21.5,21.5,0,0,1,2.19,12c-.22,2.36-1.38,5.22-3.47,5.09a5.21,5.21,0,0,1-2.66-1.47A14.57,14.57,0,0,0,98.33,204.83Z"/><path class="k" d="M98,184.11a17.61,17.61,0,0,1,3.65-1.78,62.18,62.18,0,0,1,4.17,11.27,21.46,21.46,0,0,1,.94,7.23,14.61,14.61,0,0,0-8.52,4.06l-.07.08c-1.27-5.62-2.68-11.16-4.27-16.83A15.39,15.39,0,0,1,98,184.11Z"/><path class="e" d="M132,235.61c-1.84-16.45-6.23-57.69-28.77-51.3C98.48,185.67,94.68,190,92.45,195s-3.08,10.52-3.71,16c-1,8.34,3.8,15.59,7.08,26.45-1.46.94-8.92.85-10,2.32A12.35,12.35,0,0,0,84,249.82a8.81,8.81,0,0,0,1.4,3.06c3.87,5.22,14.17,4.41,19.58,4.18A49.07,49.07,0,0,0,126,251C131.26,248.23,132.72,241.72,132,235.61Z"/><path class="b" d="M195,238.92c2.47-5.09,3.75-11.93,3-21.25a92.85,92.85,0,0,0-1.82-11.34,43.37,43.37,0,0,1-3.68,3.77c-5.52,5-16.66,12.52-22.45,16.76s-11.6,16-9.62,16.87c3.78,1.73,7.81,1.34,11.71.79C179.23,243.52,187.84,242.36,195,238.92Z"/><path class="e" d="M215.33,185.93a4,4,0,0,1,1.43-1.71c1.22-.62,2.6.38,3.48,1.5,2.69,3.38,3.65,8.19,3.2,12.7A31.83,31.83,0,0,1,219.06,211a59.35,59.35,0,0,1-20.41,20.59c-8.08,5-16.92,8.33-25.84,11-3.8,1.13-7.74,2.16-11.62,1.51-2.05-.33-4.35-1.55-4.62-3.85-.18-1.5.18-3.51,1.42-4.12C177.13,226.59,203.28,206.84,215.33,185.93Z"/><path class="f" d="M84,249.82a12.35,12.35,0,0,1,1.85-10.08c1.07-1.47,8.53-1.38,10-2.32-1.72-5.7-3.85-10.41-5.34-14.8,3.93-.29,10.18-1.6,13.87-2.17,0,0,2.52,9.84,3.22,12.63a28.76,28.76,0,0,0,16.71,18.78,45.67,45.67,0,0,1-19.32,5.2c-5.41.23-15.71,1-19.58-4.18A8.81,8.81,0,0,1,84,249.82Z"/></svg>