<svg xmlns="http://www.w3.org/2000/svg" width="170.79" height="273.38" viewBox="0 0 170.79 273.38"><defs><style>.a{fill:#231f20;opacity:0.3;}.b{fill:#c14f2d;}.c{fill:#e8d7d1;}.d{fill:#fff;}.e{fill:#e07044;}.f{fill:#0096fc;}.g{fill:#fefefe;}</style></defs><path class="a" d="M162.41,258.07c0,8.45-33.7,15.31-75.26,15.31s-75.27-6.86-75.27-15.31,33.78-14.95,75.35-14.95S162.41,249.61,162.41,258.07Z"/><path class="b" d="M158.23,223.53c-.26-7.13-.77-16-4.77-22.32a15.07,15.07,0,0,0-11.18-7.13,10.94,10.94,0,0,0-8.72,3.29c-.95,1.06-1.12,2.4-2,3.44s-2.6,2.1-3.69,3.17A36.35,36.35,0,0,0,118,221.36a32.78,32.78,0,0,0-.64,11.12l40.82-4.11C158.25,226.76,158.29,225.15,158.23,223.53Z"/><path class="c" d="M153,248.52a53.05,53.05,0,0,0,5.19-20.15l-40.82,4.11c0,.41.09.81.15,1.22.5,3.39.19,5.8.14,9.12-.08,6.11,4.11,12.16,9.87,15.3,7,3.8,16.22,3.78,23.6.52,2.42-1.07,4.82-2.65,5.58-4.95A4,4,0,0,0,153,248.52Z"/><path class="d" d="M31.26,95.61a17.27,17.27,0,0,1,5.4-.6c19,.87,26.79,25.23,23.07,43.28-3.84,18.55-38.5,15.08-44.56-2.36C7.89,115,16.53,99.73,31.26,95.61Z"/><path class="e" d="M13.22,72.89c4.55-9,12.56-19.89,22.77-22,8.23-1.71,17.21,1.41,25.94,1.1v0l.77,0,.76,0v0c8.74.31,17.71-2.81,25.95-1.1,10.2,2.12,18.21,13,22.76,22,9.78,19.38-3.19,52.76-14.3,69.3-7.31,10.9-21.78,14.06-34.41,15.14v.13l-.76-.07-.77.07v-.13c-12.63-1.08-29.19-5.2-36.5-16.09C14.32,124.69,3.45,92.27,13.22,72.89Z"/><path class="e" d="M11.64,85.78C29.31,100.2,57.84,74.5,50.68,55c-3.47-9.45-6-19.82-10.08-29.32C38.53,20.84,28.23-.23,22.29,0,15.1.28,8.82,23,6.89,27.85,3.24,37-.83,48.82.15,58.81,1.05,68,4.23,79.73,11.64,85.78Z"/><path class="e" d="M113.4,85.78C95.74,100.2,67.2,74.5,74.36,55c3.47-9.45,6-19.82,10.08-29.32C86.51,20.84,96.81-.23,102.75,0c7.19.28,13.47,23,15.4,27.85,3.65,9.16,7.72,21,6.74,31C124,68,120.81,79.73,113.4,85.78Z"/><path class="b" d="M28.76,233.85c-.48,2.21-1,4.5-2.52,6.2-1.81,2.07-4.65,2.87-7.22,3.92s-5.23,2.79-5.68,5.49c-.4,2.35,1.09,4.71,3.1,6a17.07,17.07,0,0,0,6.85,2.18,40.21,40.21,0,0,0,14.05.15c4.61-.92,9.07-3.27,11.72-7.09A26.29,26.29,0,0,0,52.52,242c4.91-19.57,6.09-39.86,7.25-60,.34-5.94.35-12.75-4.14-16.76a10.44,10.44,0,0,0-9.79-2.17c-10.74,3.26-8.65,20.43-9.75,28.83Q33.32,213,28.76,233.85Z"/><path class="c" d="M56.4,166l-1,1.25s-13.26,19.93-17.3,61.92a19.17,19.17,0,0,1-8.12-1c-.4,1.9-.77,3.81-1.19,5.71-.48,2.21-1,4.5-2.52,6.2-1.81,2.07-4.65,2.87-7.22,3.92s-5.23,2.79-5.68,5.49c-.4,2.35,1.09,4.71,3.1,6a17.07,17.07,0,0,0,6.85,2.18,40.21,40.21,0,0,0,14.05.15c4.61-.92,9.07-3.27,11.72-7.09A26.29,26.29,0,0,0,52.52,242c4.91-19.57,6.09-39.86,7.25-60C60.09,176.42,60.11,170.08,56.4,166Z"/><path class="f" d="M103.49,139.34a30.42,30.42,0,0,1,3.57,15.33,28.15,28.15,0,0,1-4,11.41A32.1,32.1,0,0,1,86.2,179.7c-9.55,3.51-19.71,6.37-30,.16-5.14-3.1-9.71-6.5-12.42-13.48-7.1-18.31,10.4-31.08,22.1-35.39C77.22,126.8,96.25,127.25,103.49,139.34Z"/><path class="e" d="M72.16,137.69c12.31-2.75,24.29-1.85,34.63,7,10.56,9,13.37,26.14,20.83,41.82,5.88,12.37,20.47,32.92,21.76,46.31,2.48,25.86-14.32,30.48-25.62,32.39-18.51,3.13-49.37,4.45-61.91-14.31-2.39-3.57-3.74-7.75-5.05-11.87q-5.88-18.34-11.75-36.69c-1.08-3.38-6.79-17.48-7-29.19-.08-5.23,1.72-8.89,4.19-12.8C44.43,156.91,56.51,141.19,72.16,137.69Z"/><path class="b" d="M51.92,202.25a21.83,21.83,0,0,1,7.53-2.52,18,18,0,0,1,6.62-.15A13.18,13.18,0,0,1,74.54,206a17.94,17.94,0,0,1,2.19,10.74c-.2,2.11-1.31,4.66-3.35,4.54a5.4,5.4,0,0,1-2.6-1.33,15.08,15.08,0,0,0-18.53,1A8.46,8.46,0,0,1,49.43,223a4,4,0,0,1-4.3-1.57c-2-2.67-.76-6.86,0-9.81A15.51,15.51,0,0,1,51.92,202.25Z"/><path class="e" d="M85.34,250.16c-1.92-15.23-6.52-53.44-29.08-47.64-4.8,1.23-8.59,5.21-10.8,9.78s-3,9.72-3.64,14.81c-.92,7.72-.22,14.41,3.13,24.49-1.46.86-4.84.78-5.9,2.13a10.66,10.66,0,0,0-1.81,9.32,8.12,8.12,0,0,0,1.42,2.85c3.9,4.85,14.23,4.16,19.65,4a51.78,51.78,0,0,0,21-5.49C84.62,261.84,86.06,255.83,85.34,250.16Z"/><path class="g" d="M53.16,239.56c-4.76,1.77-11,1.11-11,1.1A72.26,72.26,0,0,0,45,251.6c-1.46.86-4.84.78-5.9,2.13a10.66,10.66,0,0,0-1.81,9.32,8.12,8.12,0,0,0,1.42,2.85c3.91,4.85,14.23,4.16,19.65,4a46.57,46.57,0,0,0,7.81-.93C56.46,266.92,53.16,239.56,53.16,239.56Z"/><path class="b" d="M149.38,232.83c-.53-5.44-3.25-12.06-6.68-18.84-3.55,1-6.87,3.22-9.72,7.59-4.28,6.34-5.51,15.9-2.17,18.23a15.52,15.52,0,0,0-7.15,3.54c-5.26,4.67-2.54,9.28.72,11.62a10.34,10.34,0,0,0,6.54,2.23,20,20,0,0,0,9.76,1.67C146.56,254.35,150.7,246.6,149.38,232.83Z"/><path class="e" d="M125.48,244c-5.26,4.66-2.88,10,.38,12.31,3.62,2.61,10.72,1.54,15.42-.23,9.68-3.67,28.7-11.21,29.49-26.18,1-19.11-32.45-23.62-38.46-1.46-2.08,7.68,2,12.61,7.48,13.39,6,.84,11.2-1.16,17.14-4.58-1.61-.75-5.2-.05-6.28-1.74s.62-5.89,3-5.82.14,3.72-1.12,5.08a13.81,13.81,0,0,1-8.08,3.9C139.36,239.31,130.44,239.61,125.48,244Z"/><path class="g" d="M144,233.52a20.79,20.79,0,0,1-2.15-5.57,29.23,29.23,0,0,1-5.9,3.4,64.51,64.51,0,0,1-2.08-7,14.85,14.85,0,0,0-2.64,9.88c.9,7.21,5.61,10.31,11.09,11.35a19.93,19.93,0,0,0,16.14-5c-3.06-1-5.41-2.1-6.85-4.25-1.3-1.95-1.55-3.28.46-6C151.38,230.74,146.18,232,144,233.52Z"/></svg>