<svg xmlns="http://www.w3.org/2000/svg" width="246.79" height="221.98" viewBox="0 0 246.79 221.98"><defs><style>.a{fill:#ccc7c6;}.b{fill:#fefefe;}.c{fill:#231f20;opacity:0.3;}.d{fill:#fff;}.e{fill:#f15a29;}.f{fill:#48250d;}.g{fill:#a84807;}.h{fill:#0b0808;}</style></defs><path class="a" d="M183.5,103.29c-2.12,1.62-6.83,7.06-7,10.88-.2,5.38,5.38,4.56,7.84,3.5C194,113.5,204.19,99,207.51,88.54c.71-2.25,1-5.34-.95-6.42s-4,.85-5.33,2.61c-2.95,3.78-5.66,7.78-8.55,11.6S187.16,100.49,183.5,103.29Z"/><path class="a" d="M158,125.84c-14.56-4-22.28.38-22.3,20.95,0,15.8,8.86,24,21.45,25.48,7.2.88,10.84,1,16.87,3a142.71,142.71,0,0,1,17.13,8.85c2.54,1.72,1.87,5.92,3.66,9,2.92,5,13,8.14,14.32-1.33.78-5.58-3.89-13.28-6.36-17.54-7.13-12.32-17.57-19.72-25.5-30.83C171,134.73,167.85,128.53,158,125.84Z"/><path class="a" d="M95.06,141.46c3-2.86,5.08-6.26,5.13-10.27.12-9.28-6.57-15.79-15.41-13.48-14.1,3.69-22,17-32.95,25.88-6.17,5-12.45,9.41-18.88,13.92a78.16,78.16,0,0,1-7.14,5A15.5,15.5,0,0,1,20.59,164c-3.36.52-9.81-2.35-9.93,3.22-.18,8.42,13.44,14.2,19.18,12.35C39.4,176.47,76.36,153,81.51,150.3,85.52,148.24,91.05,145.34,95.06,141.46Z"/><path class="b" d="M186.46,103.87c-5-3.23-28.33-2.44-31.8-2.06-6.07.65-8.76-.7-14.74-1.75a43.64,43.64,0,0,1-9.5-3.35c-3.14-1.37-7.08-2.75-9.8-4.8-1.86-1.41-3.22-3.51-5.34-4.47-1.32,1.35-1.16,3.49-1.64,5.3-2.87,10.84-15.36,17.36-25.38,19.82a62.15,62.15,0,0,1-14.57,1.72c-.9,0-10.52.08-10.68-.71a39.35,39.35,0,0,1,.6,4.66,72.39,72.39,0,0,0,2.24,12c-.26,12.27,5.5,24.07,18.08,31.83,16,9.86,34.72,5.33,51.49.87,7.23-1.93,8.83-4.69,16.39-5,7-.27,15.47,3.11,22.46,2.25,12.39-1.52,21.3-9.52,25.49-22C203.44,127.19,195.81,109.87,186.46,103.87Z"/><path class="c" d="M222.75,210.16c0,6.53-37.43,11.82-88.53,11.82s-92.53-5.29-92.53-11.82,41.43-11.82,92.53-11.82S222.75,203.63,222.75,210.16Z"/><path class="a" d="M172.16,147.6c-5.15-4.35-10.74-4.38-17.08-3.65-9.48,1.07-18.08,7.15-27.84,6.3s-19.41-3.63-28.52-6.75a32.38,32.38,0,0,0-12.85-2.17c-5,.15-7.67,3-11.92,3.54-2.1.25-4.07-.56-5.63-.8a37.41,37.41,0,0,0,15.61,18c16,9.86,34.72,5.33,51.49.87,7.23-1.93,8.83-4.69,16.39-5,7-.27,15.47,3.11,22.46,2.25.57-.07,1.13-.16,1.69-.25C177,155.51,176.18,151,172.16,147.6Z"/><path class="d" d="M114.55,146.62c5.42-13.13-2.14-30.48-14.37-22.91-10.74,6.64-17.32,20.5-24,32.45-3.44,6.13-18.92,29.64-24,32.42-1.74,1-5.26-.16-5.85,3.17-1.63,9.14,12.17,11.35,16.59,10.15,8.14-2.21,14.54-11.12,20.58-18C94.24,171.71,107.55,163.57,114.55,146.62Z"/><path class="b" d="M185.32,120.58C168.24,116.5,147,112,147,133.09c0,16.21,15.82,25.44,30.58,27,8.45.9,19.43,9.09,26.5,11.21,3.37,1,16.18,9.37,19.69,11.44,3,1.77,4.41,3.67,6.51,6.81,3.41,5.1,13.14,10.25,14.71.54.92-5.72-3.49-16.1-7.19-19.83-10.71-10.79-20.59-20.24-29.88-31.63C200.63,129.71,196.89,123.35,185.32,120.58Z"/><path class="e" d="M112,75.74c3.31,2.6,6.52,8.54,6.67,12.69.14,4-1.29,8.23-2.88,11.58-3.53,7.42-9.75,13.17-16.51,17.17-9.92,5.86-20.58,11.3-32.62,8.46-6-1.41-11.41-3.27-15.27-8.91C41.29,101.91,53,91.33,63.34,83.06,73.09,75.27,89,65.08,102.41,71,105.3,72.25,109.47,73.73,112,75.74Z"/><path class="f" d="M.32,36.28C.37,43,3,48.43,10.58,48.42c12,0,43.89-22,46.77-24.1,3.62-2.63,7.34-5.5,4.43-10.76-3.3-6-13.08-9-19.11-11.14C17-6.56.16,10.5.32,36.28Z"/><path class="d" d="M0,93.3C-.54,84.76,8.11,75,12.88,68.37c5-6.9,7.75-10.16,9.68-18.28,1.64-6.94,2.82-16,7.08-21.83C38.13,16.53,49.51,13.9,62.75,12.65c17.71-1.67,35.16.65,49.72,11.5,8.63,6.43,13.42,13.54,12.87,24.62a103.44,103.44,0,0,1-2.78,19C119.56,80.18,93,122.49,53,126c-12.3,1.06-23.24,1.55-37.25-5.51C7.49,116.27.75,104.31,0,93.3Z"/><path class="g" d="M46.31,43.55c-2.44-7.45-8.46-13.43-15.63-16.64-.35.44-.7.88-1,1.35-4.26,5.88-5.44,14.89-7.08,21.83-1.93,8.12-4.66,11.38-9.68,18.28-2.42,3.34-5.83,7.51-8.54,11.93,4.89-2.27,9.45-4.38,13-5,8.09-1.48,16.81-2.56,23-8C46.86,61.58,49,51.75,46.31,43.55Z"/><path class="h" d="M76.3,64.94c-1.57,6.85-6,11.68-9.79,10.79s-5.66-7.16-4.09-14,6-11.68,9.79-10.79S77.88,58.09,76.3,64.94Z"/><path class="d" d="M71.15,60c-1.05,2.49-3.15,4-4.7,3.33s-2-3.2-.91-5.69,3.15-4,4.7-3.32S72.2,57.5,71.15,60Z"/><path class="h" d="M34.53,59.92C32.28,66.28,28,70.54,24.9,69.44s-3.72-7.15-1.46-13.52S30,45.3,33.08,46.4,36.79,53.56,34.53,59.92Z"/><path class="d" d="M31.37,55c-1,2.4-3.05,3.83-4.54,3.19s-1.9-3.08-.89-5.48,3-3.82,4.54-3.19S32.38,52.6,31.37,55Z"/><path class="f" d="M150.63,50c-1.39,7-5.09,12.05-12.76,10.52-12-2.39-39.81-31.48-42.29-34.21-3.12-3.44-6.3-7.14-2.32-12,4.5-5.51,15-6.75,21.46-7.74C142.34,2.4,155.93,23.4,150.63,50Z"/><path class="h" d="M27.92,87.5c-1.66-1.56-4.73-2.7-8-3.19h0c-3.3-.57-6.56-.43-8.61.53-9.77,4.61-2.8,14.8,5.93,16.93h0C26.15,102.46,35.84,95,27.92,87.5Z"/><path class="d" d="M13.34,90.59c-2.31.67-4.45.3-4.77-.82s1.29-2.57,3.6-3.24,4.45-.29,4.77.83S15.65,89.93,13.34,90.59Z"/><path class="h" d="M9.16,110.13a1.37,1.37,0,0,1,.54-.35c.75-.27,1.29.34,1.88.69a9.74,9.74,0,0,0,2.67,1.11A10.53,10.53,0,0,0,22,110.31v-.12l.11.07.12-.06v.12a10.53,10.53,0,0,0,7.64,1.83c2.07-.34,6.18-2.32,7.41-4.28a1.43,1.43,0,0,1,2-.44,1.52,1.52,0,0,1,.43,2.06c-1.91,3-7.05,5.21-9.4,5.59a12.8,12.8,0,0,1-2.57.17A13,13,0,0,1,22,113.58a13,13,0,0,1-5.85,1.24,12.47,12.47,0,0,1-2.55-.35,9.77,9.77,0,0,1-4.12-1.85A1.91,1.91,0,0,1,9.16,110.13Z"/><path class="h" d="M22.28,113.54a1.56,1.56,0,0,0,1.18-.39,1.65,1.65,0,0,0,.15-2.26c-.06-.07-2.8-3.51-4.11-11.22a1.57,1.57,0,0,0-1.81-1.3,1.61,1.61,0,0,0-1.27,1.86c1.48,8.73,4.7,12.6,4.83,12.76A1.56,1.56,0,0,0,22.28,113.54Z"/><path class="a" d="M11.24,160.45c-4.42,4.22-3.07,12,3,17.26s14.61,6.21,19,2,3.07-11.94-3-17.25S15.66,156.23,11.24,160.45Z"/><path class="d" d="M44.53,183.26c-4.1,4.53-2.18,12.14,4.29,17s15,5.12,19.13.59,2.19-12.13-4.28-17S48.64,178.73,44.53,183.26Z"/><path class="d" d="M239.8,197c5.69-.88,8.46-7.86,6.2-15.59s-8.69-13.28-14.38-12.41-8.46,7.86-6.2,15.59S234.12,197.9,239.8,197Z"/></svg>