<svg xmlns="http://www.w3.org/2000/svg" width="202.16" height="260.18" viewBox="0 0 202.16 260.18"><defs><style>.a{fill:#7f4721;}.b,.j{fill:#0b0808;}.b{opacity:0.25;}.c{fill:#9e938f;}.d{fill:#e1d6d0;}.e{fill:#a0693f;}.f{fill:#2e3192;}.g{fill:#2d2a21;}.h{fill:#f4efec;}.i{fill:#dbb086;}.k{fill:#fefefe;}.l{fill:#ad7d4d;}.m{fill:#bcafaa;}</style></defs><path class="a" d="M195,182.53c-2.19,1.1-4.46,3.08-7.25,4.64-5.42,3-10.9,2.81-13-3.79-3.51-10.95,10.34-23,20.46-18.86,4.17,1.72,7,6.81,6.95,11.35C202,182.4,195.15,182.46,195,182.53Z"/><path class="b" d="M197.8,236.86c.5,9.73-33.31,23.31-77.17,23.32-42.89,0-79.13-5.5-80.42-13.51C38.65,237,74.89,227.23,118.81,225S197.3,227.13,197.8,236.86Z"/><path class="a" d="M111,214.89a22.77,22.77,0,0,0-3.55-11.08c-11-16.29-31.79-28.42-42.9-8.49l-.08.15c-5,9.3,2.88,22.49,8.37,29.36-3,1.33-6.62,0-9.14,3.08-2.2,2.65-2.42,7.39,0,10.14,5.87,6.8,15.56,3.6,22.14,2.27,7.32-1.47,15.94-3.44,21.23-10.16C110,226.35,111.34,220.56,111,214.89Z"/><path class="a" d="M181.88,202.16c-4-4.47-3.18-11.26-4.22-16.56a51.67,51.67,0,0,0-6.3-16.11c-2.78-4.76-7-10.28-12.71-12.64-8.28-3.43-17.79-4.18-26.34-4.55-17.54-.75-38.24,1.91-50.11,15.55-5.1,5.87-11.82,10.61-12,18.14-.15,6.68,4.86,18.68,7.64,24.93,2.54,5.69,7.34,11.35,11.16,16.39,8.62,11.35,16,10.5,26.75,11.43,16.16,1.38,30.65,1.74,45.89-.52,6.61-1,10.85-.67,17.19-3,8.35-3.12,12.16-16,12.35-26.9,0-1.18,0-2.33-.07-3.44-.08-1.52-.2-3-.35-4.33C189.28,204.35,186.59,207.4,181.88,202.16Z"/><path class="a" d="M157.74,198.82c8.28-1.17,17.09-3.7,19.75-11.65,2.38-7.13-.53-15.55-4.69-21.8s-10.52-13.83-17.45-16.72c-4.63-1.93-10.57-4.74-15.58-4.36C107.47,146.77,128.68,202.93,157.74,198.82Z"/><path class="c" d="M165.67,233a20.41,20.41,0,0,0-4.09-3.19,44.52,44.52,0,0,1-14.38-16.1,35.87,35.87,0,0,1-3.64-9.76c-.24-1.34-.06-2.7-.38-4-.48-1.87-1.76-3.6-2.33-5.47a38.59,38.59,0,0,1-.6-4.57A23,23,0,0,0,135.17,179c-7.06-8.13-15.48-9.92-24.21-11.06-11-1.44-37.45.35-40.61,12.69-3.9,15.24,13.1,35,23.62,46.46,2.73,3,5.23,6.2,9,10,4.58,1.69,6.93,1.18,12.79,1.69,16.16,1.38,30.65,1.74,45.89-.52,1.9-.28,3.6-.45,5.21-.62A4.75,4.75,0,0,0,165.67,233Z"/><path class="d" d="M139.78,184.74a41.73,41.73,0,0,0,.83-4.15c.81-5.14,1.17-10.61-1-15.36-6.46-14.45-29.69-14.47-42.51-11.72C85.69,156,74.92,159.08,68.56,168.8c-6.61,10.11-2.08,19,7.93,24.8,6.08,3.52,13.16,5,20.17,5.53a93.6,93.6,0,0,0,27.58-1.8c4.65-1,9.53-2.57,12.54-6.26A16.53,16.53,0,0,0,139.78,184.74Z"/><path class="e" d="M131.82,159h0l-.34-.59-24.09,15.82s34.91,34.41-1,63.76l22.33,11S176.2,202.55,131.82,159Z"/><path class="e" d="M95.8,239.88c-2.22,7.28,4.36,14.72,14.71,16.64s20.53-2.44,22.76-9.72-4.35-14.71-14.7-16.63S98,232.61,95.8,239.88Z"/><path class="e" d="M83.4,161.85s-18.51-9.3-22.28-4.91c-29.64,15.76-20.47,74.68-20.47,74.68l25.5,0C62.28,188.35,83.4,161.85,83.4,161.85Z"/><path class="f" d="M47.38,143.47c-2.65,5.6-3.14,15.6-.84,21.26,2.19,5.39,6.56,10.2,10.59,13.66,8.92,7.68,20.24,11.4,31.21,12.42,16.09,1.5,32.86,2,46.41-9.54,6.76-5.74,12.49-11.69,14-21.72,4-26.34-17.19-33-35.28-37.47-17-4.18-43.27-7.66-56.75,8.84C53.82,134.47,49.43,139.13,47.38,143.47Z"/><path class="e" d="M190.12,186.21c-2.32-5.7-5.72-8-9.39-8,2.25-8.75,6.21-16.75,8.34-25.51,1.91-7.83-2.53-18-11-19.46a10.84,10.84,0,0,0-3.81,0,11.88,11.88,0,0,0-4.66,2.08,14,14,0,0,0-3.88,4.1c-4.78,7.78.36,8-2.9,16.64-.88,2.31-2,5.27-3.11,8.63-4.59,13.49-10.07,33.4-6,43.29a11.58,11.58,0,0,0,4.5,5.49,47,47,0,0,0,.14,4.76c.71,8.58,3.93,18,11.08,21,4.93,2,10.67.26,14.73-3.52s6.6-9.3,8.12-15a53.32,53.32,0,0,0,1.2-5.91A55.4,55.4,0,0,0,190.12,186.21Z"/><path class="e" d="M189.53,147.62c-4.25,9.35-14.26,14.62-23.06,11.1s-13-14.28-8.79-23.84c4.15-9.38,13.65-15.26,22.45-11.75S194.82,136,189.53,147.62Z"/><path class="g" d="M164.78,136.69a3.32,3.32,0,0,1-.44-2.87,5.4,5.4,0,0,1,3.89-3c.59-.09,4.74,2.22,3.9,3.28,1.2-1.51,3.54-3.17,5.25-2.33a4.07,4.07,0,0,1,2,4.71c2.12-1.51,6.08-1.28,7.17,1.3a3.87,3.87,0,0,1-3.32,5.07c.41,2.75.53,5.91-1.42,8-1.71,1.83-4.52,2.23-7,2-6.75-.53-14.33-4.31-12.46-12a5.17,5.17,0,0,1,2.88-3.62A2.79,2.79,0,0,1,164.78,136.69Z"/><path class="e" d="M74.42,237.28c1.28,7.36-5.76,13.92-15.72,14.66s-19.07-4.64-20.35-12S44.11,226,54.07,225.27,73.14,229.91,74.42,237.28Z"/><path class="h" d="M144.3,169.52c-4.63,5.93-10.68,10-18.55,10.64-9.36.75-21.17-.62-30.39-2.44C76.44,174,59.09,167.61,41,160.94,25.44,155.21,2.33,146.1.36,126.12c-2.23-22.57,6.06-42.92,22-58.83C49,40.59,94.77,41.67,123.68,61.59c4.23,2.91,8.79,5.09,13.07,7.47,5.23,2.89,6.62,7,10.09,11.83,4.12,5.8,8.67,11.38,10.77,18.48,1.62,5.48,2.58,11.57,3.81,17.23C164.93,132.71,154.05,157,144.3,169.52Z"/><path class="e" d="M161.42,116.6c-1.23-5.66-2.19-11.75-3.81-17.23-2.1-7.1-6.65-12.68-10.77-18.48C143.37,76,142,72,136.75,69.06c-4.28-2.38-8.84-4.56-13.07-7.47a80.83,80.83,0,0,0-19-9.59C103.47,51.58,94.2,77.52,93,90.14a53.84,53.84,0,0,0,2.62,22.35c7.75,23.7,25.3,55.55,55.19,47.19C158.15,146.64,164.15,129.15,161.42,116.6Z"/><path class="i" d="M126.58,142a87.07,87.07,0,0,0-6.3-19.53c-5.92-12.17-19.46-18.24-31.55-22.55C76,95.42,62.28,95.14,49.09,98.27,37.57,101,29.92,109.81,22.17,118.69,16.26,125.44,8.41,138,11.85,147.37c3.64,9.94,17.84,17.72,28.26,16C51,161.5,54.29,147.66,64.24,144c7.6-2.78,13.32,2,16,9.06,2.64,6.89-.24,15.06,2,21.73s8.12,11.68,14.41,13.93C126.57,199.43,130.71,162.17,126.58,142Z"/><path class="j" d="M103,120c3.59,21.1-31.43,12.39-37.22,1-7-13.78,8.36-19.36,19.21-15.52C90.83,107.61,101.8,113.07,103,120Z"/><path class="k" d="M84.78,112.11c-.36,2-3.72,3.16-7.53,2.5s-6.59-2.85-6.24-4.89,3.72-3.16,7.53-2.5S85.13,110.07,84.78,112.11Z"/><path class="l" d="M99.07,172.84c.24-.37.47-.75.69-1.15a37.64,37.64,0,0,0,4.13-14.08c.3-2.5.44-5.12-.53-7.44-2.54-6.09-9.43-7.63-15.4-7.54-8.08.12-12.32,2.91-18.75-3.46a20.1,20.1,0,0,0-17-5.5c-4.19.65-6.37,3.7-8.84,6.87-6.66,8.53-12.85,19.29-2.94,27.84,6.7,5.78,15.84,7.63,23.85,10.84C76.24,184,91.51,184.66,99.07,172.84Z"/><path class="e" d="M169.23,106.71c-7.25-3.28-14.82-.76-21.55-4.4a40.22,40.22,0,0,1-17-18.71C125,70,140.72,65.66,152.26,64.51c6.79-.69,19.57,1.45,25.56,5.12,7.42,4.56,18.25,22.9,18.65,31.56.21,4.57-3.2,8.4-8,10C181.26,113.52,175.39,109.5,169.23,106.71Z"/><path class="a" d="M165.6,81.65c10.05,2.58,19.41,9.91,25,18.61a18.17,18.17,0,0,1,2.89,8,12.92,12.92,0,0,1-4.95,2.9c-7.23,2.37-13.1-1.65-19.26-4.44-5.39-2.43-10.95-1.67-16.22-2.61a19.53,19.53,0,0,1-4.61-3.24c-5.55-5.31-9.41-10.59-1.81-16.07C151.75,81.07,159.52,80.09,165.6,81.65Z"/><path class="h" d="M22.73,41.16c3.7,6.91,8.93,14.08,13.84,17.41a35.82,35.82,0,0,0,23.78,5.64c14.15-2,10.37-18.69,5.9-29.87-4-10.1-13.21-16.92-20.5-24.22C39.23,3.6,30.12-4.38,21.34,2.88c-8.21,6.78-5.46,21-2.43,29.78A60.67,60.67,0,0,0,22.73,41.16Z"/><path class="m" d="M51.84,50.28c.67-6.44-1.66-14-5.39-19.79a27.72,27.72,0,0,0-5.71-6.59c-3.65-2.94-7.65-5-11-8.23-3.09-3-5.9-7.75-9.23-10.41-.3-.24-.59-.46-.88-.67-6.06,7.25-3.51,20-.72,28.07a60.67,60.67,0,0,0,3.82,8.5A65.57,65.57,0,0,0,32.3,54.83c2.05.92,4,1.76,5.76,2.5C44.41,60,51,58.63,51.84,50.28Z"/><path class="j" d="M136,124.13a2.35,2.35,0,0,1-2-.58,106.56,106.56,0,0,0-12-9.25,2.38,2.38,0,0,1-1-2.5,2.47,2.47,0,0,1,2-1.83c6.65-1,13.45-1.86,20.21-2.49a2.37,2.37,0,1,1,.44,4.72c-4.68.45-9.39,1-14.06,1.62q4,3,7.57,6.2a2.36,2.36,0,0,1,.18,3.35A2.3,2.3,0,0,1,136,124.13Z"/><path class="j" d="M39.86,90.68a2.37,2.37,0,0,0,2,.61A105.76,105.76,0,0,1,56.9,90.12a2.38,2.38,0,0,0,2.2-1.53A2.46,2.46,0,0,0,58.47,86c-5-4.51-10.22-9-15.51-13.19a2.38,2.38,0,0,0-3.34.36A2.36,2.36,0,0,0,40,76.49c3.67,3,7.31,6,10.86,9.08-3.31.2-6.57.54-9.73,1a2.37,2.37,0,0,0-2,2.7A2.29,2.29,0,0,0,39.86,90.68Z"/><path class="j" d="M105,151.46a1.85,1.85,0,0,1-1.4-.63C97,143.28,84.87,141,76,145.55a1.85,1.85,0,0,1-2.22-.39c-4-4.38-7.66-7.18-11.5-8.83-4.6-2-9.61-2.08-13.41-.29a1.86,1.86,0,0,1-1.59-3.37c4.82-2.28,10.82-2.19,16.47.24a36.14,36.14,0,0,1,11.83,8.72,27.31,27.31,0,0,1,30.91,6.74,1.86,1.86,0,0,1-1.4,3.09Z"/><path class="j" d="M77.43,141.44l5.07-13.39a2,2,0,0,0-1.18-2.62,2.07,2.07,0,0,0-2.63,1.18l-5.77,15.23a2,2,0,0,0,0,1.51S75.53,145.74,77.43,141.44Z"/></svg>