<svg xmlns="http://www.w3.org/2000/svg" width="191.79" height="270.16" viewBox="0 0 191.79 270.16"><defs><style>.a{fill:#dba77d;}.b{fill:#231f20;opacity:0.3;}.c{fill:#efc095;}.d{fill:#fdb;}.e{fill:#ef4136;}.f{fill:#0b0808;}.g{fill:#fff;}.h{fill:#a00a2b;}.i{fill:#e5b27f;}.j{fill:#c18963;}</style></defs><path class="a" d="M31.27,153.11a36.16,36.16,0,0,1,4.64,4.54,20.33,20.33,0,0,0,5.35,4.94c7.73,4.73,23.43,11.15,26.95-1.84l.09-.35c2.24-8.94-6.08-13.94-13.15-17-4.24-1.81-8.64-3.21-13-4.81a49,49,0,0,1-15-9.11C25,127.62,13.24,112,12,110.17c-2.86-4-.85,10-.65,10.66,3.58,12.61,5.61,14.63,7.22,17.62C21.75,144.44,26.09,148.66,31.27,153.11Z"/><path class="b" d="M169.21,248.92c0,11.74-36.79,21.24-82.17,21.24s-82.18-9.5-82.18-21.24S41.65,227.67,87,227.67,169.21,237.19,169.21,248.92Z"/><path class="c" d="M64.08,155c0-4.54-.59-8-3.71-11.05-7.24-7.18-17.61-6.83-22.72,2-8.15,14-3.75,30.43-5.4,45.89a3.3,3.3,0,0,0,.09,1.35c-.9,7.82-2.16,15.42-3.5,23.16-.71,4.06-.33,8-3.36,11S18.18,231.18,16,235c-5.12,9,10.83,8.43,15.43,7.5,15.13-3.06,16.58-20,20-33,3.11-12,5.32-24.39,9.05-36.16,1.45-4.58,3.41-10.91,3.55-16.84v0Z"/><path class="a" d="M134.38,228.19c-2.91-2.06-7-.71-9.68-3.36-2.52-2.5-2.25-7-2.86-10.37-1.33-7.33-2.59-14.54-3.48-21.94l.21-.25c0-.39-.1-.78-.14-1.17-1.65-14.74,2.75-30.4-5.4-43.75-5.11-8.37-15.48-8.71-22.72-1.87-3.12,3-3.76,6.21-3.71,10.53l.07,1.41h0c.14,5.64,2.09,11.67,3.54,16,3.74,11.22,6,23.06,9.06,34.47,3.38,12.4,4.83,28.52,20,31.44,4.31.83,9.22,1,13.35-1.31S138.4,231,134.38,228.19Z"/><path class="d" d="M143.5,129.41c-3-11.36-10.81-20.2-22.26-21.58-7.18-.86-14.87-1.35-21.83-3.45-4.14-1.25-7.7-3.81-11.74-5.33-10-3.78-25-3.7-32.38,5.61a64.91,64.91,0,0,0-6.68,10.82c-1.8,3.56-5.33,4.93-7.78,8.36a37.49,37.49,0,0,0-6.72,18c-.62,6.14,1.58,11.33,2.23,17.39.57,5.28.61,12.06,3.35,16.61,2.15,3.57,5.53,6.28,8.42,9.22.72.74,1.46,1.46,2.21,2.17,0-.15,0-.29,0-.44.58-8.65,7.67-21,16.6-22.18,4.75-.64,6,2.38,10.37,4.3a36.28,36.28,0,0,0,25.47,1c8.7-2.81,14.61-10,24.42-7,6,1.85,9.15,6.46,10.33,12.08,3.48-7,9.25-9,9.62-17.71C147.47,149.71,145.42,136.57,143.5,129.41Z"/><path class="c" d="M128.49,160.93c-9.81-3-16.32,4.81-25,7.61-8.24,2.66-17,3.85-25,.35-4.36-1.92-6.19-5.07-11-4.89-10.4.4-16.83,14.05-17.41,22.7,0,.15,9.64,7.59,14.66,9.81,10.56,4.67,27.43,6.85,38.64,3,11.67-4.06,29.06-9.64,34.68-23.22.2-.47.41-.92.62-1.36C137.5,169.26,134.52,162.78,128.49,160.93Z"/><path class="d" d="M160.27,246.68c-3.22-2.68-8.22-1.64-11.1-5-2.71-3.1-1.89-8.18-2.24-12-.83-9.13-1.6-18.08-1.77-27.29,0-1.53,0-3.07.08-4.61.75-14.9,5.64-29.94-1.6-44.12-5-9.81-17-11.39-26.09-4.72a13.93,13.93,0,0,0-5.1,7.38,21.84,21.84,0,0,0-.86,4.61c-.54,6.44,1.15,13.6,2.41,18.77,3.18,13.08,4.49,26.68,6.91,39.89,2.63,14.37,2.57,32.69,20.17,37.8,5,1.45,10.82,2.2,16,.13C162,255.55,164.71,250.36,160.27,246.68Z"/><path class="d" d="M78.58,158.72a14.52,14.52,0,0,0-4.65-7.88c-8.7-7.43-20.74-6.67-26.32,2.95-8.06,13.91-4.08,29.56-4.21,44.78,0,1.57-.08,3.14-.2,4.69-.72,9.36-2,18.41-3.39,27.64-.59,3.87-.07,9.1-3,12.07-3.08,3.16-8,1.75-11.38,4.24-4.64,3.44-2.29,8.9,2.57,11.3,5,2.47,10.85,2.12,15.94,1,17.87-3.94,18.9-22.58,22.38-37,3.2-13.27,5.32-27,9.27-40.09,1.56-5.17,3.68-12.34,3.52-18.93A22.53,22.53,0,0,0,78.58,158.72Z"/><path class="e" d="M53,114.12c-1.55,4.74-1,12.82,1.39,17.17,2.25,4.13,6.16,7.6,9.68,10,7.78,5.35,17.08,7.32,25.84,7.15,12.84-.25,26.13-1.39,35.72-11.87,4.78-5.23,8.74-10.53,9-18.73.59-21.53-16.75-25-31.46-26.92-13.85-1.83-34.9-2.25-44,12.23C57.18,106.3,54.16,110.45,53,114.12Z"/><path class="d" d="M94.46,136.45c-11.8.41-29.54-3-38.71-12.22C43.19,111.64,48,98.64,43.12,85.32c-3.29-9-9.52-16.6-12.18-26.58C27.06,44.16,28.7,27.22,38.6,15.2c5-6.13,9.68-8.14,17.38-9.14C65,4.88,72.8,9.83,81.4,8.81c5.35-.63,9.84-5.72,15.94-6.45,15.18-1.8,29.75,9.65,35.12,23a43.48,43.48,0,0,1,3.45,12.31c.38,4.55,1.73,8.8,1.3,13.45-.55,6-2.92,11.66-3.2,17.63-.23,4.94,1,9.83,1.55,14.75,1.53,13.07-1.33,27.64-9.31,38.27C119.23,131.16,105.38,136.07,94.46,136.45Z"/><path class="f" d="M110.93,90.45c4.21,12.41-28.72,15.42-31,5.78-2.07-8.7,9.62-11,15.3-11.49C102.29,84.17,108.31,82.73,110.93,90.45Z"/><path class="g" d="M89.41,93.82c-3.23.88-6.19.35-6.6-1.17s1.87-3.47,5.1-4.35,6.19-.36,6.61,1.16S92.65,92.94,89.41,93.82Z"/><path class="h" d="M93.53,111.45c-.54.23-1,1-1.51,1.23a13.05,13.05,0,0,1-5.76,1.24,16.25,16.25,0,0,1-5.81-.91c-.74-.25-4.56-1.61-4.65-2.57A14.47,14.47,0,0,0,84.17,122c4.38,2,10.59,1.49,14.92-.6s6.85-5.67,9.59-9.87c-1.21,1.85-6.49,2.08-8.33,2a11.94,11.94,0,0,1-4.06-.68c-.74-.32-1.63-1.5-2.45-1.48A.7.7,0,0,0,93.53,111.45Z"/><path d="M94.91,113.72a1.73,1.73,0,0,0,1.83-1.66L98.6,95.61a1.82,1.82,0,0,0-1.41-2.09,1.74,1.74,0,0,0-1.84,1.66L93.5,111.63A1.81,1.81,0,0,0,94.91,113.72Z"/><path d="M74.67,107.43a1.5,1.5,0,0,1,2.28.47c1.48,2.43,6.23,4.78,8.58,5.12,3.41.49,5.93-.7,8.57-2.65v-.16l.13.07.12-.09v.16c2.87,1.52,5.52,2.29,8.83,1.27,2.28-.71,6.66-3.79,7.8-6.42a1.53,1.53,0,0,1,2.19-.84,2.06,2.06,0,0,1,.74,2.55c-1.76,4.08-7.27,7.56-9.86,8.36a13.19,13.19,0,0,1-2.87.56,13.33,13.33,0,0,1-6.68-1.33,13.52,13.52,0,0,1-6.43,2.37,12.55,12.55,0,0,1-2.91-.1c-2.67-.38-8.59-3-10.88-6.71A2.07,2.07,0,0,1,74.67,107.43Z"/><path class="i" d="M35.15,70.94c.23-5.26.55-10.53.65-15.8a46.49,46.49,0,0,1,4.27-19.63c3.72-8.17,16.23-23.26-1.14-26.66C29.22,6.94,18,23.07,14.45,29.91c-2.58,5-2.24,11-4.72,16C6.45,52.45.29,57,0,64.19-.42,75.48,11.42,80.73,16.42,89.6c1.29,2.28,1.58,7.15,5.18,8.19C35.88,101.92,34.89,77.17,35.15,70.94Z"/><path class="f" d="M70.17,58.27c.58,6.8-2.49,12.6-6.87,12.95s-8.39-4.88-9-11.68,2.49-12.6,6.87-12.95S69.59,51.46,70.17,58.27Z"/><path class="g" d="M62.65,56.19c-.9,3-2.95,5-4.59,4.48s-2.24-3.32-1.34-6.3,3-5,4.59-4.48S63.55,53.21,62.65,56.19Z"/><path class="f" d="M120.68,54.09c.6,6.71-2.53,12.44-7,12.78s-8.53-4.81-9.12-11.53,2.54-12.44,7-12.78S120.09,47.37,120.68,54.09Z"/><path class="g" d="M113.22,51.26c-.91,2.94-3,4.92-4.67,4.42s-2.27-3.28-1.36-6.22,3-4.91,4.67-4.42S114.13,48.32,113.22,51.26Z"/><path class="j" d="M154.69,16.15c-9.41-12.07-29.82-14-40.69-2.39-4.73,5,1.49,12.07,7.2,14.78,6.68,3.16,15.12-.73,22.65-.37,3.58.17,8.47,1.73,11.56-1C159.2,23.81,157.08,19.21,154.69,16.15Z"/><path class="i" d="M163.71,46.13c-9.73-3.86-15.2-14.82-24.45-19.25-9.09-4.36-25.1,1.51-29-10.61C106.52,4.77,126.18,5,133.15,2.11c4.87-2,8.34-2.94,13.73-1.17,9.74,3.2,14,7.93,20.71,14.61a93.74,93.74,0,0,0,18.66,13.93c3.79,2.16,6.33,2.89,5.32,8-.78,4-4.1,6.93-7.71,8.45-4.81,2-11.25,2.18-16.38,1.28A19.77,19.77,0,0,1,163.71,46.13Z"/></svg>