<svg xmlns="http://www.w3.org/2000/svg" width="273.94" height="223.65" viewBox="0 0 273.94 223.65"><defs><style>.a,.h{fill:#231f20;}.a{opacity:0.3;}.b{fill:#ccc7c6;}.c{fill:#fefefe;}.d{fill:#e29ad3;}.e{fill:#c19a99;}.f{fill:#0b0808;}.g{fill:#454136;}</style></defs><path class="a" d="M8.41,212.75c0,6,45.12,10.9,100.77,10.9S210,218.77,210,212.75s-45.12-10.91-100.77-10.91S8.41,206.72,8.41,212.75Z"/><polygon class="b" points="152.05 132.74 155.42 138.64 186.16 192.47 169.46 203.78 149.74 170.13 131.28 138.63 152.05 132.74"/><path class="b" d="M169.38,205.41c2,5.71,9.93,7.7,17.8,4.43s12.67-10.54,10.71-16.26-9.93-7.7-17.8-4.43S167.42,199.69,169.38,205.41Z"/><path class="c" d="M34.43,107.08c17.65-3,60.86-21.69,78.19-23.49,15.34-1.59,30.74,4.54,45.7,18,15.78,14.17,9.65,39.34,6.59,51.79a20.7,20.7,0,0,1-3.93,7.71c-5.08,6.53-13.67,11.6-21,14.07-24.72,8.35-47.06-5.47-71.63-2.57-12.24,1.45-28.6,5.72-37.53-4.88a46.47,46.47,0,0,1-4.12-5.85c-5.85-9.69-10.34-20.53-8.88-32.36C19,120.27,23.66,108.92,34.43,107.08Z"/><path class="b" d="M42,151.41c14.17,0,57.72,7.74,75.37,7.74,12.91,0,37.32.16,47.79-6.77-.08.33-.16.67-.24,1a20.7,20.7,0,0,1-3.93,7.71c-5.08,6.53-13.67,11.6-21,14.07-24.72,8.35-47.06-5.47-71.63-2.57-12.24,1.45-28.6,5.72-37.53-4.88a46.47,46.47,0,0,1-4.12-5.85,64,64,0,0,1-4.57-9.23C28.48,151.13,35.58,151.39,42,151.41Z"/><path class="c" d="M39.68,115.65c2.18,1.78,6.82,7.44,6.56,11-.36,5-6.47,3.53-9.09,2.22-5.43-2.7-9.47-8.39-13.42-13.43-5.3-6.75-7.89-14.85-10.4-23.71-1-3.4-8-31.24-2.38-31.82,3.57,5.8,4.06,13.2,5.74,20a84.66,84.66,0,0,0,9.6,23.21c1.79,2.9,3.94,6.55,6.41,8.57C34.79,113.4,37.51,113.88,39.68,115.65Z"/><polygon class="c" points="142.02 138.55 139.49 144.86 116.47 202.42 97.23 196.38 111.3 160.01 124.48 125.95 142.02 138.55"/><path class="c" d="M95.9,197.33c-3.25,5.09.16,12.56,7.61,16.7s16.14,3.36,19.39-1.73-.15-12.57-7.6-16.7S99.16,192.24,95.9,197.33Z"/><path class="b" d="M1.34,193.26a8.4,8.4,0,0,1,1.27-1.52l1.84-4.52.32-.77.07-.19.1-.22c.56-1.39,1.13-2.78,1.69-4.16q1.51-3.69,3.08-7.37c.74-1.75,1.49-3.51,2.24-5.26.59-1.4,1.19-2.8,1.79-4.2,2.38-5.6,4.73-11.21,6.87-16.86.59-1.57,1.2-3.17,1.93-4.7.24-.51.5-1,.77-1.51a15.63,15.63,0,0,1,4.18-5.09,9,9,0,0,1,.91-.61,12.47,12.47,0,0,1,9.71-1.34c1.65.46,3,1.49,4.57,2a20.68,20.68,0,0,1,4.53,1.77c.35.2.68.42,1,.64l.32.23c.21.16.43.31.64.48l.36.3c.18.15.36.3.53.46l.36.36c.16.15.32.31.47.47l.35.39c.14.16.28.32.41.49s.22.28.33.42.26.33.38.51l.3.44c.11.18.23.35.33.53s.19.31.28.47.2.36.3.54.17.33.25.5.17.36.26.55l.22.51c.08.19.15.38.22.56l.2.54.18.57.16.55c.06.19.1.39.15.58s.09.38.14.57.07.38.1.57.08.39.11.59,0,.38.07.57.06.4.07.6h0a21.13,21.13,0,0,1,.08,2.39,22.63,22.63,0,0,1-.55,4.4C52.72,170.82,42.18,179,31.72,177.71a16.72,16.72,0,0,1-2.28-.45l-6.52,16c5.13,4.24,7,10.41,4.17,14.84-3.32,5.15-11.78,6-18.89,1.91S-2,198.4,1.34,193.26Z"/><path class="c" d="M18.71,140c.74-3.11,5.94-3.45,9-4.5a50.58,50.58,0,0,1,15.68-2.12,18.52,18.52,0,0,1,8,2.26c1.7.89,4.93,4.89,6.41,5.14a23.89,23.89,0,0,1,2.69,3.86c6,10.7,3.08,24.29-6.46,30.36a18.93,18.93,0,0,1-2.21,1.19l6,17c7.25-.12,13.21,3.47,14,8.92.92,6.32-5.46,12.72-14.24,14.29S40.94,214.17,40,207.85a8.36,8.36,0,0,1,0-2.06l-2.13-6.08C31.69,182.1,21.1,162.77,18.58,144.3A13.54,13.54,0,0,1,18.71,140Z"/><path class="d" d="M122.08,75.11l.06,0c1.26-.91,6.08-2,7.69-2.24-1.87,11,.14,36.33,2.66,40.53,7,11.58,23.23,24.3,37.93,20.81,2.69-.63,7-4,9.75-3,5,1.89-1.84,5-3.94,7.13-4.57,4.55-18.95,10.84-40.85-.24-16.22-8.22-22.39-23.23-22.17-41.38C113.34,86.63,118.25,77.91,122.08,75.11Z"/><path class="c" d="M189.88,42.87c3.63-5,9.13-7.79,13.81-10.89,8-5.3,13.33-15.3,22-19.62a9.89,9.89,0,0,1,4.37-.93c.57-3.51,1.6-12.84-3.43-11.25C224.7.8,223,2.8,221.34,3.85c-7,4.45-12.18,11.12-19.66,15.26-4.65,2.57-9.62,4.64-13.83,7.87-5.27,4.05-11.48,11.7-11.55,18.64s4.65,13,12.09,10.11l.51-.19A5.89,5.89,0,0,1,188,54C186.44,50,187.93,45.55,189.88,42.87Z"/><path class="e" d="M196.58,53a5.67,5.67,0,0,1,1.23-.54,8.07,8.07,0,0,1,4.07.25,10.74,10.74,0,0,0,4.08.51c2.67-.39,4.21-4.64,5.53-6.74,1.86-3,3.42-6.14,5.48-9a88,88,0,0,0,4.8-8.17c3.32-5.86,7-10.24,8.28-17.77,0,0,0-.12,0-.17a9.89,9.89,0,0,0-4.37.93c-8.68,4.32-14,14.32-22,19.62-4.68,3.1-10.18,5.93-13.81,10.89-2.16,3-4.82,11.37.26,13.07,1.37.46,2.86-.25,4-1.11A29.6,29.6,0,0,1,196.58,53Z"/><path class="c" d="M125.34,76.94c2.15-11.21,8.3-16.56,16.83-21.58,4.74-2.79,8.15-7.83,13.11-10,5.91-2.56,11.47-5.12,17.54-7.42,4.25-1.62,8.82-1.26,13.32-1.12,8.71.25,17.31,4.42,25.25,8,6.44,2.91,12.09,8.6,18.44,11.74C234.67,59,247,63.35,254,67.05c6.87,3.62,8.46,4.51,11.54,11.9,10.27,24.62-4.36,41.1-8.63,44.56-5.84,4.71-13.38,7.26-30.27,8.68-8.63.72-34.41-.24-47.85,4.26-10.34,3.45-26.55-.14-37.37-5.32C120.68,121.18,123.58,86.07,125.34,76.94Z"/><path d="M246.78,87.58c1.66,7.37,9.61,12.17,17.73,11.17s10.25-7.58,9.18-14.17a13.34,13.34,0,0,0-3.49-7.5c-1.24-1.18-1.9-1.8-3.93-1.49-2.71.4-4.27.72-6.94.26a30.37,30.37,0,0,0-5.58-.78c-4.25.06-6.51,2.49-7.11,6.43A16.34,16.34,0,0,0,246.78,87.58Z"/><path class="c" d="M261.25,79.8c.7,1.74-1.31,4.19-4.48,5.46s-6.31.89-7-.85,1.31-4.19,4.49-5.46S260.56,78.06,261.25,79.8Z"/><path class="f" d="M259.36,112.23c0-.85.17-1.75.18-2.49,0-2.81,0-5.62,0-8.43,0-1.23,0-2.47,0-3.7a4.17,4.17,0,0,1,.15-1.76c2-3.27,2.63,3.7,2.76,4.56,0,.13,0,.26,0,.39a47.65,47.65,0,0,1-.44,8c-.14,1.33-.28,2.67-.5,4a7.21,7.21,0,0,1-.23,1.23c-.38,1-1.43.92-1.79-.13A4.88,4.88,0,0,1,259.36,112.23Z"/><path class="g" d="M166.84,65c-1.28,3.75-1.4,11.43.89,16.32,4.64,10,3.13,13.34,16,17.94,7.84,2.8,35.91,13.19,34.34-4.32-.34-3.83-2.71-7.53-2.26-11.39.42-3.59,2.94-6.87,4.49-10.09,2.57-5.29,4-7.41-1.4-11.47a45.12,45.12,0,0,0-8.41-4.72C199.8,52.38,187.06,46,175.8,54.36,172,57.17,168.27,60.78,166.84,65Z"/><path class="c" d="M186.53,63.47c-9,2.9-3.69,12.72,3.8,14.82s19-9.16,9.82-16.16C196.81,59.6,189.72,62.44,186.53,63.47Z"/><path class="h" d="M186.58,67.9c-1.52.91-1.56,1.83-1.17,3.27.44,1.6,7,.93,8.7.82,1.93-.12,5.94,1,6.88-1.09,1.7-3.74-5.83-4.29-8-3.86C191.89,67.25,188.11,67,186.58,67.9Z"/><path class="c" d="M144.9,57.63c1.82-5.87,6.1-10.33,9.53-14.78,5.85-7.62,7.63-18.81,14.43-25.71a9.93,9.93,0,0,1,3.84-2.3c-.61-3.51-2.66-12.66-6.9-9.52C164.16,6.53,163.2,9,162,10.5,156.81,17,154.07,25,148.34,31.33c-3.56,3.94-7.59,7.51-10.53,11.94-3.66,5.54-7.05,14.79-4.86,21.37s8.63,10.83,14.71,5.63l.43-.34a5.37,5.37,0,0,1-1.37-1.18C144,65.5,143.92,60.8,144.9,57.63Z"/><path class="e" d="M154.54,65.08a5.29,5.29,0,0,1,1-.91,8,8,0,0,1,3.94-1.09,10.75,10.75,0,0,0,4-.84c2.4-1.24,2.48-5.76,3-8.18.79-3.41,1.25-6.91,2.27-10.27a88.06,88.06,0,0,0,1.88-9.28c1.24-6.63,3.33-12,2.06-19.5l0-.17a9.93,9.93,0,0,0-3.84,2.3c-6.8,6.9-8.58,18.09-14.43,25.71-3.43,4.45-7.71,8.91-9.53,14.78-1.08,3.5-.87,12.32,4.49,12.28,1.45,0,2.62-1.17,3.44-2.36A28.5,28.5,0,0,1,154.54,65.08Z"/><path class="f" d="M235.19,114a1.62,1.62,0,0,1,.22-2.22,1.49,1.49,0,0,1,2.15.24c1.09,1.38,3.26,2,5.8,1.74a30.79,30.79,0,0,0,3.49-.7,28.76,28.76,0,0,1,4.23-.8,32.7,32.7,0,0,1,4.08,0,20.41,20.41,0,0,0,4.35-.1c.94-.15,1.9-.75,2.8-.25,1.5.84,1.07,2.15,0,2.86-1.84,1.2-5.16.73-7.24.65a30.27,30.27,0,0,0-3.69,0,28.94,28.94,0,0,0-3.81.73,30.69,30.69,0,0,1-3.84.76c-.32,0-.64.07-1,.08C239.53,117.1,236.81,116,235.19,114Z"/></svg>