<svg xmlns="http://www.w3.org/2000/svg" width="218.99" height="212.12" viewBox="0 0 218.99 212.12"><defs><style>.a{fill:#231f20;opacity:0.3;}.b{fill:#d16d2a;}.c{fill:#edb272;}.d{fill:#ffce8f;}.e{fill:#e58339;}.f{fill:#0b0808;}.g{fill:#fff;}.h{fill:#a85e2c;}</style></defs><path class="a" d="M202.2,196.7c0,8.52-38.46,15.42-85.91,15.42s-85.93-6.9-85.93-15.42,38.47-15.42,85.93-15.42S202.2,188.18,202.2,196.7Z"/><path class="b" d="M188.12,84.68c7.56,11-11.32,10.22-16.59,13.75-7.45,5-5.7,20.91,2.34,24.67,5,2.35,15.22,2.25,20.6,1a32.52,32.52,0,0,0,11.37-5.23c1-.69,7.16-7.33,7.55-7.26a9.81,9.81,0,0,0-7.85,2.43c7-3.35,11.12-15.92,10.93-23.33A44.62,44.62,0,0,0,213,97.15c.23-10.18-3-16.5-11.28-21.86-6.21-4-17.57-8.9-24.74-4.7,2.79,1.43,7,2.34,9.52,4.31a14.17,14.17,0,0,0-9.56,3.92A14,14,0,0,1,188.12,84.68Z"/><path class="b" d="M186.12,155.83a5.87,5.87,0,0,0-1.41-.72l-21.28-23.77c-.17-.32-.33-.63-.51-.94a17.48,17.48,0,0,0-5.28-5.52l-.23-.26-.06.07a15.4,15.4,0,0,0-17.72.75c-7.7,5.77-9.76,17.33-4.61,25.83s15.59,10.72,23.29,5a18.34,18.34,0,0,0,1.64-1.4l9.52,10.63c-2.76,5.9-2.48,12,1,14.47,4,2.88,10.78-.18,15.11-6.83S190.13,158.71,186.12,155.83Z"/><path class="c" d="M186.12,155.83a5.87,5.87,0,0,0-1.41-.72l-.16-.18c-5.92,15-13.61,11.61-15.16,10.73-2.67,5.83-2.37,11.81,1.05,14.27,4,2.88,10.78-.18,15.11-6.83S190.13,158.71,186.12,155.83Z"/><polygon class="b" points="22.6 151.14 30.15 167.77 85.47 136.88 77.92 120.25 22.6 151.14"/><path class="d" d="M34.37,166.47C31,170.4,24,169.13,18.81,163.61s-6.66-13.17-3.27-17.1,10.35-2.66,15.56,2.85S37.76,162.53,34.37,166.47Z"/><path class="e" d="M78.3,142A62.18,62.18,0,0,1,86,136.72c5.1-3.17,13-5.19,18.81-2.76,4.08,1.71,7.85,4.65,12.09,5.54s9.12.63,13.5,1.08C139.53,141.5,148,139,157,139c7.56,0,16.6-.53,21.39,5.75,7.91-14.74,12.41-41-5.88-46.86-7.93-2.55-16.21-4-24.11-7.44-5.12-2.23-9.88-3.7-14.66-5.69-1.93-.81-3.87-1.7-5.83-2.75-12.82-6.9-24.51,1.25-31.35,12.43-3.91,6.38-5.61,13-11,18.23-6.77,6.64-14.72,14.17-12.39,24.83a18.8,18.8,0,0,0,3,6.6A25.6,25.6,0,0,1,78.3,142Z"/><path class="e" d="M92.16,156.16C111,163.3,128,151.47,146.68,154c9.31,1.24,21.77,4.89,28.56-4.18a40.49,40.49,0,0,0,3.14-5C173.59,138.49,164.55,139,157,139c-9,0-17.46,2.48-26.58,1.56-4.38-.45-9.2-.18-13.5-1.08s-8-3.83-12.09-5.54c-5.79-2.43-13.71-.41-18.81,2.76A62.18,62.18,0,0,0,78.3,142a25.6,25.6,0,0,0-2.12,2.08C80.05,149.7,86.59,154,92.16,156.16Z"/><path class="e" d="M213,145a5.57,5.57,0,0,0-1.57-.18L183.2,129.88c-.26-.24-.52-.48-.8-.7a17.4,17.4,0,0,0-6.86-3.35l-.3-.16,0,.08a15.4,15.4,0,0,0-16.36,6.85c-5.23,8.07-3.16,19.64,4.63,25.82S181.8,163.08,187,155a18.46,18.46,0,0,0,1.05-1.89l12.62,6.68c-.55,6.48,1.82,12.1,5.93,13.23,4.76,1.31,10-3.9,11.79-11.64S217.74,146.31,213,145Z"/><path class="d" d="M213,145a5.57,5.57,0,0,0-1.57-.18l-.22-.12c-.36,16.12-8.74,15.61-10.5,15.32-.48,6.4,1.88,11.9,5.94,13,4.76,1.31,10-3.9,11.79-11.64S217.74,146.31,213,145Z"/><polygon class="e" points="67.92 176.18 81.02 187.83 123.81 129.89 106.68 122.6 67.92 176.18"/><path class="d" d="M80.92,189.28c-2.26,4.83-9.27,5.77-15.66,2.1S55.54,180.81,57.79,176s9.27-5.77,15.66-2.1S83.18,184.44,80.92,189.28Z"/><path class="e" d="M153.05,89.66c-2.2-6.27-6.61-8.6-10.09-13.68,3.12-.3,7,1.07,9.83,2.51-2-2.95-3.29-7.24-5.47-10s-5.38-3.86-7.38-6.16a29.81,29.81,0,0,1,8.46,1.53c-1-3.14-1.58-6.36-3.6-8.92a30.1,30.1,0,0,0-7.65-7.32,40.42,40.42,0,0,1,7.08.41c-2.67-11.21-12.13-17.93-21.11-21.91a73.54,73.54,0,0,0-16.26-5c-2.61-.49-5.28-.57-7.87-1-2.88-.51-5.83-1.92-8.68-.43,1.15-1.42,3.75-4.76,4.31-6.81-4.48-.44-12.16,2.81-15.23,6.63-1.73-1.14-3.19-3.39-4.86-4.82a40.5,40.5,0,0,0-7.11-4.73c1.45,2.44,3.31,4.66,3.68,7.69A35.2,35.2,0,0,0,63,15.85c-1.29,1.67-11.15.14-13.65.31a63.2,63.2,0,0,0-14.2,2.48C27,21.11,18.51,25.91,14.89,35a41,41,0,0,1,7,1,28.12,28.12,0,0,0-8.63,5.69c-2.36,2.12-3.44,5.18-4.87,8.07A29.65,29.65,0,0,1,17,50c-2.31,1.87-5.75,2.4-8.18,4.6s-4.48,6.29-6.89,8.8c3-.86,7-1.44,10.06-.52C7.8,67.16,3.11,68.57,0,74.32c3.64-.39,7.92-.79,11.66-1A29.57,29.57,0,0,0,2.66,90c2.45-1.55,5.13-4.22,8-4.73-2.39.43-2.7,16.24-2.55,18.31.28,4,2.38,10.61,1.64,14.39.66-3.4,3.64-6.62,6.18-8.28-1.44.94-.51,11.06-.32,12.76.49,4.42,1.65,9.2,4.55,12.3a8.23,8.23,0,0,0-.81-.65,13.41,13.41,0,0,1,2-4.51c3.79,2.29,5.24,10.7,9.7,11.86A41.24,41.24,0,0,1,34,133.8c-.26.49,3.09,4.7,3.53,5.34,1.35,1.94,2.55,4,4,5.92a24.69,24.69,0,0,0,7.05,6.54c-.4-2.88.08-6.18.23-9.24-.19,3.85,9.1,10.68,12,11.32.55-1.9.66-10.39,3.06-9.63,2.13.66,3.47,11.79,4.75,14.17,2.29-2.28,3.46-6.1,5.2-9,.61,2.7,1.63,5.48,2.42,8.1,2.68-1.77,3-6.87,4.57-9.59-.11,4.07-.19,7.64,1.64,11.17,4-3.22,7-9.13,10.93-12.52,0,3.29-.45,6.66-.53,9.95,6.45-2.16,12.63-9.81,17-15.37,0,4.11-1.55,8.05-2.53,11.63,3.2-.76,7.44-6.5,10.24-9,3.62-3.2,4.56-6.19,6.9-9.54.72,3.92-.07,7.61-1.16,11.29,1-3.32,4.12-7.65,5.5-11.2,1.8-4.59,3.16-7.6,3.26-12.78,2.26,2.14,4.71,5.91,4.86,9.38a40.66,40.66,0,0,0,3.55-16.06,32.6,32.6,0,0,0-.87-8c-.61-2.64-2.52-5.26-2.76-7.72,2.28,1.22,11.57,4.75,12,8-.94-7.63-2.21-14.24-7.18-20.71C145.37,87.31,149.52,88.56,153.05,89.66Z"/><path class="d" d="M71.21,47.58l-1,.31c-3.24,1-6.9,4.15-10.14,4.37-.16-2.25.91-5,1.65-7.19a38.18,38.18,0,0,0-7.8,6.51c-3.64-3.56-4.77-6.73-9.57-9.13-5.41-2.71-11.17-3.23-16.95-4.77,1.28,2.15,3.46,3.91,4.67,6.09,0-.06-5.11-.19-5.56-.15-3,.24-2-.94-3.27,1.94s-.58,7.67-.12,10.65C24.17,63.1,27.52,70,33.5,73.88c-1-.65-1.42,6.71-1.4,7.37.11,2.5-.17,6.07,1.37,8.19a12.56,12.56,0,0,0,5.47,4.26c2.25.66,4.06-1,6.08-1.37-.26,1.86-2.52,4.16.21,4.66,2.42.44,4.64-2.23,6.8-3.1.54,1.6,1.38,4.55,3.34,4.53s2.69-2,4.1-3c.52,1.43,2.74,3.41,4.34,3.41,1.81,0,2.19-1.61,2.88-2.9,1.06,2.33,1.68,2.3,4.14,2.42S76.12,96.8,78,95.5c2.76-1.92,2.88-6.55,2.51-9.64-.08-.67-1.52-6.66-2.29-6.51,6-1.21,14.44-3.11,18.35-8.35,1.52-2,1.62-4.41,2.67-6.66,1.5-3.24,4.07-6.26,6.2-9.12a36.38,36.38,0,0,1-9.13,1c2-.66,5.72-4,8-5.77C93.85,48.43,81.63,44.56,71.21,47.58Z"/><path class="f" d="M56.13,72c-.43,3-4,4.93-8,4.3s-6.89-3.56-6.46-6.57,4-4.93,8-4.3S56.57,69,56.13,72Z"/><path class="f" d="M85.24,64.09A9,9,0,0,1,75,71.85a9.28,9.28,0,0,1-7.62-10.56,9,9,0,0,1,10.26-7.77A9.31,9.31,0,0,1,85.24,64.09Z"/><path class="f" d="M44.87,58.26A7.76,7.76,0,0,1,36,64.94a8,8,0,0,1-6.56-9.09,7.77,7.77,0,0,1,8.83-6.68A8,8,0,0,1,44.87,58.26Z"/><path class="g" d="M43.15,54.41c.73,1.9.32,3.8-.91,4.25s-2.81-.72-3.54-2.61-.31-3.8.91-4.25S42.43,52.52,43.15,54.41Z"/><path class="g" d="M83.07,59.65c.78,2,.29,4.12-1.11,4.64S78.8,63.55,78,61.51s-.29-4.12,1.1-4.64S82.28,57.6,83.07,59.65Z"/><path class="f" d="M48.12,81.35a.88.88,0,0,1-.77-.69,10.92,10.92,0,0,1,.85-9.19.68.68,0,0,1,1.17,0A1.42,1.42,0,0,1,49.42,73a8.11,8.11,0,0,0-.54,6.77,1.3,1.3,0,0,1-.44,1.48A.62.62,0,0,1,48.12,81.35Z"/><path class="g" d="M52.52,67.75c1.67,1.06,2.5,2.7,1.87,3.67s-2.5.9-4.17-.16-2.5-2.7-1.86-3.67S50.86,66.69,52.52,67.75Z"/><path class="f" d="M62.38,88.23c-5.13,0-12.46-5.37-14.16-6.66-4.19,1.5-6.92,1.55-8.33.14a3.42,3.42,0,0,1-.83-3A.81.81,0,0,1,40,78a.9.9,0,0,1,.6,1.07A1.54,1.54,0,0,0,41,80.4c.44.43,2,1.22,7.09-.67a.76.76,0,0,1,.74.12c2.86,2.27,11.12,7.83,15,6.36a3.15,3.15,0,0,0,1.9-2.38.8.8,0,0,1,1-.61.91.91,0,0,1,.56,1.1,4.86,4.86,0,0,1-2.93,3.58A5.79,5.79,0,0,1,62.38,88.23Z"/><path class="d" d="M95.28,109.47c1.17-1,1.3-2.65,2-3.66-.35.51-3.82.89-4.61,1.21-1.42.59-2.81,1.15-4.31,1.63s-3.3,2.09-4.8,2c1.67-1.19,4.69-3.8,4.93-5.82-1.91-.25-5.65,2.91-7.33,3.72s-3.33,1.58-5,2.31c-1.89.83-4.07,2.28-6.13,2.7,1.41-2,3.18-3.83,4.6-5.85-1.87-.35-4.56,1.45-6.2,2.11-3.29,1.32-6,3.24-9.69,3.76s-6-2-9.05-3.73-6.29-3.52-9.33-5.46c0,2.07,2.78,4.32,2.3,6.4-2.12-.35-5.13-2.79-6.88-4-3.46-2.37-6-5.09-9.93-6.81a15.93,15.93,0,0,0,2.2,6.62,62.28,62.28,0,0,1-8.56-6c-1,5.65,1.58,11.06,4.08,16.3,2.25,4.69,5.11,10.93,9.72,13.86a63.82,63.82,0,0,0-1.44-6.31c3.38,3.8,8.5,7.45,12.76,10a16.37,16.37,0,0,0-2.79-4.59c2.41,2.93,11.52,7.1,11.93,11a27.58,27.58,0,0,1,.87-9.65c-.21.75,1.72,5.29,2.86,8,1.12-2.56,3-6.78,2.81-7.57a29,29,0,0,1,.92,9.78c3-3.38,7.54-5.55,9.91-9.6-.06,2.11.52,4.23.6,6.35,0-.33,2-1.5,2.27-1.82a14.46,14.46,0,0,0,1.8-2.4c1.07-1.63,2.1-3.71,4.25-4.32a2.61,2.61,0,0,0,.4,1.94c4.61-4.78,9-9.58,14.14-13.91a55.44,55.44,0,0,1,8.19-5.65c2-1.13,4.68-2,6.33-3.43a15.7,15.7,0,0,1-2.26,0c-1.26.1-2.5.39-3.75.57A29.69,29.69,0,0,1,95.28,109.47Z"/><path class="e" d="M114.42,44.45c1.17.31,14.74,5,14.41,3.33C126.6,36.39,126,2.05,105.52,11.16,93.24,16.6,90.18,32,93.37,43.77,100.5,43,107.2,42.58,114.42,44.45Z"/><path class="h" d="M120.84,42.11c.79-9.39-6-24.15-16.61-22.27s-14,16.77-3.53,19.45C105.16,40.42,116.51,42.84,120.84,42.11Z"/><path class="e" d="M53.06,31.5c1.11.13,14.09,2.66,13.57,1.17-3.5-10.1-8.46-41.32-26-30.37-10.49,6.55-11.28,21-6.85,31.3C40.18,32,46.24,30.73,53.06,31.5Z"/><path class="h" d="M58.14,26.74C57.7,19,50.46,7.67,42,10.44s-9.53,15.35-.63,16.32C45.12,27.17,54.69,27.84,58.14,26.74Z"/></svg>