<svg xmlns="http://www.w3.org/2000/svg" width="232.42" height="243.43" viewBox="0 0 232.42 243.43"><defs><style>.a{fill:#231f20;opacity:0.3;}.b{fill:#2d2d35;}.c{fill:#474650;}.d{fill:#f15a29;}.e{fill:#fff;}.f{fill:#912f41;}.g{fill:#b7375c;}.h{fill:#e1b65b;}.i{fill:#c18421;}</style></defs><path class="a" d="M7.44,228.93c0,8,38.81,14.5,86.67,14.5s86.68-6.49,86.68-14.5S142,214.42,94.11,214.42,7.44,220.91,7.44,228.93Z"/><path class="b" d="M103.75,226.68c1.7.95,3.42,1.9,5.07,2.79-.09-2.62-3.45-6-5.16-7.91a11,11,0,0,0-3.81-2.84c-1.42-.6-3.4-.48-4.22-2-1.62-3,3-6.65,4.12-9.11,2.86-6.48,5.41-13.86,5.08-21a38.42,38.42,0,0,0-1.54-9.89c-.82-2.57-2.45-4.18-3.71-6.45-2.93-5.3-5.87-10.24-11.73-12.76-5.23-2.24-11.35-2.33-17-1.72-5.35.57-13,2.65-16.84,6.64-7.75,8-12.47,16.8-13.55,28.08-.47,4.87.38,9.78,1.29,14.53,1.63,8.49,3.78,15.65,13,18.53,4.11,1.28,8.81-1.62,12.77-.1,1.8.7,3,2.45,4.5,3.65,3.34,2.73,8.7,3.64,12.78,4.74a16.66,16.66,0,0,0-1.44-3.58c2.66,1.64,6.31,2.22,9.15,3.14a20.65,20.65,0,0,0-3.37-4.32A25.44,25.44,0,0,0,96.81,231c.07-1.49-1.14-3.49-1.74-4.88.93,1.44,7,3.73,8.83,4.07a20.46,20.46,0,0,0-2-4.56Z"/><path class="b" d="M116,196.84c-2.66-11.32,6.33-60.28,26.45-42.41,7.11,6.32,4.29,12.88,3.68,21a216.91,216.91,0,0,0,.12,27.46c.24,4.57,2,27.19,7.07,28.63-3.69-1-8.63-5.78-10.75-9,.3,2.43,2.38,5.92,3,8.88-3.37-1.65-6.38-5.41-8.45-8.3-.59,2.73.44,6.46,1.1,9.48-2.92-2.26-4.93-6.33-7.17-9-1.88,2.7-.56,5.81-.68,8.87-3.87-1.47-8.46-13.28-10.09-17.59C118.62,210.35,117,201.14,116,196.84Z"/><path class="c" d="M27.8,177.61c-4.14,11.76.58,26,12.35,33.3,10.51,6.56,39.21,14.51,43.38-2.77-.42,1.73.27,2.81.35,4.19,3.83-2.15,8.9-7.53,10.35-12q.08-.5-.06,0a21.8,21.8,0,0,0,1.74,5.22c3.34-4.27,9.5-7.3,10.91-13.11a19.55,19.55,0,0,0,3.39,6.38c4.07-3.32,5.77-7.76,10.22-10.54,3.76-2.36,8.48-3.72,12.37-6.2,22.06-14.1,15.43-21.14,14.47-39.37-1-18.93-18.67-33.06-36.65-34.23-7.93-.51-16.6.53-23.59,4-6,2.94-6.6,8.1-10.21,12.76s-9.55,6.17-14.71,9c2.79,1.13,5.93,2.08,8.63,3.13-4.74,4.27-11.29,5.24-16.36,9.13,1.78.3,3.81,1.5,5.47,1.8-5.55,3.6-12.13,6.27-17.92,9.38,1.34,0,3.69.73,5.06.58C41.41,166.41,31.37,167.46,27.8,177.61Z"/><path class="b" d="M49,215.05a17.36,17.36,0,0,0,4.41-7.23c-.1,2,1,2.45,1.54,4.14,4.43-1.91,9.87-6.35,11-11.18-.21,2.09.73,3.75,1.44,5.54,5.53-3.69,9.71-9.95,13.52-15.28a10.29,10.29,0,0,0,.56,6.31,82,82,0,0,0,11.24-13.1c.93,1.72,2.54,3.34,3.46,5.05,4.7-5.18,1.67-6.11,8.59-7.79,3.58-.87,7.41-1.29,11.05-2,7.16-1.3,15.35-4.4,22.19-1.06-1.51,1.14-3.22,2.32-5.15,3.56-3.89,2.48-8.61,3.84-12.37,6.2-4.45,2.78-6.15,7.22-10.22,10.54a19.55,19.55,0,0,1-3.39-6.38c-1.41,5.81-7.57,8.84-10.91,13.11a23.55,23.55,0,0,1-1.72-5.1c-1.5,4.47-6.51,9.78-10.31,11.91-.08-1.38-.77-2.46-.35-4.19C80.25,221.73,61.83,219.72,49,215.05Z"/><path class="d" d="M82.16,108c-4.34,13.68,9.41,30.24,30.7,37s42.08,1.14,46.42-12.54-9.41-30.24-30.71-37S86.49,94.31,82.16,108Z"/><path class="c" d="M13.81,180.18c4.38,4,18.51,16,24.17,6.92,4.2-6.75-5.93-16.43-10.75-19.72-9.11-6.2-16.9-15.64-25.12-23C2.29,149.27,3.8,152.54,6,157a13.46,13.46,0,0,1-6-3.18C-.15,164.61,5.72,172.79,13.81,180.18Z"/><path class="b" d="M178.77,44.79c-1.91,20.75-16.61,44.94-36.62,31.42-12.43-8.4-16-21.89-16.54-35.77-.21-5.68,0-11.67,2.35-16.91a16.39,16.39,0,0,0,2.09,5.09c1.78-4.59,2.73-9.72,4.57-14.32a8,8,0,0,1,1.68,4.31c2-4.49,2.59-10,4.35-14.62,1.47,1.59,2.16,3.71,3.16,5.42A92.73,92.73,0,0,1,147.42,0c2.93,2.83,13.85,10.23,13.17,15.16a45.62,45.62,0,0,0,0-6.41c3,3.84,6.74,6.46,9.49,10.4,2.58,3.71,3.57,8.22,5.17,12.41.15-1.46.87-2.92,1.09-4.35C178.67,31.8,179.38,38.11,178.77,44.79Z"/><path class="c" d="M202.68,128a56.67,56.67,0,0,1-15.86,12.1,61.26,61.26,0,0,1-63.24-5.57c.92,2.72,2.5,5.43,3.06,8.24-7.3-3.76-13-12.52-19.76-15.65.34,1.75,0,3.81.49,5.58-1.37-4.6-9.61-10.83-12.29-15.43-.48,3.34.22,7.17.63,10.69a112,112,0,0,1-9-17c-.34,1.61-1.39,3.12-1.49,4.93-3.33-6.48-3.89-13.65-6.66-20.58-.69,1.22-2.24,2.25-2.85,3.28C73.19,85.73,75.43,72.3,77,59.63,79.13,42,90.88,43.15,103.71,37.87c-3.66-2-3.41-5.27-7.07-7.22,6.78.06,16.28.72,22.37,3.64a13.39,13.39,0,0,1,6.78-11.08c.53,3.14.72,6.44,1.2,9.58,11.59.31,29.48-1.4,37.87,8.57-1.62.43-7.21,1.66-8.71.57,3.44,2.51,6.94,3.56,10.37,6.75s5.54,7.52,8.63,10.81c4.16,4.44,10.28,10.2,15.39,13.09-1.78-.15-3.7.61-5.4.63,4.91,6.33,10.05,10.75,16.3,15.47,10.5,7.93,17.95,12.09,11.14,25.37A61.62,61.62,0,0,1,202.68,128Z"/><path d="M137.52,84.77c.57,5.62,4.92,9.79,9.72,9.3s8.23-5.43,7.66-11-4.91-9.8-9.71-9.31S137,79.14,137.52,84.77Z"/><path class="e" d="M146.55,81.83c-1.35-2.32-1.24-4.9.23-5.75s3.75.35,5.09,2.67,1.24,4.9-.23,5.75S147.89,84.15,146.55,81.83Z"/><path d="M169.62,79.92c.7,5.23,4.26,9.17,8,8.8S183.7,83.8,183,78.57s-4.26-9.17-7.95-8.8S168.92,74.68,169.62,79.92Z"/><path class="e" d="M175.91,76.87c-1.14-2-1.1-4.12.07-4.8s3.06.36,4.2,2.33,1.1,4.12-.07,4.8S177.05,78.84,175.91,76.87Z"/><path class="c" d="M131.36,117c4.84-14.83,26.68-20.91,44.29-23.08h0l.33,0,.33,0v0c17.69-1.4,40.32.21,48,13.78,2.58,4.55-.76,13-2.85,17.72-2,4.44-5.46,8.22-8.92,11.54-1.21,1.16-8.84,6-8.94,7.3.12-1.58-.66-3.31-.57-4.8-2.74,3.07-5.49,7-10,7.3.11-1.28-.67-2.8-.47-4.15a45.74,45.74,0,0,1-9.07,6.57,18,18,0,0,1-2.21-2.75,16.84,16.84,0,0,1-1.62,3.13,45.07,45.07,0,0,1-10.19-4.62c.46,1.28,0,2.92.36,4.16-4.5.57-8-2.7-11.27-5.16.39,1.45,0,3.29.41,4.81-.36-1.26-8.8-4.47-10.22-5.37-4.06-2.56-8.24-5.56-11-9.53C134.71,129.57,129.75,122,131.36,117Z"/><path d="M176.58,123.26a7.72,7.72,0,0,0-.66,4.65c.58,3.41,5.14,5.5,8,6.09a13.63,13.63,0,0,0,11.14-2.25c2.91-2,7-6.93,6.88-10.66C201.79,110.75,180.89,114.18,176.58,123.26Z"/><path class="f" d="M199.91,121c-.91-.49-2.36,0-3.2.37-2.06.85-4,2.19-6.11,2.87a32.68,32.68,0,0,1-7.87,1.79c-1.18.07-5.12-1.76-4.9.69.13,1.5,1.43,2.86,2.67,3.71,1.33-2.15,3.64-4.44,6.38-4.6,1-.06,1.57.3,2.35.21,1-.11,1.9-.54,3-.62a10.5,10.5,0,0,1,4.72.51c.82-1,1.58-2.15,2.44-3.08S201.19,121.68,199.91,121Z"/><path class="g" d="M182,131.24a7,7,0,0,1-1.47-.81c-.21.35-.4.69-.57,1-1.5,3.09-1,6.47-1.93,9.65-.7,2.24-.72,5.39,2.13,6.36a9.91,9.91,0,0,0,7-.65,7.17,7.17,0,0,0,2.57-2.06,7.28,7.28,0,0,0,1.22-3.37,22.71,22.71,0,0,1,.58-3.24,26,26,0,0,0,.56-4,16.81,16.81,0,0,1,.6-4.18c0-.1.08-.18.12-.27a6.48,6.48,0,0,1,.62-.95c-1.66.86-3.42,1.64-5.12,2.32A8.77,8.77,0,0,1,182,131.24Z"/><path class="g" d="M189.23,126c-.78.09-1.4-.27-2.35-.21-2.74.16-5,2.45-6.38,4.6a7,7,0,0,0,1.47.81,8.77,8.77,0,0,0,6.3-.18c1.7-.68,3.46-1.46,5.12-2.32a5.94,5.94,0,0,1,1.47-1.27c.2-.12.8-.47,1.42-.77.22-.25.44-.5.65-.77a10.5,10.5,0,0,0-4.72-.51C191.13,125.5,190.21,125.93,189.23,126Z"/><path class="h" d="M221,99.77A27,27,0,0,0,215,95c-8.08-4.65-16.93-7-26.44-4.85-3.87.87-12.68,5.55-9.49,10.28,2.48,3.69,9.08.74,12.65,2.39,4.66,2.15,7.56,10.61,8.8,15.23a46,46,0,0,1,.74,21.55c-.84,3.89-2.59,12.87-7.13,14.62,2.81-1.09,7.06-3.64,8.86-6.35a43.61,43.61,0,0,1-5.64,7.56c5.73-1.86,8.82-2.67,12.76-7.55a49.33,49.33,0,0,0-2,6c4.07-1.16,11.43-6.86,12.31-11.23-.31,1.52.16,3.89.55,5.7,3.15-3.23,4.89-8.28,7-12.05.5,1.67,1.26,3.21,1.62,5,4.86-10.53,3.12-22-2-32A39.88,39.88,0,0,0,221,99.77Z"/><path class="i" d="M176.19,123.12c-3.05.19-6.05,2.77-9,3.75,5.24-6,5.62-18.05,13.18-21.91a33.91,33.91,0,0,1,14.45-3.32,33.83,33.83,0,0,1,14.82.37c8.18,2.28,11,14,17.28,18.84-3.08-.36-6.54-2.3-9.56-1.88.61,1,.9,2.35,1.51,3.45-3.05.1-5.84-2.5-8.89-2.75a14.7,14.7,0,0,0,1.13,4.38c-3.21-.86-5.57-4-9.05-4.4.28.94-.09,2.27.19,3.2-1.27-.25-3.76-1.71-5.48-1.88-1.66.51-3.81,2.44-5,2.94.09-1-.54-2.2-.45-3.18-3.34,1.07-5,4.63-8,6.12a14.68,14.68,0,0,0,.24-4.52c-2.94.85-5.15,4-8.16,4.47C175.78,125.6,175.79,124.22,176.19,123.12Z"/><path class="h" d="M149.23,107.17a31.56,31.56,0,0,1,6.67-5.47c9.14-5.54,19.43-8.79,31-7.58,4.69.5,15.64,4.4,12.32,9.54-2.58,4-10.72,1.65-14.8,3.69-5.33,2.67-7.93,11.58-8.93,16.41a40.72,40.72,0,0,0,1.29,22c1.39,3.88,4.38,12.86,10,14.19-3.45-.82-8.77-3-11.19-5.59a46.82,46.82,0,0,0,7.47,7.14c-7-1.31-10.75-1.83-15.93-6.42a46.73,46.73,0,0,1,3,5.88c-4.95-.78-14.28-5.86-15.77-10.23.53,1.53.2,4-.07,5.87-4.07-3-6.66-8-9.59-11.58a52.75,52.75,0,0,0-1.42,5.22c-6.84-10.24-5.93-22.11-.89-32.82A40.06,40.06,0,0,1,149.23,107.17Z"/><path d="M202.09,95.59c-3.5.62-6.81,2-7.78,3.75-4.28,7.79,11.13,15.41,16.63,6.9C215.9,98.56,209.84,94.22,202.09,95.59Z"/><path class="e" d="M206.45,101.87c-2.21-.83-3.62-2.48-3.17-3.68s2.61-1.51,4.81-.68,3.62,2.48,3.17,3.68S208.65,102.7,206.45,101.87Z"/><path class="c" d="M64.63,54.59c10,18.3,33,34.73,46.05,14.4,8.1-12.63,6.08-26.45,1.07-39.4-2-5.3-4.58-10.73-8.84-14.61a16.64,16.64,0,0,1,.09,5.5C99.55,17,96.65,12.64,93.14,9.13a8,8,0,0,0,.16,4.63C89.72,10.42,87,5.62,83.53,2.05c-.73,2-.52,4.26-.77,6.22a90.34,90.34,0,0,0-7-7.21c-1.58,3.75-8.68,14.87-6.11,19.12A43.79,43.79,0,0,1,67,14.31c-1.22,4.72-3.64,8.61-4.6,13.31-.91,4.42,0,9,.15,13.44-.71-1.28-2-2.34-2.72-3.56C59.58,42.61,61.42,48.7,64.63,54.59Z"/><path class="i" d="M70.38,32.33c1.41,1.61,2.64,3.69,4.2,5.13.09-4.33-.61-9.35,1.14-13.61,2.11,1,3,3.49,4.55,5.37-.1-3.71-.06-7.86,1.12-11.57,2.37,1.76,4.15,5,5.62,7.47,0-.64,1-6.08.72-6.32C92,22.48,94.56,27.4,97.8,32a13.09,13.09,0,0,1,.65-6c1.71,3,4.07,5.49,5.62,8.66,3.15,6.38,5.1,15.12,3.37,22.29-4,3.47-8.1,7.48-10.48,8.73.53-2.72,1.12-5.56,2.54-7.77-2,2.45-7.46,5.78-11.43,7.24a51.32,51.32,0,0,1,1.48-6A13.16,13.16,0,0,1,81,64.52c.5-2.37,1.16-4.76,1.81-7.11-.69,2.5-2.51,3.88-4.68,4.9a26.58,26.58,0,0,1-4.47-7.16c-1.59-3.5-2.9-7.14-5.35-10.48,1,1,2.09,1.28,3.23,2C70.32,41.51,69.25,37.45,70.38,32.33Z"/><path class="i" d="M61.16,56.27,61,56.21c-.21-.15-.2-.16,0,0A.6.6,0,0,0,61.16,56.27Z"/><path class="h" d="M131.24,70.77c7-.3,15.62-.22,21.64,4.93a21.64,21.64,0,0,0-3.39-9.35c2.72,1.09,5,3.27,7.71,4.45-2.1-4.64-6-10.92-9.64-14.37-3-2.87-7.06-5.68-10.8-6.81-3.26-1-9.29-.27-11.69-3.72,2.21,3.21,4.94,6.09,7.26,9.43-4.48-2.46-8.72-2.69-13.51-2.22a46.15,46.15,0,0,1,5.2,4.38,47.67,47.67,0,0,0-13.24,3.27c2,1.72,4.77,1.35,7,2.65-3.81,3.36-8.06,5-10.76,11,1.46-3.25,20.28-3.51,24.12-3.68Z"/><path class="h" d="M174.73,65.13C170,66,164.21,67.55,161,73.62a29.76,29.76,0,0,1,.7-9.76c-1.65,1.52-2.78,4-4.42,5.67.63-4.91,2.2-11.75,4-15.75,1.54-3.32,3.78-6.78,6.1-8.51,2-1.51,6.19-1.83,7.22-5.63-1,3.53-2.3,6.82-3.29,10.49a11.72,11.72,0,0,1,8.69-4.45,43.15,43.15,0,0,0-2.75,5.18,23.36,23.36,0,0,1,9.43,1c-1,2-3,2.13-4.24,3.78,3.12,2.66,6.25,3.58,9.08,9-1.53-3-14.2,0-16.8.44Z"/><path class="h" d="M111.68,158.4c-.67-1.46-1.82-2.62-2.51-4.07,2.42.25,4.42,1.63,6.34,3,.87.62,4.09,2.4,4.44,3.32-.86-2.27-1.35-4.75-2.07-7,2.94,1.29,6,4.57,8.27,6.94-.71-1.95-.35-4.89-.23-6.95,1.93,1.68,2.43,4.53,4.16,6.31,2.37,2.44,8-3.69,8-6.26,0,.37,0,.73,0,1.1a32,32,0,0,1-1.46,2.93c-5.67,10-7.06,17.47-13.84,21.64,0-.53-1.92.28-2.67,1.33-.52.22-1.06.42-1.64.61a47.21,47.21,0,0,0-2.75-4.23,13.29,13.29,0,0,0,.27,2.75c-3.16-2.47-5.21-4.71-6.66-8.42-1.1-2.83-2.14-5.65-3.16-8.53-1.06-3.06-3.16-5.92-4-9C105.6,154.08,108.48,157.13,111.68,158.4Z"/><path class="c" d="M88.22,192.34c-2.49-13-4-26.1,4.08-38.89,6-9.43,17.79-12.59,25.59.91,6.89,11.94,7.18,26,7.23,39.47,0,12-2.25,31.41,5,41.59-3.56-2-7.67-3.58-10.57-6.32a32.75,32.75,0,0,0,3,7.64,27.21,27.21,0,0,1-8.82-6.92,36.52,36.52,0,0,0,2.17,8c-3.93-2.52-5.58-7-10-9-.67,2.07-.67,4.71-.88,7,.11-1.21-5.46-7.71-6.28-9.42C97,222.68,96,218.76,94.58,215A124.66,124.66,0,0,1,88.22,192.34Z"/><path class="c" d="M82.89,233.27c1.7,1,3.43,1.91,5.07,2.8-.08-2.62-3.45-6-5.16-7.91a10.91,10.91,0,0,0-3.8-2.84c-1.42-.6-3.4-.49-4.22-2-1.62-3,3-6.64,4.11-9.1,2.87-6.48,5.41-13.86,5.08-21a38.13,38.13,0,0,0-1.53-9.9c-.82-2.56-2.45-4.17-3.71-6.45-2.94-5.3-5.88-10.23-11.74-12.75-5.23-2.24-11.35-2.33-17-1.73-5.36.58-13,2.66-16.85,6.65-7.75,8-12.46,16.8-13.55,28.08-.47,4.87.38,9.78,1.29,14.52,1.64,8.5,3.78,15.66,13,18.54,4.1,1.28,8.8-1.62,12.76-.1,1.81.7,3,2.44,4.5,3.65,3.34,2.73,8.71,3.64,12.78,4.74a17,17,0,0,0-1.44-3.59c2.67,1.65,6.32,2.23,9.15,3.15a20.62,20.62,0,0,0-3.36-4.32A25.39,25.39,0,0,0,76,237.57c.08-1.49-1.13-3.49-1.73-4.89.92,1.44,7,3.74,8.83,4.08a20.49,20.49,0,0,0-2-4.56Z"/></svg>