<svg xmlns="http://www.w3.org/2000/svg" width="177.59" height="231.13" viewBox="0 0 177.59 231.13"><defs><style>.a{fill:#0b0808;}.b{fill:#453f4c;}.c{fill:#efc1af;}.d{fill:#7daf68;}.e{fill:#231f20;opacity:0.3;}.f{fill:#2f2a35;}.g{fill:#c4908c;}</style></defs><path class="a" d="M27.8,114c.19,4.55,5.63,8,12.13,7.64s11.63-4.29,11.44-8.85-5.63-8-12.14-7.65S27.6,109.45,27.8,114Z"/><path class="b" d="M33.1,98c-2.92-16.5-6.65-31.22,4.59-42.91,7-7.27,18.2-13.18,27.69-15.28A60.06,60.06,0,0,1,89,39.51c6.16,1.13,13.21,1.82,20,3.25,6.22,1.32,12.19,3.28,17,6.81,19.44,14.36,17.6,39.58,7.33,59.7-12.19,23.9-34.78,40.34-61.51,36.13C53,142.44,37.91,125.21,33.1,98Z"/><path class="b" d="M2,2.06c9.58-8.55,34.38,12,41.6,16.84C55.56,27,73.72,34,70.09,52.15a24.49,24.49,0,0,1-.93,3.46C66.27,63.76,57.58,62.89,50.35,66c-9,3.84-19.75,12.28-29.33,7.13-8.21-4.42-12.75-17-15.66-24.75-3.23-8.65-1.3-17.65-2-26.58C3,16.48-3,6.52,2,2.06Z"/><path class="b" d="M175.9,10.4c-9.06-9.13-35,9.85-42.49,14.26C121,32,102.44,37.89,105,56.24a24.59,24.59,0,0,0,.72,3.51c2.42,8.31,11.14,8,18.18,11.5,8.74,4.38,19,13.46,28.87,8.9,8.45-3.91,13.71-16.16,17.06-23.74,3.72-8.45,2.32-17.54,3.5-26.42C174,24.72,180.62,15.15,175.9,10.4Z"/><path class="c" d="M35.3,105.41c3.77,2.59,8.32,3.64,11.94,6.36a19.27,19.27,0,0,1,7.32,11.85,20.17,20.17,0,0,1-1.9,12.74c-8.16-7-14.54-17.75-18.07-31.5A8.3,8.3,0,0,0,35.3,105.41Z"/><path class="d" d="M138.41,128.83c1.67,3.85,1.73,10.61,0,14.37-1.68,3.58-4.86,6.7-7.76,8.94-6.42,4.94-14.39,7.15-22,7.55-11.21.58-22.87.45-31.94-7.66-4.53-4.06-8.54-5.17-9.3-12-2-17.86,13.12-24.86,25.81-27.38,12-2.37,31-4.44,39.82,7A48.37,48.37,0,0,1,138.41,128.83Z"/><path class="e" d="M51.44,216.68c.09,8.42,27.63,14.88,61.51,14.42s61.29-7.66,61.21-16.08-27.63-14.89-61.52-14.44S51.35,208.25,51.44,216.68Z"/><path class="f" d="M121.49,145s16,21,8.1,51.58l19.87,1.1s9.09-37.79-18.87-64Z"/><path class="g" d="M123.62,200.51c-.13,5,6.37,8.58,14.53,8s14.86-5,15-10-6.37-8.58-14.53-8S123.75,195.52,123.62,200.51Z"/><path class="b" d="M147.7,193.55a10.29,10.29,0,0,0-1.63-2.31c-1.14-1.19-2.58-2.07-3.79-3.2-3.91-3.6-5-9.13-5.66-14.31-1-8.17-.47-19.59,9.6-22.67,9.84-3,12.89-4.52,15.89,3.4,3.26,8.65,7.51,24.34,8.37,33.49.81,8.65-.24,16.52-.71,25.07-.41,7.59-5.8,8.42-13,8.57-2.26,0-5.56-.72-7.06-2.35-2.28-2.48-.82-4.65-.28-7.92C150.18,206.49,150.31,198.56,147.7,193.55Z"/><path class="f" d="M87.15,147.16S74.23,168.49,80.7,198.9l-19.63,1.21S54.43,162.22,79.31,136Z"/><path class="g" d="M84.53,200.57c.94,4.89-4.09,9.29-11.24,9.84S59.8,208.84,58.86,204s3.86-10.7,11-11.24S83.59,195.68,84.53,200.57Z"/><path class="b" d="M90.29,126.16c8.45-3.86,18.49-5.19,28-5.28,16.69-.15,32,12.28,39.23,24.91,3.07,5.39,5.73,8.39,5.87,18.88,0,4.09-1.91,6.91-5.47,10.44-4.89,4.85-8,5.93-15.05,7.45s-14.4,1.69-21.66,1.65c-8.22-.05-16.51-.37-24.45-2.27-10.88-2.59-19.74-4.75-23.66-14.52-3.35-8.34-2.51-21.55,2.58-29.23A33.87,33.87,0,0,1,90.29,126.16Z"/><path class="g" d="M118.68,175.47a92.35,92.35,0,0,0,32-3.19,10.49,10.49,0,0,1-3.53,9c-6.8,6.22-20.59,5-29.49,4.6-14.33-.64-39.88-4.9-44.51-18.48,11.27,3.64,22.61,4.57,34.5,6.63C111.26,174.67,115,175.17,118.68,175.47Z"/><path class="b" d="M97.84,195.22a10.35,10.35,0,0,1,1.34-2.41c1-1.26,2.22-2.23,3.25-3.42,3.33-3.83,4-9.41,4.3-14.62.47-8.22-.34-22.54-9.64-25-9.08-2.42-14.15,5.91-16.41,14A113.47,113.47,0,0,0,76.89,191c-.23,8.68,1.17,16.47,2.08,25,.8,7.55,6.73,9,13.29,8.7,2-.09,4.35-.36,5.62-2.08,1.92-2.61.12-6.3-.55-9.54C96.33,208.27,95.76,200.36,97.84,195.22Z"/><path class="f" d="M124.2,169.12a1.12,1.12,0,0,0,.66-.25l8-7.05a.68.68,0,0,0,0-1.09,1.08,1.08,0,0,0-1.33.05l-8,7a.67.67,0,0,0,0,1.09A1.07,1.07,0,0,0,124.2,169.12Z"/><path class="f" d="M132.45,168.84a1,1,0,0,0,.66-.24.68.68,0,0,0,0-1.09l-8.48-6.5a1.1,1.1,0,0,0-1.33,0,.68.68,0,0,0,0,1.09l8.49,6.5A1.06,1.06,0,0,0,132.45,168.84Z"/><path class="f" d="M128.37,170.38a.87.87,0,0,0,.92-.8L129,160a.89.89,0,0,0-1-.74.86.86,0,0,0-.91.8l.33,9.58A.86.86,0,0,0,128.37,170.38Z"/><path class="c" d="M103.49,215.41c1.68,5-2.76,9.87-9.91,10.82s-14.67-1.59-16.35-6.62S80.33,209,87.48,208,101.8,210.38,103.49,215.41Z"/><path class="c" d="M170.73,211.6c1.4,5-2.37,10.73-9.88,11.13-6.95.38-13.54-2-14.95-7s3-10,9.88-11.13S169.33,206.59,170.73,211.6Z"/><path class="f" d="M135.53,140.71c4.56-.55,9.59,0,14-1.17a22.93,22.93,0,0,0,3-1,50.4,50.4,0,0,1,5.11,7.28c.26.47.52.91.78,1.34a52.41,52.41,0,0,1-8.9,5.33c-7.33,3.25-17.38,3.83-19.77-6C128.76,142.69,131.74,141.16,135.53,140.71Z"/><path class="b" d="M133.12,138.12c4.47-1,9.53-1,13.73-2.69a18.87,18.87,0,0,0,8.24-5.93c3.93-5.19,5.26-12.92,3.85-19.29,1.68,1.85,2.37,4.55,2.92,6.67.31-.77.21-2,.84-2.64,2.16,5.17,3.87,10.27,1.5,17.52-2.11,6.49-11.48,14-15.8,16.51-6.88,4-18.42,7.2-22-2.31C125,142.32,129.41,139,133.12,138.12Z"/></svg>