<svg xmlns="http://www.w3.org/2000/svg" width="306.27" height="476.41" viewBox="0 0 306.27 476.41"><defs><style>.a{fill:red;stroke:#fff;stroke-miterlimit:10;stroke-width:10px;}.b{fill:#fff;}</style></defs><path class="a" d="M163.29,466.13c-1.48,7.06-11.57,7-13,0C137,400.8,113.73,322.37,50.46,259.91l-.1-.1-1.78-1.75A148.13,148.13,0,1,1,301.27,153.13c0,42.77-30.44,88.91-49.78,108.25C200.9,313.67,174.35,413.26,163.29,466.13Z"/><path class="b" d="M79.85,209.24h-.06l-3-.07L73.69,209l-1.53-.14h-.07l-1.44-.16h-.08l-1.43-.19h-.07l-1.42-.22h-.07L66.17,208l-.07,0-1.39-.27-.08,0-1.37-.3h-.07L61.83,207l-.08,0-1.32-.36-.09,0L59,206.26l-.08,0-1.28-.41-.09,0-1.26-.44-.09,0L55,204.85l-.09,0-1.2-.49-.1,0-1.17-.52-.1,0-1.14-.55-.1,0L50,202.56a.31.31,0,0,1-.1-.05l-1.08-.6-.1,0-1.05-.62-.1-.07-1-.64-.1-.07-1-.67-.1-.08-.94-.69-.1-.08-.9-.72-.1-.09-.86-.74a.94.94,0,0,1-.1-.1l-.81-.76a.57.57,0,0,1-.11-.11l-.77-.78-.11-.12-.72-.8a.64.64,0,0,1-.1-.13l-.68-.82-.1-.13-.63-.85-.1-.14-.58-.87-.1-.15-.53-.89-.09-.16-.48-.9-.09-.17-.43-.92-.07-.18-.38-.93-.07-.19-.32-.95-.06-.2-.27-1c0-.06,0-.13-.05-.19l-.21-1c0-.07,0-.14,0-.21l-.15-1,0-.21-.09-1c0-.07,0-.14,0-.21l0-1a1.48,1.48,0,0,1,0-.21l0-1a1.48,1.48,0,0,1,0-.21l.08-1a1.49,1.49,0,0,1,0-.21l.15-1,0-.2.2-1c0-.07,0-.13.05-.2l.27-1A1.8,1.8,0,0,1,35,174l.33-1.05a1.34,1.34,0,0,1,.07-.18l.39-1c0-.06,0-.12.07-.17l.46-1a.89.89,0,0,1,.08-.17l.52-1c0-.06,0-.11.08-.16l.59-1.05.09-.15.66-1,.09-.14.72-1a.64.64,0,0,1,.1-.13l.79-1,.09-.12.86-1,.1-.12.92-1,.1-.11,1-1,.09-.1,1.07-1,.09-.09,1.14-1,.1-.09,1.2-1,.1-.07,1.27-1,.09-.07,1.34-.95.1-.07,1.41-.93.09-.06,1.49-.92.09-.05,1.55-.9.09,0,1.62-.87.09-.05,1.7-.85.08,0,1.77-.84.09,0,1.83-.8.09,0,1.9-.78.08,0,2-.76.09,0,2-.72.07,0,2.13-.7.07,0,2.2-.68.07,0,2.27-.64.07,0,2.34-.61,2.48-.6,2.55-.57,2.62-.53,2.69-.5,2.75-.46,2.83-.44a3.61,3.61,0,0,1,1.67,7L92,149l-2.62,1-2.67,1.09-2.67,1.2-2.66,1.3L78.81,155l-2.54,1.45-2.45,1.51-2.34,1.56-2.18,1.59-2.07,1.63-1.91,1.64L63.56,166,62,167.64l-1.41,1.64-1.24,1.61-1.06,1.58L57.38,174l-.71,1.48-.54,1.42-.38,1.35-.24,1.27-.09,1.2,0,1.13.15,1.07.27,1,.38,1,.5.93.61.89.73.86.85.82,1,.79,1.09.73,1.22.69,1.31.62,1.43.56,1.52.5,1.6.42,1.69.34,1.75.27,1.81.18,1.87.11,1.9,0,1.94-.05,2-.14,2-.22,2-.3,2-.38,2-.45,2-.53,2-.6,1.94-.66,1.9-.74,1.87-.79,1.8-.85,2.69-1.41,2.55-1.51,2.43-1.62,2.31-1.72,2.16-1.79,2-1.87,1.89-1.92,1.76-2,1.62-2,1.5-2,1.79-2.69,1.6-2.69,1.74-3.28,3.29-7.29,2.65-6,.89-1.66a.56.56,0,0,0,.05-.08l.19-.32,0-.06.19-.31.07-.1.2-.29.05-.07.19-.27.08-.1.2-.25.09-.12.2-.23.1-.11.2-.22.12-.12.2-.2.14-.13.2-.17.16-.13.2-.16a1.33,1.33,0,0,1,.19-.14l.2-.14.23-.15.21-.11a1.71,1.71,0,0,1,.23-.13l.21-.1.24-.1.21-.08.31-.11.2-.06.32-.08.21,0,.34,0,.21,0,.32,0h.56l.21,0,.33.05.22,0,.3.07.21.06.28.09.22.08.26.1.21.1.25.12.22.12.21.13.21.14.17.11.22.16.19.15.21.18a.69.69,0,0,1,.13.11l.21.19.14.14.21.21.12.13.21.23.1.12.2.26.09.11.21.27a.44.44,0,0,0,.08.11l.2.3a1,1,0,0,1,.08.11l.2.31.06.1.19.33.06.11.19.35,0,.08.18.37.06.11.18.39s0,0,0,.08l.18.41,0,.09.17.42a.59.59,0,0,1,0,.08l.16.44a.42.42,0,0,1,0,.1l.15.45,0,.09.15.47a.24.24,0,0,1,0,.08l.15.49s0,.06,0,.09l.14.5a.36.36,0,0,0,0,.1l.12.52,0,.07.11.54a.29.29,0,0,1,0,.09l.11.55v.08l.09.57v.07l.09.59a.28.28,0,0,0,0,.09l.07.6a.17.17,0,0,0,0,.07l.05.61a.28.28,0,0,1,0,.09l.05.62V157l0,.64v.08l0,.65v.83l0,.67V160l0,.69v.09l-.05.7s0,.06,0,.08l-.06.71s0,.05,0,.08l-.08.72a.22.22,0,0,1,0,.08l-.1.73s0,.07,0,.1l-.12.74s0,.05,0,.07l-.14.75a.19.19,0,0,1,0,.08l-.15.76s0,.06,0,.09l-.18.76s0,0,0,.08l-.2.77a.24.24,0,0,1,0,.08l-.21.78,0,.09-.25.79,0,.07-.26.79,0,.09-.29.79,0,.08-.3.81,0,.08-.33.8,0,.08-.36.81a.3.3,0,0,1,0,.08l-.38.81,0,.07-.41.82a.59.59,0,0,0,0,.08l-.43.82a.43.43,0,0,0,0,.07l-.46.82a.25.25,0,0,1,0,.07l-.48.82a.25.25,0,0,0,0,.07l-.51.82-.05.07-.53.82-.05.07-.56.82,0,.06-.59.82,0,.07-.62.82-.05.06-.64.81-.05.06-.66.81-.06.06-.69.8-.06.06-.72.8,0,.06-.75.79-.06.06-.77.79-.06.05-.8.78-.06.05-.83.78-.06.05-.86.77-.05,0-1.85,1.55-.06.05-.94.74-.06,0-2,1.49-.06,0-2.12,1.44-.06,0-2.21,1.38-2.38,1.37-1.22.65-.06,0-2.45,1.22-2.6,1.19-2.68,1.11-2.76,1-2.83.94-2.88.86-3,.77-3,.67-3,.57-3.07.47-3.09.37-3.11.25L83,209.2l-3.11,0Z"/><path class="b" d="M210,189.49a3.61,3.61,0,0,1-1.11-7.05l2.59-.87,2.61-1,2.67-1.1,2.68-1.2L222.1,177l2.61-1.38,2.55-1.45,2.44-1.51L232,171.1l2.18-1.58,2.07-1.63,1.92-1.65,1.75-1.65,1.59-1.65L243,161.3l1.24-1.62,1.06-1.57.88-1.54.71-1.48.54-1.41.39-1.35.23-1.27.09-1.2,0-1.13-.16-1.07-.27-1-.38-1-.49-.92-.61-.9-.73-.85-.86-.83-1-.78-1.09-.74L241.3,140l-1.32-.63-1.43-.56L237,138.3l-1.6-.42-1.69-.34-1.75-.27-1.81-.18-1.87-.11-1.9,0-1.94.06-2,.14-2,.22-2,.3-2,.38-2,.45-2,.52-2,.6-1.94.67-1.9.73-1.87.8-1.8.84-2.69,1.42-2.55,1.51-2.43,1.62-2.3,1.71-2.17,1.8-2,1.87L187,154.51l-1.76,2-1.62,2-2,2.7-1.75,2.69L178,167.2l-2.23,4.5-5.38,12-.05.07-.42.71,0,.08-.2.3-.06.1-.2.28-.06.1-.2.27-.07.09-.19.25-.1.11-.19.23-.11.12-.19.21a.8.8,0,0,1-.13.13l-.2.19-.14.14-.2.17-.17.14-.2.16-.17.12-.2.14-.22.14-.21.12-.25.13-.2.1-.26.12-.21.08-.3.1-.2.06-.34.08-.21,0-.29,0-.21,0-.36,0h-.54l-.21,0-.34,0-.21,0-.31-.07-.21-.05-.29-.09-.21-.08-.26-.11-.21-.09-.25-.13-.21-.12-.21-.12-.21-.13-.19-.13-.21-.16-.18-.14-.21-.17L159,187l-.21-.19-.12-.13-.21-.21a1.59,1.59,0,0,1-.13-.13l-.21-.24-.09-.11-.21-.26-.09-.11-.2-.27-.09-.13-.2-.29-.07-.11-.2-.31-.06-.09-.19-.33a.75.75,0,0,1-.07-.12l-.19-.34a.93.93,0,0,0-.05-.1l-.19-.36,0-.1-.18-.38,0-.09-.17-.41a.36.36,0,0,1,0-.09l-.17-.43a.2.2,0,0,1,0-.08l-.16-.44,0-.09-.16-.46,0-.07-.15-.48,0-.1-.14-.48s0-.06,0-.08l-.13-.51a.19.19,0,0,1,0-.08l-.13-.52a.29.29,0,0,0,0-.09l-.11-.54s0-.05,0-.08l-.1-.55s0-.06,0-.08l-.09-.57v-.09l-.17-1.25a.34.34,0,0,0,0-.1l-.1-1.3a.28.28,0,0,1,0-.09l0-.64v-.08l0-.65v-1.59l0-.69v-.08l0-.7s0-.05,0-.08l.06-.71s0-.06,0-.09l.08-.72v-.08l.1-.73s0-.06,0-.08l.12-.74a.25.25,0,0,0,0-.08l.14-.75s0-.06,0-.09l.16-.76s0-.05,0-.07l.18-.77a.29.29,0,0,1,0-.09l.2-.77s0-.06,0-.08l.22-.79,0-.07.24-.78,0-.09.26-.79,0-.08.29-.8,0-.07.31-.81,0-.08.33-.81,0-.07.36-.81,0-.08.38-.82,0-.07.4-.81s0,0,0-.08l.43-.82a.25.25,0,0,0,0-.07l.46-.82,0-.07.48-.82.05-.07.5-.82.05-.07.53-.82,0-.07.56-.82.05-.07.59-.82,0-.06.62-.81,0-.07.64-.81,0-.06.67-.81,0-.06.7-.81a.12.12,0,0,1,0-.05l.72-.8.06-.07.75-.79.05-.05.78-.79.05,0,.8-.79.06,0,.83-.77.06-.06.86-.76.05-.05.89-.76.06-.05.91-.74.05-.05.94-.74.06,0,1-.73.06-.05,1-.71.05,0,2.12-1.44.06,0,2.22-1.39,2.37-1.36,2.47-1.3,2.55-1.22,2.64-1.15,2.72-1.07,2.79-1,2.86-.91,2.92-.81,3-.72,3-.62,3-.52,3.09-.42,3.09-.31,3.12-.21,3.11-.09h1.56l3.09.07,3.08.19,1.52.14h.07l1.45.16H233l2.92.41.07,0,1.41.24h.08l1.38.28h.08l1.37.3.08,0,1.35.33.08,0,1.33.36.08,0,1.31.38.08,0,1.29.41.08,0,1.26.44.09,0,1.23.46.09,0,1.21.49.09,0,1.18.52.09,0,1.14.54.1,0,1.11.57.1.05,1.08.6.1.06,1.05.62.1.06,1,.65.11.07,1,.67.1.07.94.7.1.08.9.72.1.09.86.74.1.09.82.77.11.1.76.79.11.11.72.81.11.12.67.83.11.13.62.85.1.14.59.87.09.15.53.88.09.16.48.9.09.18.43.91.08.18.37.94a1.07,1.07,0,0,1,.07.19l.32,1a.7.7,0,0,1,.06.19l.27,1c0,.06,0,.13.05.19l.21,1c0,.07,0,.14,0,.21l.15,1,0,.21.09,1a1.49,1.49,0,0,1,0,.21l0,1v.21l0,1a1.48,1.48,0,0,0,0,.21l-.09,1a1.36,1.36,0,0,1,0,.2l-.14,1a1.77,1.77,0,0,1,0,.2l-.2,1a1.94,1.94,0,0,1-.05.2l-.26,1-.06.2-.33,1-.06.18-.4,1.06s0,.11-.07.17l-.46,1.05c0,.06-.05.11-.07.17l-.53,1.05-.08.16-.59,1.05-.09.15-.65,1-.1.14-.72,1.05-.09.13-.79,1-.1.12-.86,1a.52.52,0,0,1-.1.11l-.92,1-.1.1-1,1a.94.94,0,0,0-.1.1l-1.06,1-.11.1-1.13,1-.09.08-1.2,1-.1.08-1.27,1-.1.08-1.34,1-.1.06-1.41.94-.09.06-1.48.91-.1.06-1.55.89-.09.06-1.62.87-.09,0-1.69.85-.09,0-1.77.83-.08,0-1.84.81-.08,0-1.91.79-.08,0-2,.75-.08,0-2,.73-.08,0-2.12.7-.08,0-2.19.67-.08,0-2.26.65-.07,0-2.34.61-.07,0L224,187l-2.55.56-2.63.54-2.68.49-2.76.47-2.83.44A5.09,5.09,0,0,1,210,189.49Z"/><path class="b" d="M28.52,148.3a2.89,2.89,0,0,1-2.22-4.73l1.14-1.38.07-.08,1.2-1.34.08-.09,1.27-1.3.08-.08L31.48,138l.08-.07,1.4-1.24.08-.07,1.47-1.21.08-.06,1.54-1.18.07-.06L37.8,133l.08,0,1.67-1.13.07,0,1.73-1.1.07,0,1.8-1.07.06,0,1.87-1,2-1.05,2-1,2.1-1,2.16-1,2.22-1,2.27-.93,2.31-.91,2.37-.9L67.51,119l5.07-1.66,5.23-1.58,5.39-1.52,5.52-1.45,5.65-1.4,5.76-1.34,5.86-1.29,8.92-1.83,9-1.71,9.13-1.59,9.16-1.48,9.14-1.37,12.09-1.64,11.89-1.43L187,96.44l11.18-1,10.71-.84,12.61-.79L233,93.25,243.51,93l7.49,0,8.18.12,6.81.3,4.43.34,2.73.33,2.23.37.07,0,.57.12.1,0,.5.13.11,0,.44.13.15.05.38.14.18.07.32.13.24.12.26.14.33.21.2.15a3.52,3.52,0,0,1,.41.36l.13.15a2.7,2.7,0,0,1,.46.66l.08.15a3,3,0,0,1,.3,1v.15a2.81,2.81,0,0,1-.11,1.08l0,.16a2.88,2.88,0,0,1-.38.79l-.11.16a2.62,2.62,0,0,1-.4.48l-.17.16a3.88,3.88,0,0,1-.31.26l-.23.16-.24.15-.29.17-.18.1-.35.16-.15.07-.4.17-.12,0-.47.18-.09,0-.53.17-.07,0-2.05.57-3.51.78-5.57,1-8.31,1.26L237.13,109,122,122.67,105.9,125,93,127.06l-8.11,1.47-7.68,1.55-5.48,1.23-5.23,1.3-5,1.36-4.75,1.45-3,1-2.94,1.06-2.86,1.1-2.76,1.15-2.69,1.2-2.6,1.25L37.3,143.5l-2.46,1.38-2.4,1.43-2.33,1.51A2.8,2.8,0,0,1,28.52,148.3Z"/></svg>