<svg xmlns="http://www.w3.org/2000/svg" width="374.17" height="574.13" viewBox="0 0 374.17 574.13"><defs><style>.a{fill:red;}.a,.c{stroke:#fff;stroke-miterlimit:10;stroke-width:10px;}.b{fill:#fff;}.c{fill:#fbb03b;}</style></defs><path class="a" d="M231.19,563.85c-1.48,7.06-11.57,7-13,0-13.29-65.3-36.55-143.73-99.82-206.19l-.1-.09-1.78-1.75A148.13,148.13,0,1,1,369.17,250.85c0,42.76-30.44,88.91-49.78,108.25C268.8,411.38,242.25,511,231.19,563.85Z"/><path class="b" d="M147.75,307h-.06l-3-.08-3.07-.19-1.53-.14H140l-1.44-.16h-.07l-1.44-.18-.07,0-1.42-.21h-.07l-1.41-.25H134l-1.39-.27-.08,0-1.37-.3-.07,0-1.36-.33-.08,0-1.32-.35-.09,0-1.31-.38-.08,0-1.28-.41-.09,0-1.26-.43-.09,0-1.23-.46-.09,0-1.2-.49-.1,0-1.17-.52-.1,0-1.14-.54-.1,0-1.11-.57-.1,0-1.08-.6-.1-.06-1-.62-.1-.06-1-.65-.1-.07-1-.67-.1-.07-.94-.7-.1-.08-.9-.72-.1-.09-.86-.74-.1-.09-.81-.76-.11-.11-.77-.79-.11-.11-.72-.81-.1-.12-.68-.83a.64.64,0,0,1-.1-.13l-.63-.85a.71.71,0,0,1-.1-.14l-.58-.87-.1-.15-.53-.88-.09-.16-.48-.9-.09-.17-.43-.92-.07-.18-.38-.94c0-.06,0-.12-.07-.19l-.32-.94-.06-.2-.27-1a1.46,1.46,0,0,0,0-.2l-.21-1a1.77,1.77,0,0,0,0-.2l-.15-1,0-.22-.09-1c0-.07,0-.13,0-.2l0-1a1.7,1.7,0,0,1,0-.22l0-1a1.48,1.48,0,0,1,0-.21l.08-1a1.49,1.49,0,0,1,0-.21l.15-1,0-.2.2-1c0-.06,0-.13,0-.2l.27-1a1.05,1.05,0,0,1,.05-.19l.33-1c0-.06,0-.12.07-.19l.39-1.05c0-.05,0-.11.07-.17l.46-1.05a1.3,1.3,0,0,1,.08-.17l.52-1a1.09,1.09,0,0,0,.08-.15l.59-1.06.09-.15.66-1,.09-.14.72-1.05a1.47,1.47,0,0,0,.1-.13l.79-1,.09-.12.86-1a.52.52,0,0,1,.1-.11l.92-1,.1-.1,1-1,.09-.1,1.07-1,.1-.09,1.13-1,.1-.08,1.2-1,.1-.08,1.27-1,.09-.07,1.34-.95.1-.07,1.41-.93.09-.06,1.49-.92.09-.06,1.55-.89.09,0,1.63-.88.08,0,1.7-.86.08,0,1.77-.83.09,0,1.83-.81.09,0,1.9-.78.08,0,2-.75.09,0,2.05-.73.07,0,2.13-.7.07,0,2.2-.67.07,0,2.27-.65h.07l2.34-.62,2.48-.6,2.55-.56,2.62-.53,2.69-.5,2.75-.47,2.83-.43a3.61,3.61,0,0,1,1.67,7l-2.59.87-2.62,1-2.67,1.1L152,250l-2.66,1.29-2.61,1.38-2.54,1.45-2.45,1.52-2.34,1.56-2.18,1.58-2.07,1.63-1.91,1.65-1.76,1.65-1.59,1.66L128.46,267l-1.24,1.62-1.06,1.58-.88,1.53-.71,1.48-.54,1.42-.38,1.34-.24,1.28-.09,1.2,0,1.13.15,1.06.27,1,.38,1,.5.92.61.9.73.86.85.82,1,.78,1.09.74,1.22.68,1.31.63,1.43.56,1.52.49,1.6.42,1.69.34,1.75.27,1.81.19,1.87.1,1.9,0,2-.06,2-.14,2-.22,2-.3,2-.37,2-.46,2-.52,2-.6,1.93-.67,1.9-.73,1.87-.8,1.8-.84,2.69-1.41,2.55-1.52,2.43-1.62,2.31-1.71,2.16-1.8,2-1.86,1.89-1.93,1.76-2,1.62-2,1.5-2,1.8-2.7,1.59-2.68,1.74-3.28,3.29-7.29,2.65-6,.89-1.66a.56.56,0,0,1,.05-.08l.19-.32,0-.07.19-.3.07-.11.2-.28a.35.35,0,0,1,.05-.08l.19-.26a.76.76,0,0,0,.08-.11l.2-.25.09-.11.2-.23.1-.12.2-.21.12-.13.2-.19a.86.86,0,0,1,.14-.13l.2-.18.16-.13.2-.16.19-.14.2-.13a1.82,1.82,0,0,1,.23-.15l.21-.12a1.67,1.67,0,0,1,.23-.12l.21-.1.24-.11.21-.08.31-.11.2-.06.32-.07.21-.05.34-.05.21,0H208l.35,0,.21,0,.33,0,.22,0,.3.07.21.05.28.09.22.08.26.11.21.09.25.13.22.12.21.12.21.14.17.12.22.15.19.16.21.17.13.11.21.2.14.13.21.22.12.12.21.24.1.12.2.25.09.11.21.28.08.11.2.29.08.12.2.31.06.1.19.33.06.11.19.35a.56.56,0,0,1,.05.08l.18.36.06.12.18.38,0,.09.18.4,0,.09.17.42a.36.36,0,0,1,0,.09l.16.44a.36.36,0,0,1,0,.09l.15.46,0,.09.15.47a.19.19,0,0,1,0,.07l.15.49s0,.06,0,.09l.14.51a.29.29,0,0,0,0,.09l.12.52,0,.07.11.54a.29.29,0,0,1,0,.09l.11.56v.08l.09.57V252l.09.58a.28.28,0,0,0,0,.09l.07.6a.22.22,0,0,0,0,.08l0,.61a.25.25,0,0,1,0,.08l0,.63v.09l0,.64v.07l0,.66v.82l0,.68v.08l0,.69v.09l-.05.7s0,.05,0,.08l-.06.71s0,.05,0,.07l-.08.72a.28.28,0,0,1,0,.09l-.1.73s0,.06,0,.09l-.12.74s0,.05,0,.07l-.14.75s0,.06,0,.09l-.16.75s0,.06,0,.09l-.18.77s0,.05,0,.07l-.2.78a.31.31,0,0,1,0,.08l-.21.78,0,.09-.24.78,0,.07-.26.8,0,.08-.29.8a.13.13,0,0,1,0,.08l-.3.8,0,.08-.33.81,0,.08-.36.81a.25.25,0,0,1,0,.07l-.38.82,0,.07-.41.81,0,.08-.43.82a.43.43,0,0,1,0,.07l-.46.82,0,.08-.48.81a.3.3,0,0,0,0,.08l-.51.82,0,.07-.53.82-.05.06L210,279a.43.43,0,0,0,0,.07l-.59.81a.35.35,0,0,0,0,.08l-.62.81-.05.06-.64.81-.05.06-.66.81-.06.06-.69.81-.06.06-.72.8-.05.05-.75.8,0,0-.78.79-.06.06-.8.78-.06.05-.83.77-.06.06-.86.76,0,.05L199.61,290l-.06.05-.94.74-.06.05-2,1.48-.06.05-2.12,1.43-.06,0-2.21,1.39-2.38,1.36-1.22.66-.06,0L186,298.53l-2.6,1.19-2.68,1.11-2.76,1-2.82.95-2.89.86-2.95.76-3,.67-3,.57-3.07.47-3.09.37-3.11.26-3.11.15-3.11,0Z"/><path class="b" d="M277.91,287.2a3.61,3.61,0,0,1-1.11-7l2.59-.87,2.61-1,2.67-1.09,2.68-1.2,2.65-1.3,2.61-1.37,2.55-1.46,2.44-1.51,2.34-1.56,2.18-1.59,2.07-1.63,1.92-1.64,1.75-1.66,1.59-1.65,1.41-1.64,1.24-1.61,1.06-1.58.88-1.53.71-1.48.54-1.42.39-1.35.23-1.27.09-1.2,0-1.13-.16-1.07-.27-1-.38-1-.49-.93-.61-.89-.73-.86-.86-.82-1-.78-1.09-.74-1.21-.69-1.32-.62-1.43-.56-1.51-.49-1.61-.42-1.69-.35-1.75-.26-1.81-.19-1.86-.11-1.91,0-1.94.06-2,.13-2,.23-2,.29-2,.38-2,.45-2,.53-2,.6-1.94.66-1.9.74-1.87.8-1.8.84-2.69,1.41-2.55,1.51-2.43,1.62-2.3,1.72-2.17,1.8-2,1.86-1.89,1.92-1.76,2-1.62,2-2,2.69-1.75,2.7-1.91,3.33-2.23,4.51-5.38,12-.05.08-.42.71,0,.07-.2.31-.06.09-.2.29-.06.1-.2.26-.07.09-.19.25-.1.12-.19.23-.11.11-.19.22-.13.12-.19.2-.15.13-.2.18-.16.13-.21.16a1.09,1.09,0,0,1-.17.13l-.2.14-.22.14-.21.11a2,2,0,0,1-.25.14l-.2.1-.26.11-.21.08-.3.1-.2.06a2.09,2.09,0,0,1-.34.08l-.21,0-.29.05-.21,0-.36,0H231l-.21,0-.34,0-.21,0-.31-.07-.21-.06-.29-.09-.21-.08-.26-.1-.21-.1-.25-.12-.21-.12-.21-.12-.21-.14-.19-.13-.21-.15-.18-.14-.21-.18-.15-.12-.21-.2-.12-.12-.21-.22-.13-.13-.21-.24-.09-.11-.21-.25-.09-.12-.2-.27-.09-.12-.2-.3a.61.61,0,0,1-.07-.1l-.2-.31-.06-.09-.19-.33a.75.75,0,0,1-.07-.12l-.19-.35-.05-.09-.19-.37,0-.09-.18-.39-.05-.09-.17-.4a.42.42,0,0,1,0-.1l-.17-.42a.59.59,0,0,0,0-.08l-.16-.44,0-.09-.16-.46,0-.08-.15-.47,0-.1-.14-.49s0-.05,0-.08l-.13-.5a.31.31,0,0,1,0-.08l-.13-.52a.44.44,0,0,0,0-.1l-.11-.53s0-.06,0-.08l-.1-.56s0,0,0-.08l-.09-.57V274l-.17-1.25a.41.41,0,0,0,0-.11l-.1-1.3a.28.28,0,0,1,0-.09l0-.63v-.08l0-.66v-1.59l0-.69v-.07l0-.7s0-.06,0-.08l.06-.72s0-.06,0-.09l.08-.72v-.08l.1-.73s0-.05,0-.08l.12-.74a.22.22,0,0,0,0-.08l.14-.75s0-.06,0-.08l.16-.76s0,0,0-.08l.18-.76a.29.29,0,0,1,0-.09l.2-.77s0-.06,0-.09l.22-.78,0-.07.24-.79,0-.08.26-.79,0-.09.29-.79,0-.08.31-.8,0-.09.33-.8,0-.07.36-.82a.59.59,0,0,0,0-.08l.38-.81a.16.16,0,0,1,0-.07l.4-.82,0-.07.43-.82a.3.3,0,0,0,0-.08l.46-.82,0-.07.48-.82.05-.07.5-.82,0-.07.53-.82.05-.07.56-.82.05-.06.59-.82,0-.07.62-.81,0-.06.64-.82,0-.06.67-.81,0-.06.7-.8,0-.06.72-.8.06-.06.75-.79.05-.06.78-.79,0-.05.8-.78.06,0,.83-.78.06-.05.86-.77.05-.05.89-.75.06-.05.91-.75.05,0,.94-.74.06,0,1-.73.06,0,1-.72.05,0,2.12-1.44.06,0,2.22-1.38,2.37-1.37,2.47-1.29,2.55-1.23,2.64-1.15,2.72-1.07,2.79-1,2.86-.9,2.92-.81,3-.72,3-.62,3.05-.53,3.09-.41,3.09-.32,3.12-.2,3.11-.09h1.56l3.09.08,3.08.19,1.52.13h.07l1.45.16h.07l2.92.42h.07l1.41.24.08,0,1.38.27.08,0,1.37.3.08,0,1.35.32.08,0,1.33.36.08,0,1.31.39.08,0,1.29.41.08,0,1.26.44.09,0,1.23.47.09,0,1.21.49.09,0,1.18.52.09,0,1.14.54.1,0,1.11.57.1.05,1.08.6.1.05,1.05.62.1.07,1,.64.11.07,1,.67.1.08.94.69.1.08.9.72.1.09.86.74.11.1.81.76a1.14,1.14,0,0,0,.11.11l.76.79.11.11.72.81.11.12.67.82.11.14.62.84.11.15.58.86.09.15.53.89.09.15.48.91.09.17.43.92.08.18.37.93a1.46,1.46,0,0,1,.07.19l.32.95a.76.76,0,0,1,.06.2l.27,1c0,.07,0,.13.05.2l.21,1c0,.07,0,.14,0,.21l.15,1,0,.21.09,1a1.49,1.49,0,0,1,0,.21l0,1v.21l0,1a1.48,1.48,0,0,0,0,.21l-.09,1a1.49,1.49,0,0,1,0,.21l-.14,1a1.18,1.18,0,0,1,0,.2l-.2,1a1.17,1.17,0,0,1-.05.2l-.26,1.05-.06.19-.33,1-.06.18-.4,1a.87.87,0,0,1-.07.17l-.46,1.06c0,.05-.05.11-.07.17l-.53,1-.08.15-.59,1.05-.09.15-.65,1.05-.1.14-.72,1-.09.13-.79,1-.1.12-.86,1-.1.11-.92,1-.1.11-1,1-.1.1-1.06,1-.11.09-1.13,1-.09.08-1.2,1-.1.07-1.27,1-.1.07-1.34.95-.1.07-1.41.93-.09.06-1.48.92-.1.05-1.55.9-.09.05-1.62.88-.09,0-1.69.85-.09.05-1.77.83-.08,0-1.84.8-.08,0-1.91.78-.08,0-2,.76-.08,0-2.05.73-.08,0-2.12.7-.08,0-2.19.67-.08,0-2.26.64-.07,0-2.34.61-.07,0-2.41.58-2.55.57-2.63.53-2.68.5-2.76.47-2.83.43A3.39,3.39,0,0,1,277.91,287.2Z"/><path class="b" d="M96.42,246a2.89,2.89,0,0,1-2.22-4.73l1.14-1.38.07-.09,1.2-1.34.08-.08L98,237.09,98,237l1.34-1.27.08-.08,1.4-1.24.08-.06,1.47-1.21.08-.07L104,231.9l.07-.05,1.6-1.16.08-.05,1.67-1.12.07-.05,1.73-1.1.07,0,1.8-1.07.06,0,1.87-1,2-1.06,2-1,2.1-1,2.16-1,2.22-.95,2.27-.94,2.31-.91,2.37-.89,4.89-1.73,5.07-1.65,5.23-1.58,5.39-1.52,5.52-1.46,5.65-1.4,5.76-1.34,5.86-1.28,8.92-1.83,9.05-1.71,9.13-1.6,9.16-1.48,9.14-1.36,12.09-1.64,11.89-1.44,11.58-1.24,11.18-1,10.71-.85,12.61-.79,11.59-.52,10.47-.26,7.49,0,8.19.12,6.8.3,4.43.35,2.73.32,2.23.38h.07l.57.13.1,0,.5.13.11,0,.44.13.15.05.38.13.18.07.32.14a1.34,1.34,0,0,1,.24.12l.26.14a1.85,1.85,0,0,1,.33.21l.2.14a3.6,3.6,0,0,1,.41.37l.13.15a2.52,2.52,0,0,1,.46.66l.08.15a2.9,2.9,0,0,1,.3,1v.16a2.83,2.83,0,0,1-.11,1.08l0,.16a3,3,0,0,1-.38.79l-.11.16a2.55,2.55,0,0,1-.4.47l-.17.17-.31.25-.23.16-.24.16-.29.16-.18.1-.35.17-.14.06-.41.17-.12.05-.47.17-.09,0-.53.18-.07,0-2.05.57-3.51.78-5.56,1-8.32,1.25L305,206.71,189.9,220.39l-16.1,2.3-12.93,2.09-8.11,1.46-7.68,1.56L139.6,229l-5.23,1.29-5,1.37-4.75,1.44-3,1-3,1-2.86,1.11L113,237.46l-2.69,1.19-2.6,1.26-2.53,1.31-2.46,1.37-2.4,1.44L98,245.54A2.88,2.88,0,0,1,96.42,246Z"/><polygon class="c" points="165.72 186.06 108.37 147.52 53.99 190.16 72.92 123.7 15.56 85.16 84.62 82.63 103.54 16.17 127.29 81.06 196.35 78.53 141.97 121.17 165.72 186.06"/></svg>